solid base
   facet normal 7.071068e-001 -7.071068e-001 0.000000e+000
      outer loop
         vertex -1.060660e+000 -1.060660e+000 1.000000e+000
         vertex -1.060660e+000 -1.060660e+000 2.000000e+000
         vertex -1.500000e+000 -1.500000e+000 1.000000e+000
      endloop
   endfacet
   facet normal 7.071068e-001 -7.071068e-001 0.000000e+000
      outer loop
         vertex -1.500000e+000 -1.500000e+000 1.000000e+000
         vertex -1.060660e+000 -1.060660e+000 2.000000e+000
         vertex -1.500000e+000 -1.500000e+000 2.000000e+000
      endloop
   endfacet
   facet normal -6.396374e-001 -7.686768e-001 0.000000e+000
      outer loop
         vertex -1.060660e+000 -1.060660e+000 2.000000e+000
         vertex -1.060660e+000 -1.060660e+000 1.000000e+000
         vertex -7.329319e-001 -1.308744e+000 1.000000e+000
      endloop
   endfacet
   facet normal -5.661935e-001 -8.242723e-001 0.000000e+000
      outer loop
         vertex -1.060660e+000 -1.060660e+000 2.000000e+000
         vertex -7.329319e-001 -1.308744e+000 1.000000e+000
         vertex -7.329319e-001 -1.308744e+000 2.000000e+000
      endloop
   endfacet
   facet normal -4.069724e-001 -9.134405e-001 0.000000e+000
      outer loop
         vertex -7.329319e-001 -1.308744e+000 2.000000e+000
         vertex -7.329319e-001 -1.308744e+000 1.000000e+000
         vertex -3.501680e-001 -1.458555e+000 1.000000e+000
      endloop
   endfacet
   facet normal -3.211951e-001 -9.470130e-001 0.000000e+000
      outer loop
         vertex -7.329319e-001 -1.308744e+000 2.000000e+000
         vertex -3.501680e-001 -1.458555e+000 1.000000e+000
         vertex -3.501680e-001 -1.458555e+000 2.000000e+000
      endloop
   endfacet
   facet normal -1.437480e-001 -9.896143e-001 0.000000e+000
      outer loop
         vertex -3.501680e-001 -1.458555e+000 2.000000e+000
         vertex -3.501680e-001 -1.458555e+000 1.000000e+000
         vertex 5.888972e-002 -1.498844e+000 1.000000e+000
      endloop
   endfacet
   facet normal -5.207824e-002 -9.986430e-001 0.000000e+000
      outer loop
         vertex -3.501680e-001 -1.458555e+000 2.000000e+000
         vertex 5.888972e-002 -1.498844e+000 1.000000e+000
         vertex 5.888972e-002 -1.498844e+000 2.000000e+000
      endloop
   endfacet
   facet normal 1.302703e-001 -9.914785e-001 0.000000e+000
      outer loop
         vertex 5.888972e-002 -1.498844e+000 2.000000e+000
         vertex 5.888972e-002 -1.498844e+000 1.000000e+000
         vertex 4.635255e-001 -1.426585e+000 1.000000e+000
      endloop
   endfacet
   facet normal 2.209491e-001 -9.752854e-001 0.000000e+000
      outer loop
         vertex 5.888972e-002 -1.498844e+000 2.000000e+000
         vertex 4.635255e-001 -1.426585e+000 1.000000e+000
         vertex 4.635255e-001 -1.426585e+000 2.000000e+000
      endloop
   endfacet
   facet normal 3.945068e-001 -9.188930e-001 0.000000e+000
      outer loop
         vertex 4.635255e-001 -1.426585e+000 2.000000e+000
         vertex 4.635255e-001 -1.426585e+000 1.000000e+000
         vertex 8.333554e-001 -1.247204e+000 1.000000e+000
      endloop
   endfacet
   facet normal 4.773856e-001 -8.786939e-001 0.000000e+000
      outer loop
         vertex 4.635255e-001 -1.426585e+000 2.000000e+000
         vertex 8.333554e-001 -1.247204e+000 1.000000e+000
         vertex 8.333554e-001 -1.247204e+000 2.000000e+000
      endloop
   endfacet
   facet normal 6.291198e-001 -7.773083e-001 0.000000e+000
      outer loop
         vertex 8.333554e-001 -1.247204e+000 2.000000e+000
         vertex 8.333554e-001 -1.247204e+000 1.000000e+000
         vertex 1.140609e+000 -9.741721e-001 1.000000e+000
      endloop
   endfacet
   facet normal 6.979753e-001 -7.161219e-001 0.000000e+000
      outer loop
         vertex 8.333554e-001 -1.247204e+000 2.000000e+000
         vertex 1.140609e+000 -9.741721e-001 1.000000e+000
         vertex 1.140609e+000 -9.741721e-001 2.000000e+000
      endloop
   endfacet
   facet normal 8.164926e-001 -5.773559e-001 0.000000e+000
      outer loop
         vertex 1.140609e+000 -9.741721e-001 2.000000e+000
         vertex 1.140609e+000 -9.741721e-001 1.000000e+000
         vertex 1.362215e+000 -6.279896e-001 1.000000e+000
      endloop
   endfacet
   facet normal 8.661544e-001 -4.997765e-001 0.000000e+000
      outer loop
         vertex 1.140609e+000 -9.741721e-001 2.000000e+000
         vertex 1.362215e+000 -6.279896e-001 1.000000e+000
         vertex 1.362215e+000 -6.279896e-001 2.000000e+000
      endloop
   endfacet
   facet normal 9.425553e-001 -3.340501e-001 0.000000e+000
      outer loop
         vertex 1.362215e+000 -6.279896e-001 2.000000e+000
         vertex 1.362215e+000 -6.279896e-001 1.000000e+000
         vertex 1.481532e+000 -2.346517e-001 1.000000e+000
      endloop
   endfacet
   facet normal 9.692944e-001 -2.459032e-001 0.000000e+000
      outer loop
         vertex 1.362215e+000 -6.279896e-001 2.000000e+000
         vertex 1.481532e+000 -2.346517e-001 1.000000e+000
         vertex 1.481532e+000 -2.346517e-001 2.000000e+000
      endloop
   endfacet
   facet normal 9.978420e-001 -6.566064e-002 0.000000e+000
      outer loop
         vertex 1.481532e+000 -2.346517e-001 2.000000e+000
         vertex 1.481532e+000 -2.346517e-001 1.000000e+000
         vertex 1.489603e+000 1.763061e-001 1.000000e+000
      endloop
   endfacet
   facet normal 9.996505e-001 2.643492e-002 0.000000e+000
      outer loop
         vertex 1.481532e+000 -2.346517e-001 2.000000e+000
         vertex 1.489603e+000 1.763061e-001 1.000000e+000
         vertex 1.489603e+000 1.763061e-001 2.000000e+000
      endloop
   endfacet
   facet normal 9.782012e-001 2.076593e-001 0.000000e+000
      outer loop
         vertex 1.489603e+000 1.763061e-001 2.000000e+000
         vertex 1.489603e+000 1.763061e-001 1.000000e+000
         vertex 1.385819e+000 5.740252e-001 1.000000e+000
      endloop
   endfacet
   facet normal 9.549434e-001 2.967880e-001 0.000000e+000
      outer loop
         vertex 1.489603e+000 1.763061e-001 2.000000e+000
         vertex 1.385819e+000 5.740252e-001 1.000000e+000
         vertex 1.385819e+000 5.740252e-001 2.000000e+000
      endloop
   endfacet
   facet normal 8.851078e-001 4.653861e-001 0.000000e+000
      outer loop
         vertex 1.385819e+000 5.740252e-001 2.000000e+000
         vertex 1.385819e+000 5.740252e-001 1.000000e+000
         vertex 1.177975e+000 9.286409e-001 1.000000e+000
      endloop
   endfacet
   facet normal 8.385300e-001 5.448555e-001 0.000000e+000
      outer loop
         vertex 1.385819e+000 5.740252e-001 2.000000e+000
         vertex 1.177975e+000 9.286409e-001 1.000000e+000
         vertex 1.177975e+000 9.286409e-001 2.000000e+000
      endloop
   endfacet
   facet normal 7.255520e-001 6.881673e-001 0.000000e+000
      outer loop
         vertex 1.177975e+000 9.286409e-001 2.000000e+000
         vertex 1.177975e+000 9.286409e-001 1.000000e+000
         vertex 8.816779e-001 1.213526e+000 1.000000e+000
      endloop
   endfacet
   facet normal 6.591518e-001 7.520099e-001 0.000000e+000
      outer loop
         vertex 1.177975e+000 9.286409e-001 2.000000e+000
         vertex 8.816779e-001 1.213526e+000 1.000000e+000
         vertex 8.816779e-001 1.213526e+000 2.000000e+000
      endloop
   endfacet
   facet normal 5.115148e-001 8.592744e-001 0.000000e+000
      outer loop
         vertex 8.816779e-001 1.213526e+000 2.000000e+000
         vertex 8.816779e-001 1.213526e+000 1.000000e+000
         vertex 5.191756e-001 1.407287e+000 1.000000e+000
      endloop
   endfacet
   facet normal 4.302782e-001 9.026964e-001 0.000000e+000
      outer loop
         vertex 8.816779e-001 1.213526e+000 2.000000e+000
         vertex 5.191756e-001 1.407287e+000 1.000000e+000
         vertex 5.191756e-001 1.407287e+000 2.000000e+000
      endloop
   endfacet
   facet normal 2.590683e-001 9.658590e-001 0.000000e+000
      outer loop
         vertex 5.191756e-001 1.407287e+000 2.000000e+000
         vertex 5.191756e-001 1.407287e+000 1.000000e+000
         vertex 1.176886e-001 1.495376e+000 1.000000e+000
      endloop
   endfacet
   facet normal 1.690952e-001 9.855997e-001 0.000000e+000
      outer loop
         vertex 5.191756e-001 1.407287e+000 2.000000e+000
         vertex 1.176886e-001 1.495376e+000 1.000000e+000
         vertex 1.176886e-001 1.495376e+000 2.000000e+000
      endloop
   endfacet
   facet normal -1.283155e-002 9.999177e-001 0.000000e+000
      outer loop
         vertex 1.176886e-001 1.495376e+000 2.000000e+000
         vertex 1.176886e-001 1.495376e+000 1.000000e+000
         vertex -2.926355e-001 1.471178e+000 1.000000e+000
      endloop
   endfacet
   facet normal -1.047851e-001 9.944949e-001 0.000000e+000
      outer loop
         vertex 1.176886e-001 1.495376e+000 2.000000e+000
         vertex -2.926355e-001 1.471178e+000 1.000000e+000
         vertex -2.926355e-001 1.471178e+000 2.000000e+000
      endloop
   endfacet
   facet normal -2.837679e-001 9.588930e-001 0.000000e+000
      outer loop
         vertex -2.926355e-001 1.471178e+000 2.000000e+000
         vertex -2.926355e-001 1.471178e+000 1.000000e+000
         vertex -6.809857e-001 1.336510e+000 1.000000e+000
      endloop
   endfacet
   facet normal -3.707971e-001 9.287139e-001 0.000000e+000
      outer loop
         vertex -2.926355e-001 1.471178e+000 2.000000e+000
         vertex -6.809857e-001 1.336510e+000 1.000000e+000
         vertex -6.809857e-001 1.336510e+000 2.000000e+000
      endloop
   endfacet
   facet normal -5.333962e-001 8.458655e-001 0.000000e+000
      outer loop
         vertex -6.809857e-001 1.336510e+000 2.000000e+000
         vertex -6.809857e-001 1.336510e+000 1.000000e+000
         vertex -1.018201e+000 1.101484e+000 1.000000e+000
      endloop
   endfacet
   facet normal -6.089662e-001 7.931962e-001 0.000000e+000
      outer loop
         vertex -6.809857e-001 1.336510e+000 2.000000e+000
         vertex -1.018201e+000 1.101484e+000 1.000000e+000
         vertex -1.018201e+000 1.101484e+000 2.000000e+000
      endloop
   endfacet
   facet normal -7.429721e-001 6.693224e-001 0.000000e+000
      outer loop
         vertex -1.018201e+000 1.101484e+000 2.000000e+000
         vertex -1.018201e+000 1.101484e+000 1.000000e+000
         vertex -1.278960e+000 7.837478e-001 1.000000e+000
      endloop
   endfacet
   facet normal -8.014082e-001 5.981178e-001 0.000000e+000
      outer loop
         vertex -1.018201e+000 1.101484e+000 2.000000e+000
         vertex -1.278960e+000 7.837478e-001 1.000000e+000
         vertex -1.278960e+000 7.837478e-001 2.000000e+000
      endloop
   endfacet
   facet normal -8.967586e-001 4.425201e-001 0.000000e+000
      outer loop
         vertex -1.278960e+000 7.837478e-001 2.000000e+000
         vertex -1.278960e+000 7.837478e-001 1.000000e+000
         vertex -1.443683e+000 4.071607e-001 1.000000e+000
      endloop
   endfacet
   facet normal -9.336729e-001 3.581270e-001 0.000000e+000
      outer loop
         vertex -1.278960e+000 7.837478e-001 2.000000e+000
         vertex -1.443683e+000 4.071607e-001 1.000000e+000
         vertex -1.443683e+000 4.071607e-001 2.000000e+000
      endloop
   endfacet
   facet normal -9.832079e-001 1.824893e-001 0.000000e+000
      outer loop
         vertex -1.443683e+000 4.071607e-001 2.000000e+000
         vertex -1.443683e+000 4.071607e-001 1.000000e+000
         vertex -1.500000e+000 0.000000e+000 1.000000e+000
      endloop
   endfacet
   facet normal -9.958285e-001 9.124463e-002 0.000000e+000
      outer loop
         vertex -1.443683e+000 4.071607e-001 2.000000e+000
         vertex -1.500000e+000 0.000000e+000 1.000000e+000
         vertex -1.500000e+000 0.000000e+000 2.000000e+000
      endloop
   endfacet
   facet normal 9.889994e-001 1.479198e-001 0.000000e+000
      outer loop
         vertex -4.504845e-001 -2.169419e-001 2.000000e+000
         vertex -5.000000e-001 -1.224606e-016 1.000000e+000
         vertex -5.000000e-001 -1.224606e-016 2.000000e+000
      endloop
   endfacet
   facet normal 9.889994e-001 -1.479198e-001 0.000000e+000
      outer loop
         vertex -5.000000e-001 -1.224606e-016 2.000000e+000
         vertex -5.000000e-001 -1.224606e-016 1.000000e+000
         vertex -4.504845e-001 2.169419e-001 1.000000e+000
      endloop
   endfacet
   facet normal 9.552376e-001 -2.958396e-001 0.000000e+000
      outer loop
         vertex -5.000000e-001 -1.224606e-016 2.000000e+000
         vertex -4.504845e-001 2.169419e-001 1.000000e+000
         vertex -4.504845e-001 2.169419e-001 2.000000e+000
      endloop
   endfacet
   facet normal 8.268777e-001 -5.623819e-001 0.000000e+000
      outer loop
         vertex -4.504845e-001 2.169419e-001 2.000000e+000
         vertex -4.504845e-001 2.169419e-001 1.000000e+000
         vertex -3.117449e-001 3.909158e-001 1.000000e+000
      endloop
   endfacet
   facet normal 7.322794e-001 -6.810043e-001 0.000000e+000
      outer loop
         vertex -4.504845e-001 2.169419e-001 2.000000e+000
         vertex -3.117449e-001 3.909158e-001 1.000000e+000
         vertex -3.117449e-001 3.909158e-001 2.000000e+000
      endloop
   endfacet
   facet normal 5.009826e-001 -8.654573e-001 0.000000e+000
      outer loop
         vertex -3.117449e-001 3.909158e-001 2.000000e+000
         vertex -3.117449e-001 3.909158e-001 1.000000e+000
         vertex -1.112605e-001 4.874640e-001 1.000000e+000
      endloop
   endfacet
   facet normal 3.642842e-001 -9.312878e-001 0.000000e+000
      outer loop
         vertex -3.117449e-001 3.909158e-001 2.000000e+000
         vertex -1.112605e-001 4.874640e-001 1.000000e+000
         vertex -1.112605e-001 4.874640e-001 2.000000e+000
      endloop
   endfacet
   facet normal 7.586192e-002 -9.971184e-001 0.000000e+000
      outer loop
         vertex -1.112605e-001 4.874640e-001 2.000000e+000
         vertex -1.112605e-001 4.874640e-001 1.000000e+000
         vertex 1.112605e-001 4.874640e-001 1.000000e+000
      endloop
   endfacet
   facet normal -7.586192e-002 -9.971184e-001 0.000000e+000
      outer loop
         vertex -1.112605e-001 4.874640e-001 2.000000e+000
         vertex 1.112605e-001 4.874640e-001 1.000000e+000
         vertex 1.112605e-001 4.874640e-001 2.000000e+000
      endloop
   endfacet
   facet normal -3.642842e-001 -9.312878e-001 0.000000e+000
      outer loop
         vertex 1.112605e-001 4.874640e-001 2.000000e+000
         vertex 1.112605e-001 4.874640e-001 1.000000e+000
         vertex 3.117449e-001 3.909158e-001 1.000000e+000
      endloop
   endfacet
   facet normal -5.009826e-001 -8.654573e-001 0.000000e+000
      outer loop
         vertex 1.112605e-001 4.874640e-001 2.000000e+000
         vertex 3.117449e-001 3.909158e-001 1.000000e+000
         vertex 3.117449e-001 3.909158e-001 2.000000e+000
      endloop
   endfacet
   facet normal -7.322794e-001 -6.810043e-001 0.000000e+000
      outer loop
         vertex 3.117449e-001 3.909158e-001 2.000000e+000
         vertex 3.117449e-001 3.909158e-001 1.000000e+000
         vertex 4.504845e-001 2.169419e-001 1.000000e+000
      endloop
   endfacet
   facet normal -8.268777e-001 -5.623819e-001 0.000000e+000
      outer loop
         vertex 3.117449e-001 3.909158e-001 2.000000e+000
         vertex 4.504845e-001 2.169419e-001 1.000000e+000
         vertex 4.504845e-001 2.169419e-001 2.000000e+000
      endloop
   endfacet
   facet normal -9.552376e-001 -2.958396e-001 0.000000e+000
      outer loop
         vertex 4.504845e-001 2.169419e-001 2.000000e+000
         vertex 4.504845e-001 2.169419e-001 1.000000e+000
         vertex 5.000000e-001 6.123032e-017 1.000000e+000
      endloop
   endfacet
   facet normal -9.889994e-001 -1.479198e-001 0.000000e+000
      outer loop
         vertex 4.504845e-001 2.169419e-001 2.000000e+000
         vertex 5.000000e-001 6.123032e-017 1.000000e+000
         vertex 5.000000e-001 6.123032e-017 2.000000e+000
      endloop
   endfacet
   facet normal -9.889994e-001 1.479198e-001 0.000000e+000
      outer loop
         vertex 5.000000e-001 6.123032e-017 2.000000e+000
         vertex 5.000000e-001 6.123032e-017 1.000000e+000
         vertex 4.504845e-001 -2.169419e-001 1.000000e+000
      endloop
   endfacet
   facet normal -9.552376e-001 2.958396e-001 0.000000e+000
      outer loop
         vertex 5.000000e-001 6.123032e-017 2.000000e+000
         vertex 4.504845e-001 -2.169419e-001 1.000000e+000
         vertex 4.504845e-001 -2.169419e-001 2.000000e+000
      endloop
   endfacet
   facet normal -8.268777e-001 5.623819e-001 0.000000e+000
      outer loop
         vertex 4.504845e-001 -2.169419e-001 2.000000e+000
         vertex 4.504845e-001 -2.169419e-001 1.000000e+000
         vertex 3.117449e-001 -3.909158e-001 1.000000e+000
      endloop
   endfacet
   facet normal -7.322794e-001 6.810043e-001 0.000000e+000
      outer loop
         vertex 4.504845e-001 -2.169419e-001 2.000000e+000
         vertex 3.117449e-001 -3.909158e-001 1.000000e+000
         vertex 3.117449e-001 -3.909158e-001 2.000000e+000
      endloop
   endfacet
   facet normal -5.009826e-001 8.654573e-001 0.000000e+000
      outer loop
         vertex 3.117449e-001 -3.909158e-001 2.000000e+000
         vertex 3.117449e-001 -3.909158e-001 1.000000e+000
         vertex 1.112605e-001 -4.874640e-001 1.000000e+000
      endloop
   endfacet
   facet normal -3.642842e-001 9.312878e-001 0.000000e+000
      outer loop
         vertex 3.117449e-001 -3.909158e-001 2.000000e+000
         vertex 1.112605e-001 -4.874640e-001 1.000000e+000
         vertex 1.112605e-001 -4.874640e-001 2.000000e+000
      endloop
   endfacet
   facet normal -7.586192e-002 9.971184e-001 0.000000e+000
      outer loop
         vertex 1.112605e-001 -4.874640e-001 2.000000e+000
         vertex 1.112605e-001 -4.874640e-001 1.000000e+000
         vertex -1.112605e-001 -4.874640e-001 1.000000e+000
      endloop
   endfacet
   facet normal 7.586192e-002 9.971184e-001 0.000000e+000
      outer loop
         vertex 1.112605e-001 -4.874640e-001 2.000000e+000
         vertex -1.112605e-001 -4.874640e-001 1.000000e+000
         vertex -1.112605e-001 -4.874640e-001 2.000000e+000
      endloop
   endfacet
   facet normal 3.642842e-001 9.312878e-001 0.000000e+000
      outer loop
         vertex -1.112605e-001 -4.874640e-001 2.000000e+000
         vertex -1.112605e-001 -4.874640e-001 1.000000e+000
         vertex -3.117449e-001 -3.909158e-001 1.000000e+000
      endloop
   endfacet
   facet normal 5.009826e-001 8.654573e-001 0.000000e+000
      outer loop
         vertex -1.112605e-001 -4.874640e-001 2.000000e+000
         vertex -3.117449e-001 -3.909158e-001 1.000000e+000
         vertex -3.117449e-001 -3.909158e-001 2.000000e+000
      endloop
   endfacet
   facet normal 7.322794e-001 6.810043e-001 0.000000e+000
      outer loop
         vertex -3.117449e-001 -3.909158e-001 2.000000e+000
         vertex -3.117449e-001 -3.909158e-001 1.000000e+000
         vertex -4.504845e-001 -2.169419e-001 1.000000e+000
      endloop
   endfacet
   facet normal 8.268777e-001 5.623819e-001 0.000000e+000
      outer loop
         vertex -3.117449e-001 -3.909158e-001 2.000000e+000
         vertex -4.504845e-001 -2.169419e-001 1.000000e+000
         vertex -4.504845e-001 -2.169419e-001 2.000000e+000
      endloop
   endfacet
   facet normal 9.552376e-001 2.958396e-001 0.000000e+000
      outer loop
         vertex -4.504845e-001 -2.169419e-001 2.000000e+000
         vertex -4.504845e-001 -2.169419e-001 1.000000e+000
         vertex -5.000000e-001 -1.224606e-016 1.000000e+000
      endloop
   endfacet
   facet normal 0.000000e+000 0.000000e+000 1.000000e+000
      outer loop
         vertex 4.504845e-001 2.169419e-001 2.000000e+000
         vertex 5.000000e-001 1.836909e-016 2.000000e+000
         vertex 1.489603e+000 1.763061e-001 2.000000e+000
      endloop
   endfacet
   facet normal 0.000000e+000 0.000000e+000 1.000000e+000
      outer loop
         vertex -1.278960e+000 7.837478e-001 2.000000e+000
         vertex -1.443683e+000 4.071607e-001 2.000000e+000
         vertex -1.060660e+000 -1.060660e+000 2.000000e+000
      endloop
   endfacet
   facet normal 0.000000e+000 0.000000e+000 1.000000e+000
      outer loop
         vertex -1.060660e+000 -1.060660e+000 2.000000e+000
         vertex -1.443683e+000 4.071607e-001 2.000000e+000
         vertex -1.500000e+000 0.000000e+000 2.000000e+000
      endloop
   endfacet
   facet normal 0.000000e+000 0.000000e+000 1.000000e+000
      outer loop
         vertex -1.060660e+000 -1.060660e+000 2.000000e+000
         vertex -1.500000e+000 0.000000e+000 2.000000e+000
         vertex -1.500000e+000 -1.500000e+000 2.000000e+000
      endloop
   endfacet
   facet normal 0.000000e+000 0.000000e+000 1.000000e+000
      outer loop
         vertex -1.500000e+000 -1.500000e+000 2.000000e+000
         vertex -1.500000e+000 0.000000e+000 2.000000e+000
         vertex -2.000000e+000 -5.000000e-001 2.000000e+000
      endloop
   endfacet
   facet normal 0.000000e+000 0.000000e+000 1.000000e+000
      outer loop
         vertex -1.500000e+000 -1.500000e+000 2.000000e+000
         vertex -2.000000e+000 -5.000000e-001 2.000000e+000
         vertex -2.000000e+000 -1.500000e+000 2.000000e+000
      endloop
   endfacet
   facet normal 0.000000e+000 0.000000e+000 1.000000e+000
      outer loop
         vertex 1.489603e+000 1.763061e-001 2.000000e+000
         vertex 5.000000e-001 1.836909e-016 2.000000e+000
         vertex 1.481532e+000 -2.346517e-001 2.000000e+000
      endloop
   endfacet
   facet normal 0.000000e+000 0.000000e+000 1.000000e+000
      outer loop
         vertex 1.481532e+000 -2.346517e-001 2.000000e+000
         vertex 5.000000e-001 1.836909e-016 2.000000e+000
         vertex 4.504845e-001 -2.169419e-001 2.000000e+000
      endloop
   endfacet
   facet normal 0.000000e+000 0.000000e+000 1.000000e+000
      outer loop
         vertex 1.481532e+000 -2.346517e-001 2.000000e+000
         vertex 4.504845e-001 -2.169419e-001 2.000000e+000
         vertex 1.362215e+000 -6.279896e-001 2.000000e+000
      endloop
   endfacet
   facet normal 0.000000e+000 0.000000e+000 1.000000e+000
      outer loop
         vertex 1.362215e+000 -6.279896e-001 2.000000e+000
         vertex 4.504845e-001 -2.169419e-001 2.000000e+000
         vertex 1.140609e+000 -9.741721e-001 2.000000e+000
      endloop
   endfacet
   facet normal 0.000000e+000 0.000000e+000 1.000000e+000
      outer loop
         vertex 1.140609e+000 -9.741721e-001 2.000000e+000
         vertex 4.504845e-001 -2.169419e-001 2.000000e+000
         vertex 3.117449e-001 -3.909158e-001 2.000000e+000
      endloop
   endfacet
   facet normal 0.000000e+000 0.000000e+000 1.000000e+000
      outer loop
         vertex 1.140609e+000 -9.741721e-001 2.000000e+000
         vertex 3.117449e-001 -3.909158e-001 2.000000e+000
         vertex 8.333554e-001 -1.247204e+000 2.000000e+000
      endloop
   endfacet
   facet normal 0.000000e+000 0.000000e+000 1.000000e+000
      outer loop
         vertex 8.333554e-001 -1.247204e+000 2.000000e+000
         vertex 3.117449e-001 -3.909158e-001 2.000000e+000
         vertex 4.635255e-001 -1.426585e+000 2.000000e+000
      endloop
   endfacet
   facet normal 0.000000e+000 0.000000e+000 1.000000e+000
      outer loop
         vertex 4.635255e-001 -1.426585e+000 2.000000e+000
         vertex 3.117449e-001 -3.909158e-001 2.000000e+000
         vertex 1.112605e-001 -4.874640e-001 2.000000e+000
      endloop
   endfacet
   facet normal 0.000000e+000 0.000000e+000 1.000000e+000
      outer loop
         vertex 4.635255e-001 -1.426585e+000 2.000000e+000
         vertex 1.112605e-001 -4.874640e-001 2.000000e+000
         vertex 5.888972e-002 -1.498844e+000 2.000000e+000
      endloop
   endfacet
   facet normal 0.000000e+000 0.000000e+000 1.000000e+000
      outer loop
         vertex 5.888972e-002 -1.498844e+000 2.000000e+000
         vertex 1.112605e-001 -4.874640e-001 2.000000e+000
         vertex -1.112605e-001 -4.874640e-001 2.000000e+000
      endloop
   endfacet
   facet normal 0.000000e+000 0.000000e+000 1.000000e+000
      outer loop
         vertex 5.888972e-002 -1.498844e+000 2.000000e+000
         vertex -1.112605e-001 -4.874640e-001 2.000000e+000
         vertex -3.501680e-001 -1.458555e+000 2.000000e+000
      endloop
   endfacet
   facet normal 0.000000e+000 0.000000e+000 1.000000e+000
      outer loop
         vertex 1.489603e+000 1.763061e-001 2.000000e+000
         vertex 1.385819e+000 5.740252e-001 2.000000e+000
         vertex 4.504845e-001 2.169419e-001 2.000000e+000
      endloop
   endfacet
   facet normal 0.000000e+000 0.000000e+000 1.000000e+000
      outer loop
         vertex 4.504845e-001 2.169419e-001 2.000000e+000
         vertex 1.385819e+000 5.740252e-001 2.000000e+000
         vertex 1.177975e+000 9.286409e-001 2.000000e+000
      endloop
   endfacet
   facet normal 0.000000e+000 0.000000e+000 1.000000e+000
      outer loop
         vertex 4.504845e-001 2.169419e-001 2.000000e+000
         vertex 1.177975e+000 9.286409e-001 2.000000e+000
         vertex 3.117449e-001 3.909158e-001 2.000000e+000
      endloop
   endfacet
   facet normal 0.000000e+000 0.000000e+000 1.000000e+000
      outer loop
         vertex 3.117449e-001 3.909158e-001 2.000000e+000
         vertex 1.177975e+000 9.286409e-001 2.000000e+000
         vertex 8.816779e-001 1.213526e+000 2.000000e+000
      endloop
   endfacet
   facet normal 0.000000e+000 0.000000e+000 1.000000e+000
      outer loop
         vertex 3.117449e-001 3.909158e-001 2.000000e+000
         vertex 8.816779e-001 1.213526e+000 2.000000e+000
         vertex 1.112605e-001 4.874640e-001 2.000000e+000
      endloop
   endfacet
   facet normal 0.000000e+000 0.000000e+000 1.000000e+000
      outer loop
         vertex -3.501680e-001 -1.458555e+000 2.000000e+000
         vertex -1.112605e-001 -4.874640e-001 2.000000e+000
         vertex -7.329319e-001 -1.308744e+000 2.000000e+000
      endloop
   endfacet
   facet normal 0.000000e+000 0.000000e+000 1.000000e+000
      outer loop
         vertex -7.329319e-001 -1.308744e+000 2.000000e+000
         vertex -1.112605e-001 -4.874640e-001 2.000000e+000
         vertex -3.117449e-001 -3.909158e-001 2.000000e+000
      endloop
   endfacet
   facet normal 0.000000e+000 0.000000e+000 1.000000e+000
      outer loop
         vertex -7.329319e-001 -1.308744e+000 2.000000e+000
         vertex -3.117449e-001 -3.909158e-001 2.000000e+000
         vertex -1.060660e+000 -1.060660e+000 2.000000e+000
      endloop
   endfacet
   facet normal 0.000000e+000 0.000000e+000 1.000000e+000
      outer loop
         vertex -1.060660e+000 -1.060660e+000 2.000000e+000
         vertex -3.117449e-001 -3.909158e-001 2.000000e+000
         vertex -4.504845e-001 -2.169419e-001 2.000000e+000
      endloop
   endfacet
   facet normal 0.000000e+000 0.000000e+000 1.000000e+000
      outer loop
         vertex -1.060660e+000 -1.060660e+000 2.000000e+000
         vertex -4.504845e-001 -2.169419e-001 2.000000e+000
         vertex -1.278960e+000 7.837478e-001 2.000000e+000
      endloop
   endfacet
   facet normal 0.000000e+000 0.000000e+000 1.000000e+000
      outer loop
         vertex -4.504845e-001 -2.169419e-001 2.000000e+000
         vertex -5.000000e-001 0.000000e+000 2.000000e+000
         vertex -1.278960e+000 7.837478e-001 2.000000e+000
      endloop
   endfacet
   facet normal 0.000000e+000 0.000000e+000 1.000000e+000
      outer loop
         vertex -1.278960e+000 7.837478e-001 2.000000e+000
         vertex -5.000000e-001 0.000000e+000 2.000000e+000
         vertex -4.504845e-001 2.169419e-001 2.000000e+000
      endloop
   endfacet
   facet normal 0.000000e+000 0.000000e+000 1.000000e+000
      outer loop
         vertex -1.278960e+000 7.837478e-001 2.000000e+000
         vertex -4.504845e-001 2.169419e-001 2.000000e+000
         vertex -1.018201e+000 1.101484e+000 2.000000e+000
      endloop
   endfacet
   facet normal 0.000000e+000 0.000000e+000 1.000000e+000
      outer loop
         vertex -1.018201e+000 1.101484e+000 2.000000e+000
         vertex -4.504845e-001 2.169419e-001 2.000000e+000
         vertex -3.117449e-001 3.909158e-001 2.000000e+000
      endloop
   endfacet
   facet normal 0.000000e+000 0.000000e+000 1.000000e+000
      outer loop
         vertex -1.018201e+000 1.101484e+000 2.000000e+000
         vertex -3.117449e-001 3.909158e-001 2.000000e+000
         vertex -6.809857e-001 1.336510e+000 2.000000e+000
      endloop
   endfacet
   facet normal 0.000000e+000 0.000000e+000 1.000000e+000
      outer loop
         vertex -6.809857e-001 1.336510e+000 2.000000e+000
         vertex -3.117449e-001 3.909158e-001 2.000000e+000
         vertex -1.112605e-001 4.874640e-001 2.000000e+000
      endloop
   endfacet
   facet normal 0.000000e+000 0.000000e+000 1.000000e+000
      outer loop
         vertex 8.816779e-001 1.213526e+000 2.000000e+000
         vertex 5.191756e-001 1.407287e+000 2.000000e+000
         vertex 1.112605e-001 4.874640e-001 2.000000e+000
      endloop
   endfacet
   facet normal 0.000000e+000 0.000000e+000 1.000000e+000
      outer loop
         vertex 1.112605e-001 4.874640e-001 2.000000e+000
         vertex 5.191756e-001 1.407287e+000 2.000000e+000
         vertex 1.176886e-001 1.495376e+000 2.000000e+000
      endloop
   endfacet
   facet normal 0.000000e+000 0.000000e+000 1.000000e+000
      outer loop
         vertex 1.112605e-001 4.874640e-001 2.000000e+000
         vertex 1.176886e-001 1.495376e+000 2.000000e+000
         vertex -1.112605e-001 4.874640e-001 2.000000e+000
      endloop
   endfacet
   facet normal 0.000000e+000 0.000000e+000 1.000000e+000
      outer loop
         vertex -1.112605e-001 4.874640e-001 2.000000e+000
         vertex 1.176886e-001 1.495376e+000 2.000000e+000
         vertex -2.926355e-001 1.471178e+000 2.000000e+000
      endloop
   endfacet
   facet normal 0.000000e+000 0.000000e+000 1.000000e+000
      outer loop
         vertex -1.112605e-001 4.874640e-001 2.000000e+000
         vertex -2.926355e-001 1.471178e+000 2.000000e+000
         vertex -6.809857e-001 1.336510e+000 2.000000e+000
      endloop
   endfacet
   facet normal 0.000000e+000 0.000000e+000 -1.000000e+000
      outer loop
         vertex -1.500000e+000 -1.500000e+000 -2.000000e+000
         vertex -2.000000e+000 -1.500000e+000 -2.000000e+000
         vertex -1.060660e+000 -1.060660e+000 -2.000000e+000
      endloop
   endfacet
   facet normal 0.000000e+000 0.000000e+000 -1.000000e+000
      outer loop
         vertex -1.060660e+000 -1.060660e+000 -2.000000e+000
         vertex -2.000000e+000 -1.500000e+000 -2.000000e+000
         vertex -2.000000e+000 -5.000000e-001 -2.000000e+000
      endloop
   endfacet
   facet normal 0.000000e+000 0.000000e+000 -1.000000e+000
      outer loop
         vertex -1.060660e+000 -1.060660e+000 -2.000000e+000
         vertex -2.000000e+000 -5.000000e-001 -2.000000e+000
         vertex -5.000000e-001 0.000000e+000 -2.000000e+000
      endloop
   endfacet
   facet normal 0.000000e+000 0.000000e+000 -1.000000e+000
      outer loop
         vertex -5.000000e-001 0.000000e+000 -2.000000e+000
         vertex -4.504845e-001 -2.169419e-001 -2.000000e+000
         vertex -1.060660e+000 -1.060660e+000 -2.000000e+000
      endloop
   endfacet
   facet normal 0.000000e+000 0.000000e+000 -1.000000e+000
      outer loop
         vertex -1.060660e+000 -1.060660e+000 -2.000000e+000
         vertex -4.504845e-001 -2.169419e-001 -2.000000e+000
         vertex -3.117449e-001 -3.909158e-001 -2.000000e+000
      endloop
   endfacet
   facet normal 0.000000e+000 0.000000e+000 -1.000000e+000
      outer loop
         vertex -1.060660e+000 -1.060660e+000 -2.000000e+000
         vertex -3.117449e-001 -3.909158e-001 -2.000000e+000
         vertex -7.329319e-001 -1.308744e+000 -2.000000e+000
      endloop
   endfacet
   facet normal 0.000000e+000 0.000000e+000 -1.000000e+000
      outer loop
         vertex -7.329319e-001 -1.308744e+000 -2.000000e+000
         vertex -3.117449e-001 -3.909158e-001 -2.000000e+000
         vertex -1.112605e-001 -4.874640e-001 -2.000000e+000
      endloop
   endfacet
   facet normal 0.000000e+000 0.000000e+000 -1.000000e+000
      outer loop
         vertex 4.504845e-001 -2.169419e-001 -2.000000e+000
         vertex 1.140609e+000 -9.741721e-001 -2.000000e+000
         vertex 3.117449e-001 -3.909158e-001 -2.000000e+000
      endloop
   endfacet
   facet normal 0.000000e+000 0.000000e+000 -1.000000e+000
      outer loop
         vertex 3.117449e-001 -3.909158e-001 -2.000000e+000
         vertex 1.140609e+000 -9.741721e-001 -2.000000e+000
         vertex 8.333554e-001 -1.247204e+000 -2.000000e+000
      endloop
   endfacet
   facet normal 0.000000e+000 0.000000e+000 -1.000000e+000
      outer loop
         vertex 3.117449e-001 -3.909158e-001 -2.000000e+000
         vertex 8.333554e-001 -1.247204e+000 -2.000000e+000
         vertex 1.112605e-001 -4.874640e-001 -2.000000e+000
      endloop
   endfacet
   facet normal 0.000000e+000 0.000000e+000 -1.000000e+000
      outer loop
         vertex 3.117449e-001 3.909158e-001 -2.000000e+000
         vertex 1.177975e+000 9.286409e-001 -2.000000e+000
         vertex 4.504845e-001 2.169419e-001 -2.000000e+000
      endloop
   endfacet
   facet normal 0.000000e+000 0.000000e+000 -1.000000e+000
      outer loop
         vertex 4.504845e-001 2.169419e-001 -2.000000e+000
         vertex 1.177975e+000 9.286409e-001 -2.000000e+000
         vertex 1.385819e+000 5.740252e-001 -2.000000e+000
      endloop
   endfacet
   facet normal 0.000000e+000 0.000000e+000 -1.000000e+000
      outer loop
         vertex 4.504845e-001 2.169419e-001 -2.000000e+000
         vertex 1.385819e+000 5.740252e-001 -2.000000e+000
         vertex 5.000000e-001 6.123032e-017 -2.000000e+000
      endloop
   endfacet
   facet normal 0.000000e+000 0.000000e+000 -1.000000e+000
      outer loop
         vertex -1.112605e-001 4.874640e-001 -2.000000e+000
         vertex 1.176886e-001 1.495376e+000 -2.000000e+000
         vertex 1.112605e-001 4.874640e-001 -2.000000e+000
      endloop
   endfacet
   facet normal 0.000000e+000 0.000000e+000 -1.000000e+000
      outer loop
         vertex 1.112605e-001 4.874640e-001 -2.000000e+000
         vertex 1.176886e-001 1.495376e+000 -2.000000e+000
         vertex 5.191756e-001 1.407287e+000 -2.000000e+000
      endloop
   endfacet
   facet normal 0.000000e+000 0.000000e+000 -1.000000e+000
      outer loop
         vertex 1.112605e-001 4.874640e-001 -2.000000e+000
         vertex 5.191756e-001 1.407287e+000 -2.000000e+000
         vertex 3.117449e-001 3.909158e-001 -2.000000e+000
      endloop
   endfacet
   facet normal 0.000000e+000 0.000000e+000 -1.000000e+000
      outer loop
         vertex 3.117449e-001 3.909158e-001 -2.000000e+000
         vertex 5.191756e-001 1.407287e+000 -2.000000e+000
         vertex 8.816779e-001 1.213526e+000 -2.000000e+000
      endloop
   endfacet
   facet normal 0.000000e+000 0.000000e+000 -1.000000e+000
      outer loop
         vertex 3.117449e-001 3.909158e-001 -2.000000e+000
         vertex 8.816779e-001 1.213526e+000 -2.000000e+000
         vertex 1.177975e+000 9.286409e-001 -2.000000e+000
      endloop
   endfacet
   facet normal 0.000000e+000 0.000000e+000 -1.000000e+000
      outer loop
         vertex -2.000000e+000 -5.000000e-001 -2.000000e+000
         vertex -1.500000e+000 0.000000e+000 -2.000000e+000
         vertex -5.000000e-001 0.000000e+000 -2.000000e+000
      endloop
   endfacet
   facet normal 0.000000e+000 0.000000e+000 -1.000000e+000
      outer loop
         vertex -5.000000e-001 0.000000e+000 -2.000000e+000
         vertex -1.500000e+000 0.000000e+000 -2.000000e+000
         vertex -1.443683e+000 4.071607e-001 -2.000000e+000
      endloop
   endfacet
   facet normal 0.000000e+000 0.000000e+000 -1.000000e+000
      outer loop
         vertex -5.000000e-001 0.000000e+000 -2.000000e+000
         vertex -1.443683e+000 4.071607e-001 -2.000000e+000
         vertex -4.504845e-001 2.169419e-001 -2.000000e+000
      endloop
   endfacet
   facet normal 0.000000e+000 0.000000e+000 -1.000000e+000
      outer loop
         vertex -4.504845e-001 2.169419e-001 -2.000000e+000
         vertex -1.443683e+000 4.071607e-001 -2.000000e+000
         vertex -1.278960e+000 7.837478e-001 -2.000000e+000
      endloop
   endfacet
   facet normal 0.000000e+000 0.000000e+000 -1.000000e+000
      outer loop
         vertex -4.504845e-001 2.169419e-001 -2.000000e+000
         vertex -1.278960e+000 7.837478e-001 -2.000000e+000
         vertex -3.117449e-001 3.909158e-001 -2.000000e+000
      endloop
   endfacet
   facet normal 0.000000e+000 0.000000e+000 -1.000000e+000
      outer loop
         vertex 8.333554e-001 -1.247204e+000 -2.000000e+000
         vertex 4.635255e-001 -1.426585e+000 -2.000000e+000
         vertex 1.112605e-001 -4.874640e-001 -2.000000e+000
      endloop
   endfacet
   facet normal 0.000000e+000 0.000000e+000 -1.000000e+000
      outer loop
         vertex 1.112605e-001 -4.874640e-001 -2.000000e+000
         vertex 4.635255e-001 -1.426585e+000 -2.000000e+000
         vertex 5.888972e-002 -1.498844e+000 -2.000000e+000
      endloop
   endfacet
   facet normal 0.000000e+000 0.000000e+000 -1.000000e+000
      outer loop
         vertex 1.112605e-001 -4.874640e-001 -2.000000e+000
         vertex 5.888972e-002 -1.498844e+000 -2.000000e+000
         vertex -1.112605e-001 -4.874640e-001 -2.000000e+000
      endloop
   endfacet
   facet normal 0.000000e+000 0.000000e+000 -1.000000e+000
      outer loop
         vertex -1.112605e-001 -4.874640e-001 -2.000000e+000
         vertex 5.888972e-002 -1.498844e+000 -2.000000e+000
         vertex -3.501680e-001 -1.458555e+000 -2.000000e+000
      endloop
   endfacet
   facet normal 0.000000e+000 0.000000e+000 -1.000000e+000
      outer loop
         vertex -1.112605e-001 -4.874640e-001 -2.000000e+000
         vertex -3.501680e-001 -1.458555e+000 -2.000000e+000
         vertex -7.329319e-001 -1.308744e+000 -2.000000e+000
      endloop
   endfacet
   facet normal 0.000000e+000 0.000000e+000 -1.000000e+000
      outer loop
         vertex 1.385819e+000 5.740252e-001 -2.000000e+000
         vertex 1.489603e+000 1.763061e-001 -2.000000e+000
         vertex 5.000000e-001 6.123032e-017 -2.000000e+000
      endloop
   endfacet
   facet normal 0.000000e+000 0.000000e+000 -1.000000e+000
      outer loop
         vertex 5.000000e-001 6.123032e-017 -2.000000e+000
         vertex 1.489603e+000 1.763061e-001 -2.000000e+000
         vertex 1.481532e+000 -2.346517e-001 -2.000000e+000
      endloop
   endfacet
   facet normal 0.000000e+000 0.000000e+000 -1.000000e+000
      outer loop
         vertex 5.000000e-001 6.123032e-017 -2.000000e+000
         vertex 1.481532e+000 -2.346517e-001 -2.000000e+000
         vertex 4.504845e-001 -2.169419e-001 -2.000000e+000
      endloop
   endfacet
   facet normal 0.000000e+000 0.000000e+000 -1.000000e+000
      outer loop
         vertex 4.504845e-001 -2.169419e-001 -2.000000e+000
         vertex 1.481532e+000 -2.346517e-001 -2.000000e+000
         vertex 1.362215e+000 -6.279896e-001 -2.000000e+000
      endloop
   endfacet
   facet normal 0.000000e+000 0.000000e+000 -1.000000e+000
      outer loop
         vertex 4.504845e-001 -2.169419e-001 -2.000000e+000
         vertex 1.362215e+000 -6.279896e-001 -2.000000e+000
         vertex 1.140609e+000 -9.741721e-001 -2.000000e+000
      endloop
   endfacet
   facet normal 0.000000e+000 0.000000e+000 -1.000000e+000
      outer loop
         vertex -1.278960e+000 7.837478e-001 -2.000000e+000
         vertex -1.018201e+000 1.101484e+000 -2.000000e+000
         vertex -3.117449e-001 3.909158e-001 -2.000000e+000
      endloop
   endfacet
   facet normal 0.000000e+000 0.000000e+000 -1.000000e+000
      outer loop
         vertex -3.117449e-001 3.909158e-001 -2.000000e+000
         vertex -1.018201e+000 1.101484e+000 -2.000000e+000
         vertex -6.809857e-001 1.336510e+000 -2.000000e+000
      endloop
   endfacet
   facet normal 0.000000e+000 0.000000e+000 -1.000000e+000
      outer loop
         vertex -3.117449e-001 3.909158e-001 -2.000000e+000
         vertex -6.809857e-001 1.336510e+000 -2.000000e+000
         vertex -1.112605e-001 4.874640e-001 -2.000000e+000
      endloop
   endfacet
   facet normal 0.000000e+000 0.000000e+000 -1.000000e+000
      outer loop
         vertex -1.112605e-001 4.874640e-001 -2.000000e+000
         vertex -6.809857e-001 1.336510e+000 -2.000000e+000
         vertex -2.926355e-001 1.471178e+000 -2.000000e+000
      endloop
   endfacet
   facet normal 0.000000e+000 0.000000e+000 -1.000000e+000
      outer loop
         vertex -1.112605e-001 4.874640e-001 -2.000000e+000
         vertex -2.926355e-001 1.471178e+000 -2.000000e+000
         vertex 1.176886e-001 1.495376e+000 -2.000000e+000
      endloop
   endfacet
   facet normal 7.071068e-001 -7.071068e-001 0.000000e+000
      outer loop
         vertex -1.500000e+000 -1.500000e+000 -1.000000e+000
         vertex -1.500000e+000 -1.500000e+000 -2.000000e+000
         vertex -1.060660e+000 -1.060660e+000 -1.000000e+000
      endloop
   endfacet
   facet normal 7.071068e-001 -7.071068e-001 0.000000e+000
      outer loop
         vertex -1.060660e+000 -1.060660e+000 -1.000000e+000
         vertex -1.500000e+000 -1.500000e+000 -2.000000e+000
         vertex -1.060660e+000 -1.060660e+000 -2.000000e+000
      endloop
   endfacet
   facet normal -6.396374e-001 -7.686768e-001 0.000000e+000
      outer loop
         vertex -1.060660e+000 -1.060660e+000 -1.000000e+000
         vertex -1.060660e+000 -1.060660e+000 -2.000000e+000
         vertex -7.329319e-001 -1.308744e+000 -2.000000e+000
      endloop
   endfacet
   facet normal -5.661935e-001 -8.242723e-001 0.000000e+000
      outer loop
         vertex -1.060660e+000 -1.060660e+000 -1.000000e+000
         vertex -7.329319e-001 -1.308744e+000 -2.000000e+000
         vertex -7.329319e-001 -1.308744e+000 -1.000000e+000
      endloop
   endfacet
   facet normal -4.069724e-001 -9.134405e-001 0.000000e+000
      outer loop
         vertex -7.329319e-001 -1.308744e+000 -1.000000e+000
         vertex -7.329319e-001 -1.308744e+000 -2.000000e+000
         vertex -3.501680e-001 -1.458555e+000 -2.000000e+000
      endloop
   endfacet
   facet normal -3.211951e-001 -9.470130e-001 0.000000e+000
      outer loop
         vertex -7.329319e-001 -1.308744e+000 -1.000000e+000
         vertex -3.501680e-001 -1.458555e+000 -2.000000e+000
         vertex -3.501680e-001 -1.458555e+000 -1.000000e+000
      endloop
   endfacet
   facet normal -1.437480e-001 -9.896143e-001 0.000000e+000
      outer loop
         vertex -3.501680e-001 -1.458555e+000 -1.000000e+000
         vertex -3.501680e-001 -1.458555e+000 -2.000000e+000
         vertex 5.888972e-002 -1.498844e+000 -2.000000e+000
      endloop
   endfacet
   facet normal -5.207824e-002 -9.986430e-001 0.000000e+000
      outer loop
         vertex -3.501680e-001 -1.458555e+000 -1.000000e+000
         vertex 5.888972e-002 -1.498844e+000 -2.000000e+000
         vertex 5.888972e-002 -1.498844e+000 -1.000000e+000
      endloop
   endfacet
   facet normal 1.302703e-001 -9.914785e-001 0.000000e+000
      outer loop
         vertex 5.888972e-002 -1.498844e+000 -1.000000e+000
         vertex 5.888972e-002 -1.498844e+000 -2.000000e+000
         vertex 4.635255e-001 -1.426585e+000 -2.000000e+000
      endloop
   endfacet
   facet normal 2.209491e-001 -9.752854e-001 0.000000e+000
      outer loop
         vertex 5.888972e-002 -1.498844e+000 -1.000000e+000
         vertex 4.635255e-001 -1.426585e+000 -2.000000e+000
         vertex 4.635255e-001 -1.426585e+000 -1.000000e+000
      endloop
   endfacet
   facet normal 3.945068e-001 -9.188930e-001 0.000000e+000
      outer loop
         vertex 4.635255e-001 -1.426585e+000 -1.000000e+000
         vertex 4.635255e-001 -1.426585e+000 -2.000000e+000
         vertex 8.333554e-001 -1.247204e+000 -2.000000e+000
      endloop
   endfacet
   facet normal 4.773856e-001 -8.786939e-001 0.000000e+000
      outer loop
         vertex 4.635255e-001 -1.426585e+000 -1.000000e+000
         vertex 8.333554e-001 -1.247204e+000 -2.000000e+000
         vertex 8.333554e-001 -1.247204e+000 -1.000000e+000
      endloop
   endfacet
   facet normal 6.291198e-001 -7.773083e-001 0.000000e+000
      outer loop
         vertex 8.333554e-001 -1.247204e+000 -1.000000e+000
         vertex 8.333554e-001 -1.247204e+000 -2.000000e+000
         vertex 1.140609e+000 -9.741721e-001 -2.000000e+000
      endloop
   endfacet
   facet normal 6.979753e-001 -7.161219e-001 0.000000e+000
      outer loop
         vertex 8.333554e-001 -1.247204e+000 -1.000000e+000
         vertex 1.140609e+000 -9.741721e-001 -2.000000e+000
         vertex 1.140609e+000 -9.741721e-001 -1.000000e+000
      endloop
   endfacet
   facet normal 8.164926e-001 -5.773559e-001 0.000000e+000
      outer loop
         vertex 1.140609e+000 -9.741721e-001 -1.000000e+000
         vertex 1.140609e+000 -9.741721e-001 -2.000000e+000
         vertex 1.362215e+000 -6.279896e-001 -2.000000e+000
      endloop
   endfacet
   facet normal 8.661544e-001 -4.997765e-001 0.000000e+000
      outer loop
         vertex 1.140609e+000 -9.741721e-001 -1.000000e+000
         vertex 1.362215e+000 -6.279896e-001 -2.000000e+000
         vertex 1.362215e+000 -6.279896e-001 -1.000000e+000
      endloop
   endfacet
   facet normal 9.425553e-001 -3.340501e-001 0.000000e+000
      outer loop
         vertex 1.362215e+000 -6.279896e-001 -1.000000e+000
         vertex 1.362215e+000 -6.279896e-001 -2.000000e+000
         vertex 1.481532e+000 -2.346517e-001 -2.000000e+000
      endloop
   endfacet
   facet normal 9.692944e-001 -2.459032e-001 0.000000e+000
      outer loop
         vertex 1.362215e+000 -6.279896e-001 -1.000000e+000
         vertex 1.481532e+000 -2.346517e-001 -2.000000e+000
         vertex 1.481532e+000 -2.346517e-001 -1.000000e+000
      endloop
   endfacet
   facet normal 9.978420e-001 -6.566064e-002 0.000000e+000
      outer loop
         vertex 1.481532e+000 -2.346517e-001 -1.000000e+000
         vertex 1.481532e+000 -2.346517e-001 -2.000000e+000
         vertex 1.489603e+000 1.763061e-001 -2.000000e+000
      endloop
   endfacet
   facet normal 9.996505e-001 2.643492e-002 0.000000e+000
      outer loop
         vertex 1.481532e+000 -2.346517e-001 -1.000000e+000
         vertex 1.489603e+000 1.763061e-001 -2.000000e+000
         vertex 1.489603e+000 1.763061e-001 -1.000000e+000
      endloop
   endfacet
   facet normal 9.782012e-001 2.076593e-001 0.000000e+000
      outer loop
         vertex 1.489603e+000 1.763061e-001 -1.000000e+000
         vertex 1.489603e+000 1.763061e-001 -2.000000e+000
         vertex 1.385819e+000 5.740252e-001 -2.000000e+000
      endloop
   endfacet
   facet normal 9.549434e-001 2.967880e-001 0.000000e+000
      outer loop
         vertex 1.489603e+000 1.763061e-001 -1.000000e+000
         vertex 1.385819e+000 5.740252e-001 -2.000000e+000
         vertex 1.385819e+000 5.740252e-001 -1.000000e+000
      endloop
   endfacet
   facet normal 8.851078e-001 4.653861e-001 0.000000e+000
      outer loop
         vertex 1.385819e+000 5.740252e-001 -1.000000e+000
         vertex 1.385819e+000 5.740252e-001 -2.000000e+000
         vertex 1.177975e+000 9.286409e-001 -2.000000e+000
      endloop
   endfacet
   facet normal 8.385300e-001 5.448555e-001 0.000000e+000
      outer loop
         vertex 1.385819e+000 5.740252e-001 -1.000000e+000
         vertex 1.177975e+000 9.286409e-001 -2.000000e+000
         vertex 1.177975e+000 9.286409e-001 -1.000000e+000
      endloop
   endfacet
   facet normal 7.255520e-001 6.881673e-001 0.000000e+000
      outer loop
         vertex 1.177975e+000 9.286409e-001 -1.000000e+000
         vertex 1.177975e+000 9.286409e-001 -2.000000e+000
         vertex 8.816779e-001 1.213526e+000 -2.000000e+000
      endloop
   endfacet
   facet normal 6.591518e-001 7.520099e-001 0.000000e+000
      outer loop
         vertex 1.177975e+000 9.286409e-001 -1.000000e+000
         vertex 8.816779e-001 1.213526e+000 -2.000000e+000
         vertex 8.816779e-001 1.213526e+000 -1.000000e+000
      endloop
   endfacet
   facet normal 5.115148e-001 8.592744e-001 0.000000e+000
      outer loop
         vertex 8.816779e-001 1.213526e+000 -1.000000e+000
         vertex 8.816779e-001 1.213526e+000 -2.000000e+000
         vertex 5.191756e-001 1.407287e+000 -2.000000e+000
      endloop
   endfacet
   facet normal 4.302782e-001 9.026964e-001 0.000000e+000
      outer loop
         vertex 8.816779e-001 1.213526e+000 -1.000000e+000
         vertex 5.191756e-001 1.407287e+000 -2.000000e+000
         vertex 5.191756e-001 1.407287e+000 -1.000000e+000
      endloop
   endfacet
   facet normal 2.590683e-001 9.658590e-001 0.000000e+000
      outer loop
         vertex 5.191756e-001 1.407287e+000 -1.000000e+000
         vertex 5.191756e-001 1.407287e+000 -2.000000e+000
         vertex 1.176886e-001 1.495376e+000 -2.000000e+000
      endloop
   endfacet
   facet normal 1.690952e-001 9.855997e-001 0.000000e+000
      outer loop
         vertex 5.191756e-001 1.407287e+000 -1.000000e+000
         vertex 1.176886e-001 1.495376e+000 -2.000000e+000
         vertex 1.176886e-001 1.495376e+000 -1.000000e+000
      endloop
   endfacet
   facet normal -1.283155e-002 9.999177e-001 0.000000e+000
      outer loop
         vertex 1.176886e-001 1.495376e+000 -1.000000e+000
         vertex 1.176886e-001 1.495376e+000 -2.000000e+000
         vertex -2.926355e-001 1.471178e+000 -2.000000e+000
      endloop
   endfacet
   facet normal -1.047851e-001 9.944949e-001 0.000000e+000
      outer loop
         vertex 1.176886e-001 1.495376e+000 -1.000000e+000
         vertex -2.926355e-001 1.471178e+000 -2.000000e+000
         vertex -2.926355e-001 1.471178e+000 -1.000000e+000
      endloop
   endfacet
   facet normal -2.837679e-001 9.588930e-001 0.000000e+000
      outer loop
         vertex -2.926355e-001 1.471178e+000 -1.000000e+000
         vertex -2.926355e-001 1.471178e+000 -2.000000e+000
         vertex -6.809857e-001 1.336510e+000 -2.000000e+000
      endloop
   endfacet
   facet normal -3.707971e-001 9.287139e-001 0.000000e+000
      outer loop
         vertex -2.926355e-001 1.471178e+000 -1.000000e+000
         vertex -6.809857e-001 1.336510e+000 -2.000000e+000
         vertex -6.809857e-001 1.336510e+000 -1.000000e+000
      endloop
   endfacet
   facet normal -5.333962e-001 8.458655e-001 0.000000e+000
      outer loop
         vertex -6.809857e-001 1.336510e+000 -1.000000e+000
         vertex -6.809857e-001 1.336510e+000 -2.000000e+000
         vertex -1.018201e+000 1.101484e+000 -2.000000e+000
      endloop
   endfacet
   facet normal -6.089662e-001 7.931962e-001 0.000000e+000
      outer loop
         vertex -6.809857e-001 1.336510e+000 -1.000000e+000
         vertex -1.018201e+000 1.101484e+000 -2.000000e+000
         vertex -1.018201e+000 1.101484e+000 -1.000000e+000
      endloop
   endfacet
   facet normal -7.429721e-001 6.693224e-001 0.000000e+000
      outer loop
         vertex -1.018201e+000 1.101484e+000 -1.000000e+000
         vertex -1.018201e+000 1.101484e+000 -2.000000e+000
         vertex -1.278960e+000 7.837478e-001 -2.000000e+000
      endloop
   endfacet
   facet normal -8.014082e-001 5.981178e-001 0.000000e+000
      outer loop
         vertex -1.018201e+000 1.101484e+000 -1.000000e+000
         vertex -1.278960e+000 7.837478e-001 -2.000000e+000
         vertex -1.278960e+000 7.837478e-001 -1.000000e+000
      endloop
   endfacet
   facet normal -8.967586e-001 4.425201e-001 0.000000e+000
      outer loop
         vertex -1.278960e+000 7.837478e-001 -1.000000e+000
         vertex -1.278960e+000 7.837478e-001 -2.000000e+000
         vertex -1.443683e+000 4.071607e-001 -2.000000e+000
      endloop
   endfacet
   facet normal -9.336729e-001 3.581270e-001 0.000000e+000
      outer loop
         vertex -1.278960e+000 7.837478e-001 -1.000000e+000
         vertex -1.443683e+000 4.071607e-001 -2.000000e+000
         vertex -1.443683e+000 4.071607e-001 -1.000000e+000
      endloop
   endfacet
   facet normal -9.832079e-001 1.824893e-001 0.000000e+000
      outer loop
         vertex -1.443683e+000 4.071607e-001 -1.000000e+000
         vertex -1.443683e+000 4.071607e-001 -2.000000e+000
         vertex -1.500000e+000 0.000000e+000 -2.000000e+000
      endloop
   endfacet
   facet normal -9.958285e-001 9.124463e-002 0.000000e+000
      outer loop
         vertex -1.443683e+000 4.071607e-001 -1.000000e+000
         vertex -1.500000e+000 0.000000e+000 -2.000000e+000
         vertex -1.500000e+000 0.000000e+000 -1.000000e+000
      endloop
   endfacet
   facet normal -7.071068e-001 7.071068e-001 0.000000e+000
      outer loop
         vertex -1.500000e+000 8.673617e-017 -2.000000e+000
         vertex -2.000000e+000 -5.000000e-001 -2.000000e+000
         vertex -1.500000e+000 -3.469447e-016 -1.000000e+000
      endloop
   endfacet
   facet normal -7.071068e-001 7.071068e-001 0.000000e+000
      outer loop
         vertex -1.500000e+000 -3.469447e-016 -1.000000e+000
         vertex -2.000000e+000 -5.000000e-001 -2.000000e+000
         vertex -2.000000e+000 -5.000000e-001 -5.000000e-001
      endloop
   endfacet
   facet normal -7.071068e-001 7.071068e-001 0.000000e+000
      outer loop
         vertex -1.500000e+000 -3.469447e-016 -1.000000e+000
         vertex -2.000000e+000 -5.000000e-001 -5.000000e-001
         vertex -1.500000e+000 -3.469447e-016 1.000000e+000
      endloop
   endfacet
   facet normal -7.071068e-001 7.071068e-001 0.000000e+000
      outer loop
         vertex -1.500000e+000 -3.469447e-016 1.000000e+000
         vertex -2.000000e+000 -5.000000e-001 -5.000000e-001
         vertex -2.000000e+000 -5.000000e-001 5.000000e-001
      endloop
   endfacet
   facet normal -7.071068e-001 7.071068e-001 0.000000e+000
      outer loop
         vertex -1.500000e+000 -3.469447e-016 1.000000e+000
         vertex -2.000000e+000 -5.000000e-001 5.000000e-001
         vertex -1.500000e+000 8.673617e-017 2.000000e+000
      endloop
   endfacet
   facet normal -7.071068e-001 7.071068e-001 0.000000e+000
      outer loop
         vertex -1.500000e+000 8.673617e-017 2.000000e+000
         vertex -2.000000e+000 -5.000000e-001 5.000000e-001
         vertex -2.000000e+000 -5.000000e-001 2.000000e+000
      endloop
   endfacet
   facet normal -1.301043e-016 1.000000e+000 0.000000e+000
      outer loop
         vertex -2.000000e+000 -5.000000e-001 5.000000e-001
         vertex -2.000000e+000 -5.000000e-001 -5.000000e-001
         vertex -4.000000e+000 -5.000000e-001 5.000000e-001
      endloop
   endfacet
   facet normal -1.301043e-016 1.000000e+000 0.000000e+000
      outer loop
         vertex -4.000000e+000 -5.000000e-001 5.000000e-001
         vertex -2.000000e+000 -5.000000e-001 -5.000000e-001
         vertex -4.000000e+000 -5.000000e-001 -5.000000e-001
      endloop
   endfacet
   facet normal -3.469447e-016 -1.000000e+000 0.000000e+000
      outer loop
         vertex -4.000000e+000 -1.500000e+000 5.000000e-001
         vertex -4.000000e+000 -1.500000e+000 -5.000000e-001
         vertex -2.000000e+000 -1.500000e+000 5.000000e-001
      endloop
   endfacet
   facet normal -3.469447e-016 -1.000000e+000 0.000000e+000
      outer loop
         vertex -2.000000e+000 -1.500000e+000 5.000000e-001
         vertex -4.000000e+000 -1.500000e+000 -5.000000e-001
         vertex -2.000000e+000 -1.500000e+000 -5.000000e-001
      endloop
   endfacet
   facet normal -3.469447e-016 -1.000000e+000 0.000000e+000
      outer loop
         vertex -2.000000e+000 -1.500000e+000 -2.000000e+000
         vertex -1.500000e+000 -1.500000e+000 -2.000000e+000
         vertex -2.000000e+000 -1.500000e+000 -5.000000e-001
      endloop
   endfacet
   facet normal -3.469447e-016 -1.000000e+000 0.000000e+000
      outer loop
         vertex -2.000000e+000 -1.500000e+000 -5.000000e-001
         vertex -1.500000e+000 -1.500000e+000 -2.000000e+000
         vertex -1.500000e+000 -1.500000e+000 -1.000000e+000
      endloop
   endfacet
   facet normal -3.469447e-016 -1.000000e+000 0.000000e+000
      outer loop
         vertex -2.000000e+000 -1.500000e+000 -5.000000e-001
         vertex -1.500000e+000 -1.500000e+000 -1.000000e+000
         vertex -2.000000e+000 -1.500000e+000 5.000000e-001
      endloop
   endfacet
   facet normal -3.469447e-016 -1.000000e+000 0.000000e+000
      outer loop
         vertex -2.000000e+000 -1.500000e+000 5.000000e-001
         vertex -1.500000e+000 -1.500000e+000 -1.000000e+000
         vertex -1.500000e+000 -1.500000e+000 1.000000e+000
      endloop
   endfacet
   facet normal -3.469447e-016 -1.000000e+000 0.000000e+000
      outer loop
         vertex -2.000000e+000 -1.500000e+000 5.000000e-001
         vertex -1.500000e+000 -1.500000e+000 1.000000e+000
         vertex -2.000000e+000 -1.500000e+000 2.000000e+000
      endloop
   endfacet
   facet normal -3.469447e-016 -1.000000e+000 0.000000e+000
      outer loop
         vertex -2.000000e+000 -1.500000e+000 2.000000e+000
         vertex -1.500000e+000 -1.500000e+000 1.000000e+000
         vertex -1.500000e+000 -1.500000e+000 2.000000e+000
      endloop
   endfacet
   facet normal 9.889994e-001 1.479198e-001 0.000000e+000
      outer loop
         vertex -4.504845e-001 -2.169419e-001 -1.000000e+000
         vertex -5.000000e-001 -1.224606e-016 -2.000000e+000
         vertex -5.000000e-001 -1.224606e-016 -1.000000e+000
      endloop
   endfacet
   facet normal 9.889994e-001 -1.479198e-001 0.000000e+000
      outer loop
         vertex -5.000000e-001 -1.224606e-016 -1.000000e+000
         vertex -5.000000e-001 -1.224606e-016 -2.000000e+000
         vertex -4.504845e-001 2.169419e-001 -2.000000e+000
      endloop
   endfacet
   facet normal 9.552376e-001 -2.958396e-001 0.000000e+000
      outer loop
         vertex -5.000000e-001 -1.224606e-016 -1.000000e+000
         vertex -4.504845e-001 2.169419e-001 -2.000000e+000
         vertex -4.504845e-001 2.169419e-001 -1.000000e+000
      endloop
   endfacet
   facet normal 8.268777e-001 -5.623819e-001 0.000000e+000
      outer loop
         vertex -4.504845e-001 2.169419e-001 -1.000000e+000
         vertex -4.504845e-001 2.169419e-001 -2.000000e+000
         vertex -3.117449e-001 3.909158e-001 -2.000000e+000
      endloop
   endfacet
   facet normal 7.322794e-001 -6.810043e-001 0.000000e+000
      outer loop
         vertex -4.504845e-001 2.169419e-001 -1.000000e+000
         vertex -3.117449e-001 3.909158e-001 -2.000000e+000
         vertex -3.117449e-001 3.909158e-001 -1.000000e+000
      endloop
   endfacet
   facet normal 5.009826e-001 -8.654573e-001 0.000000e+000
      outer loop
         vertex -3.117449e-001 3.909158e-001 -1.000000e+000
         vertex -3.117449e-001 3.909158e-001 -2.000000e+000
         vertex -1.112605e-001 4.874640e-001 -2.000000e+000
      endloop
   endfacet
   facet normal 3.642842e-001 -9.312878e-001 0.000000e+000
      outer loop
         vertex -3.117449e-001 3.909158e-001 -1.000000e+000
         vertex -1.112605e-001 4.874640e-001 -2.000000e+000
         vertex -1.112605e-001 4.874640e-001 -1.000000e+000
      endloop
   endfacet
   facet normal 7.586192e-002 -9.971184e-001 0.000000e+000
      outer loop
         vertex -1.112605e-001 4.874640e-001 -1.000000e+000
         vertex -1.112605e-001 4.874640e-001 -2.000000e+000
         vertex 1.112605e-001 4.874640e-001 -2.000000e+000
      endloop
   endfacet
   facet normal -7.586192e-002 -9.971184e-001 0.000000e+000
      outer loop
         vertex -1.112605e-001 4.874640e-001 -1.000000e+000
         vertex 1.112605e-001 4.874640e-001 -2.000000e+000
         vertex 1.112605e-001 4.874640e-001 -1.000000e+000
      endloop
   endfacet
   facet normal -3.642842e-001 -9.312878e-001 0.000000e+000
      outer loop
         vertex 1.112605e-001 4.874640e-001 -1.000000e+000
         vertex 1.112605e-001 4.874640e-001 -2.000000e+000
         vertex 3.117449e-001 3.909158e-001 -2.000000e+000
      endloop
   endfacet
   facet normal -5.009826e-001 -8.654573e-001 0.000000e+000
      outer loop
         vertex 1.112605e-001 4.874640e-001 -1.000000e+000
         vertex 3.117449e-001 3.909158e-001 -2.000000e+000
         vertex 3.117449e-001 3.909158e-001 -1.000000e+000
      endloop
   endfacet
   facet normal -7.322794e-001 -6.810043e-001 0.000000e+000
      outer loop
         vertex 3.117449e-001 3.909158e-001 -1.000000e+000
         vertex 3.117449e-001 3.909158e-001 -2.000000e+000
         vertex 4.504845e-001 2.169419e-001 -2.000000e+000
      endloop
   endfacet
   facet normal -8.268777e-001 -5.623819e-001 0.000000e+000
      outer loop
         vertex 3.117449e-001 3.909158e-001 -1.000000e+000
         vertex 4.504845e-001 2.169419e-001 -2.000000e+000
         vertex 4.504845e-001 2.169419e-001 -1.000000e+000
      endloop
   endfacet
   facet normal -9.552376e-001 -2.958396e-001 0.000000e+000
      outer loop
         vertex 4.504845e-001 2.169419e-001 -1.000000e+000
         vertex 4.504845e-001 2.169419e-001 -2.000000e+000
         vertex 5.000000e-001 6.123032e-017 -2.000000e+000
      endloop
   endfacet
   facet normal -9.889994e-001 -1.479198e-001 0.000000e+000
      outer loop
         vertex 4.504845e-001 2.169419e-001 -1.000000e+000
         vertex 5.000000e-001 6.123032e-017 -2.000000e+000
         vertex 5.000000e-001 6.123032e-017 -1.000000e+000
      endloop
   endfacet
   facet normal -9.889994e-001 1.479198e-001 0.000000e+000
      outer loop
         vertex 5.000000e-001 6.123032e-017 -1.000000e+000
         vertex 5.000000e-001 6.123032e-017 -2.000000e+000
         vertex 4.504845e-001 -2.169419e-001 -2.000000e+000
      endloop
   endfacet
   facet normal -9.552376e-001 2.958396e-001 0.000000e+000
      outer loop
         vertex 5.000000e-001 6.123032e-017 -1.000000e+000
         vertex 4.504845e-001 -2.169419e-001 -2.000000e+000
         vertex 4.504845e-001 -2.169419e-001 -1.000000e+000
      endloop
   endfacet
   facet normal -8.268777e-001 5.623819e-001 0.000000e+000
      outer loop
         vertex 4.504845e-001 -2.169419e-001 -1.000000e+000
         vertex 4.504845e-001 -2.169419e-001 -2.000000e+000
         vertex 3.117449e-001 -3.909158e-001 -2.000000e+000
      endloop
   endfacet
   facet normal -7.322794e-001 6.810043e-001 0.000000e+000
      outer loop
         vertex 4.504845e-001 -2.169419e-001 -1.000000e+000
         vertex 3.117449e-001 -3.909158e-001 -2.000000e+000
         vertex 3.117449e-001 -3.909158e-001 -1.000000e+000
      endloop
   endfacet
   facet normal -5.009826e-001 8.654573e-001 0.000000e+000
      outer loop
         vertex 3.117449e-001 -3.909158e-001 -1.000000e+000
         vertex 3.117449e-001 -3.909158e-001 -2.000000e+000
         vertex 1.112605e-001 -4.874640e-001 -2.000000e+000
      endloop
   endfacet
   facet normal -3.642842e-001 9.312878e-001 0.000000e+000
      outer loop
         vertex 3.117449e-001 -3.909158e-001 -1.000000e+000
         vertex 1.112605e-001 -4.874640e-001 -2.000000e+000
         vertex 1.112605e-001 -4.874640e-001 -1.000000e+000
      endloop
   endfacet
   facet normal -7.586192e-002 9.971184e-001 0.000000e+000
      outer loop
         vertex 1.112605e-001 -4.874640e-001 -1.000000e+000
         vertex 1.112605e-001 -4.874640e-001 -2.000000e+000
         vertex -1.112605e-001 -4.874640e-001 -2.000000e+000
      endloop
   endfacet
   facet normal 7.586192e-002 9.971184e-001 0.000000e+000
      outer loop
         vertex 1.112605e-001 -4.874640e-001 -1.000000e+000
         vertex -1.112605e-001 -4.874640e-001 -2.000000e+000
         vertex -1.112605e-001 -4.874640e-001 -1.000000e+000
      endloop
   endfacet
   facet normal 3.642842e-001 9.312878e-001 0.000000e+000
      outer loop
         vertex -1.112605e-001 -4.874640e-001 -1.000000e+000
         vertex -1.112605e-001 -4.874640e-001 -2.000000e+000
         vertex -3.117449e-001 -3.909158e-001 -2.000000e+000
      endloop
   endfacet
   facet normal 5.009826e-001 8.654573e-001 0.000000e+000
      outer loop
         vertex -1.112605e-001 -4.874640e-001 -1.000000e+000
         vertex -3.117449e-001 -3.909158e-001 -2.000000e+000
         vertex -3.117449e-001 -3.909158e-001 -1.000000e+000
      endloop
   endfacet
   facet normal 7.322794e-001 6.810043e-001 0.000000e+000
      outer loop
         vertex -3.117449e-001 -3.909158e-001 -1.000000e+000
         vertex -3.117449e-001 -3.909158e-001 -2.000000e+000
         vertex -4.504845e-001 -2.169419e-001 -2.000000e+000
      endloop
   endfacet
   facet normal 8.268777e-001 5.623819e-001 0.000000e+000
      outer loop
         vertex -3.117449e-001 -3.909158e-001 -1.000000e+000
         vertex -4.504845e-001 -2.169419e-001 -2.000000e+000
         vertex -4.504845e-001 -2.169419e-001 -1.000000e+000
      endloop
   endfacet
   facet normal 9.552376e-001 2.958396e-001 0.000000e+000
      outer loop
         vertex -4.504845e-001 -2.169419e-001 -1.000000e+000
         vertex -4.504845e-001 -2.169419e-001 -2.000000e+000
         vertex -5.000000e-001 -1.224606e-016 -2.000000e+000
      endloop
   endfacet
   facet normal 1.000000e+000 0.000000e+000 0.000000e+000
      outer loop
         vertex -1.500000e+000 -1.500000e+000 -1.000000e+000
         vertex -1.500000e+000 -1.387779e-015 -1.000000e+000
         vertex -1.500000e+000 -1.500000e+000 1.000000e+000
      endloop
   endfacet
   facet normal 1.000000e+000 0.000000e+000 0.000000e+000
      outer loop
         vertex -1.500000e+000 -1.500000e+000 1.000000e+000
         vertex -1.500000e+000 -1.387779e-015 -1.000000e+000
         vertex -1.500000e+000 -1.387779e-015 1.000000e+000
      endloop
   endfacet
   facet normal 1.734723e-016 0.000000e+000 -1.000000e+000
      outer loop
         vertex -3.117449e-001 3.909158e-001 1.000000e+000
         vertex -4.504845e-001 2.169419e-001 1.000000e+000
         vertex -1.278960e+000 7.837478e-001 1.000000e+000
      endloop
   endfacet
   facet normal 1.734723e-016 0.000000e+000 -1.000000e+000
      outer loop
         vertex -1.278960e+000 7.837478e-001 1.000000e+000
         vertex -4.504845e-001 2.169419e-001 1.000000e+000
         vertex -1.443683e+000 4.071607e-001 1.000000e+000
      endloop
   endfacet
   facet normal 1.734723e-016 0.000000e+000 -1.000000e+000
      outer loop
         vertex -1.443683e+000 4.071607e-001 1.000000e+000
         vertex -4.504845e-001 2.169419e-001 1.000000e+000
         vertex -5.000000e-001 -6.938894e-016 1.000000e+000
      endloop
   endfacet
   facet normal 1.734723e-016 0.000000e+000 -1.000000e+000
      outer loop
         vertex -1.443683e+000 4.071607e-001 1.000000e+000
         vertex -5.000000e-001 -6.938894e-016 1.000000e+000
         vertex -1.500000e+000 -6.938894e-016 1.000000e+000
      endloop
   endfacet
   facet normal 1.734723e-016 0.000000e+000 -1.000000e+000
      outer loop
         vertex -1.500000e+000 -6.938894e-016 1.000000e+000
         vertex -5.000000e-001 -6.938894e-016 1.000000e+000
         vertex -1.060660e+000 -1.060660e+000 1.000000e+000
      endloop
   endfacet
   facet normal 1.734723e-016 0.000000e+000 -1.000000e+000
      outer loop
         vertex -1.500000e+000 -6.938894e-016 1.000000e+000
         vertex -1.060660e+000 -1.060660e+000 1.000000e+000
         vertex -1.500000e+000 -1.500000e+000 1.000000e+000
      endloop
   endfacet
   facet normal 1.734723e-016 0.000000e+000 -1.000000e+000
      outer loop
         vertex 3.117449e-001 3.909158e-001 1.000000e+000
         vertex 1.177975e+000 9.286409e-001 1.000000e+000
         vertex 4.504845e-001 2.169419e-001 1.000000e+000
      endloop
   endfacet
   facet normal 1.734723e-016 0.000000e+000 -1.000000e+000
      outer loop
         vertex 4.504845e-001 2.169419e-001 1.000000e+000
         vertex 1.177975e+000 9.286409e-001 1.000000e+000
         vertex 1.385819e+000 5.740252e-001 1.000000e+000
      endloop
   endfacet
   facet normal 1.734723e-016 0.000000e+000 -1.000000e+000
      outer loop
         vertex 4.504845e-001 2.169419e-001 1.000000e+000
         vertex 1.385819e+000 5.740252e-001 1.000000e+000
         vertex 5.000000e-001 -6.938894e-016 1.000000e+000
      endloop
   endfacet
   facet normal 1.734723e-016 0.000000e+000 -1.000000e+000
      outer loop
         vertex -1.112605e-001 4.874640e-001 1.000000e+000
         vertex 1.176886e-001 1.495376e+000 1.000000e+000
         vertex 1.112605e-001 4.874640e-001 1.000000e+000
      endloop
   endfacet
   facet normal 1.734723e-016 0.000000e+000 -1.000000e+000
      outer loop
         vertex 1.112605e-001 4.874640e-001 1.000000e+000
         vertex 1.176886e-001 1.495376e+000 1.000000e+000
         vertex 5.191756e-001 1.407287e+000 1.000000e+000
      endloop
   endfacet
   facet normal 1.734723e-016 0.000000e+000 -1.000000e+000
      outer loop
         vertex 1.112605e-001 4.874640e-001 1.000000e+000
         vertex 5.191756e-001 1.407287e+000 1.000000e+000
         vertex 3.117449e-001 3.909158e-001 1.000000e+000
      endloop
   endfacet
   facet normal 1.734723e-016 0.000000e+000 -1.000000e+000
      outer loop
         vertex 3.117449e-001 3.909158e-001 1.000000e+000
         vertex 5.191756e-001 1.407287e+000 1.000000e+000
         vertex 8.816779e-001 1.213526e+000 1.000000e+000
      endloop
   endfacet
   facet normal 1.734723e-016 0.000000e+000 -1.000000e+000
      outer loop
         vertex 3.117449e-001 3.909158e-001 1.000000e+000
         vertex 8.816779e-001 1.213526e+000 1.000000e+000
         vertex 1.177975e+000 9.286409e-001 1.000000e+000
      endloop
   endfacet
   facet normal 1.734723e-016 0.000000e+000 -1.000000e+000
      outer loop
         vertex -1.278960e+000 7.837478e-001 1.000000e+000
         vertex -1.018201e+000 1.101484e+000 1.000000e+000
         vertex -3.117449e-001 3.909158e-001 1.000000e+000
      endloop
   endfacet
   facet normal 1.734723e-016 0.000000e+000 -1.000000e+000
      outer loop
         vertex -3.117449e-001 3.909158e-001 1.000000e+000
         vertex -1.018201e+000 1.101484e+000 1.000000e+000
         vertex -6.809857e-001 1.336510e+000 1.000000e+000
      endloop
   endfacet
   facet normal 1.734723e-016 0.000000e+000 -1.000000e+000
      outer loop
         vertex -3.117449e-001 3.909158e-001 1.000000e+000
         vertex -6.809857e-001 1.336510e+000 1.000000e+000
         vertex -1.112605e-001 4.874640e-001 1.000000e+000
      endloop
   endfacet
   facet normal 1.734723e-016 0.000000e+000 -1.000000e+000
      outer loop
         vertex -1.112605e-001 4.874640e-001 1.000000e+000
         vertex -6.809857e-001 1.336510e+000 1.000000e+000
         vertex -2.926355e-001 1.471178e+000 1.000000e+000
      endloop
   endfacet
   facet normal 1.734723e-016 0.000000e+000 -1.000000e+000
      outer loop
         vertex -1.112605e-001 4.874640e-001 1.000000e+000
         vertex -2.926355e-001 1.471178e+000 1.000000e+000
         vertex 1.176886e-001 1.495376e+000 1.000000e+000
      endloop
   endfacet
   facet normal 1.734723e-016 0.000000e+000 -1.000000e+000
      outer loop
         vertex -5.000000e-001 -6.938894e-016 1.000000e+000
         vertex -4.504845e-001 -2.169419e-001 1.000000e+000
         vertex -1.060660e+000 -1.060660e+000 1.000000e+000
      endloop
   endfacet
   facet normal 1.734723e-016 0.000000e+000 -1.000000e+000
      outer loop
         vertex -1.060660e+000 -1.060660e+000 1.000000e+000
         vertex -4.504845e-001 -2.169419e-001 1.000000e+000
         vertex -3.117449e-001 -3.909158e-001 1.000000e+000
      endloop
   endfacet
   facet normal 1.734723e-016 0.000000e+000 -1.000000e+000
      outer loop
         vertex -1.060660e+000 -1.060660e+000 1.000000e+000
         vertex -3.117449e-001 -3.909158e-001 1.000000e+000
         vertex -7.329319e-001 -1.308744e+000 1.000000e+000
      endloop
   endfacet
   facet normal 1.734723e-016 0.000000e+000 -1.000000e+000
      outer loop
         vertex -7.329319e-001 -1.308744e+000 1.000000e+000
         vertex -3.117449e-001 -3.909158e-001 1.000000e+000
         vertex -1.112605e-001 -4.874640e-001 1.000000e+000
      endloop
   endfacet
   facet normal 1.734723e-016 0.000000e+000 -1.000000e+000
      outer loop
         vertex 1.112605e-001 -4.874640e-001 1.000000e+000
         vertex 5.888972e-002 -1.498844e+000 1.000000e+000
         vertex -1.112605e-001 -4.874640e-001 1.000000e+000
      endloop
   endfacet
   facet normal 1.734723e-016 0.000000e+000 -1.000000e+000
      outer loop
         vertex -1.112605e-001 -4.874640e-001 1.000000e+000
         vertex 5.888972e-002 -1.498844e+000 1.000000e+000
         vertex -3.501680e-001 -1.458555e+000 1.000000e+000
      endloop
   endfacet
   facet normal 1.734723e-016 0.000000e+000 -1.000000e+000
      outer loop
         vertex -1.112605e-001 -4.874640e-001 1.000000e+000
         vertex -3.501680e-001 -1.458555e+000 1.000000e+000
         vertex -7.329319e-001 -1.308744e+000 1.000000e+000
      endloop
   endfacet
   facet normal 1.734723e-016 0.000000e+000 -1.000000e+000
      outer loop
         vertex 4.504845e-001 -2.169419e-001 1.000000e+000
         vertex 1.140609e+000 -9.741721e-001 1.000000e+000
         vertex 3.117449e-001 -3.909158e-001 1.000000e+000
      endloop
   endfacet
   facet normal 1.734723e-016 0.000000e+000 -1.000000e+000
      outer loop
         vertex 3.117449e-001 -3.909158e-001 1.000000e+000
         vertex 1.140609e+000 -9.741721e-001 1.000000e+000
         vertex 8.333554e-001 -1.247204e+000 1.000000e+000
      endloop
   endfacet
   facet normal 1.734723e-016 0.000000e+000 -1.000000e+000
      outer loop
         vertex 3.117449e-001 -3.909158e-001 1.000000e+000
         vertex 8.333554e-001 -1.247204e+000 1.000000e+000
         vertex 1.112605e-001 -4.874640e-001 1.000000e+000
      endloop
   endfacet
   facet normal 1.734723e-016 0.000000e+000 -1.000000e+000
      outer loop
         vertex 1.112605e-001 -4.874640e-001 1.000000e+000
         vertex 8.333554e-001 -1.247204e+000 1.000000e+000
         vertex 4.635255e-001 -1.426585e+000 1.000000e+000
      endloop
   endfacet
   facet normal 1.734723e-016 0.000000e+000 -1.000000e+000
      outer loop
         vertex 1.112605e-001 -4.874640e-001 1.000000e+000
         vertex 4.635255e-001 -1.426585e+000 1.000000e+000
         vertex 5.888972e-002 -1.498844e+000 1.000000e+000
      endloop
   endfacet
   facet normal 1.734723e-016 0.000000e+000 -1.000000e+000
      outer loop
         vertex 1.385819e+000 5.740252e-001 1.000000e+000
         vertex 1.489603e+000 1.763061e-001 1.000000e+000
         vertex 5.000000e-001 -6.938894e-016 1.000000e+000
      endloop
   endfacet
   facet normal 1.734723e-016 0.000000e+000 -1.000000e+000
      outer loop
         vertex 5.000000e-001 -6.938894e-016 1.000000e+000
         vertex 1.489603e+000 1.763061e-001 1.000000e+000
         vertex 1.481532e+000 -2.346517e-001 1.000000e+000
      endloop
   endfacet
   facet normal 1.734723e-016 0.000000e+000 -1.000000e+000
      outer loop
         vertex 5.000000e-001 -6.938894e-016 1.000000e+000
         vertex 1.481532e+000 -2.346517e-001 1.000000e+000
         vertex 4.504845e-001 -2.169419e-001 1.000000e+000
      endloop
   endfacet
   facet normal 1.734723e-016 0.000000e+000 -1.000000e+000
      outer loop
         vertex 4.504845e-001 -2.169419e-001 1.000000e+000
         vertex 1.481532e+000 -2.346517e-001 1.000000e+000
         vertex 1.362215e+000 -6.279896e-001 1.000000e+000
      endloop
   endfacet
   facet normal 1.734723e-016 0.000000e+000 -1.000000e+000
      outer loop
         vertex 4.504845e-001 -2.169419e-001 1.000000e+000
         vertex 1.362215e+000 -6.279896e-001 1.000000e+000
         vertex 1.140609e+000 -9.741721e-001 1.000000e+000
      endloop
   endfacet
   facet normal 1.734723e-016 0.000000e+000 1.000000e+000
      outer loop
         vertex -1.500000e+000 -1.500000e+000 -1.000000e+000
         vertex -1.060660e+000 -1.060660e+000 -1.000000e+000
         vertex -1.500000e+000 -1.387779e-015 -1.000000e+000
      endloop
   endfacet
   facet normal 1.734723e-016 0.000000e+000 1.000000e+000
      outer loop
         vertex -1.500000e+000 -1.387779e-015 -1.000000e+000
         vertex -1.060660e+000 -1.060660e+000 -1.000000e+000
         vertex -1.278960e+000 7.837478e-001 -1.000000e+000
      endloop
   endfacet
   facet normal 1.734723e-016 0.000000e+000 1.000000e+000
      outer loop
         vertex -1.500000e+000 -1.387779e-015 -1.000000e+000
         vertex -1.278960e+000 7.837478e-001 -1.000000e+000
         vertex -1.443683e+000 4.071607e-001 -1.000000e+000
      endloop
   endfacet
   facet normal 1.734723e-016 0.000000e+000 1.000000e+000
      outer loop
         vertex 1.112605e-001 4.874640e-001 -1.000000e+000
         vertex 3.117449e-001 3.909158e-001 -1.000000e+000
         vertex 8.816779e-001 1.213526e+000 -1.000000e+000
      endloop
   endfacet
   facet normal 1.734723e-016 0.000000e+000 1.000000e+000
      outer loop
         vertex 8.816779e-001 1.213526e+000 -1.000000e+000
         vertex 3.117449e-001 3.909158e-001 -1.000000e+000
         vertex 1.177975e+000 9.286409e-001 -1.000000e+000
      endloop
   endfacet
   facet normal 1.734723e-016 0.000000e+000 1.000000e+000
      outer loop
         vertex 1.177975e+000 9.286409e-001 -1.000000e+000
         vertex 3.117449e-001 3.909158e-001 -1.000000e+000
         vertex 4.504845e-001 2.169419e-001 -1.000000e+000
      endloop
   endfacet
   facet normal 1.734723e-016 0.000000e+000 1.000000e+000
      outer loop
         vertex 1.177975e+000 9.286409e-001 -1.000000e+000
         vertex 4.504845e-001 2.169419e-001 -1.000000e+000
         vertex 1.385819e+000 5.740252e-001 -1.000000e+000
      endloop
   endfacet
   facet normal 1.734723e-016 0.000000e+000 1.000000e+000
      outer loop
         vertex 1.385819e+000 5.740252e-001 -1.000000e+000
         vertex 4.504845e-001 2.169419e-001 -1.000000e+000
         vertex 1.489603e+000 1.763061e-001 -1.000000e+000
      endloop
   endfacet
   facet normal 1.734723e-016 0.000000e+000 1.000000e+000
      outer loop
         vertex 1.489603e+000 1.763061e-001 -1.000000e+000
         vertex 4.504845e-001 2.169419e-001 -1.000000e+000
         vertex 5.000000e-001 -6.938894e-016 -1.000000e+000
      endloop
   endfacet
   facet normal 1.734723e-016 0.000000e+000 1.000000e+000
      outer loop
         vertex 1.489603e+000 1.763061e-001 -1.000000e+000
         vertex 5.000000e-001 -6.938894e-016 -1.000000e+000
         vertex 1.481532e+000 -2.346517e-001 -1.000000e+000
      endloop
   endfacet
   facet normal 1.734723e-016 0.000000e+000 1.000000e+000
      outer loop
         vertex 1.481532e+000 -2.346517e-001 -1.000000e+000
         vertex 5.000000e-001 -6.938894e-016 -1.000000e+000
         vertex 4.504845e-001 -2.169419e-001 -1.000000e+000
      endloop
   endfacet
   facet normal 1.734723e-016 0.000000e+000 1.000000e+000
      outer loop
         vertex 1.481532e+000 -2.346517e-001 -1.000000e+000
         vertex 4.504845e-001 -2.169419e-001 -1.000000e+000
         vertex 1.362215e+000 -6.279896e-001 -1.000000e+000
      endloop
   endfacet
   facet normal 1.734723e-016 0.000000e+000 1.000000e+000
      outer loop
         vertex -1.112605e-001 4.874640e-001 -1.000000e+000
         vertex -6.809857e-001 1.336510e+000 -1.000000e+000
         vertex -3.117449e-001 3.909158e-001 -1.000000e+000
      endloop
   endfacet
   facet normal 1.734723e-016 0.000000e+000 1.000000e+000
      outer loop
         vertex -3.117449e-001 3.909158e-001 -1.000000e+000
         vertex -6.809857e-001 1.336510e+000 -1.000000e+000
         vertex -1.018201e+000 1.101484e+000 -1.000000e+000
      endloop
   endfacet
   facet normal 1.734723e-016 0.000000e+000 1.000000e+000
      outer loop
         vertex -3.117449e-001 3.909158e-001 -1.000000e+000
         vertex -1.018201e+000 1.101484e+000 -1.000000e+000
         vertex -4.504845e-001 2.169419e-001 -1.000000e+000
      endloop
   endfacet
   facet normal 1.734723e-016 0.000000e+000 1.000000e+000
      outer loop
         vertex -4.504845e-001 2.169419e-001 -1.000000e+000
         vertex -1.018201e+000 1.101484e+000 -1.000000e+000
         vertex -1.278960e+000 7.837478e-001 -1.000000e+000
      endloop
   endfacet
   facet normal 1.734723e-016 0.000000e+000 1.000000e+000
      outer loop
         vertex 8.816779e-001 1.213526e+000 -1.000000e+000
         vertex 5.191756e-001 1.407287e+000 -1.000000e+000
         vertex 1.112605e-001 4.874640e-001 -1.000000e+000
      endloop
   endfacet
   facet normal 1.734723e-016 0.000000e+000 1.000000e+000
      outer loop
         vertex 1.112605e-001 4.874640e-001 -1.000000e+000
         vertex 5.191756e-001 1.407287e+000 -1.000000e+000
         vertex 1.176886e-001 1.495376e+000 -1.000000e+000
      endloop
   endfacet
   facet normal 1.734723e-016 0.000000e+000 1.000000e+000
      outer loop
         vertex 1.112605e-001 4.874640e-001 -1.000000e+000
         vertex 1.176886e-001 1.495376e+000 -1.000000e+000
         vertex -1.112605e-001 4.874640e-001 -1.000000e+000
      endloop
   endfacet
   facet normal 1.734723e-016 0.000000e+000 1.000000e+000
      outer loop
         vertex -1.112605e-001 4.874640e-001 -1.000000e+000
         vertex 1.176886e-001 1.495376e+000 -1.000000e+000
         vertex -2.926355e-001 1.471178e+000 -1.000000e+000
      endloop
   endfacet
   facet normal 1.734723e-016 0.000000e+000 1.000000e+000
      outer loop
         vertex -1.112605e-001 4.874640e-001 -1.000000e+000
         vertex -2.926355e-001 1.471178e+000 -1.000000e+000
         vertex -6.809857e-001 1.336510e+000 -1.000000e+000
      endloop
   endfacet
   facet normal 1.734723e-016 0.000000e+000 1.000000e+000
      outer loop
         vertex 1.362215e+000 -6.279896e-001 -1.000000e+000
         vertex 4.504845e-001 -2.169419e-001 -1.000000e+000
         vertex 1.140609e+000 -9.741721e-001 -1.000000e+000
      endloop
   endfacet
   facet normal 1.734723e-016 0.000000e+000 1.000000e+000
      outer loop
         vertex 1.140609e+000 -9.741721e-001 -1.000000e+000
         vertex 4.504845e-001 -2.169419e-001 -1.000000e+000
         vertex 3.117449e-001 -3.909158e-001 -1.000000e+000
      endloop
   endfacet
   facet normal 1.734723e-016 0.000000e+000 1.000000e+000
      outer loop
         vertex 1.140609e+000 -9.741721e-001 -1.000000e+000
         vertex 3.117449e-001 -3.909158e-001 -1.000000e+000
         vertex 8.333554e-001 -1.247204e+000 -1.000000e+000
      endloop
   endfacet
   facet normal 1.734723e-016 0.000000e+000 1.000000e+000
      outer loop
         vertex 8.333554e-001 -1.247204e+000 -1.000000e+000
         vertex 3.117449e-001 -3.909158e-001 -1.000000e+000
         vertex 4.635255e-001 -1.426585e+000 -1.000000e+000
      endloop
   endfacet
   facet normal 1.734723e-016 0.000000e+000 1.000000e+000
      outer loop
         vertex 4.635255e-001 -1.426585e+000 -1.000000e+000
         vertex 3.117449e-001 -3.909158e-001 -1.000000e+000
         vertex 1.112605e-001 -4.874640e-001 -1.000000e+000
      endloop
   endfacet
   facet normal 1.734723e-016 0.000000e+000 1.000000e+000
      outer loop
         vertex 4.635255e-001 -1.426585e+000 -1.000000e+000
         vertex 1.112605e-001 -4.874640e-001 -1.000000e+000
         vertex 5.888972e-002 -1.498844e+000 -1.000000e+000
      endloop
   endfacet
   facet normal 1.734723e-016 0.000000e+000 1.000000e+000
      outer loop
         vertex 5.888972e-002 -1.498844e+000 -1.000000e+000
         vertex 1.112605e-001 -4.874640e-001 -1.000000e+000
         vertex -1.112605e-001 -4.874640e-001 -1.000000e+000
      endloop
   endfacet
   facet normal 1.734723e-016 0.000000e+000 1.000000e+000
      outer loop
         vertex 5.888972e-002 -1.498844e+000 -1.000000e+000
         vertex -1.112605e-001 -4.874640e-001 -1.000000e+000
         vertex -3.501680e-001 -1.458555e+000 -1.000000e+000
      endloop
   endfacet
   facet normal 1.734723e-016 0.000000e+000 1.000000e+000
      outer loop
         vertex -3.501680e-001 -1.458555e+000 -1.000000e+000
         vertex -1.112605e-001 -4.874640e-001 -1.000000e+000
         vertex -7.329319e-001 -1.308744e+000 -1.000000e+000
      endloop
   endfacet
   facet normal 1.734723e-016 0.000000e+000 1.000000e+000
      outer loop
         vertex -7.329319e-001 -1.308744e+000 -1.000000e+000
         vertex -1.112605e-001 -4.874640e-001 -1.000000e+000
         vertex -3.117449e-001 -3.909158e-001 -1.000000e+000
      endloop
   endfacet
   facet normal 1.734723e-016 0.000000e+000 1.000000e+000
      outer loop
         vertex -7.329319e-001 -1.308744e+000 -1.000000e+000
         vertex -3.117449e-001 -3.909158e-001 -1.000000e+000
         vertex -1.060660e+000 -1.060660e+000 -1.000000e+000
      endloop
   endfacet
   facet normal 1.734723e-016 0.000000e+000 1.000000e+000
      outer loop
         vertex -1.060660e+000 -1.060660e+000 -1.000000e+000
         vertex -3.117449e-001 -3.909158e-001 -1.000000e+000
         vertex -4.504845e-001 -2.169419e-001 -1.000000e+000
      endloop
   endfacet
   facet normal 1.734723e-016 0.000000e+000 1.000000e+000
      outer loop
         vertex -1.060660e+000 -1.060660e+000 -1.000000e+000
         vertex -4.504845e-001 -2.169419e-001 -1.000000e+000
         vertex -1.278960e+000 7.837478e-001 -1.000000e+000
      endloop
   endfacet
   facet normal 1.734723e-016 0.000000e+000 1.000000e+000
      outer loop
         vertex -1.278960e+000 7.837478e-001 -1.000000e+000
         vertex -4.504845e-001 -2.169419e-001 -1.000000e+000
         vertex -5.000000e-001 -6.938894e-016 -1.000000e+000
      endloop
   endfacet
   facet normal 1.734723e-016 0.000000e+000 1.000000e+000
      outer loop
         vertex -1.278960e+000 7.837478e-001 -1.000000e+000
         vertex -5.000000e-001 -6.938894e-016 -1.000000e+000
         vertex -4.504845e-001 2.169419e-001 -1.000000e+000
      endloop
   endfacet
   facet normal -1.000000e+000 0.000000e+000 0.000000e+000
      outer loop
         vertex -2.000000e+000 -1.500000e+000 -5.000000e-001
         vertex -2.000000e+000 -5.000000e-001 -5.000000e-001
         vertex -2.000000e+000 -1.500000e+000 -2.000000e+000
      endloop
   endfacet
   facet normal -1.000000e+000 0.000000e+000 0.000000e+000
      outer loop
         vertex -2.000000e+000 -1.500000e+000 -2.000000e+000
         vertex -2.000000e+000 -5.000000e-001 -5.000000e-001
         vertex -2.000000e+000 -5.000000e-001 -2.000000e+000
      endloop
   endfacet
   facet normal 0.000000e+000 0.000000e+000 -1.000000e+000
      outer loop
         vertex -4.000000e+000 -1.500000e+000 -5.000000e-001
         vertex -4.000000e+000 -5.000000e-001 -5.000000e-001
         vertex -2.000000e+000 -1.500000e+000 -5.000000e-001
      endloop
   endfacet
   facet normal 0.000000e+000 0.000000e+000 -1.000000e+000
      outer loop
         vertex -2.000000e+000 -1.500000e+000 -5.000000e-001
         vertex -4.000000e+000 -5.000000e-001 -5.000000e-001
         vertex -2.000000e+000 -5.000000e-001 -5.000000e-001
      endloop
   endfacet
   facet normal 0.000000e+000 0.000000e+000 1.000000e+000
      outer loop
         vertex -2.000000e+000 -1.500000e+000 5.000000e-001
         vertex -2.000000e+000 -5.000000e-001 5.000000e-001
         vertex -4.000000e+000 -1.500000e+000 5.000000e-001
      endloop
   endfacet
   facet normal 0.000000e+000 0.000000e+000 1.000000e+000
      outer loop
         vertex -4.000000e+000 -1.500000e+000 5.000000e-001
         vertex -2.000000e+000 -5.000000e-001 5.000000e-001
         vertex -4.000000e+000 -5.000000e-001 5.000000e-001
      endloop
   endfacet
   facet normal -1.000000e+000 0.000000e+000 0.000000e+000
      outer loop
         vertex -2.000000e+000 -1.500000e+000 2.000000e+000
         vertex -2.000000e+000 -5.000000e-001 2.000000e+000
         vertex -2.000000e+000 -1.500000e+000 5.000000e-001
      endloop
   endfacet
   facet normal -1.000000e+000 0.000000e+000 0.000000e+000
      outer loop
         vertex -2.000000e+000 -1.500000e+000 5.000000e-001
         vertex -2.000000e+000 -5.000000e-001 2.000000e+000
         vertex -2.000000e+000 -5.000000e-001 5.000000e-001
      endloop
   endfacet
   facet normal 1.000000e+000 0.000000e+000 0.000000e+000
      outer loop
         vertex -4.000000e+000 -1.500000e+000 5.000000e-001
         vertex -4.000000e+000 -3.000000e+000 4.000000e+000
         vertex -4.000000e+000 -1.500000e+000 -5.000000e-001
      endloop
   endfacet
   facet normal 1.000000e+000 0.000000e+000 0.000000e+000
      outer loop
         vertex -4.000000e+000 -1.500000e+000 -5.000000e-001
         vertex -4.000000e+000 -3.000000e+000 4.000000e+000
         vertex -4.000000e+000 -3.000000e+000 -4.000000e+000
      endloop
   endfacet
   facet normal 1.000000e+000 0.000000e+000 0.000000e+000
      outer loop
         vertex -4.000000e+000 -1.500000e+000 -5.000000e-001
         vertex -4.000000e+000 -3.000000e+000 -4.000000e+000
         vertex -4.000000e+000 -5.000000e-001 -5.000000e-001
      endloop
   endfacet
   facet normal 1.000000e+000 0.000000e+000 0.000000e+000
      outer loop
         vertex -4.000000e+000 -5.000000e-001 -5.000000e-001
         vertex -4.000000e+000 -3.000000e+000 -4.000000e+000
         vertex -4.000000e+000 3.000000e+000 -4.000000e+000
      endloop
   endfacet
   facet normal 1.000000e+000 0.000000e+000 0.000000e+000
      outer loop
         vertex -4.000000e+000 -5.000000e-001 -5.000000e-001
         vertex -4.000000e+000 3.000000e+000 -4.000000e+000
         vertex -4.000000e+000 -5.000000e-001 5.000000e-001
      endloop
   endfacet
   facet normal 1.000000e+000 0.000000e+000 0.000000e+000
      outer loop
         vertex -4.000000e+000 -5.000000e-001 5.000000e-001
         vertex -4.000000e+000 3.000000e+000 -4.000000e+000
         vertex -4.000000e+000 3.000000e+000 4.000000e+000
      endloop
   endfacet
   facet normal 1.000000e+000 0.000000e+000 0.000000e+000
      outer loop
         vertex -4.000000e+000 -5.000000e-001 5.000000e-001
         vertex -4.000000e+000 3.000000e+000 4.000000e+000
         vertex -4.000000e+000 -1.500000e+000 5.000000e-001
      endloop
   endfacet
   facet normal 1.000000e+000 0.000000e+000 0.000000e+000
      outer loop
         vertex -4.000000e+000 -1.500000e+000 5.000000e-001
         vertex -4.000000e+000 3.000000e+000 4.000000e+000
         vertex -4.000000e+000 -3.000000e+000 4.000000e+000
      endloop
   endfacet
   facet normal 0.000000e+000 0.000000e+000 1.000000e+000
      outer loop
         vertex -4.000000e+000 3.000000e+000 4.000000e+000
         vertex -5.000000e+000 3.000000e+000 4.000000e+000
         vertex -4.000000e+000 -3.000000e+000 4.000000e+000
      endloop
   endfacet
   facet normal 0.000000e+000 0.000000e+000 1.000000e+000
      outer loop
         vertex -4.000000e+000 -3.000000e+000 4.000000e+000
         vertex -5.000000e+000 3.000000e+000 4.000000e+000
         vertex -5.000000e+000 -3.000000e+000 4.000000e+000
      endloop
   endfacet
   facet normal 0.000000e+000 0.000000e+000 -1.000000e+000
      outer loop
         vertex -5.000000e+000 3.000000e+000 -4.000000e+000
         vertex -4.000000e+000 3.000000e+000 -4.000000e+000
         vertex -5.000000e+000 -3.000000e+000 -4.000000e+000
      endloop
   endfacet
   facet normal 0.000000e+000 0.000000e+000 -1.000000e+000
      outer loop
         vertex -5.000000e+000 -3.000000e+000 -4.000000e+000
         vertex -4.000000e+000 3.000000e+000 -4.000000e+000
         vertex -4.000000e+000 -3.000000e+000 -4.000000e+000
      endloop
   endfacet
   facet normal -1.000000e+000 0.000000e+000 0.000000e+000
      outer loop
         vertex -5.000000e+000 3.000000e+000 4.000000e+000
         vertex -5.000000e+000 3.000000e+000 -4.000000e+000
         vertex -5.000000e+000 -3.000000e+000 4.000000e+000
      endloop
   endfacet
   facet normal -1.000000e+000 0.000000e+000 0.000000e+000
      outer loop
         vertex -5.000000e+000 -3.000000e+000 4.000000e+000
         vertex -5.000000e+000 3.000000e+000 -4.000000e+000
         vertex -5.000000e+000 -3.000000e+000 -4.000000e+000
      endloop
   endfacet
   facet normal 0.000000e+000 1.000000e+000 0.000000e+000
      outer loop
         vertex -4.000000e+000 3.000000e+000 -4.000000e+000
         vertex -5.000000e+000 3.000000e+000 -4.000000e+000
         vertex -4.000000e+000 3.000000e+000 4.000000e+000
      endloop
   endfacet
   facet normal 0.000000e+000 1.000000e+000 0.000000e+000
      outer loop
         vertex -4.000000e+000 3.000000e+000 4.000000e+000
         vertex -5.000000e+000 3.000000e+000 -4.000000e+000
         vertex -5.000000e+000 3.000000e+000 4.000000e+000
      endloop
   endfacet
   facet normal 0.000000e+000 -1.000000e+000 0.000000e+000
      outer loop
         vertex -5.000000e+000 -3.000000e+000 -4.000000e+000
         vertex -4.000000e+000 -3.000000e+000 -4.000000e+000
         vertex -5.000000e+000 -3.000000e+000 4.000000e+000
      endloop
   endfacet
   facet normal 0.000000e+000 -1.000000e+000 0.000000e+000
      outer loop
         vertex -5.000000e+000 -3.000000e+000 4.000000e+000
         vertex -4.000000e+000 -3.000000e+000 -4.000000e+000
         vertex -4.000000e+000 -3.000000e+000 4.000000e+000
      endloop
   endfacet
endsolid