solid tbaseaa
   facet normal -9.056759e-001 -4.239708e-001 0.000000e+000
      outer loop
         vertex -1.414214e+000 -5.000000e-001 -1.000000e+000
         vertex -1.414214e+000 -5.000000e-001 -2.000000e+000
         vertex -1.207822e+000 -8.894747e-001 -2.000000e+000
      endloop
   endfacet
   facet normal -8.593647e-001 -5.113632e-001 0.000000e+000
      outer loop
         vertex -1.414214e+000 -5.000000e-001 -1.000000e+000
         vertex -1.207822e+000 -8.894747e-001 -2.000000e+000
         vertex -1.207822e+000 -8.894747e-001 -1.000000e+000
      endloop
   endfacet
   facet normal -7.433398e-001 -6.689140e-001 0.000000e+000
      outer loop
         vertex -1.207822e+000 -8.894747e-001 -1.000000e+000
         vertex -1.207822e+000 -8.894747e-001 -2.000000e+000
         vertex -8.971354e-001 -1.202143e+000 -2.000000e+000
      endloop
   endfacet
   facet normal -6.736262e-001 -7.390722e-001 0.000000e+000
      outer loop
         vertex -1.207822e+000 -8.894747e-001 -1.000000e+000
         vertex -8.971354e-001 -1.202143e+000 -2.000000e+000
         vertex -8.971354e-001 -1.202143e+000 -1.000000e+000
      endloop
   endfacet
   facet normal -5.168163e-001 -8.560963e-001 0.000000e+000
      outer loop
         vertex -8.971354e-001 -1.202143e+000 -1.000000e+000
         vertex -8.971354e-001 -1.202143e+000 -2.000000e+000
         vertex -5.089808e-001 -1.411006e+000 -2.000000e+000
      endloop
   endfacet
   facet normal -4.297200e-001 -9.029622e-001 0.000000e+000
      outer loop
         vertex -8.971354e-001 -1.202143e+000 -1.000000e+000
         vertex -5.089808e-001 -1.411006e+000 -2.000000e+000
         vertex -5.089808e-001 -1.411006e+000 -1.000000e+000
      endloop
   endfacet
   facet normal -2.456656e-001 -9.693546e-001 0.000000e+000
      outer loop
         vertex -5.089808e-001 -1.411006e+000 -1.000000e+000
         vertex -5.089808e-001 -1.411006e+000 -2.000000e+000
         vertex -7.687549e-002 -1.498029e+000 -2.000000e+000
      endloop
   endfacet
   facet normal -1.487074e-001 -9.888812e-001 0.000000e+000
      outer loop
         vertex -5.089808e-001 -1.411006e+000 -1.000000e+000
         vertex -7.687549e-002 -1.498029e+000 -2.000000e+000
         vertex -7.687549e-002 -1.498029e+000 -1.000000e+000
      endloop
   endfacet
   facet normal 4.669844e-002 -9.989091e-001 0.000000e+000
      outer loop
         vertex -7.687549e-002 -1.498029e+000 -1.000000e+000
         vertex -7.687549e-002 -1.498029e+000 -2.000000e+000
         vertex 3.618680e-001 -1.455696e+000 -2.000000e+000
      endloop
   endfacet
   facet normal 1.451461e-001 -9.894102e-001 0.000000e+000
      outer loop
         vertex -7.687549e-002 -1.498029e+000 -1.000000e+000
         vertex 3.618680e-001 -1.455696e+000 -2.000000e+000
         vertex 3.618680e-001 -1.455696e+000 -1.000000e+000
      endloop
   endfacet
   facet normal 3.350300e-001 -9.422075e-001 0.000000e+000
      outer loop
         vertex 3.618680e-001 -1.455696e+000 -1.000000e+000
         vertex 3.618680e-001 -1.455696e+000 -2.000000e+000
         vertex 7.693641e-001 -1.287664e+000 -2.000000e+000
      endloop
   endfacet
   facet normal 4.264663e-001 -9.045035e-001 0.000000e+000
      outer loop
         vertex 3.618680e-001 -1.455696e+000 -1.000000e+000
         vertex 7.693641e-001 -1.287664e+000 -2.000000e+000
         vertex 7.693641e-001 -1.287664e+000 -1.000000e+000
      endloop
   endfacet
   facet normal 5.944317e-001 -8.041461e-001 0.000000e+000
      outer loop
         vertex 7.693641e-001 -1.287664e+000 -1.000000e+000
         vertex 7.693641e-001 -1.287664e+000 -2.000000e+000
         vertex 1.110425e+000 -1.008442e+000 -2.000000e+000
      endloop
   endfacet
   facet normal 6.709609e-001 -7.414927e-001 0.000000e+000
      outer loop
         vertex 7.693641e-001 -1.287664e+000 -1.000000e+000
         vertex 1.110425e+000 -1.008442e+000 -2.000000e+000
         vertex 1.110425e+000 -1.008442e+000 -1.000000e+000
      endloop
   endfacet
   facet normal 8.025041e-001 -5.966466e-001 0.000000e+000
      outer loop
         vertex 1.110425e+000 -1.008442e+000 -1.000000e+000
         vertex 1.110425e+000 -1.008442e+000 -2.000000e+000
         vertex 1.355601e+000 -6.421407e-001 -2.000000e+000
      endloop
   endfacet
   facet normal 8.575180e-001 -5.144539e-001 0.000000e+000
      outer loop
         vertex 1.110425e+000 -1.008442e+000 -1.000000e+000
         vertex 1.355601e+000 -6.421407e-001 -2.000000e+000
         vertex 1.355601e+000 -6.421407e-001 -1.000000e+000
      endloop
   endfacet
   facet normal 9.412801e-001 -3.376266e-001 0.000000e+000
      outer loop
         vertex 1.355601e+000 -6.421407e-001 -1.000000e+000
         vertex 1.355601e+000 -6.421407e-001 -2.000000e+000
         vertex 1.483721e+000 -2.203905e-001 -2.000000e+000
      endloop
   endfacet
   facet normal 9.700283e-001 -2.429919e-001 0.000000e+000
      outer loop
         vertex 1.355601e+000 -6.421407e-001 -1.000000e+000
         vertex 1.483721e+000 -2.203905e-001 -2.000000e+000
         vertex 1.483721e+000 -2.203905e-001 -1.000000e+000
      endloop
   endfacet
   facet normal 9.987765e-001 -4.945243e-002 0.000000e+000
      outer loop
         vertex 1.483721e+000 -2.203905e-001 -1.000000e+000
         vertex 1.483721e+000 -2.203905e-001 -2.000000e+000
         vertex 1.483721e+000 2.203905e-001 -2.000000e+000
      endloop
   endfacet
   facet normal 9.987765e-001 4.945243e-002 0.000000e+000
      outer loop
         vertex 1.483721e+000 -2.203905e-001 -1.000000e+000
         vertex 1.483721e+000 2.203905e-001 -2.000000e+000
         vertex 1.483721e+000 2.203905e-001 -1.000000e+000
      endloop
   endfacet
   facet normal 9.700283e-001 2.429919e-001 0.000000e+000
      outer loop
         vertex 1.483721e+000 2.203905e-001 -1.000000e+000
         vertex 1.483721e+000 2.203905e-001 -2.000000e+000
         vertex 1.355601e+000 6.421407e-001 -2.000000e+000
      endloop
   endfacet
   facet normal 9.412801e-001 3.376266e-001 0.000000e+000
      outer loop
         vertex 1.483721e+000 2.203905e-001 -1.000000e+000
         vertex 1.355601e+000 6.421407e-001 -2.000000e+000
         vertex 1.355601e+000 6.421407e-001 -1.000000e+000
      endloop
   endfacet
   facet normal 8.575180e-001 5.144539e-001 0.000000e+000
      outer loop
         vertex 1.355601e+000 6.421407e-001 -1.000000e+000
         vertex 1.355601e+000 6.421407e-001 -2.000000e+000
         vertex 1.110425e+000 1.008442e+000 -2.000000e+000
      endloop
   endfacet
   facet normal 8.025041e-001 5.966466e-001 0.000000e+000
      outer loop
         vertex 1.355601e+000 6.421407e-001 -1.000000e+000
         vertex 1.110425e+000 1.008442e+000 -2.000000e+000
         vertex 1.110425e+000 1.008442e+000 -1.000000e+000
      endloop
   endfacet
   facet normal 6.709609e-001 7.414927e-001 0.000000e+000
      outer loop
         vertex 1.110425e+000 1.008442e+000 -1.000000e+000
         vertex 1.110425e+000 1.008442e+000 -2.000000e+000
         vertex 7.693641e-001 1.287664e+000 -2.000000e+000
      endloop
   endfacet
   facet normal 5.944317e-001 8.041461e-001 0.000000e+000
      outer loop
         vertex 1.110425e+000 1.008442e+000 -1.000000e+000
         vertex 7.693641e-001 1.287664e+000 -2.000000e+000
         vertex 7.693641e-001 1.287664e+000 -1.000000e+000
      endloop
   endfacet
   facet normal 4.264663e-001 9.045035e-001 0.000000e+000
      outer loop
         vertex 7.693641e-001 1.287664e+000 -1.000000e+000
         vertex 7.693641e-001 1.287664e+000 -2.000000e+000
         vertex 3.618680e-001 1.455696e+000 -2.000000e+000
      endloop
   endfacet
   facet normal 3.350300e-001 9.422075e-001 0.000000e+000
      outer loop
         vertex 7.693641e-001 1.287664e+000 -1.000000e+000
         vertex 3.618680e-001 1.455696e+000 -2.000000e+000
         vertex 3.618680e-001 1.455696e+000 -1.000000e+000
      endloop
   endfacet
   facet normal 1.451461e-001 9.894102e-001 0.000000e+000
      outer loop
         vertex 3.618680e-001 1.455696e+000 -1.000000e+000
         vertex 3.618680e-001 1.455696e+000 -2.000000e+000
         vertex -7.687549e-002 1.498029e+000 -2.000000e+000
      endloop
   endfacet
   facet normal 4.669844e-002 9.989091e-001 0.000000e+000
      outer loop
         vertex 3.618680e-001 1.455696e+000 -1.000000e+000
         vertex -7.687549e-002 1.498029e+000 -2.000000e+000
         vertex -7.687549e-002 1.498029e+000 -1.000000e+000
      endloop
   endfacet
   facet normal -1.487074e-001 9.888812e-001 0.000000e+000
      outer loop
         vertex -7.687549e-002 1.498029e+000 -1.000000e+000
         vertex -7.687549e-002 1.498029e+000 -2.000000e+000
         vertex -5.089808e-001 1.411006e+000 -2.000000e+000
      endloop
   endfacet
   facet normal -2.456656e-001 9.693546e-001 0.000000e+000
      outer loop
         vertex -7.687549e-002 1.498029e+000 -1.000000e+000
         vertex -5.089808e-001 1.411006e+000 -2.000000e+000
         vertex -5.089808e-001 1.411006e+000 -1.000000e+000
      endloop
   endfacet
   facet normal -4.297200e-001 9.029622e-001 0.000000e+000
      outer loop
         vertex -5.089808e-001 1.411006e+000 -1.000000e+000
         vertex -5.089808e-001 1.411006e+000 -2.000000e+000
         vertex -8.971354e-001 1.202143e+000 -2.000000e+000
      endloop
   endfacet
   facet normal -5.168163e-001 8.560963e-001 0.000000e+000
      outer loop
         vertex -5.089808e-001 1.411006e+000 -1.000000e+000
         vertex -8.971354e-001 1.202143e+000 -2.000000e+000
         vertex -8.971354e-001 1.202143e+000 -1.000000e+000
      endloop
   endfacet
   facet normal -6.736262e-001 7.390722e-001 0.000000e+000
      outer loop
         vertex -8.971354e-001 1.202143e+000 -1.000000e+000
         vertex -8.971354e-001 1.202143e+000 -2.000000e+000
         vertex -1.207822e+000 8.894747e-001 -2.000000e+000
      endloop
   endfacet
   facet normal -7.433398e-001 6.689140e-001 0.000000e+000
      outer loop
         vertex -8.971354e-001 1.202143e+000 -1.000000e+000
         vertex -1.207822e+000 8.894747e-001 -2.000000e+000
         vertex -1.207822e+000 8.894747e-001 -1.000000e+000
      endloop
   endfacet
   facet normal -8.593647e-001 5.113632e-001 0.000000e+000
      outer loop
         vertex -1.207822e+000 8.894747e-001 -1.000000e+000
         vertex -1.207822e+000 8.894747e-001 -2.000000e+000
         vertex -1.414214e+000 5.000000e-001 -2.000000e+000
      endloop
   endfacet
   facet normal -9.056759e-001 4.239708e-001 0.000000e+000
      outer loop
         vertex -1.207822e+000 8.894747e-001 -1.000000e+000
         vertex -1.414214e+000 5.000000e-001 -2.000000e+000
         vertex -1.414214e+000 5.000000e-001 -1.000000e+000
      endloop
   endfacet
   facet normal 9.851211e-001 1.718619e-001 0.000000e+000
      outer loop
         vertex -4.330127e-001 -2.500000e-001 -1.000000e+000
         vertex -5.000000e-001 -1.224606e-016 -2.000000e+000
         vertex -5.000000e-001 -1.224606e-016 -1.000000e+000
      endloop
   endfacet
   facet normal 9.851211e-001 -1.718619e-001 0.000000e+000
      outer loop
         vertex -5.000000e-001 -1.224606e-016 -1.000000e+000
         vertex -5.000000e-001 -1.224606e-016 -2.000000e+000
         vertex -4.330127e-001 2.500000e-001 -2.000000e+000
      endloop
   endfacet
   facet normal 9.390708e-001 -3.437238e-001 0.000000e+000
      outer loop
         vertex -5.000000e-001 -1.224606e-016 -1.000000e+000
         vertex -4.330127e-001 2.500000e-001 -2.000000e+000
         vertex -4.330127e-001 2.500000e-001 -1.000000e+000
      endloop
   endfacet
   facet normal 7.672089e-001 -6.413973e-001 0.000000e+000
      outer loop
         vertex -4.330127e-001 2.500000e-001 -1.000000e+000
         vertex -4.330127e-001 2.500000e-001 -2.000000e+000
         vertex -2.500000e-001 4.330127e-001 -2.000000e+000
      endloop
   endfacet
   facet normal 6.413973e-001 -7.672089e-001 0.000000e+000
      outer loop
         vertex -4.330127e-001 2.500000e-001 -1.000000e+000
         vertex -2.500000e-001 4.330127e-001 -2.000000e+000
         vertex -2.500000e-001 4.330127e-001 -1.000000e+000
      endloop
   endfacet
   facet normal 3.437238e-001 -9.390708e-001 0.000000e+000
      outer loop
         vertex -2.500000e-001 4.330127e-001 -1.000000e+000
         vertex -2.500000e-001 4.330127e-001 -2.000000e+000
         vertex -1.416375e-016 5.000000e-001 -2.000000e+000
      endloop
   endfacet
   facet normal 1.718619e-001 -9.851211e-001 0.000000e+000
      outer loop
         vertex -2.500000e-001 4.330127e-001 -1.000000e+000
         vertex -1.416375e-016 5.000000e-001 -2.000000e+000
         vertex -1.416375e-016 5.000000e-001 -1.000000e+000
      endloop
   endfacet
   facet normal -1.718619e-001 -9.851211e-001 0.000000e+000
      outer loop
         vertex -1.416375e-016 5.000000e-001 -1.000000e+000
         vertex -1.416375e-016 5.000000e-001 -2.000000e+000
         vertex 2.500000e-001 4.330127e-001 -2.000000e+000
      endloop
   endfacet
   facet normal -3.437238e-001 -9.390708e-001 0.000000e+000
      outer loop
         vertex -1.416375e-016 5.000000e-001 -1.000000e+000
         vertex 2.500000e-001 4.330127e-001 -2.000000e+000
         vertex 2.500000e-001 4.330127e-001 -1.000000e+000
      endloop
   endfacet
   facet normal -6.413973e-001 -7.672089e-001 0.000000e+000
      outer loop
         vertex 2.500000e-001 4.330127e-001 -1.000000e+000
         vertex 2.500000e-001 4.330127e-001 -2.000000e+000
         vertex 4.330127e-001 2.500000e-001 -2.000000e+000
      endloop
   endfacet
   facet normal -7.672089e-001 -6.413973e-001 0.000000e+000
      outer loop
         vertex 2.500000e-001 4.330127e-001 -1.000000e+000
         vertex 4.330127e-001 2.500000e-001 -2.000000e+000
         vertex 4.330127e-001 2.500000e-001 -1.000000e+000
      endloop
   endfacet
   facet normal -9.390708e-001 -3.437238e-001 0.000000e+000
      outer loop
         vertex 4.330127e-001 2.500000e-001 -1.000000e+000
         vertex 4.330127e-001 2.500000e-001 -2.000000e+000
         vertex 5.000000e-001 2.832749e-016 -2.000000e+000
      endloop
   endfacet
   facet normal -9.851211e-001 -1.718619e-001 0.000000e+000
      outer loop
         vertex 4.330127e-001 2.500000e-001 -1.000000e+000
         vertex 5.000000e-001 2.832749e-016 -2.000000e+000
         vertex 5.000000e-001 2.832749e-016 -1.000000e+000
      endloop
   endfacet
   facet normal -9.851211e-001 1.718619e-001 0.000000e+000
      outer loop
         vertex 5.000000e-001 2.832749e-016 -1.000000e+000
         vertex 5.000000e-001 2.832749e-016 -2.000000e+000
         vertex 4.330127e-001 -2.500000e-001 -2.000000e+000
      endloop
   endfacet
   facet normal -9.390708e-001 3.437238e-001 0.000000e+000
      outer loop
         vertex 5.000000e-001 2.832749e-016 -1.000000e+000
         vertex 4.330127e-001 -2.500000e-001 -2.000000e+000
         vertex 4.330127e-001 -2.500000e-001 -1.000000e+000
      endloop
   endfacet
   facet normal -7.672089e-001 6.413973e-001 0.000000e+000
      outer loop
         vertex 4.330127e-001 -2.500000e-001 -1.000000e+000
         vertex 4.330127e-001 -2.500000e-001 -2.000000e+000
         vertex 2.500000e-001 -4.330127e-001 -2.000000e+000
      endloop
   endfacet
   facet normal -6.413973e-001 7.672089e-001 0.000000e+000
      outer loop
         vertex 4.330127e-001 -2.500000e-001 -1.000000e+000
         vertex 2.500000e-001 -4.330127e-001 -2.000000e+000
         vertex 2.500000e-001 -4.330127e-001 -1.000000e+000
      endloop
   endfacet
   facet normal -3.437238e-001 9.390708e-001 0.000000e+000
      outer loop
         vertex 2.500000e-001 -4.330127e-001 -1.000000e+000
         vertex 2.500000e-001 -4.330127e-001 -2.000000e+000
         vertex 5.359347e-016 -5.000000e-001 -2.000000e+000
      endloop
   endfacet
   facet normal -1.718619e-001 9.851211e-001 0.000000e+000
      outer loop
         vertex 2.500000e-001 -4.330127e-001 -1.000000e+000
         vertex 5.359347e-016 -5.000000e-001 -2.000000e+000
         vertex 5.359347e-016 -5.000000e-001 -1.000000e+000
      endloop
   endfacet
   facet normal 1.718619e-001 9.851211e-001 0.000000e+000
      outer loop
         vertex 5.359347e-016 -5.000000e-001 -1.000000e+000
         vertex 5.359347e-016 -5.000000e-001 -2.000000e+000
         vertex -2.500000e-001 -4.330127e-001 -2.000000e+000
      endloop
   endfacet
   facet normal 3.437238e-001 9.390708e-001 0.000000e+000
      outer loop
         vertex 5.359347e-016 -5.000000e-001 -1.000000e+000
         vertex -2.500000e-001 -4.330127e-001 -2.000000e+000
         vertex -2.500000e-001 -4.330127e-001 -1.000000e+000
      endloop
   endfacet
   facet normal 6.413973e-001 7.672089e-001 0.000000e+000
      outer loop
         vertex -2.500000e-001 -4.330127e-001 -1.000000e+000
         vertex -2.500000e-001 -4.330127e-001 -2.000000e+000
         vertex -4.330127e-001 -2.500000e-001 -2.000000e+000
      endloop
   endfacet
   facet normal 7.672089e-001 6.413973e-001 0.000000e+000
      outer loop
         vertex -2.500000e-001 -4.330127e-001 -1.000000e+000
         vertex -4.330127e-001 -2.500000e-001 -2.000000e+000
         vertex -4.330127e-001 -2.500000e-001 -1.000000e+000
      endloop
   endfacet
   facet normal 9.390708e-001 3.437238e-001 0.000000e+000
      outer loop
         vertex -4.330127e-001 -2.500000e-001 -1.000000e+000
         vertex -4.330127e-001 -2.500000e-001 -2.000000e+000
         vertex -5.000000e-001 -1.224606e-016 -2.000000e+000
      endloop
   endfacet
   facet normal 0.000000e+000 0.000000e+000 1.000000e+000
      outer loop
         vertex 4.330127e-001 2.500000e-001 2.000000e+000
         vertex 5.000000e-001 1.836909e-016 2.000000e+000
         vertex 1.483721e+000 2.203905e-001 2.000000e+000
      endloop
   endfacet
   facet normal 0.000000e+000 0.000000e+000 1.000000e+000
      outer loop
         vertex -2.000000e+000 5.000000e-001 2.000000e+000
         vertex -2.000000e+000 -5.000000e-001 2.000000e+000
         vertex -1.414214e+000 5.000000e-001 2.000000e+000
      endloop
   endfacet
   facet normal 0.000000e+000 0.000000e+000 1.000000e+000
      outer loop
         vertex -1.414214e+000 5.000000e-001 2.000000e+000
         vertex -2.000000e+000 -5.000000e-001 2.000000e+000
         vertex -1.414214e+000 -5.000000e-001 2.000000e+000
      endloop
   endfacet
   facet normal 0.000000e+000 0.000000e+000 1.000000e+000
      outer loop
         vertex -7.687549e-002 -1.498029e+000 2.000000e+000
         vertex -1.414214e+000 5.000000e-001 2.000000e+000
         vertex -5.089808e-001 -1.411006e+000 2.000000e+000
      endloop
   endfacet
   facet normal 0.000000e+000 0.000000e+000 1.000000e+000
      outer loop
         vertex -5.089808e-001 -1.411006e+000 2.000000e+000
         vertex -1.414214e+000 5.000000e-001 2.000000e+000
         vertex -1.414214e+000 -5.000000e-001 2.000000e+000
      endloop
   endfacet
   facet normal 0.000000e+000 0.000000e+000 1.000000e+000
      outer loop
         vertex -5.089808e-001 -1.411006e+000 2.000000e+000
         vertex -1.414214e+000 -5.000000e-001 2.000000e+000
         vertex -8.971354e-001 -1.202143e+000 2.000000e+000
      endloop
   endfacet
   facet normal 0.000000e+000 0.000000e+000 1.000000e+000
      outer loop
         vertex -8.971354e-001 -1.202143e+000 2.000000e+000
         vertex -1.414214e+000 -5.000000e-001 2.000000e+000
         vertex -1.207822e+000 -8.894747e-001 2.000000e+000
      endloop
   endfacet
   facet normal 0.000000e+000 0.000000e+000 1.000000e+000
      outer loop
         vertex 1.483721e+000 2.203905e-001 2.000000e+000
         vertex 5.000000e-001 1.836909e-016 2.000000e+000
         vertex 1.483721e+000 -2.203905e-001 2.000000e+000
      endloop
   endfacet
   facet normal 0.000000e+000 0.000000e+000 1.000000e+000
      outer loop
         vertex 1.483721e+000 -2.203905e-001 2.000000e+000
         vertex 5.000000e-001 1.836909e-016 2.000000e+000
         vertex 4.330127e-001 -2.500000e-001 2.000000e+000
      endloop
   endfacet
   facet normal 0.000000e+000 0.000000e+000 1.000000e+000
      outer loop
         vertex 1.483721e+000 -2.203905e-001 2.000000e+000
         vertex 4.330127e-001 -2.500000e-001 2.000000e+000
         vertex 1.355601e+000 -6.421407e-001 2.000000e+000
      endloop
   endfacet
   facet normal 0.000000e+000 0.000000e+000 1.000000e+000
      outer loop
         vertex 1.355601e+000 -6.421407e-001 2.000000e+000
         vertex 4.330127e-001 -2.500000e-001 2.000000e+000
         vertex 1.110425e+000 -1.008442e+000 2.000000e+000
      endloop
   endfacet
   facet normal 0.000000e+000 0.000000e+000 1.000000e+000
      outer loop
         vertex 1.110425e+000 -1.008442e+000 2.000000e+000
         vertex 4.330127e-001 -2.500000e-001 2.000000e+000
         vertex 2.500000e-001 -4.330127e-001 2.000000e+000
      endloop
   endfacet
   facet normal 0.000000e+000 0.000000e+000 1.000000e+000
      outer loop
         vertex 1.110425e+000 -1.008442e+000 2.000000e+000
         vertex 2.500000e-001 -4.330127e-001 2.000000e+000
         vertex 7.693641e-001 -1.287664e+000 2.000000e+000
      endloop
   endfacet
   facet normal 0.000000e+000 0.000000e+000 1.000000e+000
      outer loop
         vertex 7.693641e-001 -1.287664e+000 2.000000e+000
         vertex 2.500000e-001 -4.330127e-001 2.000000e+000
         vertex 3.618680e-001 -1.455696e+000 2.000000e+000
      endloop
   endfacet
   facet normal 0.000000e+000 0.000000e+000 1.000000e+000
      outer loop
         vertex 3.618680e-001 -1.455696e+000 2.000000e+000
         vertex 2.500000e-001 -4.330127e-001 2.000000e+000
         vertex 5.359347e-016 -5.000000e-001 2.000000e+000
      endloop
   endfacet
   facet normal 0.000000e+000 0.000000e+000 1.000000e+000
      outer loop
         vertex 3.618680e-001 -1.455696e+000 2.000000e+000
         vertex 5.359347e-016 -5.000000e-001 2.000000e+000
         vertex -7.687549e-002 -1.498029e+000 2.000000e+000
      endloop
   endfacet
   facet normal 0.000000e+000 0.000000e+000 1.000000e+000
      outer loop
         vertex -7.687549e-002 -1.498029e+000 2.000000e+000
         vertex 5.359347e-016 -5.000000e-001 2.000000e+000
         vertex -2.500000e-001 -4.330127e-001 2.000000e+000
      endloop
   endfacet
   facet normal 0.000000e+000 0.000000e+000 1.000000e+000
      outer loop
         vertex -7.687549e-002 -1.498029e+000 2.000000e+000
         vertex -2.500000e-001 -4.330127e-001 2.000000e+000
         vertex -1.414214e+000 5.000000e-001 2.000000e+000
      endloop
   endfacet
   facet normal 0.000000e+000 0.000000e+000 1.000000e+000
      outer loop
         vertex -1.416375e-016 5.000000e-001 2.000000e+000
         vertex -5.089808e-001 1.411006e+000 2.000000e+000
         vertex -2.500000e-001 4.330127e-001 2.000000e+000
      endloop
   endfacet
   facet normal 0.000000e+000 0.000000e+000 1.000000e+000
      outer loop
         vertex -2.500000e-001 4.330127e-001 2.000000e+000
         vertex -5.089808e-001 1.411006e+000 2.000000e+000
         vertex -8.971354e-001 1.202143e+000 2.000000e+000
      endloop
   endfacet
   facet normal 0.000000e+000 0.000000e+000 1.000000e+000
      outer loop
         vertex -2.500000e-001 4.330127e-001 2.000000e+000
         vertex -8.971354e-001 1.202143e+000 2.000000e+000
         vertex -4.330127e-001 2.500000e-001 2.000000e+000
      endloop
   endfacet
   facet normal 0.000000e+000 0.000000e+000 1.000000e+000
      outer loop
         vertex -4.330127e-001 2.500000e-001 2.000000e+000
         vertex -8.971354e-001 1.202143e+000 2.000000e+000
         vertex -1.207822e+000 8.894747e-001 2.000000e+000
      endloop
   endfacet
   facet normal 0.000000e+000 0.000000e+000 1.000000e+000
      outer loop
         vertex -4.330127e-001 2.500000e-001 2.000000e+000
         vertex -1.207822e+000 8.894747e-001 2.000000e+000
         vertex -5.000000e-001 0.000000e+000 2.000000e+000
      endloop
   endfacet
   facet normal 0.000000e+000 0.000000e+000 1.000000e+000
      outer loop
         vertex -5.000000e-001 0.000000e+000 2.000000e+000
         vertex -1.207822e+000 8.894747e-001 2.000000e+000
         vertex -1.414214e+000 5.000000e-001 2.000000e+000
      endloop
   endfacet
   facet normal 0.000000e+000 0.000000e+000 1.000000e+000
      outer loop
         vertex -5.000000e-001 0.000000e+000 2.000000e+000
         vertex -1.414214e+000 5.000000e-001 2.000000e+000
         vertex -4.330127e-001 -2.500000e-001 2.000000e+000
      endloop
   endfacet
   facet normal 0.000000e+000 0.000000e+000 1.000000e+000
      outer loop
         vertex -4.330127e-001 -2.500000e-001 2.000000e+000
         vertex -1.414214e+000 5.000000e-001 2.000000e+000
         vertex -2.500000e-001 -4.330127e-001 2.000000e+000
      endloop
   endfacet
   facet normal 0.000000e+000 0.000000e+000 1.000000e+000
      outer loop
         vertex 2.500000e-001 4.330127e-001 2.000000e+000
         vertex 3.618680e-001 1.455696e+000 2.000000e+000
         vertex -1.416375e-016 5.000000e-001 2.000000e+000
      endloop
   endfacet
   facet normal 0.000000e+000 0.000000e+000 1.000000e+000
      outer loop
         vertex -1.416375e-016 5.000000e-001 2.000000e+000
         vertex 3.618680e-001 1.455696e+000 2.000000e+000
         vertex -7.687549e-002 1.498029e+000 2.000000e+000
      endloop
   endfacet
   facet normal 0.000000e+000 0.000000e+000 1.000000e+000
      outer loop
         vertex -1.416375e-016 5.000000e-001 2.000000e+000
         vertex -7.687549e-002 1.498029e+000 2.000000e+000
         vertex -5.089808e-001 1.411006e+000 2.000000e+000
      endloop
   endfacet
   facet normal 0.000000e+000 0.000000e+000 1.000000e+000
      outer loop
         vertex 1.483721e+000 2.203905e-001 2.000000e+000
         vertex 1.355601e+000 6.421407e-001 2.000000e+000
         vertex 4.330127e-001 2.500000e-001 2.000000e+000
      endloop
   endfacet
   facet normal 0.000000e+000 0.000000e+000 1.000000e+000
      outer loop
         vertex 4.330127e-001 2.500000e-001 2.000000e+000
         vertex 1.355601e+000 6.421407e-001 2.000000e+000
         vertex 1.110425e+000 1.008442e+000 2.000000e+000
      endloop
   endfacet
   facet normal 0.000000e+000 0.000000e+000 1.000000e+000
      outer loop
         vertex 4.330127e-001 2.500000e-001 2.000000e+000
         vertex 1.110425e+000 1.008442e+000 2.000000e+000
         vertex 2.500000e-001 4.330127e-001 2.000000e+000
      endloop
   endfacet
   facet normal 0.000000e+000 0.000000e+000 1.000000e+000
      outer loop
         vertex 2.500000e-001 4.330127e-001 2.000000e+000
         vertex 1.110425e+000 1.008442e+000 2.000000e+000
         vertex 7.693641e-001 1.287664e+000 2.000000e+000
      endloop
   endfacet
   facet normal 0.000000e+000 0.000000e+000 1.000000e+000
      outer loop
         vertex 2.500000e-001 4.330127e-001 2.000000e+000
         vertex 7.693641e-001 1.287664e+000 2.000000e+000
         vertex 3.618680e-001 1.455696e+000 2.000000e+000
      endloop
   endfacet
   facet normal 0.000000e+000 0.000000e+000 -1.000000e+000
      outer loop
         vertex -1.416375e-016 5.000000e-001 -2.000000e+000
         vertex -2.500000e-001 4.330127e-001 -2.000000e+000
         vertex -1.414214e+000 5.000000e-001 -2.000000e+000
      endloop
   endfacet
   facet normal 0.000000e+000 0.000000e+000 -1.000000e+000
      outer loop
         vertex -1.414214e+000 5.000000e-001 -2.000000e+000
         vertex -2.500000e-001 4.330127e-001 -2.000000e+000
         vertex -4.330127e-001 2.500000e-001 -2.000000e+000
      endloop
   endfacet
   facet normal 0.000000e+000 0.000000e+000 -1.000000e+000
      outer loop
         vertex -4.330127e-001 2.500000e-001 -2.000000e+000
         vertex -5.000000e-001 0.000000e+000 -2.000000e+000
         vertex -1.414214e+000 5.000000e-001 -2.000000e+000
      endloop
   endfacet
   facet normal 0.000000e+000 0.000000e+000 -1.000000e+000
      outer loop
         vertex -1.414214e+000 5.000000e-001 -2.000000e+000
         vertex -5.000000e-001 0.000000e+000 -2.000000e+000
         vertex -2.000000e+000 -5.000000e-001 -2.000000e+000
      endloop
   endfacet
   facet normal 0.000000e+000 0.000000e+000 -1.000000e+000
      outer loop
         vertex -1.414214e+000 5.000000e-001 -2.000000e+000
         vertex -2.000000e+000 -5.000000e-001 -2.000000e+000
         vertex -2.000000e+000 5.000000e-001 -2.000000e+000
      endloop
   endfacet
   facet normal 0.000000e+000 0.000000e+000 -1.000000e+000
      outer loop
         vertex 5.359347e-016 -5.000000e-001 -2.000000e+000
         vertex -5.089808e-001 -1.411006e+000 -2.000000e+000
         vertex -2.500000e-001 -4.330127e-001 -2.000000e+000
      endloop
   endfacet
   facet normal 0.000000e+000 0.000000e+000 -1.000000e+000
      outer loop
         vertex -2.500000e-001 -4.330127e-001 -2.000000e+000
         vertex -5.089808e-001 -1.411006e+000 -2.000000e+000
         vertex -8.971354e-001 -1.202143e+000 -2.000000e+000
      endloop
   endfacet
   facet normal 0.000000e+000 0.000000e+000 -1.000000e+000
      outer loop
         vertex -2.500000e-001 -4.330127e-001 -2.000000e+000
         vertex -8.971354e-001 -1.202143e+000 -2.000000e+000
         vertex -4.330127e-001 -2.500000e-001 -2.000000e+000
      endloop
   endfacet
   facet normal 0.000000e+000 0.000000e+000 -1.000000e+000
      outer loop
         vertex -4.330127e-001 -2.500000e-001 -2.000000e+000
         vertex -8.971354e-001 -1.202143e+000 -2.000000e+000
         vertex -1.207822e+000 -8.894747e-001 -2.000000e+000
      endloop
   endfacet
   facet normal 0.000000e+000 0.000000e+000 -1.000000e+000
      outer loop
         vertex -4.330127e-001 -2.500000e-001 -2.000000e+000
         vertex -1.207822e+000 -8.894747e-001 -2.000000e+000
         vertex -5.000000e-001 0.000000e+000 -2.000000e+000
      endloop
   endfacet
   facet normal 0.000000e+000 0.000000e+000 -1.000000e+000
      outer loop
         vertex -5.000000e-001 0.000000e+000 -2.000000e+000
         vertex -1.207822e+000 -8.894747e-001 -2.000000e+000
         vertex -1.414214e+000 -5.000000e-001 -2.000000e+000
      endloop
   endfacet
   facet normal 0.000000e+000 0.000000e+000 -1.000000e+000
      outer loop
         vertex -5.000000e-001 0.000000e+000 -2.000000e+000
         vertex -1.414214e+000 -5.000000e-001 -2.000000e+000
         vertex -2.000000e+000 -5.000000e-001 -2.000000e+000
      endloop
   endfacet
   facet normal 0.000000e+000 0.000000e+000 -1.000000e+000
      outer loop
         vertex 2.500000e-001 -4.330127e-001 -2.000000e+000
         vertex 3.618680e-001 -1.455696e+000 -2.000000e+000
         vertex 5.359347e-016 -5.000000e-001 -2.000000e+000
      endloop
   endfacet
   facet normal 0.000000e+000 0.000000e+000 -1.000000e+000
      outer loop
         vertex 5.359347e-016 -5.000000e-001 -2.000000e+000
         vertex 3.618680e-001 -1.455696e+000 -2.000000e+000
         vertex -7.687549e-002 -1.498029e+000 -2.000000e+000
      endloop
   endfacet
   facet normal 0.000000e+000 0.000000e+000 -1.000000e+000
      outer loop
         vertex 5.359347e-016 -5.000000e-001 -2.000000e+000
         vertex -7.687549e-002 -1.498029e+000 -2.000000e+000
         vertex -5.089808e-001 -1.411006e+000 -2.000000e+000
      endloop
   endfacet
   facet normal 0.000000e+000 0.000000e+000 -1.000000e+000
      outer loop
         vertex 2.500000e-001 4.330127e-001 -2.000000e+000
         vertex 1.110425e+000 1.008442e+000 -2.000000e+000
         vertex 4.330127e-001 2.500000e-001 -2.000000e+000
      endloop
   endfacet
   facet normal 0.000000e+000 0.000000e+000 -1.000000e+000
      outer loop
         vertex 4.330127e-001 2.500000e-001 -2.000000e+000
         vertex 1.110425e+000 1.008442e+000 -2.000000e+000
         vertex 1.355601e+000 6.421407e-001 -2.000000e+000
      endloop
   endfacet
   facet normal 0.000000e+000 0.000000e+000 -1.000000e+000
      outer loop
         vertex 4.330127e-001 2.500000e-001 -2.000000e+000
         vertex 1.355601e+000 6.421407e-001 -2.000000e+000
         vertex 5.000000e-001 6.123032e-017 -2.000000e+000
      endloop
   endfacet
   facet normal 0.000000e+000 0.000000e+000 -1.000000e+000
      outer loop
         vertex -1.207822e+000 8.894747e-001 -2.000000e+000
         vertex -8.971354e-001 1.202143e+000 -2.000000e+000
         vertex -1.414214e+000 5.000000e-001 -2.000000e+000
      endloop
   endfacet
   facet normal 0.000000e+000 0.000000e+000 -1.000000e+000
      outer loop
         vertex -1.414214e+000 5.000000e-001 -2.000000e+000
         vertex -8.971354e-001 1.202143e+000 -2.000000e+000
         vertex -5.089808e-001 1.411006e+000 -2.000000e+000
      endloop
   endfacet
   facet normal 0.000000e+000 0.000000e+000 -1.000000e+000
      outer loop
         vertex -1.414214e+000 5.000000e-001 -2.000000e+000
         vertex -5.089808e-001 1.411006e+000 -2.000000e+000
         vertex -1.416375e-016 5.000000e-001 -2.000000e+000
      endloop
   endfacet
   facet normal 0.000000e+000 0.000000e+000 -1.000000e+000
      outer loop
         vertex -5.089808e-001 1.411006e+000 -2.000000e+000
         vertex -7.687549e-002 1.498029e+000 -2.000000e+000
         vertex -1.416375e-016 5.000000e-001 -2.000000e+000
      endloop
   endfacet
   facet normal 0.000000e+000 0.000000e+000 -1.000000e+000
      outer loop
         vertex -1.416375e-016 5.000000e-001 -2.000000e+000
         vertex -7.687549e-002 1.498029e+000 -2.000000e+000
         vertex 3.618680e-001 1.455696e+000 -2.000000e+000
      endloop
   endfacet
   facet normal 0.000000e+000 0.000000e+000 -1.000000e+000
      outer loop
         vertex -1.416375e-016 5.000000e-001 -2.000000e+000
         vertex 3.618680e-001 1.455696e+000 -2.000000e+000
         vertex 2.500000e-001 4.330127e-001 -2.000000e+000
      endloop
   endfacet
   facet normal 0.000000e+000 0.000000e+000 -1.000000e+000
      outer loop
         vertex 2.500000e-001 4.330127e-001 -2.000000e+000
         vertex 3.618680e-001 1.455696e+000 -2.000000e+000
         vertex 7.693641e-001 1.287664e+000 -2.000000e+000
      endloop
   endfacet
   facet normal 0.000000e+000 0.000000e+000 -1.000000e+000
      outer loop
         vertex 2.500000e-001 4.330127e-001 -2.000000e+000
         vertex 7.693641e-001 1.287664e+000 -2.000000e+000
         vertex 1.110425e+000 1.008442e+000 -2.000000e+000
      endloop
   endfacet
   facet normal 0.000000e+000 0.000000e+000 -1.000000e+000
      outer loop
         vertex 4.330127e-001 -2.500000e-001 -2.000000e+000
         vertex 1.110425e+000 -1.008442e+000 -2.000000e+000
         vertex 2.500000e-001 -4.330127e-001 -2.000000e+000
      endloop
   endfacet
   facet normal 0.000000e+000 0.000000e+000 -1.000000e+000
      outer loop
         vertex 2.500000e-001 -4.330127e-001 -2.000000e+000
         vertex 1.110425e+000 -1.008442e+000 -2.000000e+000
         vertex 7.693641e-001 -1.287664e+000 -2.000000e+000
      endloop
   endfacet
   facet normal 0.000000e+000 0.000000e+000 -1.000000e+000
      outer loop
         vertex 2.500000e-001 -4.330127e-001 -2.000000e+000
         vertex 7.693641e-001 -1.287664e+000 -2.000000e+000
         vertex 3.618680e-001 -1.455696e+000 -2.000000e+000
      endloop
   endfacet
   facet normal 0.000000e+000 0.000000e+000 -1.000000e+000
      outer loop
         vertex 1.355601e+000 6.421407e-001 -2.000000e+000
         vertex 1.483721e+000 2.203905e-001 -2.000000e+000
         vertex 5.000000e-001 6.123032e-017 -2.000000e+000
      endloop
   endfacet
   facet normal 0.000000e+000 0.000000e+000 -1.000000e+000
      outer loop
         vertex 5.000000e-001 6.123032e-017 -2.000000e+000
         vertex 1.483721e+000 2.203905e-001 -2.000000e+000
         vertex 1.483721e+000 -2.203905e-001 -2.000000e+000
      endloop
   endfacet
   facet normal 0.000000e+000 0.000000e+000 -1.000000e+000
      outer loop
         vertex 5.000000e-001 6.123032e-017 -2.000000e+000
         vertex 1.483721e+000 -2.203905e-001 -2.000000e+000
         vertex 4.330127e-001 -2.500000e-001 -2.000000e+000
      endloop
   endfacet
   facet normal 0.000000e+000 0.000000e+000 -1.000000e+000
      outer loop
         vertex 4.330127e-001 -2.500000e-001 -2.000000e+000
         vertex 1.483721e+000 -2.203905e-001 -2.000000e+000
         vertex 1.355601e+000 -6.421407e-001 -2.000000e+000
      endloop
   endfacet
   facet normal 0.000000e+000 0.000000e+000 -1.000000e+000
      outer loop
         vertex 4.330127e-001 -2.500000e-001 -2.000000e+000
         vertex 1.355601e+000 -6.421407e-001 -2.000000e+000
         vertex 1.110425e+000 -1.008442e+000 -2.000000e+000
      endloop
   endfacet
   facet normal -9.056759e-001 -4.239708e-001 0.000000e+000
      outer loop
         vertex -1.414214e+000 -5.000000e-001 2.000000e+000
         vertex -1.414214e+000 -5.000000e-001 1.000000e+000
         vertex -1.207822e+000 -8.894747e-001 1.000000e+000
      endloop
   endfacet
   facet normal -8.593647e-001 -5.113632e-001 0.000000e+000
      outer loop
         vertex -1.414214e+000 -5.000000e-001 2.000000e+000
         vertex -1.207822e+000 -8.894747e-001 1.000000e+000
         vertex -1.207822e+000 -8.894747e-001 2.000000e+000
      endloop
   endfacet
   facet normal -7.433398e-001 -6.689140e-001 0.000000e+000
      outer loop
         vertex -1.207822e+000 -8.894747e-001 2.000000e+000
         vertex -1.207822e+000 -8.894747e-001 1.000000e+000
         vertex -8.971354e-001 -1.202143e+000 1.000000e+000
      endloop
   endfacet
   facet normal -6.736262e-001 -7.390722e-001 0.000000e+000
      outer loop
         vertex -1.207822e+000 -8.894747e-001 2.000000e+000
         vertex -8.971354e-001 -1.202143e+000 1.000000e+000
         vertex -8.971354e-001 -1.202143e+000 2.000000e+000
      endloop
   endfacet
   facet normal -5.168163e-001 -8.560963e-001 0.000000e+000
      outer loop
         vertex -8.971354e-001 -1.202143e+000 2.000000e+000
         vertex -8.971354e-001 -1.202143e+000 1.000000e+000
         vertex -5.089808e-001 -1.411006e+000 1.000000e+000
      endloop
   endfacet
   facet normal -4.297200e-001 -9.029622e-001 0.000000e+000
      outer loop
         vertex -8.971354e-001 -1.202143e+000 2.000000e+000
         vertex -5.089808e-001 -1.411006e+000 1.000000e+000
         vertex -5.089808e-001 -1.411006e+000 2.000000e+000
      endloop
   endfacet
   facet normal -2.456656e-001 -9.693546e-001 0.000000e+000
      outer loop
         vertex -5.089808e-001 -1.411006e+000 2.000000e+000
         vertex -5.089808e-001 -1.411006e+000 1.000000e+000
         vertex -7.687549e-002 -1.498029e+000 1.000000e+000
      endloop
   endfacet
   facet normal -1.487074e-001 -9.888812e-001 0.000000e+000
      outer loop
         vertex -5.089808e-001 -1.411006e+000 2.000000e+000
         vertex -7.687549e-002 -1.498029e+000 1.000000e+000
         vertex -7.687549e-002 -1.498029e+000 2.000000e+000
      endloop
   endfacet
   facet normal 4.669844e-002 -9.989091e-001 0.000000e+000
      outer loop
         vertex -7.687549e-002 -1.498029e+000 2.000000e+000
         vertex -7.687549e-002 -1.498029e+000 1.000000e+000
         vertex 3.618680e-001 -1.455696e+000 1.000000e+000
      endloop
   endfacet
   facet normal 1.451461e-001 -9.894102e-001 0.000000e+000
      outer loop
         vertex -7.687549e-002 -1.498029e+000 2.000000e+000
         vertex 3.618680e-001 -1.455696e+000 1.000000e+000
         vertex 3.618680e-001 -1.455696e+000 2.000000e+000
      endloop
   endfacet
   facet normal 3.350300e-001 -9.422075e-001 0.000000e+000
      outer loop
         vertex 3.618680e-001 -1.455696e+000 2.000000e+000
         vertex 3.618680e-001 -1.455696e+000 1.000000e+000
         vertex 7.693641e-001 -1.287664e+000 1.000000e+000
      endloop
   endfacet
   facet normal 4.264663e-001 -9.045035e-001 0.000000e+000
      outer loop
         vertex 3.618680e-001 -1.455696e+000 2.000000e+000
         vertex 7.693641e-001 -1.287664e+000 1.000000e+000
         vertex 7.693641e-001 -1.287664e+000 2.000000e+000
      endloop
   endfacet
   facet normal 5.944317e-001 -8.041461e-001 0.000000e+000
      outer loop
         vertex 7.693641e-001 -1.287664e+000 2.000000e+000
         vertex 7.693641e-001 -1.287664e+000 1.000000e+000
         vertex 1.110425e+000 -1.008442e+000 1.000000e+000
      endloop
   endfacet
   facet normal 6.709609e-001 -7.414927e-001 0.000000e+000
      outer loop
         vertex 7.693641e-001 -1.287664e+000 2.000000e+000
         vertex 1.110425e+000 -1.008442e+000 1.000000e+000
         vertex 1.110425e+000 -1.008442e+000 2.000000e+000
      endloop
   endfacet
   facet normal 8.025041e-001 -5.966466e-001 0.000000e+000
      outer loop
         vertex 1.110425e+000 -1.008442e+000 2.000000e+000
         vertex 1.110425e+000 -1.008442e+000 1.000000e+000
         vertex 1.355601e+000 -6.421407e-001 1.000000e+000
      endloop
   endfacet
   facet normal 8.575180e-001 -5.144539e-001 0.000000e+000
      outer loop
         vertex 1.110425e+000 -1.008442e+000 2.000000e+000
         vertex 1.355601e+000 -6.421407e-001 1.000000e+000
         vertex 1.355601e+000 -6.421407e-001 2.000000e+000
      endloop
   endfacet
   facet normal 9.412801e-001 -3.376266e-001 0.000000e+000
      outer loop
         vertex 1.355601e+000 -6.421407e-001 2.000000e+000
         vertex 1.355601e+000 -6.421407e-001 1.000000e+000
         vertex 1.483721e+000 -2.203905e-001 1.000000e+000
      endloop
   endfacet
   facet normal 9.700283e-001 -2.429919e-001 0.000000e+000
      outer loop
         vertex 1.355601e+000 -6.421407e-001 2.000000e+000
         vertex 1.483721e+000 -2.203905e-001 1.000000e+000
         vertex 1.483721e+000 -2.203905e-001 2.000000e+000
      endloop
   endfacet
   facet normal 9.987765e-001 -4.945243e-002 0.000000e+000
      outer loop
         vertex 1.483721e+000 -2.203905e-001 2.000000e+000
         vertex 1.483721e+000 -2.203905e-001 1.000000e+000
         vertex 1.483721e+000 2.203905e-001 1.000000e+000
      endloop
   endfacet
   facet normal 9.987765e-001 4.945243e-002 0.000000e+000
      outer loop
         vertex 1.483721e+000 -2.203905e-001 2.000000e+000
         vertex 1.483721e+000 2.203905e-001 1.000000e+000
         vertex 1.483721e+000 2.203905e-001 2.000000e+000
      endloop
   endfacet
   facet normal 9.700283e-001 2.429919e-001 0.000000e+000
      outer loop
         vertex 1.483721e+000 2.203905e-001 2.000000e+000
         vertex 1.483721e+000 2.203905e-001 1.000000e+000
         vertex 1.355601e+000 6.421407e-001 1.000000e+000
      endloop
   endfacet
   facet normal 9.412801e-001 3.376266e-001 0.000000e+000
      outer loop
         vertex 1.483721e+000 2.203905e-001 2.000000e+000
         vertex 1.355601e+000 6.421407e-001 1.000000e+000
         vertex 1.355601e+000 6.421407e-001 2.000000e+000
      endloop
   endfacet
   facet normal 8.575180e-001 5.144539e-001 0.000000e+000
      outer loop
         vertex 1.355601e+000 6.421407e-001 2.000000e+000
         vertex 1.355601e+000 6.421407e-001 1.000000e+000
         vertex 1.110425e+000 1.008442e+000 1.000000e+000
      endloop
   endfacet
   facet normal 8.025041e-001 5.966466e-001 0.000000e+000
      outer loop
         vertex 1.355601e+000 6.421407e-001 2.000000e+000
         vertex 1.110425e+000 1.008442e+000 1.000000e+000
         vertex 1.110425e+000 1.008442e+000 2.000000e+000
      endloop
   endfacet
   facet normal 6.709609e-001 7.414927e-001 0.000000e+000
      outer loop
         vertex 1.110425e+000 1.008442e+000 2.000000e+000
         vertex 1.110425e+000 1.008442e+000 1.000000e+000
         vertex 7.693641e-001 1.287664e+000 1.000000e+000
      endloop
   endfacet
   facet normal 5.944317e-001 8.041461e-001 0.000000e+000
      outer loop
         vertex 1.110425e+000 1.008442e+000 2.000000e+000
         vertex 7.693641e-001 1.287664e+000 1.000000e+000
         vertex 7.693641e-001 1.287664e+000 2.000000e+000
      endloop
   endfacet
   facet normal 4.264663e-001 9.045035e-001 0.000000e+000
      outer loop
         vertex 7.693641e-001 1.287664e+000 2.000000e+000
         vertex 7.693641e-001 1.287664e+000 1.000000e+000
         vertex 3.618680e-001 1.455696e+000 1.000000e+000
      endloop
   endfacet
   facet normal 3.350300e-001 9.422075e-001 0.000000e+000
      outer loop
         vertex 7.693641e-001 1.287664e+000 2.000000e+000
         vertex 3.618680e-001 1.455696e+000 1.000000e+000
         vertex 3.618680e-001 1.455696e+000 2.000000e+000
      endloop
   endfacet
   facet normal 1.451461e-001 9.894102e-001 0.000000e+000
      outer loop
         vertex 3.618680e-001 1.455696e+000 2.000000e+000
         vertex 3.618680e-001 1.455696e+000 1.000000e+000
         vertex -7.687549e-002 1.498029e+000 1.000000e+000
      endloop
   endfacet
   facet normal 4.669844e-002 9.989091e-001 0.000000e+000
      outer loop
         vertex 3.618680e-001 1.455696e+000 2.000000e+000
         vertex -7.687549e-002 1.498029e+000 1.000000e+000
         vertex -7.687549e-002 1.498029e+000 2.000000e+000
      endloop
   endfacet
   facet normal -1.487074e-001 9.888812e-001 0.000000e+000
      outer loop
         vertex -7.687549e-002 1.498029e+000 2.000000e+000
         vertex -7.687549e-002 1.498029e+000 1.000000e+000
         vertex -5.089808e-001 1.411006e+000 1.000000e+000
      endloop
   endfacet
   facet normal -2.456656e-001 9.693546e-001 0.000000e+000
      outer loop
         vertex -7.687549e-002 1.498029e+000 2.000000e+000
         vertex -5.089808e-001 1.411006e+000 1.000000e+000
         vertex -5.089808e-001 1.411006e+000 2.000000e+000
      endloop
   endfacet
   facet normal -4.297200e-001 9.029622e-001 0.000000e+000
      outer loop
         vertex -5.089808e-001 1.411006e+000 2.000000e+000
         vertex -5.089808e-001 1.411006e+000 1.000000e+000
         vertex -8.971354e-001 1.202143e+000 1.000000e+000
      endloop
   endfacet
   facet normal -5.168163e-001 8.560963e-001 0.000000e+000
      outer loop
         vertex -5.089808e-001 1.411006e+000 2.000000e+000
         vertex -8.971354e-001 1.202143e+000 1.000000e+000
         vertex -8.971354e-001 1.202143e+000 2.000000e+000
      endloop
   endfacet
   facet normal -6.736262e-001 7.390722e-001 0.000000e+000
      outer loop
         vertex -8.971354e-001 1.202143e+000 2.000000e+000
         vertex -8.971354e-001 1.202143e+000 1.000000e+000
         vertex -1.207822e+000 8.894747e-001 1.000000e+000
      endloop
   endfacet
   facet normal -7.433398e-001 6.689140e-001 0.000000e+000
      outer loop
         vertex -8.971354e-001 1.202143e+000 2.000000e+000
         vertex -1.207822e+000 8.894747e-001 1.000000e+000
         vertex -1.207822e+000 8.894747e-001 2.000000e+000
      endloop
   endfacet
   facet normal -8.593647e-001 5.113632e-001 0.000000e+000
      outer loop
         vertex -1.207822e+000 8.894747e-001 2.000000e+000
         vertex -1.207822e+000 8.894747e-001 1.000000e+000
         vertex -1.414214e+000 5.000000e-001 1.000000e+000
      endloop
   endfacet
   facet normal -9.056759e-001 4.239708e-001 0.000000e+000
      outer loop
         vertex -1.207822e+000 8.894747e-001 2.000000e+000
         vertex -1.414214e+000 5.000000e-001 1.000000e+000
         vertex -1.414214e+000 5.000000e-001 2.000000e+000
      endloop
   endfacet
   facet normal -1.341738e-016 1.000000e+000 0.000000e+000
      outer loop
         vertex -1.414214e+000 5.000000e-001 -1.000000e+000
         vertex -1.414214e+000 5.000000e-001 -2.000000e+000
         vertex -1.500000e+000 5.000000e-001 -1.000000e+000
      endloop
   endfacet
   facet normal -1.341738e-016 1.000000e+000 0.000000e+000
      outer loop
         vertex -1.500000e+000 5.000000e-001 -1.000000e+000
         vertex -1.414214e+000 5.000000e-001 -2.000000e+000
         vertex -2.000000e+000 5.000000e-001 -2.000000e+000
      endloop
   endfacet
   facet normal -1.341738e-016 1.000000e+000 0.000000e+000
      outer loop
         vertex -1.500000e+000 5.000000e-001 -1.000000e+000
         vertex -2.000000e+000 5.000000e-001 -2.000000e+000
         vertex -1.500000e+000 5.000000e-001 1.000000e+000
      endloop
   endfacet
   facet normal -1.341738e-016 1.000000e+000 0.000000e+000
      outer loop
         vertex -1.500000e+000 5.000000e-001 1.000000e+000
         vertex -2.000000e+000 5.000000e-001 -2.000000e+000
         vertex -2.000000e+000 5.000000e-001 -5.000000e-001
      endloop
   endfacet
   facet normal -1.341738e-016 1.000000e+000 0.000000e+000
      outer loop
         vertex -4.000000e+000 5.000000e-001 -5.000000e-001
         vertex -4.000000e+000 5.000000e-001 5.000000e-001
         vertex -2.000000e+000 5.000000e-001 -5.000000e-001
      endloop
   endfacet
   facet normal -1.341738e-016 1.000000e+000 0.000000e+000
      outer loop
         vertex -2.000000e+000 5.000000e-001 -5.000000e-001
         vertex -4.000000e+000 5.000000e-001 5.000000e-001
         vertex -2.000000e+000 5.000000e-001 5.000000e-001
      endloop
   endfacet
   facet normal -1.341738e-016 1.000000e+000 0.000000e+000
      outer loop
         vertex -2.000000e+000 5.000000e-001 -5.000000e-001
         vertex -2.000000e+000 5.000000e-001 5.000000e-001
         vertex -1.500000e+000 5.000000e-001 1.000000e+000
      endloop
   endfacet
   facet normal -1.341738e-016 1.000000e+000 0.000000e+000
      outer loop
         vertex -1.500000e+000 5.000000e-001 1.000000e+000
         vertex -2.000000e+000 5.000000e-001 5.000000e-001
         vertex -2.000000e+000 5.000000e-001 2.000000e+000
      endloop
   endfacet
   facet normal -1.341738e-016 1.000000e+000 0.000000e+000
      outer loop
         vertex -1.500000e+000 5.000000e-001 1.000000e+000
         vertex -2.000000e+000 5.000000e-001 2.000000e+000
         vertex -1.414214e+000 5.000000e-001 1.000000e+000
      endloop
   endfacet
   facet normal -1.341738e-016 1.000000e+000 0.000000e+000
      outer loop
         vertex -1.414214e+000 5.000000e-001 1.000000e+000
         vertex -2.000000e+000 5.000000e-001 2.000000e+000
         vertex -1.414214e+000 5.000000e-001 2.000000e+000
      endloop
   endfacet
   facet normal -1.341738e-016 -1.000000e+000 0.000000e+000
      outer loop
         vertex -1.414214e+000 -5.000000e-001 1.000000e+000
         vertex -1.414214e+000 -5.000000e-001 2.000000e+000
         vertex -1.500000e+000 -5.000000e-001 1.000000e+000
      endloop
   endfacet
   facet normal -1.341738e-016 -1.000000e+000 0.000000e+000
      outer loop
         vertex -1.500000e+000 -5.000000e-001 1.000000e+000
         vertex -1.414214e+000 -5.000000e-001 2.000000e+000
         vertex -2.000000e+000 -5.000000e-001 2.000000e+000
      endloop
   endfacet
   facet normal -1.341738e-016 -1.000000e+000 0.000000e+000
      outer loop
         vertex -1.500000e+000 -5.000000e-001 1.000000e+000
         vertex -2.000000e+000 -5.000000e-001 2.000000e+000
         vertex -1.500000e+000 -5.000000e-001 -1.000000e+000
      endloop
   endfacet
   facet normal -1.341738e-016 -1.000000e+000 0.000000e+000
      outer loop
         vertex -1.500000e+000 -5.000000e-001 -1.000000e+000
         vertex -2.000000e+000 -5.000000e-001 2.000000e+000
         vertex -2.000000e+000 -5.000000e-001 5.000000e-001
      endloop
   endfacet
   facet normal -1.341738e-016 -1.000000e+000 0.000000e+000
      outer loop
         vertex -1.414214e+000 -5.000000e-001 -2.000000e+000
         vertex -1.414214e+000 -5.000000e-001 -1.000000e+000
         vertex -2.000000e+000 -5.000000e-001 -2.000000e+000
      endloop
   endfacet
   facet normal -1.341738e-016 -1.000000e+000 0.000000e+000
      outer loop
         vertex -2.000000e+000 -5.000000e-001 -2.000000e+000
         vertex -1.414214e+000 -5.000000e-001 -1.000000e+000
         vertex -1.500000e+000 -5.000000e-001 -1.000000e+000
      endloop
   endfacet
   facet normal -1.341738e-016 -1.000000e+000 0.000000e+000
      outer loop
         vertex -2.000000e+000 -5.000000e-001 -2.000000e+000
         vertex -1.500000e+000 -5.000000e-001 -1.000000e+000
         vertex -2.000000e+000 -5.000000e-001 -5.000000e-001
      endloop
   endfacet
   facet normal -1.341738e-016 -1.000000e+000 0.000000e+000
      outer loop
         vertex -2.000000e+000 -5.000000e-001 -5.000000e-001
         vertex -1.500000e+000 -5.000000e-001 -1.000000e+000
         vertex -2.000000e+000 -5.000000e-001 5.000000e-001
      endloop
   endfacet
   facet normal -1.341738e-016 -1.000000e+000 0.000000e+000
      outer loop
         vertex -2.000000e+000 -5.000000e-001 -5.000000e-001
         vertex -2.000000e+000 -5.000000e-001 5.000000e-001
         vertex -4.000000e+000 -5.000000e-001 -5.000000e-001
      endloop
   endfacet
   facet normal -1.341738e-016 -1.000000e+000 0.000000e+000
      outer loop
         vertex -4.000000e+000 -5.000000e-001 -5.000000e-001
         vertex -2.000000e+000 -5.000000e-001 5.000000e-001
         vertex -4.000000e+000 -5.000000e-001 5.000000e-001
      endloop
   endfacet
   facet normal 9.851211e-001 1.718619e-001 0.000000e+000
      outer loop
         vertex -4.330127e-001 -2.500000e-001 2.000000e+000
         vertex -5.000000e-001 -1.224606e-016 1.000000e+000
         vertex -5.000000e-001 -1.224606e-016 2.000000e+000
      endloop
   endfacet
   facet normal 9.851211e-001 -1.718619e-001 0.000000e+000
      outer loop
         vertex -5.000000e-001 -1.224606e-016 2.000000e+000
         vertex -5.000000e-001 -1.224606e-016 1.000000e+000
         vertex -4.330127e-001 2.500000e-001 1.000000e+000
      endloop
   endfacet
   facet normal 9.390708e-001 -3.437238e-001 0.000000e+000
      outer loop
         vertex -5.000000e-001 -1.224606e-016 2.000000e+000
         vertex -4.330127e-001 2.500000e-001 1.000000e+000
         vertex -4.330127e-001 2.500000e-001 2.000000e+000
      endloop
   endfacet
   facet normal 7.672089e-001 -6.413973e-001 0.000000e+000
      outer loop
         vertex -4.330127e-001 2.500000e-001 2.000000e+000
         vertex -4.330127e-001 2.500000e-001 1.000000e+000
         vertex -2.500000e-001 4.330127e-001 1.000000e+000
      endloop
   endfacet
   facet normal 6.413973e-001 -7.672089e-001 0.000000e+000
      outer loop
         vertex -4.330127e-001 2.500000e-001 2.000000e+000
         vertex -2.500000e-001 4.330127e-001 1.000000e+000
         vertex -2.500000e-001 4.330127e-001 2.000000e+000
      endloop
   endfacet
   facet normal 3.437238e-001 -9.390708e-001 0.000000e+000
      outer loop
         vertex -2.500000e-001 4.330127e-001 2.000000e+000
         vertex -2.500000e-001 4.330127e-001 1.000000e+000
         vertex -1.416375e-016 5.000000e-001 1.000000e+000
      endloop
   endfacet
   facet normal 1.718619e-001 -9.851211e-001 0.000000e+000
      outer loop
         vertex -2.500000e-001 4.330127e-001 2.000000e+000
         vertex -1.416375e-016 5.000000e-001 1.000000e+000
         vertex -1.416375e-016 5.000000e-001 2.000000e+000
      endloop
   endfacet
   facet normal -1.718619e-001 -9.851211e-001 0.000000e+000
      outer loop
         vertex -1.416375e-016 5.000000e-001 2.000000e+000
         vertex -1.416375e-016 5.000000e-001 1.000000e+000
         vertex 2.500000e-001 4.330127e-001 1.000000e+000
      endloop
   endfacet
   facet normal -3.437238e-001 -9.390708e-001 0.000000e+000
      outer loop
         vertex -1.416375e-016 5.000000e-001 2.000000e+000
         vertex 2.500000e-001 4.330127e-001 1.000000e+000
         vertex 2.500000e-001 4.330127e-001 2.000000e+000
      endloop
   endfacet
   facet normal -6.413973e-001 -7.672089e-001 0.000000e+000
      outer loop
         vertex 2.500000e-001 4.330127e-001 2.000000e+000
         vertex 2.500000e-001 4.330127e-001 1.000000e+000
         vertex 4.330127e-001 2.500000e-001 1.000000e+000
      endloop
   endfacet
   facet normal -7.672089e-001 -6.413973e-001 0.000000e+000
      outer loop
         vertex 2.500000e-001 4.330127e-001 2.000000e+000
         vertex 4.330127e-001 2.500000e-001 1.000000e+000
         vertex 4.330127e-001 2.500000e-001 2.000000e+000
      endloop
   endfacet
   facet normal -9.390708e-001 -3.437238e-001 0.000000e+000
      outer loop
         vertex 4.330127e-001 2.500000e-001 2.000000e+000
         vertex 4.330127e-001 2.500000e-001 1.000000e+000
         vertex 5.000000e-001 2.832749e-016 1.000000e+000
      endloop
   endfacet
   facet normal -9.851211e-001 -1.718619e-001 0.000000e+000
      outer loop
         vertex 4.330127e-001 2.500000e-001 2.000000e+000
         vertex 5.000000e-001 2.832749e-016 1.000000e+000
         vertex 5.000000e-001 2.832749e-016 2.000000e+000
      endloop
   endfacet
   facet normal -9.851211e-001 1.718619e-001 0.000000e+000
      outer loop
         vertex 5.000000e-001 2.832749e-016 2.000000e+000
         vertex 5.000000e-001 2.832749e-016 1.000000e+000
         vertex 4.330127e-001 -2.500000e-001 1.000000e+000
      endloop
   endfacet
   facet normal -9.390708e-001 3.437238e-001 0.000000e+000
      outer loop
         vertex 5.000000e-001 2.832749e-016 2.000000e+000
         vertex 4.330127e-001 -2.500000e-001 1.000000e+000
         vertex 4.330127e-001 -2.500000e-001 2.000000e+000
      endloop
   endfacet
   facet normal -7.672089e-001 6.413973e-001 0.000000e+000
      outer loop
         vertex 4.330127e-001 -2.500000e-001 2.000000e+000
         vertex 4.330127e-001 -2.500000e-001 1.000000e+000
         vertex 2.500000e-001 -4.330127e-001 1.000000e+000
      endloop
   endfacet
   facet normal -6.413973e-001 7.672089e-001 0.000000e+000
      outer loop
         vertex 4.330127e-001 -2.500000e-001 2.000000e+000
         vertex 2.500000e-001 -4.330127e-001 1.000000e+000
         vertex 2.500000e-001 -4.330127e-001 2.000000e+000
      endloop
   endfacet
   facet normal -3.437238e-001 9.390708e-001 0.000000e+000
      outer loop
         vertex 2.500000e-001 -4.330127e-001 2.000000e+000
         vertex 2.500000e-001 -4.330127e-001 1.000000e+000
         vertex 5.359347e-016 -5.000000e-001 1.000000e+000
      endloop
   endfacet
   facet normal -1.718619e-001 9.851211e-001 0.000000e+000
      outer loop
         vertex 2.500000e-001 -4.330127e-001 2.000000e+000
         vertex 5.359347e-016 -5.000000e-001 1.000000e+000
         vertex 5.359347e-016 -5.000000e-001 2.000000e+000
      endloop
   endfacet
   facet normal 1.718619e-001 9.851211e-001 0.000000e+000
      outer loop
         vertex 5.359347e-016 -5.000000e-001 2.000000e+000
         vertex 5.359347e-016 -5.000000e-001 1.000000e+000
         vertex -2.500000e-001 -4.330127e-001 1.000000e+000
      endloop
   endfacet
   facet normal 3.437238e-001 9.390708e-001 0.000000e+000
      outer loop
         vertex 5.359347e-016 -5.000000e-001 2.000000e+000
         vertex -2.500000e-001 -4.330127e-001 1.000000e+000
         vertex -2.500000e-001 -4.330127e-001 2.000000e+000
      endloop
   endfacet
   facet normal 6.413973e-001 7.672089e-001 0.000000e+000
      outer loop
         vertex -2.500000e-001 -4.330127e-001 2.000000e+000
         vertex -2.500000e-001 -4.330127e-001 1.000000e+000
         vertex -4.330127e-001 -2.500000e-001 1.000000e+000
      endloop
   endfacet
   facet normal 7.672089e-001 6.413973e-001 0.000000e+000
      outer loop
         vertex -2.500000e-001 -4.330127e-001 2.000000e+000
         vertex -4.330127e-001 -2.500000e-001 1.000000e+000
         vertex -4.330127e-001 -2.500000e-001 2.000000e+000
      endloop
   endfacet
   facet normal 9.390708e-001 3.437238e-001 0.000000e+000
      outer loop
         vertex -4.330127e-001 -2.500000e-001 2.000000e+000
         vertex -4.330127e-001 -2.500000e-001 1.000000e+000
         vertex -5.000000e-001 -1.224606e-016 1.000000e+000
      endloop
   endfacet
   facet normal 1.000000e+000 0.000000e+000 0.000000e+000
      outer loop
         vertex -4.000000e+000 -5.000000e-001 5.000000e-001
         vertex -4.000000e+000 -5.000000e+000 4.000000e+000
         vertex -4.000000e+000 -5.000000e-001 -5.000000e-001
      endloop
   endfacet
   facet normal 1.000000e+000 0.000000e+000 0.000000e+000
      outer loop
         vertex -4.000000e+000 -5.000000e-001 -5.000000e-001
         vertex -4.000000e+000 -5.000000e+000 4.000000e+000
         vertex -4.000000e+000 -5.000000e+000 -4.000000e+000
      endloop
   endfacet
   facet normal 1.000000e+000 0.000000e+000 0.000000e+000
      outer loop
         vertex -4.000000e+000 -5.000000e-001 -5.000000e-001
         vertex -4.000000e+000 -5.000000e+000 -4.000000e+000
         vertex -4.000000e+000 5.000000e-001 -5.000000e-001
      endloop
   endfacet
   facet normal 1.000000e+000 0.000000e+000 0.000000e+000
      outer loop
         vertex -4.000000e+000 5.000000e-001 -5.000000e-001
         vertex -4.000000e+000 -5.000000e+000 -4.000000e+000
         vertex -4.000000e+000 5.000000e+000 -4.000000e+000
      endloop
   endfacet
   facet normal 1.000000e+000 0.000000e+000 0.000000e+000
      outer loop
         vertex -4.000000e+000 5.000000e-001 -5.000000e-001
         vertex -4.000000e+000 5.000000e+000 -4.000000e+000
         vertex -4.000000e+000 5.000000e-001 5.000000e-001
      endloop
   endfacet
   facet normal 1.000000e+000 0.000000e+000 0.000000e+000
      outer loop
         vertex -4.000000e+000 5.000000e-001 5.000000e-001
         vertex -4.000000e+000 5.000000e+000 -4.000000e+000
         vertex -4.000000e+000 5.000000e+000 4.000000e+000
      endloop
   endfacet
   facet normal 1.000000e+000 0.000000e+000 0.000000e+000
      outer loop
         vertex -4.000000e+000 5.000000e-001 5.000000e-001
         vertex -4.000000e+000 5.000000e+000 4.000000e+000
         vertex -4.000000e+000 -5.000000e-001 5.000000e-001
      endloop
   endfacet
   facet normal 1.000000e+000 0.000000e+000 0.000000e+000
      outer loop
         vertex -4.000000e+000 -5.000000e-001 5.000000e-001
         vertex -4.000000e+000 5.000000e+000 4.000000e+000
         vertex -4.000000e+000 -5.000000e+000 4.000000e+000
      endloop
   endfacet
   facet normal 0.000000e+000 0.000000e+000 -1.000000e+000
      outer loop
         vertex -4.000000e+000 -5.000000e+000 -4.000000e+000
         vertex -5.000000e+000 -5.000000e+000 -4.000000e+000
         vertex -4.000000e+000 5.000000e+000 -4.000000e+000
      endloop
   endfacet
   facet normal 0.000000e+000 0.000000e+000 -1.000000e+000
      outer loop
         vertex -4.000000e+000 5.000000e+000 -4.000000e+000
         vertex -5.000000e+000 -5.000000e+000 -4.000000e+000
         vertex -5.000000e+000 5.000000e+000 -4.000000e+000
      endloop
   endfacet
   facet normal 0.000000e+000 0.000000e+000 1.000000e+000
      outer loop
         vertex -5.000000e+000 -5.000000e+000 4.000000e+000
         vertex -4.000000e+000 -5.000000e+000 4.000000e+000
         vertex -5.000000e+000 5.000000e+000 4.000000e+000
      endloop
   endfacet
   facet normal 0.000000e+000 0.000000e+000 1.000000e+000
      outer loop
         vertex -5.000000e+000 5.000000e+000 4.000000e+000
         vertex -4.000000e+000 -5.000000e+000 4.000000e+000
         vertex -4.000000e+000 5.000000e+000 4.000000e+000
      endloop
   endfacet
   facet normal -1.000000e+000 0.000000e+000 0.000000e+000
      outer loop
         vertex -5.000000e+000 -5.000000e+000 -4.000000e+000
         vertex -5.000000e+000 -5.000000e+000 4.000000e+000
         vertex -5.000000e+000 5.000000e+000 -4.000000e+000
      endloop
   endfacet
   facet normal -1.000000e+000 0.000000e+000 0.000000e+000
      outer loop
         vertex -5.000000e+000 5.000000e+000 -4.000000e+000
         vertex -5.000000e+000 -5.000000e+000 4.000000e+000
         vertex -5.000000e+000 5.000000e+000 4.000000e+000
      endloop
   endfacet
   facet normal 0.000000e+000 -1.000000e+000 0.000000e+000
      outer loop
         vertex -4.000000e+000 -5.000000e+000 4.000000e+000
         vertex -5.000000e+000 -5.000000e+000 4.000000e+000
         vertex -4.000000e+000 -5.000000e+000 -4.000000e+000
      endloop
   endfacet
   facet normal 0.000000e+000 -1.000000e+000 0.000000e+000
      outer loop
         vertex -4.000000e+000 -5.000000e+000 -4.000000e+000
         vertex -5.000000e+000 -5.000000e+000 4.000000e+000
         vertex -5.000000e+000 -5.000000e+000 -4.000000e+000
      endloop
   endfacet
   facet normal 0.000000e+000 1.000000e+000 0.000000e+000
      outer loop
         vertex -5.000000e+000 5.000000e+000 4.000000e+000
         vertex -4.000000e+000 5.000000e+000 4.000000e+000
         vertex -5.000000e+000 5.000000e+000 -4.000000e+000
      endloop
   endfacet
   facet normal 0.000000e+000 1.000000e+000 0.000000e+000
      outer loop
         vertex -5.000000e+000 5.000000e+000 -4.000000e+000
         vertex -4.000000e+000 5.000000e+000 4.000000e+000
         vertex -4.000000e+000 5.000000e+000 -4.000000e+000
      endloop
   endfacet
   facet normal -1.000000e+000 0.000000e+000 0.000000e+000
      outer loop
         vertex -2.000000e+000 -5.000000e-001 -5.000000e-001
         vertex -2.000000e+000 5.000000e-001 -5.000000e-001
         vertex -2.000000e+000 -5.000000e-001 -2.000000e+000
      endloop
   endfacet
   facet normal -1.000000e+000 0.000000e+000 0.000000e+000
      outer loop
         vertex -2.000000e+000 -5.000000e-001 -2.000000e+000
         vertex -2.000000e+000 5.000000e-001 -5.000000e-001
         vertex -2.000000e+000 5.000000e-001 -2.000000e+000
      endloop
   endfacet
   facet normal 0.000000e+000 0.000000e+000 -1.000000e+000
      outer loop
         vertex -4.000000e+000 -5.000000e-001 -5.000000e-001
         vertex -4.000000e+000 5.000000e-001 -5.000000e-001
         vertex -2.000000e+000 -5.000000e-001 -5.000000e-001
      endloop
   endfacet
   facet normal 0.000000e+000 0.000000e+000 -1.000000e+000
      outer loop
         vertex -2.000000e+000 -5.000000e-001 -5.000000e-001
         vertex -4.000000e+000 5.000000e-001 -5.000000e-001
         vertex -2.000000e+000 5.000000e-001 -5.000000e-001
      endloop
   endfacet
   facet normal -1.000000e+000 0.000000e+000 0.000000e+000
      outer loop
         vertex -2.000000e+000 -5.000000e-001 2.000000e+000
         vertex -2.000000e+000 5.000000e-001 2.000000e+000
         vertex -2.000000e+000 -5.000000e-001 5.000000e-001
      endloop
   endfacet
   facet normal -1.000000e+000 0.000000e+000 0.000000e+000
      outer loop
         vertex -2.000000e+000 -5.000000e-001 5.000000e-001
         vertex -2.000000e+000 5.000000e-001 2.000000e+000
         vertex -2.000000e+000 5.000000e-001 5.000000e-001
      endloop
   endfacet
   facet normal 0.000000e+000 0.000000e+000 1.000000e+000
      outer loop
         vertex -2.000000e+000 -5.000000e-001 5.000000e-001
         vertex -2.000000e+000 5.000000e-001 5.000000e-001
         vertex -4.000000e+000 -5.000000e-001 5.000000e-001
      endloop
   endfacet
   facet normal 0.000000e+000 0.000000e+000 1.000000e+000
      outer loop
         vertex -4.000000e+000 -5.000000e-001 5.000000e-001
         vertex -2.000000e+000 5.000000e-001 5.000000e-001
         vertex -4.000000e+000 5.000000e-001 5.000000e-001
      endloop
   endfacet
   facet normal 1.000000e+000 0.000000e+000 0.000000e+000
      outer loop
         vertex -1.500000e+000 -5.000000e-001 -1.000000e+000
         vertex -1.500000e+000 5.000000e-001 -1.000000e+000
         vertex -1.500000e+000 -5.000000e-001 1.000000e+000
      endloop
   endfacet
   facet normal 1.000000e+000 0.000000e+000 0.000000e+000
      outer loop
         vertex -1.500000e+000 -5.000000e-001 1.000000e+000
         vertex -1.500000e+000 5.000000e-001 -1.000000e+000
         vertex -1.500000e+000 5.000000e-001 1.000000e+000
      endloop
   endfacet
   facet normal -5.782411e-017 0.000000e+000 1.000000e+000
      outer loop
         vertex -1.500000e+000 5.000000e-001 -1.000000e+000
         vertex -1.500000e+000 -5.000000e-001 -1.000000e+000
         vertex -1.414214e+000 5.000000e-001 -1.000000e+000
      endloop
   endfacet
   facet normal -5.782411e-017 0.000000e+000 1.000000e+000
      outer loop
         vertex -1.414214e+000 5.000000e-001 -1.000000e+000
         vertex -1.500000e+000 -5.000000e-001 -1.000000e+000
         vertex -1.414214e+000 -5.000000e-001 -1.000000e+000
      endloop
   endfacet
   facet normal -5.782411e-017 0.000000e+000 1.000000e+000
      outer loop
         vertex -7.687549e-002 -1.498029e+000 -1.000000e+000
         vertex -1.414214e+000 5.000000e-001 -1.000000e+000
         vertex -5.089808e-001 -1.411006e+000 -1.000000e+000
      endloop
   endfacet
   facet normal -5.782411e-017 0.000000e+000 1.000000e+000
      outer loop
         vertex -5.089808e-001 -1.411006e+000 -1.000000e+000
         vertex -1.414214e+000 5.000000e-001 -1.000000e+000
         vertex -1.414214e+000 -5.000000e-001 -1.000000e+000
      endloop
   endfacet
   facet normal -5.782411e-017 0.000000e+000 1.000000e+000
      outer loop
         vertex -5.089808e-001 -1.411006e+000 -1.000000e+000
         vertex -1.414214e+000 -5.000000e-001 -1.000000e+000
         vertex -8.971354e-001 -1.202143e+000 -1.000000e+000
      endloop
   endfacet
   facet normal -5.782411e-017 0.000000e+000 1.000000e+000
      outer loop
         vertex -8.971354e-001 -1.202143e+000 -1.000000e+000
         vertex -1.414214e+000 -5.000000e-001 -1.000000e+000
         vertex -1.207822e+000 -8.894747e-001 -1.000000e+000
      endloop
   endfacet
   facet normal -5.782411e-017 0.000000e+000 1.000000e+000
      outer loop
         vertex 7.693641e-001 1.287664e+000 -1.000000e+000
         vertex 3.618680e-001 1.455696e+000 -1.000000e+000
         vertex 2.500000e-001 4.330127e-001 -1.000000e+000
      endloop
   endfacet
   facet normal -5.782411e-017 0.000000e+000 1.000000e+000
      outer loop
         vertex 2.500000e-001 4.330127e-001 -1.000000e+000
         vertex 3.618680e-001 1.455696e+000 -1.000000e+000
         vertex -1.734723e-016 5.000000e-001 -1.000000e+000
      endloop
   endfacet
   facet normal -5.782411e-017 0.000000e+000 1.000000e+000
      outer loop
         vertex 3.618680e-001 1.455696e+000 -1.000000e+000
         vertex -7.687549e-002 1.498029e+000 -1.000000e+000
         vertex -1.734723e-016 5.000000e-001 -1.000000e+000
      endloop
   endfacet
   facet normal -5.782411e-017 0.000000e+000 1.000000e+000
      outer loop
         vertex -1.734723e-016 5.000000e-001 -1.000000e+000
         vertex -7.687549e-002 1.498029e+000 -1.000000e+000
         vertex -5.089808e-001 1.411006e+000 -1.000000e+000
      endloop
   endfacet
   facet normal -5.782411e-017 0.000000e+000 1.000000e+000
      outer loop
         vertex -1.734723e-016 5.000000e-001 -1.000000e+000
         vertex -5.089808e-001 1.411006e+000 -1.000000e+000
         vertex -2.500000e-001 4.330127e-001 -1.000000e+000
      endloop
   endfacet
   facet normal -5.782411e-017 0.000000e+000 1.000000e+000
      outer loop
         vertex -2.500000e-001 4.330127e-001 -1.000000e+000
         vertex -5.089808e-001 1.411006e+000 -1.000000e+000
         vertex -8.971354e-001 1.202143e+000 -1.000000e+000
      endloop
   endfacet
   facet normal -5.782411e-017 0.000000e+000 1.000000e+000
      outer loop
         vertex -2.500000e-001 4.330127e-001 -1.000000e+000
         vertex -8.971354e-001 1.202143e+000 -1.000000e+000
         vertex -4.330127e-001 2.500000e-001 -1.000000e+000
      endloop
   endfacet
   facet normal -5.782411e-017 0.000000e+000 1.000000e+000
      outer loop
         vertex -4.330127e-001 2.500000e-001 -1.000000e+000
         vertex -8.971354e-001 1.202143e+000 -1.000000e+000
         vertex -1.207822e+000 8.894747e-001 -1.000000e+000
      endloop
   endfacet
   facet normal -5.782411e-017 0.000000e+000 1.000000e+000
      outer loop
         vertex -4.330127e-001 2.500000e-001 -1.000000e+000
         vertex -1.207822e+000 8.894747e-001 -1.000000e+000
         vertex -5.000000e-001 0.000000e+000 -1.000000e+000
      endloop
   endfacet
   facet normal -5.782411e-017 0.000000e+000 1.000000e+000
      outer loop
         vertex -5.000000e-001 0.000000e+000 -1.000000e+000
         vertex -1.207822e+000 8.894747e-001 -1.000000e+000
         vertex -1.414214e+000 5.000000e-001 -1.000000e+000
      endloop
   endfacet
   facet normal -5.782411e-017 0.000000e+000 1.000000e+000
      outer loop
         vertex 7.693641e-001 1.287664e+000 -1.000000e+000
         vertex 2.500000e-001 4.330127e-001 -1.000000e+000
         vertex 1.110425e+000 1.008442e+000 -1.000000e+000
      endloop
   endfacet
   facet normal -5.782411e-017 0.000000e+000 1.000000e+000
      outer loop
         vertex 1.110425e+000 1.008442e+000 -1.000000e+000
         vertex 2.500000e-001 4.330127e-001 -1.000000e+000
         vertex 4.330127e-001 2.500000e-001 -1.000000e+000
      endloop
   endfacet
   facet normal -5.782411e-017 0.000000e+000 1.000000e+000
      outer loop
         vertex 1.110425e+000 1.008442e+000 -1.000000e+000
         vertex 4.330127e-001 2.500000e-001 -1.000000e+000
         vertex 1.355601e+000 6.421407e-001 -1.000000e+000
      endloop
   endfacet
   facet normal -5.782411e-017 0.000000e+000 1.000000e+000
      outer loop
         vertex 1.355601e+000 6.421407e-001 -1.000000e+000
         vertex 4.330127e-001 2.500000e-001 -1.000000e+000
         vertex 1.483721e+000 2.203905e-001 -1.000000e+000
      endloop
   endfacet
   facet normal -5.782411e-017 0.000000e+000 1.000000e+000
      outer loop
         vertex 1.483721e+000 2.203905e-001 -1.000000e+000
         vertex 4.330127e-001 2.500000e-001 -1.000000e+000
         vertex 5.000000e-001 0.000000e+000 -1.000000e+000
      endloop
   endfacet
   facet normal -5.782411e-017 0.000000e+000 1.000000e+000
      outer loop
         vertex 1.483721e+000 2.203905e-001 -1.000000e+000
         vertex 5.000000e-001 0.000000e+000 -1.000000e+000
         vertex 1.483721e+000 -2.203905e-001 -1.000000e+000
      endloop
   endfacet
   facet normal -5.782411e-017 0.000000e+000 1.000000e+000
      outer loop
         vertex 1.483721e+000 -2.203905e-001 -1.000000e+000
         vertex 5.000000e-001 0.000000e+000 -1.000000e+000
         vertex 4.330127e-001 -2.500000e-001 -1.000000e+000
      endloop
   endfacet
   facet normal -5.782411e-017 0.000000e+000 1.000000e+000
      outer loop
         vertex 1.483721e+000 -2.203905e-001 -1.000000e+000
         vertex 4.330127e-001 -2.500000e-001 -1.000000e+000
         vertex 1.355601e+000 -6.421407e-001 -1.000000e+000
      endloop
   endfacet
   facet normal -5.782411e-017 0.000000e+000 1.000000e+000
      outer loop
         vertex 1.355601e+000 -6.421407e-001 -1.000000e+000
         vertex 4.330127e-001 -2.500000e-001 -1.000000e+000
         vertex 1.110425e+000 -1.008442e+000 -1.000000e+000
      endloop
   endfacet
   facet normal -5.782411e-017 0.000000e+000 1.000000e+000
      outer loop
         vertex 1.110425e+000 -1.008442e+000 -1.000000e+000
         vertex 4.330127e-001 -2.500000e-001 -1.000000e+000
         vertex 2.500000e-001 -4.330127e-001 -1.000000e+000
      endloop
   endfacet
   facet normal -5.782411e-017 0.000000e+000 1.000000e+000
      outer loop
         vertex 1.110425e+000 -1.008442e+000 -1.000000e+000
         vertex 2.500000e-001 -4.330127e-001 -1.000000e+000
         vertex 7.693641e-001 -1.287664e+000 -1.000000e+000
      endloop
   endfacet
   facet normal -5.782411e-017 0.000000e+000 1.000000e+000
      outer loop
         vertex 7.693641e-001 -1.287664e+000 -1.000000e+000
         vertex 2.500000e-001 -4.330127e-001 -1.000000e+000
         vertex 3.618680e-001 -1.455696e+000 -1.000000e+000
      endloop
   endfacet
   facet normal -5.782411e-017 0.000000e+000 1.000000e+000
      outer loop
         vertex 3.618680e-001 -1.455696e+000 -1.000000e+000
         vertex 2.500000e-001 -4.330127e-001 -1.000000e+000
         vertex 5.204170e-016 -5.000000e-001 -1.000000e+000
      endloop
   endfacet
   facet normal -5.782411e-017 0.000000e+000 1.000000e+000
      outer loop
         vertex 3.618680e-001 -1.455696e+000 -1.000000e+000
         vertex 5.204170e-016 -5.000000e-001 -1.000000e+000
         vertex -7.687549e-002 -1.498029e+000 -1.000000e+000
      endloop
   endfacet
   facet normal -5.782411e-017 0.000000e+000 1.000000e+000
      outer loop
         vertex -7.687549e-002 -1.498029e+000 -1.000000e+000
         vertex 5.204170e-016 -5.000000e-001 -1.000000e+000
         vertex -2.500000e-001 -4.330127e-001 -1.000000e+000
      endloop
   endfacet
   facet normal -5.782411e-017 0.000000e+000 1.000000e+000
      outer loop
         vertex -7.687549e-002 -1.498029e+000 -1.000000e+000
         vertex -2.500000e-001 -4.330127e-001 -1.000000e+000
         vertex -1.414214e+000 5.000000e-001 -1.000000e+000
      endloop
   endfacet
   facet normal -5.782411e-017 0.000000e+000 1.000000e+000
      outer loop
         vertex -1.414214e+000 5.000000e-001 -1.000000e+000
         vertex -2.500000e-001 -4.330127e-001 -1.000000e+000
         vertex -4.330127e-001 -2.500000e-001 -1.000000e+000
      endloop
   endfacet
   facet normal -5.782411e-017 0.000000e+000 1.000000e+000
      outer loop
         vertex -1.414214e+000 5.000000e-001 -1.000000e+000
         vertex -4.330127e-001 -2.500000e-001 -1.000000e+000
         vertex -5.000000e-001 0.000000e+000 -1.000000e+000
      endloop
   endfacet
   facet normal -5.782411e-017 0.000000e+000 -1.000000e+000
      outer loop
         vertex -1.734723e-016 5.000000e-001 1.000000e+000
         vertex -2.500000e-001 4.330127e-001 1.000000e+000
         vertex -1.414214e+000 5.000000e-001 1.000000e+000
      endloop
   endfacet
   facet normal -5.782411e-017 0.000000e+000 -1.000000e+000
      outer loop
         vertex -1.414214e+000 5.000000e-001 1.000000e+000
         vertex -2.500000e-001 4.330127e-001 1.000000e+000
         vertex -4.330127e-001 2.500000e-001 1.000000e+000
      endloop
   endfacet
   facet normal -5.782411e-017 0.000000e+000 -1.000000e+000
      outer loop
         vertex -4.330127e-001 2.500000e-001 1.000000e+000
         vertex -5.000000e-001 0.000000e+000 1.000000e+000
         vertex -1.414214e+000 5.000000e-001 1.000000e+000
      endloop
   endfacet
   facet normal -5.782411e-017 0.000000e+000 -1.000000e+000
      outer loop
         vertex -1.414214e+000 5.000000e-001 1.000000e+000
         vertex -5.000000e-001 0.000000e+000 1.000000e+000
         vertex -1.500000e+000 -5.000000e-001 1.000000e+000
      endloop
   endfacet
   facet normal -5.782411e-017 0.000000e+000 -1.000000e+000
      outer loop
         vertex -1.414214e+000 5.000000e-001 1.000000e+000
         vertex -1.500000e+000 -5.000000e-001 1.000000e+000
         vertex -1.500000e+000 5.000000e-001 1.000000e+000
      endloop
   endfacet
   facet normal -5.782411e-017 0.000000e+000 -1.000000e+000
      outer loop
         vertex 2.500000e-001 4.330127e-001 1.000000e+000
         vertex 1.110425e+000 1.008442e+000 1.000000e+000
         vertex 4.330127e-001 2.500000e-001 1.000000e+000
      endloop
   endfacet
   facet normal -5.782411e-017 0.000000e+000 -1.000000e+000
      outer loop
         vertex 4.330127e-001 2.500000e-001 1.000000e+000
         vertex 1.110425e+000 1.008442e+000 1.000000e+000
         vertex 1.355601e+000 6.421407e-001 1.000000e+000
      endloop
   endfacet
   facet normal -5.782411e-017 0.000000e+000 -1.000000e+000
      outer loop
         vertex 4.330127e-001 2.500000e-001 1.000000e+000
         vertex 1.355601e+000 6.421407e-001 1.000000e+000
         vertex 5.000000e-001 0.000000e+000 1.000000e+000
      endloop
   endfacet
   facet normal -5.782411e-017 0.000000e+000 -1.000000e+000
      outer loop
         vertex -1.207822e+000 8.894747e-001 1.000000e+000
         vertex -8.971354e-001 1.202143e+000 1.000000e+000
         vertex -1.414214e+000 5.000000e-001 1.000000e+000
      endloop
   endfacet
   facet normal -5.782411e-017 0.000000e+000 -1.000000e+000
      outer loop
         vertex -1.414214e+000 5.000000e-001 1.000000e+000
         vertex -8.971354e-001 1.202143e+000 1.000000e+000
         vertex -5.089808e-001 1.411006e+000 1.000000e+000
      endloop
   endfacet
   facet normal -5.782411e-017 0.000000e+000 -1.000000e+000
      outer loop
         vertex -1.414214e+000 5.000000e-001 1.000000e+000
         vertex -5.089808e-001 1.411006e+000 1.000000e+000
         vertex -1.734723e-016 5.000000e-001 1.000000e+000
      endloop
   endfacet
   facet normal -5.782411e-017 0.000000e+000 -1.000000e+000
      outer loop
         vertex 5.204170e-016 -5.000000e-001 1.000000e+000
         vertex -5.089808e-001 -1.411006e+000 1.000000e+000
         vertex -2.500000e-001 -4.330127e-001 1.000000e+000
      endloop
   endfacet
   facet normal -5.782411e-017 0.000000e+000 -1.000000e+000
      outer loop
         vertex -2.500000e-001 -4.330127e-001 1.000000e+000
         vertex -5.089808e-001 -1.411006e+000 1.000000e+000
         vertex -8.971354e-001 -1.202143e+000 1.000000e+000
      endloop
   endfacet
   facet normal -5.782411e-017 0.000000e+000 -1.000000e+000
      outer loop
         vertex -2.500000e-001 -4.330127e-001 1.000000e+000
         vertex -8.971354e-001 -1.202143e+000 1.000000e+000
         vertex -4.330127e-001 -2.500000e-001 1.000000e+000
      endloop
   endfacet
   facet normal -5.782411e-017 0.000000e+000 -1.000000e+000
      outer loop
         vertex -4.330127e-001 -2.500000e-001 1.000000e+000
         vertex -8.971354e-001 -1.202143e+000 1.000000e+000
         vertex -1.207822e+000 -8.894747e-001 1.000000e+000
      endloop
   endfacet
   facet normal -5.782411e-017 0.000000e+000 -1.000000e+000
      outer loop
         vertex -4.330127e-001 -2.500000e-001 1.000000e+000
         vertex -1.207822e+000 -8.894747e-001 1.000000e+000
         vertex -5.000000e-001 0.000000e+000 1.000000e+000
      endloop
   endfacet
   facet normal -5.782411e-017 0.000000e+000 -1.000000e+000
      outer loop
         vertex -5.000000e-001 0.000000e+000 1.000000e+000
         vertex -1.207822e+000 -8.894747e-001 1.000000e+000
         vertex -1.414214e+000 -5.000000e-001 1.000000e+000
      endloop
   endfacet
   facet normal -5.782411e-017 0.000000e+000 -1.000000e+000
      outer loop
         vertex -5.000000e-001 0.000000e+000 1.000000e+000
         vertex -1.414214e+000 -5.000000e-001 1.000000e+000
         vertex -1.500000e+000 -5.000000e-001 1.000000e+000
      endloop
   endfacet
   facet normal -5.782411e-017 0.000000e+000 -1.000000e+000
      outer loop
         vertex 2.500000e-001 -4.330127e-001 1.000000e+000
         vertex 3.618680e-001 -1.455696e+000 1.000000e+000
         vertex 5.204170e-016 -5.000000e-001 1.000000e+000
      endloop
   endfacet
   facet normal -5.782411e-017 0.000000e+000 -1.000000e+000
      outer loop
         vertex 5.204170e-016 -5.000000e-001 1.000000e+000
         vertex 3.618680e-001 -1.455696e+000 1.000000e+000
         vertex -7.687549e-002 -1.498029e+000 1.000000e+000
      endloop
   endfacet
   facet normal -5.782411e-017 0.000000e+000 -1.000000e+000
      outer loop
         vertex 5.204170e-016 -5.000000e-001 1.000000e+000
         vertex -7.687549e-002 -1.498029e+000 1.000000e+000
         vertex -5.089808e-001 -1.411006e+000 1.000000e+000
      endloop
   endfacet
   facet normal -5.782411e-017 0.000000e+000 -1.000000e+000
      outer loop
         vertex -5.089808e-001 1.411006e+000 1.000000e+000
         vertex -7.687549e-002 1.498029e+000 1.000000e+000
         vertex -1.734723e-016 5.000000e-001 1.000000e+000
      endloop
   endfacet
   facet normal -5.782411e-017 0.000000e+000 -1.000000e+000
      outer loop
         vertex -1.734723e-016 5.000000e-001 1.000000e+000
         vertex -7.687549e-002 1.498029e+000 1.000000e+000
         vertex 3.618680e-001 1.455696e+000 1.000000e+000
      endloop
   endfacet
   facet normal -5.782411e-017 0.000000e+000 -1.000000e+000
      outer loop
         vertex -1.734723e-016 5.000000e-001 1.000000e+000
         vertex 3.618680e-001 1.455696e+000 1.000000e+000
         vertex 2.500000e-001 4.330127e-001 1.000000e+000
      endloop
   endfacet
   facet normal -5.782411e-017 0.000000e+000 -1.000000e+000
      outer loop
         vertex 2.500000e-001 4.330127e-001 1.000000e+000
         vertex 3.618680e-001 1.455696e+000 1.000000e+000
         vertex 7.693641e-001 1.287664e+000 1.000000e+000
      endloop
   endfacet
   facet normal -5.782411e-017 0.000000e+000 -1.000000e+000
      outer loop
         vertex 2.500000e-001 4.330127e-001 1.000000e+000
         vertex 7.693641e-001 1.287664e+000 1.000000e+000
         vertex 1.110425e+000 1.008442e+000 1.000000e+000
      endloop
   endfacet
   facet normal -5.782411e-017 0.000000e+000 -1.000000e+000
      outer loop
         vertex 4.330127e-001 -2.500000e-001 1.000000e+000
         vertex 1.110425e+000 -1.008442e+000 1.000000e+000
         vertex 2.500000e-001 -4.330127e-001 1.000000e+000
      endloop
   endfacet
   facet normal -5.782411e-017 0.000000e+000 -1.000000e+000
      outer loop
         vertex 2.500000e-001 -4.330127e-001 1.000000e+000
         vertex 1.110425e+000 -1.008442e+000 1.000000e+000
         vertex 7.693641e-001 -1.287664e+000 1.000000e+000
      endloop
   endfacet
   facet normal -5.782411e-017 0.000000e+000 -1.000000e+000
      outer loop
         vertex 2.500000e-001 -4.330127e-001 1.000000e+000
         vertex 7.693641e-001 -1.287664e+000 1.000000e+000
         vertex 3.618680e-001 -1.455696e+000 1.000000e+000
      endloop
   endfacet
   facet normal -5.782411e-017 0.000000e+000 -1.000000e+000
      outer loop
         vertex 1.355601e+000 6.421407e-001 1.000000e+000
         vertex 1.483721e+000 2.203905e-001 1.000000e+000
         vertex 5.000000e-001 0.000000e+000 1.000000e+000
      endloop
   endfacet
   facet normal -5.782411e-017 0.000000e+000 -1.000000e+000
      outer loop
         vertex 5.000000e-001 0.000000e+000 1.000000e+000
         vertex 1.483721e+000 2.203905e-001 1.000000e+000
         vertex 1.483721e+000 -2.203905e-001 1.000000e+000
      endloop
   endfacet
   facet normal -5.782411e-017 0.000000e+000 -1.000000e+000
      outer loop
         vertex 5.000000e-001 0.000000e+000 1.000000e+000
         vertex 1.483721e+000 -2.203905e-001 1.000000e+000
         vertex 4.330127e-001 -2.500000e-001 1.000000e+000
      endloop
   endfacet
   facet normal -5.782411e-017 0.000000e+000 -1.000000e+000
      outer loop
         vertex 4.330127e-001 -2.500000e-001 1.000000e+000
         vertex 1.483721e+000 -2.203905e-001 1.000000e+000
         vertex 1.355601e+000 -6.421407e-001 1.000000e+000
      endloop
   endfacet
   facet normal -5.782411e-017 0.000000e+000 -1.000000e+000
      outer loop
         vertex 4.330127e-001 -2.500000e-001 1.000000e+000
         vertex 1.355601e+000 -6.421407e-001 1.000000e+000
         vertex 1.110425e+000 -1.008442e+000 1.000000e+000
      endloop
   endfacet
endsolid