solid baseaa
   facet normal -9.095711e-001 -4.155484e-001 0.000000e+000
      outer loop
         vertex -1.414214e+000 -5.000000e-001 -1.000000e+000
         vertex -1.414214e+000 -5.000000e-001 -2.000000e+000
         vertex -1.232326e+000 -8.552033e-001 -2.000000e+000
      endloop
   endfacet
   facet normal -8.688300e-001 -4.951106e-001 0.000000e+000
      outer loop
         vertex -1.414214e+000 -5.000000e-001 -1.000000e+000
         vertex -1.232326e+000 -8.552033e-001 -2.000000e+000
         vertex -1.232326e+000 -8.552033e-001 -1.000000e+000
      endloop
   endfacet
   facet normal -7.678106e-001 -6.406769e-001 0.000000e+000
      outer loop
         vertex -1.232326e+000 -8.552033e-001 -1.000000e+000
         vertex -1.232326e+000 -8.552033e-001 -2.000000e+000
         vertex -9.632158e-001 -1.149876e+000 -2.000000e+000
      endloop
   endfacet
   facet normal -7.075325e-001 -7.066809e-001 0.000000e+000
      outer loop
         vertex -1.232326e+000 -8.552033e-001 -1.000000e+000
         vertex -9.632158e-001 -1.149876e+000 -2.000000e+000
         vertex -9.632158e-001 -1.149876e+000 -1.000000e+000
      endloop
   endfacet
   facet normal -5.717054e-001 -8.204589e-001 0.000000e+000
      outer loop
         vertex -9.632158e-001 -1.149876e+000 -1.000000e+000
         vertex -9.632158e-001 -1.149876e+000 -2.000000e+000
         vertex -6.259303e-001 -1.363162e+000 -2.000000e+000
      endloop
   endfacet
   facet normal -4.961566e-001 -8.682330e-001 0.000000e+000
      outer loop
         vertex -9.632158e-001 -1.149876e+000 -1.000000e+000
         vertex -6.259303e-001 -1.363162e+000 -2.000000e+000
         vertex -6.259303e-001 -1.363162e+000 -1.000000e+000
      endloop
   endfacet
   facet normal -3.351355e-001 -9.421699e-001 0.000000e+000
      outer loop
         vertex -6.259303e-001 -1.363162e+000 -1.000000e+000
         vertex -6.259303e-001 -1.363162e+000 -2.000000e+000
         vertex -2.443421e-001 -1.479965e+000 -2.000000e+000
      endloop
   endfacet
   facet normal -2.496633e-001 -9.683327e-001 0.000000e+000
      outer loop
         vertex -6.259303e-001 -1.363162e+000 -1.000000e+000
         vertex -2.443421e-001 -1.479965e+000 -2.000000e+000
         vertex -2.443421e-001 -1.479965e+000 -1.000000e+000
      endloop
   endfacet
   facet normal -7.484517e-002 -9.971952e-001 0.000000e+000
      outer loop
         vertex -2.443421e-001 -1.479965e+000 -1.000000e+000
         vertex -2.443421e-001 -1.479965e+000 -2.000000e+000
         vertex 1.545403e-001 -1.492018e+000 -2.000000e+000
      endloop
   endfacet
   facet normal 1.450080e-002 -9.998949e-001 0.000000e+000
      outer loop
         vertex -2.443421e-001 -1.479965e+000 -1.000000e+000
         vertex 1.545403e-001 -1.492018e+000 -2.000000e+000
         vertex 1.545403e-001 -1.492018e+000 -1.000000e+000
      endloop
   endfacet
   facet normal 1.907427e-001 -9.816400e-001 0.000000e+000
      outer loop
         vertex 1.545403e-001 -1.492018e+000 -1.000000e+000
         vertex 1.545403e-001 -1.492018e+000 -2.000000e+000
         vertex 5.424845e-001 -1.398467e+000 -2.000000e+000
      endloop
   endfacet
   facet normal 2.776386e-001 -9.606856e-001 0.000000e+000
      outer loop
         vertex 1.545403e-001 -1.492018e+000 -1.000000e+000
         vertex 5.424845e-001 -1.398467e+000 -2.000000e+000
         vertex 5.424845e-001 -1.398467e+000 -1.000000e+000
      endloop
   endfacet
   facet normal 4.428300e-001 -8.966056e-001 0.000000e+000
      outer loop
         vertex 5.424845e-001 -1.398467e+000 -1.000000e+000
         vertex 5.424845e-001 -1.398467e+000 -2.000000e+000
         vertex 8.920323e-001 -1.205935e+000 -2.000000e+000
      endloop
   endfacet
   facet normal 5.211254e-001 -8.534801e-001 0.000000e+000
      outer loop
         vertex 5.424845e-001 -1.398467e+000 -1.000000e+000
         vertex 8.920323e-001 -1.205935e+000 -2.000000e+000
         vertex 8.920323e-001 -1.205935e+000 -1.000000e+000
      endloop
   endfacet
   facet normal 6.635743e-001 -7.481104e-001 0.000000e+000
      outer loop
         vertex 8.920323e-001 -1.205935e+000 -1.000000e+000
         vertex 8.920323e-001 -1.205935e+000 -2.000000e+000
         vertex 1.178443e+000 -9.280474e-001 -2.000000e+000
      endloop
   endfacet
   facet normal 7.277276e-001 -6.858663e-001 0.000000e+000
      outer loop
         vertex 8.920323e-001 -1.205935e+000 -1.000000e+000
         vertex 1.178443e+000 -9.280474e-001 -2.000000e+000
         vertex 1.178443e+000 -9.280474e-001 -1.000000e+000
      endloop
   endfacet
   facet normal 8.373515e-001 -5.466648e-001 0.000000e+000
      outer loop
         vertex 1.178443e+000 -9.280474e-001 -1.000000e+000
         vertex 1.178443e+000 -9.280474e-001 -2.000000e+000
         vertex 1.381445e+000 -5.844740e-001 -2.000000e+000
      endloop
   endfacet
   facet normal 8.828221e-001 -4.697076e-001 0.000000e+000
      outer loop
         vertex 1.178443e+000 -9.280474e-001 -1.000000e+000
         vertex 1.381445e+000 -5.844740e-001 -2.000000e+000
         vertex 1.381445e+000 -5.844740e-001 -1.000000e+000
      endloop
   endfacet
   facet normal 9.518620e-001 -3.065269e-001 0.000000e+000
      outer loop
         vertex 1.381445e+000 -5.844740e-001 -1.000000e+000
         vertex 1.381445e+000 -5.844740e-001 -2.000000e+000
         vertex 1.486670e+000 -1.995322e-001 -2.000000e+000
      endloop
   endfacet
   facet normal 9.754314e-001 -2.203035e-001 0.000000e+000
      outer loop
         vertex 1.381445e+000 -5.844740e-001 -1.000000e+000
         vertex 1.486670e+000 -1.995322e-001 -2.000000e+000
         vertex 1.486670e+000 -1.995322e-001 -1.000000e+000
      endloop
   endfacet
   facet normal 9.990008e-001 -4.469337e-002 0.000000e+000
      outer loop
         vertex 1.486670e+000 -1.995322e-001 -1.000000e+000
         vertex 1.486670e+000 -1.995322e-001 -2.000000e+000
         vertex 1.486670e+000 1.995322e-001 -2.000000e+000
      endloop
   endfacet
   facet normal 9.990008e-001 4.469337e-002 0.000000e+000
      outer loop
         vertex 1.486670e+000 -1.995322e-001 -1.000000e+000
         vertex 1.486670e+000 1.995322e-001 -2.000000e+000
         vertex 1.486670e+000 1.995322e-001 -1.000000e+000
      endloop
   endfacet
   facet normal 9.754314e-001 2.203035e-001 0.000000e+000
      outer loop
         vertex 1.486670e+000 1.995322e-001 -1.000000e+000
         vertex 1.486670e+000 1.995322e-001 -2.000000e+000
         vertex 1.381445e+000 5.844740e-001 -2.000000e+000
      endloop
   endfacet
   facet normal 9.518620e-001 3.065269e-001 0.000000e+000
      outer loop
         vertex 1.486670e+000 1.995322e-001 -1.000000e+000
         vertex 1.381445e+000 5.844740e-001 -2.000000e+000
         vertex 1.381445e+000 5.844740e-001 -1.000000e+000
      endloop
   endfacet
   facet normal 8.828221e-001 4.697076e-001 0.000000e+000
      outer loop
         vertex 1.381445e+000 5.844740e-001 -1.000000e+000
         vertex 1.381445e+000 5.844740e-001 -2.000000e+000
         vertex 1.178443e+000 9.280474e-001 -2.000000e+000
      endloop
   endfacet
   facet normal 8.373515e-001 5.466648e-001 0.000000e+000
      outer loop
         vertex 1.381445e+000 5.844740e-001 -1.000000e+000
         vertex 1.178443e+000 9.280474e-001 -2.000000e+000
         vertex 1.178443e+000 9.280474e-001 -1.000000e+000
      endloop
   endfacet
   facet normal 7.277276e-001 6.858663e-001 0.000000e+000
      outer loop
         vertex 1.178443e+000 9.280474e-001 -1.000000e+000
         vertex 1.178443e+000 9.280474e-001 -2.000000e+000
         vertex 8.920323e-001 1.205935e+000 -2.000000e+000
      endloop
   endfacet
   facet normal 6.635743e-001 7.481104e-001 0.000000e+000
      outer loop
         vertex 1.178443e+000 9.280474e-001 -1.000000e+000
         vertex 8.920323e-001 1.205935e+000 -2.000000e+000
         vertex 8.920323e-001 1.205935e+000 -1.000000e+000
      endloop
   endfacet
   facet normal 5.211254e-001 8.534801e-001 0.000000e+000
      outer loop
         vertex 8.920323e-001 1.205935e+000 -1.000000e+000
         vertex 8.920323e-001 1.205935e+000 -2.000000e+000
         vertex 5.424845e-001 1.398467e+000 -2.000000e+000
      endloop
   endfacet
   facet normal 4.428300e-001 8.966056e-001 0.000000e+000
      outer loop
         vertex 8.920323e-001 1.205935e+000 -1.000000e+000
         vertex 5.424845e-001 1.398467e+000 -2.000000e+000
         vertex 5.424845e-001 1.398467e+000 -1.000000e+000
      endloop
   endfacet
   facet normal 2.776386e-001 9.606856e-001 0.000000e+000
      outer loop
         vertex 5.424845e-001 1.398467e+000 -1.000000e+000
         vertex 5.424845e-001 1.398467e+000 -2.000000e+000
         vertex 1.545403e-001 1.492018e+000 -2.000000e+000
      endloop
   endfacet
   facet normal 1.907427e-001 9.816400e-001 0.000000e+000
      outer loop
         vertex 5.424845e-001 1.398467e+000 -1.000000e+000
         vertex 1.545403e-001 1.492018e+000 -2.000000e+000
         vertex 1.545403e-001 1.492018e+000 -1.000000e+000
      endloop
   endfacet
   facet normal 1.450080e-002 9.998949e-001 0.000000e+000
      outer loop
         vertex 1.545403e-001 1.492018e+000 -1.000000e+000
         vertex 1.545403e-001 1.492018e+000 -2.000000e+000
         vertex -2.443421e-001 1.479965e+000 -2.000000e+000
      endloop
   endfacet
   facet normal -7.484517e-002 9.971952e-001 0.000000e+000
      outer loop
         vertex 1.545403e-001 1.492018e+000 -1.000000e+000
         vertex -2.443421e-001 1.479965e+000 -2.000000e+000
         vertex -2.443421e-001 1.479965e+000 -1.000000e+000
      endloop
   endfacet
   facet normal -2.496633e-001 9.683327e-001 0.000000e+000
      outer loop
         vertex -2.443421e-001 1.479965e+000 -1.000000e+000
         vertex -2.443421e-001 1.479965e+000 -2.000000e+000
         vertex -6.259303e-001 1.363162e+000 -2.000000e+000
      endloop
   endfacet
   facet normal -3.351355e-001 9.421699e-001 0.000000e+000
      outer loop
         vertex -2.443421e-001 1.479965e+000 -1.000000e+000
         vertex -6.259303e-001 1.363162e+000 -2.000000e+000
         vertex -6.259303e-001 1.363162e+000 -1.000000e+000
      endloop
   endfacet
   facet normal -4.961566e-001 8.682330e-001 0.000000e+000
      outer loop
         vertex -6.259303e-001 1.363162e+000 -1.000000e+000
         vertex -6.259303e-001 1.363162e+000 -2.000000e+000
         vertex -9.632158e-001 1.149876e+000 -2.000000e+000
      endloop
   endfacet
   facet normal -5.717054e-001 8.204589e-001 0.000000e+000
      outer loop
         vertex -6.259303e-001 1.363162e+000 -1.000000e+000
         vertex -9.632158e-001 1.149876e+000 -2.000000e+000
         vertex -9.632158e-001 1.149876e+000 -1.000000e+000
      endloop
   endfacet
   facet normal -7.075325e-001 7.066809e-001 0.000000e+000
      outer loop
         vertex -9.632158e-001 1.149876e+000 -1.000000e+000
         vertex -9.632158e-001 1.149876e+000 -2.000000e+000
         vertex -1.232326e+000 8.552033e-001 -2.000000e+000
      endloop
   endfacet
   facet normal -7.678106e-001 6.406769e-001 0.000000e+000
      outer loop
         vertex -9.632158e-001 1.149876e+000 -1.000000e+000
         vertex -1.232326e+000 8.552033e-001 -2.000000e+000
         vertex -1.232326e+000 8.552033e-001 -1.000000e+000
      endloop
   endfacet
   facet normal -8.688300e-001 4.951106e-001 0.000000e+000
      outer loop
         vertex -1.232326e+000 8.552033e-001 -1.000000e+000
         vertex -1.232326e+000 8.552033e-001 -2.000000e+000
         vertex -1.414214e+000 5.000000e-001 -2.000000e+000
      endloop
   endfacet
   facet normal -9.095711e-001 4.155484e-001 0.000000e+000
      outer loop
         vertex -1.232326e+000 8.552033e-001 -1.000000e+000
         vertex -1.414214e+000 5.000000e-001 -2.000000e+000
         vertex -1.414214e+000 5.000000e-001 -1.000000e+000
      endloop
   endfacet
   facet normal 9.889994e-001 1.479198e-001 0.000000e+000
      outer loop
         vertex -4.504845e-001 -2.169419e-001 -1.000000e+000
         vertex -5.000000e-001 -1.224606e-016 -2.000000e+000
         vertex -5.000000e-001 -1.224606e-016 -1.000000e+000
      endloop
   endfacet
   facet normal 9.889994e-001 -1.479198e-001 0.000000e+000
      outer loop
         vertex -5.000000e-001 -1.224606e-016 -1.000000e+000
         vertex -5.000000e-001 -1.224606e-016 -2.000000e+000
         vertex -4.504845e-001 2.169419e-001 -2.000000e+000
      endloop
   endfacet
   facet normal 9.552376e-001 -2.958396e-001 0.000000e+000
      outer loop
         vertex -5.000000e-001 -1.224606e-016 -1.000000e+000
         vertex -4.504845e-001 2.169419e-001 -2.000000e+000
         vertex -4.504845e-001 2.169419e-001 -1.000000e+000
      endloop
   endfacet
   facet normal 8.268777e-001 -5.623819e-001 0.000000e+000
      outer loop
         vertex -4.504845e-001 2.169419e-001 -1.000000e+000
         vertex -4.504845e-001 2.169419e-001 -2.000000e+000
         vertex -3.117449e-001 3.909158e-001 -2.000000e+000
      endloop
   endfacet
   facet normal 7.322794e-001 -6.810043e-001 0.000000e+000
      outer loop
         vertex -4.504845e-001 2.169419e-001 -1.000000e+000
         vertex -3.117449e-001 3.909158e-001 -2.000000e+000
         vertex -3.117449e-001 3.909158e-001 -1.000000e+000
      endloop
   endfacet
   facet normal 5.009826e-001 -8.654573e-001 0.000000e+000
      outer loop
         vertex -3.117449e-001 3.909158e-001 -1.000000e+000
         vertex -3.117449e-001 3.909158e-001 -2.000000e+000
         vertex -1.112605e-001 4.874640e-001 -2.000000e+000
      endloop
   endfacet
   facet normal 3.642842e-001 -9.312878e-001 0.000000e+000
      outer loop
         vertex -3.117449e-001 3.909158e-001 -1.000000e+000
         vertex -1.112605e-001 4.874640e-001 -2.000000e+000
         vertex -1.112605e-001 4.874640e-001 -1.000000e+000
      endloop
   endfacet
   facet normal 7.586192e-002 -9.971184e-001 0.000000e+000
      outer loop
         vertex -1.112605e-001 4.874640e-001 -1.000000e+000
         vertex -1.112605e-001 4.874640e-001 -2.000000e+000
         vertex 1.112605e-001 4.874640e-001 -2.000000e+000
      endloop
   endfacet
   facet normal -7.586192e-002 -9.971184e-001 0.000000e+000
      outer loop
         vertex -1.112605e-001 4.874640e-001 -1.000000e+000
         vertex 1.112605e-001 4.874640e-001 -2.000000e+000
         vertex 1.112605e-001 4.874640e-001 -1.000000e+000
      endloop
   endfacet
   facet normal -3.642842e-001 -9.312878e-001 0.000000e+000
      outer loop
         vertex 1.112605e-001 4.874640e-001 -1.000000e+000
         vertex 1.112605e-001 4.874640e-001 -2.000000e+000
         vertex 3.117449e-001 3.909158e-001 -2.000000e+000
      endloop
   endfacet
   facet normal -5.009826e-001 -8.654573e-001 0.000000e+000
      outer loop
         vertex 1.112605e-001 4.874640e-001 -1.000000e+000
         vertex 3.117449e-001 3.909158e-001 -2.000000e+000
         vertex 3.117449e-001 3.909158e-001 -1.000000e+000
      endloop
   endfacet
   facet normal -7.322794e-001 -6.810043e-001 0.000000e+000
      outer loop
         vertex 3.117449e-001 3.909158e-001 -1.000000e+000
         vertex 3.117449e-001 3.909158e-001 -2.000000e+000
         vertex 4.504845e-001 2.169419e-001 -2.000000e+000
      endloop
   endfacet
   facet normal -8.268777e-001 -5.623819e-001 0.000000e+000
      outer loop
         vertex 3.117449e-001 3.909158e-001 -1.000000e+000
         vertex 4.504845e-001 2.169419e-001 -2.000000e+000
         vertex 4.504845e-001 2.169419e-001 -1.000000e+000
      endloop
   endfacet
   facet normal -9.552376e-001 -2.958396e-001 0.000000e+000
      outer loop
         vertex 4.504845e-001 2.169419e-001 -1.000000e+000
         vertex 4.504845e-001 2.169419e-001 -2.000000e+000
         vertex 5.000000e-001 6.123032e-017 -2.000000e+000
      endloop
   endfacet
   facet normal -9.889994e-001 -1.479198e-001 0.000000e+000
      outer loop
         vertex 4.504845e-001 2.169419e-001 -1.000000e+000
         vertex 5.000000e-001 6.123032e-017 -2.000000e+000
         vertex 5.000000e-001 6.123032e-017 -1.000000e+000
      endloop
   endfacet
   facet normal -9.889994e-001 1.479198e-001 0.000000e+000
      outer loop
         vertex 5.000000e-001 6.123032e-017 -1.000000e+000
         vertex 5.000000e-001 6.123032e-017 -2.000000e+000
         vertex 4.504845e-001 -2.169419e-001 -2.000000e+000
      endloop
   endfacet
   facet normal -9.552376e-001 2.958396e-001 0.000000e+000
      outer loop
         vertex 5.000000e-001 6.123032e-017 -1.000000e+000
         vertex 4.504845e-001 -2.169419e-001 -2.000000e+000
         vertex 4.504845e-001 -2.169419e-001 -1.000000e+000
      endloop
   endfacet
   facet normal -8.268777e-001 5.623819e-001 0.000000e+000
      outer loop
         vertex 4.504845e-001 -2.169419e-001 -1.000000e+000
         vertex 4.504845e-001 -2.169419e-001 -2.000000e+000
         vertex 3.117449e-001 -3.909158e-001 -2.000000e+000
      endloop
   endfacet
   facet normal -7.322794e-001 6.810043e-001 0.000000e+000
      outer loop
         vertex 4.504845e-001 -2.169419e-001 -1.000000e+000
         vertex 3.117449e-001 -3.909158e-001 -2.000000e+000
         vertex 3.117449e-001 -3.909158e-001 -1.000000e+000
      endloop
   endfacet
   facet normal -5.009826e-001 8.654573e-001 0.000000e+000
      outer loop
         vertex 3.117449e-001 -3.909158e-001 -1.000000e+000
         vertex 3.117449e-001 -3.909158e-001 -2.000000e+000
         vertex 1.112605e-001 -4.874640e-001 -2.000000e+000
      endloop
   endfacet
   facet normal -3.642842e-001 9.312878e-001 0.000000e+000
      outer loop
         vertex 3.117449e-001 -3.909158e-001 -1.000000e+000
         vertex 1.112605e-001 -4.874640e-001 -2.000000e+000
         vertex 1.112605e-001 -4.874640e-001 -1.000000e+000
      endloop
   endfacet
   facet normal -7.586192e-002 9.971184e-001 0.000000e+000
      outer loop
         vertex 1.112605e-001 -4.874640e-001 -1.000000e+000
         vertex 1.112605e-001 -4.874640e-001 -2.000000e+000
         vertex -1.112605e-001 -4.874640e-001 -2.000000e+000
      endloop
   endfacet
   facet normal 7.586192e-002 9.971184e-001 0.000000e+000
      outer loop
         vertex 1.112605e-001 -4.874640e-001 -1.000000e+000
         vertex -1.112605e-001 -4.874640e-001 -2.000000e+000
         vertex -1.112605e-001 -4.874640e-001 -1.000000e+000
      endloop
   endfacet
   facet normal 3.642842e-001 9.312878e-001 0.000000e+000
      outer loop
         vertex -1.112605e-001 -4.874640e-001 -1.000000e+000
         vertex -1.112605e-001 -4.874640e-001 -2.000000e+000
         vertex -3.117449e-001 -3.909158e-001 -2.000000e+000
      endloop
   endfacet
   facet normal 5.009826e-001 8.654573e-001 0.000000e+000
      outer loop
         vertex -1.112605e-001 -4.874640e-001 -1.000000e+000
         vertex -3.117449e-001 -3.909158e-001 -2.000000e+000
         vertex -3.117449e-001 -3.909158e-001 -1.000000e+000
      endloop
   endfacet
   facet normal 7.322794e-001 6.810043e-001 0.000000e+000
      outer loop
         vertex -3.117449e-001 -3.909158e-001 -1.000000e+000
         vertex -3.117449e-001 -3.909158e-001 -2.000000e+000
         vertex -4.504845e-001 -2.169419e-001 -2.000000e+000
      endloop
   endfacet
   facet normal 8.268777e-001 5.623819e-001 0.000000e+000
      outer loop
         vertex -3.117449e-001 -3.909158e-001 -1.000000e+000
         vertex -4.504845e-001 -2.169419e-001 -2.000000e+000
         vertex -4.504845e-001 -2.169419e-001 -1.000000e+000
      endloop
   endfacet
   facet normal 9.552376e-001 2.958396e-001 0.000000e+000
      outer loop
         vertex -4.504845e-001 -2.169419e-001 -1.000000e+000
         vertex -4.504845e-001 -2.169419e-001 -2.000000e+000
         vertex -5.000000e-001 -1.224606e-016 -2.000000e+000
      endloop
   endfacet
   facet normal 0.000000e+000 0.000000e+000 1.000000e+000
      outer loop
         vertex 4.504845e-001 2.169419e-001 2.000000e+000
         vertex 5.000000e-001 1.836909e-016 2.000000e+000
         vertex 1.486670e+000 1.995322e-001 2.000000e+000
      endloop
   endfacet
   facet normal 0.000000e+000 0.000000e+000 1.000000e+000
      outer loop
         vertex -2.000000e+000 5.000000e-001 2.000000e+000
         vertex -2.000000e+000 -5.000000e-001 2.000000e+000
         vertex -1.414214e+000 5.000000e-001 2.000000e+000
      endloop
   endfacet
   facet normal 0.000000e+000 0.000000e+000 1.000000e+000
      outer loop
         vertex -1.414214e+000 5.000000e-001 2.000000e+000
         vertex -2.000000e+000 -5.000000e-001 2.000000e+000
         vertex -1.414214e+000 -5.000000e-001 2.000000e+000
      endloop
   endfacet
   facet normal 0.000000e+000 0.000000e+000 1.000000e+000
      outer loop
         vertex 1.486670e+000 1.995322e-001 2.000000e+000
         vertex 5.000000e-001 1.836909e-016 2.000000e+000
         vertex 1.486670e+000 -1.995322e-001 2.000000e+000
      endloop
   endfacet
   facet normal 0.000000e+000 0.000000e+000 1.000000e+000
      outer loop
         vertex 1.486670e+000 -1.995322e-001 2.000000e+000
         vertex 5.000000e-001 1.836909e-016 2.000000e+000
         vertex 4.504845e-001 -2.169419e-001 2.000000e+000
      endloop
   endfacet
   facet normal 0.000000e+000 0.000000e+000 1.000000e+000
      outer loop
         vertex 1.486670e+000 -1.995322e-001 2.000000e+000
         vertex 4.504845e-001 -2.169419e-001 2.000000e+000
         vertex 1.381445e+000 -5.844740e-001 2.000000e+000
      endloop
   endfacet
   facet normal 0.000000e+000 0.000000e+000 1.000000e+000
      outer loop
         vertex 1.381445e+000 -5.844740e-001 2.000000e+000
         vertex 4.504845e-001 -2.169419e-001 2.000000e+000
         vertex 1.178443e+000 -9.280474e-001 2.000000e+000
      endloop
   endfacet
   facet normal 0.000000e+000 0.000000e+000 1.000000e+000
      outer loop
         vertex 1.178443e+000 -9.280474e-001 2.000000e+000
         vertex 4.504845e-001 -2.169419e-001 2.000000e+000
         vertex 3.117449e-001 -3.909158e-001 2.000000e+000
      endloop
   endfacet
   facet normal 0.000000e+000 0.000000e+000 1.000000e+000
      outer loop
         vertex 1.178443e+000 -9.280474e-001 2.000000e+000
         vertex 3.117449e-001 -3.909158e-001 2.000000e+000
         vertex 8.920323e-001 -1.205935e+000 2.000000e+000
      endloop
   endfacet
   facet normal 0.000000e+000 0.000000e+000 1.000000e+000
      outer loop
         vertex -4.504845e-001 -2.169419e-001 2.000000e+000
         vertex -1.414214e+000 5.000000e-001 2.000000e+000
         vertex -3.117449e-001 -3.909158e-001 2.000000e+000
      endloop
   endfacet
   facet normal 0.000000e+000 0.000000e+000 1.000000e+000
      outer loop
         vertex -3.117449e-001 -3.909158e-001 2.000000e+000
         vertex -1.414214e+000 5.000000e-001 2.000000e+000
         vertex -2.443421e-001 -1.479965e+000 2.000000e+000
      endloop
   endfacet
   facet normal 0.000000e+000 0.000000e+000 1.000000e+000
      outer loop
         vertex -6.259303e-001 -1.363162e+000 2.000000e+000
         vertex -2.443421e-001 -1.479965e+000 2.000000e+000
         vertex -9.632158e-001 -1.149876e+000 2.000000e+000
      endloop
   endfacet
   facet normal 0.000000e+000 0.000000e+000 1.000000e+000
      outer loop
         vertex -9.632158e-001 -1.149876e+000 2.000000e+000
         vertex -2.443421e-001 -1.479965e+000 2.000000e+000
         vertex -1.414214e+000 5.000000e-001 2.000000e+000
      endloop
   endfacet
   facet normal 0.000000e+000 0.000000e+000 1.000000e+000
      outer loop
         vertex -9.632158e-001 -1.149876e+000 2.000000e+000
         vertex -1.414214e+000 5.000000e-001 2.000000e+000
         vertex -1.232326e+000 -8.552033e-001 2.000000e+000
      endloop
   endfacet
   facet normal 0.000000e+000 0.000000e+000 1.000000e+000
      outer loop
         vertex -1.232326e+000 -8.552033e-001 2.000000e+000
         vertex -1.414214e+000 5.000000e-001 2.000000e+000
         vertex -1.414214e+000 -5.000000e-001 2.000000e+000
      endloop
   endfacet
   facet normal 0.000000e+000 0.000000e+000 1.000000e+000
      outer loop
         vertex 8.920323e-001 -1.205935e+000 2.000000e+000
         vertex 3.117449e-001 -3.909158e-001 2.000000e+000
         vertex 5.424845e-001 -1.398467e+000 2.000000e+000
      endloop
   endfacet
   facet normal 0.000000e+000 0.000000e+000 1.000000e+000
      outer loop
         vertex 5.424845e-001 -1.398467e+000 2.000000e+000
         vertex 3.117449e-001 -3.909158e-001 2.000000e+000
         vertex 1.112605e-001 -4.874640e-001 2.000000e+000
      endloop
   endfacet
   facet normal 0.000000e+000 0.000000e+000 1.000000e+000
      outer loop
         vertex 5.424845e-001 -1.398467e+000 2.000000e+000
         vertex 1.112605e-001 -4.874640e-001 2.000000e+000
         vertex 1.545403e-001 -1.492018e+000 2.000000e+000
      endloop
   endfacet
   facet normal 0.000000e+000 0.000000e+000 1.000000e+000
      outer loop
         vertex 1.545403e-001 -1.492018e+000 2.000000e+000
         vertex 1.112605e-001 -4.874640e-001 2.000000e+000
         vertex -2.443421e-001 -1.479965e+000 2.000000e+000
      endloop
   endfacet
   facet normal 0.000000e+000 0.000000e+000 1.000000e+000
      outer loop
         vertex -2.443421e-001 -1.479965e+000 2.000000e+000
         vertex 1.112605e-001 -4.874640e-001 2.000000e+000
         vertex -1.112605e-001 -4.874640e-001 2.000000e+000
      endloop
   endfacet
   facet normal 0.000000e+000 0.000000e+000 1.000000e+000
      outer loop
         vertex -2.443421e-001 -1.479965e+000 2.000000e+000
         vertex -1.112605e-001 -4.874640e-001 2.000000e+000
         vertex -3.117449e-001 -3.909158e-001 2.000000e+000
      endloop
   endfacet
   facet normal 0.000000e+000 0.000000e+000 1.000000e+000
      outer loop
         vertex 1.486670e+000 1.995322e-001 2.000000e+000
         vertex 1.381445e+000 5.844740e-001 2.000000e+000
         vertex 4.504845e-001 2.169419e-001 2.000000e+000
      endloop
   endfacet
   facet normal 0.000000e+000 0.000000e+000 1.000000e+000
      outer loop
         vertex 4.504845e-001 2.169419e-001 2.000000e+000
         vertex 1.381445e+000 5.844740e-001 2.000000e+000
         vertex 1.178443e+000 9.280474e-001 2.000000e+000
      endloop
   endfacet
   facet normal 0.000000e+000 0.000000e+000 1.000000e+000
      outer loop
         vertex 4.504845e-001 2.169419e-001 2.000000e+000
         vertex 1.178443e+000 9.280474e-001 2.000000e+000
         vertex 3.117449e-001 3.909158e-001 2.000000e+000
      endloop
   endfacet
   facet normal 0.000000e+000 0.000000e+000 1.000000e+000
      outer loop
         vertex -4.504845e-001 -2.169419e-001 2.000000e+000
         vertex -5.000000e-001 0.000000e+000 2.000000e+000
         vertex -1.414214e+000 5.000000e-001 2.000000e+000
      endloop
   endfacet
   facet normal 0.000000e+000 0.000000e+000 1.000000e+000
      outer loop
         vertex -1.414214e+000 5.000000e-001 2.000000e+000
         vertex -5.000000e-001 0.000000e+000 2.000000e+000
         vertex -4.504845e-001 2.169419e-001 2.000000e+000
      endloop
   endfacet
   facet normal 0.000000e+000 0.000000e+000 1.000000e+000
      outer loop
         vertex -1.414214e+000 5.000000e-001 2.000000e+000
         vertex -4.504845e-001 2.169419e-001 2.000000e+000
         vertex -1.232326e+000 8.552033e-001 2.000000e+000
      endloop
   endfacet
   facet normal 0.000000e+000 0.000000e+000 1.000000e+000
      outer loop
         vertex -1.232326e+000 8.552033e-001 2.000000e+000
         vertex -4.504845e-001 2.169419e-001 2.000000e+000
         vertex -3.117449e-001 3.909158e-001 2.000000e+000
      endloop
   endfacet
   facet normal 0.000000e+000 0.000000e+000 1.000000e+000
      outer loop
         vertex 1.178443e+000 9.280474e-001 2.000000e+000
         vertex 8.920323e-001 1.205935e+000 2.000000e+000
         vertex 3.117449e-001 3.909158e-001 2.000000e+000
      endloop
   endfacet
   facet normal 0.000000e+000 0.000000e+000 1.000000e+000
      outer loop
         vertex 3.117449e-001 3.909158e-001 2.000000e+000
         vertex 8.920323e-001 1.205935e+000 2.000000e+000
         vertex 5.424845e-001 1.398467e+000 2.000000e+000
      endloop
   endfacet
   facet normal 0.000000e+000 0.000000e+000 1.000000e+000
      outer loop
         vertex 3.117449e-001 3.909158e-001 2.000000e+000
         vertex 5.424845e-001 1.398467e+000 2.000000e+000
         vertex 1.112605e-001 4.874640e-001 2.000000e+000
      endloop
   endfacet
   facet normal 0.000000e+000 0.000000e+000 1.000000e+000
      outer loop
         vertex 1.112605e-001 4.874640e-001 2.000000e+000
         vertex 5.424845e-001 1.398467e+000 2.000000e+000
         vertex 1.545403e-001 1.492018e+000 2.000000e+000
      endloop
   endfacet
   facet normal 0.000000e+000 0.000000e+000 1.000000e+000
      outer loop
         vertex 1.112605e-001 4.874640e-001 2.000000e+000
         vertex 1.545403e-001 1.492018e+000 2.000000e+000
         vertex -1.112605e-001 4.874640e-001 2.000000e+000
      endloop
   endfacet
   facet normal 0.000000e+000 0.000000e+000 1.000000e+000
      outer loop
         vertex 1.545403e-001 1.492018e+000 2.000000e+000
         vertex -2.443421e-001 1.479965e+000 2.000000e+000
         vertex -1.112605e-001 4.874640e-001 2.000000e+000
      endloop
   endfacet
   facet normal 0.000000e+000 0.000000e+000 1.000000e+000
      outer loop
         vertex -1.112605e-001 4.874640e-001 2.000000e+000
         vertex -2.443421e-001 1.479965e+000 2.000000e+000
         vertex -6.259303e-001 1.363162e+000 2.000000e+000
      endloop
   endfacet
   facet normal 0.000000e+000 0.000000e+000 1.000000e+000
      outer loop
         vertex -1.112605e-001 4.874640e-001 2.000000e+000
         vertex -6.259303e-001 1.363162e+000 2.000000e+000
         vertex -3.117449e-001 3.909158e-001 2.000000e+000
      endloop
   endfacet
   facet normal 0.000000e+000 0.000000e+000 1.000000e+000
      outer loop
         vertex -3.117449e-001 3.909158e-001 2.000000e+000
         vertex -6.259303e-001 1.363162e+000 2.000000e+000
         vertex -9.632158e-001 1.149876e+000 2.000000e+000
      endloop
   endfacet
   facet normal 0.000000e+000 0.000000e+000 1.000000e+000
      outer loop
         vertex -3.117449e-001 3.909158e-001 2.000000e+000
         vertex -9.632158e-001 1.149876e+000 2.000000e+000
         vertex -1.232326e+000 8.552033e-001 2.000000e+000
      endloop
   endfacet
   facet normal 0.000000e+000 0.000000e+000 -1.000000e+000
      outer loop
         vertex -1.112605e-001 4.874640e-001 -2.000000e+000
         vertex -3.117449e-001 3.909158e-001 -2.000000e+000
         vertex -2.000000e+000 5.000000e-001 -2.000000e+000
      endloop
   endfacet
   facet normal 0.000000e+000 0.000000e+000 -1.000000e+000
      outer loop
         vertex -2.000000e+000 5.000000e-001 -2.000000e+000
         vertex -3.117449e-001 3.909158e-001 -2.000000e+000
         vertex -4.504845e-001 2.169419e-001 -2.000000e+000
      endloop
   endfacet
   facet normal 0.000000e+000 0.000000e+000 -1.000000e+000
      outer loop
         vertex -2.000000e+000 5.000000e-001 -2.000000e+000
         vertex -4.504845e-001 2.169419e-001 -2.000000e+000
         vertex -2.000000e+000 -5.000000e-001 -2.000000e+000
      endloop
   endfacet
   facet normal 0.000000e+000 0.000000e+000 -1.000000e+000
      outer loop
         vertex -2.000000e+000 -5.000000e-001 -2.000000e+000
         vertex -4.504845e-001 2.169419e-001 -2.000000e+000
         vertex -5.000000e-001 0.000000e+000 -2.000000e+000
      endloop
   endfacet
   facet normal 0.000000e+000 0.000000e+000 -1.000000e+000
      outer loop
         vertex -2.000000e+000 -5.000000e-001 -2.000000e+000
         vertex -5.000000e-001 0.000000e+000 -2.000000e+000
         vertex -1.414214e+000 -5.000000e-001 -2.000000e+000
      endloop
   endfacet
   facet normal 0.000000e+000 0.000000e+000 -1.000000e+000
      outer loop
         vertex -1.414214e+000 -5.000000e-001 -2.000000e+000
         vertex -5.000000e-001 0.000000e+000 -2.000000e+000
         vertex -4.504845e-001 -2.169419e-001 -2.000000e+000
      endloop
   endfacet
   facet normal 0.000000e+000 0.000000e+000 -1.000000e+000
      outer loop
         vertex -1.414214e+000 -5.000000e-001 -2.000000e+000
         vertex -4.504845e-001 -2.169419e-001 -2.000000e+000
         vertex -1.232326e+000 -8.552033e-001 -2.000000e+000
      endloop
   endfacet
   facet normal 0.000000e+000 0.000000e+000 -1.000000e+000
      outer loop
         vertex -1.232326e+000 -8.552033e-001 -2.000000e+000
         vertex -4.504845e-001 -2.169419e-001 -2.000000e+000
         vertex -3.117449e-001 -3.909158e-001 -2.000000e+000
      endloop
   endfacet
   facet normal 0.000000e+000 0.000000e+000 -1.000000e+000
      outer loop
         vertex -1.112605e-001 4.874640e-001 -2.000000e+000
         vertex -2.000000e+000 5.000000e-001 -2.000000e+000
         vertex 1.112605e-001 4.874640e-001 -2.000000e+000
      endloop
   endfacet
   facet normal 0.000000e+000 0.000000e+000 -1.000000e+000
      outer loop
         vertex 1.112605e-001 4.874640e-001 -2.000000e+000
         vertex -2.000000e+000 5.000000e-001 -2.000000e+000
         vertex -1.414214e+000 5.000000e-001 -2.000000e+000
      endloop
   endfacet
   facet normal 0.000000e+000 0.000000e+000 -1.000000e+000
      outer loop
         vertex 1.112605e-001 4.874640e-001 -2.000000e+000
         vertex -1.414214e+000 5.000000e-001 -2.000000e+000
         vertex -2.443421e-001 1.479965e+000 -2.000000e+000
      endloop
   endfacet
   facet normal 0.000000e+000 0.000000e+000 -1.000000e+000
      outer loop
         vertex -2.443421e-001 1.479965e+000 -2.000000e+000
         vertex -1.414214e+000 5.000000e-001 -2.000000e+000
         vertex -6.259303e-001 1.363162e+000 -2.000000e+000
      endloop
   endfacet
   facet normal 0.000000e+000 0.000000e+000 -1.000000e+000
      outer loop
         vertex -6.259303e-001 1.363162e+000 -2.000000e+000
         vertex -1.414214e+000 5.000000e-001 -2.000000e+000
         vertex -1.232326e+000 8.552033e-001 -2.000000e+000
      endloop
   endfacet
   facet normal 0.000000e+000 0.000000e+000 -1.000000e+000
      outer loop
         vertex -6.259303e-001 1.363162e+000 -2.000000e+000
         vertex -1.232326e+000 8.552033e-001 -2.000000e+000
         vertex -9.632158e-001 1.149876e+000 -2.000000e+000
      endloop
   endfacet
   facet normal 0.000000e+000 0.000000e+000 -1.000000e+000
      outer loop
         vertex -1.112605e-001 -4.874640e-001 -2.000000e+000
         vertex -6.259303e-001 -1.363162e+000 -2.000000e+000
         vertex -3.117449e-001 -3.909158e-001 -2.000000e+000
      endloop
   endfacet
   facet normal 0.000000e+000 0.000000e+000 -1.000000e+000
      outer loop
         vertex -3.117449e-001 -3.909158e-001 -2.000000e+000
         vertex -6.259303e-001 -1.363162e+000 -2.000000e+000
         vertex -9.632158e-001 -1.149876e+000 -2.000000e+000
      endloop
   endfacet
   facet normal 0.000000e+000 0.000000e+000 -1.000000e+000
      outer loop
         vertex -3.117449e-001 -3.909158e-001 -2.000000e+000
         vertex -9.632158e-001 -1.149876e+000 -2.000000e+000
         vertex -1.232326e+000 -8.552033e-001 -2.000000e+000
      endloop
   endfacet
   facet normal 0.000000e+000 0.000000e+000 -1.000000e+000
      outer loop
         vertex 3.117449e-001 -3.909158e-001 -2.000000e+000
         vertex 5.424845e-001 -1.398467e+000 -2.000000e+000
         vertex 1.112605e-001 -4.874640e-001 -2.000000e+000
      endloop
   endfacet
   facet normal 0.000000e+000 0.000000e+000 -1.000000e+000
      outer loop
         vertex 1.112605e-001 -4.874640e-001 -2.000000e+000
         vertex 5.424845e-001 -1.398467e+000 -2.000000e+000
         vertex 1.545403e-001 -1.492018e+000 -2.000000e+000
      endloop
   endfacet
   facet normal 0.000000e+000 0.000000e+000 -1.000000e+000
      outer loop
         vertex 1.112605e-001 -4.874640e-001 -2.000000e+000
         vertex 1.545403e-001 -1.492018e+000 -2.000000e+000
         vertex -1.112605e-001 -4.874640e-001 -2.000000e+000
      endloop
   endfacet
   facet normal 0.000000e+000 0.000000e+000 -1.000000e+000
      outer loop
         vertex -1.112605e-001 -4.874640e-001 -2.000000e+000
         vertex 1.545403e-001 -1.492018e+000 -2.000000e+000
         vertex -2.443421e-001 -1.479965e+000 -2.000000e+000
      endloop
   endfacet
   facet normal 0.000000e+000 0.000000e+000 -1.000000e+000
      outer loop
         vertex -1.112605e-001 -4.874640e-001 -2.000000e+000
         vertex -2.443421e-001 -1.479965e+000 -2.000000e+000
         vertex -6.259303e-001 -1.363162e+000 -2.000000e+000
      endloop
   endfacet
   facet normal 0.000000e+000 0.000000e+000 -1.000000e+000
      outer loop
         vertex 3.117449e-001 3.909158e-001 -2.000000e+000
         vertex 1.178443e+000 9.280474e-001 -2.000000e+000
         vertex 4.504845e-001 2.169419e-001 -2.000000e+000
      endloop
   endfacet
   facet normal 0.000000e+000 0.000000e+000 -1.000000e+000
      outer loop
         vertex 4.504845e-001 2.169419e-001 -2.000000e+000
         vertex 1.178443e+000 9.280474e-001 -2.000000e+000
         vertex 1.381445e+000 5.844740e-001 -2.000000e+000
      endloop
   endfacet
   facet normal 0.000000e+000 0.000000e+000 -1.000000e+000
      outer loop
         vertex 4.504845e-001 2.169419e-001 -2.000000e+000
         vertex 1.381445e+000 5.844740e-001 -2.000000e+000
         vertex 5.000000e-001 6.123032e-017 -2.000000e+000
      endloop
   endfacet
   facet normal 0.000000e+000 0.000000e+000 -1.000000e+000
      outer loop
         vertex -2.443421e-001 1.479965e+000 -2.000000e+000
         vertex 1.545403e-001 1.492018e+000 -2.000000e+000
         vertex 1.112605e-001 4.874640e-001 -2.000000e+000
      endloop
   endfacet
   facet normal 0.000000e+000 0.000000e+000 -1.000000e+000
      outer loop
         vertex 1.112605e-001 4.874640e-001 -2.000000e+000
         vertex 1.545403e-001 1.492018e+000 -2.000000e+000
         vertex 5.424845e-001 1.398467e+000 -2.000000e+000
      endloop
   endfacet
   facet normal 0.000000e+000 0.000000e+000 -1.000000e+000
      outer loop
         vertex 1.112605e-001 4.874640e-001 -2.000000e+000
         vertex 5.424845e-001 1.398467e+000 -2.000000e+000
         vertex 3.117449e-001 3.909158e-001 -2.000000e+000
      endloop
   endfacet
   facet normal 0.000000e+000 0.000000e+000 -1.000000e+000
      outer loop
         vertex 3.117449e-001 3.909158e-001 -2.000000e+000
         vertex 5.424845e-001 1.398467e+000 -2.000000e+000
         vertex 8.920323e-001 1.205935e+000 -2.000000e+000
      endloop
   endfacet
   facet normal 0.000000e+000 0.000000e+000 -1.000000e+000
      outer loop
         vertex 3.117449e-001 3.909158e-001 -2.000000e+000
         vertex 8.920323e-001 1.205935e+000 -2.000000e+000
         vertex 1.178443e+000 9.280474e-001 -2.000000e+000
      endloop
   endfacet
   facet normal 0.000000e+000 0.000000e+000 -1.000000e+000
      outer loop
         vertex 4.504845e-001 -2.169419e-001 -2.000000e+000
         vertex 1.178443e+000 -9.280474e-001 -2.000000e+000
         vertex 3.117449e-001 -3.909158e-001 -2.000000e+000
      endloop
   endfacet
   facet normal 0.000000e+000 0.000000e+000 -1.000000e+000
      outer loop
         vertex 3.117449e-001 -3.909158e-001 -2.000000e+000
         vertex 1.178443e+000 -9.280474e-001 -2.000000e+000
         vertex 8.920323e-001 -1.205935e+000 -2.000000e+000
      endloop
   endfacet
   facet normal 0.000000e+000 0.000000e+000 -1.000000e+000
      outer loop
         vertex 3.117449e-001 -3.909158e-001 -2.000000e+000
         vertex 8.920323e-001 -1.205935e+000 -2.000000e+000
         vertex 5.424845e-001 -1.398467e+000 -2.000000e+000
      endloop
   endfacet
   facet normal 0.000000e+000 0.000000e+000 -1.000000e+000
      outer loop
         vertex 1.381445e+000 5.844740e-001 -2.000000e+000
         vertex 1.486670e+000 1.995322e-001 -2.000000e+000
         vertex 5.000000e-001 6.123032e-017 -2.000000e+000
      endloop
   endfacet
   facet normal 0.000000e+000 0.000000e+000 -1.000000e+000
      outer loop
         vertex 5.000000e-001 6.123032e-017 -2.000000e+000
         vertex 1.486670e+000 1.995322e-001 -2.000000e+000
         vertex 1.486670e+000 -1.995322e-001 -2.000000e+000
      endloop
   endfacet
   facet normal 0.000000e+000 0.000000e+000 -1.000000e+000
      outer loop
         vertex 5.000000e-001 6.123032e-017 -2.000000e+000
         vertex 1.486670e+000 -1.995322e-001 -2.000000e+000
         vertex 4.504845e-001 -2.169419e-001 -2.000000e+000
      endloop
   endfacet
   facet normal 0.000000e+000 0.000000e+000 -1.000000e+000
      outer loop
         vertex 4.504845e-001 -2.169419e-001 -2.000000e+000
         vertex 1.486670e+000 -1.995322e-001 -2.000000e+000
         vertex 1.381445e+000 -5.844740e-001 -2.000000e+000
      endloop
   endfacet
   facet normal 0.000000e+000 0.000000e+000 -1.000000e+000
      outer loop
         vertex 4.504845e-001 -2.169419e-001 -2.000000e+000
         vertex 1.381445e+000 -5.844740e-001 -2.000000e+000
         vertex 1.178443e+000 -9.280474e-001 -2.000000e+000
      endloop
   endfacet
   facet normal -9.095711e-001 -4.155484e-001 0.000000e+000
      outer loop
         vertex -1.414214e+000 -5.000000e-001 2.000000e+000
         vertex -1.414214e+000 -5.000000e-001 1.000000e+000
         vertex -1.232326e+000 -8.552033e-001 1.000000e+000
      endloop
   endfacet
   facet normal -8.688300e-001 -4.951106e-001 0.000000e+000
      outer loop
         vertex -1.414214e+000 -5.000000e-001 2.000000e+000
         vertex -1.232326e+000 -8.552033e-001 1.000000e+000
         vertex -1.232326e+000 -8.552033e-001 2.000000e+000
      endloop
   endfacet
   facet normal -7.678106e-001 -6.406769e-001 0.000000e+000
      outer loop
         vertex -1.232326e+000 -8.552033e-001 2.000000e+000
         vertex -1.232326e+000 -8.552033e-001 1.000000e+000
         vertex -9.632158e-001 -1.149876e+000 1.000000e+000
      endloop
   endfacet
   facet normal -7.075325e-001 -7.066809e-001 0.000000e+000
      outer loop
         vertex -1.232326e+000 -8.552033e-001 2.000000e+000
         vertex -9.632158e-001 -1.149876e+000 1.000000e+000
         vertex -9.632158e-001 -1.149876e+000 2.000000e+000
      endloop
   endfacet
   facet normal -5.717054e-001 -8.204589e-001 0.000000e+000
      outer loop
         vertex -9.632158e-001 -1.149876e+000 2.000000e+000
         vertex -9.632158e-001 -1.149876e+000 1.000000e+000
         vertex -6.259303e-001 -1.363162e+000 1.000000e+000
      endloop
   endfacet
   facet normal -4.961566e-001 -8.682330e-001 0.000000e+000
      outer loop
         vertex -9.632158e-001 -1.149876e+000 2.000000e+000
         vertex -6.259303e-001 -1.363162e+000 1.000000e+000
         vertex -6.259303e-001 -1.363162e+000 2.000000e+000
      endloop
   endfacet
   facet normal -3.351355e-001 -9.421699e-001 0.000000e+000
      outer loop
         vertex -6.259303e-001 -1.363162e+000 2.000000e+000
         vertex -6.259303e-001 -1.363162e+000 1.000000e+000
         vertex -2.443421e-001 -1.479965e+000 1.000000e+000
      endloop
   endfacet
   facet normal -2.496633e-001 -9.683327e-001 0.000000e+000
      outer loop
         vertex -6.259303e-001 -1.363162e+000 2.000000e+000
         vertex -2.443421e-001 -1.479965e+000 1.000000e+000
         vertex -2.443421e-001 -1.479965e+000 2.000000e+000
      endloop
   endfacet
   facet normal -7.484517e-002 -9.971952e-001 0.000000e+000
      outer loop
         vertex -2.443421e-001 -1.479965e+000 2.000000e+000
         vertex -2.443421e-001 -1.479965e+000 1.000000e+000
         vertex 1.545403e-001 -1.492018e+000 1.000000e+000
      endloop
   endfacet
   facet normal 1.450080e-002 -9.998949e-001 0.000000e+000
      outer loop
         vertex -2.443421e-001 -1.479965e+000 2.000000e+000
         vertex 1.545403e-001 -1.492018e+000 1.000000e+000
         vertex 1.545403e-001 -1.492018e+000 2.000000e+000
      endloop
   endfacet
   facet normal 1.907427e-001 -9.816400e-001 0.000000e+000
      outer loop
         vertex 1.545403e-001 -1.492018e+000 2.000000e+000
         vertex 1.545403e-001 -1.492018e+000 1.000000e+000
         vertex 5.424845e-001 -1.398467e+000 1.000000e+000
      endloop
   endfacet
   facet normal 2.776386e-001 -9.606856e-001 0.000000e+000
      outer loop
         vertex 1.545403e-001 -1.492018e+000 2.000000e+000
         vertex 5.424845e-001 -1.398467e+000 1.000000e+000
         vertex 5.424845e-001 -1.398467e+000 2.000000e+000
      endloop
   endfacet
   facet normal 4.428300e-001 -8.966056e-001 0.000000e+000
      outer loop
         vertex 5.424845e-001 -1.398467e+000 2.000000e+000
         vertex 5.424845e-001 -1.398467e+000 1.000000e+000
         vertex 8.920323e-001 -1.205935e+000 1.000000e+000
      endloop
   endfacet
   facet normal 5.211254e-001 -8.534801e-001 0.000000e+000
      outer loop
         vertex 5.424845e-001 -1.398467e+000 2.000000e+000
         vertex 8.920323e-001 -1.205935e+000 1.000000e+000
         vertex 8.920323e-001 -1.205935e+000 2.000000e+000
      endloop
   endfacet
   facet normal 6.635743e-001 -7.481104e-001 0.000000e+000
      outer loop
         vertex 8.920323e-001 -1.205935e+000 2.000000e+000
         vertex 8.920323e-001 -1.205935e+000 1.000000e+000
         vertex 1.178443e+000 -9.280474e-001 1.000000e+000
      endloop
   endfacet
   facet normal 7.277276e-001 -6.858663e-001 0.000000e+000
      outer loop
         vertex 8.920323e-001 -1.205935e+000 2.000000e+000
         vertex 1.178443e+000 -9.280474e-001 1.000000e+000
         vertex 1.178443e+000 -9.280474e-001 2.000000e+000
      endloop
   endfacet
   facet normal 8.373515e-001 -5.466648e-001 0.000000e+000
      outer loop
         vertex 1.178443e+000 -9.280474e-001 2.000000e+000
         vertex 1.178443e+000 -9.280474e-001 1.000000e+000
         vertex 1.381445e+000 -5.844740e-001 1.000000e+000
      endloop
   endfacet
   facet normal 8.828221e-001 -4.697076e-001 0.000000e+000
      outer loop
         vertex 1.178443e+000 -9.280474e-001 2.000000e+000
         vertex 1.381445e+000 -5.844740e-001 1.000000e+000
         vertex 1.381445e+000 -5.844740e-001 2.000000e+000
      endloop
   endfacet
   facet normal 9.518620e-001 -3.065269e-001 0.000000e+000
      outer loop
         vertex 1.381445e+000 -5.844740e-001 2.000000e+000
         vertex 1.381445e+000 -5.844740e-001 1.000000e+000
         vertex 1.486670e+000 -1.995322e-001 1.000000e+000
      endloop
   endfacet
   facet normal 9.754314e-001 -2.203035e-001 0.000000e+000
      outer loop
         vertex 1.381445e+000 -5.844740e-001 2.000000e+000
         vertex 1.486670e+000 -1.995322e-001 1.000000e+000
         vertex 1.486670e+000 -1.995322e-001 2.000000e+000
      endloop
   endfacet
   facet normal 9.990008e-001 -4.469337e-002 0.000000e+000
      outer loop
         vertex 1.486670e+000 -1.995322e-001 2.000000e+000
         vertex 1.486670e+000 -1.995322e-001 1.000000e+000
         vertex 1.486670e+000 1.995322e-001 1.000000e+000
      endloop
   endfacet
   facet normal 9.990008e-001 4.469337e-002 0.000000e+000
      outer loop
         vertex 1.486670e+000 -1.995322e-001 2.000000e+000
         vertex 1.486670e+000 1.995322e-001 1.000000e+000
         vertex 1.486670e+000 1.995322e-001 2.000000e+000
      endloop
   endfacet
   facet normal 9.754314e-001 2.203035e-001 0.000000e+000
      outer loop
         vertex 1.486670e+000 1.995322e-001 2.000000e+000
         vertex 1.486670e+000 1.995322e-001 1.000000e+000
         vertex 1.381445e+000 5.844740e-001 1.000000e+000
      endloop
   endfacet
   facet normal 9.518620e-001 3.065269e-001 0.000000e+000
      outer loop
         vertex 1.486670e+000 1.995322e-001 2.000000e+000
         vertex 1.381445e+000 5.844740e-001 1.000000e+000
         vertex 1.381445e+000 5.844740e-001 2.000000e+000
      endloop
   endfacet
   facet normal 8.828221e-001 4.697076e-001 0.000000e+000
      outer loop
         vertex 1.381445e+000 5.844740e-001 2.000000e+000
         vertex 1.381445e+000 5.844740e-001 1.000000e+000
         vertex 1.178443e+000 9.280474e-001 1.000000e+000
      endloop
   endfacet
   facet normal 8.373515e-001 5.466648e-001 0.000000e+000
      outer loop
         vertex 1.381445e+000 5.844740e-001 2.000000e+000
         vertex 1.178443e+000 9.280474e-001 1.000000e+000
         vertex 1.178443e+000 9.280474e-001 2.000000e+000
      endloop
   endfacet
   facet normal 7.277276e-001 6.858663e-001 0.000000e+000
      outer loop
         vertex 1.178443e+000 9.280474e-001 2.000000e+000
         vertex 1.178443e+000 9.280474e-001 1.000000e+000
         vertex 8.920323e-001 1.205935e+000 1.000000e+000
      endloop
   endfacet
   facet normal 6.635743e-001 7.481104e-001 0.000000e+000
      outer loop
         vertex 1.178443e+000 9.280474e-001 2.000000e+000
         vertex 8.920323e-001 1.205935e+000 1.000000e+000
         vertex 8.920323e-001 1.205935e+000 2.000000e+000
      endloop
   endfacet
   facet normal 5.211254e-001 8.534801e-001 0.000000e+000
      outer loop
         vertex 8.920323e-001 1.205935e+000 2.000000e+000
         vertex 8.920323e-001 1.205935e+000 1.000000e+000
         vertex 5.424845e-001 1.398467e+000 1.000000e+000
      endloop
   endfacet
   facet normal 4.428300e-001 8.966056e-001 0.000000e+000
      outer loop
         vertex 8.920323e-001 1.205935e+000 2.000000e+000
         vertex 5.424845e-001 1.398467e+000 1.000000e+000
         vertex 5.424845e-001 1.398467e+000 2.000000e+000
      endloop
   endfacet
   facet normal 2.776386e-001 9.606856e-001 0.000000e+000
      outer loop
         vertex 5.424845e-001 1.398467e+000 2.000000e+000
         vertex 5.424845e-001 1.398467e+000 1.000000e+000
         vertex 1.545403e-001 1.492018e+000 1.000000e+000
      endloop
   endfacet
   facet normal 1.907427e-001 9.816400e-001 0.000000e+000
      outer loop
         vertex 5.424845e-001 1.398467e+000 2.000000e+000
         vertex 1.545403e-001 1.492018e+000 1.000000e+000
         vertex 1.545403e-001 1.492018e+000 2.000000e+000
      endloop
   endfacet
   facet normal 1.450080e-002 9.998949e-001 0.000000e+000
      outer loop
         vertex 1.545403e-001 1.492018e+000 2.000000e+000
         vertex 1.545403e-001 1.492018e+000 1.000000e+000
         vertex -2.443421e-001 1.479965e+000 1.000000e+000
      endloop
   endfacet
   facet normal -7.484517e-002 9.971952e-001 0.000000e+000
      outer loop
         vertex 1.545403e-001 1.492018e+000 2.000000e+000
         vertex -2.443421e-001 1.479965e+000 1.000000e+000
         vertex -2.443421e-001 1.479965e+000 2.000000e+000
      endloop
   endfacet
   facet normal -2.496633e-001 9.683327e-001 0.000000e+000
      outer loop
         vertex -2.443421e-001 1.479965e+000 2.000000e+000
         vertex -2.443421e-001 1.479965e+000 1.000000e+000
         vertex -6.259303e-001 1.363162e+000 1.000000e+000
      endloop
   endfacet
   facet normal -3.351355e-001 9.421699e-001 0.000000e+000
      outer loop
         vertex -2.443421e-001 1.479965e+000 2.000000e+000
         vertex -6.259303e-001 1.363162e+000 1.000000e+000
         vertex -6.259303e-001 1.363162e+000 2.000000e+000
      endloop
   endfacet
   facet normal -4.961566e-001 8.682330e-001 0.000000e+000
      outer loop
         vertex -6.259303e-001 1.363162e+000 2.000000e+000
         vertex -6.259303e-001 1.363162e+000 1.000000e+000
         vertex -9.632158e-001 1.149876e+000 1.000000e+000
      endloop
   endfacet
   facet normal -5.717054e-001 8.204589e-001 0.000000e+000
      outer loop
         vertex -6.259303e-001 1.363162e+000 2.000000e+000
         vertex -9.632158e-001 1.149876e+000 1.000000e+000
         vertex -9.632158e-001 1.149876e+000 2.000000e+000
      endloop
   endfacet
   facet normal -7.075325e-001 7.066809e-001 0.000000e+000
      outer loop
         vertex -9.632158e-001 1.149876e+000 2.000000e+000
         vertex -9.632158e-001 1.149876e+000 1.000000e+000
         vertex -1.232326e+000 8.552033e-001 1.000000e+000
      endloop
   endfacet
   facet normal -7.678106e-001 6.406769e-001 0.000000e+000
      outer loop
         vertex -9.632158e-001 1.149876e+000 2.000000e+000
         vertex -1.232326e+000 8.552033e-001 1.000000e+000
         vertex -1.232326e+000 8.552033e-001 2.000000e+000
      endloop
   endfacet
   facet normal -8.688300e-001 4.951106e-001 0.000000e+000
      outer loop
         vertex -1.232326e+000 8.552033e-001 2.000000e+000
         vertex -1.232326e+000 8.552033e-001 1.000000e+000
         vertex -1.414214e+000 5.000000e-001 1.000000e+000
      endloop
   endfacet
   facet normal -9.095711e-001 4.155484e-001 0.000000e+000
      outer loop
         vertex -1.232326e+000 8.552033e-001 2.000000e+000
         vertex -1.414214e+000 5.000000e-001 1.000000e+000
         vertex -1.414214e+000 5.000000e-001 2.000000e+000
      endloop
   endfacet
   facet normal -1.341738e-016 1.000000e+000 0.000000e+000
      outer loop
         vertex -1.414214e+000 5.000000e-001 -1.000000e+000
         vertex -1.414214e+000 5.000000e-001 -2.000000e+000
         vertex -1.500000e+000 5.000000e-001 -1.000000e+000
      endloop
   endfacet
   facet normal -1.341738e-016 1.000000e+000 0.000000e+000
      outer loop
         vertex -1.500000e+000 5.000000e-001 -1.000000e+000
         vertex -1.414214e+000 5.000000e-001 -2.000000e+000
         vertex -2.000000e+000 5.000000e-001 -2.000000e+000
      endloop
   endfacet
   facet normal -1.341738e-016 1.000000e+000 0.000000e+000
      outer loop
         vertex -1.500000e+000 5.000000e-001 -1.000000e+000
         vertex -2.000000e+000 5.000000e-001 -2.000000e+000
         vertex -1.500000e+000 5.000000e-001 1.000000e+000
      endloop
   endfacet
   facet normal -1.341738e-016 1.000000e+000 0.000000e+000
      outer loop
         vertex -1.500000e+000 5.000000e-001 1.000000e+000
         vertex -2.000000e+000 5.000000e-001 -2.000000e+000
         vertex -2.000000e+000 5.000000e-001 -5.000000e-001
      endloop
   endfacet
   facet normal -1.341738e-016 1.000000e+000 0.000000e+000
      outer loop
         vertex -4.000000e+000 5.000000e-001 -5.000000e-001
         vertex -4.000000e+000 5.000000e-001 5.000000e-001
         vertex -2.000000e+000 5.000000e-001 -5.000000e-001
      endloop
   endfacet
   facet normal -1.341738e-016 1.000000e+000 0.000000e+000
      outer loop
         vertex -2.000000e+000 5.000000e-001 -5.000000e-001
         vertex -4.000000e+000 5.000000e-001 5.000000e-001
         vertex -2.000000e+000 5.000000e-001 5.000000e-001
      endloop
   endfacet
   facet normal -1.341738e-016 1.000000e+000 0.000000e+000
      outer loop
         vertex -2.000000e+000 5.000000e-001 -5.000000e-001
         vertex -2.000000e+000 5.000000e-001 5.000000e-001
         vertex -1.500000e+000 5.000000e-001 1.000000e+000
      endloop
   endfacet
   facet normal -1.341738e-016 1.000000e+000 0.000000e+000
      outer loop
         vertex -1.500000e+000 5.000000e-001 1.000000e+000
         vertex -2.000000e+000 5.000000e-001 5.000000e-001
         vertex -2.000000e+000 5.000000e-001 2.000000e+000
      endloop
   endfacet
   facet normal -1.341738e-016 1.000000e+000 0.000000e+000
      outer loop
         vertex -1.500000e+000 5.000000e-001 1.000000e+000
         vertex -2.000000e+000 5.000000e-001 2.000000e+000
         vertex -1.414214e+000 5.000000e-001 1.000000e+000
      endloop
   endfacet
   facet normal -1.341738e-016 1.000000e+000 0.000000e+000
      outer loop
         vertex -1.414214e+000 5.000000e-001 1.000000e+000
         vertex -2.000000e+000 5.000000e-001 2.000000e+000
         vertex -1.414214e+000 5.000000e-001 2.000000e+000
      endloop
   endfacet
   facet normal -1.341738e-016 -1.000000e+000 0.000000e+000
      outer loop
         vertex -1.414214e+000 -5.000000e-001 1.000000e+000
         vertex -1.414214e+000 -5.000000e-001 2.000000e+000
         vertex -1.500000e+000 -5.000000e-001 1.000000e+000
      endloop
   endfacet
   facet normal -1.341738e-016 -1.000000e+000 0.000000e+000
      outer loop
         vertex -1.500000e+000 -5.000000e-001 1.000000e+000
         vertex -1.414214e+000 -5.000000e-001 2.000000e+000
         vertex -2.000000e+000 -5.000000e-001 2.000000e+000
      endloop
   endfacet
   facet normal -1.341738e-016 -1.000000e+000 0.000000e+000
      outer loop
         vertex -1.500000e+000 -5.000000e-001 1.000000e+000
         vertex -2.000000e+000 -5.000000e-001 2.000000e+000
         vertex -1.500000e+000 -5.000000e-001 -1.000000e+000
      endloop
   endfacet
   facet normal -1.341738e-016 -1.000000e+000 0.000000e+000
      outer loop
         vertex -1.500000e+000 -5.000000e-001 -1.000000e+000
         vertex -2.000000e+000 -5.000000e-001 2.000000e+000
         vertex -2.000000e+000 -5.000000e-001 5.000000e-001
      endloop
   endfacet
   facet normal -1.341738e-016 -1.000000e+000 0.000000e+000
      outer loop
         vertex -1.414214e+000 -5.000000e-001 -2.000000e+000
         vertex -1.414214e+000 -5.000000e-001 -1.000000e+000
         vertex -2.000000e+000 -5.000000e-001 -2.000000e+000
      endloop
   endfacet
   facet normal -1.341738e-016 -1.000000e+000 0.000000e+000
      outer loop
         vertex -2.000000e+000 -5.000000e-001 -2.000000e+000
         vertex -1.414214e+000 -5.000000e-001 -1.000000e+000
         vertex -1.500000e+000 -5.000000e-001 -1.000000e+000
      endloop
   endfacet
   facet normal -1.341738e-016 -1.000000e+000 0.000000e+000
      outer loop
         vertex -2.000000e+000 -5.000000e-001 -2.000000e+000
         vertex -1.500000e+000 -5.000000e-001 -1.000000e+000
         vertex -2.000000e+000 -5.000000e-001 -5.000000e-001
      endloop
   endfacet
   facet normal -1.341738e-016 -1.000000e+000 0.000000e+000
      outer loop
         vertex -2.000000e+000 -5.000000e-001 -5.000000e-001
         vertex -1.500000e+000 -5.000000e-001 -1.000000e+000
         vertex -2.000000e+000 -5.000000e-001 5.000000e-001
      endloop
   endfacet
   facet normal -1.341738e-016 -1.000000e+000 0.000000e+000
      outer loop
         vertex -2.000000e+000 -5.000000e-001 -5.000000e-001
         vertex -2.000000e+000 -5.000000e-001 5.000000e-001
         vertex -4.000000e+000 -5.000000e-001 -5.000000e-001
      endloop
   endfacet
   facet normal -1.341738e-016 -1.000000e+000 0.000000e+000
      outer loop
         vertex -4.000000e+000 -5.000000e-001 -5.000000e-001
         vertex -2.000000e+000 -5.000000e-001 5.000000e-001
         vertex -4.000000e+000 -5.000000e-001 5.000000e-001
      endloop
   endfacet
   facet normal 9.889994e-001 1.479198e-001 0.000000e+000
      outer loop
         vertex -4.504845e-001 -2.169419e-001 2.000000e+000
         vertex -5.000000e-001 -1.224606e-016 1.000000e+000
         vertex -5.000000e-001 -1.224606e-016 2.000000e+000
      endloop
   endfacet
   facet normal 9.889994e-001 -1.479198e-001 0.000000e+000
      outer loop
         vertex -5.000000e-001 -1.224606e-016 2.000000e+000
         vertex -5.000000e-001 -1.224606e-016 1.000000e+000
         vertex -4.504845e-001 2.169419e-001 1.000000e+000
      endloop
   endfacet
   facet normal 9.552376e-001 -2.958396e-001 0.000000e+000
      outer loop
         vertex -5.000000e-001 -1.224606e-016 2.000000e+000
         vertex -4.504845e-001 2.169419e-001 1.000000e+000
         vertex -4.504845e-001 2.169419e-001 2.000000e+000
      endloop
   endfacet
   facet normal 8.268777e-001 -5.623819e-001 0.000000e+000
      outer loop
         vertex -4.504845e-001 2.169419e-001 2.000000e+000
         vertex -4.504845e-001 2.169419e-001 1.000000e+000
         vertex -3.117449e-001 3.909158e-001 1.000000e+000
      endloop
   endfacet
   facet normal 7.322794e-001 -6.810043e-001 0.000000e+000
      outer loop
         vertex -4.504845e-001 2.169419e-001 2.000000e+000
         vertex -3.117449e-001 3.909158e-001 1.000000e+000
         vertex -3.117449e-001 3.909158e-001 2.000000e+000
      endloop
   endfacet
   facet normal 5.009826e-001 -8.654573e-001 0.000000e+000
      outer loop
         vertex -3.117449e-001 3.909158e-001 2.000000e+000
         vertex -3.117449e-001 3.909158e-001 1.000000e+000
         vertex -1.112605e-001 4.874640e-001 1.000000e+000
      endloop
   endfacet
   facet normal 3.642842e-001 -9.312878e-001 0.000000e+000
      outer loop
         vertex -3.117449e-001 3.909158e-001 2.000000e+000
         vertex -1.112605e-001 4.874640e-001 1.000000e+000
         vertex -1.112605e-001 4.874640e-001 2.000000e+000
      endloop
   endfacet
   facet normal 7.586192e-002 -9.971184e-001 0.000000e+000
      outer loop
         vertex -1.112605e-001 4.874640e-001 2.000000e+000
         vertex -1.112605e-001 4.874640e-001 1.000000e+000
         vertex 1.112605e-001 4.874640e-001 1.000000e+000
      endloop
   endfacet
   facet normal -7.586192e-002 -9.971184e-001 0.000000e+000
      outer loop
         vertex -1.112605e-001 4.874640e-001 2.000000e+000
         vertex 1.112605e-001 4.874640e-001 1.000000e+000
         vertex 1.112605e-001 4.874640e-001 2.000000e+000
      endloop
   endfacet
   facet normal -3.642842e-001 -9.312878e-001 0.000000e+000
      outer loop
         vertex 1.112605e-001 4.874640e-001 2.000000e+000
         vertex 1.112605e-001 4.874640e-001 1.000000e+000
         vertex 3.117449e-001 3.909158e-001 1.000000e+000
      endloop
   endfacet
   facet normal -5.009826e-001 -8.654573e-001 0.000000e+000
      outer loop
         vertex 1.112605e-001 4.874640e-001 2.000000e+000
         vertex 3.117449e-001 3.909158e-001 1.000000e+000
         vertex 3.117449e-001 3.909158e-001 2.000000e+000
      endloop
   endfacet
   facet normal -7.322794e-001 -6.810043e-001 0.000000e+000
      outer loop
         vertex 3.117449e-001 3.909158e-001 2.000000e+000
         vertex 3.117449e-001 3.909158e-001 1.000000e+000
         vertex 4.504845e-001 2.169419e-001 1.000000e+000
      endloop
   endfacet
   facet normal -8.268777e-001 -5.623819e-001 0.000000e+000
      outer loop
         vertex 3.117449e-001 3.909158e-001 2.000000e+000
         vertex 4.504845e-001 2.169419e-001 1.000000e+000
         vertex 4.504845e-001 2.169419e-001 2.000000e+000
      endloop
   endfacet
   facet normal -9.552376e-001 -2.958396e-001 0.000000e+000
      outer loop
         vertex 4.504845e-001 2.169419e-001 2.000000e+000
         vertex 4.504845e-001 2.169419e-001 1.000000e+000
         vertex 5.000000e-001 6.123032e-017 1.000000e+000
      endloop
   endfacet
   facet normal -9.889994e-001 -1.479198e-001 0.000000e+000
      outer loop
         vertex 4.504845e-001 2.169419e-001 2.000000e+000
         vertex 5.000000e-001 6.123032e-017 1.000000e+000
         vertex 5.000000e-001 6.123032e-017 2.000000e+000
      endloop
   endfacet
   facet normal -9.889994e-001 1.479198e-001 0.000000e+000
      outer loop
         vertex 5.000000e-001 6.123032e-017 2.000000e+000
         vertex 5.000000e-001 6.123032e-017 1.000000e+000
         vertex 4.504845e-001 -2.169419e-001 1.000000e+000
      endloop
   endfacet
   facet normal -9.552376e-001 2.958396e-001 0.000000e+000
      outer loop
         vertex 5.000000e-001 6.123032e-017 2.000000e+000
         vertex 4.504845e-001 -2.169419e-001 1.000000e+000
         vertex 4.504845e-001 -2.169419e-001 2.000000e+000
      endloop
   endfacet
   facet normal -8.268777e-001 5.623819e-001 0.000000e+000
      outer loop
         vertex 4.504845e-001 -2.169419e-001 2.000000e+000
         vertex 4.504845e-001 -2.169419e-001 1.000000e+000
         vertex 3.117449e-001 -3.909158e-001 1.000000e+000
      endloop
   endfacet
   facet normal -7.322794e-001 6.810043e-001 0.000000e+000
      outer loop
         vertex 4.504845e-001 -2.169419e-001 2.000000e+000
         vertex 3.117449e-001 -3.909158e-001 1.000000e+000
         vertex 3.117449e-001 -3.909158e-001 2.000000e+000
      endloop
   endfacet
   facet normal -5.009826e-001 8.654573e-001 0.000000e+000
      outer loop
         vertex 3.117449e-001 -3.909158e-001 2.000000e+000
         vertex 3.117449e-001 -3.909158e-001 1.000000e+000
         vertex 1.112605e-001 -4.874640e-001 1.000000e+000
      endloop
   endfacet
   facet normal -3.642842e-001 9.312878e-001 0.000000e+000
      outer loop
         vertex 3.117449e-001 -3.909158e-001 2.000000e+000
         vertex 1.112605e-001 -4.874640e-001 1.000000e+000
         vertex 1.112605e-001 -4.874640e-001 2.000000e+000
      endloop
   endfacet
   facet normal -7.586192e-002 9.971184e-001 0.000000e+000
      outer loop
         vertex 1.112605e-001 -4.874640e-001 2.000000e+000
         vertex 1.112605e-001 -4.874640e-001 1.000000e+000
         vertex -1.112605e-001 -4.874640e-001 1.000000e+000
      endloop
   endfacet
   facet normal 7.586192e-002 9.971184e-001 0.000000e+000
      outer loop
         vertex 1.112605e-001 -4.874640e-001 2.000000e+000
         vertex -1.112605e-001 -4.874640e-001 1.000000e+000
         vertex -1.112605e-001 -4.874640e-001 2.000000e+000
      endloop
   endfacet
   facet normal 3.642842e-001 9.312878e-001 0.000000e+000
      outer loop
         vertex -1.112605e-001 -4.874640e-001 2.000000e+000
         vertex -1.112605e-001 -4.874640e-001 1.000000e+000
         vertex -3.117449e-001 -3.909158e-001 1.000000e+000
      endloop
   endfacet
   facet normal 5.009826e-001 8.654573e-001 0.000000e+000
      outer loop
         vertex -1.112605e-001 -4.874640e-001 2.000000e+000
         vertex -3.117449e-001 -3.909158e-001 1.000000e+000
         vertex -3.117449e-001 -3.909158e-001 2.000000e+000
      endloop
   endfacet
   facet normal 7.322794e-001 6.810043e-001 0.000000e+000
      outer loop
         vertex -3.117449e-001 -3.909158e-001 2.000000e+000
         vertex -3.117449e-001 -3.909158e-001 1.000000e+000
         vertex -4.504845e-001 -2.169419e-001 1.000000e+000
      endloop
   endfacet
   facet normal 8.268777e-001 5.623819e-001 0.000000e+000
      outer loop
         vertex -3.117449e-001 -3.909158e-001 2.000000e+000
         vertex -4.504845e-001 -2.169419e-001 1.000000e+000
         vertex -4.504845e-001 -2.169419e-001 2.000000e+000
      endloop
   endfacet
   facet normal 9.552376e-001 2.958396e-001 0.000000e+000
      outer loop
         vertex -4.504845e-001 -2.169419e-001 2.000000e+000
         vertex -4.504845e-001 -2.169419e-001 1.000000e+000
         vertex -5.000000e-001 -1.224606e-016 1.000000e+000
      endloop
   endfacet
   facet normal 1.000000e+000 0.000000e+000 0.000000e+000
      outer loop
         vertex -4.000000e+000 -5.000000e-001 5.000000e-001
         vertex -4.000000e+000 -4.000000e+000 3.000000e+000
         vertex -4.000000e+000 -5.000000e-001 -5.000000e-001
      endloop
   endfacet
   facet normal 1.000000e+000 0.000000e+000 0.000000e+000
      outer loop
         vertex -4.000000e+000 -5.000000e-001 -5.000000e-001
         vertex -4.000000e+000 -4.000000e+000 3.000000e+000
         vertex -4.000000e+000 -4.000000e+000 -3.000000e+000
      endloop
   endfacet
   facet normal 1.000000e+000 0.000000e+000 0.000000e+000
      outer loop
         vertex -4.000000e+000 -5.000000e-001 -5.000000e-001
         vertex -4.000000e+000 -4.000000e+000 -3.000000e+000
         vertex -4.000000e+000 5.000000e-001 -5.000000e-001
      endloop
   endfacet
   facet normal 1.000000e+000 0.000000e+000 0.000000e+000
      outer loop
         vertex -4.000000e+000 5.000000e-001 -5.000000e-001
         vertex -4.000000e+000 -4.000000e+000 -3.000000e+000
         vertex -4.000000e+000 4.000000e+000 -3.000000e+000
      endloop
   endfacet
   facet normal 1.000000e+000 0.000000e+000 0.000000e+000
      outer loop
         vertex -4.000000e+000 5.000000e-001 -5.000000e-001
         vertex -4.000000e+000 4.000000e+000 -3.000000e+000
         vertex -4.000000e+000 5.000000e-001 5.000000e-001
      endloop
   endfacet
   facet normal 1.000000e+000 0.000000e+000 0.000000e+000
      outer loop
         vertex -4.000000e+000 5.000000e-001 5.000000e-001
         vertex -4.000000e+000 4.000000e+000 -3.000000e+000
         vertex -4.000000e+000 4.000000e+000 3.000000e+000
      endloop
   endfacet
   facet normal 1.000000e+000 0.000000e+000 0.000000e+000
      outer loop
         vertex -4.000000e+000 5.000000e-001 5.000000e-001
         vertex -4.000000e+000 4.000000e+000 3.000000e+000
         vertex -4.000000e+000 -5.000000e-001 5.000000e-001
      endloop
   endfacet
   facet normal 1.000000e+000 0.000000e+000 0.000000e+000
      outer loop
         vertex -4.000000e+000 -5.000000e-001 5.000000e-001
         vertex -4.000000e+000 4.000000e+000 3.000000e+000
         vertex -4.000000e+000 -4.000000e+000 3.000000e+000
      endloop
   endfacet
   facet normal 0.000000e+000 0.000000e+000 -1.000000e+000
      outer loop
         vertex -4.000000e+000 -4.000000e+000 -3.000000e+000
         vertex -5.000000e+000 -4.000000e+000 -3.000000e+000
         vertex -4.000000e+000 4.000000e+000 -3.000000e+000
      endloop
   endfacet
   facet normal 0.000000e+000 0.000000e+000 -1.000000e+000
      outer loop
         vertex -4.000000e+000 4.000000e+000 -3.000000e+000
         vertex -5.000000e+000 -4.000000e+000 -3.000000e+000
         vertex -5.000000e+000 4.000000e+000 -3.000000e+000
      endloop
   endfacet
   facet normal 0.000000e+000 0.000000e+000 1.000000e+000
      outer loop
         vertex -5.000000e+000 -4.000000e+000 3.000000e+000
         vertex -4.000000e+000 -4.000000e+000 3.000000e+000
         vertex -5.000000e+000 4.000000e+000 3.000000e+000
      endloop
   endfacet
   facet normal 0.000000e+000 0.000000e+000 1.000000e+000
      outer loop
         vertex -5.000000e+000 4.000000e+000 3.000000e+000
         vertex -4.000000e+000 -4.000000e+000 3.000000e+000
         vertex -4.000000e+000 4.000000e+000 3.000000e+000
      endloop
   endfacet
   facet normal -1.000000e+000 0.000000e+000 0.000000e+000
      outer loop
         vertex -5.000000e+000 -4.000000e+000 -3.000000e+000
         vertex -5.000000e+000 -4.000000e+000 3.000000e+000
         vertex -5.000000e+000 4.000000e+000 -3.000000e+000
      endloop
   endfacet
   facet normal -1.000000e+000 0.000000e+000 0.000000e+000
      outer loop
         vertex -5.000000e+000 4.000000e+000 -3.000000e+000
         vertex -5.000000e+000 -4.000000e+000 3.000000e+000
         vertex -5.000000e+000 4.000000e+000 3.000000e+000
      endloop
   endfacet
   facet normal 0.000000e+000 -1.000000e+000 0.000000e+000
      outer loop
         vertex -4.000000e+000 -4.000000e+000 3.000000e+000
         vertex -5.000000e+000 -4.000000e+000 3.000000e+000
         vertex -4.000000e+000 -4.000000e+000 -3.000000e+000
      endloop
   endfacet
   facet normal 0.000000e+000 -1.000000e+000 0.000000e+000
      outer loop
         vertex -4.000000e+000 -4.000000e+000 -3.000000e+000
         vertex -5.000000e+000 -4.000000e+000 3.000000e+000
         vertex -5.000000e+000 -4.000000e+000 -3.000000e+000
      endloop
   endfacet
   facet normal 0.000000e+000 1.000000e+000 0.000000e+000
      outer loop
         vertex -5.000000e+000 4.000000e+000 3.000000e+000
         vertex -4.000000e+000 4.000000e+000 3.000000e+000
         vertex -5.000000e+000 4.000000e+000 -3.000000e+000
      endloop
   endfacet
   facet normal 0.000000e+000 1.000000e+000 0.000000e+000
      outer loop
         vertex -5.000000e+000 4.000000e+000 -3.000000e+000
         vertex -4.000000e+000 4.000000e+000 3.000000e+000
         vertex -4.000000e+000 4.000000e+000 -3.000000e+000
      endloop
   endfacet
   facet normal -1.000000e+000 0.000000e+000 0.000000e+000
      outer loop
         vertex -2.000000e+000 -5.000000e-001 -5.000000e-001
         vertex -2.000000e+000 5.000000e-001 -5.000000e-001
         vertex -2.000000e+000 -5.000000e-001 -2.000000e+000
      endloop
   endfacet
   facet normal -1.000000e+000 0.000000e+000 0.000000e+000
      outer loop
         vertex -2.000000e+000 -5.000000e-001 -2.000000e+000
         vertex -2.000000e+000 5.000000e-001 -5.000000e-001
         vertex -2.000000e+000 5.000000e-001 -2.000000e+000
      endloop
   endfacet
   facet normal 0.000000e+000 0.000000e+000 -1.000000e+000
      outer loop
         vertex -4.000000e+000 -5.000000e-001 -5.000000e-001
         vertex -4.000000e+000 5.000000e-001 -5.000000e-001
         vertex -2.000000e+000 -5.000000e-001 -5.000000e-001
      endloop
   endfacet
   facet normal 0.000000e+000 0.000000e+000 -1.000000e+000
      outer loop
         vertex -2.000000e+000 -5.000000e-001 -5.000000e-001
         vertex -4.000000e+000 5.000000e-001 -5.000000e-001
         vertex -2.000000e+000 5.000000e-001 -5.000000e-001
      endloop
   endfacet
   facet normal -1.000000e+000 0.000000e+000 0.000000e+000
      outer loop
         vertex -2.000000e+000 -5.000000e-001 2.000000e+000
         vertex -2.000000e+000 5.000000e-001 2.000000e+000
         vertex -2.000000e+000 -5.000000e-001 5.000000e-001
      endloop
   endfacet
   facet normal -1.000000e+000 0.000000e+000 0.000000e+000
      outer loop
         vertex -2.000000e+000 -5.000000e-001 5.000000e-001
         vertex -2.000000e+000 5.000000e-001 2.000000e+000
         vertex -2.000000e+000 5.000000e-001 5.000000e-001
      endloop
   endfacet
   facet normal 0.000000e+000 0.000000e+000 1.000000e+000
      outer loop
         vertex -2.000000e+000 -5.000000e-001 5.000000e-001
         vertex -2.000000e+000 5.000000e-001 5.000000e-001
         vertex -4.000000e+000 -5.000000e-001 5.000000e-001
      endloop
   endfacet
   facet normal 0.000000e+000 0.000000e+000 1.000000e+000
      outer loop
         vertex -4.000000e+000 -5.000000e-001 5.000000e-001
         vertex -2.000000e+000 5.000000e-001 5.000000e-001
         vertex -4.000000e+000 5.000000e-001 5.000000e-001
      endloop
   endfacet
   facet normal 1.000000e+000 0.000000e+000 0.000000e+000
      outer loop
         vertex -1.500000e+000 -5.000000e-001 -1.000000e+000
         vertex -1.500000e+000 5.000000e-001 -1.000000e+000
         vertex -1.500000e+000 -5.000000e-001 1.000000e+000
      endloop
   endfacet
   facet normal 1.000000e+000 0.000000e+000 0.000000e+000
      outer loop
         vertex -1.500000e+000 -5.000000e-001 1.000000e+000
         vertex -1.500000e+000 5.000000e-001 -1.000000e+000
         vertex -1.500000e+000 5.000000e-001 1.000000e+000
      endloop
   endfacet
   facet normal -5.782411e-017 0.000000e+000 1.000000e+000
      outer loop
         vertex -1.500000e+000 5.000000e-001 -1.000000e+000
         vertex -1.500000e+000 -5.000000e-001 -1.000000e+000
         vertex -1.414214e+000 5.000000e-001 -1.000000e+000
      endloop
   endfacet
   facet normal -5.782411e-017 0.000000e+000 1.000000e+000
      outer loop
         vertex -1.414214e+000 5.000000e-001 -1.000000e+000
         vertex -1.500000e+000 -5.000000e-001 -1.000000e+000
         vertex -1.414214e+000 -5.000000e-001 -1.000000e+000
      endloop
   endfacet
   facet normal -5.782411e-017 0.000000e+000 1.000000e+000
      outer loop
         vertex 4.504845e-001 -2.169419e-001 -1.000000e+000
         vertex 1.486670e+000 -1.995322e-001 -1.000000e+000
         vertex 5.000000e-001 0.000000e+000 -1.000000e+000
      endloop
   endfacet
   facet normal -5.782411e-017 0.000000e+000 1.000000e+000
      outer loop
         vertex 5.000000e-001 0.000000e+000 -1.000000e+000
         vertex 1.486670e+000 -1.995322e-001 -1.000000e+000
         vertex 1.486670e+000 1.995322e-001 -1.000000e+000
      endloop
   endfacet
   facet normal -5.782411e-017 0.000000e+000 1.000000e+000
      outer loop
         vertex 5.000000e-001 0.000000e+000 -1.000000e+000
         vertex 1.486670e+000 1.995322e-001 -1.000000e+000
         vertex 4.504845e-001 2.169419e-001 -1.000000e+000
      endloop
   endfacet
   facet normal -5.782411e-017 0.000000e+000 1.000000e+000
      outer loop
         vertex 3.117449e-001 -3.909158e-001 -1.000000e+000
         vertex 1.178443e+000 -9.280474e-001 -1.000000e+000
         vertex 4.504845e-001 -2.169419e-001 -1.000000e+000
      endloop
   endfacet
   facet normal -5.782411e-017 0.000000e+000 1.000000e+000
      outer loop
         vertex 4.504845e-001 -2.169419e-001 -1.000000e+000
         vertex 1.178443e+000 -9.280474e-001 -1.000000e+000
         vertex 1.381445e+000 -5.844740e-001 -1.000000e+000
      endloop
   endfacet
   facet normal -5.782411e-017 0.000000e+000 1.000000e+000
      outer loop
         vertex 4.504845e-001 -2.169419e-001 -1.000000e+000
         vertex 1.381445e+000 -5.844740e-001 -1.000000e+000
         vertex 1.486670e+000 -1.995322e-001 -1.000000e+000
      endloop
   endfacet
   facet normal -5.782411e-017 0.000000e+000 1.000000e+000
      outer loop
         vertex -6.259303e-001 -1.363162e+000 -1.000000e+000
         vertex -2.443421e-001 -1.479965e+000 -1.000000e+000
         vertex -9.632158e-001 -1.149876e+000 -1.000000e+000
      endloop
   endfacet
   facet normal -5.782411e-017 0.000000e+000 1.000000e+000
      outer loop
         vertex -9.632158e-001 -1.149876e+000 -1.000000e+000
         vertex -2.443421e-001 -1.479965e+000 -1.000000e+000
         vertex -1.414214e+000 5.000000e-001 -1.000000e+000
      endloop
   endfacet
   facet normal -5.782411e-017 0.000000e+000 1.000000e+000
      outer loop
         vertex -9.632158e-001 -1.149876e+000 -1.000000e+000
         vertex -1.414214e+000 5.000000e-001 -1.000000e+000
         vertex -1.232326e+000 -8.552033e-001 -1.000000e+000
      endloop
   endfacet
   facet normal -5.782411e-017 0.000000e+000 1.000000e+000
      outer loop
         vertex -1.232326e+000 -8.552033e-001 -1.000000e+000
         vertex -1.414214e+000 5.000000e-001 -1.000000e+000
         vertex -1.414214e+000 -5.000000e-001 -1.000000e+000
      endloop
   endfacet
   facet normal -5.782411e-017 0.000000e+000 1.000000e+000
      outer loop
         vertex -2.443421e-001 -1.479965e+000 -1.000000e+000
         vertex 1.545403e-001 -1.492018e+000 -1.000000e+000
         vertex 1.112605e-001 -4.874640e-001 -1.000000e+000
      endloop
   endfacet
   facet normal -5.782411e-017 0.000000e+000 1.000000e+000
      outer loop
         vertex 1.112605e-001 -4.874640e-001 -1.000000e+000
         vertex 1.545403e-001 -1.492018e+000 -1.000000e+000
         vertex 5.424845e-001 -1.398467e+000 -1.000000e+000
      endloop
   endfacet
   facet normal -5.782411e-017 0.000000e+000 1.000000e+000
      outer loop
         vertex 1.112605e-001 -4.874640e-001 -1.000000e+000
         vertex 5.424845e-001 -1.398467e+000 -1.000000e+000
         vertex 3.117449e-001 -3.909158e-001 -1.000000e+000
      endloop
   endfacet
   facet normal -5.782411e-017 0.000000e+000 1.000000e+000
      outer loop
         vertex 3.117449e-001 -3.909158e-001 -1.000000e+000
         vertex 5.424845e-001 -1.398467e+000 -1.000000e+000
         vertex 8.920323e-001 -1.205935e+000 -1.000000e+000
      endloop
   endfacet
   facet normal -5.782411e-017 0.000000e+000 1.000000e+000
      outer loop
         vertex 3.117449e-001 -3.909158e-001 -1.000000e+000
         vertex 8.920323e-001 -1.205935e+000 -1.000000e+000
         vertex 1.178443e+000 -9.280474e-001 -1.000000e+000
      endloop
   endfacet
   facet normal -5.782411e-017 0.000000e+000 1.000000e+000
      outer loop
         vertex 1.112605e-001 -4.874640e-001 -1.000000e+000
         vertex -1.112605e-001 -4.874640e-001 -1.000000e+000
         vertex -2.443421e-001 -1.479965e+000 -1.000000e+000
      endloop
   endfacet
   facet normal -5.782411e-017 0.000000e+000 1.000000e+000
      outer loop
         vertex -2.443421e-001 -1.479965e+000 -1.000000e+000
         vertex -1.112605e-001 -4.874640e-001 -1.000000e+000
         vertex -3.117449e-001 -3.909158e-001 -1.000000e+000
      endloop
   endfacet
   facet normal -5.782411e-017 0.000000e+000 1.000000e+000
      outer loop
         vertex -2.443421e-001 -1.479965e+000 -1.000000e+000
         vertex -3.117449e-001 -3.909158e-001 -1.000000e+000
         vertex -1.414214e+000 5.000000e-001 -1.000000e+000
      endloop
   endfacet
   facet normal -5.782411e-017 0.000000e+000 1.000000e+000
      outer loop
         vertex -1.414214e+000 5.000000e-001 -1.000000e+000
         vertex -3.117449e-001 -3.909158e-001 -1.000000e+000
         vertex -4.504845e-001 -2.169419e-001 -1.000000e+000
      endloop
   endfacet
   facet normal -5.782411e-017 0.000000e+000 1.000000e+000
      outer loop
         vertex -4.504845e-001 -2.169419e-001 -1.000000e+000
         vertex -5.000000e-001 0.000000e+000 -1.000000e+000
         vertex -1.414214e+000 5.000000e-001 -1.000000e+000
      endloop
   endfacet
   facet normal -5.782411e-017 0.000000e+000 1.000000e+000
      outer loop
         vertex -1.414214e+000 5.000000e-001 -1.000000e+000
         vertex -5.000000e-001 0.000000e+000 -1.000000e+000
         vertex -4.504845e-001 2.169419e-001 -1.000000e+000
      endloop
   endfacet
   facet normal -5.782411e-017 0.000000e+000 1.000000e+000
      outer loop
         vertex -1.414214e+000 5.000000e-001 -1.000000e+000
         vertex -4.504845e-001 2.169419e-001 -1.000000e+000
         vertex -1.232326e+000 8.552033e-001 -1.000000e+000
      endloop
   endfacet
   facet normal -5.782411e-017 0.000000e+000 1.000000e+000
      outer loop
         vertex -1.232326e+000 8.552033e-001 -1.000000e+000
         vertex -4.504845e-001 2.169419e-001 -1.000000e+000
         vertex -3.117449e-001 3.909158e-001 -1.000000e+000
      endloop
   endfacet
   facet normal -5.782411e-017 0.000000e+000 1.000000e+000
      outer loop
         vertex 3.117449e-001 3.909158e-001 -1.000000e+000
         vertex 5.424845e-001 1.398467e+000 -1.000000e+000
         vertex 1.112605e-001 4.874640e-001 -1.000000e+000
      endloop
   endfacet
   facet normal -5.782411e-017 0.000000e+000 1.000000e+000
      outer loop
         vertex 1.112605e-001 4.874640e-001 -1.000000e+000
         vertex 5.424845e-001 1.398467e+000 -1.000000e+000
         vertex 1.545403e-001 1.492018e+000 -1.000000e+000
      endloop
   endfacet
   facet normal -5.782411e-017 0.000000e+000 1.000000e+000
      outer loop
         vertex 1.112605e-001 4.874640e-001 -1.000000e+000
         vertex 1.545403e-001 1.492018e+000 -1.000000e+000
         vertex -1.112605e-001 4.874640e-001 -1.000000e+000
      endloop
   endfacet
   facet normal -5.782411e-017 0.000000e+000 1.000000e+000
      outer loop
         vertex 1.486670e+000 1.995322e-001 -1.000000e+000
         vertex 1.381445e+000 5.844740e-001 -1.000000e+000
         vertex 4.504845e-001 2.169419e-001 -1.000000e+000
      endloop
   endfacet
   facet normal -5.782411e-017 0.000000e+000 1.000000e+000
      outer loop
         vertex 4.504845e-001 2.169419e-001 -1.000000e+000
         vertex 1.381445e+000 5.844740e-001 -1.000000e+000
         vertex 1.178443e+000 9.280474e-001 -1.000000e+000
      endloop
   endfacet
   facet normal -5.782411e-017 0.000000e+000 1.000000e+000
      outer loop
         vertex 4.504845e-001 2.169419e-001 -1.000000e+000
         vertex 1.178443e+000 9.280474e-001 -1.000000e+000
         vertex 3.117449e-001 3.909158e-001 -1.000000e+000
      endloop
   endfacet
   facet normal -5.782411e-017 0.000000e+000 1.000000e+000
      outer loop
         vertex 3.117449e-001 3.909158e-001 -1.000000e+000
         vertex 1.178443e+000 9.280474e-001 -1.000000e+000
         vertex 8.920323e-001 1.205935e+000 -1.000000e+000
      endloop
   endfacet
   facet normal -5.782411e-017 0.000000e+000 1.000000e+000
      outer loop
         vertex 3.117449e-001 3.909158e-001 -1.000000e+000
         vertex 8.920323e-001 1.205935e+000 -1.000000e+000
         vertex 5.424845e-001 1.398467e+000 -1.000000e+000
      endloop
   endfacet
   facet normal -5.782411e-017 0.000000e+000 1.000000e+000
      outer loop
         vertex 1.545403e-001 1.492018e+000 -1.000000e+000
         vertex -2.443421e-001 1.479965e+000 -1.000000e+000
         vertex -1.112605e-001 4.874640e-001 -1.000000e+000
      endloop
   endfacet
   facet normal -5.782411e-017 0.000000e+000 1.000000e+000
      outer loop
         vertex -1.112605e-001 4.874640e-001 -1.000000e+000
         vertex -2.443421e-001 1.479965e+000 -1.000000e+000
         vertex -6.259303e-001 1.363162e+000 -1.000000e+000
      endloop
   endfacet
   facet normal -5.782411e-017 0.000000e+000 1.000000e+000
      outer loop
         vertex -1.112605e-001 4.874640e-001 -1.000000e+000
         vertex -6.259303e-001 1.363162e+000 -1.000000e+000
         vertex -3.117449e-001 3.909158e-001 -1.000000e+000
      endloop
   endfacet
   facet normal -5.782411e-017 0.000000e+000 1.000000e+000
      outer loop
         vertex -3.117449e-001 3.909158e-001 -1.000000e+000
         vertex -6.259303e-001 1.363162e+000 -1.000000e+000
         vertex -9.632158e-001 1.149876e+000 -1.000000e+000
      endloop
   endfacet
   facet normal -5.782411e-017 0.000000e+000 1.000000e+000
      outer loop
         vertex -3.117449e-001 3.909158e-001 -1.000000e+000
         vertex -9.632158e-001 1.149876e+000 -1.000000e+000
         vertex -1.232326e+000 8.552033e-001 -1.000000e+000
      endloop
   endfacet
   facet normal -5.782411e-017 0.000000e+000 -1.000000e+000
      outer loop
         vertex -1.414214e+000 5.000000e-001 1.000000e+000
         vertex 1.112605e-001 4.874640e-001 1.000000e+000
         vertex -1.112605e-001 4.874640e-001 1.000000e+000
      endloop
   endfacet
   facet normal -5.782411e-017 0.000000e+000 -1.000000e+000
      outer loop
         vertex -1.112605e-001 4.874640e-001 1.000000e+000
         vertex -3.117449e-001 3.909158e-001 1.000000e+000
         vertex -1.414214e+000 5.000000e-001 1.000000e+000
      endloop
   endfacet
   facet normal -5.782411e-017 0.000000e+000 -1.000000e+000
      outer loop
         vertex -1.414214e+000 5.000000e-001 1.000000e+000
         vertex -3.117449e-001 3.909158e-001 1.000000e+000
         vertex -4.504845e-001 2.169419e-001 1.000000e+000
      endloop
   endfacet
   facet normal -5.782411e-017 0.000000e+000 -1.000000e+000
      outer loop
         vertex -1.414214e+000 5.000000e-001 1.000000e+000
         vertex -4.504845e-001 2.169419e-001 1.000000e+000
         vertex -5.000000e-001 0.000000e+000 1.000000e+000
      endloop
   endfacet
   facet normal -5.782411e-017 0.000000e+000 -1.000000e+000
      outer loop
         vertex -1.500000e+000 5.000000e-001 1.000000e+000
         vertex -1.414214e+000 5.000000e-001 1.000000e+000
         vertex -1.500000e+000 -5.000000e-001 1.000000e+000
      endloop
   endfacet
   facet normal -5.782411e-017 0.000000e+000 -1.000000e+000
      outer loop
         vertex -1.500000e+000 -5.000000e-001 1.000000e+000
         vertex -1.414214e+000 5.000000e-001 1.000000e+000
         vertex -5.000000e-001 0.000000e+000 1.000000e+000
      endloop
   endfacet
   facet normal -5.782411e-017 0.000000e+000 -1.000000e+000
      outer loop
         vertex -1.500000e+000 -5.000000e-001 1.000000e+000
         vertex -5.000000e-001 0.000000e+000 1.000000e+000
         vertex -1.414214e+000 -5.000000e-001 1.000000e+000
      endloop
   endfacet
   facet normal -5.782411e-017 0.000000e+000 -1.000000e+000
      outer loop
         vertex -1.414214e+000 -5.000000e-001 1.000000e+000
         vertex -5.000000e-001 0.000000e+000 1.000000e+000
         vertex -4.504845e-001 -2.169419e-001 1.000000e+000
      endloop
   endfacet
   facet normal -5.782411e-017 0.000000e+000 -1.000000e+000
      outer loop
         vertex -1.414214e+000 -5.000000e-001 1.000000e+000
         vertex -4.504845e-001 -2.169419e-001 1.000000e+000
         vertex -1.232326e+000 -8.552033e-001 1.000000e+000
      endloop
   endfacet
   facet normal -5.782411e-017 0.000000e+000 -1.000000e+000
      outer loop
         vertex -1.232326e+000 -8.552033e-001 1.000000e+000
         vertex -4.504845e-001 -2.169419e-001 1.000000e+000
         vertex -3.117449e-001 -3.909158e-001 1.000000e+000
      endloop
   endfacet
   facet normal -5.782411e-017 0.000000e+000 -1.000000e+000
      outer loop
         vertex -1.232326e+000 -8.552033e-001 1.000000e+000
         vertex -3.117449e-001 -3.909158e-001 1.000000e+000
         vertex -9.632158e-001 -1.149876e+000 1.000000e+000
      endloop
   endfacet
   facet normal -5.782411e-017 0.000000e+000 -1.000000e+000
      outer loop
         vertex -9.632158e-001 -1.149876e+000 1.000000e+000
         vertex -3.117449e-001 -3.909158e-001 1.000000e+000
         vertex -6.259303e-001 -1.363162e+000 1.000000e+000
      endloop
   endfacet
   facet normal -5.782411e-017 0.000000e+000 -1.000000e+000
      outer loop
         vertex -6.259303e-001 -1.363162e+000 1.000000e+000
         vertex -3.117449e-001 -3.909158e-001 1.000000e+000
         vertex -1.112605e-001 -4.874640e-001 1.000000e+000
      endloop
   endfacet
   facet normal -5.782411e-017 0.000000e+000 -1.000000e+000
      outer loop
         vertex -6.259303e-001 -1.363162e+000 1.000000e+000
         vertex -1.112605e-001 -4.874640e-001 1.000000e+000
         vertex -2.443421e-001 -1.479965e+000 1.000000e+000
      endloop
   endfacet
   facet normal -5.782411e-017 0.000000e+000 -1.000000e+000
      outer loop
         vertex -2.443421e-001 -1.479965e+000 1.000000e+000
         vertex -1.112605e-001 -4.874640e-001 1.000000e+000
         vertex 1.545403e-001 -1.492018e+000 1.000000e+000
      endloop
   endfacet
   facet normal -5.782411e-017 0.000000e+000 -1.000000e+000
      outer loop
         vertex 1.545403e-001 -1.492018e+000 1.000000e+000
         vertex -1.112605e-001 -4.874640e-001 1.000000e+000
         vertex 1.112605e-001 -4.874640e-001 1.000000e+000
      endloop
   endfacet
   facet normal -5.782411e-017 0.000000e+000 -1.000000e+000
      outer loop
         vertex 1.545403e-001 -1.492018e+000 1.000000e+000
         vertex 1.112605e-001 -4.874640e-001 1.000000e+000
         vertex 5.424845e-001 -1.398467e+000 1.000000e+000
      endloop
   endfacet
   facet normal -5.782411e-017 0.000000e+000 -1.000000e+000
      outer loop
         vertex 5.424845e-001 -1.398467e+000 1.000000e+000
         vertex 1.112605e-001 -4.874640e-001 1.000000e+000
         vertex 3.117449e-001 -3.909158e-001 1.000000e+000
      endloop
   endfacet
   facet normal -5.782411e-017 0.000000e+000 -1.000000e+000
      outer loop
         vertex 5.424845e-001 -1.398467e+000 1.000000e+000
         vertex 3.117449e-001 -3.909158e-001 1.000000e+000
         vertex 8.920323e-001 -1.205935e+000 1.000000e+000
      endloop
   endfacet
   facet normal -5.782411e-017 0.000000e+000 -1.000000e+000
      outer loop
         vertex 8.920323e-001 -1.205935e+000 1.000000e+000
         vertex 3.117449e-001 -3.909158e-001 1.000000e+000
         vertex 1.178443e+000 -9.280474e-001 1.000000e+000
      endloop
   endfacet
   facet normal -5.782411e-017 0.000000e+000 -1.000000e+000
      outer loop
         vertex 1.178443e+000 -9.280474e-001 1.000000e+000
         vertex 3.117449e-001 -3.909158e-001 1.000000e+000
         vertex 4.504845e-001 -2.169419e-001 1.000000e+000
      endloop
   endfacet
   facet normal -5.782411e-017 0.000000e+000 -1.000000e+000
      outer loop
         vertex 1.178443e+000 -9.280474e-001 1.000000e+000
         vertex 4.504845e-001 -2.169419e-001 1.000000e+000
         vertex 1.381445e+000 -5.844740e-001 1.000000e+000
      endloop
   endfacet
   facet normal -5.782411e-017 0.000000e+000 -1.000000e+000
      outer loop
         vertex 1.381445e+000 -5.844740e-001 1.000000e+000
         vertex 4.504845e-001 -2.169419e-001 1.000000e+000
         vertex 1.486670e+000 -1.995322e-001 1.000000e+000
      endloop
   endfacet
   facet normal -5.782411e-017 0.000000e+000 -1.000000e+000
      outer loop
         vertex 1.486670e+000 -1.995322e-001 1.000000e+000
         vertex 4.504845e-001 -2.169419e-001 1.000000e+000
         vertex 5.000000e-001 0.000000e+000 1.000000e+000
      endloop
   endfacet
   facet normal -5.782411e-017 0.000000e+000 -1.000000e+000
      outer loop
         vertex 1.486670e+000 -1.995322e-001 1.000000e+000
         vertex 5.000000e-001 0.000000e+000 1.000000e+000
         vertex 1.486670e+000 1.995322e-001 1.000000e+000
      endloop
   endfacet
   facet normal -5.782411e-017 0.000000e+000 -1.000000e+000
      outer loop
         vertex 1.486670e+000 1.995322e-001 1.000000e+000
         vertex 5.000000e-001 0.000000e+000 1.000000e+000
         vertex 1.381445e+000 5.844740e-001 1.000000e+000
      endloop
   endfacet
   facet normal -5.782411e-017 0.000000e+000 -1.000000e+000
      outer loop
         vertex 1.381445e+000 5.844740e-001 1.000000e+000
         vertex 5.000000e-001 0.000000e+000 1.000000e+000
         vertex 4.504845e-001 2.169419e-001 1.000000e+000
      endloop
   endfacet
   facet normal -5.782411e-017 0.000000e+000 -1.000000e+000
      outer loop
         vertex 1.381445e+000 5.844740e-001 1.000000e+000
         vertex 4.504845e-001 2.169419e-001 1.000000e+000
         vertex 1.178443e+000 9.280474e-001 1.000000e+000
      endloop
   endfacet
   facet normal -5.782411e-017 0.000000e+000 -1.000000e+000
      outer loop
         vertex 1.178443e+000 9.280474e-001 1.000000e+000
         vertex 4.504845e-001 2.169419e-001 1.000000e+000
         vertex 3.117449e-001 3.909158e-001 1.000000e+000
      endloop
   endfacet
   facet normal -5.782411e-017 0.000000e+000 -1.000000e+000
      outer loop
         vertex 1.178443e+000 9.280474e-001 1.000000e+000
         vertex 3.117449e-001 3.909158e-001 1.000000e+000
         vertex 8.920323e-001 1.205935e+000 1.000000e+000
      endloop
   endfacet
   facet normal -5.782411e-017 0.000000e+000 -1.000000e+000
      outer loop
         vertex -1.414214e+000 5.000000e-001 1.000000e+000
         vertex -1.232326e+000 8.552033e-001 1.000000e+000
         vertex 1.112605e-001 4.874640e-001 1.000000e+000
      endloop
   endfacet
   facet normal -5.782411e-017 0.000000e+000 -1.000000e+000
      outer loop
         vertex 1.112605e-001 4.874640e-001 1.000000e+000
         vertex -1.232326e+000 8.552033e-001 1.000000e+000
         vertex -9.632158e-001 1.149876e+000 1.000000e+000
      endloop
   endfacet
   facet normal -5.782411e-017 0.000000e+000 -1.000000e+000
      outer loop
         vertex 1.112605e-001 4.874640e-001 1.000000e+000
         vertex -9.632158e-001 1.149876e+000 1.000000e+000
         vertex -6.259303e-001 1.363162e+000 1.000000e+000
      endloop
   endfacet
   facet normal -5.782411e-017 0.000000e+000 -1.000000e+000
      outer loop
         vertex 8.920323e-001 1.205935e+000 1.000000e+000
         vertex 3.117449e-001 3.909158e-001 1.000000e+000
         vertex 5.424845e-001 1.398467e+000 1.000000e+000
      endloop
   endfacet
   facet normal -5.782411e-017 0.000000e+000 -1.000000e+000
      outer loop
         vertex 5.424845e-001 1.398467e+000 1.000000e+000
         vertex 3.117449e-001 3.909158e-001 1.000000e+000
         vertex 1.112605e-001 4.874640e-001 1.000000e+000
      endloop
   endfacet
   facet normal -5.782411e-017 0.000000e+000 -1.000000e+000
      outer loop
         vertex 5.424845e-001 1.398467e+000 1.000000e+000
         vertex 1.112605e-001 4.874640e-001 1.000000e+000
         vertex 1.545403e-001 1.492018e+000 1.000000e+000
      endloop
   endfacet
   facet normal -5.782411e-017 0.000000e+000 -1.000000e+000
      outer loop
         vertex 1.545403e-001 1.492018e+000 1.000000e+000
         vertex 1.112605e-001 4.874640e-001 1.000000e+000
         vertex -6.259303e-001 1.363162e+000 1.000000e+000
      endloop
   endfacet
   facet normal -5.782411e-017 0.000000e+000 -1.000000e+000
      outer loop
         vertex 1.545403e-001 1.492018e+000 1.000000e+000
         vertex -6.259303e-001 1.363162e+000 1.000000e+000
         vertex -2.443421e-001 1.479965e+000 1.000000e+000
      endloop
   endfacet
endsolid