solid handSpring - SW3dPS-Hand 2_Finger Assm-6 SW3dPS-Hand 2_Finger Bone-3
   facet normal 0.000000e+000 1.000000e+000 0.000000e+000
      outer loop
         vertex -3.074209e+000 8.636000e+000 2.172980e+000
         vertex -3.134584e+000 8.636000e+000 1.802891e+000
         vertex -3.171364e+000 8.636000e+000 2.188210e+000
      endloop
   endfacet
   facet normal 0.000000e+000 1.000000e+000 0.000000e+000
      outer loop
         vertex -3.171364e+000 8.636000e+000 2.188210e+000
         vertex -3.134584e+000 8.636000e+000 1.802891e+000
         vertex -3.208144e+000 8.636000e+000 1.802891e+000
      endloop
   endfacet
   facet normal 0.000000e+000 1.000000e+000 0.000000e+000
      outer loop
         vertex -3.171364e+000 8.636000e+000 2.188210e+000
         vertex -3.208144e+000 8.636000e+000 1.802891e+000
         vertex -3.268519e+000 8.636000e+000 2.172980e+000
      endloop
   endfacet
   facet normal 0.000000e+000 1.000000e+000 0.000000e+000
      outer loop
         vertex -3.706195e+000 8.636000e+000 8.755457e-001
         vertex -4.101490e+000 8.636000e+000 8.717220e-001
         vertex -3.738887e+000 8.636000e+000 1.009656e+000
      endloop
   endfacet
   facet normal 0.000000e+000 1.000000e+000 0.000000e+000
      outer loop
         vertex -3.738887e+000 8.636000e+000 1.009656e+000
         vertex -4.101490e+000 8.636000e+000 8.717220e-001
         vertex -4.123594e+000 8.636000e+000 1.054291e+000
      endloop
   endfacet
   facet normal 0.000000e+000 1.000000e+000 0.000000e+000
      outer loop
         vertex -3.738887e+000 8.636000e+000 1.009656e+000
         vertex -4.123594e+000 8.636000e+000 1.054291e+000
         vertex -3.738470e+000 8.636000e+000 1.147692e+000
      endloop
   endfacet
   facet normal 0.000000e+000 1.000000e+000 0.000000e+000
      outer loop
         vertex -3.738470e+000 8.636000e+000 1.147692e+000
         vertex -4.123594e+000 8.636000e+000 1.054291e+000
         vertex -4.110202e+000 8.636000e+000 1.237705e+000
      endloop
   endfacet
   facet normal 0.000000e+000 1.000000e+000 0.000000e+000
      outer loop
         vertex -3.738470e+000 8.636000e+000 1.147692e+000
         vertex -4.110202e+000 8.636000e+000 1.237705e+000
         vertex -3.704968e+000 8.636000e+000 1.281602e+000
      endloop
   endfacet
   facet normal 0.000000e+000 1.000000e+000 0.000000e+000
      outer loop
         vertex -3.704968e+000 8.636000e+000 1.281602e+000
         vertex -4.110202e+000 8.636000e+000 1.237705e+000
         vertex -4.061813e+000 8.636000e+000 1.415127e+000
      endloop
   endfacet
   facet normal 0.000000e+000 1.000000e+000 0.000000e+000
      outer loop
         vertex -3.704968e+000 8.636000e+000 1.281602e+000
         vertex -4.061813e+000 8.636000e+000 1.415127e+000
         vertex -3.640337e+000 8.636000e+000 1.403574e+000
      endloop
   endfacet
   facet normal 0.000000e+000 1.000000e+000 0.000000e+000
      outer loop
         vertex -3.356353e+000 8.636000e+000 2.128751e+000
         vertex -3.268519e+000 8.636000e+000 2.172980e+000
         vertex -3.426440e+000 8.636000e+000 2.059767e+000
      endloop
   endfacet
   facet normal 0.000000e+000 1.000000e+000 0.000000e+000
      outer loop
         vertex -3.426440e+000 8.636000e+000 2.059767e+000
         vertex -3.268519e+000 8.636000e+000 2.172980e+000
         vertex -3.208144e+000 8.636000e+000 1.802891e+000
      endloop
   endfacet
   facet normal 0.000000e+000 1.000000e+000 0.000000e+000
      outer loop
         vertex -3.426440e+000 8.636000e+000 2.059767e+000
         vertex -3.208144e+000 8.636000e+000 1.802891e+000
         vertex -3.491879e+000 8.636000e+000 1.991258e+000
      endloop
   endfacet
   facet normal 0.000000e+000 1.000000e+000 0.000000e+000
      outer loop
         vertex -3.491879e+000 8.636000e+000 1.991258e+000
         vertex -3.208144e+000 8.636000e+000 1.802891e+000
         vertex -3.273807e+000 8.636000e+000 1.769732e+000
      endloop
   endfacet
   facet normal 0.000000e+000 1.000000e+000 0.000000e+000
      outer loop
         vertex -3.491879e+000 8.636000e+000 1.991258e+000
         vertex -3.273807e+000 8.636000e+000 1.769732e+000
         vertex -3.572197e+000 8.636000e+000 1.941014e+000
      endloop
   endfacet
   facet normal 0.000000e+000 1.000000e+000 0.000000e+000
      outer loop
         vertex -3.572197e+000 8.636000e+000 1.941014e+000
         vertex -3.273807e+000 8.636000e+000 1.769732e+000
         vertex -3.317474e+000 8.636000e+000 1.710535e+000
      endloop
   endfacet
   facet normal 0.000000e+000 1.000000e+000 0.000000e+000
      outer loop
         vertex -4.061813e+000 8.636000e+000 1.415127e+000
         vertex -3.980230e+000 8.636000e+000 1.579943e+000
         vertex -3.640337e+000 8.636000e+000 1.403574e+000
      endloop
   endfacet
   facet normal 0.000000e+000 1.000000e+000 0.000000e+000
      outer loop
         vertex -3.640337e+000 8.636000e+000 1.403574e+000
         vertex -3.980230e+000 8.636000e+000 1.579943e+000
         vertex -3.868495e+000 8.636000e+000 1.726009e+000
      endloop
   endfacet
   facet normal 0.000000e+000 1.000000e+000 0.000000e+000
      outer loop
         vertex -3.640337e+000 8.636000e+000 1.403574e+000
         vertex -3.868495e+000 8.636000e+000 1.726009e+000
         vertex -3.548346e+000 8.636000e+000 1.506491e+000
      endloop
   endfacet
   facet normal 0.000000e+000 1.000000e+000 0.000000e+000
      outer loop
         vertex -3.548346e+000 8.636000e+000 1.506491e+000
         vertex -3.868495e+000 8.636000e+000 1.726009e+000
         vertex -3.730773e+000 8.636000e+000 1.847880e+000
      endloop
   endfacet
   facet normal 0.000000e+000 1.000000e+000 0.000000e+000
      outer loop
         vertex -3.548346e+000 8.636000e+000 1.506491e+000
         vertex -3.730773e+000 8.636000e+000 1.847880e+000
         vertex -3.434362e+000 8.636000e+000 1.584349e+000
      endloop
   endfacet
   facet normal 0.000000e+000 1.000000e+000 0.000000e+000
      outer loop
         vertex -3.434362e+000 8.636000e+000 1.584349e+000
         vertex -3.730773e+000 8.636000e+000 1.847880e+000
         vertex -3.572197e+000 8.636000e+000 1.941014e+000
      endloop
   endfacet
   facet normal 0.000000e+000 1.000000e+000 0.000000e+000
      outer loop
         vertex -3.434362e+000 8.636000e+000 1.584349e+000
         vertex -3.572197e+000 8.636000e+000 1.941014e+000
         vertex -3.364912e+000 8.636000e+000 1.637247e+000
      endloop
   endfacet
   facet normal 0.000000e+000 1.000000e+000 0.000000e+000
      outer loop
         vertex -3.364912e+000 8.636000e+000 1.637247e+000
         vertex -3.572197e+000 8.636000e+000 1.941014e+000
         vertex -3.317474e+000 8.636000e+000 1.710535e+000
      endloop
   endfacet
   facet normal 0.000000e+000 1.000000e+000 0.000000e+000
      outer loop
         vertex -3.308390e+000 8.636000e+000 5.221304e-001
         vertex -3.530627e+000 8.636000e+000 1.948114e-001
         vertex -3.437423e+000 8.636000e+000 5.711690e-001
      endloop
   endfacet
   facet normal 0.000000e+000 1.000000e+000 0.000000e+000
      outer loop
         vertex -3.437423e+000 8.636000e+000 5.711690e-001
         vertex -3.530627e+000 8.636000e+000 1.948114e-001
         vertex -3.693454e+000 8.636000e+000 2.802935e-001
      endloop
   endfacet
   facet normal 0.000000e+000 1.000000e+000 0.000000e+000
      outer loop
         vertex -3.437423e+000 8.636000e+000 5.711690e-001
         vertex -3.693454e+000 8.636000e+000 2.802936e-001
         vertex -3.550934e+000 8.636000e+000 6.497150e-001
      endloop
   endfacet
   facet normal 0.000000e+000 1.000000e+000 0.000000e+000
      outer loop
         vertex -3.550934e+000 8.636000e+000 6.497150e-001
         vertex -3.693454e+000 8.636000e+000 2.802936e-001
         vertex -3.836820e+000 8.636000e+000 3.954732e-001
      endloop
   endfacet
   facet normal 0.000000e+000 1.000000e+000 0.000000e+000
      outer loop
         vertex -3.550934e+000 8.636000e+000 6.497150e-001
         vertex -3.836820e+000 8.636000e+000 3.954732e-001
         vertex -3.642302e+000 8.636000e+000 7.531860e-001
      endloop
   endfacet
   facet normal 0.000000e+000 1.000000e+000 0.000000e+000
      outer loop
         vertex -3.642302e+000 8.636000e+000 7.531860e-001
         vertex -3.836820e+000 8.636000e+000 3.954732e-001
         vertex -3.955379e+000 8.636000e+000 5.360568e-001
      endloop
   endfacet
   facet normal 0.000000e+000 1.000000e+000 0.000000e+000
      outer loop
         vertex -3.642302e+000 8.636000e+000 7.531860e-001
         vertex -3.955379e+000 8.636000e+000 5.360568e-001
         vertex -3.706195e+000 8.636000e+000 8.755458e-001
      endloop
   endfacet
   facet normal 0.000000e+000 1.000000e+000 0.000000e+000
      outer loop
         vertex -3.706195e+000 8.636000e+000 8.755457e-001
         vertex -3.955379e+000 8.636000e+000 5.360568e-001
         vertex -4.044713e+000 8.636000e+000 6.968039e-001
      endloop
   endfacet
   facet normal 0.000000e+000 1.000000e+000 0.000000e+000
      outer loop
         vertex -3.706195e+000 8.636000e+000 8.755457e-001
         vertex -4.044713e+000 8.636000e+000 6.968039e-001
         vertex -4.101490e+000 8.636000e+000 8.717220e-001
      endloop
   endfacet
   facet normal 0.000000e+000 1.000000e+000 0.000000e+000
      outer loop
         vertex -2.905304e+000 8.636000e+000 5.711690e-001
         vertex -2.812101e+000 8.636000e+000 1.948114e-001
         vertex -3.034337e+000 8.636000e+000 5.221304e-001
      endloop
   endfacet
   facet normal 0.000000e+000 1.000000e+000 0.000000e+000
      outer loop
         vertex -3.034337e+000 8.636000e+000 5.221304e-001
         vertex -2.812101e+000 8.636000e+000 1.948114e-001
         vertex -2.988320e+000 8.636000e+000 1.422133e-001
      endloop
   endfacet
   facet normal 0.000000e+000 1.000000e+000 0.000000e+000
      outer loop
         vertex -3.034337e+000 8.636000e+000 5.221304e-001
         vertex -2.988320e+000 8.636000e+000 1.422133e-001
         vertex -3.171364e+000 8.636000e+000 5.054600e-001
      endloop
   endfacet
   facet normal 0.000000e+000 1.000000e+000 0.000000e+000
      outer loop
         vertex -3.171364e+000 8.636000e+000 5.054600e-001
         vertex -2.988320e+000 8.636000e+000 1.422133e-001
         vertex -3.171364e+000 8.636000e+000 1.244600e-001
      endloop
   endfacet
   facet normal 0.000000e+000 1.000000e+000 0.000000e+000
      outer loop
         vertex -3.171364e+000 8.636000e+000 5.054600e-001
         vertex -3.171364e+000 8.636000e+000 1.244600e-001
         vertex -3.308390e+000 8.636000e+000 5.221304e-001
      endloop
   endfacet
   facet normal 0.000000e+000 1.000000e+000 0.000000e+000
      outer loop
         vertex -3.308390e+000 8.636000e+000 5.221304e-001
         vertex -3.171364e+000 8.636000e+000 1.244600e-001
         vertex -3.354407e+000 8.636000e+000 1.422133e-001
      endloop
   endfacet
   facet normal 0.000000e+000 1.000000e+000 0.000000e+000
      outer loop
         vertex -3.308390e+000 8.636000e+000 5.221304e-001
         vertex -3.354407e+000 8.636000e+000 1.422133e-001
         vertex -3.530627e+000 8.636000e+000 1.948114e-001
      endloop
   endfacet
   facet normal 0.000000e+000 1.000000e+000 0.000000e+000
      outer loop
         vertex -3.074209e+000 8.636000e+000 2.172980e+000
         vertex -2.986374e+000 8.636000e+000 2.128751e+000
         vertex -3.134584e+000 8.636000e+000 1.802891e+000
      endloop
   endfacet
   facet normal 0.000000e+000 1.000000e+000 0.000000e+000
      outer loop
         vertex -3.134584e+000 8.636000e+000 1.802891e+000
         vertex -2.986374e+000 8.636000e+000 2.128751e+000
         vertex -2.916288e+000 8.636000e+000 2.059767e+000
      endloop
   endfacet
   facet normal 0.000000e+000 1.000000e+000 0.000000e+000
      outer loop
         vertex -3.134584e+000 8.636000e+000 1.802891e+000
         vertex -2.916288e+000 8.636000e+000 2.059767e+000
         vertex -3.068921e+000 8.636000e+000 1.769732e+000
      endloop
   endfacet
   facet normal 0.000000e+000 1.000000e+000 0.000000e+000
      outer loop
         vertex -3.068921e+000 8.636000e+000 1.769732e+000
         vertex -2.916288e+000 8.636000e+000 2.059767e+000
         vertex -2.850849e+000 8.636000e+000 1.991258e+000
      endloop
   endfacet
   facet normal 0.000000e+000 1.000000e+000 0.000000e+000
      outer loop
         vertex -3.068921e+000 8.636000e+000 1.769732e+000
         vertex -2.850849e+000 8.636000e+000 1.991258e+000
         vertex -3.025253e+000 8.636000e+000 1.710535e+000
      endloop
   endfacet
   facet normal 0.000000e+000 1.000000e+000 0.000000e+000
      outer loop
         vertex -3.025253e+000 8.636000e+000 1.710535e+000
         vertex -2.850849e+000 8.636000e+000 1.991258e+000
         vertex -2.770530e+000 8.636000e+000 1.941014e+000
      endloop
   endfacet
   facet normal 0.000000e+000 1.000000e+000 0.000000e+000
      outer loop
         vertex -3.025253e+000 8.636000e+000 1.710535e+000
         vertex -2.770530e+000 8.636000e+000 1.941014e+000
         vertex -2.977816e+000 8.636000e+000 1.637247e+000
      endloop
   endfacet
   facet normal 0.000000e+000 1.000000e+000 0.000000e+000
      outer loop
         vertex -2.977816e+000 8.636000e+000 1.637247e+000
         vertex -2.770530e+000 8.636000e+000 1.941014e+000
         vertex -2.611954e+000 8.636000e+000 1.847880e+000
      endloop
   endfacet
   facet normal 0.000000e+000 1.000000e+000 0.000000e+000
      outer loop
         vertex -2.977816e+000 8.636000e+000 1.637247e+000
         vertex -2.611954e+000 8.636000e+000 1.847880e+000
         vertex -2.908365e+000 8.636000e+000 1.584349e+000
      endloop
   endfacet
   facet normal 0.000000e+000 1.000000e+000 0.000000e+000
      outer loop
         vertex -2.603841e+000 8.636000e+000 1.009656e+000
         vertex -2.241238e+000 8.636000e+000 8.717220e-001
         vertex -2.636532e+000 8.636000e+000 8.755458e-001
      endloop
   endfacet
   facet normal 0.000000e+000 1.000000e+000 0.000000e+000
      outer loop
         vertex -2.636532e+000 8.636000e+000 8.755457e-001
         vertex -2.241238e+000 8.636000e+000 8.717220e-001
         vertex -2.298015e+000 8.636000e+000 6.968039e-001
      endloop
   endfacet
   facet normal 0.000000e+000 1.000000e+000 0.000000e+000
      outer loop
         vertex -2.636532e+000 8.636000e+000 8.755457e-001
         vertex -2.298015e+000 8.636000e+000 6.968039e-001
         vertex -2.700426e+000 8.636000e+000 7.531860e-001
      endloop
   endfacet
   facet normal 0.000000e+000 1.000000e+000 0.000000e+000
      outer loop
         vertex -2.700426e+000 8.636000e+000 7.531860e-001
         vertex -2.298015e+000 8.636000e+000 6.968039e-001
         vertex -2.387348e+000 8.636000e+000 5.360568e-001
      endloop
   endfacet
   facet normal 0.000000e+000 1.000000e+000 0.000000e+000
      outer loop
         vertex -2.700426e+000 8.636000e+000 7.531860e-001
         vertex -2.387348e+000 8.636000e+000 5.360568e-001
         vertex -2.791793e+000 8.636000e+000 6.497150e-001
      endloop
   endfacet
   facet normal 0.000000e+000 1.000000e+000 0.000000e+000
      outer loop
         vertex -2.791793e+000 8.636000e+000 6.497150e-001
         vertex -2.387348e+000 8.636000e+000 5.360568e-001
         vertex -2.505908e+000 8.636000e+000 3.954732e-001
      endloop
   endfacet
   facet normal 0.000000e+000 1.000000e+000 0.000000e+000
      outer loop
         vertex -2.791793e+000 8.636000e+000 6.497150e-001
         vertex -2.505908e+000 8.636000e+000 3.954732e-001
         vertex -2.905304e+000 8.636000e+000 5.711690e-001
      endloop
   endfacet
   facet normal 0.000000e+000 1.000000e+000 0.000000e+000
      outer loop
         vertex -2.905304e+000 8.636000e+000 5.711690e-001
         vertex -2.505908e+000 8.636000e+000 3.954732e-001
         vertex -2.649273e+000 8.636000e+000 2.802935e-001
      endloop
   endfacet
   facet normal 0.000000e+000 1.000000e+000 0.000000e+000
      outer loop
         vertex -2.905304e+000 8.636000e+000 5.711690e-001
         vertex -2.649273e+000 8.636000e+000 2.802936e-001
         vertex -2.812101e+000 8.636000e+000 1.948114e-001
      endloop
   endfacet
   facet normal 0.000000e+000 1.000000e+000 0.000000e+000
      outer loop
         vertex -2.908365e+000 8.636000e+000 1.584349e+000
         vertex -2.611954e+000 8.636000e+000 1.847880e+000
         vertex -2.794381e+000 8.636000e+000 1.506491e+000
      endloop
   endfacet
   facet normal 0.000000e+000 1.000000e+000 0.000000e+000
      outer loop
         vertex -2.794381e+000 8.636000e+000 1.506491e+000
         vertex -2.611954e+000 8.636000e+000 1.847880e+000
         vertex -2.474232e+000 8.636000e+000 1.726009e+000
      endloop
   endfacet
   facet normal 0.000000e+000 1.000000e+000 0.000000e+000
      outer loop
         vertex -2.794381e+000 8.636000e+000 1.506491e+000
         vertex -2.474232e+000 8.636000e+000 1.726009e+000
         vertex -2.702391e+000 8.636000e+000 1.403574e+000
      endloop
   endfacet
   facet normal 0.000000e+000 1.000000e+000 0.000000e+000
      outer loop
         vertex -2.702391e+000 8.636000e+000 1.403574e+000
         vertex -2.474232e+000 8.636000e+000 1.726009e+000
         vertex -2.362497e+000 8.636000e+000 1.579943e+000
      endloop
   endfacet
   facet normal 0.000000e+000 1.000000e+000 0.000000e+000
      outer loop
         vertex -2.702391e+000 8.636000e+000 1.403574e+000
         vertex -2.362497e+000 8.636000e+000 1.579943e+000
         vertex -2.637759e+000 8.636000e+000 1.281602e+000
      endloop
   endfacet
   facet normal 0.000000e+000 1.000000e+000 0.000000e+000
      outer loop
         vertex -2.637759e+000 8.636000e+000 1.281602e+000
         vertex -2.362497e+000 8.636000e+000 1.579943e+000
         vertex -2.280915e+000 8.636000e+000 1.415127e+000
      endloop
   endfacet
   facet normal 0.000000e+000 1.000000e+000 0.000000e+000
      outer loop
         vertex -2.637759e+000 8.636000e+000 1.281602e+000
         vertex -2.280915e+000 8.636000e+000 1.415127e+000
         vertex -2.604258e+000 8.636000e+000 1.147692e+000
      endloop
   endfacet
   facet normal 0.000000e+000 1.000000e+000 0.000000e+000
      outer loop
         vertex -2.604258e+000 8.636000e+000 1.147692e+000
         vertex -2.280915e+000 8.636000e+000 1.415127e+000
         vertex -2.232526e+000 8.636000e+000 1.237705e+000
      endloop
   endfacet
   facet normal 0.000000e+000 1.000000e+000 0.000000e+000
      outer loop
         vertex -2.604258e+000 8.636000e+000 1.147692e+000
         vertex -2.232526e+000 8.636000e+000 1.237705e+000
         vertex -2.603841e+000 8.636000e+000 1.009656e+000
      endloop
   endfacet
   facet normal 0.000000e+000 1.000000e+000 0.000000e+000
      outer loop
         vertex -2.603841e+000 8.636000e+000 1.009656e+000
         vertex -2.232526e+000 8.636000e+000 1.237705e+000
         vertex -2.219133e+000 8.636000e+000 1.054291e+000
      endloop
   endfacet
   facet normal 0.000000e+000 1.000000e+000 0.000000e+000
      outer loop
         vertex -2.603841e+000 8.636000e+000 1.009656e+000
         vertex -2.219133e+000 8.636000e+000 1.054291e+000
         vertex -2.241238e+000 8.636000e+000 8.717220e-001
      endloop
   endfacet
   facet normal 0.000000e+000 -1.000000e+000 0.000000e+000
      outer loop
         vertex -3.034337e+000 6.096000e+000 5.221304e-001
         vertex -3.171364e+000 6.096000e+000 5.054600e-001
         vertex -3.171364e+000 6.096000e+000 1.244600e-001
      endloop
   endfacet
   facet normal 0.000000e+000 -1.000000e+000 0.000000e+000
      outer loop
         vertex -3.268519e+000 6.096000e+000 2.172980e+000
         vertex -3.208144e+000 6.096000e+000 1.802891e+000
         vertex -3.171364e+000 6.096000e+000 2.188210e+000
      endloop
   endfacet
   facet normal 0.000000e+000 -1.000000e+000 0.000000e+000
      outer loop
         vertex -3.171364e+000 6.096000e+000 2.188210e+000
         vertex -3.208144e+000 6.096000e+000 1.802891e+000
         vertex -3.134584e+000 6.096000e+000 1.802891e+000
      endloop
   endfacet
   facet normal 0.000000e+000 -1.000000e+000 0.000000e+000
      outer loop
         vertex -3.171364e+000 6.096000e+000 2.188210e+000
         vertex -3.134584e+000 6.096000e+000 1.802891e+000
         vertex -3.074209e+000 6.096000e+000 2.172980e+000
      endloop
   endfacet
   facet normal 0.000000e+000 -1.000000e+000 0.000000e+000
      outer loop
         vertex -2.986374e+000 6.096000e+000 2.128751e+000
         vertex -3.074209e+000 6.096000e+000 2.172980e+000
         vertex -2.916288e+000 6.096000e+000 2.059767e+000
      endloop
   endfacet
   facet normal 0.000000e+000 -1.000000e+000 0.000000e+000
      outer loop
         vertex -2.916288e+000 6.096000e+000 2.059767e+000
         vertex -3.074209e+000 6.096000e+000 2.172980e+000
         vertex -3.134584e+000 6.096000e+000 1.802891e+000
      endloop
   endfacet
   facet normal 0.000000e+000 -1.000000e+000 0.000000e+000
      outer loop
         vertex -2.916288e+000 6.096000e+000 2.059767e+000
         vertex -3.134584e+000 6.096000e+000 1.802891e+000
         vertex -2.850849e+000 6.096000e+000 1.991258e+000
      endloop
   endfacet
   facet normal 0.000000e+000 -1.000000e+000 0.000000e+000
      outer loop
         vertex -2.850849e+000 6.096000e+000 1.991258e+000
         vertex -3.134584e+000 6.096000e+000 1.802891e+000
         vertex -3.068921e+000 6.096000e+000 1.769732e+000
      endloop
   endfacet
   facet normal 0.000000e+000 -1.000000e+000 0.000000e+000
      outer loop
         vertex -2.850849e+000 6.096000e+000 1.991258e+000
         vertex -3.068921e+000 6.096000e+000 1.769732e+000
         vertex -2.770530e+000 6.096000e+000 1.941014e+000
      endloop
   endfacet
   facet normal 0.000000e+000 -1.000000e+000 0.000000e+000
      outer loop
         vertex -2.770530e+000 6.096000e+000 1.941014e+000
         vertex -3.068921e+000 6.096000e+000 1.769732e+000
         vertex -3.025253e+000 6.096000e+000 1.710535e+000
      endloop
   endfacet
   facet normal 0.000000e+000 -1.000000e+000 0.000000e+000
      outer loop
         vertex -3.025253e+000 6.096000e+000 1.710535e+000
         vertex -2.977816e+000 6.096000e+000 1.637247e+000
         vertex -2.770530e+000 6.096000e+000 1.941014e+000
      endloop
   endfacet
   facet normal 0.000000e+000 -1.000000e+000 0.000000e+000
      outer loop
         vertex -2.770530e+000 6.096000e+000 1.941014e+000
         vertex -2.977816e+000 6.096000e+000 1.637247e+000
         vertex -2.908365e+000 6.096000e+000 1.584349e+000
      endloop
   endfacet
   facet normal 0.000000e+000 -1.000000e+000 0.000000e+000
      outer loop
         vertex -2.770530e+000 6.096000e+000 1.941014e+000
         vertex -2.908365e+000 6.096000e+000 1.584349e+000
         vertex -2.611954e+000 6.096000e+000 1.847880e+000
      endloop
   endfacet
   facet normal 0.000000e+000 -1.000000e+000 0.000000e+000
      outer loop
         vertex -2.611954e+000 6.096000e+000 1.847880e+000
         vertex -2.908365e+000 6.096000e+000 1.584349e+000
         vertex -2.794381e+000 6.096000e+000 1.506491e+000
      endloop
   endfacet
   facet normal 0.000000e+000 -1.000000e+000 0.000000e+000
      outer loop
         vertex -2.611954e+000 6.096000e+000 1.847880e+000
         vertex -2.794381e+000 6.096000e+000 1.506491e+000
         vertex -2.474232e+000 6.096000e+000 1.726009e+000
      endloop
   endfacet
   facet normal 0.000000e+000 -1.000000e+000 0.000000e+000
      outer loop
         vertex -2.474232e+000 6.096000e+000 1.726009e+000
         vertex -2.794381e+000 6.096000e+000 1.506491e+000
         vertex -2.702391e+000 6.096000e+000 1.403574e+000
      endloop
   endfacet
   facet normal 0.000000e+000 -1.000000e+000 0.000000e+000
      outer loop
         vertex -3.171364e+000 6.096000e+000 1.244600e-001
         vertex -3.171364e+000 6.096000e+000 5.054600e-001
         vertex -3.354407e+000 6.096000e+000 1.422133e-001
      endloop
   endfacet
   facet normal 0.000000e+000 -1.000000e+000 0.000000e+000
      outer loop
         vertex -3.354407e+000 6.096000e+000 1.422133e-001
         vertex -3.171364e+000 6.096000e+000 5.054600e-001
         vertex -3.308390e+000 6.096000e+000 5.221304e-001
      endloop
   endfacet
   facet normal 0.000000e+000 -1.000000e+000 0.000000e+000
      outer loop
         vertex -3.354407e+000 6.096000e+000 1.422133e-001
         vertex -3.308390e+000 6.096000e+000 5.221304e-001
         vertex -3.530627e+000 6.096000e+000 1.948114e-001
      endloop
   endfacet
   facet normal 0.000000e+000 -1.000000e+000 0.000000e+000
      outer loop
         vertex -3.530627e+000 6.096000e+000 1.948114e-001
         vertex -3.308390e+000 6.096000e+000 5.221304e-001
         vertex -3.437423e+000 6.096000e+000 5.711690e-001
      endloop
   endfacet
   facet normal 0.000000e+000 -1.000000e+000 0.000000e+000
      outer loop
         vertex -3.530627e+000 6.096000e+000 1.948114e-001
         vertex -3.437423e+000 6.096000e+000 5.711690e-001
         vertex -3.693454e+000 6.096000e+000 2.802935e-001
      endloop
   endfacet
   facet normal 0.000000e+000 -1.000000e+000 0.000000e+000
      outer loop
         vertex -3.693454e+000 6.096000e+000 2.802936e-001
         vertex -3.437423e+000 6.096000e+000 5.711690e-001
         vertex -3.836820e+000 6.096000e+000 3.954732e-001
      endloop
   endfacet
   facet normal 0.000000e+000 -1.000000e+000 0.000000e+000
      outer loop
         vertex -3.836820e+000 6.096000e+000 3.954732e-001
         vertex -3.437423e+000 6.096000e+000 5.711690e-001
         vertex -3.550934e+000 6.096000e+000 6.497150e-001
      endloop
   endfacet
   facet normal 0.000000e+000 -1.000000e+000 0.000000e+000
      outer loop
         vertex -3.836820e+000 6.096000e+000 3.954732e-001
         vertex -3.550934e+000 6.096000e+000 6.497150e-001
         vertex -3.955379e+000 6.096000e+000 5.360568e-001
      endloop
   endfacet
   facet normal 0.000000e+000 -1.000000e+000 0.000000e+000
      outer loop
         vertex -3.955379e+000 6.096000e+000 5.360568e-001
         vertex -3.550934e+000 6.096000e+000 6.497150e-001
         vertex -3.642302e+000 6.096000e+000 7.531860e-001
      endloop
   endfacet
   facet normal 0.000000e+000 -1.000000e+000 0.000000e+000
      outer loop
         vertex -3.955379e+000 6.096000e+000 5.360568e-001
         vertex -3.642302e+000 6.096000e+000 7.531860e-001
         vertex -4.044713e+000 6.096000e+000 6.968039e-001
      endloop
   endfacet
   facet normal 0.000000e+000 -1.000000e+000 0.000000e+000
      outer loop
         vertex -4.044713e+000 6.096000e+000 6.968039e-001
         vertex -3.642302e+000 6.096000e+000 7.531860e-001
         vertex -3.706195e+000 6.096000e+000 8.755458e-001
      endloop
   endfacet
   facet normal 0.000000e+000 -1.000000e+000 0.000000e+000
      outer loop
         vertex -4.044713e+000 6.096000e+000 6.968039e-001
         vertex -3.706195e+000 6.096000e+000 8.755457e-001
         vertex -4.101490e+000 6.096000e+000 8.717220e-001
      endloop
   endfacet
   facet normal 0.000000e+000 -1.000000e+000 0.000000e+000
      outer loop
         vertex -4.101490e+000 6.096000e+000 8.717220e-001
         vertex -3.706195e+000 6.096000e+000 8.755457e-001
         vertex -3.738887e+000 6.096000e+000 1.009656e+000
      endloop
   endfacet
   facet normal 0.000000e+000 -1.000000e+000 0.000000e+000
      outer loop
         vertex -4.101490e+000 6.096000e+000 8.717220e-001
         vertex -3.738887e+000 6.096000e+000 1.009656e+000
         vertex -4.123594e+000 6.096000e+000 1.054291e+000
      endloop
   endfacet
   facet normal 0.000000e+000 -1.000000e+000 0.000000e+000
      outer loop
         vertex -4.123594e+000 6.096000e+000 1.054291e+000
         vertex -3.738887e+000 6.096000e+000 1.009656e+000
         vertex -4.110202e+000 6.096000e+000 1.237705e+000
      endloop
   endfacet
   facet normal 0.000000e+000 -1.000000e+000 0.000000e+000
      outer loop
         vertex -4.110202e+000 6.096000e+000 1.237705e+000
         vertex -3.738887e+000 6.096000e+000 1.009656e+000
         vertex -3.738470e+000 6.096000e+000 1.147692e+000
      endloop
   endfacet
   facet normal 0.000000e+000 -1.000000e+000 0.000000e+000
      outer loop
         vertex -4.110202e+000 6.096000e+000 1.237705e+000
         vertex -3.738470e+000 6.096000e+000 1.147692e+000
         vertex -4.061813e+000 6.096000e+000 1.415127e+000
      endloop
   endfacet
   facet normal 0.000000e+000 -1.000000e+000 0.000000e+000
      outer loop
         vertex -4.061813e+000 6.096000e+000 1.415127e+000
         vertex -3.738470e+000 6.096000e+000 1.147692e+000
         vertex -3.704968e+000 6.096000e+000 1.281602e+000
      endloop
   endfacet
   facet normal 0.000000e+000 -1.000000e+000 0.000000e+000
      outer loop
         vertex -4.061813e+000 6.096000e+000 1.415127e+000
         vertex -3.704968e+000 6.096000e+000 1.281602e+000
         vertex -3.980230e+000 6.096000e+000 1.579943e+000
      endloop
   endfacet
   facet normal 0.000000e+000 -1.000000e+000 0.000000e+000
      outer loop
         vertex -3.980230e+000 6.096000e+000 1.579943e+000
         vertex -3.704968e+000 6.096000e+000 1.281602e+000
         vertex -3.640337e+000 6.096000e+000 1.403574e+000
      endloop
   endfacet
   facet normal 0.000000e+000 -1.000000e+000 0.000000e+000
      outer loop
         vertex -3.980230e+000 6.096000e+000 1.579943e+000
         vertex -3.640337e+000 6.096000e+000 1.403574e+000
         vertex -3.868495e+000 6.096000e+000 1.726009e+000
      endloop
   endfacet
   facet normal 0.000000e+000 -1.000000e+000 0.000000e+000
      outer loop
         vertex -3.868495e+000 6.096000e+000 1.726009e+000
         vertex -3.640337e+000 6.096000e+000 1.403574e+000
         vertex -3.548346e+000 6.096000e+000 1.506491e+000
      endloop
   endfacet
   facet normal 0.000000e+000 -1.000000e+000 0.000000e+000
      outer loop
         vertex -3.868495e+000 6.096000e+000 1.726009e+000
         vertex -3.548346e+000 6.096000e+000 1.506491e+000
         vertex -3.730773e+000 6.096000e+000 1.847880e+000
      endloop
   endfacet
   facet normal 0.000000e+000 -1.000000e+000 0.000000e+000
      outer loop
         vertex -2.636532e+000 6.096000e+000 8.755457e-001
         vertex -2.241238e+000 6.096000e+000 8.717220e-001
         vertex -2.603841e+000 6.096000e+000 1.009656e+000
      endloop
   endfacet
   facet normal 0.000000e+000 -1.000000e+000 0.000000e+000
      outer loop
         vertex -2.603841e+000 6.096000e+000 1.009656e+000
         vertex -2.241238e+000 6.096000e+000 8.717220e-001
         vertex -2.219133e+000 6.096000e+000 1.054291e+000
      endloop
   endfacet
   facet normal 0.000000e+000 -1.000000e+000 0.000000e+000
      outer loop
         vertex -2.603841e+000 6.096000e+000 1.009656e+000
         vertex -2.219133e+000 6.096000e+000 1.054291e+000
         vertex -2.604258e+000 6.096000e+000 1.147692e+000
      endloop
   endfacet
   facet normal 0.000000e+000 -1.000000e+000 0.000000e+000
      outer loop
         vertex -2.604258e+000 6.096000e+000 1.147692e+000
         vertex -2.219133e+000 6.096000e+000 1.054291e+000
         vertex -2.232526e+000 6.096000e+000 1.237705e+000
      endloop
   endfacet
   facet normal 0.000000e+000 -1.000000e+000 0.000000e+000
      outer loop
         vertex -2.604258e+000 6.096000e+000 1.147692e+000
         vertex -2.232526e+000 6.096000e+000 1.237705e+000
         vertex -2.637759e+000 6.096000e+000 1.281602e+000
      endloop
   endfacet
   facet normal 0.000000e+000 -1.000000e+000 0.000000e+000
      outer loop
         vertex -2.637759e+000 6.096000e+000 1.281602e+000
         vertex -2.232526e+000 6.096000e+000 1.237705e+000
         vertex -2.280915e+000 6.096000e+000 1.415127e+000
      endloop
   endfacet
   facet normal 0.000000e+000 -1.000000e+000 0.000000e+000
      outer loop
         vertex -2.637759e+000 6.096000e+000 1.281602e+000
         vertex -2.280915e+000 6.096000e+000 1.415127e+000
         vertex -2.702391e+000 6.096000e+000 1.403574e+000
      endloop
   endfacet
   facet normal 0.000000e+000 -1.000000e+000 0.000000e+000
      outer loop
         vertex -2.702391e+000 6.096000e+000 1.403574e+000
         vertex -2.280915e+000 6.096000e+000 1.415127e+000
         vertex -2.362497e+000 6.096000e+000 1.579943e+000
      endloop
   endfacet
   facet normal 0.000000e+000 -1.000000e+000 0.000000e+000
      outer loop
         vertex -2.702391e+000 6.096000e+000 1.403574e+000
         vertex -2.362497e+000 6.096000e+000 1.579943e+000
         vertex -2.474232e+000 6.096000e+000 1.726009e+000
      endloop
   endfacet
   facet normal 0.000000e+000 -1.000000e+000 0.000000e+000
      outer loop
         vertex -3.268519e+000 6.096000e+000 2.172980e+000
         vertex -3.356353e+000 6.096000e+000 2.128751e+000
         vertex -3.208144e+000 6.096000e+000 1.802891e+000
      endloop
   endfacet
   facet normal 0.000000e+000 -1.000000e+000 0.000000e+000
      outer loop
         vertex -3.208144e+000 6.096000e+000 1.802891e+000
         vertex -3.356353e+000 6.096000e+000 2.128751e+000
         vertex -3.426440e+000 6.096000e+000 2.059767e+000
      endloop
   endfacet
   facet normal 0.000000e+000 -1.000000e+000 0.000000e+000
      outer loop
         vertex -3.208144e+000 6.096000e+000 1.802891e+000
         vertex -3.426440e+000 6.096000e+000 2.059767e+000
         vertex -3.273807e+000 6.096000e+000 1.769732e+000
      endloop
   endfacet
   facet normal 0.000000e+000 -1.000000e+000 0.000000e+000
      outer loop
         vertex -3.273807e+000 6.096000e+000 1.769732e+000
         vertex -3.426440e+000 6.096000e+000 2.059767e+000
         vertex -3.491879e+000 6.096000e+000 1.991258e+000
      endloop
   endfacet
   facet normal 0.000000e+000 -1.000000e+000 0.000000e+000
      outer loop
         vertex -3.273807e+000 6.096000e+000 1.769732e+000
         vertex -3.491879e+000 6.096000e+000 1.991258e+000
         vertex -3.317474e+000 6.096000e+000 1.710535e+000
      endloop
   endfacet
   facet normal 0.000000e+000 -1.000000e+000 0.000000e+000
      outer loop
         vertex -3.317474e+000 6.096000e+000 1.710535e+000
         vertex -3.491879e+000 6.096000e+000 1.991258e+000
         vertex -3.572197e+000 6.096000e+000 1.941014e+000
      endloop
   endfacet
   facet normal 0.000000e+000 -1.000000e+000 0.000000e+000
      outer loop
         vertex -3.317474e+000 6.096000e+000 1.710535e+000
         vertex -3.572197e+000 6.096000e+000 1.941014e+000
         vertex -3.364912e+000 6.096000e+000 1.637247e+000
      endloop
   endfacet
   facet normal 0.000000e+000 -1.000000e+000 0.000000e+000
      outer loop
         vertex -3.364912e+000 6.096000e+000 1.637247e+000
         vertex -3.572197e+000 6.096000e+000 1.941014e+000
         vertex -3.730773e+000 6.096000e+000 1.847880e+000
      endloop
   endfacet
   facet normal 0.000000e+000 -1.000000e+000 0.000000e+000
      outer loop
         vertex -3.364912e+000 6.096000e+000 1.637247e+000
         vertex -3.730773e+000 6.096000e+000 1.847880e+000
         vertex -3.434362e+000 6.096000e+000 1.584349e+000
      endloop
   endfacet
   facet normal 0.000000e+000 -1.000000e+000 0.000000e+000
      outer loop
         vertex -3.434362e+000 6.096000e+000 1.584349e+000
         vertex -3.730773e+000 6.096000e+000 1.847880e+000
         vertex -3.548346e+000 6.096000e+000 1.506491e+000
      endloop
   endfacet
   facet normal 0.000000e+000 -1.000000e+000 0.000000e+000
      outer loop
         vertex -3.171364e+000 6.096000e+000 1.244600e-001
         vertex -2.988320e+000 6.096000e+000 1.422133e-001
         vertex -3.034337e+000 6.096000e+000 5.221304e-001
      endloop
   endfacet
   facet normal 0.000000e+000 -1.000000e+000 0.000000e+000
      outer loop
         vertex -3.034337e+000 6.096000e+000 5.221304e-001
         vertex -2.988320e+000 6.096000e+000 1.422133e-001
         vertex -2.812101e+000 6.096000e+000 1.948114e-001
      endloop
   endfacet
   facet normal 0.000000e+000 -1.000000e+000 0.000000e+000
      outer loop
         vertex -3.034337e+000 6.096000e+000 5.221304e-001
         vertex -2.812101e+000 6.096000e+000 1.948114e-001
         vertex -2.905304e+000 6.096000e+000 5.711690e-001
      endloop
   endfacet
   facet normal 0.000000e+000 -1.000000e+000 0.000000e+000
      outer loop
         vertex -2.905304e+000 6.096000e+000 5.711690e-001
         vertex -2.812101e+000 6.096000e+000 1.948114e-001
         vertex -2.649273e+000 6.096000e+000 2.802935e-001
      endloop
   endfacet
   facet normal 0.000000e+000 -1.000000e+000 0.000000e+000
      outer loop
         vertex -2.905304e+000 6.096000e+000 5.711690e-001
         vertex -2.649273e+000 6.096000e+000 2.802936e-001
         vertex -2.791793e+000 6.096000e+000 6.497150e-001
      endloop
   endfacet
   facet normal 0.000000e+000 -1.000000e+000 0.000000e+000
      outer loop
         vertex -2.791793e+000 6.096000e+000 6.497150e-001
         vertex -2.649273e+000 6.096000e+000 2.802936e-001
         vertex -2.505908e+000 6.096000e+000 3.954732e-001
      endloop
   endfacet
   facet normal 0.000000e+000 -1.000000e+000 0.000000e+000
      outer loop
         vertex -2.791793e+000 6.096000e+000 6.497150e-001
         vertex -2.505908e+000 6.096000e+000 3.954732e-001
         vertex -2.700426e+000 6.096000e+000 7.531860e-001
      endloop
   endfacet
   facet normal 0.000000e+000 -1.000000e+000 0.000000e+000
      outer loop
         vertex -2.700426e+000 6.096000e+000 7.531860e-001
         vertex -2.505908e+000 6.096000e+000 3.954732e-001
         vertex -2.387348e+000 6.096000e+000 5.360568e-001
      endloop
   endfacet
   facet normal 0.000000e+000 -1.000000e+000 0.000000e+000
      outer loop
         vertex -2.700426e+000 6.096000e+000 7.531860e-001
         vertex -2.387348e+000 6.096000e+000 5.360568e-001
         vertex -2.636532e+000 6.096000e+000 8.755458e-001
      endloop
   endfacet
   facet normal 0.000000e+000 -1.000000e+000 0.000000e+000
      outer loop
         vertex -2.636532e+000 6.096000e+000 8.755457e-001
         vertex -2.387348e+000 6.096000e+000 5.360568e-001
         vertex -2.298015e+000 6.096000e+000 6.968039e-001
      endloop
   endfacet
   facet normal 0.000000e+000 -1.000000e+000 0.000000e+000
      outer loop
         vertex -2.636532e+000 6.096000e+000 8.755457e-001
         vertex -2.298015e+000 6.096000e+000 6.968039e-001
         vertex -2.241238e+000 6.096000e+000 8.717220e-001
      endloop
   endfacet
   facet normal -7.377130e-001 0.000000e+000 6.751144e-001
      outer loop
         vertex -3.426440e+000 8.636000e+000 2.059767e+000
         vertex -3.426440e+000 6.096000e+000 2.059767e+000
         vertex -3.356353e+000 6.096000e+000 2.128751e+000
      endloop
   endfacet
   facet normal -6.633338e-001 0.000000e+000 7.483236e-001
      outer loop
         vertex -3.426440e+000 8.636000e+000 2.059767e+000
         vertex -3.356353e+000 6.096000e+000 2.128751e+000
         vertex -3.356353e+000 8.636000e+000 2.128751e+000
      endloop
   endfacet
   facet normal -4.957413e-001 0.000000e+000 8.684703e-001
      outer loop
         vertex -3.356353e+000 8.636000e+000 2.128751e+000
         vertex -3.356353e+000 6.096000e+000 2.128751e+000
         vertex -3.268519e+000 6.096000e+000 2.172980e+000
      endloop
   endfacet
   facet normal -4.025280e-001 0.000000e+000 9.154077e-001
      outer loop
         vertex -3.356353e+000 8.636000e+000 2.128751e+000
         vertex -3.268519e+000 6.096000e+000 2.172980e+000
         vertex -3.268519e+000 8.636000e+000 2.172980e+000
      endloop
   endfacet
   facet normal -2.062098e-001 0.000000e+000 9.785078e-001
      outer loop
         vertex -3.268519e+000 8.636000e+000 2.172980e+000
         vertex -3.268519e+000 6.096000e+000 2.172980e+000
         vertex -3.171364e+000 6.096000e+000 2.188210e+000
      endloop
   endfacet
   facet normal -1.031049e-001 0.000000e+000 9.946705e-001
      outer loop
         vertex -3.268519e+000 8.636000e+000 2.172980e+000
         vertex -3.171364e+000 6.096000e+000 2.188210e+000
         vertex -3.171364e+000 8.636000e+000 2.188210e+000
      endloop
   endfacet
   facet normal 1.031049e-001 0.000000e+000 9.946705e-001
      outer loop
         vertex -3.171364e+000 8.636000e+000 2.188210e+000
         vertex -3.171364e+000 6.096000e+000 2.188210e+000
         vertex -3.074209e+000 6.096000e+000 2.172980e+000
      endloop
   endfacet
   facet normal 2.062098e-001 0.000000e+000 9.785078e-001
      outer loop
         vertex -3.171364e+000 8.636000e+000 2.188210e+000
         vertex -3.074209e+000 6.096000e+000 2.172980e+000
         vertex -3.074209e+000 8.636000e+000 2.172980e+000
      endloop
   endfacet
   facet normal 4.025280e-001 0.000000e+000 9.154077e-001
      outer loop
         vertex -3.074209e+000 8.636000e+000 2.172980e+000
         vertex -3.074209e+000 6.096000e+000 2.172980e+000
         vertex -2.986374e+000 6.096000e+000 2.128751e+000
      endloop
   endfacet
   facet normal 4.957413e-001 0.000000e+000 8.684703e-001
      outer loop
         vertex -3.074209e+000 8.636000e+000 2.172980e+000
         vertex -2.986374e+000 6.096000e+000 2.128751e+000
         vertex -2.986374e+000 8.636000e+000 2.128751e+000
      endloop
   endfacet
   facet normal 6.633338e-001 0.000000e+000 7.483236e-001
      outer loop
         vertex -2.986374e+000 8.636000e+000 2.128751e+000
         vertex -2.986374e+000 6.096000e+000 2.128751e+000
         vertex -2.916288e+000 6.096000e+000 2.059767e+000
      endloop
   endfacet
   facet normal 7.377130e-001 0.000000e+000 6.751144e-001
      outer loop
         vertex -2.986374e+000 8.636000e+000 2.128751e+000
         vertex -2.916288e+000 6.096000e+000 2.059767e+000
         vertex -2.916288e+000 8.636000e+000 2.059767e+000
      endloop
   endfacet
   facet normal 4.783025e-001 0.000000e+000 8.781952e-001
      outer loop
         vertex -2.770530e+000 8.636000e+000 1.941014e+000
         vertex -2.770530e+000 6.096000e+000 1.941014e+000
         vertex -2.611954e+000 6.096000e+000 1.847880e+000
      endloop
   endfacet
   facet normal 5.340282e-001 0.000000e+000 8.454667e-001
      outer loop
         vertex -2.770530e+000 8.636000e+000 1.941014e+000
         vertex -2.611954e+000 6.096000e+000 1.847880e+000
         vertex -2.611954e+000 8.636000e+000 1.847880e+000
      endloop
   endfacet
   facet normal 6.381516e-001 0.000000e+000 7.699108e-001
      outer loop
         vertex -2.611954e+000 8.636000e+000 1.847880e+000
         vertex -2.611954e+000 6.096000e+000 1.847880e+000
         vertex -2.474232e+000 6.096000e+000 1.726009e+000
      endloop
   endfacet
   facet normal 6.865492e-001 0.000000e+000 7.270833e-001
      outer loop
         vertex -2.611954e+000 8.636000e+000 1.847880e+000
         vertex -2.474232e+000 6.096000e+000 1.726009e+000
         vertex -2.474232e+000 8.636000e+000 1.726009e+000
      endloop
   endfacet
   facet normal 7.742121e-001 0.000000e+000 6.329262e-001
      outer loop
         vertex -2.474232e+000 8.636000e+000 1.726009e+000
         vertex -2.474232e+000 6.096000e+000 1.726009e+000
         vertex -2.362497e+000 6.096000e+000 1.579943e+000
      endloop
   endfacet
   facet normal 8.134775e-001 0.000000e+000 5.815964e-001
      outer loop
         vertex -2.474232e+000 8.636000e+000 1.726009e+000
         vertex -2.362497e+000 6.096000e+000 1.579943e+000
         vertex -2.362497e+000 8.636000e+000 1.579943e+000
      endloop
   endfacet
   facet normal 8.814122e-001 0.000000e+000 4.723479e-001
      outer loop
         vertex -2.362497e+000 8.636000e+000 1.579943e+000
         vertex -2.362497e+000 6.096000e+000 1.579943e+000
         vertex -2.280915e+000 6.096000e+000 1.415127e+000
      endloop
   endfacet
   facet normal 9.100816e-001 0.000000e+000 4.144292e-001
      outer loop
         vertex -2.362497e+000 8.636000e+000 1.579943e+000
         vertex -2.280915e+000 6.096000e+000 1.415127e+000
         vertex -2.280915e+000 8.636000e+000 1.415127e+000
      endloop
   endfacet
   facet normal 9.557557e-001 0.000000e+000 2.941617e-001
      outer loop
         vertex -2.280915e+000 8.636000e+000 1.415127e+000
         vertex -2.280915e+000 6.096000e+000 1.415127e+000
         vertex -2.232526e+000 6.096000e+000 1.237705e+000
      endloop
   endfacet
   facet normal 9.727603e-001 0.000000e+000 2.318131e-001
      outer loop
         vertex -2.280915e+000 8.636000e+000 1.415127e+000
         vertex -2.232526e+000 6.096000e+000 1.237705e+000
         vertex -2.232526e+000 8.636000e+000 1.237705e+000
      endloop
   endfacet
   facet normal 9.944711e-001 0.000000e+000 1.050100e-001
      outer loop
         vertex -2.232526e+000 8.636000e+000 1.237705e+000
         vertex -2.232526e+000 6.096000e+000 1.237705e+000
         vertex -2.219133e+000 6.096000e+000 1.054291e+000
      endloop
   endfacet
   facet normal 9.991773e-001 0.000000e+000 4.055567e-002
      outer loop
         vertex -2.232526e+000 8.636000e+000 1.237705e+000
         vertex -2.219133e+000 6.096000e+000 1.054291e+000
         vertex -2.219133e+000 8.636000e+000 1.054291e+000
      endloop
   endfacet
   facet normal 9.961155e-001 0.000000e+000 -8.805613e-002
      outer loop
         vertex -2.219133e+000 8.636000e+000 1.054291e+000
         vertex -2.219133e+000 6.096000e+000 1.054291e+000
         vertex -2.241238e+000 6.096000e+000 8.717220e-001
      endloop
   endfacet
   facet normal 9.883476e-001 0.000000e+000 -1.522135e-001
      outer loop
         vertex -2.219133e+000 8.636000e+000 1.054291e+000
         vertex -2.241238e+000 6.096000e+000 8.717220e-001
         vertex -2.241238e+000 8.636000e+000 8.717220e-001
      endloop
   endfacet
   facet normal 9.606274e-001 0.000000e+000 -2.778398e-001
      outer loop
         vertex -2.241238e+000 8.636000e+000 8.717220e-001
         vertex -2.241238e+000 6.096000e+000 8.717220e-001
         vertex -2.298015e+000 6.096000e+000 6.968039e-001
      endloop
   endfacet
   facet normal 9.406751e-001 0.000000e+000 -3.393086e-001
      outer loop
         vertex -2.241238e+000 8.636000e+000 8.717220e-001
         vertex -2.298015e+000 6.096000e+000 6.968039e-001
         vertex -2.298015e+000 8.636000e+000 6.968039e-001
      endloop
   endfacet
   facet normal 8.893298e-001 0.000000e+000 -4.572664e-001
      outer loop
         vertex -2.298015e+000 8.636000e+000 6.968039e-001
         vertex -2.298015e+000 6.096000e+000 6.968039e-001
         vertex -2.387348e+000 6.096000e+000 5.360568e-001
      endloop
   endfacet
   facet normal 8.579368e-001 0.000000e+000 -5.137553e-001
      outer loop
         vertex -2.298015e+000 8.636000e+000 6.968039e-001
         vertex -2.387348e+000 6.096000e+000 5.360568e-001
         vertex -2.387348e+000 8.636000e+000 5.360568e-001
      endloop
   endfacet
   facet normal 7.848803e-001 0.000000e+000 -6.196473e-001
      outer loop
         vertex -2.387348e+000 8.636000e+000 5.360568e-001
         vertex -2.387348e+000 6.096000e+000 5.360568e-001
         vertex -2.505908e+000 6.096000e+000 3.954732e-001
      endloop
   endfacet
   facet normal 7.432169e-001 0.000000e+000 -6.690505e-001
      outer loop
         vertex -2.387348e+000 8.636000e+000 5.360568e-001
         vertex -2.505908e+000 6.096000e+000 3.954732e-001
         vertex -2.505908e+000 8.636000e+000 3.954732e-001
      endloop
   endfacet
   facet normal 6.511728e-001 0.000000e+000 -7.589295e-001
      outer loop
         vertex -2.505908e+000 8.636000e+000 3.954732e-001
         vertex -2.505908e+000 6.096000e+000 3.954732e-001
         vertex -2.649273e+000 6.096000e+000 2.802935e-001
      endloop
   endfacet
   facet normal 6.007921e-001 0.000000e+000 -7.994053e-001
      outer loop
         vertex -2.505908e+000 8.636000e+000 3.954732e-001
         vertex -2.649273e+000 6.096000e+000 2.802936e-001
         vertex -2.649273e+000 8.636000e+000 2.802935e-001
      endloop
   endfacet
   facet normal 4.931912e-001 0.000000e+000 -8.699209e-001
      outer loop
         vertex -2.649273e+000 8.636000e+000 2.802936e-001
         vertex -2.649273e+000 6.096000e+000 2.802936e-001
         vertex -2.812101e+000 6.096000e+000 1.948114e-001
      endloop
   endfacet
   facet normal 4.359712e-001 0.000000e+000 -8.999606e-001
      outer loop
         vertex -2.649273e+000 8.636000e+000 2.802936e-001
         vertex -2.812101e+000 6.096000e+000 1.948114e-001
         vertex -2.812101e+000 8.636000e+000 1.948114e-001
      endloop
   endfacet
   facet normal 3.168249e-001 0.000000e+000 -9.484841e-001
      outer loop
         vertex -2.812101e+000 8.636000e+000 1.948114e-001
         vertex -2.812101e+000 6.096000e+000 1.948114e-001
         vertex -2.988320e+000 6.096000e+000 1.422133e-001
      endloop
   endfacet
   facet normal 2.548986e-001 0.000000e+000 -9.669678e-001
      outer loop
         vertex -2.812101e+000 8.636000e+000 1.948114e-001
         vertex -2.988320e+000 6.096000e+000 1.422133e-001
         vertex -2.988320e+000 8.636000e+000 1.422133e-001
      endloop
   endfacet
   facet normal 1.286482e-001 0.000000e+000 -9.916903e-001
      outer loop
         vertex -2.988320e+000 8.636000e+000 1.422133e-001
         vertex -2.988320e+000 6.096000e+000 1.422133e-001
         vertex -3.171364e+000 6.096000e+000 1.244600e-001
      endloop
   endfacet
   facet normal 6.432411e-002 0.000000e+000 -9.979290e-001
      outer loop
         vertex -2.988320e+000 8.636000e+000 1.422133e-001
         vertex -3.171364e+000 6.096000e+000 1.244600e-001
         vertex -3.171364e+000 8.636000e+000 1.244600e-001
      endloop
   endfacet
   facet normal -6.432411e-002 0.000000e+000 -9.979290e-001
      outer loop
         vertex -3.171364e+000 8.636000e+000 1.244600e-001
         vertex -3.171364e+000 6.096000e+000 1.244600e-001
         vertex -3.354407e+000 6.096000e+000 1.422133e-001
      endloop
   endfacet
   facet normal -1.286482e-001 0.000000e+000 -9.916903e-001
      outer loop
         vertex -3.171364e+000 8.636000e+000 1.244600e-001
         vertex -3.354407e+000 6.096000e+000 1.422133e-001
         vertex -3.354407e+000 8.636000e+000 1.422133e-001
      endloop
   endfacet
   facet normal -2.548986e-001 0.000000e+000 -9.669678e-001
      outer loop
         vertex -3.354407e+000 8.636000e+000 1.422133e-001
         vertex -3.354407e+000 6.096000e+000 1.422133e-001
         vertex -3.530627e+000 6.096000e+000 1.948114e-001
      endloop
   endfacet
   facet normal -3.168249e-001 0.000000e+000 -9.484841e-001
      outer loop
         vertex -3.354407e+000 8.636000e+000 1.422133e-001
         vertex -3.530627e+000 6.096000e+000 1.948114e-001
         vertex -3.530627e+000 8.636000e+000 1.948114e-001
      endloop
   endfacet
   facet normal -4.359712e-001 0.000000e+000 -8.999606e-001
      outer loop
         vertex -3.530627e+000 8.636000e+000 1.948114e-001
         vertex -3.530627e+000 6.096000e+000 1.948114e-001
         vertex -3.693454e+000 6.096000e+000 2.802935e-001
      endloop
   endfacet
   facet normal -4.931912e-001 0.000000e+000 -8.699209e-001
      outer loop
         vertex -3.530627e+000 8.636000e+000 1.948114e-001
         vertex -3.693454e+000 6.096000e+000 2.802936e-001
         vertex -3.693454e+000 8.636000e+000 2.802935e-001
      endloop
   endfacet
   facet normal -6.007921e-001 0.000000e+000 -7.994053e-001
      outer loop
         vertex -3.693454e+000 8.636000e+000 2.802936e-001
         vertex -3.693454e+000 6.096000e+000 2.802936e-001
         vertex -3.836820e+000 6.096000e+000 3.954732e-001
      endloop
   endfacet
   facet normal -6.511728e-001 0.000000e+000 -7.589295e-001
      outer loop
         vertex -3.693454e+000 8.636000e+000 2.802936e-001
         vertex -3.836820e+000 6.096000e+000 3.954732e-001
         vertex -3.836820e+000 8.636000e+000 3.954732e-001
      endloop
   endfacet
   facet normal -7.432169e-001 0.000000e+000 -6.690505e-001
      outer loop
         vertex -3.836820e+000 8.636000e+000 3.954732e-001
         vertex -3.836820e+000 6.096000e+000 3.954732e-001
         vertex -3.955379e+000 6.096000e+000 5.360568e-001
      endloop
   endfacet
   facet normal -7.848803e-001 0.000000e+000 -6.196473e-001
      outer loop
         vertex -3.836820e+000 8.636000e+000 3.954732e-001
         vertex -3.955379e+000 6.096000e+000 5.360568e-001
         vertex -3.955379e+000 8.636000e+000 5.360568e-001
      endloop
   endfacet
   facet normal -8.579368e-001 0.000000e+000 -5.137553e-001
      outer loop
         vertex -3.955379e+000 8.636000e+000 5.360568e-001
         vertex -3.955379e+000 6.096000e+000 5.360568e-001
         vertex -4.044713e+000 6.096000e+000 6.968039e-001
      endloop
   endfacet
   facet normal -8.893298e-001 0.000000e+000 -4.572664e-001
      outer loop
         vertex -3.955379e+000 8.636000e+000 5.360568e-001
         vertex -4.044713e+000 6.096000e+000 6.968039e-001
         vertex -4.044713e+000 8.636000e+000 6.968039e-001
      endloop
   endfacet
   facet normal -9.406751e-001 0.000000e+000 -3.393086e-001
      outer loop
         vertex -4.044713e+000 8.636000e+000 6.968039e-001
         vertex -4.044713e+000 6.096000e+000 6.968039e-001
         vertex -4.101490e+000 6.096000e+000 8.717220e-001
      endloop
   endfacet
   facet normal -9.606274e-001 0.000000e+000 -2.778398e-001
      outer loop
         vertex -4.044713e+000 8.636000e+000 6.968039e-001
         vertex -4.101490e+000 6.096000e+000 8.717220e-001
         vertex -4.101490e+000 8.636000e+000 8.717220e-001
      endloop
   endfacet
   facet normal -9.883476e-001 0.000000e+000 -1.522135e-001
      outer loop
         vertex -4.101490e+000 8.636000e+000 8.717220e-001
         vertex -4.101490e+000 6.096000e+000 8.717220e-001
         vertex -4.123594e+000 6.096000e+000 1.054291e+000
      endloop
   endfacet
   facet normal -9.961155e-001 0.000000e+000 -8.805613e-002
      outer loop
         vertex -4.101490e+000 8.636000e+000 8.717220e-001
         vertex -4.123594e+000 6.096000e+000 1.054291e+000
         vertex -4.123594e+000 8.636000e+000 1.054291e+000
      endloop
   endfacet
   facet normal -9.991773e-001 0.000000e+000 4.055567e-002
      outer loop
         vertex -4.123594e+000 8.636000e+000 1.054291e+000
         vertex -4.123594e+000 6.096000e+000 1.054291e+000
         vertex -4.110202e+000 6.096000e+000 1.237705e+000
      endloop
   endfacet
   facet normal -9.944711e-001 0.000000e+000 1.050100e-001
      outer loop
         vertex -4.123594e+000 8.636000e+000 1.054291e+000
         vertex -4.110202e+000 6.096000e+000 1.237705e+000
         vertex -4.110202e+000 8.636000e+000 1.237705e+000
      endloop
   endfacet
   facet normal -9.727603e-001 0.000000e+000 2.318131e-001
      outer loop
         vertex -4.110202e+000 8.636000e+000 1.237705e+000
         vertex -4.110202e+000 6.096000e+000 1.237705e+000
         vertex -4.061813e+000 6.096000e+000 1.415127e+000
      endloop
   endfacet
   facet normal -9.557557e-001 0.000000e+000 2.941617e-001
      outer loop
         vertex -4.110202e+000 8.636000e+000 1.237705e+000
         vertex -4.061813e+000 6.096000e+000 1.415127e+000
         vertex -4.061813e+000 8.636000e+000 1.415127e+000
      endloop
   endfacet
   facet normal -9.100816e-001 0.000000e+000 4.144292e-001
      outer loop
         vertex -4.061813e+000 8.636000e+000 1.415127e+000
         vertex -4.061813e+000 6.096000e+000 1.415127e+000
         vertex -3.980230e+000 6.096000e+000 1.579943e+000
      endloop
   endfacet
   facet normal -8.814122e-001 0.000000e+000 4.723479e-001
      outer loop
         vertex -4.061813e+000 8.636000e+000 1.415127e+000
         vertex -3.980230e+000 6.096000e+000 1.579943e+000
         vertex -3.980230e+000 8.636000e+000 1.579943e+000
      endloop
   endfacet
   facet normal -8.134775e-001 0.000000e+000 5.815964e-001
      outer loop
         vertex -3.980230e+000 8.636000e+000 1.579943e+000
         vertex -3.980230e+000 6.096000e+000 1.579943e+000
         vertex -3.868495e+000 6.096000e+000 1.726009e+000
      endloop
   endfacet
   facet normal -7.742121e-001 0.000000e+000 6.329262e-001
      outer loop
         vertex -3.980230e+000 8.636000e+000 1.579943e+000
         vertex -3.868495e+000 6.096000e+000 1.726009e+000
         vertex -3.868495e+000 8.636000e+000 1.726009e+000
      endloop
   endfacet
   facet normal -6.865492e-001 0.000000e+000 7.270833e-001
      outer loop
         vertex -3.868495e+000 8.636000e+000 1.726009e+000
         vertex -3.868495e+000 6.096000e+000 1.726009e+000
         vertex -3.730773e+000 6.096000e+000 1.847880e+000
      endloop
   endfacet
   facet normal -6.381516e-001 0.000000e+000 7.699108e-001
      outer loop
         vertex -3.868495e+000 8.636000e+000 1.726009e+000
         vertex -3.730773e+000 6.096000e+000 1.847880e+000
         vertex -3.730773e+000 8.636000e+000 1.847880e+000
      endloop
   endfacet
   facet normal -5.340282e-001 0.000000e+000 8.454667e-001
      outer loop
         vertex -3.730773e+000 8.636000e+000 1.847880e+000
         vertex -3.730773e+000 6.096000e+000 1.847880e+000
         vertex -3.572197e+000 6.096000e+000 1.941014e+000
      endloop
   endfacet
   facet normal -4.783025e-001 0.000000e+000 8.781952e-001
      outer loop
         vertex -3.730773e+000 8.636000e+000 1.847880e+000
         vertex -3.572197e+000 6.096000e+000 1.941014e+000
         vertex -3.572197e+000 8.636000e+000 1.941014e+000
      endloop
   endfacet
   facet normal -8.491971e-001 0.000000e+000 -5.280761e-001
      outer loop
         vertex -3.025253e+000 8.636000e+000 1.710535e+000
         vertex -3.025253e+000 6.096000e+000 1.710535e+000
         vertex -3.068921e+000 6.096000e+000 1.769732e+000
      endloop
   endfacet
   facet normal -7.552385e-001 0.000000e+000 -6.554500e-001
      outer loop
         vertex -3.025253e+000 8.636000e+000 1.710535e+000
         vertex -3.068921e+000 6.096000e+000 1.769732e+000
         vertex -3.068921e+000 8.636000e+000 1.769732e+000
      endloop
   endfacet
   facet normal -5.199930e-001 0.000000e+000 -8.541705e-001
      outer loop
         vertex -3.068921e+000 8.636000e+000 1.769732e+000
         vertex -3.068921e+000 6.096000e+000 1.769732e+000
         vertex -3.134584e+000 6.096000e+000 1.802891e+000
      endloop
   endfacet
   facet normal -3.787060e-001 0.000000e+000 -9.255170e-001
      outer loop
         vertex -3.068921e+000 8.636000e+000 1.769732e+000
         vertex -3.134584e+000 6.096000e+000 1.802891e+000
         vertex -3.134584e+000 8.636000e+000 1.802891e+000
      endloop
   endfacet
   facet normal -7.913966e-002 0.000000e+000 -9.968635e-001
      outer loop
         vertex -3.134584e+000 8.636000e+000 1.802891e+000
         vertex -3.134584e+000 6.096000e+000 1.802891e+000
         vertex -3.208144e+000 6.096000e+000 1.802891e+000
      endloop
   endfacet
   facet normal 7.913966e-002 0.000000e+000 -9.968635e-001
      outer loop
         vertex -3.134584e+000 8.636000e+000 1.802891e+000
         vertex -3.208144e+000 6.096000e+000 1.802891e+000
         vertex -3.208144e+000 8.636000e+000 1.802891e+000
      endloop
   endfacet
   facet normal 3.787060e-001 0.000000e+000 -9.255170e-001
      outer loop
         vertex -3.208144e+000 8.636000e+000 1.802891e+000
         vertex -3.208144e+000 6.096000e+000 1.802891e+000
         vertex -3.273807e+000 6.096000e+000 1.769732e+000
      endloop
   endfacet
   facet normal 5.199930e-001 0.000000e+000 -8.541705e-001
      outer loop
         vertex -3.208144e+000 8.636000e+000 1.802891e+000
         vertex -3.273807e+000 6.096000e+000 1.769732e+000
         vertex -3.273807e+000 8.636000e+000 1.769732e+000
      endloop
   endfacet
   facet normal 7.552385e-001 0.000000e+000 -6.554500e-001
      outer loop
         vertex -3.273807e+000 8.636000e+000 1.769732e+000
         vertex -3.273807e+000 6.096000e+000 1.769732e+000
         vertex -3.317474e+000 6.096000e+000 1.710535e+000
      endloop
   endfacet
   facet normal 8.491971e-001 0.000000e+000 -5.280761e-001
      outer loop
         vertex -3.273807e+000 8.636000e+000 1.769732e+000
         vertex -3.317474e+000 6.096000e+000 1.710535e+000
         vertex -3.317474e+000 8.636000e+000 1.710535e+000
      endloop
   endfacet
   facet normal 5.301195e-001 0.000000e+000 -8.479229e-001
      outer loop
         vertex -3.434362e+000 8.636000e+000 1.584349e+000
         vertex -3.434362e+000 6.096000e+000 1.584349e+000
         vertex -3.548346e+000 6.096000e+000 1.506491e+000
      endloop
   endfacet
   facet normal 5.970369e-001 0.000000e+000 -8.022138e-001
      outer loop
         vertex -3.434362e+000 8.636000e+000 1.584349e+000
         vertex -3.548346e+000 6.096000e+000 1.506491e+000
         vertex -3.548346e+000 8.636000e+000 1.506491e+000
      endloop
   endfacet
   facet normal 7.179601e-001 0.000000e+000 -6.960843e-001
      outer loop
         vertex -3.548346e+000 8.636000e+000 1.506491e+000
         vertex -3.548346e+000 6.096000e+000 1.506491e+000
         vertex -3.640337e+000 6.096000e+000 1.403574e+000
      endloop
   endfacet
   facet normal 7.719660e-001 0.000000e+000 -6.356639e-001
      outer loop
         vertex -3.548346e+000 8.636000e+000 1.506491e+000
         vertex -3.640337e+000 6.096000e+000 1.403574e+000
         vertex -3.640337e+000 8.636000e+000 1.403574e+000
      endloop
   endfacet
   facet normal 8.639156e-001 0.000000e+000 -5.036367e-001
      outer loop
         vertex -3.640337e+000 8.636000e+000 1.403574e+000
         vertex -3.640337e+000 6.096000e+000 1.403574e+000
         vertex -3.704968e+000 6.096000e+000 1.281602e+000
      endloop
   endfacet
   facet normal 9.018593e-001 0.000000e+000 -4.320300e-001
      outer loop
         vertex -3.640337e+000 8.636000e+000 1.403574e+000
         vertex -3.704968e+000 6.096000e+000 1.281602e+000
         vertex -3.704968e+000 8.636000e+000 1.281602e+000
      endloop
   endfacet
   facet normal 9.594710e-001 0.000000e+000 -2.818075e-001
      outer loop
         vertex -3.704968e+000 8.636000e+000 1.281602e+000
         vertex -3.704968e+000 6.096000e+000 1.281602e+000
         vertex -3.738470e+000 6.096000e+000 1.147692e+000
      endloop
   endfacet
   facet normal 9.791390e-001 0.000000e+000 -2.031918e-001
      outer loop
         vertex -3.704968e+000 8.636000e+000 1.281602e+000
         vertex -3.738470e+000 6.096000e+000 1.147692e+000
         vertex -3.738470e+000 8.636000e+000 1.147692e+000
      endloop
   endfacet
   facet normal 9.990517e-001 0.000000e+000 -4.353788e-002
      outer loop
         vertex -3.738470e+000 8.636000e+000 1.147692e+000
         vertex -3.738470e+000 6.096000e+000 1.147692e+000
         vertex -3.738887e+000 6.096000e+000 1.009656e+000
      endloop
   endfacet
   facet normal 9.992966e-001 0.000000e+000 3.750036e-002
      outer loop
         vertex -3.738470e+000 8.636000e+000 1.147692e+000
         vertex -3.738887e+000 6.096000e+000 1.009656e+000
         vertex -3.738887e+000 8.636000e+000 1.009656e+000
      endloop
   endfacet
   facet normal 9.803489e-001 0.000000e+000 1.972717e-001
      outer loop
         vertex -3.738887e+000 8.636000e+000 1.009656e+000
         vertex -3.738887e+000 6.096000e+000 1.009656e+000
         vertex -3.706195e+000 6.096000e+000 8.755458e-001
      endloop
   endfacet
   facet normal 9.611562e-001 0.000000e+000 2.760048e-001
      outer loop
         vertex -3.738887e+000 8.636000e+000 1.009656e+000
         vertex -3.706195e+000 6.096000e+000 8.755457e-001
         vertex -3.706195e+000 8.636000e+000 8.755458e-001
      endloop
   endfacet
   facet normal 9.044533e-001 0.000000e+000 4.265726e-001
      outer loop
         vertex -3.706195e+000 8.636000e+000 8.755457e-001
         vertex -3.706195e+000 6.096000e+000 8.755457e-001
         vertex -3.642302e+000 6.096000e+000 7.531860e-001
      endloop
   endfacet
   facet normal 8.669430e-001 0.000000e+000 4.984073e-001
      outer loop
         vertex -3.706195e+000 8.636000e+000 8.755457e-001
         vertex -3.642302e+000 6.096000e+000 7.531860e-001
         vertex -3.642302e+000 8.636000e+000 7.531860e-001
      endloop
   endfacet
   facet normal 7.757928e-001 0.000000e+000 6.309877e-001
      outer loop
         vertex -3.642302e+000 8.636000e+000 7.531860e-001
         vertex -3.642302e+000 6.096000e+000 7.531860e-001
         vertex -3.550934e+000 6.096000e+000 6.497150e-001
      endloop
   endfacet
   facet normal 7.221531e-001 0.000000e+000 6.917333e-001
      outer loop
         vertex -3.642302e+000 8.636000e+000 7.531860e-001
         vertex -3.550934e+000 6.096000e+000 6.497150e-001
         vertex -3.550934e+000 8.636000e+000 6.497150e-001
      endloop
   endfacet
   facet normal 6.018733e-001 0.000000e+000 7.985916e-001
      outer loop
         vertex -3.550934e+000 8.636000e+000 6.497150e-001
         vertex -3.550934e+000 6.096000e+000 6.497150e-001
         vertex -3.437423e+000 6.096000e+000 5.711690e-001
      endloop
   endfacet
   facet normal 5.352334e-001 0.000000e+000 8.447042e-001
      outer loop
         vertex -3.550934e+000 8.636000e+000 6.497150e-001
         vertex -3.437423e+000 6.096000e+000 5.711690e-001
         vertex -3.437423e+000 8.636000e+000 5.711690e-001
      endloop
   endfacet
   facet normal 3.928411e-001 0.000000e+000 9.196063e-001
      outer loop
         vertex -3.437423e+000 8.636000e+000 5.711690e-001
         vertex -3.437423e+000 6.096000e+000 5.711690e-001
         vertex -3.308390e+000 6.096000e+000 5.221304e-001
      endloop
   endfacet
   facet normal 3.170888e-001 0.000000e+000 9.483958e-001
      outer loop
         vertex -3.437423e+000 8.636000e+000 5.711690e-001
         vertex -3.308390e+000 6.096000e+000 5.221304e-001
         vertex -3.308390e+000 8.636000e+000 5.221304e-001
      endloop
   endfacet
   facet normal 1.608909e-001 0.000000e+000 9.869722e-001
      outer loop
         vertex -3.308390e+000 8.636000e+000 5.221304e-001
         vertex -3.308390e+000 6.096000e+000 5.221304e-001
         vertex -3.171364e+000 6.096000e+000 5.054600e-001
      endloop
   endfacet
   facet normal 8.044547e-002 0.000000e+000 9.967590e-001
      outer loop
         vertex -3.308390e+000 8.636000e+000 5.221304e-001
         vertex -3.171364e+000 6.096000e+000 5.054600e-001
         vertex -3.171364e+000 8.636000e+000 5.054600e-001
      endloop
   endfacet
   facet normal -8.044547e-002 0.000000e+000 9.967590e-001
      outer loop
         vertex -3.171364e+000 8.636000e+000 5.054600e-001
         vertex -3.171364e+000 6.096000e+000 5.054600e-001
         vertex -3.034337e+000 6.096000e+000 5.221304e-001
      endloop
   endfacet
   facet normal -1.608909e-001 0.000000e+000 9.869722e-001
      outer loop
         vertex -3.171364e+000 8.636000e+000 5.054600e-001
         vertex -3.034337e+000 6.096000e+000 5.221304e-001
         vertex -3.034337e+000 8.636000e+000 5.221304e-001
      endloop
   endfacet
   facet normal -3.170888e-001 0.000000e+000 9.483958e-001
      outer loop
         vertex -3.034337e+000 8.636000e+000 5.221304e-001
         vertex -3.034337e+000 6.096000e+000 5.221304e-001
         vertex -2.905304e+000 6.096000e+000 5.711690e-001
      endloop
   endfacet
   facet normal -3.928411e-001 0.000000e+000 9.196063e-001
      outer loop
         vertex -3.034337e+000 8.636000e+000 5.221304e-001
         vertex -2.905304e+000 6.096000e+000 5.711690e-001
         vertex -2.905304e+000 8.636000e+000 5.711690e-001
      endloop
   endfacet
   facet normal -5.352334e-001 0.000000e+000 8.447042e-001
      outer loop
         vertex -2.905304e+000 8.636000e+000 5.711690e-001
         vertex -2.905304e+000 6.096000e+000 5.711690e-001
         vertex -2.791793e+000 6.096000e+000 6.497150e-001
      endloop
   endfacet
   facet normal -6.018733e-001 0.000000e+000 7.985916e-001
      outer loop
         vertex -2.905304e+000 8.636000e+000 5.711690e-001
         vertex -2.791793e+000 6.096000e+000 6.497150e-001
         vertex -2.791793e+000 8.636000e+000 6.497150e-001
      endloop
   endfacet
   facet normal -7.221531e-001 0.000000e+000 6.917333e-001
      outer loop
         vertex -2.791793e+000 8.636000e+000 6.497150e-001
         vertex -2.791793e+000 6.096000e+000 6.497150e-001
         vertex -2.700426e+000 6.096000e+000 7.531860e-001
      endloop
   endfacet
   facet normal -7.757928e-001 0.000000e+000 6.309877e-001
      outer loop
         vertex -2.791793e+000 8.636000e+000 6.497150e-001
         vertex -2.700426e+000 6.096000e+000 7.531860e-001
         vertex -2.700426e+000 8.636000e+000 7.531860e-001
      endloop
   endfacet
   facet normal -8.669430e-001 0.000000e+000 4.984073e-001
      outer loop
         vertex -2.700426e+000 8.636000e+000 7.531860e-001
         vertex -2.700426e+000 6.096000e+000 7.531860e-001
         vertex -2.636532e+000 6.096000e+000 8.755458e-001
      endloop
   endfacet
   facet normal -9.044533e-001 0.000000e+000 4.265726e-001
      outer loop
         vertex -2.700426e+000 8.636000e+000 7.531860e-001
         vertex -2.636532e+000 6.096000e+000 8.755457e-001
         vertex -2.636532e+000 8.636000e+000 8.755458e-001
      endloop
   endfacet
   facet normal -9.611562e-001 0.000000e+000 2.760048e-001
      outer loop
         vertex -2.636532e+000 8.636000e+000 8.755457e-001
         vertex -2.636532e+000 6.096000e+000 8.755457e-001
         vertex -2.603841e+000 6.096000e+000 1.009656e+000
      endloop
   endfacet
   facet normal -9.803489e-001 0.000000e+000 1.972717e-001
      outer loop
         vertex -2.636532e+000 8.636000e+000 8.755457e-001
         vertex -2.603841e+000 6.096000e+000 1.009656e+000
         vertex -2.603841e+000 8.636000e+000 1.009656e+000
      endloop
   endfacet
   facet normal -9.992966e-001 0.000000e+000 3.750036e-002
      outer loop
         vertex -2.603841e+000 8.636000e+000 1.009656e+000
         vertex -2.603841e+000 6.096000e+000 1.009656e+000
         vertex -2.604258e+000 6.096000e+000 1.147692e+000
      endloop
   endfacet
   facet normal -9.990517e-001 0.000000e+000 -4.353788e-002
      outer loop
         vertex -2.603841e+000 8.636000e+000 1.009656e+000
         vertex -2.604258e+000 6.096000e+000 1.147692e+000
         vertex -2.604258e+000 8.636000e+000 1.147692e+000
      endloop
   endfacet
   facet normal -9.791390e-001 0.000000e+000 -2.031918e-001
      outer loop
         vertex -2.604258e+000 8.636000e+000 1.147692e+000
         vertex -2.604258e+000 6.096000e+000 1.147692e+000
         vertex -2.637759e+000 6.096000e+000 1.281602e+000
      endloop
   endfacet
   facet normal -9.594710e-001 0.000000e+000 -2.818075e-001
      outer loop
         vertex -2.604258e+000 8.636000e+000 1.147692e+000
         vertex -2.637759e+000 6.096000e+000 1.281602e+000
         vertex -2.637759e+000 8.636000e+000 1.281602e+000
      endloop
   endfacet
   facet normal -9.018593e-001 0.000000e+000 -4.320300e-001
      outer loop
         vertex -2.637759e+000 8.636000e+000 1.281602e+000
         vertex -2.637759e+000 6.096000e+000 1.281602e+000
         vertex -2.702391e+000 6.096000e+000 1.403574e+000
      endloop
   endfacet
   facet normal -8.639156e-001 0.000000e+000 -5.036367e-001
      outer loop
         vertex -2.637759e+000 8.636000e+000 1.281602e+000
         vertex -2.702391e+000 6.096000e+000 1.403574e+000
         vertex -2.702391e+000 8.636000e+000 1.403574e+000
      endloop
   endfacet
   facet normal -7.719660e-001 0.000000e+000 -6.356639e-001
      outer loop
         vertex -2.702391e+000 8.636000e+000 1.403574e+000
         vertex -2.702391e+000 6.096000e+000 1.403574e+000
         vertex -2.794381e+000 6.096000e+000 1.506491e+000
      endloop
   endfacet
   facet normal -7.179601e-001 0.000000e+000 -6.960843e-001
      outer loop
         vertex -2.702391e+000 8.636000e+000 1.403574e+000
         vertex -2.794381e+000 6.096000e+000 1.506491e+000
         vertex -2.794381e+000 8.636000e+000 1.506491e+000
      endloop
   endfacet
   facet normal -5.970369e-001 0.000000e+000 -8.022138e-001
      outer loop
         vertex -2.794381e+000 8.636000e+000 1.506491e+000
         vertex -2.794381e+000 6.096000e+000 1.506491e+000
         vertex -2.908365e+000 6.096000e+000 1.584349e+000
      endloop
   endfacet
   facet normal -5.301195e-001 0.000000e+000 -8.479229e-001
      outer loop
         vertex -2.794381e+000 8.636000e+000 1.506491e+000
         vertex -2.908365e+000 6.096000e+000 1.584349e+000
         vertex -2.908365e+000 8.636000e+000 1.584349e+000
      endloop
   endfacet
   facet normal -7.513168e-001 0.000000e+000 6.599417e-001
      outer loop
         vertex -3.426440e+000 6.096000e+000 2.059767e+000
         vertex -3.426440e+000 8.636000e+000 2.059767e+000
         vertex -3.491879e+000 8.636000e+000 1.991258e+000
      endloop
   endfacet
   facet normal -6.936676e-001 0.000000e+000 7.202953e-001
      outer loop
         vertex -3.426440e+000 6.096000e+000 2.059767e+000
         vertex -3.491879e+000 8.636000e+000 1.991258e+000
         vertex -3.491879e+000 6.096000e+000 1.991258e+000
      endloop
   endfacet
   facet normal -5.652603e-001 0.000000e+000 8.249126e-001
      outer loop
         vertex -3.491879e+000 6.096000e+000 1.991258e+000
         vertex -3.491879e+000 8.636000e+000 1.991258e+000
         vertex -3.572197e+000 8.636000e+000 1.941014e+000
      endloop
   endfacet
   facet normal -4.945022e-001 0.000000e+000 8.691764e-001
      outer loop
         vertex -3.491879e+000 6.096000e+000 1.991258e+000
         vertex -3.572197e+000 8.636000e+000 1.941014e+000
         vertex -3.572197e+000 6.096000e+000 1.941014e+000
      endloop
   endfacet
   facet normal 4.945022e-001 0.000000e+000 8.691764e-001
      outer loop
         vertex -2.770530e+000 6.096000e+000 1.941014e+000
         vertex -2.770530e+000 8.636000e+000 1.941014e+000
         vertex -2.850849e+000 8.636000e+000 1.991258e+000
      endloop
   endfacet
   facet normal 5.652603e-001 0.000000e+000 8.249126e-001
      outer loop
         vertex -2.770530e+000 6.096000e+000 1.941014e+000
         vertex -2.850849e+000 8.636000e+000 1.991258e+000
         vertex -2.850849e+000 6.096000e+000 1.991258e+000
      endloop
   endfacet
   facet normal 6.936676e-001 0.000000e+000 7.202953e-001
      outer loop
         vertex -2.850849e+000 6.096000e+000 1.991258e+000
         vertex -2.850849e+000 8.636000e+000 1.991258e+000
         vertex -2.916288e+000 8.636000e+000 2.059767e+000
      endloop
   endfacet
   facet normal 7.513168e-001 0.000000e+000 6.599417e-001
      outer loop
         vertex -2.850849e+000 6.096000e+000 1.991258e+000
         vertex -2.916288e+000 8.636000e+000 2.059767e+000
         vertex -2.916288e+000 6.096000e+000 2.059767e+000
      endloop
   endfacet
   facet normal 8.696162e-001 0.000000e+000 -4.937284e-001
      outer loop
         vertex -3.317474e+000 8.636000e+000 1.710535e+000
         vertex -3.317474e+000 6.096000e+000 1.710535e+000
         vertex -3.364912e+000 6.096000e+000 1.637247e+000
      endloop
   endfacet
   facet normal 8.065284e-001 0.000000e+000 -5.911953e-001
      outer loop
         vertex -3.317474e+000 8.636000e+000 1.710535e+000
         vertex -3.364912e+000 6.096000e+000 1.637247e+000
         vertex -3.364912e+000 8.636000e+000 1.637247e+000
      endloop
   endfacet
   facet normal 6.510777e-001 0.000000e+000 -7.590110e-001
      outer loop
         vertex -3.364912e+000 8.636000e+000 1.637247e+000
         vertex -3.364912e+000 6.096000e+000 1.637247e+000
         vertex -3.434362e+000 6.096000e+000 1.584349e+000
      endloop
   endfacet
   facet normal 5.587148e-001 0.000000e+000 -8.293598e-001
      outer loop
         vertex -3.364912e+000 8.636000e+000 1.637247e+000
         vertex -3.434362e+000 6.096000e+000 1.584349e+000
         vertex -3.434362e+000 8.636000e+000 1.584349e+000
      endloop
   endfacet
   facet normal -5.587148e-001 0.000000e+000 -8.293598e-001
      outer loop
         vertex -2.908365e+000 8.636000e+000 1.584349e+000
         vertex -2.908365e+000 6.096000e+000 1.584349e+000
         vertex -2.977816e+000 6.096000e+000 1.637247e+000
      endloop
   endfacet
   facet normal -6.510777e-001 0.000000e+000 -7.590110e-001
      outer loop
         vertex -2.908365e+000 8.636000e+000 1.584349e+000
         vertex -2.977816e+000 6.096000e+000 1.637247e+000
         vertex -2.977816e+000 8.636000e+000 1.637247e+000
      endloop
   endfacet
   facet normal -8.065284e-001 0.000000e+000 -5.911953e-001
      outer loop
         vertex -2.977816e+000 8.636000e+000 1.637247e+000
         vertex -2.977816e+000 6.096000e+000 1.637247e+000
         vertex -3.025253e+000 6.096000e+000 1.710535e+000
      endloop
   endfacet
   facet normal -8.696162e-001 0.000000e+000 -4.937284e-001
      outer loop
         vertex -2.977816e+000 8.636000e+000 1.637247e+000
         vertex -3.025253e+000 6.096000e+000 1.710535e+000
         vertex -3.025253e+000 8.636000e+000 1.710535e+000
      endloop
   endfacet
endsolid