solid handSpring - SW3dPS-Hand 2_Thumb Assm-5 SW3dPS-Hand 2_Finger Bone-3
   facet normal 9.396926e-001 3.420202e-001 8.881784e-016
      outer loop
         vertex 5.625324e+000 -2.066827e+000 2.176539e+000
         vertex 5.604674e+000 -2.010093e+000 1.806450e+000
         vertex 5.592095e+000 -1.975531e+000 2.191769e+000
      endloop
   endfacet
   facet normal 9.396926e-001 3.420202e-001 8.881784e-016
      outer loop
         vertex 5.592095e+000 -1.975531e+000 2.191769e+000
         vertex 5.604674e+000 -2.010093e+000 1.806450e+000
         vertex 5.579515e+000 -1.940970e+000 1.806450e+000
      endloop
   endfacet
   facet normal 9.396926e-001 3.420202e-001 8.881784e-016
      outer loop
         vertex 5.592095e+000 -1.975531e+000 2.191769e+000
         vertex 5.579515e+000 -1.940970e+000 1.806450e+000
         vertex 5.558866e+000 -1.884236e+000 2.176539e+000
      endloop
   endfacet
   facet normal 9.396926e-001 3.420202e-001 8.881784e-016
      outer loop
         vertex 5.409172e+000 -1.472955e+000 8.791047e-001
         vertex 5.273973e+000 -1.101499e+000 8.752811e-001
         vertex 5.397990e+000 -1.442234e+000 1.013215e+000
      endloop
   endfacet
   facet normal 9.396926e-001 3.420202e-001 8.881784e-016
      outer loop
         vertex 5.397990e+000 -1.442234e+000 1.013215e+000
         vertex 5.273973e+000 -1.101499e+000 8.752811e-001
         vertex 5.266413e+000 -1.080728e+000 1.057850e+000
      endloop
   endfacet
   facet normal 9.396926e-001 3.420202e-001 8.881784e-016
      outer loop
         vertex 5.397990e+000 -1.442234e+000 1.013215e+000
         vertex 5.266413e+000 -1.080728e+000 1.057850e+000
         vertex 5.398133e+000 -1.442626e+000 1.151251e+000
      endloop
   endfacet
   facet normal 9.396926e-001 3.420202e-001 8.881784e-016
      outer loop
         vertex 5.398133e+000 -1.442626e+000 1.151251e+000
         vertex 5.266413e+000 -1.080728e+000 1.057850e+000
         vertex 5.270993e+000 -1.093312e+000 1.241264e+000
      endloop
   endfacet
   facet normal 9.396926e-001 3.420202e-001 8.881784e-016
      outer loop
         vertex 5.398133e+000 -1.442626e+000 1.151251e+000
         vertex 5.270993e+000 -1.093312e+000 1.241264e+000
         vertex 5.409591e+000 -1.474107e+000 1.285161e+000
      endloop
   endfacet
   facet normal 9.396926e-001 3.420202e-001 8.881784e-016
      outer loop
         vertex 5.409591e+000 -1.474107e+000 1.285161e+000
         vertex 5.270993e+000 -1.093312e+000 1.241264e+000
         vertex 5.287543e+000 -1.138783e+000 1.418686e+000
      endloop
   endfacet
   facet normal 9.396926e-001 3.420202e-001 8.881784e-016
      outer loop
         vertex 5.409591e+000 -1.474107e+000 1.285161e+000
         vertex 5.287543e+000 -1.138783e+000 1.418686e+000
         vertex 5.431696e+000 -1.534841e+000 1.407133e+000
      endloop
   endfacet
   facet normal 9.396926e-001 3.420202e-001 8.881784e-016
      outer loop
         vertex 5.528824e+000 -1.801699e+000 2.132310e+000
         vertex 5.558866e+000 -1.884236e+000 2.176539e+000
         vertex 5.504853e+000 -1.735839e+000 2.063326e+000
      endloop
   endfacet
   facet normal 9.396926e-001 3.420202e-001 8.881784e-016
      outer loop
         vertex 5.504853e+000 -1.735839e+000 2.063326e+000
         vertex 5.558866e+000 -1.884236e+000 2.176539e+000
         vertex 5.579515e+000 -1.940970e+000 1.806450e+000
      endloop
   endfacet
   facet normal 9.396926e-001 3.420202e-001 8.881784e-016
      outer loop
         vertex 5.504853e+000 -1.735839e+000 2.063326e+000
         vertex 5.579515e+000 -1.940970e+000 1.806450e+000
         vertex 5.482472e+000 -1.674346e+000 1.994817e+000
      endloop
   endfacet
   facet normal 9.396926e-001 3.420202e-001 8.881784e-016
      outer loop
         vertex 5.482472e+000 -1.674346e+000 1.994817e+000
         vertex 5.579515e+000 -1.940970e+000 1.806450e+000
         vertex 5.557057e+000 -1.879267e+000 1.773291e+000
      endloop
   endfacet
   facet normal 9.396926e-001 3.420202e-001 8.881784e-016
      outer loop
         vertex 5.482472e+000 -1.674346e+000 1.994817e+000
         vertex 5.557057e+000 -1.879267e+000 1.773291e+000
         vertex 5.455001e+000 -1.598871e+000 1.944573e+000
      endloop
   endfacet
   facet normal 9.396926e-001 3.420202e-001 8.881784e-016
      outer loop
         vertex 5.455001e+000 -1.598871e+000 1.944573e+000
         vertex 5.557057e+000 -1.879267e+000 1.773291e+000
         vertex 5.542122e+000 -1.838233e+000 1.714094e+000
      endloop
   endfacet
   facet normal 9.396926e-001 3.420202e-001 8.881784e-016
      outer loop
         vertex 5.287543e+000 -1.138783e+000 1.418686e+000
         vertex 5.315446e+000 -1.215446e+000 1.583501e+000
         vertex 5.431696e+000 -1.534841e+000 1.407133e+000
      endloop
   endfacet
   facet normal 9.396926e-001 3.420202e-001 8.881784e-016
      outer loop
         vertex 5.431696e+000 -1.534841e+000 1.407133e+000
         vertex 5.315446e+000 -1.215446e+000 1.583501e+000
         vertex 5.353662e+000 -1.320442e+000 1.729568e+000
      endloop
   endfacet
   facet normal 9.396926e-001 3.420202e-001 8.881784e-016
      outer loop
         vertex 5.431696e+000 -1.534841e+000 1.407133e+000
         vertex 5.353662e+000 -1.320442e+000 1.729568e+000
         vertex 5.463159e+000 -1.621284e+000 1.510050e+000
      endloop
   endfacet
   facet normal 9.396926e-001 3.420202e-001 8.881784e-016
      outer loop
         vertex 5.463159e+000 -1.621284e+000 1.510050e+000
         vertex 5.353662e+000 -1.320442e+000 1.729568e+000
         vertex 5.400765e+000 -1.449859e+000 1.851439e+000
      endloop
   endfacet
   facet normal 9.396926e-001 3.420202e-001 8.881784e-016
      outer loop
         vertex 5.463159e+000 -1.621284e+000 1.510050e+000
         vertex 5.400765e+000 -1.449859e+000 1.851439e+000
         vertex 5.502144e+000 -1.728394e+000 1.587908e+000
      endloop
   endfacet
   facet normal 9.396926e-001 3.420202e-001 8.881784e-016
      outer loop
         vertex 5.502144e+000 -1.728394e+000 1.587908e+000
         vertex 5.400765e+000 -1.449859e+000 1.851439e+000
         vertex 5.455001e+000 -1.598871e+000 1.944573e+000
      endloop
   endfacet
   facet normal 9.396926e-001 3.420202e-001 8.881784e-016
      outer loop
         vertex 5.502144e+000 -1.728394e+000 1.587908e+000
         vertex 5.455001e+000 -1.598871e+000 1.944573e+000
         vertex 5.525898e+000 -1.793656e+000 1.640806e+000
      endloop
   endfacet
   facet normal 9.396926e-001 3.420202e-001 8.881784e-016
      outer loop
         vertex 5.525898e+000 -1.793656e+000 1.640806e+000
         vertex 5.455001e+000 -1.598871e+000 1.944573e+000
         vertex 5.542122e+000 -1.838233e+000 1.714094e+000
      endloop
   endfacet
   facet normal 9.396926e-001 3.420202e-001 8.881784e-016
      outer loop
         vertex 5.545229e+000 -1.846768e+000 5.256894e-001
         vertex 5.469219e+000 -1.637935e+000 1.983704e-001
         vertex 5.501097e+000 -1.725517e+000 5.747280e-001
      endloop
   endfacet
   facet normal 9.396926e-001 3.420202e-001 8.881784e-016
      outer loop
         vertex 5.501097e+000 -1.725517e+000 5.747280e-001
         vertex 5.469219e+000 -1.637935e+000 1.983704e-001
         vertex 5.413529e+000 -1.484927e+000 2.838525e-001
      endloop
   endfacet
   facet normal 9.396926e-001 3.420202e-001 8.881784e-016
      outer loop
         vertex 5.501097e+000 -1.725517e+000 5.747280e-001
         vertex 5.413529e+000 -1.484927e+000 2.838525e-001
         vertex 5.462274e+000 -1.618852e+000 6.532740e-001
      endloop
   endfacet
   facet normal 9.396926e-001 3.420202e-001 8.881784e-016
      outer loop
         vertex 5.462274e+000 -1.618852e+000 6.532740e-001
         vertex 5.413529e+000 -1.484927e+000 2.838525e-001
         vertex 5.364495e+000 -1.350207e+000 3.990322e-001
      endloop
   endfacet
   facet normal 9.396926e-001 3.420202e-001 8.881784e-016
      outer loop
         vertex 5.462274e+000 -1.618852e+000 6.532740e-001
         vertex 5.364495e+000 -1.350207e+000 3.990322e-001
         vertex 5.431025e+000 -1.532995e+000 7.567450e-001
      endloop
   endfacet
   facet normal 9.396926e-001 3.420202e-001 8.881784e-016
      outer loop
         vertex 5.431025e+000 -1.532995e+000 7.567450e-001
         vertex 5.364495e+000 -1.350207e+000 3.990322e-001
         vertex 5.323946e+000 -1.238798e+000 5.396158e-001
      endloop
   endfacet
   facet normal 9.396926e-001 3.420202e-001 8.881784e-016
      outer loop
         vertex 5.431025e+000 -1.532995e+000 7.567450e-001
         vertex 5.323946e+000 -1.238798e+000 5.396159e-001
         vertex 5.409172e+000 -1.472955e+000 8.791047e-001
      endloop
   endfacet
   facet normal 9.396926e-001 3.420202e-001 8.881784e-016
      outer loop
         vertex 5.409172e+000 -1.472955e+000 8.791047e-001
         vertex 5.323946e+000 -1.238798e+000 5.396159e-001
         vertex 5.293392e+000 -1.154852e+000 7.003629e-001
      endloop
   endfacet
   facet normal 9.396926e-001 3.420202e-001 8.881784e-016
      outer loop
         vertex 5.409172e+000 -1.472955e+000 8.791047e-001
         vertex 5.293392e+000 -1.154852e+000 7.003629e-001
         vertex 5.273973e+000 -1.101499e+000 8.752811e-001
      endloop
   endfacet
   facet normal 9.396926e-001 3.420202e-001 8.881784e-016
      outer loop
         vertex 5.683093e+000 -2.225546e+000 5.747280e-001
         vertex 5.714970e+000 -2.313128e+000 1.983704e-001
         vertex 5.638960e+000 -2.104295e+000 5.256894e-001
      endloop
   endfacet
   facet normal 9.396926e-001 3.420202e-001 8.881784e-016
      outer loop
         vertex 5.638960e+000 -2.104295e+000 5.256894e-001
         vertex 5.714970e+000 -2.313128e+000 1.983704e-001
         vertex 5.654699e+000 -2.147536e+000 1.457723e-001
      endloop
   endfacet
   facet normal 9.396926e-001 3.420202e-001 8.881784e-016
      outer loop
         vertex 5.638960e+000 -2.104295e+000 5.256894e-001
         vertex 5.654699e+000 -2.147536e+000 1.457723e-001
         vertex 5.592095e+000 -1.975531e+000 5.090190e-001
      endloop
   endfacet
   facet normal 9.396926e-001 3.420202e-001 8.881784e-016
      outer loop
         vertex 5.592095e+000 -1.975531e+000 5.090190e-001
         vertex 5.654699e+000 -2.147536e+000 1.457723e-001
         vertex 5.592095e+000 -1.975531e+000 1.280190e-001
      endloop
   endfacet
   facet normal 9.396926e-001 3.420202e-001 8.881784e-016
      outer loop
         vertex 5.592095e+000 -1.975531e+000 5.090190e-001
         vertex 5.592095e+000 -1.975531e+000 1.280190e-001
         vertex 5.545229e+000 -1.846768e+000 5.256894e-001
      endloop
   endfacet
   facet normal 9.396926e-001 3.420202e-001 8.881784e-016
      outer loop
         vertex 5.545229e+000 -1.846768e+000 5.256894e-001
         vertex 5.592095e+000 -1.975531e+000 1.280190e-001
         vertex 5.529490e+000 -1.803527e+000 1.457723e-001
      endloop
   endfacet
   facet normal 9.396926e-001 3.420202e-001 8.881784e-016
      outer loop
         vertex 5.545229e+000 -1.846768e+000 5.256894e-001
         vertex 5.529490e+000 -1.803527e+000 1.457723e-001
         vertex 5.469219e+000 -1.637935e+000 1.983704e-001
      endloop
   endfacet
   facet normal 9.396926e-001 3.420202e-001 8.881784e-016
      outer loop
         vertex 5.625324e+000 -2.066827e+000 2.176539e+000
         vertex 5.655365e+000 -2.149364e+000 2.132310e+000
         vertex 5.604674e+000 -2.010093e+000 1.806450e+000
      endloop
   endfacet
   facet normal 9.396926e-001 3.420202e-001 8.881784e-016
      outer loop
         vertex 5.604674e+000 -2.010093e+000 1.806450e+000
         vertex 5.655365e+000 -2.149364e+000 2.132310e+000
         vertex 5.679336e+000 -2.215225e+000 2.063326e+000
      endloop
   endfacet
   facet normal 9.396926e-001 3.420202e-001 8.881784e-016
      outer loop
         vertex 5.604674e+000 -2.010093e+000 1.806450e+000
         vertex 5.679336e+000 -2.215225e+000 2.063326e+000
         vertex 5.627132e+000 -2.071797e+000 1.773291e+000
      endloop
   endfacet
   facet normal 9.396926e-001 3.420202e-001 8.881784e-016
      outer loop
         vertex 5.627132e+000 -2.071797e+000 1.773291e+000
         vertex 5.679336e+000 -2.215225e+000 2.063326e+000
         vertex 5.701717e+000 -2.276717e+000 1.994817e+000
      endloop
   endfacet
   facet normal 9.396926e-001 3.420202e-001 8.881784e-016
      outer loop
         vertex 5.627132e+000 -2.071797e+000 1.773291e+000
         vertex 5.701717e+000 -2.276717e+000 1.994817e+000
         vertex 5.642067e+000 -2.112830e+000 1.714094e+000
      endloop
   endfacet
   facet normal 9.396926e-001 3.420202e-001 8.881784e-016
      outer loop
         vertex 5.642067e+000 -2.112830e+000 1.714094e+000
         vertex 5.701717e+000 -2.276717e+000 1.994817e+000
         vertex 5.729187e+000 -2.352192e+000 1.944573e+000
      endloop
   endfacet
   facet normal 9.396926e-001 3.420202e-001 8.881784e-016
      outer loop
         vertex 5.642067e+000 -2.112830e+000 1.714094e+000
         vertex 5.729187e+000 -2.352192e+000 1.944573e+000
         vertex 5.658292e+000 -2.157407e+000 1.640806e+000
      endloop
   endfacet
   facet normal 9.396926e-001 3.420202e-001 8.881784e-016
      outer loop
         vertex 5.658292e+000 -2.157407e+000 1.640806e+000
         vertex 5.729187e+000 -2.352192e+000 1.944573e+000
         vertex 5.783424e+000 -2.501204e+000 1.851439e+000
      endloop
   endfacet
   facet normal 9.396926e-001 3.420202e-001 8.881784e-016
      outer loop
         vertex 5.658292e+000 -2.157407e+000 1.640806e+000
         vertex 5.783424e+000 -2.501204e+000 1.851439e+000
         vertex 5.682045e+000 -2.222669e+000 1.587908e+000
      endloop
   endfacet
   facet normal 9.396926e-001 3.420202e-001 8.881784e-016
      outer loop
         vertex 5.786199e+000 -2.508829e+000 1.013215e+000
         vertex 5.910216e+000 -2.849564e+000 8.752811e-001
         vertex 5.775018e+000 -2.478109e+000 8.791047e-001
      endloop
   endfacet
   facet normal 9.396926e-001 3.420202e-001 8.881784e-016
      outer loop
         vertex 5.775018e+000 -2.478109e+000 8.791047e-001
         vertex 5.910216e+000 -2.849564e+000 8.752811e-001
         vertex 5.890798e+000 -2.796211e+000 7.003629e-001
      endloop
   endfacet
   facet normal 9.396926e-001 3.420202e-001 8.881784e-016
      outer loop
         vertex 5.775018e+000 -2.478109e+000 8.791047e-001
         vertex 5.890798e+000 -2.796211e+000 7.003629e-001
         vertex 5.753165e+000 -2.418068e+000 7.567450e-001
      endloop
   endfacet
   facet normal 9.396926e-001 3.420202e-001 8.881784e-016
      outer loop
         vertex 5.753165e+000 -2.418068e+000 7.567450e-001
         vertex 5.890798e+000 -2.796211e+000 7.003629e-001
         vertex 5.860244e+000 -2.712265e+000 5.396158e-001
      endloop
   endfacet
   facet normal 9.396926e-001 3.420202e-001 8.881784e-016
      outer loop
         vertex 5.753165e+000 -2.418068e+000 7.567450e-001
         vertex 5.860244e+000 -2.712265e+000 5.396159e-001
         vertex 5.721916e+000 -2.332211e+000 6.532740e-001
      endloop
   endfacet
   facet normal 9.396926e-001 3.420202e-001 8.881784e-016
      outer loop
         vertex 5.721916e+000 -2.332211e+000 6.532740e-001
         vertex 5.860244e+000 -2.712265e+000 5.396159e-001
         vertex 5.819694e+000 -2.600856e+000 3.990322e-001
      endloop
   endfacet
   facet normal 9.396926e-001 3.420202e-001 8.881784e-016
      outer loop
         vertex 5.721916e+000 -2.332211e+000 6.532740e-001
         vertex 5.819694e+000 -2.600856e+000 3.990322e-001
         vertex 5.683093e+000 -2.225546e+000 5.747280e-001
      endloop
   endfacet
   facet normal 9.396926e-001 3.420202e-001 8.881784e-016
      outer loop
         vertex 5.683093e+000 -2.225546e+000 5.747280e-001
         vertex 5.819694e+000 -2.600856e+000 3.990322e-001
         vertex 5.770660e+000 -2.466136e+000 2.838525e-001
      endloop
   endfacet
   facet normal 9.396926e-001 3.420202e-001 8.881784e-016
      outer loop
         vertex 5.683093e+000 -2.225546e+000 5.747280e-001
         vertex 5.770660e+000 -2.466136e+000 2.838525e-001
         vertex 5.714970e+000 -2.313128e+000 1.983704e-001
      endloop
   endfacet
   facet normal 9.396926e-001 3.420202e-001 8.881784e-016
      outer loop
         vertex 5.682045e+000 -2.222669e+000 1.587908e+000
         vertex 5.783424e+000 -2.501204e+000 1.851439e+000
         vertex 5.721030e+000 -2.329779e+000 1.510050e+000
      endloop
   endfacet
   facet normal 9.396926e-001 3.420202e-001 8.881784e-016
      outer loop
         vertex 5.721030e+000 -2.329779e+000 1.510050e+000
         vertex 5.783424e+000 -2.501204e+000 1.851439e+000
         vertex 5.830527e+000 -2.630621e+000 1.729568e+000
      endloop
   endfacet
   facet normal 9.396926e-001 3.420202e-001 8.881784e-016
      outer loop
         vertex 5.721030e+000 -2.329779e+000 1.510050e+000
         vertex 5.830527e+000 -2.630621e+000 1.729568e+000
         vertex 5.752493e+000 -2.416222e+000 1.407133e+000
      endloop
   endfacet
   facet normal 9.396926e-001 3.420202e-001 8.881784e-016
      outer loop
         vertex 5.752493e+000 -2.416222e+000 1.407133e+000
         vertex 5.830527e+000 -2.630621e+000 1.729568e+000
         vertex 5.868743e+000 -2.735617e+000 1.583502e+000
      endloop
   endfacet
   facet normal 9.396926e-001 3.420202e-001 8.881784e-016
      outer loop
         vertex 5.752493e+000 -2.416222e+000 1.407133e+000
         vertex 5.868743e+000 -2.735617e+000 1.583501e+000
         vertex 5.774598e+000 -2.476956e+000 1.285161e+000
      endloop
   endfacet
   facet normal 9.396926e-001 3.420202e-001 8.881784e-016
      outer loop
         vertex 5.774598e+000 -2.476956e+000 1.285161e+000
         vertex 5.868743e+000 -2.735617e+000 1.583501e+000
         vertex 5.896646e+000 -2.812280e+000 1.418686e+000
      endloop
   endfacet
   facet normal 9.396926e-001 3.420202e-001 8.881784e-016
      outer loop
         vertex 5.774598e+000 -2.476956e+000 1.285161e+000
         vertex 5.896646e+000 -2.812280e+000 1.418686e+000
         vertex 5.786056e+000 -2.508437e+000 1.151251e+000
      endloop
   endfacet
   facet normal 9.396926e-001 3.420202e-001 8.881784e-016
      outer loop
         vertex 5.786056e+000 -2.508437e+000 1.151251e+000
         vertex 5.896646e+000 -2.812280e+000 1.418686e+000
         vertex 5.913196e+000 -2.857751e+000 1.241264e+000
      endloop
   endfacet
   facet normal 9.396926e-001 3.420202e-001 8.881784e-016
      outer loop
         vertex 5.786056e+000 -2.508437e+000 1.151251e+000
         vertex 5.913196e+000 -2.857751e+000 1.241264e+000
         vertex 5.786199e+000 -2.508829e+000 1.013215e+000
      endloop
   endfacet
   facet normal 9.396926e-001 3.420202e-001 8.881784e-016
      outer loop
         vertex 5.786199e+000 -2.508829e+000 1.013215e+000
         vertex 5.913196e+000 -2.857751e+000 1.241264e+000
         vertex 5.917777e+000 -2.870335e+000 1.057850e+000
      endloop
   endfacet
   facet normal 9.396926e-001 3.420202e-001 8.881784e-016
      outer loop
         vertex 5.786199e+000 -2.508829e+000 1.013215e+000
         vertex 5.917777e+000 -2.870335e+000 1.057850e+000
         vertex 5.910216e+000 -2.849564e+000 8.752811e-001
      endloop
   endfacet
   facet normal -9.396926e-001 -3.420202e-001 -8.881784e-016
      outer loop
         vertex 3.252141e+000 -2.973026e+000 5.256894e-001
         vertex 3.205275e+000 -2.844263e+000 5.090190e-001
         vertex 3.205275e+000 -2.844263e+000 1.280190e-001
      endloop
   endfacet
   facet normal -9.396926e-001 -3.420202e-001 -8.881784e-016
      outer loop
         vertex 3.172046e+000 -2.752967e+000 2.176539e+000
         vertex 3.192696e+000 -2.809700e+000 1.806450e+000
         vertex 3.205275e+000 -2.844263e+000 2.191769e+000
      endloop
   endfacet
   facet normal -9.396926e-001 -3.420202e-001 -8.881784e-016
      outer loop
         vertex 3.205275e+000 -2.844263e+000 2.191769e+000
         vertex 3.192696e+000 -2.809700e+000 1.806450e+000
         vertex 3.217855e+000 -2.878825e+000 1.806450e+000
      endloop
   endfacet
   facet normal -9.396926e-001 -3.420202e-001 -8.881784e-016
      outer loop
         vertex 3.205275e+000 -2.844263e+000 2.191769e+000
         vertex 3.217855e+000 -2.878825e+000 1.806450e+000
         vertex 3.238504e+000 -2.935558e+000 2.176539e+000
      endloop
   endfacet
   facet normal -9.396926e-001 -3.420202e-001 -8.881784e-016
      outer loop
         vertex 3.268545e+000 -3.018095e+000 2.132310e+000
         vertex 3.238504e+000 -2.935558e+000 2.176539e+000
         vertex 3.292517e+000 -3.083956e+000 2.063326e+000
      endloop
   endfacet
   facet normal -9.396926e-001 -3.420202e-001 -8.881784e-016
      outer loop
         vertex 3.292517e+000 -3.083956e+000 2.063326e+000
         vertex 3.238504e+000 -2.935558e+000 2.176539e+000
         vertex 3.217855e+000 -2.878825e+000 1.806450e+000
      endloop
   endfacet
   facet normal -9.396926e-001 -3.420202e-001 -8.881784e-016
      outer loop
         vertex 3.292517e+000 -3.083956e+000 2.063326e+000
         vertex 3.217855e+000 -2.878825e+000 1.806450e+000
         vertex 3.314898e+000 -3.145448e+000 1.994817e+000
      endloop
   endfacet
   facet normal -9.396926e-001 -3.420202e-001 -8.881784e-016
      outer loop
         vertex 3.314898e+000 -3.145448e+000 1.994817e+000
         vertex 3.217855e+000 -2.878825e+000 1.806450e+000
         vertex 3.240313e+000 -2.940528e+000 1.773291e+000
      endloop
   endfacet
   facet normal -9.396926e-001 -3.420202e-001 -8.881784e-016
      outer loop
         vertex 3.314898e+000 -3.145448e+000 1.994817e+000
         vertex 3.240313e+000 -2.940528e+000 1.773291e+000
         vertex 3.342368e+000 -3.220923e+000 1.944573e+000
      endloop
   endfacet
   facet normal -9.396926e-001 -3.420202e-001 -8.881784e-016
      outer loop
         vertex 3.342368e+000 -3.220923e+000 1.944573e+000
         vertex 3.240313e+000 -2.940528e+000 1.773291e+000
         vertex 3.255248e+000 -2.981561e+000 1.714094e+000
      endloop
   endfacet
   facet normal -9.396926e-001 -3.420202e-001 -8.881784e-016
      outer loop
         vertex 3.255248e+000 -2.981561e+000 1.714094e+000
         vertex 3.271472e+000 -3.026138e+000 1.640806e+000
         vertex 3.342368e+000 -3.220923e+000 1.944573e+000
      endloop
   endfacet
   facet normal -9.396926e-001 -3.420202e-001 -8.881784e-016
      outer loop
         vertex 3.342368e+000 -3.220923e+000 1.944573e+000
         vertex 3.271472e+000 -3.026138e+000 1.640806e+000
         vertex 3.295226e+000 -3.091400e+000 1.587908e+000
      endloop
   endfacet
   facet normal -9.396926e-001 -3.420202e-001 -8.881784e-016
      outer loop
         vertex 3.342368e+000 -3.220923e+000 1.944573e+000
         vertex 3.295226e+000 -3.091400e+000 1.587908e+000
         vertex 3.396605e+000 -3.369935e+000 1.851439e+000
      endloop
   endfacet
   facet normal -9.396926e-001 -3.420202e-001 -8.881784e-016
      outer loop
         vertex 3.396605e+000 -3.369935e+000 1.851439e+000
         vertex 3.295226e+000 -3.091400e+000 1.587908e+000
         vertex 3.334211e+000 -3.198510e+000 1.510050e+000
      endloop
   endfacet
   facet normal -9.396926e-001 -3.420202e-001 -8.881784e-016
      outer loop
         vertex 3.396605e+000 -3.369935e+000 1.851439e+000
         vertex 3.334211e+000 -3.198510e+000 1.510050e+000
         vertex 3.443708e+000 -3.499352e+000 1.729568e+000
      endloop
   endfacet
   facet normal -9.396926e-001 -3.420202e-001 -8.881784e-016
      outer loop
         vertex 3.443708e+000 -3.499352e+000 1.729568e+000
         vertex 3.334211e+000 -3.198510e+000 1.510050e+000
         vertex 3.365674e+000 -3.284953e+000 1.407133e+000
      endloop
   endfacet
   facet normal -9.396926e-001 -3.420202e-001 -8.881784e-016
      outer loop
         vertex 3.205275e+000 -2.844263e+000 1.280190e-001
         vertex 3.205275e+000 -2.844263e+000 5.090190e-001
         vertex 3.142671e+000 -2.672258e+000 1.457723e-001
      endloop
   endfacet
   facet normal -9.396926e-001 -3.420202e-001 -8.881784e-016
      outer loop
         vertex 3.142671e+000 -2.672258e+000 1.457723e-001
         vertex 3.205275e+000 -2.844263e+000 5.090190e-001
         vertex 3.158410e+000 -2.715499e+000 5.256894e-001
      endloop
   endfacet
   facet normal -9.396926e-001 -3.420202e-001 -8.881784e-016
      outer loop
         vertex 3.142671e+000 -2.672258e+000 1.457723e-001
         vertex 3.158410e+000 -2.715499e+000 5.256894e-001
         vertex 3.082400e+000 -2.506666e+000 1.983704e-001
      endloop
   endfacet
   facet normal -9.396926e-001 -3.420202e-001 -8.881784e-016
      outer loop
         vertex 3.082400e+000 -2.506666e+000 1.983704e-001
         vertex 3.158410e+000 -2.715499e+000 5.256894e-001
         vertex 3.114278e+000 -2.594248e+000 5.747280e-001
      endloop
   endfacet
   facet normal -9.396926e-001 -3.420202e-001 -8.881784e-016
      outer loop
         vertex 3.082400e+000 -2.506666e+000 1.983704e-001
         vertex 3.114278e+000 -2.594248e+000 5.747280e-001
         vertex 3.026710e+000 -2.353658e+000 2.838525e-001
      endloop
   endfacet
   facet normal -9.396926e-001 -3.420202e-001 -8.881784e-016
      outer loop
         vertex 3.026710e+000 -2.353658e+000 2.838525e-001
         vertex 3.114278e+000 -2.594248e+000 5.747280e-001
         vertex 2.977676e+000 -2.218938e+000 3.990322e-001
      endloop
   endfacet
   facet normal -9.396926e-001 -3.420202e-001 -8.881784e-016
      outer loop
         vertex 2.977676e+000 -2.218938e+000 3.990322e-001
         vertex 3.114278e+000 -2.594248e+000 5.747280e-001
         vertex 3.075454e+000 -2.487583e+000 6.532740e-001
      endloop
   endfacet
   facet normal -9.396926e-001 -3.420202e-001 -8.881784e-016
      outer loop
         vertex 2.977676e+000 -2.218938e+000 3.990322e-001
         vertex 3.075454e+000 -2.487583e+000 6.532740e-001
         vertex 2.937126e+000 -2.107529e+000 5.396158e-001
      endloop
   endfacet
   facet normal -9.396926e-001 -3.420202e-001 -8.881784e-016
      outer loop
         vertex 2.937126e+000 -2.107529e+000 5.396159e-001
         vertex 3.075454e+000 -2.487583e+000 6.532740e-001
         vertex 3.044205e+000 -2.401726e+000 7.567450e-001
      endloop
   endfacet
   facet normal -9.396926e-001 -3.420202e-001 -8.881784e-016
      outer loop
         vertex 2.937126e+000 -2.107529e+000 5.396159e-001
         vertex 3.044205e+000 -2.401726e+000 7.567450e-001
         vertex 2.906573e+000 -2.023583e+000 7.003629e-001
      endloop
   endfacet
   facet normal -9.396926e-001 -3.420202e-001 -8.881784e-016
      outer loop
         vertex 2.906573e+000 -2.023583e+000 7.003629e-001
         vertex 3.044205e+000 -2.401726e+000 7.567450e-001
         vertex 3.022352e+000 -2.341686e+000 8.791047e-001
      endloop
   endfacet
   facet normal -9.396926e-001 -3.420202e-001 -8.881784e-016
      outer loop
         vertex 2.906573e+000 -2.023583e+000 7.003629e-001
         vertex 3.022352e+000 -2.341686e+000 8.791047e-001
         vertex 2.887154e+000 -1.970230e+000 8.752811e-001
      endloop
   endfacet
   facet normal -9.396926e-001 -3.420202e-001 -8.881784e-016
      outer loop
         vertex 2.887154e+000 -1.970230e+000 8.752811e-001
         vertex 3.022352e+000 -2.341686e+000 8.791047e-001
         vertex 3.011171e+000 -2.310965e+000 1.013215e+000
      endloop
   endfacet
   facet normal -9.396926e-001 -3.420202e-001 -8.881784e-016
      outer loop
         vertex 2.887154e+000 -1.970230e+000 8.752811e-001
         vertex 3.011171e+000 -2.310965e+000 1.013215e+000
         vertex 2.879593e+000 -1.949459e+000 1.057850e+000
      endloop
   endfacet
   facet normal -9.396926e-001 -3.420202e-001 -8.881784e-016
      outer loop
         vertex 2.879593e+000 -1.949459e+000 1.057850e+000
         vertex 3.011171e+000 -2.310965e+000 1.013215e+000
         vertex 2.884174e+000 -1.962043e+000 1.241264e+000
      endloop
   endfacet
   facet normal -9.396926e-001 -3.420202e-001 -8.881784e-016
      outer loop
         vertex 2.884174e+000 -1.962043e+000 1.241264e+000
         vertex 3.011171e+000 -2.310965e+000 1.013215e+000
         vertex 3.011314e+000 -2.311357e+000 1.151251e+000
      endloop
   endfacet
   facet normal -9.396926e-001 -3.420202e-001 -8.881784e-016
      outer loop
         vertex 2.884174e+000 -1.962043e+000 1.241264e+000
         vertex 3.011314e+000 -2.311357e+000 1.151251e+000
         vertex 2.900724e+000 -2.007514e+000 1.418686e+000
      endloop
   endfacet
   facet normal -9.396926e-001 -3.420202e-001 -8.881784e-016
      outer loop
         vertex 2.900724e+000 -2.007514e+000 1.418686e+000
         vertex 3.011314e+000 -2.311357e+000 1.151251e+000
         vertex 3.022772e+000 -2.342839e+000 1.285161e+000
      endloop
   endfacet
   facet normal -9.396926e-001 -3.420202e-001 -8.881784e-016
      outer loop
         vertex 2.900724e+000 -2.007514e+000 1.418686e+000
         vertex 3.022772e+000 -2.342839e+000 1.285161e+000
         vertex 2.928627e+000 -2.084177e+000 1.583502e+000
      endloop
   endfacet
   facet normal -9.396926e-001 -3.420202e-001 -8.881784e-016
      outer loop
         vertex 2.928627e+000 -2.084177e+000 1.583501e+000
         vertex 3.022772e+000 -2.342839e+000 1.285161e+000
         vertex 3.044877e+000 -2.403572e+000 1.407133e+000
      endloop
   endfacet
   facet normal -9.396926e-001 -3.420202e-001 -8.881784e-016
      outer loop
         vertex 2.928627e+000 -2.084177e+000 1.583501e+000
         vertex 3.044877e+000 -2.403572e+000 1.407133e+000
         vertex 2.966842e+000 -2.189173e+000 1.729568e+000
      endloop
   endfacet
   facet normal -9.396926e-001 -3.420202e-001 -8.881784e-016
      outer loop
         vertex 2.966842e+000 -2.189173e+000 1.729568e+000
         vertex 3.044877e+000 -2.403572e+000 1.407133e+000
         vertex 3.076340e+000 -2.490015e+000 1.510050e+000
      endloop
   endfacet
   facet normal -9.396926e-001 -3.420202e-001 -8.881784e-016
      outer loop
         vertex 2.966842e+000 -2.189173e+000 1.729568e+000
         vertex 3.076340e+000 -2.490015e+000 1.510050e+000
         vertex 3.013946e+000 -2.318590e+000 1.851439e+000
      endloop
   endfacet
   facet normal -9.396926e-001 -3.420202e-001 -8.881784e-016
      outer loop
         vertex 3.388198e+000 -3.346839e+000 8.791047e-001
         vertex 3.523397e+000 -3.718295e+000 8.752811e-001
         vertex 3.399379e+000 -3.377560e+000 1.013215e+000
      endloop
   endfacet
   facet normal -9.396926e-001 -3.420202e-001 -8.881784e-016
      outer loop
         vertex 3.399379e+000 -3.377560e+000 1.013215e+000
         vertex 3.523397e+000 -3.718295e+000 8.752811e-001
         vertex 3.530957e+000 -3.739066e+000 1.057850e+000
      endloop
   endfacet
   facet normal -9.396926e-001 -3.420202e-001 -8.881784e-016
      outer loop
         vertex 3.399379e+000 -3.377560e+000 1.013215e+000
         vertex 3.530957e+000 -3.739066e+000 1.057850e+000
         vertex 3.399237e+000 -3.377168e+000 1.151251e+000
      endloop
   endfacet
   facet normal -9.396926e-001 -3.420202e-001 -8.881784e-016
      outer loop
         vertex 3.399237e+000 -3.377168e+000 1.151251e+000
         vertex 3.530957e+000 -3.739066e+000 1.057850e+000
         vertex 3.526377e+000 -3.726482e+000 1.241264e+000
      endloop
   endfacet
   facet normal -9.396926e-001 -3.420202e-001 -8.881784e-016
      outer loop
         vertex 3.399237e+000 -3.377168e+000 1.151251e+000
         vertex 3.526377e+000 -3.726482e+000 1.241264e+000
         vertex 3.387779e+000 -3.345687e+000 1.285161e+000
      endloop
   endfacet
   facet normal -9.396926e-001 -3.420202e-001 -8.881784e-016
      outer loop
         vertex 3.387779e+000 -3.345687e+000 1.285161e+000
         vertex 3.526377e+000 -3.726482e+000 1.241264e+000
         vertex 3.509827e+000 -3.681011e+000 1.418686e+000
      endloop
   endfacet
   facet normal -9.396926e-001 -3.420202e-001 -8.881784e-016
      outer loop
         vertex 3.387779e+000 -3.345687e+000 1.285161e+000
         vertex 3.509827e+000 -3.681011e+000 1.418686e+000
         vertex 3.365674e+000 -3.284953e+000 1.407133e+000
      endloop
   endfacet
   facet normal -9.396926e-001 -3.420202e-001 -8.881784e-016
      outer loop
         vertex 3.365674e+000 -3.284953e+000 1.407133e+000
         vertex 3.509827e+000 -3.681011e+000 1.418686e+000
         vertex 3.481924e+000 -3.604348e+000 1.583502e+000
      endloop
   endfacet
   facet normal -9.396926e-001 -3.420202e-001 -8.881784e-016
      outer loop
         vertex 3.365674e+000 -3.284953e+000 1.407133e+000
         vertex 3.481924e+000 -3.604348e+000 1.583501e+000
         vertex 3.443708e+000 -3.499352e+000 1.729568e+000
      endloop
   endfacet
   facet normal -9.396926e-001 -3.420202e-001 -8.881784e-016
      outer loop
         vertex 3.172046e+000 -2.752967e+000 2.176539e+000
         vertex 3.142005e+000 -2.670430e+000 2.132310e+000
         vertex 3.192696e+000 -2.809700e+000 1.806450e+000
      endloop
   endfacet
   facet normal -9.396926e-001 -3.420202e-001 -8.881784e-016
      outer loop
         vertex 3.192696e+000 -2.809700e+000 1.806450e+000
         vertex 3.142005e+000 -2.670430e+000 2.132310e+000
         vertex 3.118034e+000 -2.604570e+000 2.063326e+000
      endloop
   endfacet
   facet normal -9.396926e-001 -3.420202e-001 -8.881784e-016
      outer loop
         vertex 3.192696e+000 -2.809700e+000 1.806450e+000
         vertex 3.118034e+000 -2.604570e+000 2.063326e+000
         vertex 3.170238e+000 -2.747998e+000 1.773291e+000
      endloop
   endfacet
   facet normal -9.396926e-001 -3.420202e-001 -8.881784e-016
      outer loop
         vertex 3.170238e+000 -2.747998e+000 1.773291e+000
         vertex 3.118034e+000 -2.604570e+000 2.063326e+000
         vertex 3.095653e+000 -2.543077e+000 1.994817e+000
      endloop
   endfacet
   facet normal -9.396926e-001 -3.420202e-001 -8.881784e-016
      outer loop
         vertex 3.170238e+000 -2.747998e+000 1.773291e+000
         vertex 3.095653e+000 -2.543077e+000 1.994817e+000
         vertex 3.155303e+000 -2.706964e+000 1.714094e+000
      endloop
   endfacet
   facet normal -9.396926e-001 -3.420202e-001 -8.881784e-016
      outer loop
         vertex 3.155303e+000 -2.706964e+000 1.714094e+000
         vertex 3.095653e+000 -2.543077e+000 1.994817e+000
         vertex 3.068182e+000 -2.467602e+000 1.944573e+000
      endloop
   endfacet
   facet normal -9.396926e-001 -3.420202e-001 -8.881784e-016
      outer loop
         vertex 3.155303e+000 -2.706964e+000 1.714094e+000
         vertex 3.068182e+000 -2.467602e+000 1.944573e+000
         vertex 3.139078e+000 -2.662387e+000 1.640806e+000
      endloop
   endfacet
   facet normal -9.396926e-001 -3.420202e-001 -8.881784e-016
      outer loop
         vertex 3.139078e+000 -2.662387e+000 1.640806e+000
         vertex 3.068182e+000 -2.467602e+000 1.944573e+000
         vertex 3.013946e+000 -2.318590e+000 1.851439e+000
      endloop
   endfacet
   facet normal -9.396926e-001 -3.420202e-001 -8.881784e-016
      outer loop
         vertex 3.139078e+000 -2.662387e+000 1.640806e+000
         vertex 3.013946e+000 -2.318590e+000 1.851439e+000
         vertex 3.115324e+000 -2.597125e+000 1.587908e+000
      endloop
   endfacet
   facet normal -9.396926e-001 -3.420202e-001 -8.881784e-016
      outer loop
         vertex 3.115324e+000 -2.597125e+000 1.587908e+000
         vertex 3.013946e+000 -2.318590e+000 1.851439e+000
         vertex 3.076340e+000 -2.490015e+000 1.510050e+000
      endloop
   endfacet
   facet normal -9.396926e-001 -3.420202e-001 -8.881784e-016
      outer loop
         vertex 3.205275e+000 -2.844263e+000 1.280190e-001
         vertex 3.267880e+000 -3.016267e+000 1.457723e-001
         vertex 3.252141e+000 -2.973026e+000 5.256894e-001
      endloop
   endfacet
   facet normal -9.396926e-001 -3.420202e-001 -8.881784e-016
      outer loop
         vertex 3.252141e+000 -2.973026e+000 5.256894e-001
         vertex 3.267880e+000 -3.016267e+000 1.457723e-001
         vertex 3.328151e+000 -3.181859e+000 1.983704e-001
      endloop
   endfacet
   facet normal -9.396926e-001 -3.420202e-001 -8.881784e-016
      outer loop
         vertex 3.252141e+000 -2.973026e+000 5.256894e-001
         vertex 3.328151e+000 -3.181859e+000 1.983704e-001
         vertex 3.296273e+000 -3.094277e+000 5.747280e-001
      endloop
   endfacet
   facet normal -9.396926e-001 -3.420202e-001 -8.881784e-016
      outer loop
         vertex 3.296273e+000 -3.094277e+000 5.747280e-001
         vertex 3.328151e+000 -3.181859e+000 1.983704e-001
         vertex 3.383841e+000 -3.334867e+000 2.838525e-001
      endloop
   endfacet
   facet normal -9.396926e-001 -3.420202e-001 -8.881784e-016
      outer loop
         vertex 3.296273e+000 -3.094277e+000 5.747280e-001
         vertex 3.383841e+000 -3.334867e+000 2.838525e-001
         vertex 3.335096e+000 -3.200942e+000 6.532740e-001
      endloop
   endfacet
   facet normal -9.396926e-001 -3.420202e-001 -8.881784e-016
      outer loop
         vertex 3.335096e+000 -3.200942e+000 6.532740e-001
         vertex 3.383841e+000 -3.334867e+000 2.838525e-001
         vertex 3.432875e+000 -3.469587e+000 3.990322e-001
      endloop
   endfacet
   facet normal -9.396926e-001 -3.420202e-001 -8.881784e-016
      outer loop
         vertex 3.335096e+000 -3.200942e+000 6.532740e-001
         vertex 3.432875e+000 -3.469587e+000 3.990322e-001
         vertex 3.366346e+000 -3.286800e+000 7.567450e-001
      endloop
   endfacet
   facet normal -9.396926e-001 -3.420202e-001 -8.881784e-016
      outer loop
         vertex 3.366346e+000 -3.286800e+000 7.567450e-001
         vertex 3.432875e+000 -3.469587e+000 3.990322e-001
         vertex 3.473424e+000 -3.580996e+000 5.396158e-001
      endloop
   endfacet
   facet normal -9.396926e-001 -3.420202e-001 -8.881784e-016
      outer loop
         vertex 3.366346e+000 -3.286800e+000 7.567450e-001
         vertex 3.473424e+000 -3.580996e+000 5.396159e-001
         vertex 3.388198e+000 -3.346839e+000 8.791047e-001
      endloop
   endfacet
   facet normal -9.396926e-001 -3.420202e-001 -8.881784e-016
      outer loop
         vertex 3.388198e+000 -3.346839e+000 8.791047e-001
         vertex 3.473424e+000 -3.580996e+000 5.396159e-001
         vertex 3.503978e+000 -3.664942e+000 7.003629e-001
      endloop
   endfacet
   facet normal -9.396926e-001 -3.420202e-001 -8.881784e-016
      outer loop
         vertex 3.388198e+000 -3.346839e+000 8.791047e-001
         vertex 3.503978e+000 -3.664942e+000 7.003629e-001
         vertex 3.523397e+000 -3.718295e+000 8.752811e-001
      endloop
   endfacet
   facet normal -2.523127e-001 6.932235e-001 6.751144e-001
      outer loop
         vertex 5.504853e+000 -1.735839e+000 2.063326e+000
         vertex 3.118034e+000 -2.604570e+000 2.063326e+000
         vertex 3.142005e+000 -2.670430e+000 2.132310e+000
      endloop
   endfacet
   facet normal -2.268735e-001 6.233299e-001 7.483236e-001
      outer loop
         vertex 5.504853e+000 -1.735839e+000 2.063326e+000
         vertex 3.142005e+000 -2.670430e+000 2.132310e+000
         vertex 5.528824e+000 -1.801699e+000 2.132310e+000
      endloop
   endfacet
   facet normal -1.695535e-001 4.658445e-001 8.684703e-001
      outer loop
         vertex 5.528824e+000 -1.801699e+000 2.132310e+000
         vertex 3.142005e+000 -2.670430e+000 2.132310e+000
         vertex 3.172046e+000 -2.752967e+000 2.176539e+000
      endloop
   endfacet
   facet normal -1.376727e-001 3.782526e-001 9.154077e-001
      outer loop
         vertex 5.528824e+000 -1.801699e+000 2.132310e+000
         vertex 3.172046e+000 -2.752967e+000 2.176539e+000
         vertex 5.558866e+000 -1.884236e+000 2.176539e+000
      endloop
   endfacet
   facet normal -7.052790e-002 1.937738e-001 9.785078e-001
      outer loop
         vertex 5.558866e+000 -1.884236e+000 2.176539e+000
         vertex 3.172046e+000 -2.752967e+000 2.176539e+000
         vertex 3.205275e+000 -2.844263e+000 2.191769e+000
      endloop
   endfacet
   facet normal -3.526395e-002 9.688690e-002 9.946705e-001
      outer loop
         vertex 5.558866e+000 -1.884236e+000 2.176539e+000
         vertex 3.205275e+000 -2.844263e+000 2.191769e+000
         vertex 5.592095e+000 -1.975531e+000 2.191769e+000
      endloop
   endfacet
   facet normal 3.526395e-002 -9.688690e-002 9.946705e-001
      outer loop
         vertex 5.592095e+000 -1.975531e+000 2.191769e+000
         vertex 3.205275e+000 -2.844263e+000 2.191769e+000
         vertex 3.238504e+000 -2.935558e+000 2.176539e+000
      endloop
   endfacet
   facet normal 7.052790e-002 -1.937738e-001 9.785078e-001
      outer loop
         vertex 5.592095e+000 -1.975531e+000 2.191769e+000
         vertex 3.238504e+000 -2.935558e+000 2.176539e+000
         vertex 5.625324e+000 -2.066827e+000 2.176539e+000
      endloop
   endfacet
   facet normal 1.376727e-001 -3.782526e-001 9.154077e-001
      outer loop
         vertex 5.625324e+000 -2.066827e+000 2.176539e+000
         vertex 3.238504e+000 -2.935558e+000 2.176539e+000
         vertex 3.268545e+000 -3.018095e+000 2.132310e+000
      endloop
   endfacet
   facet normal 1.695535e-001 -4.658445e-001 8.684703e-001
      outer loop
         vertex 5.625324e+000 -2.066827e+000 2.176539e+000
         vertex 3.268545e+000 -3.018095e+000 2.132310e+000
         vertex 5.655365e+000 -2.149364e+000 2.132310e+000
      endloop
   endfacet
   facet normal 2.268735e-001 -6.233299e-001 7.483236e-001
      outer loop
         vertex 5.655365e+000 -2.149364e+000 2.132310e+000
         vertex 3.268545e+000 -3.018095e+000 2.132310e+000
         vertex 3.292517e+000 -3.083956e+000 2.063326e+000
      endloop
   endfacet
   facet normal 2.523127e-001 -6.932235e-001 6.751144e-001
      outer loop
         vertex 5.655365e+000 -2.149364e+000 2.132310e+000
         vertex 3.292517e+000 -3.083956e+000 2.063326e+000
         vertex 5.679336e+000 -2.215225e+000 2.063326e+000
      endloop
   endfacet
   facet normal 1.635891e-001 -4.494573e-001 8.781952e-001
      outer loop
         vertex 5.729187e+000 -2.352192e+000 1.944573e+000
         vertex 3.342368e+000 -3.220923e+000 1.944573e+000
         vertex 3.396605e+000 -3.369935e+000 1.851439e+000
      endloop
   endfacet
   facet normal 1.826484e-001 -5.018224e-001 8.454667e-001
      outer loop
         vertex 5.729187e+000 -2.352192e+000 1.944573e+000
         vertex 3.396605e+000 -3.369935e+000 1.851439e+000
         vertex 5.783424e+000 -2.501204e+000 1.851439e+000
      endloop
   endfacet
   facet normal 2.182607e-001 -5.996664e-001 7.699108e-001
      outer loop
         vertex 5.783424e+000 -2.501204e+000 1.851439e+000
         vertex 3.396605e+000 -3.369935e+000 1.851439e+000
         vertex 3.443708e+000 -3.499352e+000 1.729568e+000
      endloop
   endfacet
   facet normal 2.348137e-001 -6.451452e-001 7.270833e-001
      outer loop
         vertex 5.783424e+000 -2.501204e+000 1.851439e+000
         vertex 3.443708e+000 -3.499352e+000 1.729568e+000
         vertex 5.830527e+000 -2.630621e+000 1.729568e+000
      endloop
   endfacet
   facet normal 2.647961e-001 -7.275214e-001 6.329262e-001
      outer loop
         vertex 5.830527e+000 -2.630621e+000 1.729568e+000
         vertex 3.443708e+000 -3.499352e+000 1.729568e+000
         vertex 3.481924e+000 -3.604348e+000 1.583502e+000
      endloop
   endfacet
   facet normal 2.782257e-001 -7.644188e-001 5.815964e-001
      outer loop
         vertex 5.830527e+000 -2.630621e+000 1.729568e+000
         vertex 3.481924e+000 -3.604348e+000 1.583501e+000
         vertex 5.868743e+000 -2.735617e+000 1.583502e+000
      endloop
   endfacet
   facet normal 3.014607e-001 -8.282565e-001 4.723479e-001
      outer loop
         vertex 5.868743e+000 -2.735617e+000 1.583501e+000
         vertex 3.481924e+000 -3.604348e+000 1.583501e+000
         vertex 3.509827e+000 -3.681011e+000 1.418686e+000
      endloop
   endfacet
   facet normal 3.112662e-001 -8.551970e-001 4.144292e-001
      outer loop
         vertex 5.868743e+000 -2.735617e+000 1.583501e+000
         vertex 3.509827e+000 -3.681011e+000 1.418686e+000
         vertex 5.896646e+000 -2.812280e+000 1.418686e+000
      endloop
   endfacet
   facet normal 3.268877e-001 -8.981165e-001 2.941617e-001
      outer loop
         vertex 5.896646e+000 -2.812280e+000 1.418686e+000
         vertex 3.509827e+000 -3.681011e+000 1.418686e+000
         vertex 3.526377e+000 -3.726482e+000 1.241264e+000
      endloop
   endfacet
   facet normal 3.327036e-001 -9.140957e-001 2.318131e-001
      outer loop
         vertex 5.896646e+000 -2.812280e+000 1.418686e+000
         vertex 3.526377e+000 -3.726482e+000 1.241264e+000
         vertex 5.913196e+000 -2.857751e+000 1.241264e+000
      endloop
   endfacet
   facet normal 3.401292e-001 -9.344972e-001 1.050100e-001
      outer loop
         vertex 5.913196e+000 -2.857751e+000 1.241264e+000
         vertex 3.526377e+000 -3.726482e+000 1.241264e+000
         vertex 3.530957e+000 -3.739066e+000 1.057850e+000
      endloop
   endfacet
   facet normal 3.417388e-001 -9.389195e-001 4.055567e-002
      outer loop
         vertex 5.913196e+000 -2.857751e+000 1.241264e+000
         vertex 3.530957e+000 -3.739066e+000 1.057850e+000
         vertex 5.917777e+000 -2.870335e+000 1.057850e+000
      endloop
   endfacet
   facet normal 3.406916e-001 -9.360424e-001 -8.805613e-002
      outer loop
         vertex 5.917777e+000 -2.870335e+000 1.057850e+000
         vertex 3.530957e+000 -3.739066e+000 1.057850e+000
         vertex 3.523397e+000 -3.718295e+000 8.752811e-001
      endloop
   endfacet
   facet normal 3.380348e-001 -9.287429e-001 -1.522135e-001
      outer loop
         vertex 5.917777e+000 -2.870335e+000 1.057850e+000
         vertex 3.523397e+000 -3.718295e+000 8.752811e-001
         vertex 5.910216e+000 -2.849564e+000 8.752811e-001
      endloop
   endfacet
   facet normal 3.285539e-001 -9.026945e-001 -2.778398e-001
      outer loop
         vertex 5.910216e+000 -2.849564e+000 8.752811e-001
         vertex 3.523397e+000 -3.718295e+000 8.752811e-001
         vertex 3.503978e+000 -3.664942e+000 7.003629e-001
      endloop
   endfacet
   facet normal 3.217298e-001 -8.839455e-001 -3.393086e-001
      outer loop
         vertex 5.910216e+000 -2.849564e+000 8.752811e-001
         vertex 3.503978e+000 -3.664942e+000 7.003629e-001
         vertex 5.890798e+000 -2.796211e+000 7.003629e-001
      endloop
   endfacet
   facet normal 3.041687e-001 -8.356966e-001 -4.572664e-001
      outer loop
         vertex 5.890798e+000 -2.796211e+000 7.003629e-001
         vertex 3.503978e+000 -3.664942e+000 7.003629e-001
         vertex 3.473424e+000 -3.580996e+000 5.396158e-001
      endloop
   endfacet
   facet normal 2.934317e-001 -8.061969e-001 -5.137553e-001
      outer loop
         vertex 5.890798e+000 -2.796211e+000 7.003629e-001
         vertex 3.473424e+000 -3.580996e+000 5.396159e-001
         vertex 5.860244e+000 -2.712265e+000 5.396158e-001
      endloop
   endfacet
   facet normal 2.684449e-001 -7.375463e-001 -6.196473e-001
      outer loop
         vertex 5.860244e+000 -2.712265e+000 5.396159e-001
         vertex 3.473424e+000 -3.580996e+000 5.396159e-001
         vertex 3.432875e+000 -3.469587e+000 3.990322e-001
      endloop
   endfacet
   facet normal 2.541952e-001 -6.983955e-001 -6.690505e-001
      outer loop
         vertex 5.860244e+000 -2.712265e+000 5.396159e-001
         vertex 3.432875e+000 -3.469587e+000 3.990322e-001
         vertex 5.819694e+000 -2.600856e+000 3.990322e-001
      endloop
   endfacet
   facet normal 2.227142e-001 -6.119022e-001 -7.589295e-001
      outer loop
         vertex 5.819694e+000 -2.600856e+000 3.990322e-001
         vertex 3.432875e+000 -3.469587e+000 3.990322e-001
         vertex 3.383841e+000 -3.334867e+000 2.838525e-001
      endloop
   endfacet
   facet normal 2.054830e-001 -5.645598e-001 -7.994053e-001
      outer loop
         vertex 5.819694e+000 -2.600856e+000 3.990322e-001
         vertex 3.383841e+000 -3.334867e+000 2.838525e-001
         vertex 5.770660e+000 -2.466136e+000 2.838525e-001
      endloop
   endfacet
   facet normal 1.686813e-001 -4.634482e-001 -8.699209e-001
      outer loop
         vertex 5.770660e+000 -2.466136e+000 2.838525e-001
         vertex 3.383841e+000 -3.334867e+000 2.838525e-001
         vertex 3.328151e+000 -3.181859e+000 1.983704e-001
      endloop
   endfacet
   facet normal 1.491109e-001 -4.096790e-001 -8.999606e-001
      outer loop
         vertex 5.770660e+000 -2.466136e+000 2.838525e-001
         vertex 3.328151e+000 -3.181859e+000 1.983704e-001
         vertex 5.714970e+000 -2.313128e+000 1.983704e-001
      endloop
   endfacet
   facet normal 1.083605e-001 -2.977180e-001 -9.484841e-001
      outer loop
         vertex 5.714970e+000 -2.313128e+000 1.983704e-001
         vertex 3.328151e+000 -3.181859e+000 1.983704e-001
         vertex 3.267880e+000 -3.016267e+000 1.457723e-001
      endloop
   endfacet
   facet normal 8.718047e-002 -2.395264e-001 -9.669678e-001
      outer loop
         vertex 5.714970e+000 -2.313128e+000 1.983704e-001
         vertex 3.267880e+000 -3.016267e+000 1.457723e-001
         vertex 5.654699e+000 -2.147536e+000 1.457723e-001
      endloop
   endfacet
   facet normal 4.400029e-002 -1.208898e-001 -9.916903e-001
      outer loop
         vertex 5.654699e+000 -2.147536e+000 1.457723e-001
         vertex 3.267880e+000 -3.016267e+000 1.457723e-001
         vertex 3.205275e+000 -2.844263e+000 1.280190e-001
      endloop
   endfacet
   facet normal 2.200014e-002 -6.044490e-002 -9.979290e-001
      outer loop
         vertex 5.654699e+000 -2.147536e+000 1.457723e-001
         vertex 3.205275e+000 -2.844263e+000 1.280190e-001
         vertex 5.592095e+000 -1.975531e+000 1.280190e-001
      endloop
   endfacet
   facet normal -2.200014e-002 6.044490e-002 -9.979290e-001
      outer loop
         vertex 5.592095e+000 -1.975531e+000 1.280190e-001
         vertex 3.205275e+000 -2.844263e+000 1.280190e-001
         vertex 3.142671e+000 -2.672258e+000 1.457723e-001
      endloop
   endfacet
   facet normal -4.400029e-002 1.208898e-001 -9.916903e-001
      outer loop
         vertex 5.592095e+000 -1.975531e+000 1.280190e-001
         vertex 3.142671e+000 -2.672258e+000 1.457723e-001
         vertex 5.529490e+000 -1.803527e+000 1.457723e-001
      endloop
   endfacet
   facet normal -8.718047e-002 2.395264e-001 -9.669678e-001
      outer loop
         vertex 5.529490e+000 -1.803527e+000 1.457723e-001
         vertex 3.142671e+000 -2.672258e+000 1.457723e-001
         vertex 3.082400e+000 -2.506666e+000 1.983704e-001
      endloop
   endfacet
   facet normal -1.083605e-001 2.977180e-001 -9.484841e-001
      outer loop
         vertex 5.529490e+000 -1.803527e+000 1.457723e-001
         vertex 3.082400e+000 -2.506666e+000 1.983704e-001
         vertex 5.469219e+000 -1.637935e+000 1.983704e-001
      endloop
   endfacet
   facet normal -1.491109e-001 4.096790e-001 -8.999606e-001
      outer loop
         vertex 5.469219e+000 -1.637935e+000 1.983704e-001
         vertex 3.082400e+000 -2.506666e+000 1.983704e-001
         vertex 3.026710e+000 -2.353658e+000 2.838525e-001
      endloop
   endfacet
   facet normal -1.686813e-001 4.634482e-001 -8.699209e-001
      outer loop
         vertex 5.469219e+000 -1.637935e+000 1.983704e-001
         vertex 3.026710e+000 -2.353658e+000 2.838525e-001
         vertex 5.413529e+000 -1.484927e+000 2.838525e-001
      endloop
   endfacet
   facet normal -2.054830e-001 5.645598e-001 -7.994053e-001
      outer loop
         vertex 5.413529e+000 -1.484927e+000 2.838525e-001
         vertex 3.026710e+000 -2.353658e+000 2.838525e-001
         vertex 2.977676e+000 -2.218938e+000 3.990322e-001
      endloop
   endfacet
   facet normal -2.227142e-001 6.119022e-001 -7.589295e-001
      outer loop
         vertex 5.413529e+000 -1.484927e+000 2.838525e-001
         vertex 2.977676e+000 -2.218938e+000 3.990322e-001
         vertex 5.364495e+000 -1.350207e+000 3.990322e-001
      endloop
   endfacet
   facet normal -2.541952e-001 6.983955e-001 -6.690505e-001
      outer loop
         vertex 5.364495e+000 -1.350207e+000 3.990322e-001
         vertex 2.977676e+000 -2.218938e+000 3.990322e-001
         vertex 2.937126e+000 -2.107529e+000 5.396158e-001
      endloop
   endfacet
   facet normal -2.684449e-001 7.375463e-001 -6.196473e-001
      outer loop
         vertex 5.364495e+000 -1.350207e+000 3.990322e-001
         vertex 2.937126e+000 -2.107529e+000 5.396159e-001
         vertex 5.323946e+000 -1.238798e+000 5.396158e-001
      endloop
   endfacet
   facet normal -2.934317e-001 8.061969e-001 -5.137553e-001
      outer loop
         vertex 5.323946e+000 -1.238798e+000 5.396159e-001
         vertex 2.937126e+000 -2.107529e+000 5.396159e-001
         vertex 2.906573e+000 -2.023583e+000 7.003629e-001
      endloop
   endfacet
   facet normal -3.041687e-001 8.356966e-001 -4.572664e-001
      outer loop
         vertex 5.323946e+000 -1.238798e+000 5.396159e-001
         vertex 2.906573e+000 -2.023583e+000 7.003629e-001
         vertex 5.293392e+000 -1.154852e+000 7.003629e-001
      endloop
   endfacet
   facet normal -3.217298e-001 8.839455e-001 -3.393086e-001
      outer loop
         vertex 5.293392e+000 -1.154852e+000 7.003629e-001
         vertex 2.906573e+000 -2.023583e+000 7.003629e-001
         vertex 2.887154e+000 -1.970230e+000 8.752811e-001
      endloop
   endfacet
   facet normal -3.285539e-001 9.026945e-001 -2.778398e-001
      outer loop
         vertex 5.293392e+000 -1.154852e+000 7.003629e-001
         vertex 2.887154e+000 -1.970230e+000 8.752811e-001
         vertex 5.273973e+000 -1.101499e+000 8.752811e-001
      endloop
   endfacet
   facet normal -3.380348e-001 9.287429e-001 -1.522135e-001
      outer loop
         vertex 5.273973e+000 -1.101499e+000 8.752811e-001
         vertex 2.887154e+000 -1.970230e+000 8.752811e-001
         vertex 2.879593e+000 -1.949459e+000 1.057850e+000
      endloop
   endfacet
   facet normal -3.406916e-001 9.360424e-001 -8.805613e-002
      outer loop
         vertex 5.273973e+000 -1.101499e+000 8.752811e-001
         vertex 2.879593e+000 -1.949459e+000 1.057850e+000
         vertex 5.266413e+000 -1.080728e+000 1.057850e+000
      endloop
   endfacet
   facet normal -3.417388e-001 9.389195e-001 4.055567e-002
      outer loop
         vertex 5.266413e+000 -1.080728e+000 1.057850e+000
         vertex 2.879593e+000 -1.949459e+000 1.057850e+000
         vertex 2.884174e+000 -1.962043e+000 1.241264e+000
      endloop
   endfacet
   facet normal -3.401292e-001 9.344972e-001 1.050100e-001
      outer loop
         vertex 5.266413e+000 -1.080728e+000 1.057850e+000
         vertex 2.884174e+000 -1.962043e+000 1.241264e+000
         vertex 5.270993e+000 -1.093312e+000 1.241264e+000
      endloop
   endfacet
   facet normal -3.327036e-001 9.140957e-001 2.318131e-001
      outer loop
         vertex 5.270993e+000 -1.093312e+000 1.241264e+000
         vertex 2.884174e+000 -1.962043e+000 1.241264e+000
         vertex 2.900724e+000 -2.007514e+000 1.418686e+000
      endloop
   endfacet
   facet normal -3.268877e-001 8.981165e-001 2.941617e-001
      outer loop
         vertex 5.270993e+000 -1.093312e+000 1.241264e+000
         vertex 2.900724e+000 -2.007514e+000 1.418686e+000
         vertex 5.287543e+000 -1.138783e+000 1.418686e+000
      endloop
   endfacet
   facet normal -3.112662e-001 8.551970e-001 4.144292e-001
      outer loop
         vertex 5.287543e+000 -1.138783e+000 1.418686e+000
         vertex 2.900724e+000 -2.007514e+000 1.418686e+000
         vertex 2.928627e+000 -2.084177e+000 1.583502e+000
      endloop
   endfacet
   facet normal -3.014607e-001 8.282565e-001 4.723479e-001
      outer loop
         vertex 5.287543e+000 -1.138783e+000 1.418686e+000
         vertex 2.928627e+000 -2.084177e+000 1.583501e+000
         vertex 5.315446e+000 -1.215446e+000 1.583502e+000
      endloop
   endfacet
   facet normal -2.782257e-001 7.644188e-001 5.815964e-001
      outer loop
         vertex 5.315446e+000 -1.215446e+000 1.583501e+000
         vertex 2.928627e+000 -2.084177e+000 1.583501e+000
         vertex 2.966842e+000 -2.189173e+000 1.729568e+000
      endloop
   endfacet
   facet normal -2.647961e-001 7.275214e-001 6.329262e-001
      outer loop
         vertex 5.315446e+000 -1.215446e+000 1.583501e+000
         vertex 2.966842e+000 -2.189173e+000 1.729568e+000
         vertex 5.353662e+000 -1.320442e+000 1.729568e+000
      endloop
   endfacet
   facet normal -2.348137e-001 6.451452e-001 7.270833e-001
      outer loop
         vertex 5.353662e+000 -1.320442e+000 1.729568e+000
         vertex 2.966842e+000 -2.189173e+000 1.729568e+000
         vertex 3.013946e+000 -2.318590e+000 1.851439e+000
      endloop
   endfacet
   facet normal -2.182607e-001 5.996664e-001 7.699108e-001
      outer loop
         vertex 5.353662e+000 -1.320442e+000 1.729568e+000
         vertex 3.013946e+000 -2.318590e+000 1.851439e+000
         vertex 5.400765e+000 -1.449859e+000 1.851439e+000
      endloop
   endfacet
   facet normal -1.826484e-001 5.018224e-001 8.454667e-001
      outer loop
         vertex 5.400765e+000 -1.449859e+000 1.851439e+000
         vertex 3.013946e+000 -2.318590e+000 1.851439e+000
         vertex 3.068182e+000 -2.467602e+000 1.944573e+000
      endloop
   endfacet
   facet normal -1.635891e-001 4.494573e-001 8.781952e-001
      outer loop
         vertex 5.400765e+000 -1.449859e+000 1.851439e+000
         vertex 3.068182e+000 -2.467602e+000 1.944573e+000
         vertex 5.455001e+000 -1.598871e+000 1.944573e+000
      endloop
   endfacet
   facet normal -2.904425e-001 7.979842e-001 -5.280761e-001
      outer loop
         vertex 5.642067e+000 -2.112830e+000 1.714094e+000
         vertex 3.255248e+000 -2.981561e+000 1.714094e+000
         vertex 3.240313e+000 -2.940528e+000 1.773291e+000
      endloop
   endfacet
   facet normal -2.583068e-001 7.096921e-001 -6.554500e-001
      outer loop
         vertex 5.642067e+000 -2.112830e+000 1.714094e+000
         vertex 3.240313e+000 -2.940528e+000 1.773291e+000
         vertex 5.627132e+000 -2.071797e+000 1.773291e+000
      endloop
   endfacet
   facet normal -1.778481e-001 4.886336e-001 -8.541705e-001
      outer loop
         vertex 5.627132e+000 -2.071797e+000 1.773291e+000
         vertex 3.240313e+000 -2.940528e+000 1.773291e+000
         vertex 3.217855e+000 -2.878825e+000 1.806450e+000
      endloop
   endfacet
   facet normal -1.295251e-001 3.558672e-001 -9.255170e-001
      outer loop
         vertex 5.627132e+000 -2.071797e+000 1.773291e+000
         vertex 3.217855e+000 -2.878825e+000 1.806450e+000
         vertex 5.604674e+000 -2.010093e+000 1.806450e+000
      endloop
   endfacet
   facet normal -2.706736e-002 7.436695e-002 -9.968635e-001
      outer loop
         vertex 5.604674e+000 -2.010093e+000 1.806450e+000
         vertex 3.217855e+000 -2.878825e+000 1.806450e+000
         vertex 3.192696e+000 -2.809700e+000 1.806450e+000
      endloop
   endfacet
   facet normal 2.706736e-002 -7.436695e-002 -9.968635e-001
      outer loop
         vertex 5.604674e+000 -2.010093e+000 1.806450e+000
         vertex 3.192696e+000 -2.809700e+000 1.806450e+000
         vertex 5.579515e+000 -1.940970e+000 1.806450e+000
      endloop
   endfacet
   facet normal 1.295251e-001 -3.558672e-001 -9.255170e-001
      outer loop
         vertex 5.579515e+000 -1.940970e+000 1.806450e+000
         vertex 3.192696e+000 -2.809700e+000 1.806450e+000
         vertex 3.170238e+000 -2.747998e+000 1.773291e+000
      endloop
   endfacet
   facet normal 1.778481e-001 -4.886336e-001 -8.541705e-001
      outer loop
         vertex 5.579515e+000 -1.940970e+000 1.806450e+000
         vertex 3.170238e+000 -2.747998e+000 1.773291e+000
         vertex 5.557057e+000 -1.879267e+000 1.773291e+000
      endloop
   endfacet
   facet normal 2.583068e-001 -7.096921e-001 -6.554500e-001
      outer loop
         vertex 5.557057e+000 -1.879267e+000 1.773291e+000
         vertex 3.170238e+000 -2.747998e+000 1.773291e+000
         vertex 3.155303e+000 -2.706964e+000 1.714094e+000
      endloop
   endfacet
   facet normal 2.904425e-001 -7.979842e-001 -5.280761e-001
      outer loop
         vertex 5.557057e+000 -1.879267e+000 1.773291e+000
         vertex 3.155303e+000 -2.706964e+000 1.714094e+000
         vertex 5.542122e+000 -1.838233e+000 1.714094e+000
      endloop
   endfacet
   facet normal 1.813116e-001 -4.981494e-001 -8.479229e-001
      outer loop
         vertex 5.502144e+000 -1.728394e+000 1.587908e+000
         vertex 3.115324e+000 -2.597125e+000 1.587908e+000
         vertex 3.076340e+000 -2.490015e+000 1.510050e+000
      endloop
   endfacet
   facet normal 2.041986e-001 -5.610312e-001 -8.022138e-001
      outer loop
         vertex 5.502144e+000 -1.728394e+000 1.587908e+000
         vertex 3.076340e+000 -2.490015e+000 1.510050e+000
         vertex 5.463159e+000 -1.621284e+000 1.510050e+000
      endloop
   endfacet
   facet normal 2.455568e-001 -6.746618e-001 -6.960843e-001
      outer loop
         vertex 5.463159e+000 -1.621284e+000 1.510050e+000
         vertex 3.076340e+000 -2.490015e+000 1.510050e+000
         vertex 3.044877e+000 -2.403572e+000 1.407133e+000
      endloop
   endfacet
   facet normal 2.640279e-001 -7.254107e-001 -6.356639e-001
      outer loop
         vertex 5.463159e+000 -1.621284e+000 1.510050e+000
         vertex 3.044877e+000 -2.403572e+000 1.407133e+000
         vertex 5.431696e+000 -1.534841e+000 1.407133e+000
      endloop
   endfacet
   facet normal 2.954765e-001 -8.118151e-001 -5.036367e-001
      outer loop
         vertex 5.431696e+000 -1.534841e+000 1.407133e+000
         vertex 3.044877e+000 -2.403572e+000 1.407133e+000
         vertex 3.022772e+000 -2.342839e+000 1.285161e+000
      endloop
   endfacet
   facet normal 3.084540e-001 -8.474705e-001 -4.320300e-001
      outer loop
         vertex 5.431696e+000 -1.534841e+000 1.407133e+000
         vertex 3.022772e+000 -2.342839e+000 1.285161e+000
         vertex 5.409591e+000 -1.474107e+000 1.285161e+000
      endloop
   endfacet
   facet normal 3.281584e-001 -9.016078e-001 -2.818075e-001
      outer loop
         vertex 5.409591e+000 -1.474107e+000 1.285161e+000
         vertex 3.022772e+000 -2.342839e+000 1.285161e+000
         vertex 3.011314e+000 -2.311357e+000 1.151251e+000
      endloop
   endfacet
   facet normal 3.348852e-001 -9.200897e-001 -2.031918e-001
      outer loop
         vertex 5.409591e+000 -1.474107e+000 1.285161e+000
         vertex 3.011314e+000 -2.311357e+000 1.151251e+000
         vertex 5.398133e+000 -1.442626e+000 1.151251e+000
      endloop
   endfacet
   facet normal 3.416958e-001 -9.388016e-001 -4.353788e-002
      outer loop
         vertex 5.398133e+000 -1.442626e+000 1.151251e+000
         vertex 3.011314e+000 -2.311357e+000 1.151251e+000
         vertex 3.011171e+000 -2.310965e+000 1.013215e+000
      endloop
   endfacet
   facet normal 3.417796e-001 -9.390317e-001 3.750036e-002
      outer loop
         vertex 5.398133e+000 -1.442626e+000 1.151251e+000
         vertex 3.011171e+000 -2.310965e+000 1.013215e+000
         vertex 5.397990e+000 -1.442234e+000 1.013215e+000
      endloop
   endfacet
   facet normal 3.352990e-001 -9.212266e-001 1.972717e-001
      outer loop
         vertex 5.397990e+000 -1.442234e+000 1.013215e+000
         vertex 3.011171e+000 -2.310965e+000 1.013215e+000
         vertex 3.022352e+000 -2.341686e+000 8.791047e-001
      endloop
   endfacet
   facet normal 3.287348e-001 -9.031914e-001 2.760048e-001
      outer loop
         vertex 5.397990e+000 -1.442234e+000 1.013215e+000
         vertex 3.022352e+000 -2.341686e+000 8.791047e-001
         vertex 5.409172e+000 -1.472955e+000 8.791047e-001
      endloop
   endfacet
   facet normal 3.093413e-001 -8.499081e-001 4.265726e-001
      outer loop
         vertex 5.409172e+000 -1.472955e+000 8.791047e-001
         vertex 3.022352e+000 -2.341686e+000 8.791047e-001
         vertex 3.044205e+000 -2.401726e+000 7.567450e-001
      endloop
   endfacet
   facet normal 2.965120e-001 -8.146600e-001 4.984073e-001
      outer loop
         vertex 5.409172e+000 -1.472955e+000 8.791047e-001
         vertex 3.044205e+000 -2.401726e+000 7.567450e-001
         vertex 5.431025e+000 -1.532995e+000 7.567450e-001
      endloop
   endfacet
   facet normal 2.653368e-001 -7.290068e-001 6.309877e-001
      outer loop
         vertex 5.431025e+000 -1.532995e+000 7.567450e-001
         vertex 3.044205e+000 -2.401726e+000 7.567450e-001
         vertex 3.075454e+000 -2.487583e+000 6.532740e-001
      endloop
   endfacet
   facet normal 2.469909e-001 -6.786019e-001 6.917333e-001
      outer loop
         vertex 5.431025e+000 -1.532995e+000 7.567450e-001
         vertex 3.075454e+000 -2.487583e+000 6.532740e-001
         vertex 5.462274e+000 -1.618852e+000 6.532740e-001
      endloop
   endfacet
   facet normal 2.058528e-001 -5.655760e-001 7.985916e-001
      outer loop
         vertex 5.462274e+000 -1.618852e+000 6.532740e-001
         vertex 3.075454e+000 -2.487583e+000 6.532740e-001
         vertex 3.114278e+000 -2.594248e+000 5.747280e-001
      endloop
   endfacet
   facet normal 1.830606e-001 -5.029548e-001 8.447042e-001
      outer loop
         vertex 5.462274e+000 -1.618852e+000 6.532740e-001
         vertex 3.114278e+000 -2.594248e+000 5.747280e-001
         vertex 5.501097e+000 -1.725517e+000 5.747280e-001
      endloop
   endfacet
   facet normal 1.343596e-001 -3.691499e-001 9.196063e-001
      outer loop
         vertex 5.501097e+000 -1.725517e+000 5.747280e-001
         vertex 3.114278e+000 -2.594248e+000 5.747280e-001
         vertex 3.158410e+000 -2.715499e+000 5.256894e-001
      endloop
   endfacet
   facet normal 1.084507e-001 -2.979660e-001 9.483958e-001
      outer loop
         vertex 5.501097e+000 -1.725517e+000 5.747280e-001
         vertex 3.158410e+000 -2.715499e+000 5.256894e-001
         vertex 5.545229e+000 -1.846768e+000 5.256894e-001
      endloop
   endfacet
   facet normal 5.502794e-002 -1.511880e-001 9.869722e-001
      outer loop
         vertex 5.545229e+000 -1.846768e+000 5.256894e-001
         vertex 3.158410e+000 -2.715499e+000 5.256894e-001
         vertex 3.205275e+000 -2.844263e+000 5.090190e-001
      endloop
   endfacet
   facet normal 2.751397e-002 -7.559402e-002 9.967590e-001
      outer loop
         vertex 5.545229e+000 -1.846768e+000 5.256894e-001
         vertex 3.205275e+000 -2.844263e+000 5.090190e-001
         vertex 5.592095e+000 -1.975531e+000 5.090190e-001
      endloop
   endfacet
   facet normal -2.751397e-002 7.559402e-002 9.967590e-001
      outer loop
         vertex 5.592095e+000 -1.975531e+000 5.090190e-001
         vertex 3.205275e+000 -2.844263e+000 5.090190e-001
         vertex 3.252141e+000 -2.973026e+000 5.256894e-001
      endloop
   endfacet
   facet normal -5.502794e-002 1.511880e-001 9.869722e-001
      outer loop
         vertex 5.592095e+000 -1.975531e+000 5.090190e-001
         vertex 3.252141e+000 -2.973026e+000 5.256894e-001
         vertex 5.638960e+000 -2.104295e+000 5.256894e-001
      endloop
   endfacet
   facet normal -1.084507e-001 2.979660e-001 9.483958e-001
      outer loop
         vertex 5.638960e+000 -2.104295e+000 5.256894e-001
         vertex 3.252141e+000 -2.973026e+000 5.256894e-001
         vertex 3.296273e+000 -3.094277e+000 5.747280e-001
      endloop
   endfacet
   facet normal -1.343596e-001 3.691499e-001 9.196063e-001
      outer loop
         vertex 5.638960e+000 -2.104295e+000 5.256894e-001
         vertex 3.296273e+000 -3.094277e+000 5.747280e-001
         vertex 5.683093e+000 -2.225546e+000 5.747280e-001
      endloop
   endfacet
   facet normal -1.830606e-001 5.029548e-001 8.447042e-001
      outer loop
         vertex 5.683093e+000 -2.225546e+000 5.747280e-001
         vertex 3.296273e+000 -3.094277e+000 5.747280e-001
         vertex 3.335096e+000 -3.200942e+000 6.532740e-001
      endloop
   endfacet
   facet normal -2.058528e-001 5.655760e-001 7.985916e-001
      outer loop
         vertex 5.683093e+000 -2.225546e+000 5.747280e-001
         vertex 3.335096e+000 -3.200942e+000 6.532740e-001
         vertex 5.721916e+000 -2.332211e+000 6.532740e-001
      endloop
   endfacet
   facet normal -2.469909e-001 6.786019e-001 6.917333e-001
      outer loop
         vertex 5.721916e+000 -2.332211e+000 6.532740e-001
         vertex 3.335096e+000 -3.200942e+000 6.532740e-001
         vertex 3.366346e+000 -3.286800e+000 7.567450e-001
      endloop
   endfacet
   facet normal -2.653368e-001 7.290068e-001 6.309877e-001
      outer loop
         vertex 5.721916e+000 -2.332211e+000 6.532740e-001
         vertex 3.366346e+000 -3.286800e+000 7.567450e-001
         vertex 5.753165e+000 -2.418068e+000 7.567450e-001
      endloop
   endfacet
   facet normal -2.965120e-001 8.146600e-001 4.984073e-001
      outer loop
         vertex 5.753165e+000 -2.418068e+000 7.567450e-001
         vertex 3.366346e+000 -3.286800e+000 7.567450e-001
         vertex 3.388198e+000 -3.346839e+000 8.791047e-001
      endloop
   endfacet
   facet normal -3.093413e-001 8.499081e-001 4.265726e-001
      outer loop
         vertex 5.753165e+000 -2.418068e+000 7.567450e-001
         vertex 3.388198e+000 -3.346839e+000 8.791047e-001
         vertex 5.775018e+000 -2.478109e+000 8.791047e-001
      endloop
   endfacet
   facet normal -3.287348e-001 9.031914e-001 2.760048e-001
      outer loop
         vertex 5.775018e+000 -2.478109e+000 8.791047e-001
         vertex 3.388198e+000 -3.346839e+000 8.791047e-001
         vertex 3.399379e+000 -3.377560e+000 1.013215e+000
      endloop
   endfacet
   facet normal -3.352990e-001 9.212266e-001 1.972717e-001
      outer loop
         vertex 5.775018e+000 -2.478109e+000 8.791047e-001
         vertex 3.399379e+000 -3.377560e+000 1.013215e+000
         vertex 5.786199e+000 -2.508829e+000 1.013215e+000
      endloop
   endfacet
   facet normal -3.417796e-001 9.390317e-001 3.750036e-002
      outer loop
         vertex 5.786199e+000 -2.508829e+000 1.013215e+000
         vertex 3.399379e+000 -3.377560e+000 1.013215e+000
         vertex 3.399237e+000 -3.377168e+000 1.151251e+000
      endloop
   endfacet
   facet normal -3.416958e-001 9.388016e-001 -4.353788e-002
      outer loop
         vertex 5.786199e+000 -2.508829e+000 1.013215e+000
         vertex 3.399237e+000 -3.377168e+000 1.151251e+000
         vertex 5.786056e+000 -2.508437e+000 1.151251e+000
      endloop
   endfacet
   facet normal -3.348852e-001 9.200897e-001 -2.031918e-001
      outer loop
         vertex 5.786056e+000 -2.508437e+000 1.151251e+000
         vertex 3.399237e+000 -3.377168e+000 1.151251e+000
         vertex 3.387779e+000 -3.345687e+000 1.285161e+000
      endloop
   endfacet
   facet normal -3.281584e-001 9.016078e-001 -2.818075e-001
      outer loop
         vertex 5.786056e+000 -2.508437e+000 1.151251e+000
         vertex 3.387779e+000 -3.345687e+000 1.285161e+000
         vertex 5.774598e+000 -2.476956e+000 1.285161e+000
      endloop
   endfacet
   facet normal -3.084540e-001 8.474705e-001 -4.320300e-001
      outer loop
         vertex 5.774598e+000 -2.476956e+000 1.285161e+000
         vertex 3.387779e+000 -3.345687e+000 1.285161e+000
         vertex 3.365674e+000 -3.284953e+000 1.407133e+000
      endloop
   endfacet
   facet normal -2.954765e-001 8.118151e-001 -5.036367e-001
      outer loop
         vertex 5.774598e+000 -2.476956e+000 1.285161e+000
         vertex 3.365674e+000 -3.284953e+000 1.407133e+000
         vertex 5.752493e+000 -2.416222e+000 1.407133e+000
      endloop
   endfacet
   facet normal -2.640279e-001 7.254107e-001 -6.356639e-001
      outer loop
         vertex 5.752493e+000 -2.416222e+000 1.407133e+000
         vertex 3.365674e+000 -3.284953e+000 1.407133e+000
         vertex 3.334211e+000 -3.198510e+000 1.510050e+000
      endloop
   endfacet
   facet normal -2.455568e-001 6.746618e-001 -6.960843e-001
      outer loop
         vertex 5.752493e+000 -2.416222e+000 1.407133e+000
         vertex 3.334211e+000 -3.198510e+000 1.510050e+000
         vertex 5.721030e+000 -2.329779e+000 1.510050e+000
      endloop
   endfacet
   facet normal -2.041986e-001 5.610312e-001 -8.022138e-001
      outer loop
         vertex 5.721030e+000 -2.329779e+000 1.510050e+000
         vertex 3.334211e+000 -3.198510e+000 1.510050e+000
         vertex 3.295226e+000 -3.091400e+000 1.587908e+000
      endloop
   endfacet
   facet normal -1.813116e-001 4.981494e-001 -8.479229e-001
      outer loop
         vertex 5.721030e+000 -2.329779e+000 1.510050e+000
         vertex 3.295226e+000 -3.091400e+000 1.587908e+000
         vertex 5.682045e+000 -2.222669e+000 1.587908e+000
      endloop
   endfacet
   facet normal -2.569655e-001 7.060069e-001 6.599417e-001
      outer loop
         vertex 3.118034e+000 -2.604570e+000 2.063326e+000
         vertex 5.504853e+000 -1.735839e+000 2.063326e+000
         vertex 5.482472e+000 -1.674346e+000 1.994817e+000
      endloop
   endfacet
   facet normal -2.372483e-001 6.518343e-001 7.202953e-001
      outer loop
         vertex 3.118034e+000 -2.604570e+000 2.063326e+000
         vertex 5.482472e+000 -1.674346e+000 1.994817e+000
         vertex 3.095653e+000 -2.543077e+000 1.994817e+000
      endloop
   endfacet
   facet normal -1.933304e-001 5.311709e-001 8.249126e-001
      outer loop
         vertex 3.095653e+000 -2.543077e+000 1.994817e+000
         vertex 5.482472e+000 -1.674346e+000 1.994817e+000
         vertex 5.455001e+000 -1.598871e+000 1.944573e+000
      endloop
   endfacet
   facet normal -1.691297e-001 4.646800e-001 8.691764e-001
      outer loop
         vertex 3.095653e+000 -2.543077e+000 1.994817e+000
         vertex 5.455001e+000 -1.598871e+000 1.944573e+000
         vertex 3.068182e+000 -2.467602e+000 1.944573e+000
      endloop
   endfacet
   facet normal 1.691297e-001 -4.646800e-001 8.691764e-001
      outer loop
         vertex 3.342368e+000 -3.220923e+000 1.944573e+000
         vertex 5.729187e+000 -2.352192e+000 1.944573e+000
         vertex 5.701717e+000 -2.276717e+000 1.994817e+000
      endloop
   endfacet
   facet normal 1.933304e-001 -5.311709e-001 8.249126e-001
      outer loop
         vertex 3.342368e+000 -3.220923e+000 1.944573e+000
         vertex 5.701717e+000 -2.276717e+000 1.994817e+000
         vertex 3.314898e+000 -3.145448e+000 1.994817e+000
      endloop
   endfacet
   facet normal 2.372483e-001 -6.518343e-001 7.202953e-001
      outer loop
         vertex 3.314898e+000 -3.145448e+000 1.994817e+000
         vertex 5.701717e+000 -2.276717e+000 1.994817e+000
         vertex 5.679336e+000 -2.215225e+000 2.063326e+000
      endloop
   endfacet
   facet normal 2.569655e-001 -7.060069e-001 6.599417e-001
      outer loop
         vertex 3.314898e+000 -3.145448e+000 1.994817e+000
         vertex 5.679336e+000 -2.215225e+000 2.063326e+000
         vertex 3.292517e+000 -3.083956e+000 2.063326e+000
      endloop
   endfacet
   facet normal 2.974263e-001 -8.171719e-001 -4.937284e-001
      outer loop
         vertex 5.542122e+000 -1.838233e+000 1.714094e+000
         vertex 3.155303e+000 -2.706964e+000 1.714094e+000
         vertex 3.139078e+000 -2.662387e+000 1.640806e+000
      endloop
   endfacet
   facet normal 2.758490e-001 -7.578888e-001 -5.911953e-001
      outer loop
         vertex 5.542122e+000 -1.838233e+000 1.714094e+000
         vertex 3.139078e+000 -2.662387e+000 1.640806e+000
         vertex 5.525898e+000 -1.793656e+000 1.640806e+000
      endloop
   endfacet
   facet normal 2.226817e-001 -6.118129e-001 -7.590110e-001
      outer loop
         vertex 5.525898e+000 -1.793656e+000 1.640806e+000
         vertex 3.139078e+000 -2.662387e+000 1.640806e+000
         vertex 3.115324e+000 -2.597125e+000 1.587908e+000
      endloop
   endfacet
   facet normal 1.910917e-001 -5.250202e-001 -8.293598e-001
      outer loop
         vertex 5.525898e+000 -1.793656e+000 1.640806e+000
         vertex 3.115324e+000 -2.597125e+000 1.587908e+000
         vertex 5.502144e+000 -1.728394e+000 1.587908e+000
      endloop
   endfacet
   facet normal -1.910917e-001 5.250202e-001 -8.293598e-001
      outer loop
         vertex 5.682045e+000 -2.222669e+000 1.587908e+000
         vertex 3.295226e+000 -3.091400e+000 1.587908e+000
         vertex 3.271472e+000 -3.026138e+000 1.640806e+000
      endloop
   endfacet
   facet normal -2.226817e-001 6.118129e-001 -7.590110e-001
      outer loop
         vertex 5.682045e+000 -2.222669e+000 1.587908e+000
         vertex 3.271472e+000 -3.026138e+000 1.640806e+000
         vertex 5.658292e+000 -2.157407e+000 1.640806e+000
      endloop
   endfacet
   facet normal -2.758490e-001 7.578888e-001 -5.911953e-001
      outer loop
         vertex 5.658292e+000 -2.157407e+000 1.640806e+000
         vertex 3.271472e+000 -3.026138e+000 1.640806e+000
         vertex 3.255248e+000 -2.981561e+000 1.714094e+000
      endloop
   endfacet
   facet normal -2.974263e-001 8.171719e-001 -4.937284e-001
      outer loop
         vertex 5.658292e+000 -2.157407e+000 1.640806e+000
         vertex 3.255248e+000 -2.981561e+000 1.714094e+000
         vertex 5.642067e+000 -2.112830e+000 1.714094e+000
      endloop
   endfacet
endsolid