solid handSpring - SW3dPS-Hand 2_Finger Assm-5 SW3dPS-Hand 2_Finger Bone-3
   facet normal 9.557656e-017 1.000000e+000 -1.429387e-016
      outer loop
         vertex -6.199341e-001 8.000999e+000 2.172980e+000
         vertex -6.803089e-001 8.000999e+000 1.802891e+000
         vertex -7.170890e-001 8.000999e+000 2.188210e+000
      endloop
   endfacet
   facet normal 9.557656e-017 1.000000e+000 -1.429387e-016
      outer loop
         vertex -7.170890e-001 8.000999e+000 2.188210e+000
         vertex -6.803089e-001 8.000999e+000 1.802891e+000
         vertex -7.538691e-001 8.000999e+000 1.802891e+000
      endloop
   endfacet
   facet normal 9.557656e-017 1.000000e+000 -1.429387e-016
      outer loop
         vertex -7.170890e-001 8.000999e+000 2.188210e+000
         vertex -7.538691e-001 8.000999e+000 1.802891e+000
         vertex -8.142439e-001 8.000999e+000 2.172980e+000
      endloop
   endfacet
   facet normal 9.557656e-017 1.000000e+000 -1.429387e-016
      outer loop
         vertex -1.251920e+000 8.000999e+000 8.755457e-001
         vertex -1.647215e+000 8.000999e+000 8.717221e-001
         vertex -1.284612e+000 8.000999e+000 1.009656e+000
      endloop
   endfacet
   facet normal 9.557656e-017 1.000000e+000 -1.429387e-016
      outer loop
         vertex -1.284612e+000 8.000999e+000 1.009656e+000
         vertex -1.647215e+000 8.000999e+000 8.717221e-001
         vertex -1.669319e+000 8.000999e+000 1.054291e+000
      endloop
   endfacet
   facet normal 9.557656e-017 1.000000e+000 -1.429387e-016
      outer loop
         vertex -1.284612e+000 8.000999e+000 1.009656e+000
         vertex -1.669319e+000 8.000999e+000 1.054291e+000
         vertex -1.284195e+000 8.000999e+000 1.147692e+000
      endloop
   endfacet
   facet normal 9.557656e-017 1.000000e+000 -1.429387e-016
      outer loop
         vertex -1.284195e+000 8.000999e+000 1.147692e+000
         vertex -1.669319e+000 8.000999e+000 1.054291e+000
         vertex -1.655927e+000 8.000999e+000 1.237705e+000
      endloop
   endfacet
   facet normal 9.557656e-017 1.000000e+000 -1.429387e-016
      outer loop
         vertex -1.284195e+000 8.000999e+000 1.147692e+000
         vertex -1.655927e+000 8.000999e+000 1.237705e+000
         vertex -1.250693e+000 8.000999e+000 1.281602e+000
      endloop
   endfacet
   facet normal 9.557656e-017 1.000000e+000 -1.429387e-016
      outer loop
         vertex -1.250693e+000 8.000999e+000 1.281602e+000
         vertex -1.655927e+000 8.000999e+000 1.237705e+000
         vertex -1.607538e+000 8.000999e+000 1.415127e+000
      endloop
   endfacet
   facet normal 9.557656e-017 1.000000e+000 -1.429387e-016
      outer loop
         vertex -1.250693e+000 8.000999e+000 1.281602e+000
         vertex -1.607538e+000 8.000999e+000 1.415127e+000
         vertex -1.186062e+000 8.000999e+000 1.403574e+000
      endloop
   endfacet
   facet normal 9.557656e-017 1.000000e+000 -1.429387e-016
      outer loop
         vertex -9.020781e-001 8.000999e+000 2.128751e+000
         vertex -8.142439e-001 8.000999e+000 2.172980e+000
         vertex -9.721650e-001 8.000999e+000 2.059767e+000
      endloop
   endfacet
   facet normal 9.557656e-017 1.000000e+000 -1.429387e-016
      outer loop
         vertex -9.721650e-001 8.000999e+000 2.059767e+000
         vertex -8.142439e-001 8.000999e+000 2.172980e+000
         vertex -7.538691e-001 8.000999e+000 1.802891e+000
      endloop
   endfacet
   facet normal 9.557656e-017 1.000000e+000 -1.429387e-016
      outer loop
         vertex -9.721650e-001 8.000999e+000 2.059767e+000
         vertex -7.538691e-001 8.000999e+000 1.802891e+000
         vertex -1.037604e+000 8.000999e+000 1.991258e+000
      endloop
   endfacet
   facet normal 9.557656e-017 1.000000e+000 -1.429387e-016
      outer loop
         vertex -1.037604e+000 8.000999e+000 1.991258e+000
         vertex -7.538691e-001 8.000999e+000 1.802891e+000
         vertex -8.195321e-001 8.000999e+000 1.769732e+000
      endloop
   endfacet
   facet normal 9.557656e-017 1.000000e+000 -1.429387e-016
      outer loop
         vertex -1.037604e+000 8.000999e+000 1.991258e+000
         vertex -8.195321e-001 8.000999e+000 1.769732e+000
         vertex -1.117923e+000 8.000999e+000 1.941014e+000
      endloop
   endfacet
   facet normal 9.557656e-017 1.000000e+000 -1.429387e-016
      outer loop
         vertex -1.117923e+000 8.000999e+000 1.941014e+000
         vertex -8.195321e-001 8.000999e+000 1.769732e+000
         vertex -8.631993e-001 8.000999e+000 1.710535e+000
      endloop
   endfacet
   facet normal 9.557656e-017 1.000000e+000 -1.429387e-016
      outer loop
         vertex -1.607538e+000 8.000999e+000 1.415127e+000
         vertex -1.525955e+000 8.000999e+000 1.579943e+000
         vertex -1.186062e+000 8.000999e+000 1.403574e+000
      endloop
   endfacet
   facet normal 9.557656e-017 1.000000e+000 -1.429387e-016
      outer loop
         vertex -1.186062e+000 8.000999e+000 1.403574e+000
         vertex -1.525955e+000 8.000999e+000 1.579943e+000
         vertex -1.414220e+000 8.000999e+000 1.726009e+000
      endloop
   endfacet
   facet normal 9.557656e-017 1.000000e+000 -1.429387e-016
      outer loop
         vertex -1.186062e+000 8.000999e+000 1.403574e+000
         vertex -1.414220e+000 8.000999e+000 1.726009e+000
         vertex -1.094071e+000 8.000999e+000 1.506491e+000
      endloop
   endfacet
   facet normal 9.557656e-017 1.000000e+000 -1.429387e-016
      outer loop
         vertex -1.094071e+000 8.000999e+000 1.506491e+000
         vertex -1.414220e+000 8.000999e+000 1.726009e+000
         vertex -1.276498e+000 8.000999e+000 1.847880e+000
      endloop
   endfacet
   facet normal 9.557656e-017 1.000000e+000 -1.429387e-016
      outer loop
         vertex -1.094071e+000 8.000999e+000 1.506491e+000
         vertex -1.276498e+000 8.000999e+000 1.847880e+000
         vertex -9.800876e-001 8.000999e+000 1.584349e+000
      endloop
   endfacet
   facet normal 9.557656e-017 1.000000e+000 -1.429387e-016
      outer loop
         vertex -9.800876e-001 8.000999e+000 1.584349e+000
         vertex -1.276498e+000 8.000999e+000 1.847880e+000
         vertex -1.117923e+000 8.000999e+000 1.941014e+000
      endloop
   endfacet
   facet normal 9.557656e-017 1.000000e+000 -1.429387e-016
      outer loop
         vertex -9.800876e-001 8.000999e+000 1.584349e+000
         vertex -1.117923e+000 8.000999e+000 1.941014e+000
         vertex -9.106370e-001 8.000999e+000 1.637247e+000
      endloop
   endfacet
   facet normal 9.557656e-017 1.000000e+000 -1.429387e-016
      outer loop
         vertex -9.106370e-001 8.000999e+000 1.637247e+000
         vertex -1.117923e+000 8.000999e+000 1.941014e+000
         vertex -8.631993e-001 8.000999e+000 1.710535e+000
      endloop
   endfacet
   facet normal 9.557656e-017 1.000000e+000 -1.429387e-016
      outer loop
         vertex -8.541158e-001 8.000999e+000 5.221304e-001
         vertex -1.076352e+000 8.000999e+000 1.948114e-001
         vertex -9.831486e-001 8.000999e+000 5.711690e-001
      endloop
   endfacet
   facet normal 9.557656e-017 1.000000e+000 -1.429387e-016
      outer loop
         vertex -9.831486e-001 8.000999e+000 5.711690e-001
         vertex -1.076352e+000 8.000999e+000 1.948114e-001
         vertex -1.239180e+000 8.000999e+000 2.802935e-001
      endloop
   endfacet
   facet normal 9.557656e-017 1.000000e+000 -1.429387e-016
      outer loop
         vertex -9.831486e-001 8.000999e+000 5.711690e-001
         vertex -1.239180e+000 8.000999e+000 2.802936e-001
         vertex -1.096660e+000 8.000999e+000 6.497150e-001
      endloop
   endfacet
   facet normal 9.557656e-017 1.000000e+000 -1.429387e-016
      outer loop
         vertex -1.096660e+000 8.000999e+000 6.497150e-001
         vertex -1.239180e+000 8.000999e+000 2.802936e-001
         vertex -1.382545e+000 8.000999e+000 3.954732e-001
      endloop
   endfacet
   facet normal 9.557656e-017 1.000000e+000 -1.429387e-016
      outer loop
         vertex -1.096660e+000 8.000999e+000 6.497150e-001
         vertex -1.382545e+000 8.000999e+000 3.954732e-001
         vertex -1.188027e+000 8.000999e+000 7.531860e-001
      endloop
   endfacet
   facet normal 9.557656e-017 1.000000e+000 -1.429387e-016
      outer loop
         vertex -1.188027e+000 8.000999e+000 7.531860e-001
         vertex -1.382545e+000 8.000999e+000 3.954732e-001
         vertex -1.501104e+000 8.000999e+000 5.360568e-001
      endloop
   endfacet
   facet normal 9.557656e-017 1.000000e+000 -1.429387e-016
      outer loop
         vertex -1.188027e+000 8.000999e+000 7.531860e-001
         vertex -1.501104e+000 8.000999e+000 5.360568e-001
         vertex -1.251920e+000 8.000999e+000 8.755458e-001
      endloop
   endfacet
   facet normal 9.557656e-017 1.000000e+000 -1.429387e-016
      outer loop
         vertex -1.251920e+000 8.000999e+000 8.755457e-001
         vertex -1.501104e+000 8.000999e+000 5.360568e-001
         vertex -1.590437e+000 8.000999e+000 6.968039e-001
      endloop
   endfacet
   facet normal 9.557656e-017 1.000000e+000 -1.429387e-016
      outer loop
         vertex -1.251920e+000 8.000999e+000 8.755457e-001
         vertex -1.590437e+000 8.000999e+000 6.968039e-001
         vertex -1.647215e+000 8.000999e+000 8.717221e-001
      endloop
   endfacet
   facet normal 9.557656e-017 1.000000e+000 -1.429387e-016
      outer loop
         vertex -4.510294e-001 8.000999e+000 5.711690e-001
         vertex -3.578258e-001 8.000999e+000 1.948113e-001
         vertex -5.800622e-001 8.000999e+000 5.221304e-001
      endloop
   endfacet
   facet normal 9.557656e-017 1.000000e+000 -1.429387e-016
      outer loop
         vertex -5.800622e-001 8.000999e+000 5.221304e-001
         vertex -3.578258e-001 8.000999e+000 1.948113e-001
         vertex -5.340458e-001 8.000999e+000 1.422133e-001
      endloop
   endfacet
   facet normal 9.557656e-017 1.000000e+000 -1.429387e-016
      outer loop
         vertex -5.800622e-001 8.000999e+000 5.221304e-001
         vertex -5.340458e-001 8.000999e+000 1.422133e-001
         vertex -7.170890e-001 8.000999e+000 5.054600e-001
      endloop
   endfacet
   facet normal 9.557656e-017 1.000000e+000 -1.429387e-016
      outer loop
         vertex -7.170890e-001 8.000999e+000 5.054600e-001
         vertex -5.340458e-001 8.000999e+000 1.422133e-001
         vertex -7.170890e-001 8.000999e+000 1.244600e-001
      endloop
   endfacet
   facet normal 9.557656e-017 1.000000e+000 -1.429387e-016
      outer loop
         vertex -7.170890e-001 8.000999e+000 5.054600e-001
         vertex -7.170890e-001 8.000999e+000 1.244600e-001
         vertex -8.541158e-001 8.000999e+000 5.221304e-001
      endloop
   endfacet
   facet normal 9.557656e-017 1.000000e+000 -1.429387e-016
      outer loop
         vertex -8.541158e-001 8.000999e+000 5.221304e-001
         vertex -7.170890e-001 8.000999e+000 1.244600e-001
         vertex -9.001323e-001 8.000999e+000 1.422133e-001
      endloop
   endfacet
   facet normal 9.557656e-017 1.000000e+000 -1.429387e-016
      outer loop
         vertex -8.541158e-001 8.000999e+000 5.221304e-001
         vertex -9.001323e-001 8.000999e+000 1.422133e-001
         vertex -1.076352e+000 8.000999e+000 1.948114e-001
      endloop
   endfacet
   facet normal 9.557656e-017 1.000000e+000 -1.429387e-016
      outer loop
         vertex -6.199341e-001 8.000999e+000 2.172980e+000
         vertex -5.320999e-001 8.000999e+000 2.128751e+000
         vertex -6.803089e-001 8.000999e+000 1.802891e+000
      endloop
   endfacet
   facet normal 9.557656e-017 1.000000e+000 -1.429387e-016
      outer loop
         vertex -6.803089e-001 8.000999e+000 1.802891e+000
         vertex -5.320999e-001 8.000999e+000 2.128751e+000
         vertex -4.620130e-001 8.000999e+000 2.059767e+000
      endloop
   endfacet
   facet normal 9.557656e-017 1.000000e+000 -1.429387e-016
      outer loop
         vertex -6.803089e-001 8.000999e+000 1.802891e+000
         vertex -4.620130e-001 8.000999e+000 2.059767e+000
         vertex -6.146458e-001 8.000999e+000 1.769732e+000
      endloop
   endfacet
   facet normal 9.557656e-017 1.000000e+000 -1.429387e-016
      outer loop
         vertex -6.146458e-001 8.000999e+000 1.769732e+000
         vertex -4.620130e-001 8.000999e+000 2.059767e+000
         vertex -3.965742e-001 8.000999e+000 1.991258e+000
      endloop
   endfacet
   facet normal 9.557656e-017 1.000000e+000 -1.429387e-016
      outer loop
         vertex -6.146458e-001 8.000999e+000 1.769732e+000
         vertex -3.965742e-001 8.000999e+000 1.991258e+000
         vertex -5.709787e-001 8.000999e+000 1.710535e+000
      endloop
   endfacet
   facet normal 9.557656e-017 1.000000e+000 -1.429387e-016
      outer loop
         vertex -5.709787e-001 8.000999e+000 1.710535e+000
         vertex -3.965742e-001 8.000999e+000 1.991258e+000
         vertex -3.162552e-001 8.000999e+000 1.941014e+000
      endloop
   endfacet
   facet normal 9.557656e-017 1.000000e+000 -1.429387e-016
      outer loop
         vertex -5.709787e-001 8.000999e+000 1.710535e+000
         vertex -3.162552e-001 8.000999e+000 1.941014e+000
         vertex -5.235410e-001 8.000999e+000 1.637247e+000
      endloop
   endfacet
   facet normal 9.557656e-017 1.000000e+000 -1.429387e-016
      outer loop
         vertex -5.235410e-001 8.000999e+000 1.637247e+000
         vertex -3.162552e-001 8.000999e+000 1.941014e+000
         vertex -1.576798e-001 8.000999e+000 1.847880e+000
      endloop
   endfacet
   facet normal 9.557656e-017 1.000000e+000 -1.429387e-016
      outer loop
         vertex -5.235410e-001 8.000999e+000 1.637247e+000
         vertex -1.576798e-001 8.000999e+000 1.847880e+000
         vertex -4.540904e-001 8.000999e+000 1.584349e+000
      endloop
   endfacet
   facet normal 9.557656e-017 1.000000e+000 -1.429387e-016
      outer loop
         vertex -1.495660e-001 8.000999e+000 1.009656e+000
         vertex 2.130366e-001 8.000999e+000 8.717220e-001
         vertex -1.822577e-001 8.000999e+000 8.755458e-001
      endloop
   endfacet
   facet normal 9.557656e-017 1.000000e+000 -1.429387e-016
      outer loop
         vertex -1.822577e-001 8.000999e+000 8.755457e-001
         vertex 2.130366e-001 8.000999e+000 8.717220e-001
         vertex 1.562595e-001 8.000999e+000 6.968038e-001
      endloop
   endfacet
   facet normal 9.557656e-017 1.000000e+000 -1.429387e-016
      outer loop
         vertex -1.822577e-001 8.000999e+000 8.755457e-001
         vertex 1.562595e-001 8.000999e+000 6.968038e-001
         vertex -2.461509e-001 8.000999e+000 7.531860e-001
      endloop
   endfacet
   facet normal 9.557656e-017 1.000000e+000 -1.429387e-016
      outer loop
         vertex -2.461509e-001 8.000999e+000 7.531860e-001
         vertex 1.562595e-001 8.000999e+000 6.968038e-001
         vertex 6.692627e-002 8.000999e+000 5.360568e-001
      endloop
   endfacet
   facet normal 9.557656e-017 1.000000e+000 -1.429387e-016
      outer loop
         vertex -2.461509e-001 8.000999e+000 7.531860e-001
         vertex 6.692627e-002 8.000999e+000 5.360568e-001
         vertex -3.375183e-001 8.000999e+000 6.497150e-001
      endloop
   endfacet
   facet normal 9.557656e-017 1.000000e+000 -1.429387e-016
      outer loop
         vertex -3.375183e-001 8.000999e+000 6.497150e-001
         vertex 6.692627e-002 8.000999e+000 5.360568e-001
         vertex -5.163277e-002 8.000999e+000 3.954732e-001
      endloop
   endfacet
   facet normal 9.557656e-017 1.000000e+000 -1.429387e-016
      outer loop
         vertex -3.375183e-001 8.000999e+000 6.497150e-001
         vertex -5.163277e-002 8.000999e+000 3.954732e-001
         vertex -4.510294e-001 8.000999e+000 5.711690e-001
      endloop
   endfacet
   facet normal 9.557656e-017 1.000000e+000 -1.429387e-016
      outer loop
         vertex -4.510294e-001 8.000999e+000 5.711690e-001
         vertex -5.163277e-002 8.000999e+000 3.954732e-001
         vertex -1.949982e-001 8.000999e+000 2.802935e-001
      endloop
   endfacet
   facet normal 9.557656e-017 1.000000e+000 -1.429387e-016
      outer loop
         vertex -4.510294e-001 8.000999e+000 5.711690e-001
         vertex -1.949982e-001 8.000999e+000 2.802935e-001
         vertex -3.578258e-001 8.000999e+000 1.948113e-001
      endloop
   endfacet
   facet normal 9.557656e-017 1.000000e+000 -1.429387e-016
      outer loop
         vertex -4.540904e-001 8.000999e+000 1.584349e+000
         vertex -1.576798e-001 8.000999e+000 1.847880e+000
         vertex -3.401068e-001 8.000999e+000 1.506491e+000
      endloop
   endfacet
   facet normal 9.557656e-017 1.000000e+000 -1.429387e-016
      outer loop
         vertex -3.401068e-001 8.000999e+000 1.506491e+000
         vertex -1.576798e-001 8.000999e+000 1.847880e+000
         vertex -1.995767e-002 8.000999e+000 1.726009e+000
      endloop
   endfacet
   facet normal 9.557656e-017 1.000000e+000 -1.429387e-016
      outer loop
         vertex -3.401068e-001 8.000999e+000 1.506491e+000
         vertex -1.995767e-002 8.000999e+000 1.726009e+000
         vertex -2.481159e-001 8.000999e+000 1.403574e+000
      endloop
   endfacet
   facet normal 9.557656e-017 1.000000e+000 -1.429387e-016
      outer loop
         vertex -2.481159e-001 8.000999e+000 1.403574e+000
         vertex -1.995767e-002 8.000999e+000 1.726009e+000
         vertex 9.177733e-002 8.000999e+000 1.579943e+000
      endloop
   endfacet
   facet normal 9.557656e-017 1.000000e+000 -1.429387e-016
      outer loop
         vertex -2.481159e-001 8.000999e+000 1.403574e+000
         vertex 9.177733e-002 8.000999e+000 1.579943e+000
         vertex -1.834845e-001 8.000999e+000 1.281602e+000
      endloop
   endfacet
   facet normal 9.557656e-017 1.000000e+000 -1.429387e-016
      outer loop
         vertex -1.834845e-001 8.000999e+000 1.281602e+000
         vertex 9.177733e-002 8.000999e+000 1.579943e+000
         vertex 1.733601e-001 8.000999e+000 1.415127e+000
      endloop
   endfacet
   facet normal 9.557656e-017 1.000000e+000 -1.429387e-016
      outer loop
         vertex -1.834845e-001 8.000999e+000 1.281602e+000
         vertex 1.733601e-001 8.000999e+000 1.415127e+000
         vertex -1.499830e-001 8.000999e+000 1.147692e+000
      endloop
   endfacet
   facet normal 9.557656e-017 1.000000e+000 -1.429387e-016
      outer loop
         vertex -1.499830e-001 8.000999e+000 1.147692e+000
         vertex 1.733601e-001 8.000999e+000 1.415127e+000
         vertex 2.217493e-001 8.000999e+000 1.237705e+000
      endloop
   endfacet
   facet normal 9.557656e-017 1.000000e+000 -1.429387e-016
      outer loop
         vertex -1.499830e-001 8.000999e+000 1.147692e+000
         vertex 2.217493e-001 8.000999e+000 1.237705e+000
         vertex -1.495660e-001 8.000999e+000 1.009656e+000
      endloop
   endfacet
   facet normal 9.557656e-017 1.000000e+000 -1.429387e-016
      outer loop
         vertex -1.495660e-001 8.000999e+000 1.009656e+000
         vertex 2.217493e-001 8.000999e+000 1.237705e+000
         vertex 2.351412e-001 8.000999e+000 1.054291e+000
      endloop
   endfacet
   facet normal 9.557656e-017 1.000000e+000 -1.429387e-016
      outer loop
         vertex -1.495660e-001 8.000999e+000 1.009656e+000
         vertex 2.351412e-001 8.000999e+000 1.054291e+000
         vertex 2.130366e-001 8.000999e+000 8.717220e-001
      endloop
   endfacet
   facet normal -9.557656e-017 -1.000000e+000 1.429387e-016
      outer loop
         vertex -5.800622e-001 5.461000e+000 5.221304e-001
         vertex -7.170890e-001 5.461000e+000 5.054600e-001
         vertex -7.170890e-001 5.461000e+000 1.244600e-001
      endloop
   endfacet
   facet normal -9.557656e-017 -1.000000e+000 1.429387e-016
      outer loop
         vertex -8.142439e-001 5.461000e+000 2.172980e+000
         vertex -7.538691e-001 5.461000e+000 1.802891e+000
         vertex -7.170890e-001 5.461000e+000 2.188210e+000
      endloop
   endfacet
   facet normal -9.557656e-017 -1.000000e+000 1.429387e-016
      outer loop
         vertex -7.170890e-001 5.461000e+000 2.188210e+000
         vertex -7.538691e-001 5.461000e+000 1.802891e+000
         vertex -6.803089e-001 5.461000e+000 1.802891e+000
      endloop
   endfacet
   facet normal -9.557656e-017 -1.000000e+000 1.429387e-016
      outer loop
         vertex -7.170890e-001 5.461000e+000 2.188210e+000
         vertex -6.803089e-001 5.461000e+000 1.802891e+000
         vertex -6.199341e-001 5.461000e+000 2.172980e+000
      endloop
   endfacet
   facet normal -9.557656e-017 -1.000000e+000 1.429387e-016
      outer loop
         vertex -5.320999e-001 5.461000e+000 2.128751e+000
         vertex -6.199341e-001 5.461000e+000 2.172980e+000
         vertex -4.620130e-001 5.461000e+000 2.059767e+000
      endloop
   endfacet
   facet normal -9.557656e-017 -1.000000e+000 1.429387e-016
      outer loop
         vertex -4.620130e-001 5.461000e+000 2.059767e+000
         vertex -6.199341e-001 5.461000e+000 2.172980e+000
         vertex -6.803089e-001 5.461000e+000 1.802891e+000
      endloop
   endfacet
   facet normal -9.557656e-017 -1.000000e+000 1.429387e-016
      outer loop
         vertex -4.620130e-001 5.461000e+000 2.059767e+000
         vertex -6.803089e-001 5.461000e+000 1.802891e+000
         vertex -3.965742e-001 5.461000e+000 1.991258e+000
      endloop
   endfacet
   facet normal -9.557656e-017 -1.000000e+000 1.429387e-016
      outer loop
         vertex -3.965742e-001 5.461000e+000 1.991258e+000
         vertex -6.803089e-001 5.461000e+000 1.802891e+000
         vertex -6.146458e-001 5.461000e+000 1.769732e+000
      endloop
   endfacet
   facet normal -9.557656e-017 -1.000000e+000 1.429387e-016
      outer loop
         vertex -3.965742e-001 5.461000e+000 1.991258e+000
         vertex -6.146458e-001 5.461000e+000 1.769732e+000
         vertex -3.162552e-001 5.461000e+000 1.941014e+000
      endloop
   endfacet
   facet normal -9.557656e-017 -1.000000e+000 1.429387e-016
      outer loop
         vertex -3.162552e-001 5.461000e+000 1.941014e+000
         vertex -6.146458e-001 5.461000e+000 1.769732e+000
         vertex -5.709787e-001 5.461000e+000 1.710535e+000
      endloop
   endfacet
   facet normal -9.557656e-017 -1.000000e+000 1.429387e-016
      outer loop
         vertex -5.709787e-001 5.461000e+000 1.710535e+000
         vertex -5.235410e-001 5.461000e+000 1.637247e+000
         vertex -3.162552e-001 5.461000e+000 1.941014e+000
      endloop
   endfacet
   facet normal -9.557656e-017 -1.000000e+000 1.429387e-016
      outer loop
         vertex -3.162552e-001 5.461000e+000 1.941014e+000
         vertex -5.235410e-001 5.461000e+000 1.637247e+000
         vertex -4.540904e-001 5.461000e+000 1.584349e+000
      endloop
   endfacet
   facet normal -9.557656e-017 -1.000000e+000 1.429387e-016
      outer loop
         vertex -3.162552e-001 5.461000e+000 1.941014e+000
         vertex -4.540904e-001 5.461000e+000 1.584349e+000
         vertex -1.576798e-001 5.461000e+000 1.847880e+000
      endloop
   endfacet
   facet normal -9.557656e-017 -1.000000e+000 1.429387e-016
      outer loop
         vertex -1.576798e-001 5.461000e+000 1.847880e+000
         vertex -4.540904e-001 5.461000e+000 1.584349e+000
         vertex -3.401068e-001 5.461000e+000 1.506491e+000
      endloop
   endfacet
   facet normal -9.557656e-017 -1.000000e+000 1.429387e-016
      outer loop
         vertex -1.576798e-001 5.461000e+000 1.847880e+000
         vertex -3.401068e-001 5.461000e+000 1.506491e+000
         vertex -1.995767e-002 5.461000e+000 1.726009e+000
      endloop
   endfacet
   facet normal -9.557656e-017 -1.000000e+000 1.429387e-016
      outer loop
         vertex -1.995767e-002 5.461000e+000 1.726009e+000
         vertex -3.401068e-001 5.461000e+000 1.506491e+000
         vertex -2.481159e-001 5.461000e+000 1.403574e+000
      endloop
   endfacet
   facet normal -9.557656e-017 -1.000000e+000 1.429387e-016
      outer loop
         vertex -7.170890e-001 5.461000e+000 1.244600e-001
         vertex -7.170890e-001 5.461000e+000 5.054600e-001
         vertex -9.001323e-001 5.461000e+000 1.422133e-001
      endloop
   endfacet
   facet normal -9.557656e-017 -1.000000e+000 1.429387e-016
      outer loop
         vertex -9.001323e-001 5.461000e+000 1.422133e-001
         vertex -7.170890e-001 5.461000e+000 5.054600e-001
         vertex -8.541158e-001 5.461000e+000 5.221304e-001
      endloop
   endfacet
   facet normal -9.557656e-017 -1.000000e+000 1.429387e-016
      outer loop
         vertex -9.001323e-001 5.461000e+000 1.422133e-001
         vertex -8.541158e-001 5.461000e+000 5.221304e-001
         vertex -1.076352e+000 5.461000e+000 1.948114e-001
      endloop
   endfacet
   facet normal -9.557656e-017 -1.000000e+000 1.429387e-016
      outer loop
         vertex -1.076352e+000 5.461000e+000 1.948114e-001
         vertex -8.541158e-001 5.461000e+000 5.221304e-001
         vertex -9.831486e-001 5.461000e+000 5.711690e-001
      endloop
   endfacet
   facet normal -9.557656e-017 -1.000000e+000 1.429387e-016
      outer loop
         vertex -1.076352e+000 5.461000e+000 1.948114e-001
         vertex -9.831486e-001 5.461000e+000 5.711690e-001
         vertex -1.239180e+000 5.461000e+000 2.802935e-001
      endloop
   endfacet
   facet normal -9.557656e-017 -1.000000e+000 1.429387e-016
      outer loop
         vertex -1.239180e+000 5.461000e+000 2.802936e-001
         vertex -9.831486e-001 5.461000e+000 5.711690e-001
         vertex -1.382545e+000 5.461000e+000 3.954732e-001
      endloop
   endfacet
   facet normal -9.557656e-017 -1.000000e+000 1.429387e-016
      outer loop
         vertex -1.382545e+000 5.461000e+000 3.954732e-001
         vertex -9.831486e-001 5.461000e+000 5.711690e-001
         vertex -1.096660e+000 5.461000e+000 6.497150e-001
      endloop
   endfacet
   facet normal -9.557656e-017 -1.000000e+000 1.429387e-016
      outer loop
         vertex -1.382545e+000 5.461000e+000 3.954732e-001
         vertex -1.096660e+000 5.461000e+000 6.497150e-001
         vertex -1.501104e+000 5.461000e+000 5.360568e-001
      endloop
   endfacet
   facet normal -9.557656e-017 -1.000000e+000 1.429387e-016
      outer loop
         vertex -1.501104e+000 5.461000e+000 5.360568e-001
         vertex -1.096660e+000 5.461000e+000 6.497150e-001
         vertex -1.188027e+000 5.461000e+000 7.531860e-001
      endloop
   endfacet
   facet normal -9.557656e-017 -1.000000e+000 1.429387e-016
      outer loop
         vertex -1.501104e+000 5.461000e+000 5.360568e-001
         vertex -1.188027e+000 5.461000e+000 7.531860e-001
         vertex -1.590437e+000 5.461000e+000 6.968039e-001
      endloop
   endfacet
   facet normal -9.557656e-017 -1.000000e+000 1.429387e-016
      outer loop
         vertex -1.590437e+000 5.461000e+000 6.968039e-001
         vertex -1.188027e+000 5.461000e+000 7.531860e-001
         vertex -1.251920e+000 5.461000e+000 8.755458e-001
      endloop
   endfacet
   facet normal -9.557656e-017 -1.000000e+000 1.429387e-016
      outer loop
         vertex -1.590437e+000 5.461000e+000 6.968039e-001
         vertex -1.251920e+000 5.461000e+000 8.755457e-001
         vertex -1.647215e+000 5.461000e+000 8.717221e-001
      endloop
   endfacet
   facet normal -9.557656e-017 -1.000000e+000 1.429387e-016
      outer loop
         vertex -1.647215e+000 5.461000e+000 8.717221e-001
         vertex -1.251920e+000 5.461000e+000 8.755457e-001
         vertex -1.284612e+000 5.461000e+000 1.009656e+000
      endloop
   endfacet
   facet normal -9.557656e-017 -1.000000e+000 1.429387e-016
      outer loop
         vertex -1.647215e+000 5.461000e+000 8.717221e-001
         vertex -1.284612e+000 5.461000e+000 1.009656e+000
         vertex -1.669319e+000 5.461000e+000 1.054291e+000
      endloop
   endfacet
   facet normal -9.557656e-017 -1.000000e+000 1.429387e-016
      outer loop
         vertex -1.669319e+000 5.461000e+000 1.054291e+000
         vertex -1.284612e+000 5.461000e+000 1.009656e+000
         vertex -1.655927e+000 5.461000e+000 1.237705e+000
      endloop
   endfacet
   facet normal -9.557656e-017 -1.000000e+000 1.429387e-016
      outer loop
         vertex -1.655927e+000 5.461000e+000 1.237705e+000
         vertex -1.284612e+000 5.461000e+000 1.009656e+000
         vertex -1.284195e+000 5.461000e+000 1.147692e+000
      endloop
   endfacet
   facet normal -9.557656e-017 -1.000000e+000 1.429387e-016
      outer loop
         vertex -1.655927e+000 5.461000e+000 1.237705e+000
         vertex -1.284195e+000 5.461000e+000 1.147692e+000
         vertex -1.607538e+000 5.461000e+000 1.415127e+000
      endloop
   endfacet
   facet normal -9.557656e-017 -1.000000e+000 1.429387e-016
      outer loop
         vertex -1.607538e+000 5.461000e+000 1.415127e+000
         vertex -1.284195e+000 5.461000e+000 1.147692e+000
         vertex -1.250693e+000 5.461000e+000 1.281602e+000
      endloop
   endfacet
   facet normal -9.557656e-017 -1.000000e+000 1.429387e-016
      outer loop
         vertex -1.607538e+000 5.461000e+000 1.415127e+000
         vertex -1.250693e+000 5.461000e+000 1.281602e+000
         vertex -1.525955e+000 5.461000e+000 1.579943e+000
      endloop
   endfacet
   facet normal -9.557656e-017 -1.000000e+000 1.429387e-016
      outer loop
         vertex -1.525955e+000 5.461000e+000 1.579943e+000
         vertex -1.250693e+000 5.461000e+000 1.281602e+000
         vertex -1.186062e+000 5.461000e+000 1.403574e+000
      endloop
   endfacet
   facet normal -9.557656e-017 -1.000000e+000 1.429387e-016
      outer loop
         vertex -1.525955e+000 5.461000e+000 1.579943e+000
         vertex -1.186062e+000 5.461000e+000 1.403574e+000
         vertex -1.414220e+000 5.461000e+000 1.726009e+000
      endloop
   endfacet
   facet normal -9.557656e-017 -1.000000e+000 1.429387e-016
      outer loop
         vertex -1.414220e+000 5.461000e+000 1.726009e+000
         vertex -1.186062e+000 5.461000e+000 1.403574e+000
         vertex -1.094071e+000 5.461000e+000 1.506491e+000
      endloop
   endfacet
   facet normal -9.557656e-017 -1.000000e+000 1.429387e-016
      outer loop
         vertex -1.414220e+000 5.461000e+000 1.726009e+000
         vertex -1.094071e+000 5.461000e+000 1.506491e+000
         vertex -1.276498e+000 5.461000e+000 1.847880e+000
      endloop
   endfacet
   facet normal -9.557656e-017 -1.000000e+000 1.429387e-016
      outer loop
         vertex -1.822577e-001 5.461000e+000 8.755457e-001
         vertex 2.130366e-001 5.461000e+000 8.717220e-001
         vertex -1.495660e-001 5.461000e+000 1.009656e+000
      endloop
   endfacet
   facet normal -9.557656e-017 -1.000000e+000 1.429387e-016
      outer loop
         vertex -1.495660e-001 5.461000e+000 1.009656e+000
         vertex 2.130366e-001 5.461000e+000 8.717220e-001
         vertex 2.351412e-001 5.461000e+000 1.054291e+000
      endloop
   endfacet
   facet normal -9.557656e-017 -1.000000e+000 1.429387e-016
      outer loop
         vertex -1.495660e-001 5.461000e+000 1.009656e+000
         vertex 2.351412e-001 5.461000e+000 1.054291e+000
         vertex -1.499830e-001 5.461000e+000 1.147692e+000
      endloop
   endfacet
   facet normal -9.557656e-017 -1.000000e+000 1.429387e-016
      outer loop
         vertex -1.499830e-001 5.461000e+000 1.147692e+000
         vertex 2.351412e-001 5.461000e+000 1.054291e+000
         vertex 2.217493e-001 5.461000e+000 1.237705e+000
      endloop
   endfacet
   facet normal -9.557656e-017 -1.000000e+000 1.429387e-016
      outer loop
         vertex -1.499830e-001 5.461000e+000 1.147692e+000
         vertex 2.217493e-001 5.461000e+000 1.237705e+000
         vertex -1.834845e-001 5.461000e+000 1.281602e+000
      endloop
   endfacet
   facet normal -9.557656e-017 -1.000000e+000 1.429387e-016
      outer loop
         vertex -1.834845e-001 5.461000e+000 1.281602e+000
         vertex 2.217493e-001 5.461000e+000 1.237705e+000
         vertex 1.733601e-001 5.461000e+000 1.415127e+000
      endloop
   endfacet
   facet normal -9.557656e-017 -1.000000e+000 1.429387e-016
      outer loop
         vertex -1.834845e-001 5.461000e+000 1.281602e+000
         vertex 1.733601e-001 5.461000e+000 1.415127e+000
         vertex -2.481159e-001 5.461000e+000 1.403574e+000
      endloop
   endfacet
   facet normal -9.557656e-017 -1.000000e+000 1.429387e-016
      outer loop
         vertex -2.481159e-001 5.461000e+000 1.403574e+000
         vertex 1.733601e-001 5.461000e+000 1.415127e+000
         vertex 9.177733e-002 5.461000e+000 1.579943e+000
      endloop
   endfacet
   facet normal -9.557656e-017 -1.000000e+000 1.429387e-016
      outer loop
         vertex -2.481159e-001 5.461000e+000 1.403574e+000
         vertex 9.177733e-002 5.461000e+000 1.579943e+000
         vertex -1.995767e-002 5.461000e+000 1.726009e+000
      endloop
   endfacet
   facet normal -9.557656e-017 -1.000000e+000 1.429387e-016
      outer loop
         vertex -8.142439e-001 5.461000e+000 2.172980e+000
         vertex -9.020781e-001 5.461000e+000 2.128751e+000
         vertex -7.538691e-001 5.461000e+000 1.802891e+000
      endloop
   endfacet
   facet normal -9.557656e-017 -1.000000e+000 1.429387e-016
      outer loop
         vertex -7.538691e-001 5.461000e+000 1.802891e+000
         vertex -9.020781e-001 5.461000e+000 2.128751e+000
         vertex -9.721650e-001 5.461000e+000 2.059767e+000
      endloop
   endfacet
   facet normal -9.557656e-017 -1.000000e+000 1.429387e-016
      outer loop
         vertex -7.538691e-001 5.461000e+000 1.802891e+000
         vertex -9.721650e-001 5.461000e+000 2.059767e+000
         vertex -8.195321e-001 5.461000e+000 1.769732e+000
      endloop
   endfacet
   facet normal -9.557656e-017 -1.000000e+000 1.429387e-016
      outer loop
         vertex -8.195321e-001 5.461000e+000 1.769732e+000
         vertex -9.721650e-001 5.461000e+000 2.059767e+000
         vertex -1.037604e+000 5.461000e+000 1.991258e+000
      endloop
   endfacet
   facet normal -9.557656e-017 -1.000000e+000 1.429387e-016
      outer loop
         vertex -8.195321e-001 5.461000e+000 1.769732e+000
         vertex -1.037604e+000 5.461000e+000 1.991258e+000
         vertex -8.631993e-001 5.461000e+000 1.710535e+000
      endloop
   endfacet
   facet normal -9.557656e-017 -1.000000e+000 1.429387e-016
      outer loop
         vertex -8.631993e-001 5.461000e+000 1.710535e+000
         vertex -1.037604e+000 5.461000e+000 1.991258e+000
         vertex -1.117923e+000 5.461000e+000 1.941014e+000
      endloop
   endfacet
   facet normal -9.557656e-017 -1.000000e+000 1.429387e-016
      outer loop
         vertex -8.631993e-001 5.461000e+000 1.710535e+000
         vertex -1.117923e+000 5.461000e+000 1.941014e+000
         vertex -9.106370e-001 5.461000e+000 1.637247e+000
      endloop
   endfacet
   facet normal -9.557656e-017 -1.000000e+000 1.429387e-016
      outer loop
         vertex -9.106370e-001 5.461000e+000 1.637247e+000
         vertex -1.117923e+000 5.461000e+000 1.941014e+000
         vertex -1.276498e+000 5.461000e+000 1.847880e+000
      endloop
   endfacet
   facet normal -9.557656e-017 -1.000000e+000 1.429387e-016
      outer loop
         vertex -9.106370e-001 5.461000e+000 1.637247e+000
         vertex -1.276498e+000 5.461000e+000 1.847880e+000
         vertex -9.800876e-001 5.461000e+000 1.584349e+000
      endloop
   endfacet
   facet normal -9.557656e-017 -1.000000e+000 1.429387e-016
      outer loop
         vertex -9.800876e-001 5.461000e+000 1.584349e+000
         vertex -1.276498e+000 5.461000e+000 1.847880e+000
         vertex -1.094071e+000 5.461000e+000 1.506491e+000
      endloop
   endfacet
   facet normal -9.557656e-017 -1.000000e+000 1.429387e-016
      outer loop
         vertex -7.170890e-001 5.461000e+000 1.244600e-001
         vertex -5.340458e-001 5.461000e+000 1.422133e-001
         vertex -5.800622e-001 5.461000e+000 5.221304e-001
      endloop
   endfacet
   facet normal -9.557656e-017 -1.000000e+000 1.429387e-016
      outer loop
         vertex -5.800622e-001 5.461000e+000 5.221304e-001
         vertex -5.340458e-001 5.461000e+000 1.422133e-001
         vertex -3.578258e-001 5.461000e+000 1.948113e-001
      endloop
   endfacet
   facet normal -9.557656e-017 -1.000000e+000 1.429387e-016
      outer loop
         vertex -5.800622e-001 5.461000e+000 5.221304e-001
         vertex -3.578258e-001 5.461000e+000 1.948113e-001
         vertex -4.510294e-001 5.461000e+000 5.711690e-001
      endloop
   endfacet
   facet normal -9.557656e-017 -1.000000e+000 1.429387e-016
      outer loop
         vertex -4.510294e-001 5.461000e+000 5.711690e-001
         vertex -3.578258e-001 5.461000e+000 1.948113e-001
         vertex -1.949982e-001 5.461000e+000 2.802935e-001
      endloop
   endfacet
   facet normal -9.557656e-017 -1.000000e+000 1.429387e-016
      outer loop
         vertex -4.510294e-001 5.461000e+000 5.711690e-001
         vertex -1.949982e-001 5.461000e+000 2.802935e-001
         vertex -3.375183e-001 5.461000e+000 6.497150e-001
      endloop
   endfacet
   facet normal -9.557656e-017 -1.000000e+000 1.429387e-016
      outer loop
         vertex -3.375183e-001 5.461000e+000 6.497150e-001
         vertex -1.949982e-001 5.461000e+000 2.802935e-001
         vertex -5.163277e-002 5.461000e+000 3.954732e-001
      endloop
   endfacet
   facet normal -9.557656e-017 -1.000000e+000 1.429387e-016
      outer loop
         vertex -3.375183e-001 5.461000e+000 6.497150e-001
         vertex -5.163277e-002 5.461000e+000 3.954732e-001
         vertex -2.461509e-001 5.461000e+000 7.531860e-001
      endloop
   endfacet
   facet normal -9.557656e-017 -1.000000e+000 1.429387e-016
      outer loop
         vertex -2.461509e-001 5.461000e+000 7.531860e-001
         vertex -5.163277e-002 5.461000e+000 3.954732e-001
         vertex 6.692627e-002 5.461000e+000 5.360568e-001
      endloop
   endfacet
   facet normal -9.557656e-017 -1.000000e+000 1.429387e-016
      outer loop
         vertex -2.461509e-001 5.461000e+000 7.531860e-001
         vertex 6.692627e-002 5.461000e+000 5.360568e-001
         vertex -1.822577e-001 5.461000e+000 8.755458e-001
      endloop
   endfacet
   facet normal -9.557656e-017 -1.000000e+000 1.429387e-016
      outer loop
         vertex -1.822577e-001 5.461000e+000 8.755457e-001
         vertex 6.692627e-002 5.461000e+000 5.360568e-001
         vertex 1.562595e-001 5.461000e+000 6.968038e-001
      endloop
   endfacet
   facet normal -9.557656e-017 -1.000000e+000 1.429387e-016
      outer loop
         vertex -1.822577e-001 5.461000e+000 8.755457e-001
         vertex 1.562595e-001 5.461000e+000 6.968038e-001
         vertex 2.130366e-001 5.461000e+000 8.717220e-001
      endloop
   endfacet
   facet normal -7.377130e-001 1.670081e-016 6.751144e-001
      outer loop
         vertex -9.721650e-001 8.000999e+000 2.059767e+000
         vertex -9.721650e-001 5.461000e+000 2.059767e+000
         vertex -9.020781e-001 5.461000e+000 2.128751e+000
      endloop
   endfacet
   facet normal -6.633338e-001 1.703636e-016 7.483236e-001
      outer loop
         vertex -9.721650e-001 8.000999e+000 2.059767e+000
         vertex -9.020781e-001 5.461000e+000 2.128751e+000
         vertex -9.020781e-001 8.000999e+000 2.128751e+000
      endloop
   endfacet
   facet normal -4.957413e-001 1.715193e-016 8.684703e-001
      outer loop
         vertex -9.020781e-001 8.000999e+000 2.128751e+000
         vertex -9.020781e-001 5.461000e+000 2.128751e+000
         vertex -8.142439e-001 5.461000e+000 2.172980e+000
      endloop
   endfacet
   facet normal -4.025280e-001 1.693195e-016 9.154077e-001
      outer loop
         vertex -9.020781e-001 8.000999e+000 2.128751e+000
         vertex -8.142439e-001 5.461000e+000 2.172980e+000
         vertex -8.142439e-001 8.000999e+000 2.172980e+000
      endloop
   endfacet
   facet normal -2.062097e-001 1.595755e-016 9.785078e-001
      outer loop
         vertex -8.142439e-001 8.000999e+000 2.172980e+000
         vertex -8.142439e-001 5.461000e+000 2.172980e+000
         vertex -7.170890e-001 5.461000e+000 2.188210e+000
      endloop
   endfacet
   facet normal -1.031049e-001 1.520314e-016 9.946705e-001
      outer loop
         vertex -8.142439e-001 8.000999e+000 2.172980e+000
         vertex -7.170890e-001 5.461000e+000 2.188210e+000
         vertex -7.170890e-001 8.000999e+000 2.188210e+000
      endloop
   endfacet
   facet normal 1.031049e-001 1.323225e-016 9.946705e-001
      outer loop
         vertex -7.170890e-001 8.000999e+000 2.188210e+000
         vertex -7.170890e-001 5.461000e+000 2.188210e+000
         vertex -6.199341e-001 5.461000e+000 2.172980e+000
      endloop
   endfacet
   facet normal 2.062098e-001 1.201579e-016 9.785078e-001
      outer loop
         vertex -7.170890e-001 8.000999e+000 2.188210e+000
         vertex -6.199341e-001 5.461000e+000 2.172980e+000
         vertex -6.199341e-001 8.000999e+000 2.172980e+000
      endloop
   endfacet
   facet normal 4.025280e-001 9.237498e-017 9.154077e-001
      outer loop
         vertex -6.199341e-001 8.000999e+000 2.172980e+000
         vertex -6.199341e-001 5.461000e+000 2.172980e+000
         vertex -5.320999e-001 5.461000e+000 2.128751e+000
      endloop
   endfacet
   facet normal 4.957413e-001 7.675679e-017 8.684702e-001
      outer loop
         vertex -6.199341e-001 8.000999e+000 2.172980e+000
         vertex -5.320999e-001 5.461000e+000 2.128751e+000
         vertex -5.320999e-001 8.000999e+000 2.128751e+000
      endloop
   endfacet
   facet normal 6.633339e-001 4.356526e-017 7.483236e-001
      outer loop
         vertex -5.320999e-001 8.000999e+000 2.128751e+000
         vertex -5.320999e-001 5.461000e+000 2.128751e+000
         vertex -4.620130e-001 5.461000e+000 2.059767e+000
      endloop
   endfacet
   facet normal 7.377130e-001 2.599192e-017 6.751144e-001
      outer loop
         vertex -5.320999e-001 8.000999e+000 2.128751e+000
         vertex -4.620130e-001 5.461000e+000 2.059767e+000
         vertex -4.620130e-001 8.000999e+000 2.059767e+000
      endloop
   endfacet
   facet normal 4.783025e-001 7.981361e-017 8.781952e-001
      outer loop
         vertex -3.162552e-001 8.000999e+000 1.941014e+000
         vertex -3.162552e-001 5.461000e+000 1.941014e+000
         vertex -1.576798e-001 5.461000e+000 1.847880e+000
      endloop
   endfacet
   facet normal 5.340282e-001 6.980936e-017 8.454666e-001
      outer loop
         vertex -3.162552e-001 8.000999e+000 1.941014e+000
         vertex -1.576798e-001 5.461000e+000 1.847880e+000
         vertex -1.576798e-001 8.000999e+000 1.847880e+000
      endloop
   endfacet
   facet normal 6.381516e-001 4.905774e-017 7.699108e-001
      outer loop
         vertex -1.576798e-001 8.000999e+000 1.847880e+000
         vertex -1.576798e-001 5.461000e+000 1.847880e+000
         vertex -1.995767e-002 5.461000e+000 1.726009e+000
      endloop
   endfacet
   facet normal 6.865492e-001 3.831036e-017 7.270833e-001
      outer loop
         vertex -1.576798e-001 8.000999e+000 1.847880e+000
         vertex -1.995767e-002 5.461000e+000 1.726009e+000
         vertex -1.995767e-002 8.000999e+000 1.726009e+000
      endloop
   endfacet
   facet normal 7.742121e-001 1.647314e-017 6.329262e-001
      outer loop
         vertex -1.995767e-002 8.000999e+000 1.726009e+000
         vertex -1.995767e-002 5.461000e+000 1.726009e+000
         vertex 9.177733e-002 5.461000e+000 1.579943e+000
      endloop
   endfacet
   facet normal 8.134775e-001 5.383276e-018 5.815964e-001
      outer loop
         vertex -1.995767e-002 8.000999e+000 1.726009e+000
         vertex 9.177733e-002 5.461000e+000 1.579943e+000
         vertex 9.177733e-002 8.000999e+000 1.579943e+000
      endloop
   endfacet
   facet normal 8.814122e-001 -1.672554e-017 4.723479e-001
      outer loop
         vertex 9.177733e-002 8.000999e+000 1.579943e+000
         vertex 9.177733e-002 5.461000e+000 1.579943e+000
         vertex 1.733601e-001 5.461000e+000 1.415127e+000
      endloop
   endfacet
   facet normal 9.100816e-001 -2.774449e-017 4.144291e-001
      outer loop
         vertex 9.177733e-002 8.000999e+000 1.579943e+000
         vertex 1.733601e-001 5.461000e+000 1.415127e+000
         vertex 1.733601e-001 8.000999e+000 1.415127e+000
      endloop
   endfacet
   facet normal 9.557557e-001 -4.930073e-017 2.941617e-001
      outer loop
         vertex 1.733601e-001 8.000999e+000 1.415127e+000
         vertex 1.733601e-001 5.461000e+000 1.415127e+000
         vertex 2.217493e-001 5.461000e+000 1.237705e+000
      endloop
   endfacet
   facet normal 9.727604e-001 -5.983802e-017 2.318131e-001
      outer loop
         vertex 1.733601e-001 8.000999e+000 1.415127e+000
         vertex 2.217493e-001 5.461000e+000 1.237705e+000
         vertex 2.217493e-001 8.000999e+000 1.237705e+000
      endloop
   endfacet
   facet normal 9.944712e-001 -8.003814e-017 1.050100e-001
      outer loop
         vertex 2.217493e-001 8.000999e+000 1.237705e+000
         vertex 2.217493e-001 5.461000e+000 1.237705e+000
         vertex 2.351412e-001 5.461000e+000 1.054291e+000
      endloop
   endfacet
   facet normal 9.991773e-001 -8.970095e-017 4.055565e-002
      outer loop
         vertex 2.217493e-001 8.000999e+000 1.237705e+000
         vertex 2.351412e-001 5.461000e+000 1.054291e+000
         vertex 2.351412e-001 8.000999e+000 1.054291e+000
      endloop
   endfacet
   facet normal 9.961155e-001 -1.077919e-016 -8.805615e-002
      outer loop
         vertex 2.351412e-001 8.000999e+000 1.054291e+000
         vertex 2.351412e-001 5.461000e+000 1.054291e+000
         vertex 2.130366e-001 5.461000e+000 8.717220e-001
      endloop
   endfacet
   facet normal 9.883476e-001 -1.162201e-016 -1.522136e-001
      outer loop
         vertex 2.351412e-001 8.000999e+000 1.054291e+000
         vertex 2.130366e-001 5.461000e+000 8.717220e-001
         vertex 2.130366e-001 8.000999e+000 8.717220e-001
      endloop
   endfacet
   facet normal 9.606274e-001 -1.315275e-016 -2.778398e-001
      outer loop
         vertex 2.130366e-001 8.000999e+000 8.717220e-001
         vertex 2.130366e-001 5.461000e+000 8.717220e-001
         vertex 1.562595e-001 5.461000e+000 6.968038e-001
      endloop
   endfacet
   facet normal 9.406751e-001 -1.384069e-016 -3.393087e-001
      outer loop
         vertex 2.130366e-001 8.000999e+000 8.717220e-001
         vertex 1.562595e-001 5.461000e+000 6.968038e-001
         vertex 1.562595e-001 8.000999e+000 6.968038e-001
      endloop
   endfacet
   facet normal 8.893298e-001 -1.503602e-016 -4.572664e-001
      outer loop
         vertex 1.562595e-001 8.000999e+000 6.968038e-001
         vertex 1.562595e-001 5.461000e+000 6.968038e-001
         vertex 6.692627e-002 5.461000e+000 5.360568e-001
      endloop
   endfacet
   facet normal 8.579368e-001 -1.554342e-016 -5.137553e-001
      outer loop
         vertex 1.562595e-001 8.000999e+000 6.968038e-001
         vertex 6.692627e-002 5.461000e+000 5.360568e-001
         vertex 6.692627e-002 8.000999e+000 5.360568e-001
      endloop
   endfacet
   facet normal 7.848803e-001 -1.635878e-016 -6.196474e-001
      outer loop
         vertex 6.692627e-002 8.000999e+000 5.360568e-001
         vertex 6.692627e-002 5.461000e+000 5.360568e-001
         vertex -5.163277e-002 5.461000e+000 3.954732e-001
      endloop
   endfacet
   facet normal 7.432169e-001 -1.666674e-016 -6.690505e-001
      outer loop
         vertex 6.692627e-002 8.000999e+000 5.360568e-001
         vertex -5.163277e-002 5.461000e+000 3.954732e-001
         vertex -5.163277e-002 8.000999e+000 3.954732e-001
      endloop
   endfacet
   facet normal 6.511728e-001 -1.707173e-016 -7.589296e-001
      outer loop
         vertex -5.163277e-002 8.000999e+000 3.954732e-001
         vertex -5.163277e-002 5.461000e+000 3.954732e-001
         vertex -1.949982e-001 5.461000e+000 2.802935e-001
      endloop
   endfacet
   facet normal 6.007920e-001 -1.716876e-016 -7.994054e-001
      outer loop
         vertex -5.163277e-002 8.000999e+000 3.954732e-001
         vertex -1.949982e-001 5.461000e+000 2.802935e-001
         vertex -1.949982e-001 8.000999e+000 2.802935e-001
      endloop
   endfacet
   facet normal 4.931912e-001 -1.714829e-016 -8.699209e-001
      outer loop
         vertex -1.949982e-001 8.000999e+000 2.802935e-001
         vertex -1.949982e-001 5.461000e+000 2.802935e-001
         vertex -3.578258e-001 5.461000e+000 1.948113e-001
      endloop
   endfacet
   facet normal 4.359712e-001 -1.703079e-016 -8.999606e-001
      outer loop
         vertex -1.949982e-001 8.000999e+000 2.802935e-001
         vertex -3.578258e-001 5.461000e+000 1.948113e-001
         vertex -3.578258e-001 8.000999e+000 1.948113e-001
      endloop
   endfacet
   facet normal 3.168249e-001 -1.658561e-016 -9.484841e-001
      outer loop
         vertex -3.578258e-001 8.000999e+000 1.948113e-001
         vertex -3.578258e-001 5.461000e+000 1.948113e-001
         vertex -5.340458e-001 5.461000e+000 1.422133e-001
      endloop
   endfacet
   facet normal 2.548986e-001 -1.625795e-016 -9.669678e-001
      outer loop
         vertex -3.578258e-001 8.000999e+000 1.948113e-001
         vertex -5.340458e-001 5.461000e+000 1.422133e-001
         vertex -5.340458e-001 8.000999e+000 1.422133e-001
      endloop
   endfacet
   facet normal 1.286482e-001 -1.540467e-016 -9.916903e-001
      outer loop
         vertex -5.340458e-001 8.000999e+000 1.422133e-001
         vertex -5.340458e-001 5.461000e+000 1.422133e-001
         vertex -7.170890e-001 5.461000e+000 1.244600e-001
      endloop
   endfacet
   facet normal 6.432409e-002 -1.487906e-016 -9.979290e-001
      outer loop
         vertex -5.340458e-001 8.000999e+000 1.422133e-001
         vertex -7.170890e-001 5.461000e+000 1.244600e-001
         vertex -7.170890e-001 8.000999e+000 1.244600e-001
      endloop
   endfacet
   facet normal -6.432413e-002 -1.364948e-016 -9.979290e-001
      outer loop
         vertex -7.170890e-001 8.000999e+000 1.244600e-001
         vertex -7.170890e-001 5.461000e+000 1.244600e-001
         vertex -9.001323e-001 5.461000e+000 1.422133e-001
      endloop
   endfacet
   facet normal -1.286483e-001 -1.294552e-016 -9.916903e-001
      outer loop
         vertex -7.170890e-001 8.000999e+000 1.244600e-001
         vertex -9.001323e-001 5.461000e+000 1.422133e-001
         vertex -9.001323e-001 8.000999e+000 1.422133e-001
      endloop
   endfacet
   facet normal -2.548987e-001 -1.138548e-016 -9.669678e-001
      outer loop
         vertex -9.001323e-001 8.000999e+000 1.422133e-001
         vertex -9.001323e-001 5.461000e+000 1.422133e-001
         vertex -1.076352e+000 5.461000e+000 1.948114e-001
      endloop
   endfacet
   facet normal -3.168249e-001 -1.052941e-016 -9.484840e-001
      outer loop
         vertex -9.001323e-001 8.000999e+000 1.422133e-001
         vertex -1.076352e+000 5.461000e+000 1.948114e-001
         vertex -1.076352e+000 8.000999e+000 1.948114e-001
      endloop
   endfacet
   facet normal -4.359713e-001 -8.697060e-017 -8.999606e-001
      outer loop
         vertex -1.076352e+000 8.000999e+000 1.948114e-001
         vertex -1.076352e+000 5.461000e+000 1.948114e-001
         vertex -1.239180e+000 5.461000e+000 2.802935e-001
      endloop
   endfacet
   facet normal -4.931913e-001 -7.720787e-017 -8.699209e-001
      outer loop
         vertex -1.076352e+000 8.000999e+000 1.948114e-001
         vertex -1.239180e+000 5.461000e+000 2.802936e-001
         vertex -1.239180e+000 8.000999e+000 2.802935e-001
      endloop
   endfacet
   facet normal -6.007921e-001 -5.684436e-017 -7.994053e-001
      outer loop
         vertex -1.239180e+000 8.000999e+000 2.802936e-001
         vertex -1.239180e+000 5.461000e+000 2.802936e-001
         vertex -1.382545e+000 5.461000e+000 3.954732e-001
      endloop
   endfacet
   facet normal -6.511728e-001 -4.624357e-017 -7.589295e-001
      outer loop
         vertex -1.239180e+000 8.000999e+000 2.802936e-001
         vertex -1.382545e+000 5.461000e+000 3.954732e-001
         vertex -1.382545e+000 8.000999e+000 3.954732e-001
      endloop
   endfacet
   facet normal -7.432170e-001 -2.459911e-017 -6.690505e-001
      outer loop
         vertex -1.382545e+000 8.000999e+000 3.954732e-001
         vertex -1.382545e+000 5.461000e+000 3.954732e-001
         vertex -1.501104e+000 5.461000e+000 5.360568e-001
      endloop
   endfacet
   facet normal -7.848804e-001 -1.355544e-017 -6.196473e-001
      outer loop
         vertex -1.382545e+000 8.000999e+000 3.954732e-001
         vertex -1.501104e+000 5.461000e+000 5.360568e-001
         vertex -1.501104e+000 8.000999e+000 5.360568e-001
      endloop
   endfacet
   facet normal -8.579368e-001 8.563121e-018 -5.137553e-001
      outer loop
         vertex -1.501104e+000 8.000999e+000 5.360568e-001
         vertex -1.501104e+000 5.461000e+000 5.360568e-001
         vertex -1.590437e+000 5.461000e+000 6.968039e-001
      endloop
   endfacet
   facet normal -8.893298e-001 1.963800e-017 -4.572664e-001
      outer loop
         vertex -1.501104e+000 8.000999e+000 5.360568e-001
         vertex -1.590437e+000 5.461000e+000 6.968039e-001
         vertex -1.590437e+000 8.000999e+000 6.968039e-001
      endloop
   endfacet
   facet normal -9.406751e-001 4.140614e-017 -3.393086e-001
      outer loop
         vertex -1.590437e+000 8.000999e+000 6.968039e-001
         vertex -1.590437e+000 5.461000e+000 6.968039e-001
         vertex -1.647215e+000 5.461000e+000 8.717221e-001
      endloop
   endfacet
   facet normal -9.606274e-001 5.209940e-017 -2.778398e-001
      outer loop
         vertex -1.590437e+000 8.000999e+000 6.968039e-001
         vertex -1.647215e+000 5.461000e+000 8.717221e-001
         vertex -1.647215e+000 8.000999e+000 8.717221e-001
      endloop
   endfacet
   facet normal -9.883476e-001 7.270566e-017 -1.522135e-001
      outer loop
         vertex -1.647215e+000 8.000999e+000 8.717221e-001
         vertex -1.647215e+000 5.461000e+000 8.717221e-001
         vertex -1.669319e+000 5.461000e+000 1.054291e+000
      endloop
   endfacet
   facet normal -9.961155e-001 8.261867e-017 -8.805611e-002
      outer loop
         vertex -1.647215e+000 8.000999e+000 8.717221e-001
         vertex -1.669319e+000 5.461000e+000 1.054291e+000
         vertex -1.669319e+000 8.000999e+000 1.054291e+000
      endloop
   endfacet
   facet normal -9.991773e-001 1.012949e-016 4.055569e-002
      outer loop
         vertex -1.669319e+000 8.000999e+000 1.054291e+000
         vertex -1.669319e+000 5.461000e+000 1.054291e+000
         vertex -1.655927e+000 5.461000e+000 1.237705e+000
      endloop
   endfacet
   facet normal -9.944711e-001 1.100581e-016 1.050101e-001
      outer loop
         vertex -1.669319e+000 8.000999e+000 1.054291e+000
         vertex -1.655927e+000 5.461000e+000 1.237705e+000
         vertex -1.655927e+000 8.000999e+000 1.237705e+000
      endloop
   endfacet
   facet normal -9.727603e-001 1.261082e-016 2.318131e-001
      outer loop
         vertex -1.655927e+000 8.000999e+000 1.237705e+000
         vertex -1.655927e+000 5.461000e+000 1.237705e+000
         vertex -1.607538e+000 5.461000e+000 1.415127e+000
      endloop
   endfacet
   facet normal -9.557557e-001 1.333949e-016 2.941618e-001
      outer loop
         vertex -1.655927e+000 8.000999e+000 1.237705e+000
         vertex -1.607538e+000 5.461000e+000 1.415127e+000
         vertex -1.607538e+000 8.000999e+000 1.415127e+000
      endloop
   endfacet
   facet normal -9.100816e-001 1.462205e-016 4.144292e-001
      outer loop
         vertex -1.607538e+000 8.000999e+000 1.415127e+000
         vertex -1.607538e+000 5.461000e+000 1.415127e+000
         vertex -1.525955e+000 5.461000e+000 1.579943e+000
      endloop
   endfacet
   facet normal -8.814122e-001 1.517592e-016 4.723479e-001
      outer loop
         vertex -1.607538e+000 8.000999e+000 1.415127e+000
         vertex -1.525955e+000 5.461000e+000 1.579943e+000
         vertex -1.525955e+000 8.000999e+000 1.579943e+000
      endloop
   endfacet
   facet normal -8.134775e-001 1.608820e-016 5.815964e-001
      outer loop
         vertex -1.525955e+000 8.000999e+000 1.579943e+000
         vertex -1.525955e+000 5.461000e+000 1.579943e+000
         vertex -1.414220e+000 5.461000e+000 1.726009e+000
      endloop
   endfacet
   facet normal -7.742121e-001 1.644662e-016 6.329262e-001
      outer loop
         vertex -1.525955e+000 8.000999e+000 1.579943e+000
         vertex -1.414220e+000 5.461000e+000 1.726009e+000
         vertex -1.414220e+000 8.000999e+000 1.726009e+000
      endloop
   endfacet
   facet normal -6.865492e-001 1.695464e-016 7.270834e-001
      outer loop
         vertex -1.414220e+000 8.000999e+000 1.726009e+000
         vertex -1.414220e+000 5.461000e+000 1.726009e+000
         vertex -1.276498e+000 5.461000e+000 1.847880e+000
      endloop
   endfacet
   facet normal -6.381516e-001 1.710424e-016 7.699108e-001
      outer loop
         vertex -1.414220e+000 8.000999e+000 1.726009e+000
         vertex -1.276498e+000 5.461000e+000 1.847880e+000
         vertex -1.276498e+000 8.000999e+000 1.847880e+000
      endloop
   endfacet
   facet normal -5.340282e-001 1.718905e-016 8.454667e-001
      outer loop
         vertex -1.276498e+000 8.000999e+000 1.847880e+000
         vertex -1.276498e+000 5.461000e+000 1.847880e+000
         vertex -1.117923e+000 5.461000e+000 1.941014e+000
      endloop
   endfacet
   facet normal -4.783024e-001 1.712426e-016 8.781952e-001
      outer loop
         vertex -1.276498e+000 8.000999e+000 1.847880e+000
         vertex -1.117923e+000 5.461000e+000 1.941014e+000
         vertex -1.117923e+000 8.000999e+000 1.941014e+000
      endloop
   endfacet
   facet normal -8.491971e-001 5.680814e-018 -5.280761e-001
      outer loop
         vertex -5.709787e-001 8.000999e+000 1.710535e+000
         vertex -5.709787e-001 5.461000e+000 1.710535e+000
         vertex -6.146458e-001 5.461000e+000 1.769732e+000
      endloop
   endfacet
   facet normal -7.552385e-001 -2.150610e-017 -6.554500e-001
      outer loop
         vertex -5.709787e-001 8.000999e+000 1.710535e+000
         vertex -6.146458e-001 5.461000e+000 1.769732e+000
         vertex -6.146458e-001 8.000999e+000 1.769732e+000
      endloop
   endfacet
   facet normal -5.199930e-001 -7.239491e-017 -8.541705e-001
      outer loop
         vertex -6.146458e-001 8.000999e+000 1.769732e+000
         vertex -6.146458e-001 5.461000e+000 1.769732e+000
         vertex -6.803089e-001 5.461000e+000 1.802891e+000
      endloop
   endfacet
   facet normal -3.787060e-001 -9.609682e-017 -9.255170e-001
      outer loop
         vertex -6.146458e-001 8.000999e+000 1.769732e+000
         vertex -6.803089e-001 5.461000e+000 1.802891e+000
         vertex -6.803089e-001 8.000999e+000 1.802891e+000
      endloop
   endfacet
   facet normal -7.913968e-002 -1.349265e-016 -9.968635e-001
      outer loop
         vertex -6.803089e-001 8.000999e+000 1.802891e+000
         vertex -6.803089e-001 5.461000e+000 1.802891e+000
         vertex -7.538691e-001 5.461000e+000 1.802891e+000
      endloop
   endfacet
   facet normal 7.913963e-002 -1.500543e-016 -9.968635e-001
      outer loop
         vertex -6.803089e-001 8.000999e+000 1.802891e+000
         vertex -7.538691e-001 5.461000e+000 1.802891e+000
         vertex -7.538691e-001 8.000999e+000 1.802891e+000
      endloop
   endfacet
   facet normal 3.787060e-001 -1.684877e-016 -9.255170e-001
      outer loop
         vertex -7.538691e-001 8.000999e+000 1.802891e+000
         vertex -7.538691e-001 5.461000e+000 1.802891e+000
         vertex -8.195321e-001 5.461000e+000 1.769732e+000
      endloop
   endfacet
   facet normal 5.199930e-001 -1.717932e-016 -8.541705e-001
      outer loop
         vertex -7.538691e-001 8.000999e+000 1.802891e+000
         vertex -8.195321e-001 5.461000e+000 1.769732e+000
         vertex -8.195321e-001 8.000999e+000 1.769732e+000
      endloop
   endfacet
   facet normal 7.552385e-001 -1.658723e-016 -6.554500e-001
      outer loop
         vertex -8.195321e-001 8.000999e+000 1.769732e+000
         vertex -8.195321e-001 5.461000e+000 1.769732e+000
         vertex -8.631993e-001 5.461000e+000 1.710535e+000
      endloop
   endfacet
   facet normal 8.491971e-001 -1.566459e-016 -5.280761e-001
      outer loop
         vertex -8.195321e-001 8.000999e+000 1.769732e+000
         vertex -8.631993e-001 5.461000e+000 1.710535e+000
         vertex -8.631993e-001 8.000999e+000 1.710535e+000
      endloop
   endfacet
   facet normal 5.301195e-001 -1.718680e-016 -8.479229e-001
      outer loop
         vertex -9.800876e-001 8.000999e+000 1.584349e+000
         vertex -9.800876e-001 5.461000e+000 1.584349e+000
         vertex -1.094071e+000 5.461000e+000 1.506491e+000
      endloop
   endfacet
   facet normal 5.970369e-001 -1.717302e-016 -8.022138e-001
      outer loop
         vertex -9.800876e-001 8.000999e+000 1.584349e+000
         vertex -1.094071e+000 5.461000e+000 1.506491e+000
         vertex -1.094071e+000 8.000999e+000 1.506491e+000
      endloop
   endfacet
   facet normal 7.179601e-001 -1.681176e-016 -6.960843e-001
      outer loop
         vertex -1.094071e+000 8.000999e+000 1.506491e+000
         vertex -1.094071e+000 5.461000e+000 1.506491e+000
         vertex -1.186062e+000 5.461000e+000 1.403574e+000
      endloop
   endfacet
   facet normal 7.719660e-001 -1.646428e-016 -6.356639e-001
      outer loop
         vertex -1.094071e+000 8.000999e+000 1.506491e+000
         vertex -1.186062e+000 5.461000e+000 1.403574e+000
         vertex -1.186062e+000 8.000999e+000 1.403574e+000
      endloop
   endfacet
   facet normal 8.639156e-001 -1.545593e-016 -5.036367e-001
      outer loop
         vertex -1.186062e+000 8.000999e+000 1.403574e+000
         vertex -1.186062e+000 5.461000e+000 1.403574e+000
         vertex -1.250693e+000 5.461000e+000 1.281602e+000
      endloop
   endfacet
   facet normal 9.018592e-001 -1.479504e-016 -4.320300e-001
      outer loop
         vertex -1.186062e+000 8.000999e+000 1.403574e+000
         vertex -1.250693e+000 5.461000e+000 1.281602e+000
         vertex -1.250693e+000 8.000999e+000 1.281602e+000
      endloop
   endfacet
   facet normal 9.594710e-001 -1.319841e-016 -2.818075e-001
      outer loop
         vertex -1.250693e+000 8.000999e+000 1.281602e+000
         vertex -1.250693e+000 5.461000e+000 1.281602e+000
         vertex -1.284195e+000 5.461000e+000 1.147692e+000
      endloop
   endfacet
   facet normal 9.791390e-001 -1.226267e-016 -2.031918e-001
      outer loop
         vertex -1.250693e+000 8.000999e+000 1.281602e+000
         vertex -1.284195e+000 5.461000e+000 1.147692e+000
         vertex -1.284195e+000 8.000999e+000 1.147692e+000
      endloop
   endfacet
   facet normal 9.990517e-001 -1.017092e-016 -4.353790e-002
      outer loop
         vertex -1.284195e+000 8.000999e+000 1.147692e+000
         vertex -1.284195e+000 5.461000e+000 1.147692e+000
         vertex -1.284612e+000 5.461000e+000 1.009656e+000
      endloop
   endfacet
   facet normal 9.992966e-001 -9.014908e-017 3.750034e-002
      outer loop
         vertex -1.284195e+000 8.000999e+000 1.147692e+000
         vertex -1.284612e+000 5.461000e+000 1.009656e+000
         vertex -1.284612e+000 8.000999e+000 1.009656e+000
      endloop
   endfacet
   facet normal 9.803489e-001 -6.550061e-017 1.972717e-001
      outer loop
         vertex -1.284612e+000 8.000999e+000 1.009656e+000
         vertex -1.284612e+000 5.461000e+000 1.009656e+000
         vertex -1.251920e+000 5.461000e+000 8.755458e-001
      endloop
   endfacet
   facet normal 9.611562e-001 -5.241223e-017 2.760048e-001
      outer loop
         vertex -1.284612e+000 8.000999e+000 1.009656e+000
         vertex -1.251920e+000 5.461000e+000 8.755457e-001
         vertex -1.251920e+000 8.000999e+000 8.755458e-001
      endloop
   endfacet
   facet normal 9.044533e-001 -2.547079e-017 4.265726e-001
      outer loop
         vertex -1.251920e+000 8.000999e+000 8.755457e-001
         vertex -1.251920e+000 5.461000e+000 8.755457e-001
         vertex -1.188027e+000 5.461000e+000 7.531860e-001
      endloop
   endfacet
   facet normal 8.669430e-001 -1.161772e-017 4.984073e-001
      outer loop
         vertex -1.251920e+000 8.000999e+000 8.755457e-001
         vertex -1.188027e+000 5.461000e+000 7.531860e-001
         vertex -1.188027e+000 8.000999e+000 7.531860e-001
      endloop
   endfacet
   facet normal 7.757928e-001 1.604497e-017 6.309877e-001
      outer loop
         vertex -1.188027e+000 8.000999e+000 7.531860e-001
         vertex -1.188027e+000 5.461000e+000 7.531860e-001
         vertex -1.096660e+000 5.461000e+000 6.497150e-001
      endloop
   endfacet
   facet normal 7.221531e-001 2.985458e-017 6.917333e-001
      outer loop
         vertex -1.188027e+000 8.000999e+000 7.531860e-001
         vertex -1.096660e+000 5.461000e+000 6.497150e-001
         vertex -1.096660e+000 8.000999e+000 6.497150e-001
      endloop
   endfacet
   facet normal 6.018733e-001 5.662469e-017 7.985916e-001
      outer loop
         vertex -1.096660e+000 8.000999e+000 6.497150e-001
         vertex -1.096660e+000 5.461000e+000 6.497150e-001
         vertex -9.831486e-001 5.461000e+000 5.711690e-001
      endloop
   endfacet
   facet normal 5.352334e-001 6.958519e-017 8.447042e-001
      outer loop
         vertex -1.096660e+000 8.000999e+000 6.497150e-001
         vertex -9.831486e-001 5.461000e+000 5.711690e-001
         vertex -9.831486e-001 8.000999e+000 5.711690e-001
      endloop
   endfacet
   facet normal 3.928412e-001 9.390097e-017 9.196063e-001
      outer loop
         vertex -9.831486e-001 8.000999e+000 5.711690e-001
         vertex -9.831486e-001 5.461000e+000 5.711690e-001
         vertex -8.541158e-001 5.461000e+000 5.221304e-001
      endloop
   endfacet
   facet normal 3.170888e-001 1.052563e-016 9.483958e-001
      outer loop
         vertex -9.831486e-001 8.000999e+000 5.711690e-001
         vertex -8.541158e-001 5.461000e+000 5.221304e-001
         vertex -8.541158e-001 8.000999e+000 5.221304e-001
      endloop
   endfacet
   facet normal 1.608910e-001 1.256992e-016 9.869722e-001
      outer loop
         vertex -8.541158e-001 8.000999e+000 5.221304e-001
         vertex -8.541158e-001 5.461000e+000 5.221304e-001
         vertex -7.170890e-001 5.461000e+000 5.054600e-001
      endloop
   endfacet
   facet normal 8.044549e-002 1.347868e-016 9.967590e-001
      outer loop
         vertex -8.541158e-001 8.000999e+000 5.221304e-001
         vertex -7.170890e-001 5.461000e+000 5.054600e-001
         vertex -7.170890e-001 8.000999e+000 5.054600e-001
      endloop
   endfacet
   facet normal -8.044545e-002 1.501642e-016 9.967590e-001
      outer loop
         vertex -7.170890e-001 8.000999e+000 5.054600e-001
         vertex -7.170890e-001 5.461000e+000 5.054600e-001
         vertex -5.800622e-001 5.461000e+000 5.221304e-001
      endloop
   endfacet
   facet normal -1.608909e-001 1.564540e-016 9.869722e-001
      outer loop
         vertex -7.170890e-001 8.000999e+000 5.054600e-001
         vertex -5.800622e-001 5.461000e+000 5.221304e-001
         vertex -5.800622e-001 8.000999e+000 5.221304e-001
      endloop
   endfacet
   facet normal -3.170888e-001 1.658688e-016 9.483958e-001
      outer loop
         vertex -5.800622e-001 8.000999e+000 5.221304e-001
         vertex -5.800622e-001 5.461000e+000 5.221304e-001
         vertex -4.510294e-001 5.461000e+000 5.711690e-001
      endloop
   endfacet
   facet normal -3.928411e-001 1.689938e-016 9.196064e-001
      outer loop
         vertex -5.800622e-001 8.000999e+000 5.221304e-001
         vertex -4.510294e-001 5.461000e+000 5.711690e-001
         vertex -4.510294e-001 8.000999e+000 5.711690e-001
      endloop
   endfacet
   facet normal -5.352334e-001 1.718967e-016 8.447042e-001
      outer loop
         vertex -4.510294e-001 8.000999e+000 5.711690e-001
         vertex -4.510294e-001 5.461000e+000 5.711690e-001
         vertex -3.375183e-001 5.461000e+000 6.497150e-001
      endloop
   endfacet
   facet normal -6.018733e-001 1.716747e-016 7.985916e-001
      outer loop
         vertex -4.510294e-001 8.000999e+000 5.711690e-001
         vertex -3.375183e-001 5.461000e+000 6.497150e-001
         vertex -3.375183e-001 8.000999e+000 6.497150e-001
      endloop
   endfacet
   facet normal -7.221531e-001 1.678964e-016 6.917333e-001
      outer loop
         vertex -3.375183e-001 8.000999e+000 6.497150e-001
         vertex -3.375183e-001 5.461000e+000 6.497150e-001
         vertex -2.461509e-001 5.461000e+000 7.531860e-001
      endloop
   endfacet
   facet normal -7.757928e-001 1.643402e-016 6.309877e-001
      outer loop
         vertex -3.375183e-001 8.000999e+000 6.497150e-001
         vertex -2.461509e-001 5.461000e+000 7.531860e-001
         vertex -2.461509e-001 8.000999e+000 7.531860e-001
      endloop
   endfacet
   facet normal -8.669430e-001 1.541011e-016 4.984073e-001
      outer loop
         vertex -2.461509e-001 8.000999e+000 7.531860e-001
         vertex -2.461509e-001 5.461000e+000 7.531860e-001
         vertex -1.822577e-001 5.461000e+000 8.755458e-001
      endloop
   endfacet
   facet normal -9.044533e-001 1.474183e-016 4.265726e-001
      outer loop
         vertex -2.461509e-001 8.000999e+000 7.531860e-001
         vertex -1.822577e-001 5.461000e+000 8.755457e-001
         vertex -1.822577e-001 8.000999e+000 8.755458e-001
      endloop
   endfacet
   facet normal -9.611562e-001 1.313158e-016 2.760048e-001
      outer loop
         vertex -1.822577e-001 8.000999e+000 8.755457e-001
         vertex -1.822577e-001 5.461000e+000 8.755457e-001
         vertex -1.495660e-001 5.461000e+000 1.009656e+000
      endloop
   endfacet
   facet normal -9.803488e-001 1.218961e-016 1.972717e-001
      outer loop
         vertex -1.822577e-001 8.000999e+000 8.755457e-001
         vertex -1.495660e-001 5.461000e+000 1.009656e+000
         vertex -1.495660e-001 8.000999e+000 1.009656e+000
      endloop
   endfacet
   facet normal -9.992966e-001 1.008696e-016 3.750038e-002
      outer loop
         vertex -1.495660e-001 8.000999e+000 1.009656e+000
         vertex -1.495660e-001 5.461000e+000 1.009656e+000
         vertex -1.499830e-001 5.461000e+000 1.147692e+000
      endloop
   endfacet
   facet normal -9.990517e-001 8.926269e-017 -4.353786e-002
      outer loop
         vertex -1.495660e-001 8.000999e+000 1.009656e+000
         vertex -1.499830e-001 5.461000e+000 1.147692e+000
         vertex -1.499830e-001 8.000999e+000 1.147692e+000
      endloop
   endfacet
   facet normal -9.791390e-001 6.453876e-017 -2.031918e-001
      outer loop
         vertex -1.499830e-001 8.000999e+000 1.147692e+000
         vertex -1.499830e-001 5.461000e+000 1.147692e+000
         vertex -1.834845e-001 5.461000e+000 1.281602e+000
      endloop
   endfacet
   facet normal -9.594710e-001 5.142173e-017 -2.818075e-001
      outer loop
         vertex -1.499830e-001 8.000999e+000 1.147692e+000
         vertex -1.834845e-001 5.461000e+000 1.281602e+000
         vertex -1.834845e-001 8.000999e+000 1.281602e+000
      endloop
   endfacet
   facet normal -9.018593e-001 2.444279e-017 -4.320299e-001
      outer loop
         vertex -1.834845e-001 8.000999e+000 1.281602e+000
         vertex -1.834845e-001 5.461000e+000 1.281602e+000
         vertex -2.481159e-001 5.461000e+000 1.403574e+000
      endloop
   endfacet
   facet normal -8.639156e-001 1.058088e-017 -5.036367e-001
      outer loop
         vertex -1.834845e-001 8.000999e+000 1.281602e+000
         vertex -2.481159e-001 5.461000e+000 1.403574e+000
         vertex -2.481159e-001 8.000999e+000 1.403574e+000
      endloop
   endfacet
   facet normal -7.719660e-001 -1.707914e-017 -6.356639e-001
      outer loop
         vertex -2.481159e-001 8.000999e+000 1.403574e+000
         vertex -2.481159e-001 5.461000e+000 1.403574e+000
         vertex -3.401068e-001 5.461000e+000 1.506491e+000
      endloop
   endfacet
   facet normal -7.179601e-001 -3.087725e-017 -6.960843e-001
      outer loop
         vertex -2.481159e-001 8.000999e+000 1.403574e+000
         vertex -3.401068e-001 5.461000e+000 1.506491e+000
         vertex -3.401068e-001 8.000999e+000 1.506491e+000
      endloop
   endfacet
   facet normal -5.970369e-001 -5.760469e-017 -8.022138e-001
      outer loop
         vertex -3.401068e-001 8.000999e+000 1.506491e+000
         vertex -3.401068e-001 5.461000e+000 1.506491e+000
         vertex -4.540904e-001 5.461000e+000 1.584349e+000
      endloop
   endfacet
   facet normal -5.301195e-001 -7.053403e-017 -8.479229e-001
      outer loop
         vertex -3.401068e-001 8.000999e+000 1.506491e+000
         vertex -4.540904e-001 5.461000e+000 1.584349e+000
         vertex -4.540904e-001 8.000999e+000 1.584349e+000
      endloop
   endfacet
   facet normal -7.513168e-001 1.661395e-016 6.599417e-001
      outer loop
         vertex -9.721650e-001 5.461000e+000 2.059767e+000
         vertex -9.721650e-001 8.000999e+000 2.059767e+000
         vertex -1.037604e+000 8.000999e+000 1.991258e+000
      endloop
   endfacet
   facet normal -6.936676e-001 1.692565e-016 7.202953e-001
      outer loop
         vertex -9.721650e-001 5.461000e+000 2.059767e+000
         vertex -1.037604e+000 8.000999e+000 1.991258e+000
         vertex -1.037604e+000 5.461000e+000 1.991258e+000
      endloop
   endfacet
   facet normal -5.652603e-001 1.719376e-016 8.249126e-001
      outer loop
         vertex -1.037604e+000 5.461000e+000 1.991258e+000
         vertex -1.037604e+000 8.000999e+000 1.991258e+000
         vertex -1.117923e+000 8.000999e+000 1.941014e+000
      endloop
   endfacet
   facet normal -4.945022e-001 1.715018e-016 8.691764e-001
      outer loop
         vertex -1.037604e+000 5.461000e+000 1.991258e+000
         vertex -1.117923e+000 8.000999e+000 1.941014e+000
         vertex -1.117923e+000 5.461000e+000 1.941014e+000
      endloop
   endfacet
   facet normal 4.945022e-001 7.697616e-017 8.691764e-001
      outer loop
         vertex -3.162552e-001 5.461000e+000 1.941014e+000
         vertex -3.162552e-001 8.000999e+000 1.941014e+000
         vertex -3.965742e-001 8.000999e+000 1.991258e+000
      endloop
   endfacet
   facet normal 5.652603e-001 6.388634e-017 8.249126e-001
      outer loop
         vertex -3.162552e-001 5.461000e+000 1.941014e+000
         vertex -3.965742e-001 8.000999e+000 1.991258e+000
         vertex -3.965742e-001 5.461000e+000 1.991258e+000
      endloop
   endfacet
   facet normal 6.936676e-001 3.665973e-017 7.202953e-001
      outer loop
         vertex -3.965742e-001 5.461000e+000 1.991258e+000
         vertex -3.965742e-001 8.000999e+000 1.991258e+000
         vertex -4.620130e-001 8.000999e+000 2.059767e+000
      endloop
   endfacet
   facet normal 7.513168e-001 2.252295e-017 6.599417e-001
      outer loop
         vertex -3.965742e-001 5.461000e+000 1.991258e+000
         vertex -4.620130e-001 8.000999e+000 2.059767e+000
         vertex -4.620130e-001 5.461000e+000 2.059767e+000
      endloop
   endfacet
   facet normal 8.696162e-001 -1.536878e-016 -4.937285e-001
      outer loop
         vertex -8.631993e-001 8.000999e+000 1.710535e+000
         vertex -8.631993e-001 5.461000e+000 1.710535e+000
         vertex -9.106370e-001 5.461000e+000 1.637247e+000
      endloop
   endfacet
   facet normal 8.065284e-001 -1.615899e-016 -5.911953e-001
      outer loop
         vertex -8.631993e-001 8.000999e+000 1.710535e+000
         vertex -9.106370e-001 5.461000e+000 1.637247e+000
         vertex -9.106370e-001 8.000999e+000 1.637247e+000
      endloop
   endfacet
   facet normal 6.510777e-001 -1.707199e-016 -7.590110e-001
      outer loop
         vertex -9.106370e-001 8.000999e+000 1.637247e+000
         vertex -9.106370e-001 5.461000e+000 1.637247e+000
         vertex -9.800876e-001 5.461000e+000 1.584349e+000
      endloop
   endfacet
   facet normal 5.587148e-001 -1.719477e-016 -8.293598e-001
      outer loop
         vertex -9.106370e-001 8.000999e+000 1.637247e+000
         vertex -9.800876e-001 5.461000e+000 1.584349e+000
         vertex -9.800876e-001 8.000999e+000 1.584349e+000
      endloop
   endfacet
   facet normal -5.587148e-001 -6.514761e-017 -8.293598e-001
      outer loop
         vertex -4.540904e-001 8.000999e+000 1.584349e+000
         vertex -4.540904e-001 5.461000e+000 1.584349e+000
         vertex -5.235410e-001 5.461000e+000 1.637247e+000
      endloop
   endfacet
   facet normal -6.510777e-001 -4.626431e-017 -7.590110e-001
      outer loop
         vertex -4.540904e-001 8.000999e+000 1.584349e+000
         vertex -5.235410e-001 5.461000e+000 1.637247e+000
         vertex -5.235410e-001 8.000999e+000 1.637247e+000
      endloop
   endfacet
   facet normal -8.065284e-001 -7.419506e-018 -5.911953e-001
      outer loop
         vertex -5.235410e-001 8.000999e+000 1.637247e+000
         vertex -5.235410e-001 5.461000e+000 1.637247e+000
         vertex -5.709787e-001 5.461000e+000 1.710535e+000
      endloop
   endfacet
   facet normal -8.696162e-001 1.254200e-017 -4.937284e-001
      outer loop
         vertex -5.235410e-001 8.000999e+000 1.637247e+000
         vertex -5.709787e-001 5.461000e+000 1.710535e+000
         vertex -5.709787e-001 8.000999e+000 1.710535e+000
      endloop
   endfacet
endsolid