solid huacha4
   facet normal -5.250535e-001 -8.510692e-001 0.000000e+000
      outer loop
         vertex -1.250000e+000 2.165063e+000 2.000000e+000
         vertex -1.250000e+000 2.165063e+000 0.000000e+000
         vertex -1.065453e+000 2.047456e+000 0.000000e+000
      endloop
   endfacet
   facet normal -5.496808e-001 -8.353748e-001 0.000000e+000
      outer loop
         vertex -1.250000e+000 2.165063e+000 2.000000e+000
         vertex -1.065453e+000 2.047456e+000 0.000000e+000
         vertex -1.065453e+000 2.047456e+000 2.000000e+000
      endloop
   endfacet
   facet normal -5.974684e-001 -8.018924e-001 0.000000e+000
      outer loop
         vertex -1.065453e+000 2.047456e+000 2.000000e+000
         vertex -1.065453e+000 2.047456e+000 0.000000e+000
         vertex -8.918976e-001 1.914160e+000 0.000000e+000
      endloop
   endfacet
   facet normal -6.206289e-001 -7.841045e-001 0.000000e+000
      outer loop
         vertex -1.065453e+000 2.047456e+000 2.000000e+000
         vertex -8.918976e-001 1.914160e+000 0.000000e+000
         vertex -8.918976e-001 1.914160e+000 2.000000e+000
      endloop
   endfacet
   facet normal -6.653054e-001 -7.465713e-001 0.000000e+000
      outer loop
         vertex -8.918976e-001 1.914160e+000 2.000000e+000
         vertex -8.918976e-001 1.914160e+000 0.000000e+000
         vertex -7.306641e-001 1.766197e+000 0.000000e+000
      endloop
   endfacet
   facet normal -6.868216e-001 -7.268261e-001 0.000000e+000
      outer loop
         vertex -8.918976e-001 1.914160e+000 2.000000e+000
         vertex -7.306641e-001 1.766197e+000 0.000000e+000
         vertex -7.306641e-001 1.766197e+000 2.000000e+000
      endloop
   endfacet
   facet normal -7.280447e-001 -6.855297e-001 0.000000e+000
      outer loop
         vertex -7.306641e-001 1.766197e+000 2.000000e+000
         vertex -7.306641e-001 1.766197e+000 0.000000e+000
         vertex -5.829877e-001 1.604700e+000 0.000000e+000
      endloop
   endfacet
   facet normal -7.477517e-001 -6.639785e-001 0.000000e+000
      outer loop
         vertex -7.306641e-001 1.766197e+000 2.000000e+000
         vertex -5.829877e-001 1.604700e+000 0.000000e+000
         vertex -5.829877e-001 1.604700e+000 2.000000e+000
      endloop
   endfacet
   facet normal -7.852054e-001 -6.192354e-001 0.000000e+000
      outer loop
         vertex -5.829877e-001 1.604700e+000 2.000000e+000
         vertex -5.829877e-001 1.604700e+000 0.000000e+000
         vertex -4.500000e-001 1.430909e+000 0.000000e+000
      endloop
   endfacet
   facet normal -8.029522e-001 -5.960434e-001 0.000000e+000
      outer loop
         vertex -5.829877e-001 1.604700e+000 2.000000e+000
         vertex -4.500000e-001 1.430909e+000 0.000000e+000
         vertex -4.500000e-001 1.430909e+000 2.000000e+000
      endloop
   endfacet
   facet normal 2.586310e-001 -9.659762e-001 0.000000e+000
      outer loop
         vertex -4.500000e-001 1.430909e+000 2.000000e+000
         vertex -4.500000e-001 1.430909e+000 0.000000e+000
         vertex -2.616771e-001 1.476999e+000 0.000000e+000
      endloop
   endfacet
   facet normal 2.167036e-001 -9.762375e-001 0.000000e+000
      outer loop
         vertex -4.500000e-001 1.430909e+000 2.000000e+000
         vertex -2.616771e-001 1.476999e+000 0.000000e+000
         vertex -2.616771e-001 1.476999e+000 2.000000e+000
      endloop
   endfacet
   facet normal 1.318754e-001 -9.912663e-001 0.000000e+000
      outer loop
         vertex -2.616771e-001 1.476999e+000 2.000000e+000
         vertex -2.616771e-001 1.476999e+000 0.000000e+000
         vertex -6.898244e-002 1.498413e+000 0.000000e+000
      endloop
   endfacet
   facet normal 8.897464e-002 -9.960339e-001 0.000000e+000
      outer loop
         vertex -2.616771e-001 1.476999e+000 2.000000e+000
         vertex -6.898244e-002 1.498413e+000 0.000000e+000
         vertex -6.898244e-002 1.498413e+000 2.000000e+000
      endloop
   endfacet
   facet normal 2.916577e-003 -9.999958e-001 0.000000e+000
      outer loop
         vertex -6.898244e-002 1.498413e+000 2.000000e+000
         vertex -6.898244e-002 1.498413e+000 0.000000e+000
         vertex 1.248647e-001 1.494794e+000 0.000000e+000
      endloop
   endfacet
   facet normal -4.024074e-002 -9.991900e-001 0.000000e+000
      outer loop
         vertex -6.898244e-002 1.498413e+000 2.000000e+000
         vertex 1.248647e-001 1.494794e+000 0.000000e+000
         vertex 1.248647e-001 1.494794e+000 2.000000e+000
      endloop
   endfacet
   facet normal -1.260910e-001 -9.920187e-001 0.000000e+000
      outer loop
         vertex 1.248647e-001 1.494794e+000 2.000000e+000
         vertex 1.248647e-001 1.494794e+000 0.000000e+000
         vertex 3.166257e-001 1.466202e+000 0.000000e+000
      endloop
   endfacet
   facet normal -1.687838e-001 -9.856531e-001 0.000000e+000
      outer loop
         vertex 1.248647e-001 1.494794e+000 2.000000e+000
         vertex 3.166257e-001 1.466202e+000 0.000000e+000
         vertex 3.166257e-001 1.466202e+000 2.000000e+000
      endloop
   endfacet
   facet normal -2.529919e-001 -9.674684e-001 0.000000e+000
      outer loop
         vertex 3.166257e-001 1.466202e+000 2.000000e+000
         vertex 3.166257e-001 1.466202e+000 0.000000e+000
         vertex 5.030970e-001 1.413115e+000 0.000000e+000
      endloop
   endfacet
   facet normal -2.945071e-001 -9.556493e-001 0.000000e+000
      outer loop
         vertex 3.166257e-001 1.466202e+000 2.000000e+000
         vertex 5.030970e-001 1.413115e+000 0.000000e+000
         vertex 5.030970e-001 1.413115e+000 2.000000e+000
      endloop
   endfacet
   facet normal -3.756663e-001 -9.267550e-001 0.000000e+000
      outer loop
         vertex 5.030970e-001 1.413115e+000 2.000000e+000
         vertex 5.030970e-001 1.413115e+000 0.000000e+000
         vertex 6.811633e-001 1.336419e+000 0.000000e+000
      endloop
   endfacet
   facet normal -4.153102e-001 -9.096798e-001 0.000000e+000
      outer loop
         vertex 5.030970e-001 1.413115e+000 2.000000e+000
         vertex 6.811633e-001 1.336419e+000 0.000000e+000
         vertex 6.811633e-001 1.336419e+000 2.000000e+000
      endloop
   endfacet
   facet normal -4.920645e-001 -8.705587e-001 0.000000e+000
      outer loop
         vertex 6.811633e-001 1.336419e+000 2.000000e+000
         vertex 6.811633e-001 1.336419e+000 0.000000e+000
         vertex 8.478497e-001 1.237397e+000 0.000000e+000
      endloop
   endfacet
   facet normal -5.291749e-001 -8.485128e-001 0.000000e+000
      outer loop
         vertex 6.811633e-001 1.336419e+000 2.000000e+000
         vertex 8.478497e-001 1.237397e+000 0.000000e+000
         vertex 8.478497e-001 1.237397e+000 2.000000e+000
      endloop
   endfacet
   facet normal -6.002421e-001 -7.998184e-001 0.000000e+000
      outer loop
         vertex 8.478497e-001 1.237397e+000 2.000000e+000
         vertex 8.478497e-001 1.237397e+000 0.000000e+000
         vertex 1.000371e+000 1.117702e+000 0.000000e+000
      endloop
   endfacet
   facet normal -6.341989e-001 -7.731699e-001 0.000000e+000
      outer loop
         vertex 8.478497e-001 1.237397e+000 2.000000e+000
         vertex 1.000371e+000 1.117702e+000 0.000000e+000
         vertex 1.000371e+000 1.117702e+000 2.000000e+000
      endloop
   endfacet
   facet normal -6.983917e-001 -7.157158e-001 0.000000e+000
      outer loop
         vertex 1.000371e+000 1.117702e+000 2.000000e+000
         vertex 1.000371e+000 1.117702e+000 0.000000e+000
         vertex 1.136180e+000 9.793336e-001 0.000000e+000
      endloop
   endfacet
   facet normal -7.286276e-001 -6.849101e-001 0.000000e+000
      outer loop
         vertex 1.000371e+000 1.117702e+000 2.000000e+000
         vertex 1.136180e+000 9.793336e-001 0.000000e+000
         vertex 1.136180e+000 9.793336e-001 2.000000e+000
      endloop
   endfacet
   facet normal -7.848734e-001 -6.196561e-001 0.000000e+000
      outer loop
         vertex 1.136180e+000 9.793336e-001 2.000000e+000
         vertex 1.136180e+000 9.793336e-001 0.000000e+000
         vertex 1.253008e+000 8.246042e-001 0.000000e+000
      endloop
   endfacet
   facet normal -8.108833e-001 -5.852078e-001 0.000000e+000
      outer loop
         vertex 1.136180e+000 9.793336e-001 2.000000e+000
         vertex 1.253008e+000 8.246042e-001 0.000000e+000
         vertex 1.253008e+000 8.246042e-001 2.000000e+000
      endloop
   endfacet
   facet normal -8.582428e-001 -5.132440e-001 0.000000e+000
      outer loop
         vertex 1.253008e+000 8.246042e-001 2.000000e+000
         vertex 1.253008e+000 8.246042e-001 0.000000e+000
         vertex 1.348901e+000 6.560984e-001 0.000000e+000
      endloop
   endfacet
   facet normal -8.795921e-001 -4.757286e-001 0.000000e+000
      outer loop
         vertex 1.253008e+000 8.246042e-001 2.000000e+000
         vertex 1.348901e+000 6.560984e-001 0.000000e+000
         vertex 1.348901e+000 6.560984e-001 2.000000e+000
      endloop
   endfacet
   facet normal -9.172737e-001 -3.982574e-001 0.000000e+000
      outer loop
         vertex 1.348901e+000 6.560984e-001 2.000000e+000
         vertex 1.348901e+000 6.560984e-001 0.000000e+000
         vertex 1.422260e+000 4.766316e-001 0.000000e+000
      endloop
   endfacet
   facet normal -9.336058e-001 -3.583016e-001 0.000000e+000
      outer loop
         vertex 1.348901e+000 6.560984e-001 2.000000e+000
         vertex 1.422260e+000 4.766316e-001 0.000000e+000
         vertex 1.422260e+000 4.766316e-001 2.000000e+000
      endloop
   endfacet
   facet normal -9.609802e-001 -2.766173e-001 0.000000e+000
      outer loop
         vertex 1.422260e+000 4.766316e-001 2.000000e+000
         vertex 1.422260e+000 4.766316e-001 0.000000e+000
         vertex 1.471857e+000 2.892018e-001 0.000000e+000
      endloop
   endfacet
   facet normal -9.720223e-001 -2.348887e-001 0.000000e+000
      outer loop
         vertex 1.422260e+000 4.766316e-001 2.000000e+000
         vertex 1.471857e+000 2.892018e-001 0.000000e+000
         vertex 1.471857e+000 2.892018e-001 2.000000e+000
      endloop
   endfacet
   facet normal -9.886320e-001 -1.503558e-001 0.000000e+000
      outer loop
         vertex 1.471857e+000 2.892018e-001 2.000000e+000
         vertex 1.471857e+000 2.892018e-001 0.000000e+000
         vertex 1.496864e+000 9.694044e-002 0.000000e+000
      endloop
   endfacet
   facet normal -9.941995e-001 -1.075515e-001 0.000000e+000
      outer loop
         vertex 1.471857e+000 2.892018e-001 2.000000e+000
         vertex 1.496864e+000 9.694044e-002 0.000000e+000
         vertex 1.496864e+000 9.694044e-002 2.000000e+000
      endloop
   endfacet
   facet normal -9.997671e-001 -2.158242e-002 0.000000e+000
      outer loop
         vertex 1.496864e+000 9.694044e-002 2.000000e+000
         vertex 1.496864e+000 9.694044e-002 0.000000e+000
         vertex 1.496864e+000 -9.694044e-002 0.000000e+000
      endloop
   endfacet
   facet normal -9.997671e-001 2.158242e-002 0.000000e+000
      outer loop
         vertex 1.496864e+000 9.694044e-002 2.000000e+000
         vertex 1.496864e+000 -9.694044e-002 0.000000e+000
         vertex 1.496864e+000 -9.694044e-002 2.000000e+000
      endloop
   endfacet
   facet normal -9.941995e-001 1.075515e-001 0.000000e+000
      outer loop
         vertex 1.496864e+000 -9.694044e-002 2.000000e+000
         vertex 1.496864e+000 -9.694044e-002 0.000000e+000
         vertex 1.471857e+000 -2.892018e-001 0.000000e+000
      endloop
   endfacet
   facet normal -9.886320e-001 1.503558e-001 0.000000e+000
      outer loop
         vertex 1.496864e+000 -9.694044e-002 2.000000e+000
         vertex 1.471857e+000 -2.892018e-001 0.000000e+000
         vertex 1.471857e+000 -2.892018e-001 2.000000e+000
      endloop
   endfacet
   facet normal -9.720223e-001 2.348887e-001 0.000000e+000
      outer loop
         vertex 1.471857e+000 -2.892018e-001 2.000000e+000
         vertex 1.471857e+000 -2.892018e-001 0.000000e+000
         vertex 1.422260e+000 -4.766316e-001 0.000000e+000
      endloop
   endfacet
   facet normal -9.609802e-001 2.766173e-001 0.000000e+000
      outer loop
         vertex 1.471857e+000 -2.892018e-001 2.000000e+000
         vertex 1.422260e+000 -4.766316e-001 0.000000e+000
         vertex 1.422260e+000 -4.766316e-001 2.000000e+000
      endloop
   endfacet
   facet normal -9.336058e-001 3.583016e-001 0.000000e+000
      outer loop
         vertex 1.422260e+000 -4.766316e-001 2.000000e+000
         vertex 1.422260e+000 -4.766316e-001 0.000000e+000
         vertex 1.348901e+000 -6.560984e-001 0.000000e+000
      endloop
   endfacet
   facet normal -9.172737e-001 3.982574e-001 0.000000e+000
      outer loop
         vertex 1.422260e+000 -4.766316e-001 2.000000e+000
         vertex 1.348901e+000 -6.560984e-001 0.000000e+000
         vertex 1.348901e+000 -6.560984e-001 2.000000e+000
      endloop
   endfacet
   facet normal -8.795921e-001 4.757286e-001 0.000000e+000
      outer loop
         vertex 1.348901e+000 -6.560984e-001 2.000000e+000
         vertex 1.348901e+000 -6.560984e-001 0.000000e+000
         vertex 1.253008e+000 -8.246042e-001 0.000000e+000
      endloop
   endfacet
   facet normal -8.582428e-001 5.132440e-001 0.000000e+000
      outer loop
         vertex 1.348901e+000 -6.560984e-001 2.000000e+000
         vertex 1.253008e+000 -8.246042e-001 0.000000e+000
         vertex 1.253008e+000 -8.246042e-001 2.000000e+000
      endloop
   endfacet
   facet normal -8.108833e-001 5.852078e-001 0.000000e+000
      outer loop
         vertex 1.253008e+000 -8.246042e-001 2.000000e+000
         vertex 1.253008e+000 -8.246042e-001 0.000000e+000
         vertex 1.136180e+000 -9.793336e-001 0.000000e+000
      endloop
   endfacet
   facet normal -7.848734e-001 6.196561e-001 0.000000e+000
      outer loop
         vertex 1.253008e+000 -8.246042e-001 2.000000e+000
         vertex 1.136180e+000 -9.793336e-001 0.000000e+000
         vertex 1.136180e+000 -9.793336e-001 2.000000e+000
      endloop
   endfacet
   facet normal -7.286276e-001 6.849101e-001 0.000000e+000
      outer loop
         vertex 1.136180e+000 -9.793336e-001 2.000000e+000
         vertex 1.136180e+000 -9.793336e-001 0.000000e+000
         vertex 1.000371e+000 -1.117702e+000 0.000000e+000
      endloop
   endfacet
   facet normal -6.983917e-001 7.157158e-001 0.000000e+000
      outer loop
         vertex 1.136180e+000 -9.793336e-001 2.000000e+000
         vertex 1.000371e+000 -1.117702e+000 0.000000e+000
         vertex 1.000371e+000 -1.117702e+000 2.000000e+000
      endloop
   endfacet
   facet normal -6.341989e-001 7.731699e-001 0.000000e+000
      outer loop
         vertex 1.000371e+000 -1.117702e+000 2.000000e+000
         vertex 1.000371e+000 -1.117702e+000 0.000000e+000
         vertex 8.478497e-001 -1.237397e+000 0.000000e+000
      endloop
   endfacet
   facet normal -6.002421e-001 7.998184e-001 0.000000e+000
      outer loop
         vertex 1.000371e+000 -1.117702e+000 2.000000e+000
         vertex 8.478497e-001 -1.237397e+000 0.000000e+000
         vertex 8.478497e-001 -1.237397e+000 2.000000e+000
      endloop
   endfacet
   facet normal -5.291749e-001 8.485128e-001 0.000000e+000
      outer loop
         vertex 8.478497e-001 -1.237397e+000 2.000000e+000
         vertex 8.478497e-001 -1.237397e+000 0.000000e+000
         vertex 6.811633e-001 -1.336419e+000 0.000000e+000
      endloop
   endfacet
   facet normal -4.920645e-001 8.705587e-001 0.000000e+000
      outer loop
         vertex 8.478497e-001 -1.237397e+000 2.000000e+000
         vertex 6.811633e-001 -1.336419e+000 0.000000e+000
         vertex 6.811633e-001 -1.336419e+000 2.000000e+000
      endloop
   endfacet
   facet normal -4.153102e-001 9.096798e-001 0.000000e+000
      outer loop
         vertex 6.811633e-001 -1.336419e+000 2.000000e+000
         vertex 6.811633e-001 -1.336419e+000 0.000000e+000
         vertex 5.030970e-001 -1.413115e+000 0.000000e+000
      endloop
   endfacet
   facet normal -3.756663e-001 9.267550e-001 0.000000e+000
      outer loop
         vertex 6.811633e-001 -1.336419e+000 2.000000e+000
         vertex 5.030970e-001 -1.413115e+000 0.000000e+000
         vertex 5.030970e-001 -1.413115e+000 2.000000e+000
      endloop
   endfacet
   facet normal -2.945071e-001 9.556493e-001 0.000000e+000
      outer loop
         vertex 5.030970e-001 -1.413115e+000 2.000000e+000
         vertex 5.030970e-001 -1.413115e+000 0.000000e+000
         vertex 3.166257e-001 -1.466202e+000 0.000000e+000
      endloop
   endfacet
   facet normal -2.529919e-001 9.674684e-001 0.000000e+000
      outer loop
         vertex 5.030970e-001 -1.413115e+000 2.000000e+000
         vertex 3.166257e-001 -1.466202e+000 0.000000e+000
         vertex 3.166257e-001 -1.466202e+000 2.000000e+000
      endloop
   endfacet
   facet normal -1.687838e-001 9.856531e-001 0.000000e+000
      outer loop
         vertex 3.166257e-001 -1.466202e+000 2.000000e+000
         vertex 3.166257e-001 -1.466202e+000 0.000000e+000
         vertex 1.248647e-001 -1.494794e+000 0.000000e+000
      endloop
   endfacet
   facet normal -1.260910e-001 9.920187e-001 0.000000e+000
      outer loop
         vertex 3.166257e-001 -1.466202e+000 2.000000e+000
         vertex 1.248647e-001 -1.494794e+000 0.000000e+000
         vertex 1.248647e-001 -1.494794e+000 2.000000e+000
      endloop
   endfacet
   facet normal -4.024074e-002 9.991900e-001 0.000000e+000
      outer loop
         vertex 1.248647e-001 -1.494794e+000 2.000000e+000
         vertex 1.248647e-001 -1.494794e+000 0.000000e+000
         vertex -6.898244e-002 -1.498413e+000 0.000000e+000
      endloop
   endfacet
   facet normal 2.916577e-003 9.999958e-001 0.000000e+000
      outer loop
         vertex 1.248647e-001 -1.494794e+000 2.000000e+000
         vertex -6.898244e-002 -1.498413e+000 0.000000e+000
         vertex -6.898244e-002 -1.498413e+000 2.000000e+000
      endloop
   endfacet
   facet normal 8.897464e-002 9.960339e-001 0.000000e+000
      outer loop
         vertex -6.898244e-002 -1.498413e+000 2.000000e+000
         vertex -6.898244e-002 -1.498413e+000 0.000000e+000
         vertex -2.616771e-001 -1.476999e+000 0.000000e+000
      endloop
   endfacet
   facet normal 1.318754e-001 9.912663e-001 0.000000e+000
      outer loop
         vertex -6.898244e-002 -1.498413e+000 2.000000e+000
         vertex -2.616771e-001 -1.476999e+000 0.000000e+000
         vertex -2.616771e-001 -1.476999e+000 2.000000e+000
      endloop
   endfacet
   facet normal 2.167036e-001 9.762375e-001 0.000000e+000
      outer loop
         vertex -2.616771e-001 -1.476999e+000 2.000000e+000
         vertex -2.616771e-001 -1.476999e+000 0.000000e+000
         vertex -4.500000e-001 -1.430909e+000 0.000000e+000
      endloop
   endfacet
   facet normal 2.586310e-001 9.659762e-001 0.000000e+000
      outer loop
         vertex -2.616771e-001 -1.476999e+000 2.000000e+000
         vertex -4.500000e-001 -1.430909e+000 0.000000e+000
         vertex -4.500000e-001 -1.430909e+000 2.000000e+000
      endloop
   endfacet
   facet normal -8.029522e-001 5.960434e-001 0.000000e+000
      outer loop
         vertex -4.500000e-001 -1.430909e+000 2.000000e+000
         vertex -4.500000e-001 -1.430909e+000 0.000000e+000
         vertex -5.829877e-001 -1.604700e+000 0.000000e+000
      endloop
   endfacet
   facet normal -7.852054e-001 6.192354e-001 0.000000e+000
      outer loop
         vertex -4.500000e-001 -1.430909e+000 2.000000e+000
         vertex -5.829877e-001 -1.604700e+000 0.000000e+000
         vertex -5.829877e-001 -1.604700e+000 2.000000e+000
      endloop
   endfacet
   facet normal -7.477517e-001 6.639785e-001 0.000000e+000
      outer loop
         vertex -5.829877e-001 -1.604700e+000 2.000000e+000
         vertex -5.829877e-001 -1.604700e+000 0.000000e+000
         vertex -7.306641e-001 -1.766197e+000 0.000000e+000
      endloop
   endfacet
   facet normal -7.280447e-001 6.855297e-001 0.000000e+000
      outer loop
         vertex -5.829877e-001 -1.604700e+000 2.000000e+000
         vertex -7.306641e-001 -1.766197e+000 0.000000e+000
         vertex -7.306641e-001 -1.766197e+000 2.000000e+000
      endloop
   endfacet
   facet normal -6.868216e-001 7.268261e-001 0.000000e+000
      outer loop
         vertex -7.306641e-001 -1.766197e+000 2.000000e+000
         vertex -7.306641e-001 -1.766197e+000 0.000000e+000
         vertex -8.918976e-001 -1.914160e+000 0.000000e+000
      endloop
   endfacet
   facet normal -6.653054e-001 7.465713e-001 0.000000e+000
      outer loop
         vertex -7.306641e-001 -1.766197e+000 2.000000e+000
         vertex -8.918976e-001 -1.914160e+000 0.000000e+000
         vertex -8.918976e-001 -1.914160e+000 2.000000e+000
      endloop
   endfacet
   facet normal -6.206289e-001 7.841045e-001 0.000000e+000
      outer loop
         vertex -8.918976e-001 -1.914160e+000 2.000000e+000
         vertex -8.918976e-001 -1.914160e+000 0.000000e+000
         vertex -1.065453e+000 -2.047456e+000 0.000000e+000
      endloop
   endfacet
   facet normal -5.974684e-001 8.018924e-001 0.000000e+000
      outer loop
         vertex -8.918976e-001 -1.914160e+000 2.000000e+000
         vertex -1.065453e+000 -2.047456e+000 0.000000e+000
         vertex -1.065453e+000 -2.047456e+000 2.000000e+000
      endloop
   endfacet
   facet normal -5.496808e-001 8.353748e-001 0.000000e+000
      outer loop
         vertex -1.065453e+000 -2.047456e+000 2.000000e+000
         vertex -1.065453e+000 -2.047456e+000 0.000000e+000
         vertex -1.250000e+000 -2.165063e+000 0.000000e+000
      endloop
   endfacet
   facet normal -5.250535e-001 8.510692e-001 0.000000e+000
      outer loop
         vertex -1.065453e+000 -2.047456e+000 2.000000e+000
         vertex -1.250000e+000 -2.165063e+000 0.000000e+000
         vertex -1.250000e+000 -2.165063e+000 2.000000e+000
      endloop
   endfacet
   facet normal -4.709494e-001 -8.821602e-001 0.000000e+000
      outer loop
         vertex -1.250000e+000 -2.165063e+000 2.000000e+000
         vertex -1.250000e+000 -2.165063e+000 0.000000e+000
         vertex -1.028218e+000 -2.278764e+000 0.000000e+000
      endloop
   endfacet
   facet normal -4.413457e-001 -8.973371e-001 0.000000e+000
      outer loop
         vertex -1.250000e+000 -2.165063e+000 2.000000e+000
         vertex -1.028218e+000 -2.278764e+000 0.000000e+000
         vertex -1.028218e+000 -2.278764e+000 2.000000e+000
      endloop
   endfacet
   facet normal -3.807743e-001 -9.246680e-001 0.000000e+000
      outer loop
         vertex -1.028218e+000 -2.278764e+000 2.000000e+000
         vertex -1.028218e+000 -2.278764e+000 0.000000e+000
         vertex -7.962166e-001 -2.369818e+000 0.000000e+000
      endloop
   endfacet
   facet normal -3.498066e-001 -9.368219e-001 0.000000e+000
      outer loop
         vertex -1.028218e+000 -2.278764e+000 2.000000e+000
         vertex -7.962166e-001 -2.369818e+000 0.000000e+000
         vertex -7.962166e-001 -2.369818e+000 2.000000e+000
      endloop
   endfacet
   facet normal -2.868150e-001 -9.579860e-001 0.000000e+000
      outer loop
         vertex -7.962166e-001 -2.369818e+000 2.000000e+000
         vertex -7.962166e-001 -2.369818e+000 0.000000e+000
         vertex -5.563024e-001 -2.437320e+000 0.000000e+000
      endloop
   endfacet
   facet normal -2.547910e-001 -9.669961e-001 0.000000e+000
      outer loop
         vertex -7.962166e-001 -2.369818e+000 2.000000e+000
         vertex -5.563024e-001 -2.437320e+000 0.000000e+000
         vertex -5.563024e-001 -2.437320e+000 2.000000e+000
      endloop
   endfacet
   facet normal -1.900051e-001 -9.817831e-001 0.000000e+000
      outer loop
         vertex -5.563024e-001 -2.437320e+000 2.000000e+000
         vertex -5.563024e-001 -2.437320e+000 0.000000e+000
         vertex -3.108593e-001 -2.480598e+000 0.000000e+000
      endloop
   endfacet
   facet normal -1.572432e-001 -9.875599e-001 0.000000e+000
      outer loop
         vertex -5.563024e-001 -2.437320e+000 2.000000e+000
         vertex -3.108593e-001 -2.480598e+000 0.000000e+000
         vertex -3.108593e-001 -2.480598e+000 2.000000e+000
      endloop
   endfacet
   facet normal -9.130692e-002 -9.958228e-001 0.000000e+000
      outer loop
         vertex -3.108593e-001 -2.480598e+000 2.000000e+000
         vertex -3.108593e-001 -2.480598e+000 0.000000e+000
         vertex -6.232673e-002 -2.499223e+000 0.000000e+000
      endloop
   endfacet
   facet normal -5.813260e-002 -9.983089e-001 0.000000e+000
      outer loop
         vertex -3.108593e-001 -2.480598e+000 2.000000e+000
         vertex -6.232673e-002 -2.499223e+000 0.000000e+000
         vertex -6.232673e-002 -2.499223e+000 2.000000e+000
      endloop
   endfacet
   facet normal 8.298739e-003 -9.999655e-001 0.000000e+000
      outer loop
         vertex -6.232673e-002 -2.499223e+000 2.000000e+000
         vertex -6.232673e-002 -2.499223e+000 0.000000e+000
         vertex 1.868252e-001 -2.493010e+000 0.000000e+000
      endloop
   endfacet
   facet normal 4.155574e-002 -9.991362e-001 0.000000e+000
      outer loop
         vertex -6.232673e-002 -2.499223e+000 2.000000e+000
         vertex 1.868252e-001 -2.493010e+000 0.000000e+000
         vertex 1.868252e-001 -2.493010e+000 2.000000e+000
      endloop
   endfacet
   facet normal 1.078219e-001 -9.941702e-001 0.000000e+000
      outer loop
         vertex 1.868252e-001 -2.493010e+000 2.000000e+000
         vertex 1.868252e-001 -2.493010e+000 0.000000e+000
         vertex 4.341205e-001 -2.462019e+000 0.000000e+000
      endloop
   endfacet
   facet normal 1.408311e-001 -9.900336e-001 0.000000e+000
      outer loop
         vertex 1.868252e-001 -2.493010e+000 2.000000e+000
         vertex 4.341205e-001 -2.462019e+000 0.000000e+000
         vertex 4.341205e-001 -2.462019e+000 2.000000e+000
      endloop
   endfacet
   facet normal 2.062735e-001 -9.784944e-001 0.000000e+000
      outer loop
         vertex 4.341205e-001 -2.462019e+000 2.000000e+000
         vertex 4.341205e-001 -2.462019e+000 0.000000e+000
         vertex 6.771012e-001 -2.406561e+000 0.000000e+000
      endloop
   endfacet
   facet normal 2.387068e-001 -9.710917e-001 0.000000e+000
      outer loop
         vertex 4.341205e-001 -2.462019e+000 2.000000e+000
         vertex 6.771012e-001 -2.406561e+000 0.000000e+000
         vertex 6.771012e-001 -2.406561e+000 2.000000e+000
      endloop
   endfacet
   facet normal 3.026751e-001 -9.530938e-001 0.000000e+000
      outer loop
         vertex 6.771012e-001 -2.406561e+000 2.000000e+000
         vertex 6.771012e-001 -2.406561e+000 0.000000e+000
         vertex 9.133525e-001 -2.327184e+000 0.000000e+000
      endloop
   endfacet
   facet normal 3.342101e-001 -9.424986e-001 0.000000e+000
      outer loop
         vertex 6.771012e-001 -2.406561e+000 2.000000e+000
         vertex 9.133525e-001 -2.327184e+000 0.000000e+000
         vertex 9.133525e-001 -2.327184e+000 2.000000e+000
      endloop
   endfacet
   facet normal 3.960685e-001 -9.182209e-001 0.000000e+000
      outer loop
         vertex 9.133525e-001 -2.327184e+000 2.000000e+000
         vertex 9.133525e-001 -2.327184e+000 0.000000e+000
         vertex 1.140527e+000 -2.224679e+000 0.000000e+000
      endloop
   endfacet
   facet normal 4.263919e-001 -9.045386e-001 0.000000e+000
      outer loop
         vertex 9.133525e-001 -2.327184e+000 2.000000e+000
         vertex 1.140527e+000 -2.224679e+000 0.000000e+000
         vertex 1.140527e+000 -2.224679e+000 2.000000e+000
      endloop
   endfacet
   facet normal 4.855256e-001 -8.742225e-001 0.000000e+000
      outer loop
         vertex 1.140527e+000 -2.224679e+000 2.000000e+000
         vertex 1.140527e+000 -2.224679e+000 0.000000e+000
         vertex 1.356366e+000 -2.100065e+000 0.000000e+000
      endloop
   endfacet
   facet normal 5.143360e-001 -8.575888e-001 0.000000e+000
      outer loop
         vertex 1.140527e+000 -2.224679e+000 2.000000e+000
         vertex 1.356366e+000 -2.100065e+000 0.000000e+000
         vertex 1.356366e+000 -2.100065e+000 2.000000e+000
      endloop
   endfacet
   facet normal 5.701574e-001 -8.215355e-001 0.000000e+000
      outer loop
         vertex 1.356366e+000 -2.100065e+000 2.000000e+000
         vertex 1.356366e+000 -2.100065e+000 0.000000e+000
         vertex 1.558725e+000 -1.954579e+000 0.000000e+000
      endloop
   endfacet
   facet normal 5.971684e-001 -8.021159e-001 0.000000e+000
      outer loop
         vertex 1.356366e+000 -2.100065e+000 2.000000e+000
         vertex 1.558725e+000 -1.954579e+000 0.000000e+000
         vertex 1.558725e+000 -1.954579e+000 2.000000e+000
      endloop
   endfacet
   facet normal 6.491227e-001 -7.606838e-001 0.000000e+000
      outer loop
         vertex 1.558725e+000 -1.954579e+000 2.000000e+000
         vertex 1.558725e+000 -1.954579e+000 0.000000e+000
         vertex 1.745592e+000 -1.789667e+000 0.000000e+000
      endloop
   endfacet
   facet normal 6.740659e-001 -7.386712e-001 0.000000e+000
      outer loop
         vertex 1.558725e+000 -1.954579e+000 2.000000e+000
         vertex 1.745592e+000 -1.789667e+000 0.000000e+000
         vertex 1.745592e+000 -1.789667e+000 2.000000e+000
      endloop
   endfacet
   facet normal 7.216367e-001 -6.922720e-001 0.000000e+000
      outer loop
         vertex 1.745592e+000 -1.789667e+000 2.000000e+000
         vertex 1.745592e+000 -1.789667e+000 0.000000e+000
         vertex 1.915111e+000 -1.606969e+000 0.000000e+000
      endloop
   endfacet
   facet normal 7.442642e-001 -6.678853e-001 0.000000e+000
      outer loop
         vertex 1.745592e+000 -1.789667e+000 2.000000e+000
         vertex 1.915111e+000 -1.606969e+000 0.000000e+000
         vertex 1.915111e+000 -1.606969e+000 2.000000e+000
      endloop
   endfacet
   facet normal 7.869787e-001 -6.169801e-001 0.000000e+000
      outer loop
         vertex 1.915111e+000 -1.606969e+000 2.000000e+000
         vertex 1.915111e+000 -1.606969e+000 0.000000e+000
         vertex 2.065597e+000 -1.408300e+000 0.000000e+000
      endloop
   endfacet
   facet normal 8.070657e-001 -5.904617e-001 0.000000e+000
      outer loop
         vertex 1.915111e+000 -1.606969e+000 2.000000e+000
         vertex 2.065597e+000 -1.408300e+000 0.000000e+000
         vertex 2.065597e+000 -1.408300e+000 2.000000e+000
      endloop
   endfacet
   facet normal 8.444995e-001 -5.355564e-001 0.000000e+000
      outer loop
         vertex 2.065597e+000 -1.408300e+000 2.000000e+000
         vertex 2.065597e+000 -1.408300e+000 0.000000e+000
         vertex 2.195554e+000 -1.195635e+000 0.000000e+000
      endloop
   endfacet
   facet normal 8.618462e-001 -5.071697e-001 0.000000e+000
      outer loop
         vertex 2.065597e+000 -1.408300e+000 2.000000e+000
         vertex 2.195554e+000 -1.195635e+000 0.000000e+000
         vertex 2.195554e+000 -1.195635e+000 2.000000e+000
      endloop
   endfacet
   facet normal 8.936271e-001 -4.488101e-001 0.000000e+000
      outer loop
         vertex 2.195554e+000 -1.195635e+000 2.000000e+000
         vertex 2.195554e+000 -1.195635e+000 0.000000e+000
         vertex 2.303690e+000 -9.710870e-001 0.000000e+000
      endloop
   endfacet
   facet normal 9.080613e-001 -4.188373e-001 0.000000e+000
      outer loop
         vertex 2.195554e+000 -1.195635e+000 2.000000e+000
         vertex 2.303690e+000 -9.710870e-001 0.000000e+000
         vertex 2.303690e+000 -9.710870e-001 2.000000e+000
      endloop
   endfacet
   facet normal 9.338735e-001 -3.576034e-001 0.000000e+000
      outer loop
         vertex 2.303690e+000 -9.710870e-001 2.000000e+000
         vertex 2.303690e+000 -9.710870e-001 0.000000e+000
         vertex 2.388932e+000 -7.368879e-001 0.000000e+000
      endloop
   endfacet
   facet normal 9.452516e-001 -3.263423e-001 0.000000e+000
      outer loop
         vertex 2.303690e+000 -9.710870e-001 2.000000e+000
         vertex 2.388932e+000 -7.368879e-001 0.000000e+000
         vertex 2.388932e+000 -7.368879e-001 2.000000e+000
      endloop
   endfacet
   facet normal 9.648387e-001 -2.628426e-001 0.000000e+000
      outer loop
         vertex 2.388932e+000 -7.368879e-001 2.000000e+000
         vertex 2.388932e+000 -7.368879e-001 0.000000e+000
         vertex 2.450431e+000 -4.953654e-001 0.000000e+000
      endloop
   endfacet
   facet normal 9.730477e-001 -2.306039e-001 0.000000e+000
      outer loop
         vertex 2.388932e+000 -7.368879e-001 2.000000e+000
         vertex 2.450431e+000 -4.953654e-001 0.000000e+000
         vertex 2.450431e+000 -4.953654e-001 2.000000e+000
      endloop
   endfacet
   facet normal 9.862149e-001 -1.654695e-001 0.000000e+000
      outer loop
         vertex 2.450431e+000 -4.953654e-001 2.000000e+000
         vertex 2.450431e+000 -4.953654e-001 0.000000e+000
         vertex 2.487577e+000 -2.489196e-001 0.000000e+000
      endloop
   endfacet
   facet normal 9.911731e-001 -1.325738e-001 0.000000e+000
      outer loop
         vertex 2.450431e+000 -4.953654e-001 2.000000e+000
         vertex 2.487577e+000 -2.489196e-001 0.000000e+000
         vertex 2.487577e+000 -2.489196e-001 2.000000e+000
      endloop
   endfacet
   facet normal 9.977896e-001 -6.645199e-002 0.000000e+000
      outer loop
         vertex 2.487577e+000 -2.489196e-001 2.000000e+000
         vertex 2.487577e+000 -2.489196e-001 0.000000e+000
         vertex 2.500000e+000 1.416375e-015 0.000000e+000
      endloop
   endfacet
   facet normal 9.994479e-001 -3.322599e-002 0.000000e+000
      outer loop
         vertex 2.487577e+000 -2.489196e-001 2.000000e+000
         vertex 2.500000e+000 1.416375e-015 0.000000e+000
         vertex 2.500000e+000 1.416375e-015 2.000000e+000
      endloop
   endfacet
   facet normal 9.994479e-001 3.322599e-002 0.000000e+000
      outer loop
         vertex 2.500000e+000 1.416375e-015 2.000000e+000
         vertex 2.500000e+000 1.416375e-015 0.000000e+000
         vertex 2.487577e+000 2.489196e-001 0.000000e+000
      endloop
   endfacet
   facet normal 9.977896e-001 6.645199e-002 0.000000e+000
      outer loop
         vertex 2.500000e+000 1.416375e-015 2.000000e+000
         vertex 2.487577e+000 2.489196e-001 0.000000e+000
         vertex 2.487577e+000 2.489196e-001 2.000000e+000
      endloop
   endfacet
   facet normal 9.911731e-001 1.325738e-001 0.000000e+000
      outer loop
         vertex 2.487577e+000 2.489196e-001 2.000000e+000
         vertex 2.487577e+000 2.489196e-001 0.000000e+000
         vertex 2.450431e+000 4.953654e-001 0.000000e+000
      endloop
   endfacet
   facet normal 9.862149e-001 1.654695e-001 0.000000e+000
      outer loop
         vertex 2.487577e+000 2.489196e-001 2.000000e+000
         vertex 2.450431e+000 4.953654e-001 0.000000e+000
         vertex 2.450431e+000 4.953654e-001 2.000000e+000
      endloop
   endfacet
   facet normal 9.730477e-001 2.306039e-001 0.000000e+000
      outer loop
         vertex 2.450431e+000 4.953654e-001 2.000000e+000
         vertex 2.450431e+000 4.953654e-001 0.000000e+000
         vertex 2.388932e+000 7.368879e-001 0.000000e+000
      endloop
   endfacet
   facet normal 9.648387e-001 2.628426e-001 0.000000e+000
      outer loop
         vertex 2.450431e+000 4.953654e-001 2.000000e+000
         vertex 2.388932e+000 7.368879e-001 0.000000e+000
         vertex 2.388932e+000 7.368879e-001 2.000000e+000
      endloop
   endfacet
   facet normal 9.452516e-001 3.263423e-001 0.000000e+000
      outer loop
         vertex 2.388932e+000 7.368879e-001 2.000000e+000
         vertex 2.388932e+000 7.368879e-001 0.000000e+000
         vertex 2.303690e+000 9.710870e-001 0.000000e+000
      endloop
   endfacet
   facet normal 9.338735e-001 3.576034e-001 0.000000e+000
      outer loop
         vertex 2.388932e+000 7.368879e-001 2.000000e+000
         vertex 2.303690e+000 9.710870e-001 0.000000e+000
         vertex 2.303690e+000 9.710870e-001 2.000000e+000
      endloop
   endfacet
   facet normal 9.080613e-001 4.188373e-001 0.000000e+000
      outer loop
         vertex 2.303690e+000 9.710870e-001 2.000000e+000
         vertex 2.303690e+000 9.710870e-001 0.000000e+000
         vertex 2.195554e+000 1.195635e+000 0.000000e+000
      endloop
   endfacet
   facet normal 8.936271e-001 4.488101e-001 0.000000e+000
      outer loop
         vertex 2.303690e+000 9.710870e-001 2.000000e+000
         vertex 2.195554e+000 1.195635e+000 0.000000e+000
         vertex 2.195554e+000 1.195635e+000 2.000000e+000
      endloop
   endfacet
   facet normal 8.618462e-001 5.071697e-001 0.000000e+000
      outer loop
         vertex 2.195554e+000 1.195635e+000 2.000000e+000
         vertex 2.195554e+000 1.195635e+000 0.000000e+000
         vertex 2.065597e+000 1.408300e+000 0.000000e+000
      endloop
   endfacet
   facet normal 8.444995e-001 5.355564e-001 0.000000e+000
      outer loop
         vertex 2.195554e+000 1.195635e+000 2.000000e+000
         vertex 2.065597e+000 1.408300e+000 0.000000e+000
         vertex 2.065597e+000 1.408300e+000 2.000000e+000
      endloop
   endfacet
   facet normal 8.070657e-001 5.904617e-001 0.000000e+000
      outer loop
         vertex 2.065597e+000 1.408300e+000 2.000000e+000
         vertex 2.065597e+000 1.408300e+000 0.000000e+000
         vertex 1.915111e+000 1.606969e+000 0.000000e+000
      endloop
   endfacet
   facet normal 7.869787e-001 6.169801e-001 0.000000e+000
      outer loop
         vertex 2.065597e+000 1.408300e+000 2.000000e+000
         vertex 1.915111e+000 1.606969e+000 0.000000e+000
         vertex 1.915111e+000 1.606969e+000 2.000000e+000
      endloop
   endfacet
   facet normal 7.442642e-001 6.678853e-001 0.000000e+000
      outer loop
         vertex 1.915111e+000 1.606969e+000 2.000000e+000
         vertex 1.915111e+000 1.606969e+000 0.000000e+000
         vertex 1.745592e+000 1.789667e+000 0.000000e+000
      endloop
   endfacet
   facet normal 7.216367e-001 6.922720e-001 0.000000e+000
      outer loop
         vertex 1.915111e+000 1.606969e+000 2.000000e+000
         vertex 1.745592e+000 1.789667e+000 0.000000e+000
         vertex 1.745592e+000 1.789667e+000 2.000000e+000
      endloop
   endfacet
   facet normal 6.740659e-001 7.386712e-001 0.000000e+000
      outer loop
         vertex 1.745592e+000 1.789667e+000 2.000000e+000
         vertex 1.745592e+000 1.789667e+000 0.000000e+000
         vertex 1.558725e+000 1.954579e+000 0.000000e+000
      endloop
   endfacet
   facet normal 6.491227e-001 7.606838e-001 0.000000e+000
      outer loop
         vertex 1.745592e+000 1.789667e+000 2.000000e+000
         vertex 1.558725e+000 1.954579e+000 0.000000e+000
         vertex 1.558725e+000 1.954579e+000 2.000000e+000
      endloop
   endfacet
   facet normal 5.971684e-001 8.021159e-001 0.000000e+000
      outer loop
         vertex 1.558725e+000 1.954579e+000 2.000000e+000
         vertex 1.558725e+000 1.954579e+000 0.000000e+000
         vertex 1.356366e+000 2.100065e+000 0.000000e+000
      endloop
   endfacet
   facet normal 5.701574e-001 8.215355e-001 0.000000e+000
      outer loop
         vertex 1.558725e+000 1.954579e+000 2.000000e+000
         vertex 1.356366e+000 2.100065e+000 0.000000e+000
         vertex 1.356366e+000 2.100065e+000 2.000000e+000
      endloop
   endfacet
   facet normal 5.143360e-001 8.575888e-001 0.000000e+000
      outer loop
         vertex 1.356366e+000 2.100065e+000 2.000000e+000
         vertex 1.356366e+000 2.100065e+000 0.000000e+000
         vertex 1.140527e+000 2.224679e+000 0.000000e+000
      endloop
   endfacet
   facet normal 4.855256e-001 8.742225e-001 0.000000e+000
      outer loop
         vertex 1.356366e+000 2.100065e+000 2.000000e+000
         vertex 1.140527e+000 2.224679e+000 0.000000e+000
         vertex 1.140527e+000 2.224679e+000 2.000000e+000
      endloop
   endfacet
   facet normal 4.263919e-001 9.045386e-001 0.000000e+000
      outer loop
         vertex 1.140527e+000 2.224679e+000 2.000000e+000
         vertex 1.140527e+000 2.224679e+000 0.000000e+000
         vertex 9.133525e-001 2.327184e+000 0.000000e+000
      endloop
   endfacet
   facet normal 3.960685e-001 9.182209e-001 0.000000e+000
      outer loop
         vertex 1.140527e+000 2.224679e+000 2.000000e+000
         vertex 9.133525e-001 2.327184e+000 0.000000e+000
         vertex 9.133525e-001 2.327184e+000 2.000000e+000
      endloop
   endfacet
   facet normal 3.342101e-001 9.424986e-001 0.000000e+000
      outer loop
         vertex 9.133525e-001 2.327184e+000 2.000000e+000
         vertex 9.133525e-001 2.327184e+000 0.000000e+000
         vertex 6.771012e-001 2.406561e+000 0.000000e+000
      endloop
   endfacet
   facet normal 3.026751e-001 9.530938e-001 0.000000e+000
      outer loop
         vertex 9.133525e-001 2.327184e+000 2.000000e+000
         vertex 6.771012e-001 2.406561e+000 0.000000e+000
         vertex 6.771012e-001 2.406561e+000 2.000000e+000
      endloop
   endfacet
   facet normal 2.387068e-001 9.710917e-001 0.000000e+000
      outer loop
         vertex 6.771012e-001 2.406561e+000 2.000000e+000
         vertex 6.771012e-001 2.406561e+000 0.000000e+000
         vertex 4.341205e-001 2.462019e+000 0.000000e+000
      endloop
   endfacet
   facet normal 2.062735e-001 9.784944e-001 0.000000e+000
      outer loop
         vertex 6.771012e-001 2.406561e+000 2.000000e+000
         vertex 4.341205e-001 2.462019e+000 0.000000e+000
         vertex 4.341205e-001 2.462019e+000 2.000000e+000
      endloop
   endfacet
   facet normal 1.408311e-001 9.900336e-001 0.000000e+000
      outer loop
         vertex 4.341205e-001 2.462019e+000 2.000000e+000
         vertex 4.341205e-001 2.462019e+000 0.000000e+000
         vertex 1.868252e-001 2.493010e+000 0.000000e+000
      endloop
   endfacet
   facet normal 1.078219e-001 9.941702e-001 0.000000e+000
      outer loop
         vertex 4.341205e-001 2.462019e+000 2.000000e+000
         vertex 1.868252e-001 2.493010e+000 0.000000e+000
         vertex 1.868252e-001 2.493010e+000 2.000000e+000
      endloop
   endfacet
   facet normal 4.155574e-002 9.991362e-001 0.000000e+000
      outer loop
         vertex 1.868252e-001 2.493010e+000 2.000000e+000
         vertex 1.868252e-001 2.493010e+000 0.000000e+000
         vertex -6.232673e-002 2.499223e+000 0.000000e+000
      endloop
   endfacet
   facet normal 8.298739e-003 9.999655e-001 0.000000e+000
      outer loop
         vertex 1.868252e-001 2.493010e+000 2.000000e+000
         vertex -6.232673e-002 2.499223e+000 0.000000e+000
         vertex -6.232673e-002 2.499223e+000 2.000000e+000
      endloop
   endfacet
   facet normal -5.813260e-002 9.983089e-001 0.000000e+000
      outer loop
         vertex -6.232673e-002 2.499223e+000 2.000000e+000
         vertex -6.232673e-002 2.499223e+000 0.000000e+000
         vertex -3.108593e-001 2.480598e+000 0.000000e+000
      endloop
   endfacet
   facet normal -9.130692e-002 9.958228e-001 0.000000e+000
      outer loop
         vertex -6.232673e-002 2.499223e+000 2.000000e+000
         vertex -3.108593e-001 2.480598e+000 0.000000e+000
         vertex -3.108593e-001 2.480598e+000 2.000000e+000
      endloop
   endfacet
   facet normal -1.572432e-001 9.875599e-001 0.000000e+000
      outer loop
         vertex -3.108593e-001 2.480598e+000 2.000000e+000
         vertex -3.108593e-001 2.480598e+000 0.000000e+000
         vertex -5.563024e-001 2.437320e+000 0.000000e+000
      endloop
   endfacet
   facet normal -1.900051e-001 9.817831e-001 0.000000e+000
      outer loop
         vertex -3.108593e-001 2.480598e+000 2.000000e+000
         vertex -5.563024e-001 2.437320e+000 0.000000e+000
         vertex -5.563024e-001 2.437320e+000 2.000000e+000
      endloop
   endfacet
   facet normal -2.547910e-001 9.669961e-001 0.000000e+000
      outer loop
         vertex -5.563024e-001 2.437320e+000 2.000000e+000
         vertex -5.563024e-001 2.437320e+000 0.000000e+000
         vertex -7.962166e-001 2.369818e+000 0.000000e+000
      endloop
   endfacet
   facet normal -2.868150e-001 9.579860e-001 0.000000e+000
      outer loop
         vertex -5.563024e-001 2.437320e+000 2.000000e+000
         vertex -7.962166e-001 2.369818e+000 0.000000e+000
         vertex -7.962166e-001 2.369818e+000 2.000000e+000
      endloop
   endfacet
   facet normal -3.498066e-001 9.368219e-001 0.000000e+000
      outer loop
         vertex -7.962166e-001 2.369818e+000 2.000000e+000
         vertex -7.962166e-001 2.369818e+000 0.000000e+000
         vertex -1.028218e+000 2.278764e+000 0.000000e+000
      endloop
   endfacet
   facet normal -3.807743e-001 9.246680e-001 0.000000e+000
      outer loop
         vertex -7.962166e-001 2.369818e+000 2.000000e+000
         vertex -1.028218e+000 2.278764e+000 0.000000e+000
         vertex -1.028218e+000 2.278764e+000 2.000000e+000
      endloop
   endfacet
   facet normal -4.413457e-001 8.973371e-001 0.000000e+000
      outer loop
         vertex -1.028218e+000 2.278764e+000 2.000000e+000
         vertex -1.028218e+000 2.278764e+000 0.000000e+000
         vertex -1.250000e+000 2.165063e+000 0.000000e+000
      endloop
   endfacet
   facet normal -4.709494e-001 8.821602e-001 0.000000e+000
      outer loop
         vertex -1.028218e+000 2.278764e+000 2.000000e+000
         vertex -1.250000e+000 2.165063e+000 0.000000e+000
         vertex -1.250000e+000 2.165063e+000 2.000000e+000
      endloop
   endfacet
   facet normal 0.000000e+000 0.000000e+000 1.000000e+000
      outer loop
         vertex 1.348901e+000 -6.560984e-001 2.000000e+000
         vertex 1.253008e+000 -8.246042e-001 2.000000e+000
         vertex 2.065597e+000 -1.408300e+000 2.000000e+000
      endloop
   endfacet
   facet normal 0.000000e+000 0.000000e+000 1.000000e+000
      outer loop
         vertex -1.250000e+000 -2.165063e+000 2.000000e+000
         vertex -1.028218e+000 -2.278764e+000 2.000000e+000
         vertex -1.065453e+000 -2.047456e+000 2.000000e+000
      endloop
   endfacet
   facet normal 0.000000e+000 0.000000e+000 1.000000e+000
      outer loop
         vertex -1.065453e+000 -2.047456e+000 2.000000e+000
         vertex -1.028218e+000 -2.278764e+000 2.000000e+000
         vertex -7.962166e-001 -2.369818e+000 2.000000e+000
      endloop
   endfacet
   facet normal 0.000000e+000 0.000000e+000 1.000000e+000
      outer loop
         vertex -1.065453e+000 -2.047456e+000 2.000000e+000
         vertex -7.962166e-001 -2.369818e+000 2.000000e+000
         vertex -8.918976e-001 -1.914160e+000 2.000000e+000
      endloop
   endfacet
   facet normal 0.000000e+000 0.000000e+000 1.000000e+000
      outer loop
         vertex -8.918976e-001 -1.914160e+000 2.000000e+000
         vertex -7.962166e-001 -2.369818e+000 2.000000e+000
         vertex -5.563024e-001 -2.437320e+000 2.000000e+000
      endloop
   endfacet
   facet normal 0.000000e+000 0.000000e+000 1.000000e+000
      outer loop
         vertex -8.918976e-001 -1.914160e+000 2.000000e+000
         vertex -5.563024e-001 -2.437320e+000 2.000000e+000
         vertex -7.306641e-001 -1.766197e+000 2.000000e+000
      endloop
   endfacet
   facet normal 0.000000e+000 0.000000e+000 1.000000e+000
      outer loop
         vertex -7.306641e-001 -1.766197e+000 2.000000e+000
         vertex -5.563024e-001 -2.437320e+000 2.000000e+000
         vertex -5.829877e-001 -1.604700e+000 2.000000e+000
      endloop
   endfacet
   facet normal 0.000000e+000 0.000000e+000 1.000000e+000
      outer loop
         vertex -5.829877e-001 1.604700e+000 2.000000e+000
         vertex -4.500000e-001 1.430909e+000 2.000000e+000
         vertex -2.616771e-001 1.476999e+000 2.000000e+000
      endloop
   endfacet
   facet normal 0.000000e+000 0.000000e+000 1.000000e+000
      outer loop
         vertex 2.065597e+000 -1.408300e+000 2.000000e+000
         vertex 1.253008e+000 -8.246042e-001 2.000000e+000
         vertex 1.915111e+000 -1.606969e+000 2.000000e+000
      endloop
   endfacet
   facet normal 0.000000e+000 0.000000e+000 1.000000e+000
      outer loop
         vertex 1.915111e+000 -1.606969e+000 2.000000e+000
         vertex 1.253008e+000 -8.246042e-001 2.000000e+000
         vertex 1.136180e+000 -9.793336e-001 2.000000e+000
      endloop
   endfacet
   facet normal 0.000000e+000 0.000000e+000 1.000000e+000
      outer loop
         vertex 1.915111e+000 -1.606969e+000 2.000000e+000
         vertex 1.136180e+000 -9.793336e-001 2.000000e+000
         vertex 1.745592e+000 -1.789667e+000 2.000000e+000
      endloop
   endfacet
   facet normal 0.000000e+000 0.000000e+000 1.000000e+000
      outer loop
         vertex 1.745592e+000 -1.789667e+000 2.000000e+000
         vertex 1.136180e+000 -9.793336e-001 2.000000e+000
         vertex 1.000371e+000 -1.117702e+000 2.000000e+000
      endloop
   endfacet
   facet normal 0.000000e+000 0.000000e+000 1.000000e+000
      outer loop
         vertex 1.745592e+000 -1.789667e+000 2.000000e+000
         vertex 1.000371e+000 -1.117702e+000 2.000000e+000
         vertex 1.558725e+000 -1.954579e+000 2.000000e+000
      endloop
   endfacet
   facet normal 0.000000e+000 0.000000e+000 1.000000e+000
      outer loop
         vertex 1.558725e+000 -1.954579e+000 2.000000e+000
         vertex 1.000371e+000 -1.117702e+000 2.000000e+000
         vertex 8.478497e-001 -1.237397e+000 2.000000e+000
      endloop
   endfacet
   facet normal 0.000000e+000 0.000000e+000 1.000000e+000
      outer loop
         vertex 1.558725e+000 -1.954579e+000 2.000000e+000
         vertex 8.478497e-001 -1.237397e+000 2.000000e+000
         vertex 1.356366e+000 -2.100065e+000 2.000000e+000
      endloop
   endfacet
   facet normal 0.000000e+000 0.000000e+000 1.000000e+000
      outer loop
         vertex 5.030970e-001 1.413115e+000 2.000000e+000
         vertex 6.771012e-001 2.406561e+000 2.000000e+000
         vertex 3.166257e-001 1.466202e+000 2.000000e+000
      endloop
   endfacet
   facet normal 0.000000e+000 0.000000e+000 1.000000e+000
      outer loop
         vertex 3.166257e-001 1.466202e+000 2.000000e+000
         vertex 6.771012e-001 2.406561e+000 2.000000e+000
         vertex 4.341205e-001 2.462019e+000 2.000000e+000
      endloop
   endfacet
   facet normal 0.000000e+000 0.000000e+000 1.000000e+000
      outer loop
         vertex 3.166257e-001 1.466202e+000 2.000000e+000
         vertex 4.341205e-001 2.462019e+000 2.000000e+000
         vertex 1.248647e-001 1.494794e+000 2.000000e+000
      endloop
   endfacet
   facet normal 0.000000e+000 0.000000e+000 1.000000e+000
      outer loop
         vertex 1.248647e-001 1.494794e+000 2.000000e+000
         vertex 4.341205e-001 2.462019e+000 2.000000e+000
         vertex 1.868252e-001 2.493010e+000 2.000000e+000
      endloop
   endfacet
   facet normal 0.000000e+000 0.000000e+000 1.000000e+000
      outer loop
         vertex 1.248647e-001 1.494794e+000 2.000000e+000
         vertex 1.868252e-001 2.493010e+000 2.000000e+000
         vertex -6.898244e-002 1.498413e+000 2.000000e+000
      endloop
   endfacet
   facet normal 0.000000e+000 0.000000e+000 1.000000e+000
      outer loop
         vertex 1.422260e+000 4.766316e-001 2.000000e+000
         vertex 2.303690e+000 9.710870e-001 2.000000e+000
         vertex 1.348901e+000 6.560984e-001 2.000000e+000
      endloop
   endfacet
   facet normal 0.000000e+000 0.000000e+000 1.000000e+000
      outer loop
         vertex 1.348901e+000 6.560984e-001 2.000000e+000
         vertex 2.303690e+000 9.710870e-001 2.000000e+000
         vertex 2.195554e+000 1.195635e+000 2.000000e+000
      endloop
   endfacet
   facet normal 0.000000e+000 0.000000e+000 1.000000e+000
      outer loop
         vertex 1.348901e+000 6.560984e-001 2.000000e+000
         vertex 2.195554e+000 1.195635e+000 2.000000e+000
         vertex 1.253008e+000 8.246042e-001 2.000000e+000
      endloop
   endfacet
   facet normal 0.000000e+000 0.000000e+000 1.000000e+000
      outer loop
         vertex 1.253008e+000 8.246042e-001 2.000000e+000
         vertex 2.195554e+000 1.195635e+000 2.000000e+000
         vertex 2.065597e+000 1.408300e+000 2.000000e+000
      endloop
   endfacet
   facet normal 0.000000e+000 0.000000e+000 1.000000e+000
      outer loop
         vertex 1.253008e+000 8.246042e-001 2.000000e+000
         vertex 2.065597e+000 1.408300e+000 2.000000e+000
         vertex 1.136180e+000 9.793336e-001 2.000000e+000
      endloop
   endfacet
   facet normal 0.000000e+000 0.000000e+000 1.000000e+000
      outer loop
         vertex 1.136180e+000 9.793336e-001 2.000000e+000
         vertex 2.065597e+000 1.408300e+000 2.000000e+000
         vertex 1.915111e+000 1.606969e+000 2.000000e+000
      endloop
   endfacet
   facet normal 0.000000e+000 0.000000e+000 1.000000e+000
      outer loop
         vertex 1.136180e+000 9.793336e-001 2.000000e+000
         vertex 1.915111e+000 1.606969e+000 2.000000e+000
         vertex 1.000371e+000 1.117702e+000 2.000000e+000
      endloop
   endfacet
   facet normal 0.000000e+000 0.000000e+000 1.000000e+000
      outer loop
         vertex 1.496864e+000 -9.694044e-002 2.000000e+000
         vertex 2.500000e+000 1.416375e-015 2.000000e+000
         vertex 1.496864e+000 9.694044e-002 2.000000e+000
      endloop
   endfacet
   facet normal 0.000000e+000 0.000000e+000 1.000000e+000
      outer loop
         vertex 1.496864e+000 9.694044e-002 2.000000e+000
         vertex 2.500000e+000 1.416375e-015 2.000000e+000
         vertex 2.487577e+000 2.489196e-001 2.000000e+000
      endloop
   endfacet
   facet normal 0.000000e+000 0.000000e+000 1.000000e+000
      outer loop
         vertex 1.496864e+000 9.694044e-002 2.000000e+000
         vertex 2.487577e+000 2.489196e-001 2.000000e+000
         vertex 1.471857e+000 2.892018e-001 2.000000e+000
      endloop
   endfacet
   facet normal 0.000000e+000 0.000000e+000 1.000000e+000
      outer loop
         vertex 1.471857e+000 2.892018e-001 2.000000e+000
         vertex 2.487577e+000 2.489196e-001 2.000000e+000
         vertex 2.450431e+000 4.953654e-001 2.000000e+000
      endloop
   endfacet
   facet normal 0.000000e+000 0.000000e+000 1.000000e+000
      outer loop
         vertex 1.471857e+000 2.892018e-001 2.000000e+000
         vertex 2.450431e+000 4.953654e-001 2.000000e+000
         vertex 1.422260e+000 4.766316e-001 2.000000e+000
      endloop
   endfacet
   facet normal 0.000000e+000 0.000000e+000 1.000000e+000
      outer loop
         vertex 1.422260e+000 4.766316e-001 2.000000e+000
         vertex 2.450431e+000 4.953654e-001 2.000000e+000
         vertex 2.388932e+000 7.368879e-001 2.000000e+000
      endloop
   endfacet
   facet normal 0.000000e+000 0.000000e+000 1.000000e+000
      outer loop
         vertex 1.422260e+000 4.766316e-001 2.000000e+000
         vertex 2.388932e+000 7.368879e-001 2.000000e+000
         vertex 2.303690e+000 9.710870e-001 2.000000e+000
      endloop
   endfacet
   facet normal 0.000000e+000 0.000000e+000 1.000000e+000
      outer loop
         vertex 2.065597e+000 -1.408300e+000 2.000000e+000
         vertex 2.195554e+000 -1.195635e+000 2.000000e+000
         vertex 1.348901e+000 -6.560984e-001 2.000000e+000
      endloop
   endfacet
   facet normal 0.000000e+000 0.000000e+000 1.000000e+000
      outer loop
         vertex 1.348901e+000 -6.560984e-001 2.000000e+000
         vertex 2.195554e+000 -1.195635e+000 2.000000e+000
         vertex 2.303690e+000 -9.710870e-001 2.000000e+000
      endloop
   endfacet
   facet normal 0.000000e+000 0.000000e+000 1.000000e+000
      outer loop
         vertex 1.348901e+000 -6.560984e-001 2.000000e+000
         vertex 2.303690e+000 -9.710870e-001 2.000000e+000
         vertex 1.422260e+000 -4.766316e-001 2.000000e+000
      endloop
   endfacet
   facet normal 0.000000e+000 0.000000e+000 1.000000e+000
      outer loop
         vertex 1.422260e+000 -4.766316e-001 2.000000e+000
         vertex 2.303690e+000 -9.710870e-001 2.000000e+000
         vertex 2.388932e+000 -7.368879e-001 2.000000e+000
      endloop
   endfacet
   facet normal 0.000000e+000 0.000000e+000 1.000000e+000
      outer loop
         vertex 1.422260e+000 -4.766316e-001 2.000000e+000
         vertex 2.388932e+000 -7.368879e-001 2.000000e+000
         vertex 1.471857e+000 -2.892018e-001 2.000000e+000
      endloop
   endfacet
   facet normal 0.000000e+000 0.000000e+000 1.000000e+000
      outer loop
         vertex 1.471857e+000 -2.892018e-001 2.000000e+000
         vertex 2.388932e+000 -7.368879e-001 2.000000e+000
         vertex 2.450431e+000 -4.953654e-001 2.000000e+000
      endloop
   endfacet
   facet normal 0.000000e+000 0.000000e+000 1.000000e+000
      outer loop
         vertex 1.471857e+000 -2.892018e-001 2.000000e+000
         vertex 2.450431e+000 -4.953654e-001 2.000000e+000
         vertex 1.496864e+000 -9.694044e-002 2.000000e+000
      endloop
   endfacet
   facet normal 0.000000e+000 0.000000e+000 1.000000e+000
      outer loop
         vertex 1.496864e+000 -9.694044e-002 2.000000e+000
         vertex 2.450431e+000 -4.953654e-001 2.000000e+000
         vertex 2.487577e+000 -2.489196e-001 2.000000e+000
      endloop
   endfacet
   facet normal 0.000000e+000 0.000000e+000 1.000000e+000
      outer loop
         vertex 1.496864e+000 -9.694044e-002 2.000000e+000
         vertex 2.487577e+000 -2.489196e-001 2.000000e+000
         vertex 2.500000e+000 1.416375e-015 2.000000e+000
      endloop
   endfacet
   facet normal 0.000000e+000 0.000000e+000 1.000000e+000
      outer loop
         vertex 1.356366e+000 -2.100065e+000 2.000000e+000
         vertex 8.478497e-001 -1.237397e+000 2.000000e+000
         vertex 1.140527e+000 -2.224679e+000 2.000000e+000
      endloop
   endfacet
   facet normal 0.000000e+000 0.000000e+000 1.000000e+000
      outer loop
         vertex 1.140527e+000 -2.224679e+000 2.000000e+000
         vertex 8.478497e-001 -1.237397e+000 2.000000e+000
         vertex 6.811633e-001 -1.336419e+000 2.000000e+000
      endloop
   endfacet
   facet normal 0.000000e+000 0.000000e+000 1.000000e+000
      outer loop
         vertex 1.140527e+000 -2.224679e+000 2.000000e+000
         vertex 6.811633e-001 -1.336419e+000 2.000000e+000
         vertex 9.133525e-001 -2.327184e+000 2.000000e+000
      endloop
   endfacet
   facet normal 0.000000e+000 0.000000e+000 1.000000e+000
      outer loop
         vertex 9.133525e-001 -2.327184e+000 2.000000e+000
         vertex 6.811633e-001 -1.336419e+000 2.000000e+000
         vertex 5.030970e-001 -1.413115e+000 2.000000e+000
      endloop
   endfacet
   facet normal 0.000000e+000 0.000000e+000 1.000000e+000
      outer loop
         vertex 9.133525e-001 -2.327184e+000 2.000000e+000
         vertex 5.030970e-001 -1.413115e+000 2.000000e+000
         vertex 6.771012e-001 -2.406561e+000 2.000000e+000
      endloop
   endfacet
   facet normal 0.000000e+000 0.000000e+000 1.000000e+000
      outer loop
         vertex 6.771012e-001 -2.406561e+000 2.000000e+000
         vertex 5.030970e-001 -1.413115e+000 2.000000e+000
         vertex 3.166257e-001 -1.466202e+000 2.000000e+000
      endloop
   endfacet
   facet normal 0.000000e+000 0.000000e+000 1.000000e+000
      outer loop
         vertex 6.771012e-001 -2.406561e+000 2.000000e+000
         vertex 3.166257e-001 -1.466202e+000 2.000000e+000
         vertex 4.341205e-001 -2.462019e+000 2.000000e+000
      endloop
   endfacet
   facet normal 0.000000e+000 0.000000e+000 1.000000e+000
      outer loop
         vertex -7.306641e-001 1.766197e+000 2.000000e+000
         vertex -5.829877e-001 1.604700e+000 2.000000e+000
         vertex -5.563024e-001 2.437320e+000 2.000000e+000
      endloop
   endfacet
   facet normal 0.000000e+000 0.000000e+000 1.000000e+000
      outer loop
         vertex -5.563024e-001 2.437320e+000 2.000000e+000
         vertex -5.829877e-001 1.604700e+000 2.000000e+000
         vertex -2.616771e-001 1.476999e+000 2.000000e+000
      endloop
   endfacet
   facet normal 0.000000e+000 0.000000e+000 1.000000e+000
      outer loop
         vertex -5.563024e-001 2.437320e+000 2.000000e+000
         vertex -2.616771e-001 1.476999e+000 2.000000e+000
         vertex -3.108593e-001 2.480598e+000 2.000000e+000
      endloop
   endfacet
   facet normal 0.000000e+000 0.000000e+000 1.000000e+000
      outer loop
         vertex -3.108593e-001 2.480598e+000 2.000000e+000
         vertex -2.616771e-001 1.476999e+000 2.000000e+000
         vertex -6.898244e-002 1.498413e+000 2.000000e+000
      endloop
   endfacet
   facet normal 0.000000e+000 0.000000e+000 1.000000e+000
      outer loop
         vertex -3.108593e-001 2.480598e+000 2.000000e+000
         vertex -6.898244e-002 1.498413e+000 2.000000e+000
         vertex -6.232673e-002 2.499223e+000 2.000000e+000
      endloop
   endfacet
   facet normal 0.000000e+000 0.000000e+000 1.000000e+000
      outer loop
         vertex -6.232673e-002 2.499223e+000 2.000000e+000
         vertex -6.898244e-002 1.498413e+000 2.000000e+000
         vertex 1.868252e-001 2.493010e+000 2.000000e+000
      endloop
   endfacet
   facet normal 0.000000e+000 0.000000e+000 1.000000e+000
      outer loop
         vertex 1.915111e+000 1.606969e+000 2.000000e+000
         vertex 1.745592e+000 1.789667e+000 2.000000e+000
         vertex 1.000371e+000 1.117702e+000 2.000000e+000
      endloop
   endfacet
   facet normal 0.000000e+000 0.000000e+000 1.000000e+000
      outer loop
         vertex 1.000371e+000 1.117702e+000 2.000000e+000
         vertex 1.745592e+000 1.789667e+000 2.000000e+000
         vertex 1.558725e+000 1.954579e+000 2.000000e+000
      endloop
   endfacet
   facet normal 0.000000e+000 0.000000e+000 1.000000e+000
      outer loop
         vertex 1.000371e+000 1.117702e+000 2.000000e+000
         vertex 1.558725e+000 1.954579e+000 2.000000e+000
         vertex 8.478497e-001 1.237397e+000 2.000000e+000
      endloop
   endfacet
   facet normal 0.000000e+000 0.000000e+000 1.000000e+000
      outer loop
         vertex 8.478497e-001 1.237397e+000 2.000000e+000
         vertex 1.558725e+000 1.954579e+000 2.000000e+000
         vertex 1.356366e+000 2.100065e+000 2.000000e+000
      endloop
   endfacet
   facet normal 0.000000e+000 0.000000e+000 1.000000e+000
      outer loop
         vertex 8.478497e-001 1.237397e+000 2.000000e+000
         vertex 1.356366e+000 2.100065e+000 2.000000e+000
         vertex 6.811633e-001 1.336419e+000 2.000000e+000
      endloop
   endfacet
   facet normal 0.000000e+000 0.000000e+000 1.000000e+000
      outer loop
         vertex 6.811633e-001 1.336419e+000 2.000000e+000
         vertex 1.356366e+000 2.100065e+000 2.000000e+000
         vertex 1.140527e+000 2.224679e+000 2.000000e+000
      endloop
   endfacet
   facet normal 0.000000e+000 0.000000e+000 1.000000e+000
      outer loop
         vertex 6.811633e-001 1.336419e+000 2.000000e+000
         vertex 1.140527e+000 2.224679e+000 2.000000e+000
         vertex 5.030970e-001 1.413115e+000 2.000000e+000
      endloop
   endfacet
   facet normal 0.000000e+000 0.000000e+000 1.000000e+000
      outer loop
         vertex 5.030970e-001 1.413115e+000 2.000000e+000
         vertex 1.140527e+000 2.224679e+000 2.000000e+000
         vertex 9.133525e-001 2.327184e+000 2.000000e+000
      endloop
   endfacet
   facet normal 0.000000e+000 0.000000e+000 1.000000e+000
      outer loop
         vertex 5.030970e-001 1.413115e+000 2.000000e+000
         vertex 9.133525e-001 2.327184e+000 2.000000e+000
         vertex 6.771012e-001 2.406561e+000 2.000000e+000
      endloop
   endfacet
   facet normal 0.000000e+000 0.000000e+000 1.000000e+000
      outer loop
         vertex -1.028218e+000 2.278764e+000 2.000000e+000
         vertex -1.250000e+000 2.165063e+000 2.000000e+000
         vertex -7.962166e-001 2.369818e+000 2.000000e+000
      endloop
   endfacet
   facet normal 0.000000e+000 0.000000e+000 1.000000e+000
      outer loop
         vertex -7.962166e-001 2.369818e+000 2.000000e+000
         vertex -1.250000e+000 2.165063e+000 2.000000e+000
         vertex -1.065453e+000 2.047456e+000 2.000000e+000
      endloop
   endfacet
   facet normal 0.000000e+000 0.000000e+000 1.000000e+000
      outer loop
         vertex -7.962166e-001 2.369818e+000 2.000000e+000
         vertex -1.065453e+000 2.047456e+000 2.000000e+000
         vertex -5.563024e-001 2.437320e+000 2.000000e+000
      endloop
   endfacet
   facet normal 0.000000e+000 0.000000e+000 1.000000e+000
      outer loop
         vertex -5.563024e-001 2.437320e+000 2.000000e+000
         vertex -1.065453e+000 2.047456e+000 2.000000e+000
         vertex -8.918976e-001 1.914160e+000 2.000000e+000
      endloop
   endfacet
   facet normal 0.000000e+000 0.000000e+000 1.000000e+000
      outer loop
         vertex -5.563024e-001 2.437320e+000 2.000000e+000
         vertex -8.918976e-001 1.914160e+000 2.000000e+000
         vertex -7.306641e-001 1.766197e+000 2.000000e+000
      endloop
   endfacet
   facet normal 0.000000e+000 0.000000e+000 1.000000e+000
      outer loop
         vertex 4.341205e-001 -2.462019e+000 2.000000e+000
         vertex 3.166257e-001 -1.466202e+000 2.000000e+000
         vertex 1.868252e-001 -2.493010e+000 2.000000e+000
      endloop
   endfacet
   facet normal 0.000000e+000 0.000000e+000 1.000000e+000
      outer loop
         vertex 1.868252e-001 -2.493010e+000 2.000000e+000
         vertex 3.166257e-001 -1.466202e+000 2.000000e+000
         vertex 1.248647e-001 -1.494794e+000 2.000000e+000
      endloop
   endfacet
   facet normal 0.000000e+000 0.000000e+000 1.000000e+000
      outer loop
         vertex 1.868252e-001 -2.493010e+000 2.000000e+000
         vertex 1.248647e-001 -1.494794e+000 2.000000e+000
         vertex -6.232673e-002 -2.499223e+000 2.000000e+000
      endloop
   endfacet
   facet normal 0.000000e+000 0.000000e+000 1.000000e+000
      outer loop
         vertex -6.232673e-002 -2.499223e+000 2.000000e+000
         vertex 1.248647e-001 -1.494794e+000 2.000000e+000
         vertex -6.898244e-002 -1.498413e+000 2.000000e+000
      endloop
   endfacet
   facet normal 0.000000e+000 0.000000e+000 1.000000e+000
      outer loop
         vertex -6.232673e-002 -2.499223e+000 2.000000e+000
         vertex -6.898244e-002 -1.498413e+000 2.000000e+000
         vertex -3.108593e-001 -2.480598e+000 2.000000e+000
      endloop
   endfacet
   facet normal 0.000000e+000 0.000000e+000 1.000000e+000
      outer loop
         vertex -3.108593e-001 -2.480598e+000 2.000000e+000
         vertex -6.898244e-002 -1.498413e+000 2.000000e+000
         vertex -2.616771e-001 -1.476999e+000 2.000000e+000
      endloop
   endfacet
   facet normal 0.000000e+000 0.000000e+000 1.000000e+000
      outer loop
         vertex -3.108593e-001 -2.480598e+000 2.000000e+000
         vertex -2.616771e-001 -1.476999e+000 2.000000e+000
         vertex -5.563024e-001 -2.437320e+000 2.000000e+000
      endloop
   endfacet
   facet normal 0.000000e+000 0.000000e+000 1.000000e+000
      outer loop
         vertex -5.563024e-001 -2.437320e+000 2.000000e+000
         vertex -2.616771e-001 -1.476999e+000 2.000000e+000
         vertex -4.500000e-001 -1.430909e+000 2.000000e+000
      endloop
   endfacet
   facet normal 0.000000e+000 0.000000e+000 1.000000e+000
      outer loop
         vertex -5.563024e-001 -2.437320e+000 2.000000e+000
         vertex -4.500000e-001 -1.430909e+000 2.000000e+000
         vertex -5.829877e-001 -1.604700e+000 2.000000e+000
      endloop
   endfacet
   facet normal 0.000000e+000 0.000000e+000 -1.000000e+000
      outer loop
         vertex -5.829877e-001 -1.604700e+000 0.000000e+000
         vertex -4.500000e-001 -1.430909e+000 0.000000e+000
         vertex -2.616771e-001 -1.476999e+000 0.000000e+000
      endloop
   endfacet
   facet normal 0.000000e+000 0.000000e+000 -1.000000e+000
      outer loop
         vertex 1.000371e+000 -1.117702e+000 0.000000e+000
         vertex 1.136180e+000 -9.793336e-001 0.000000e+000
         vertex 1.915111e+000 -1.606969e+000 0.000000e+000
      endloop
   endfacet
   facet normal 0.000000e+000 0.000000e+000 -1.000000e+000
      outer loop
         vertex 5.030970e-001 -1.413115e+000 0.000000e+000
         vertex 6.771012e-001 -2.406561e+000 0.000000e+000
         vertex 3.166257e-001 -1.466202e+000 0.000000e+000
      endloop
   endfacet
   facet normal 0.000000e+000 0.000000e+000 -1.000000e+000
      outer loop
         vertex 3.166257e-001 -1.466202e+000 0.000000e+000
         vertex 6.771012e-001 -2.406561e+000 0.000000e+000
         vertex 4.341205e-001 -2.462019e+000 0.000000e+000
      endloop
   endfacet
   facet normal 0.000000e+000 0.000000e+000 -1.000000e+000
      outer loop
         vertex 3.166257e-001 -1.466202e+000 0.000000e+000
         vertex 4.341205e-001 -2.462019e+000 0.000000e+000
         vertex 1.248647e-001 -1.494794e+000 0.000000e+000
      endloop
   endfacet
   facet normal 0.000000e+000 0.000000e+000 -1.000000e+000
      outer loop
         vertex 1.248647e-001 -1.494794e+000 0.000000e+000
         vertex 4.341205e-001 -2.462019e+000 0.000000e+000
         vertex 1.868252e-001 -2.493010e+000 0.000000e+000
      endloop
   endfacet
   facet normal 0.000000e+000 0.000000e+000 -1.000000e+000
      outer loop
         vertex 1.248647e-001 -1.494794e+000 0.000000e+000
         vertex 1.868252e-001 -2.493010e+000 0.000000e+000
         vertex -6.898244e-002 -1.498413e+000 0.000000e+000
      endloop
   endfacet
   facet normal 0.000000e+000 0.000000e+000 -1.000000e+000
      outer loop
         vertex 1.915111e+000 -1.606969e+000 0.000000e+000
         vertex 1.136180e+000 -9.793336e-001 0.000000e+000
         vertex 2.065597e+000 -1.408300e+000 0.000000e+000
      endloop
   endfacet
   facet normal 0.000000e+000 0.000000e+000 -1.000000e+000
      outer loop
         vertex 2.065597e+000 -1.408300e+000 0.000000e+000
         vertex 1.136180e+000 -9.793336e-001 0.000000e+000
         vertex 1.253008e+000 -8.246042e-001 0.000000e+000
      endloop
   endfacet
   facet normal 0.000000e+000 0.000000e+000 -1.000000e+000
      outer loop
         vertex 2.065597e+000 -1.408300e+000 0.000000e+000
         vertex 1.253008e+000 -8.246042e-001 0.000000e+000
         vertex 2.195554e+000 -1.195635e+000 0.000000e+000
      endloop
   endfacet
   facet normal 0.000000e+000 0.000000e+000 -1.000000e+000
      outer loop
         vertex 2.195554e+000 -1.195635e+000 0.000000e+000
         vertex 1.253008e+000 -8.246042e-001 0.000000e+000
         vertex 1.348901e+000 -6.560984e-001 0.000000e+000
      endloop
   endfacet
   facet normal 0.000000e+000 0.000000e+000 -1.000000e+000
      outer loop
         vertex 2.195554e+000 -1.195635e+000 0.000000e+000
         vertex 1.348901e+000 -6.560984e-001 0.000000e+000
         vertex 2.303690e+000 -9.710870e-001 0.000000e+000
      endloop
   endfacet
   facet normal 0.000000e+000 0.000000e+000 -1.000000e+000
      outer loop
         vertex 2.303690e+000 -9.710870e-001 0.000000e+000
         vertex 1.348901e+000 -6.560984e-001 0.000000e+000
         vertex 1.422260e+000 -4.766316e-001 0.000000e+000
      endloop
   endfacet
   facet normal 0.000000e+000 0.000000e+000 -1.000000e+000
      outer loop
         vertex 2.303690e+000 -9.710870e-001 0.000000e+000
         vertex 1.422260e+000 -4.766316e-001 0.000000e+000
         vertex 2.388932e+000 -7.368879e-001 0.000000e+000
      endloop
   endfacet
   facet normal 0.000000e+000 0.000000e+000 -1.000000e+000
      outer loop
         vertex 2.388932e+000 -7.368879e-001 0.000000e+000
         vertex 1.422260e+000 -4.766316e-001 0.000000e+000
         vertex 2.450431e+000 -4.953654e-001 0.000000e+000
      endloop
   endfacet
   facet normal 0.000000e+000 0.000000e+000 -1.000000e+000
      outer loop
         vertex 2.450431e+000 -4.953654e-001 0.000000e+000
         vertex 1.422260e+000 -4.766316e-001 0.000000e+000
         vertex 1.471857e+000 -2.892018e-001 0.000000e+000
      endloop
   endfacet
   facet normal 0.000000e+000 0.000000e+000 -1.000000e+000
      outer loop
         vertex 2.450431e+000 -4.953654e-001 0.000000e+000
         vertex 1.471857e+000 -2.892018e-001 0.000000e+000
         vertex 2.487577e+000 -2.489196e-001 0.000000e+000
      endloop
   endfacet
   facet normal 0.000000e+000 0.000000e+000 -1.000000e+000
      outer loop
         vertex 2.487577e+000 -2.489196e-001 0.000000e+000
         vertex 1.471857e+000 -2.892018e-001 0.000000e+000
         vertex 1.496864e+000 -9.694044e-002 0.000000e+000
      endloop
   endfacet
   facet normal 0.000000e+000 0.000000e+000 -1.000000e+000
      outer loop
         vertex 2.487577e+000 -2.489196e-001 0.000000e+000
         vertex 1.496864e+000 -9.694044e-002 0.000000e+000
         vertex 2.500000e+000 1.416375e-015 0.000000e+000
      endloop
   endfacet
   facet normal 0.000000e+000 0.000000e+000 -1.000000e+000
      outer loop
         vertex 2.500000e+000 1.416375e-015 0.000000e+000
         vertex 1.496864e+000 -9.694044e-002 0.000000e+000
         vertex 1.496864e+000 9.694044e-002 0.000000e+000
      endloop
   endfacet
   facet normal 0.000000e+000 0.000000e+000 -1.000000e+000
      outer loop
         vertex 2.500000e+000 1.416375e-015 0.000000e+000
         vertex 1.496864e+000 9.694044e-002 0.000000e+000
         vertex 2.487577e+000 2.489196e-001 0.000000e+000
      endloop
   endfacet
   facet normal 0.000000e+000 0.000000e+000 -1.000000e+000
      outer loop
         vertex 2.487577e+000 2.489196e-001 0.000000e+000
         vertex 1.496864e+000 9.694044e-002 0.000000e+000
         vertex 2.450431e+000 4.953654e-001 0.000000e+000
      endloop
   endfacet
   facet normal 0.000000e+000 0.000000e+000 -1.000000e+000
      outer loop
         vertex 2.450431e+000 4.953654e-001 0.000000e+000
         vertex 1.496864e+000 9.694044e-002 0.000000e+000
         vertex 1.471857e+000 2.892018e-001 0.000000e+000
      endloop
   endfacet
   facet normal 0.000000e+000 0.000000e+000 -1.000000e+000
      outer loop
         vertex 2.450431e+000 4.953654e-001 0.000000e+000
         vertex 1.471857e+000 2.892018e-001 0.000000e+000
         vertex 2.388932e+000 7.368879e-001 0.000000e+000
      endloop
   endfacet
   facet normal 0.000000e+000 0.000000e+000 -1.000000e+000
      outer loop
         vertex 2.388932e+000 7.368879e-001 0.000000e+000
         vertex 1.471857e+000 2.892018e-001 0.000000e+000
         vertex 1.422260e+000 4.766316e-001 0.000000e+000
      endloop
   endfacet
   facet normal 0.000000e+000 0.000000e+000 -1.000000e+000
      outer loop
         vertex 2.388932e+000 7.368879e-001 0.000000e+000
         vertex 1.422260e+000 4.766316e-001 0.000000e+000
         vertex 2.303690e+000 9.710870e-001 0.000000e+000
      endloop
   endfacet
   facet normal 0.000000e+000 0.000000e+000 -1.000000e+000
      outer loop
         vertex 2.303690e+000 9.710870e-001 0.000000e+000
         vertex 1.422260e+000 4.766316e-001 0.000000e+000
         vertex 1.348901e+000 6.560984e-001 0.000000e+000
      endloop
   endfacet
   facet normal 0.000000e+000 0.000000e+000 -1.000000e+000
      outer loop
         vertex 2.303690e+000 9.710870e-001 0.000000e+000
         vertex 1.348901e+000 6.560984e-001 0.000000e+000
         vertex 2.195554e+000 1.195635e+000 0.000000e+000
      endloop
   endfacet
   facet normal 0.000000e+000 0.000000e+000 -1.000000e+000
      outer loop
         vertex -1.028218e+000 -2.278764e+000 0.000000e+000
         vertex -1.250000e+000 -2.165063e+000 0.000000e+000
         vertex -7.962166e-001 -2.369818e+000 0.000000e+000
      endloop
   endfacet
   facet normal 0.000000e+000 0.000000e+000 -1.000000e+000
      outer loop
         vertex -7.962166e-001 -2.369818e+000 0.000000e+000
         vertex -1.250000e+000 -2.165063e+000 0.000000e+000
         vertex -1.065453e+000 -2.047456e+000 0.000000e+000
      endloop
   endfacet
   facet normal 0.000000e+000 0.000000e+000 -1.000000e+000
      outer loop
         vertex -7.962166e-001 -2.369818e+000 0.000000e+000
         vertex -1.065453e+000 -2.047456e+000 0.000000e+000
         vertex -5.563024e-001 -2.437320e+000 0.000000e+000
      endloop
   endfacet
   facet normal 0.000000e+000 0.000000e+000 -1.000000e+000
      outer loop
         vertex -5.563024e-001 -2.437320e+000 0.000000e+000
         vertex -1.065453e+000 -2.047456e+000 0.000000e+000
         vertex -8.918976e-001 -1.914160e+000 0.000000e+000
      endloop
   endfacet
   facet normal 0.000000e+000 0.000000e+000 -1.000000e+000
      outer loop
         vertex -5.563024e-001 -2.437320e+000 0.000000e+000
         vertex -8.918976e-001 -1.914160e+000 0.000000e+000
         vertex -7.306641e-001 -1.766197e+000 0.000000e+000
      endloop
   endfacet
   facet normal 0.000000e+000 0.000000e+000 -1.000000e+000
      outer loop
         vertex 2.195554e+000 1.195635e+000 0.000000e+000
         vertex 1.348901e+000 6.560984e-001 0.000000e+000
         vertex 2.065597e+000 1.408300e+000 0.000000e+000
      endloop
   endfacet
   facet normal 0.000000e+000 0.000000e+000 -1.000000e+000
      outer loop
         vertex 2.065597e+000 1.408300e+000 0.000000e+000
         vertex 1.348901e+000 6.560984e-001 0.000000e+000
         vertex 1.253008e+000 8.246042e-001 0.000000e+000
      endloop
   endfacet
   facet normal 0.000000e+000 0.000000e+000 -1.000000e+000
      outer loop
         vertex 2.065597e+000 1.408300e+000 0.000000e+000
         vertex 1.253008e+000 8.246042e-001 0.000000e+000
         vertex 1.915111e+000 1.606969e+000 0.000000e+000
      endloop
   endfacet
   facet normal 0.000000e+000 0.000000e+000 -1.000000e+000
      outer loop
         vertex 1.915111e+000 1.606969e+000 0.000000e+000
         vertex 1.253008e+000 8.246042e-001 0.000000e+000
         vertex 1.136180e+000 9.793336e-001 0.000000e+000
      endloop
   endfacet
   facet normal 0.000000e+000 0.000000e+000 -1.000000e+000
      outer loop
         vertex 1.915111e+000 1.606969e+000 0.000000e+000
         vertex 1.136180e+000 9.793336e-001 0.000000e+000
         vertex 1.745592e+000 1.789667e+000 0.000000e+000
      endloop
   endfacet
   facet normal 0.000000e+000 0.000000e+000 -1.000000e+000
      outer loop
         vertex 1.745592e+000 1.789667e+000 0.000000e+000
         vertex 1.136180e+000 9.793336e-001 0.000000e+000
         vertex 1.000371e+000 1.117702e+000 0.000000e+000
      endloop
   endfacet
   facet normal 0.000000e+000 0.000000e+000 -1.000000e+000
      outer loop
         vertex 1.745592e+000 1.789667e+000 0.000000e+000
         vertex 1.000371e+000 1.117702e+000 0.000000e+000
         vertex 1.558725e+000 1.954579e+000 0.000000e+000
      endloop
   endfacet
   facet normal 0.000000e+000 0.000000e+000 -1.000000e+000
      outer loop
         vertex 1.558725e+000 1.954579e+000 0.000000e+000
         vertex 1.000371e+000 1.117702e+000 0.000000e+000
         vertex 8.478497e-001 1.237397e+000 0.000000e+000
      endloop
   endfacet
   facet normal 0.000000e+000 0.000000e+000 -1.000000e+000
      outer loop
         vertex 1.558725e+000 1.954579e+000 0.000000e+000
         vertex 8.478497e-001 1.237397e+000 0.000000e+000
         vertex 1.356366e+000 2.100065e+000 0.000000e+000
      endloop
   endfacet
   facet normal 0.000000e+000 0.000000e+000 -1.000000e+000
      outer loop
         vertex -7.306641e-001 -1.766197e+000 0.000000e+000
         vertex -5.829877e-001 -1.604700e+000 0.000000e+000
         vertex -5.563024e-001 -2.437320e+000 0.000000e+000
      endloop
   endfacet
   facet normal 0.000000e+000 0.000000e+000 -1.000000e+000
      outer loop
         vertex -5.563024e-001 -2.437320e+000 0.000000e+000
         vertex -5.829877e-001 -1.604700e+000 0.000000e+000
         vertex -2.616771e-001 -1.476999e+000 0.000000e+000
      endloop
   endfacet
   facet normal 0.000000e+000 0.000000e+000 -1.000000e+000
      outer loop
         vertex -5.563024e-001 -2.437320e+000 0.000000e+000
         vertex -2.616771e-001 -1.476999e+000 0.000000e+000
         vertex -3.108593e-001 -2.480598e+000 0.000000e+000
      endloop
   endfacet
   facet normal 0.000000e+000 0.000000e+000 -1.000000e+000
      outer loop
         vertex -3.108593e-001 -2.480598e+000 0.000000e+000
         vertex -2.616771e-001 -1.476999e+000 0.000000e+000
         vertex -6.898244e-002 -1.498413e+000 0.000000e+000
      endloop
   endfacet
   facet normal 0.000000e+000 0.000000e+000 -1.000000e+000
      outer loop
         vertex -3.108593e-001 -2.480598e+000 0.000000e+000
         vertex -6.898244e-002 -1.498413e+000 0.000000e+000
         vertex -6.232673e-002 -2.499223e+000 0.000000e+000
      endloop
   endfacet
   facet normal 0.000000e+000 0.000000e+000 -1.000000e+000
      outer loop
         vertex -6.232673e-002 -2.499223e+000 0.000000e+000
         vertex -6.898244e-002 -1.498413e+000 0.000000e+000
         vertex 1.868252e-001 -2.493010e+000 0.000000e+000
      endloop
   endfacet
   facet normal 0.000000e+000 0.000000e+000 -1.000000e+000
      outer loop
         vertex 1.915111e+000 -1.606969e+000 0.000000e+000
         vertex 1.745592e+000 -1.789667e+000 0.000000e+000
         vertex 1.000371e+000 -1.117702e+000 0.000000e+000
      endloop
   endfacet
   facet normal 0.000000e+000 0.000000e+000 -1.000000e+000
      outer loop
         vertex 1.000371e+000 -1.117702e+000 0.000000e+000
         vertex 1.745592e+000 -1.789667e+000 0.000000e+000
         vertex 1.558725e+000 -1.954579e+000 0.000000e+000
      endloop
   endfacet
   facet normal 0.000000e+000 0.000000e+000 -1.000000e+000
      outer loop
         vertex 1.000371e+000 -1.117702e+000 0.000000e+000
         vertex 1.558725e+000 -1.954579e+000 0.000000e+000
         vertex 8.478497e-001 -1.237397e+000 0.000000e+000
      endloop
   endfacet
   facet normal 0.000000e+000 0.000000e+000 -1.000000e+000
      outer loop
         vertex 8.478497e-001 -1.237397e+000 0.000000e+000
         vertex 1.558725e+000 -1.954579e+000 0.000000e+000
         vertex 1.356366e+000 -2.100065e+000 0.000000e+000
      endloop
   endfacet
   facet normal 0.000000e+000 0.000000e+000 -1.000000e+000
      outer loop
         vertex 8.478497e-001 -1.237397e+000 0.000000e+000
         vertex 1.356366e+000 -2.100065e+000 0.000000e+000
         vertex 6.811633e-001 -1.336419e+000 0.000000e+000
      endloop
   endfacet
   facet normal 0.000000e+000 0.000000e+000 -1.000000e+000
      outer loop
         vertex 6.811633e-001 -1.336419e+000 0.000000e+000
         vertex 1.356366e+000 -2.100065e+000 0.000000e+000
         vertex 1.140527e+000 -2.224679e+000 0.000000e+000
      endloop
   endfacet
   facet normal 0.000000e+000 0.000000e+000 -1.000000e+000
      outer loop
         vertex 6.811633e-001 -1.336419e+000 0.000000e+000
         vertex 1.140527e+000 -2.224679e+000 0.000000e+000
         vertex 5.030970e-001 -1.413115e+000 0.000000e+000
      endloop
   endfacet
   facet normal 0.000000e+000 0.000000e+000 -1.000000e+000
      outer loop
         vertex 5.030970e-001 -1.413115e+000 0.000000e+000
         vertex 1.140527e+000 -2.224679e+000 0.000000e+000
         vertex 9.133525e-001 -2.327184e+000 0.000000e+000
      endloop
   endfacet
   facet normal 0.000000e+000 0.000000e+000 -1.000000e+000
      outer loop
         vertex 5.030970e-001 -1.413115e+000 0.000000e+000
         vertex 9.133525e-001 -2.327184e+000 0.000000e+000
         vertex 6.771012e-001 -2.406561e+000 0.000000e+000
      endloop
   endfacet
   facet normal 0.000000e+000 0.000000e+000 -1.000000e+000
      outer loop
         vertex 1.356366e+000 2.100065e+000 0.000000e+000
         vertex 8.478497e-001 1.237397e+000 0.000000e+000
         vertex 1.140527e+000 2.224679e+000 0.000000e+000
      endloop
   endfacet
   facet normal 0.000000e+000 0.000000e+000 -1.000000e+000
      outer loop
         vertex 1.140527e+000 2.224679e+000 0.000000e+000
         vertex 8.478497e-001 1.237397e+000 0.000000e+000
         vertex 6.811633e-001 1.336419e+000 0.000000e+000
      endloop
   endfacet
   facet normal 0.000000e+000 0.000000e+000 -1.000000e+000
      outer loop
         vertex 1.140527e+000 2.224679e+000 0.000000e+000
         vertex 6.811633e-001 1.336419e+000 0.000000e+000
         vertex 9.133525e-001 2.327184e+000 0.000000e+000
      endloop
   endfacet
   facet normal 0.000000e+000 0.000000e+000 -1.000000e+000
      outer loop
         vertex 9.133525e-001 2.327184e+000 0.000000e+000
         vertex 6.811633e-001 1.336419e+000 0.000000e+000
         vertex 5.030970e-001 1.413115e+000 0.000000e+000
      endloop
   endfacet
   facet normal 0.000000e+000 0.000000e+000 -1.000000e+000
      outer loop
         vertex 9.133525e-001 2.327184e+000 0.000000e+000
         vertex 5.030970e-001 1.413115e+000 0.000000e+000
         vertex 6.771012e-001 2.406561e+000 0.000000e+000
      endloop
   endfacet
   facet normal 0.000000e+000 0.000000e+000 -1.000000e+000
      outer loop
         vertex 6.771012e-001 2.406561e+000 0.000000e+000
         vertex 5.030970e-001 1.413115e+000 0.000000e+000
         vertex 3.166257e-001 1.466202e+000 0.000000e+000
      endloop
   endfacet
   facet normal 0.000000e+000 0.000000e+000 -1.000000e+000
      outer loop
         vertex 6.771012e-001 2.406561e+000 0.000000e+000
         vertex 3.166257e-001 1.466202e+000 0.000000e+000
         vertex 4.341205e-001 2.462019e+000 0.000000e+000
      endloop
   endfacet
   facet normal 0.000000e+000 0.000000e+000 -1.000000e+000
      outer loop
         vertex 4.341205e-001 2.462019e+000 0.000000e+000
         vertex 3.166257e-001 1.466202e+000 0.000000e+000
         vertex 1.868252e-001 2.493010e+000 0.000000e+000
      endloop
   endfacet
   facet normal 0.000000e+000 0.000000e+000 -1.000000e+000
      outer loop
         vertex 1.868252e-001 2.493010e+000 0.000000e+000
         vertex 3.166257e-001 1.466202e+000 0.000000e+000
         vertex 1.248647e-001 1.494794e+000 0.000000e+000
      endloop
   endfacet
   facet normal 0.000000e+000 0.000000e+000 -1.000000e+000
      outer loop
         vertex 1.868252e-001 2.493010e+000 0.000000e+000
         vertex 1.248647e-001 1.494794e+000 0.000000e+000
         vertex -6.232673e-002 2.499223e+000 0.000000e+000
      endloop
   endfacet
   facet normal 0.000000e+000 0.000000e+000 -1.000000e+000
      outer loop
         vertex -6.232673e-002 2.499223e+000 0.000000e+000
         vertex 1.248647e-001 1.494794e+000 0.000000e+000
         vertex -6.898244e-002 1.498413e+000 0.000000e+000
      endloop
   endfacet
   facet normal 0.000000e+000 0.000000e+000 -1.000000e+000
      outer loop
         vertex -6.232673e-002 2.499223e+000 0.000000e+000
         vertex -6.898244e-002 1.498413e+000 0.000000e+000
         vertex -3.108593e-001 2.480598e+000 0.000000e+000
      endloop
   endfacet
   facet normal 0.000000e+000 0.000000e+000 -1.000000e+000
      outer loop
         vertex -3.108593e-001 2.480598e+000 0.000000e+000
         vertex -6.898244e-002 1.498413e+000 0.000000e+000
         vertex -2.616771e-001 1.476999e+000 0.000000e+000
      endloop
   endfacet
   facet normal 0.000000e+000 0.000000e+000 -1.000000e+000
      outer loop
         vertex -3.108593e-001 2.480598e+000 0.000000e+000
         vertex -2.616771e-001 1.476999e+000 0.000000e+000
         vertex -5.563024e-001 2.437320e+000 0.000000e+000
      endloop
   endfacet
   facet normal 0.000000e+000 0.000000e+000 -1.000000e+000
      outer loop
         vertex -5.563024e-001 2.437320e+000 0.000000e+000
         vertex -2.616771e-001 1.476999e+000 0.000000e+000
         vertex -4.500000e-001 1.430909e+000 0.000000e+000
      endloop
   endfacet
   facet normal 0.000000e+000 0.000000e+000 -1.000000e+000
      outer loop
         vertex -5.563024e-001 2.437320e+000 0.000000e+000
         vertex -4.500000e-001 1.430909e+000 0.000000e+000
         vertex -5.829877e-001 1.604700e+000 0.000000e+000
      endloop
   endfacet
   facet normal 0.000000e+000 0.000000e+000 -1.000000e+000
      outer loop
         vertex -1.250000e+000 2.165063e+000 0.000000e+000
         vertex -1.028218e+000 2.278764e+000 0.000000e+000
         vertex -1.065453e+000 2.047456e+000 0.000000e+000
      endloop
   endfacet
   facet normal 0.000000e+000 0.000000e+000 -1.000000e+000
      outer loop
         vertex -1.065453e+000 2.047456e+000 0.000000e+000
         vertex -1.028218e+000 2.278764e+000 0.000000e+000
         vertex -7.962166e-001 2.369818e+000 0.000000e+000
      endloop
   endfacet
   facet normal 0.000000e+000 0.000000e+000 -1.000000e+000
      outer loop
         vertex -1.065453e+000 2.047456e+000 0.000000e+000
         vertex -7.962166e-001 2.369818e+000 0.000000e+000
         vertex -8.918976e-001 1.914160e+000 0.000000e+000
      endloop
   endfacet
   facet normal 0.000000e+000 0.000000e+000 -1.000000e+000
      outer loop
         vertex -8.918976e-001 1.914160e+000 0.000000e+000
         vertex -7.962166e-001 2.369818e+000 0.000000e+000
         vertex -5.563024e-001 2.437320e+000 0.000000e+000
      endloop
   endfacet
   facet normal 0.000000e+000 0.000000e+000 -1.000000e+000
      outer loop
         vertex -8.918976e-001 1.914160e+000 0.000000e+000
         vertex -5.563024e-001 2.437320e+000 0.000000e+000
         vertex -7.306641e-001 1.766197e+000 0.000000e+000
      endloop
   endfacet
   facet normal 0.000000e+000 0.000000e+000 -1.000000e+000
      outer loop
         vertex -7.306641e-001 1.766197e+000 0.000000e+000
         vertex -5.563024e-001 2.437320e+000 0.000000e+000
         vertex -5.829877e-001 1.604700e+000 0.000000e+000
      endloop
   endfacet
endsolid