solid huacha2
   facet normal -5.250535e-001 -8.510692e-001 0.000000e+000
      outer loop
         vertex 0.000000e+000 5.924631e+001 3.810000e+001
         vertex 0.000000e+000 5.924631e+001 1.387779e-014
         vertex 2.343750e+000 5.775269e+001 1.387779e-014
      endloop
   endfacet
   facet normal -5.496808e-001 -8.353748e-001 0.000000e+000
      outer loop
         vertex 0.000000e+000 5.924631e+001 3.810000e+001
         vertex 2.343750e+000 5.775269e+001 1.387779e-014
         vertex 2.343750e+000 5.775269e+001 3.810000e+001
      endloop
   endfacet
   facet normal -5.974684e-001 -8.018924e-001 0.000000e+000
      outer loop
         vertex 2.343750e+000 5.775269e+001 3.810000e+001
         vertex 2.343750e+000 5.775269e+001 1.387779e-014
         vertex 4.547902e+000 5.605983e+001 1.387779e-014
      endloop
   endfacet
   facet normal -6.206289e-001 -7.841045e-001 0.000000e+000
      outer loop
         vertex 2.343750e+000 5.775269e+001 3.810000e+001
         vertex 4.547902e+000 5.605983e+001 1.387779e-014
         vertex 4.547902e+000 5.605983e+001 3.810000e+001
      endloop
   endfacet
   facet normal -6.653054e-001 -7.465713e-001 0.000000e+000
      outer loop
         vertex 4.547902e+000 5.605983e+001 3.810000e+001
         vertex 4.547902e+000 5.605983e+001 1.387779e-014
         vertex 6.595567e+000 5.418070e+001 1.387779e-014
      endloop
   endfacet
   facet normal -6.868216e-001 -7.268261e-001 0.000000e+000
      outer loop
         vertex 4.547902e+000 5.605983e+001 3.810000e+001
         vertex 6.595567e+000 5.418070e+001 1.387779e-014
         vertex 6.595567e+000 5.418070e+001 3.810000e+001
      endloop
   endfacet
   facet normal -7.280447e-001 -6.855297e-001 0.000000e+000
      outer loop
         vertex 6.595567e+000 5.418070e+001 3.810000e+001
         vertex 6.595567e+000 5.418070e+001 1.387779e-014
         vertex 8.471057e+000 5.212970e+001 1.387779e-014
      endloop
   endfacet
   facet normal -7.477517e-001 -6.639785e-001 0.000000e+000
      outer loop
         vertex 6.595567e+000 5.418070e+001 3.810000e+001
         vertex 8.471057e+000 5.212970e+001 1.387779e-014
         vertex 8.471057e+000 5.212970e+001 3.810000e+001
      endloop
   endfacet
   facet normal -7.852054e-001 -6.192354e-001 0.000000e+000
      outer loop
         vertex 8.471057e+000 5.212970e+001 3.810000e+001
         vertex 8.471057e+000 5.212970e+001 1.387779e-014
         vertex 1.016000e+001 4.992254e+001 1.387779e-014
      endloop
   endfacet
   facet normal -8.029522e-001 -5.960434e-001 0.000000e+000
      outer loop
         vertex 8.471057e+000 5.212970e+001 3.810000e+001
         vertex 1.016000e+001 4.992254e+001 1.387779e-014
         vertex 1.016000e+001 4.992254e+001 3.810000e+001
      endloop
   endfacet
   facet normal 2.586310e-001 -9.659762e-001 0.000000e+000
      outer loop
         vertex 1.016000e+001 4.992254e+001 3.810000e+001
         vertex 1.016000e+001 4.992254e+001 1.387779e-014
         vertex 1.255170e+001 5.050788e+001 1.387779e-014
      endloop
   endfacet
   facet normal 2.167036e-001 -9.762375e-001 0.000000e+000
      outer loop
         vertex 1.016000e+001 4.992254e+001 3.810000e+001
         vertex 1.255170e+001 5.050788e+001 1.387779e-014
         vertex 1.255170e+001 5.050788e+001 3.810000e+001
      endloop
   endfacet
   facet normal 1.318754e-001 -9.912663e-001 0.000000e+000
      outer loop
         vertex 1.255170e+001 5.050788e+001 3.810000e+001
         vertex 1.255170e+001 5.050788e+001 1.387779e-014
         vertex 1.499892e+001 5.077985e+001 1.387779e-014
      endloop
   endfacet
   facet normal 8.897464e-002 -9.960339e-001 0.000000e+000
      outer loop
         vertex 1.255170e+001 5.050788e+001 3.810000e+001
         vertex 1.499892e+001 5.077985e+001 1.387779e-014
         vertex 1.499892e+001 5.077985e+001 3.810000e+001
      endloop
   endfacet
   facet normal 2.916577e-003 -9.999958e-001 0.000000e+000
      outer loop
         vertex 1.499892e+001 5.077985e+001 3.810000e+001
         vertex 1.499892e+001 5.077985e+001 1.387779e-014
         vertex 1.746078e+001 5.073388e+001 1.387779e-014
      endloop
   endfacet
   facet normal -4.024074e-002 -9.991900e-001 0.000000e+000
      outer loop
         vertex 1.499892e+001 5.077985e+001 3.810000e+001
         vertex 1.746078e+001 5.073388e+001 1.387779e-014
         vertex 1.746078e+001 5.073388e+001 3.810000e+001
      endloop
   endfacet
   facet normal -1.260910e-001 -9.920187e-001 0.000000e+000
      outer loop
         vertex 1.746078e+001 5.073388e+001 3.810000e+001
         vertex 1.746078e+001 5.073388e+001 1.387779e-014
         vertex 1.989615e+001 5.037077e+001 1.387779e-014
      endloop
   endfacet
   facet normal -1.687838e-001 -9.856531e-001 0.000000e+000
      outer loop
         vertex 1.746078e+001 5.073388e+001 3.810000e+001
         vertex 1.989615e+001 5.037077e+001 1.387779e-014
         vertex 1.989615e+001 5.037077e+001 3.810000e+001
      endloop
   endfacet
   facet normal -2.529919e-001 -9.674684e-001 0.000000e+000
      outer loop
         vertex 1.989615e+001 5.037077e+001 3.810000e+001
         vertex 1.989615e+001 5.037077e+001 1.387779e-014
         vertex 2.226433e+001 4.969656e+001 1.387779e-014
      endloop
   endfacet
   facet normal -2.945071e-001 -9.556493e-001 0.000000e+000
      outer loop
         vertex 1.989615e+001 5.037077e+001 3.810000e+001
         vertex 2.226433e+001 4.969656e+001 1.387779e-014
         vertex 2.226433e+001 4.969656e+001 3.810000e+001
      endloop
   endfacet
   facet normal -3.756663e-001 -9.267550e-001 0.000000e+000
      outer loop
         vertex 2.226433e+001 4.969656e+001 3.810000e+001
         vertex 2.226433e+001 4.969656e+001 1.387779e-014
         vertex 2.452577e+001 4.872253e+001 1.387779e-014
      endloop
   endfacet
   facet normal -4.153102e-001 -9.096798e-001 0.000000e+000
      outer loop
         vertex 2.226433e+001 4.969656e+001 3.810000e+001
         vertex 2.452577e+001 4.872253e+001 1.387779e-014
         vertex 2.452577e+001 4.872253e+001 3.810000e+001
      endloop
   endfacet
   facet normal -4.920645e-001 -8.705587e-001 0.000000e+000
      outer loop
         vertex 2.452577e+001 4.872253e+001 3.810000e+001
         vertex 2.452577e+001 4.872253e+001 1.387779e-014
         vertex 2.664269e+001 4.746494e+001 1.387779e-014
      endloop
   endfacet
   facet normal -5.291749e-001 -8.485128e-001 0.000000e+000
      outer loop
         vertex 2.452577e+001 4.872253e+001 3.810000e+001
         vertex 2.664269e+001 4.746494e+001 1.387779e-014
         vertex 2.664269e+001 4.746494e+001 3.810000e+001
      endloop
   endfacet
   facet normal -6.002421e-001 -7.998184e-001 0.000000e+000
      outer loop
         vertex 2.664269e+001 4.746494e+001 3.810000e+001
         vertex 2.664269e+001 4.746494e+001 1.387779e-014
         vertex 2.857972e+001 4.594481e+001 1.387779e-014
      endloop
   endfacet
   facet normal -6.341989e-001 -7.731699e-001 0.000000e+000
      outer loop
         vertex 2.664269e+001 4.746494e+001 3.810000e+001
         vertex 2.857972e+001 4.594481e+001 1.387779e-014
         vertex 2.857972e+001 4.594481e+001 3.810000e+001
      endloop
   endfacet
   facet normal -6.983917e-001 -7.157158e-001 0.000000e+000
      outer loop
         vertex 2.857972e+001 4.594481e+001 3.810000e+001
         vertex 2.857972e+001 4.594481e+001 1.387779e-014
         vertex 3.030449e+001 4.418754e+001 1.387779e-014
      endloop
   endfacet
   facet normal -7.286276e-001 -6.849101e-001 0.000000e+000
      outer loop
         vertex 2.857972e+001 4.594481e+001 3.810000e+001
         vertex 3.030449e+001 4.418754e+001 1.387779e-014
         vertex 3.030449e+001 4.418754e+001 3.810000e+001
      endloop
   endfacet
   facet normal -7.848734e-001 -6.196561e-001 0.000000e+000
      outer loop
         vertex 3.030449e+001 4.418754e+001 3.810000e+001
         vertex 3.030449e+001 4.418754e+001 1.387779e-014
         vertex 3.178820e+001 4.222247e+001 1.387779e-014
      endloop
   endfacet
   facet normal -8.108833e-001 -5.852078e-001 0.000000e+000
      outer loop
         vertex 3.030449e+001 4.418754e+001 3.810000e+001
         vertex 3.178820e+001 4.222247e+001 1.387779e-014
         vertex 3.178820e+001 4.222247e+001 3.810000e+001
      endloop
   endfacet
   facet normal -8.582428e-001 -5.132440e-001 0.000000e+000
      outer loop
         vertex 3.178820e+001 4.222247e+001 3.810000e+001
         vertex 3.178820e+001 4.222247e+001 1.387779e-014
         vertex 3.300605e+001 4.008245e+001 1.387779e-014
      endloop
   endfacet
   facet normal -8.795921e-001 -4.757286e-001 0.000000e+000
      outer loop
         vertex 3.178820e+001 4.222247e+001 3.810000e+001
         vertex 3.300605e+001 4.008245e+001 1.387779e-014
         vertex 3.300605e+001 4.008245e+001 3.810000e+001
      endloop
   endfacet
   facet normal -9.172737e-001 -3.982574e-001 0.000000e+000
      outer loop
         vertex 3.300605e+001 4.008245e+001 3.810000e+001
         vertex 3.300605e+001 4.008245e+001 1.387779e-014
         vertex 3.393770e+001 3.780322e+001 1.387779e-014
      endloop
   endfacet
   facet normal -9.336058e-001 -3.583016e-001 0.000000e+000
      outer loop
         vertex 3.300605e+001 4.008245e+001 3.810000e+001
         vertex 3.393770e+001 3.780322e+001 1.387779e-014
         vertex 3.393770e+001 3.780322e+001 3.810000e+001
      endloop
   endfacet
   facet normal -9.609802e-001 -2.766173e-001 0.000000e+000
      outer loop
         vertex 3.393770e+001 3.780322e+001 3.810000e+001
         vertex 3.393770e+001 3.780322e+001 1.387779e-014
         vertex 3.456758e+001 3.542287e+001 1.387779e-014
      endloop
   endfacet
   facet normal -9.720223e-001 -2.348887e-001 0.000000e+000
      outer loop
         vertex 3.393770e+001 3.780322e+001 3.810000e+001
         vertex 3.456758e+001 3.542287e+001 1.387779e-014
         vertex 3.456758e+001 3.542287e+001 3.810000e+001
      endloop
   endfacet
   facet normal -9.886320e-001 -1.503558e-001 0.000000e+000
      outer loop
         vertex 3.456758e+001 3.542287e+001 3.810000e+001
         vertex 3.456758e+001 3.542287e+001 1.387779e-014
         vertex 3.488517e+001 3.298115e+001 1.387779e-014
      endloop
   endfacet
   facet normal -9.941995e-001 -1.075515e-001 0.000000e+000
      outer loop
         vertex 3.456758e+001 3.542287e+001 3.810000e+001
         vertex 3.488517e+001 3.298115e+001 1.387779e-014
         vertex 3.488517e+001 3.298115e+001 3.810000e+001
      endloop
   endfacet
   facet normal -9.997671e-001 -2.158242e-002 0.000000e+000
      outer loop
         vertex 3.488517e+001 3.298115e+001 3.810000e+001
         vertex 3.488517e+001 3.298115e+001 1.387779e-014
         vertex 3.488517e+001 3.051886e+001 1.387779e-014
      endloop
   endfacet
   facet normal -9.997671e-001 2.158242e-002 0.000000e+000
      outer loop
         vertex 3.488517e+001 3.298115e+001 3.810000e+001
         vertex 3.488517e+001 3.051886e+001 1.387779e-014
         vertex 3.488517e+001 3.051886e+001 3.810000e+001
      endloop
   endfacet
   facet normal -9.941995e-001 1.075515e-001 0.000000e+000
      outer loop
         vertex 3.488517e+001 3.051886e+001 3.810000e+001
         vertex 3.488517e+001 3.051886e+001 1.387779e-014
         vertex 3.456758e+001 2.807714e+001 1.387779e-014
      endloop
   endfacet
   facet normal -9.886320e-001 1.503558e-001 0.000000e+000
      outer loop
         vertex 3.488517e+001 3.051886e+001 3.810000e+001
         vertex 3.456758e+001 2.807714e+001 1.387779e-014
         vertex 3.456758e+001 2.807714e+001 3.810000e+001
      endloop
   endfacet
   facet normal -9.720223e-001 2.348887e-001 0.000000e+000
      outer loop
         vertex 3.456758e+001 2.807714e+001 3.810000e+001
         vertex 3.456758e+001 2.807714e+001 1.387779e-014
         vertex 3.393770e+001 2.569678e+001 1.387779e-014
      endloop
   endfacet
   facet normal -9.609802e-001 2.766173e-001 0.000000e+000
      outer loop
         vertex 3.456758e+001 2.807714e+001 3.810000e+001
         vertex 3.393770e+001 2.569678e+001 1.387779e-014
         vertex 3.393770e+001 2.569678e+001 3.810000e+001
      endloop
   endfacet
   facet normal -9.336058e-001 3.583016e-001 0.000000e+000
      outer loop
         vertex 3.393770e+001 2.569678e+001 3.810000e+001
         vertex 3.393770e+001 2.569678e+001 1.387779e-014
         vertex 3.300605e+001 2.341755e+001 1.387779e-014
      endloop
   endfacet
   facet normal -9.172737e-001 3.982574e-001 0.000000e+000
      outer loop
         vertex 3.393770e+001 2.569678e+001 3.810000e+001
         vertex 3.300605e+001 2.341755e+001 1.387779e-014
         vertex 3.300605e+001 2.341755e+001 3.810000e+001
      endloop
   endfacet
   facet normal -8.795921e-001 4.757286e-001 0.000000e+000
      outer loop
         vertex 3.300605e+001 2.341755e+001 3.810000e+001
         vertex 3.300605e+001 2.341755e+001 1.387779e-014
         vertex 3.178820e+001 2.127753e+001 1.387779e-014
      endloop
   endfacet
   facet normal -8.582428e-001 5.132440e-001 0.000000e+000
      outer loop
         vertex 3.300605e+001 2.341755e+001 3.810000e+001
         vertex 3.178820e+001 2.127753e+001 1.387779e-014
         vertex 3.178820e+001 2.127753e+001 3.810000e+001
      endloop
   endfacet
   facet normal -8.108833e-001 5.852078e-001 0.000000e+000
      outer loop
         vertex 3.178820e+001 2.127753e+001 3.810000e+001
         vertex 3.178820e+001 2.127753e+001 1.387779e-014
         vertex 3.030449e+001 1.931246e+001 1.387779e-014
      endloop
   endfacet
   facet normal -7.848734e-001 6.196561e-001 0.000000e+000
      outer loop
         vertex 3.178820e+001 2.127753e+001 3.810000e+001
         vertex 3.030449e+001 1.931246e+001 1.387779e-014
         vertex 3.030449e+001 1.931246e+001 3.810000e+001
      endloop
   endfacet
   facet normal -7.286276e-001 6.849101e-001 0.000000e+000
      outer loop
         vertex 3.030449e+001 1.931246e+001 3.810000e+001
         vertex 3.030449e+001 1.931246e+001 1.387779e-014
         vertex 2.857972e+001 1.755519e+001 1.387779e-014
      endloop
   endfacet
   facet normal -6.983917e-001 7.157158e-001 0.000000e+000
      outer loop
         vertex 3.030449e+001 1.931246e+001 3.810000e+001
         vertex 2.857972e+001 1.755519e+001 1.387779e-014
         vertex 2.857972e+001 1.755519e+001 3.810000e+001
      endloop
   endfacet
   facet normal -6.341989e-001 7.731699e-001 0.000000e+000
      outer loop
         vertex 2.857972e+001 1.755519e+001 3.810000e+001
         vertex 2.857972e+001 1.755519e+001 1.387779e-014
         vertex 2.664269e+001 1.603506e+001 1.387779e-014
      endloop
   endfacet
   facet normal -6.002421e-001 7.998184e-001 0.000000e+000
      outer loop
         vertex 2.857972e+001 1.755519e+001 3.810000e+001
         vertex 2.664269e+001 1.603506e+001 1.387779e-014
         vertex 2.664269e+001 1.603506e+001 3.810000e+001
      endloop
   endfacet
   facet normal -5.291749e-001 8.485128e-001 0.000000e+000
      outer loop
         vertex 2.664269e+001 1.603506e+001 3.810000e+001
         vertex 2.664269e+001 1.603506e+001 1.387779e-014
         vertex 2.452577e+001 1.477748e+001 1.387779e-014
      endloop
   endfacet
   facet normal -4.920645e-001 8.705587e-001 0.000000e+000
      outer loop
         vertex 2.664269e+001 1.603506e+001 3.810000e+001
         vertex 2.452577e+001 1.477748e+001 1.387779e-014
         vertex 2.452577e+001 1.477748e+001 3.810000e+001
      endloop
   endfacet
   facet normal -4.153102e-001 9.096798e-001 0.000000e+000
      outer loop
         vertex 2.452577e+001 1.477748e+001 3.810000e+001
         vertex 2.452577e+001 1.477748e+001 1.387779e-014
         vertex 2.226433e+001 1.380344e+001 1.387779e-014
      endloop
   endfacet
   facet normal -3.756663e-001 9.267550e-001 0.000000e+000
      outer loop
         vertex 2.452577e+001 1.477748e+001 3.810000e+001
         vertex 2.226433e+001 1.380344e+001 1.387779e-014
         vertex 2.226433e+001 1.380344e+001 3.810000e+001
      endloop
   endfacet
   facet normal -2.945071e-001 9.556493e-001 0.000000e+000
      outer loop
         vertex 2.226433e+001 1.380344e+001 3.810000e+001
         vertex 2.226433e+001 1.380344e+001 1.387779e-014
         vertex 1.989615e+001 1.312924e+001 1.387779e-014
      endloop
   endfacet
   facet normal -2.529919e-001 9.674684e-001 0.000000e+000
      outer loop
         vertex 2.226433e+001 1.380344e+001 3.810000e+001
         vertex 1.989615e+001 1.312924e+001 1.387779e-014
         vertex 1.989615e+001 1.312924e+001 3.810000e+001
      endloop
   endfacet
   facet normal -1.687838e-001 9.856531e-001 0.000000e+000
      outer loop
         vertex 1.989615e+001 1.312924e+001 3.810000e+001
         vertex 1.989615e+001 1.312924e+001 1.387779e-014
         vertex 1.746078e+001 1.276612e+001 1.387779e-014
      endloop
   endfacet
   facet normal -1.260910e-001 9.920187e-001 0.000000e+000
      outer loop
         vertex 1.989615e+001 1.312924e+001 3.810000e+001
         vertex 1.746078e+001 1.276612e+001 1.387779e-014
         vertex 1.746078e+001 1.276612e+001 3.810000e+001
      endloop
   endfacet
   facet normal -4.024074e-002 9.991900e-001 0.000000e+000
      outer loop
         vertex 1.746078e+001 1.276612e+001 3.810000e+001
         vertex 1.746078e+001 1.276612e+001 1.387779e-014
         vertex 1.499892e+001 1.272016e+001 1.387779e-014
      endloop
   endfacet
   facet normal 2.916577e-003 9.999958e-001 0.000000e+000
      outer loop
         vertex 1.746078e+001 1.276612e+001 3.810000e+001
         vertex 1.499892e+001 1.272016e+001 1.387779e-014
         vertex 1.499892e+001 1.272016e+001 3.810000e+001
      endloop
   endfacet
   facet normal 8.897464e-002 9.960339e-001 0.000000e+000
      outer loop
         vertex 1.499892e+001 1.272016e+001 3.810000e+001
         vertex 1.499892e+001 1.272016e+001 1.387779e-014
         vertex 1.255170e+001 1.299212e+001 1.387779e-014
      endloop
   endfacet
   facet normal 1.318754e-001 9.912663e-001 0.000000e+000
      outer loop
         vertex 1.499892e+001 1.272016e+001 3.810000e+001
         vertex 1.255170e+001 1.299212e+001 1.387779e-014
         vertex 1.255170e+001 1.299212e+001 3.810000e+001
      endloop
   endfacet
   facet normal 2.167036e-001 9.762375e-001 0.000000e+000
      outer loop
         vertex 1.255170e+001 1.299212e+001 3.810000e+001
         vertex 1.255170e+001 1.299212e+001 1.387779e-014
         vertex 1.016000e+001 1.357746e+001 1.387779e-014
      endloop
   endfacet
   facet normal 2.586310e-001 9.659762e-001 0.000000e+000
      outer loop
         vertex 1.255170e+001 1.299212e+001 3.810000e+001
         vertex 1.016000e+001 1.357746e+001 1.387779e-014
         vertex 1.016000e+001 1.357746e+001 3.810000e+001
      endloop
   endfacet
   facet normal -8.029522e-001 5.960434e-001 0.000000e+000
      outer loop
         vertex 1.016000e+001 1.357746e+001 3.810000e+001
         vertex 1.016000e+001 1.357746e+001 1.387779e-014
         vertex 8.471057e+000 1.137031e+001 1.387779e-014
      endloop
   endfacet
   facet normal -7.852054e-001 6.192354e-001 0.000000e+000
      outer loop
         vertex 1.016000e+001 1.357746e+001 3.810000e+001
         vertex 8.471057e+000 1.137031e+001 1.387779e-014
         vertex 8.471057e+000 1.137031e+001 3.810000e+001
      endloop
   endfacet
   facet normal -7.477517e-001 6.639785e-001 0.000000e+000
      outer loop
         vertex 8.471057e+000 1.137031e+001 3.810000e+001
         vertex 8.471057e+000 1.137031e+001 1.387779e-014
         vertex 6.595567e+000 9.319305e+000 1.387779e-014
      endloop
   endfacet
   facet normal -7.280447e-001 6.855297e-001 0.000000e+000
      outer loop
         vertex 8.471057e+000 1.137031e+001 3.810000e+001
         vertex 6.595567e+000 9.319305e+000 1.387779e-014
         vertex 6.595567e+000 9.319305e+000 3.810000e+001
      endloop
   endfacet
   facet normal -6.868216e-001 7.268261e-001 0.000000e+000
      outer loop
         vertex 6.595567e+000 9.319305e+000 3.810000e+001
         vertex 6.595567e+000 9.319305e+000 1.387779e-014
         vertex 4.547902e+000 7.440176e+000 1.387779e-014
      endloop
   endfacet
   facet normal -6.653054e-001 7.465713e-001 0.000000e+000
      outer loop
         vertex 6.595567e+000 9.319305e+000 3.810000e+001
         vertex 4.547902e+000 7.440176e+000 1.387779e-014
         vertex 4.547902e+000 7.440176e+000 3.810000e+001
      endloop
   endfacet
   facet normal -6.206289e-001 7.841045e-001 0.000000e+000
      outer loop
         vertex 4.547902e+000 7.440176e+000 3.810000e+001
         vertex 4.547902e+000 7.440176e+000 1.387779e-014
         vertex 2.343750e+000 5.747314e+000 1.387779e-014
      endloop
   endfacet
   facet normal -5.974684e-001 8.018924e-001 0.000000e+000
      outer loop
         vertex 4.547902e+000 7.440176e+000 3.810000e+001
         vertex 2.343750e+000 5.747314e+000 1.387779e-014
         vertex 2.343750e+000 5.747314e+000 3.810000e+001
      endloop
   endfacet
   facet normal -5.496808e-001 8.353748e-001 0.000000e+000
      outer loop
         vertex 2.343750e+000 5.747314e+000 3.810000e+001
         vertex 2.343750e+000 5.747314e+000 1.387779e-014
         vertex 0.000000e+000 4.253695e+000 1.387779e-014
      endloop
   endfacet
   facet normal -5.250535e-001 8.510692e-001 0.000000e+000
      outer loop
         vertex 2.343750e+000 5.747314e+000 3.810000e+001
         vertex 0.000000e+000 4.253695e+000 1.387779e-014
         vertex 0.000000e+000 4.253695e+000 3.810000e+001
      endloop
   endfacet
   facet normal -4.702348e-001 -8.825414e-001 0.000000e+000
      outer loop
         vertex 0.000000e+000 4.253695e+000 3.810000e+001
         vertex 0.000000e+000 4.253695e+000 1.387779e-014
         vertex 2.887071e+000 2.778010e+000 1.387779e-014
      endloop
   endfacet
   facet normal -4.398891e-001 -8.980521e-001 0.000000e+000
      outer loop
         vertex 0.000000e+000 4.253695e+000 3.810000e+001
         vertex 2.887071e+000 2.778010e+000 1.387779e-014
         vertex 2.887071e+000 2.778010e+000 3.810000e+001
      endloop
   endfacet
   facet normal -3.777741e-001 -9.258978e-001 0.000000e+000
      outer loop
         vertex 2.887071e+000 2.778010e+000 3.810000e+001
         vertex 2.887071e+000 2.778010e+000 1.387779e-014
         vertex 5.909590e+000 1.604470e+000 1.387779e-014
      endloop
   endfacet
   facet normal -3.460048e-001 -9.382327e-001 0.000000e+000
      outer loop
         vertex 2.887071e+000 2.778010e+000 3.810000e+001
         vertex 5.909590e+000 1.604470e+000 1.387779e-014
         vertex 5.909590e+000 1.604470e+000 3.810000e+001
      endloop
   endfacet
   facet normal -2.813739e-001 -9.595982e-001 0.000000e+000
      outer loop
         vertex 5.909590e+000 1.604470e+000 3.810000e+001
         vertex 5.909590e+000 1.604470e+000 1.387779e-014
         vertex 9.036035e+000 7.453077e-001 1.387779e-014
      endloop
   endfacet
   facet normal -2.485122e-001 -9.686288e-001 0.000000e+000
      outer loop
         vertex 5.909590e+000 1.604470e+000 3.810000e+001
         vertex 9.036035e+000 7.453077e-001 1.387779e-014
         vertex 9.036035e+000 7.453077e-001 3.810000e+001
      endloop
   endfacet
   facet normal -1.820392e-001 -9.832913e-001 0.000000e+000
      outer loop
         vertex 9.036035e+000 7.453077e-001 3.810000e+001
         vertex 9.036035e+000 7.453077e-001 1.387779e-014
         vertex 1.223380e+001 2.094842e-001 1.387779e-014
      endloop
   endfacet
   facet normal -1.484279e-001 -9.889233e-001 0.000000e+000
      outer loop
         vertex 9.036035e+000 7.453077e-001 3.810000e+001
         vertex 1.223380e+001 2.094842e-001 1.387779e-014
         vertex 1.223380e+001 2.094842e-001 3.810000e+001
      endloop
   endfacet
   facet normal -8.080609e-002 -9.967299e-001 0.000000e+000
      outer loop
         vertex 1.223380e+001 2.094842e-001 3.810000e+001
         vertex 1.223380e+001 2.094842e-001 1.387779e-014
         vertex 1.546954e+001 2.589077e-003 1.387779e-014
      endloop
   endfacet
   facet normal -4.679563e-002 -9.989045e-001 0.000000e+000
      outer loop
         vertex 1.223380e+001 2.094842e-001 3.810000e+001
         vertex 1.546954e+001 2.589077e-003 1.387779e-014
         vertex 1.546954e+001 2.589077e-003 3.810000e+001
      endloop
   endfacet
   facet normal 2.126972e-002 -9.997737e-001 0.000000e+000
      outer loop
         vertex 1.546954e+001 2.589077e-003 3.810000e+001
         vertex 1.546954e+001 2.589077e-003 1.387779e-014
         vertex 1.870951e+001 1.267791e-001 1.387779e-014
      endloop
   endfacet
   facet normal 5.532463e-002 -9.984684e-001 0.000000e+000
      outer loop
         vertex 1.546954e+001 2.589077e-003 3.810000e+001
         vertex 1.870951e+001 1.267791e-001 1.387779e-014
         vertex 1.870951e+001 1.267791e-001 3.810000e+001
      endloop
   endfacet
   facet normal 1.231237e-001 -9.923913e-001 0.000000e+000
      outer loop
         vertex 1.870951e+001 1.267791e-001 3.810000e+001
         vertex 1.870951e+001 1.267791e-001 1.387779e-014
         vertex 2.191992e+001 5.807616e-001 1.387779e-014
      endloop
   endfacet
   facet normal 1.568679e-001 -9.876196e-001 0.000000e+000
      outer loop
         vertex 1.870951e+001 1.267791e-001 3.810000e+001
         vertex 2.191992e+001 5.807616e-001 1.387779e-014
         vertex 2.191992e+001 5.807616e-001 3.810000e+001
      endloop
   endfacet
   facet normal 2.236937e-001 -9.746595e-001 0.000000e+000
      outer loop
         vertex 2.191992e+001 5.807616e-001 3.810000e+001
         vertex 2.191992e+001 5.807616e-001 1.387779e-014
         vertex 2.506729e+001 1.359798e+000 1.387779e-014
      endloop
   endfacet
   facet normal 2.567753e-001 -9.664711e-001 0.000000e+000
      outer loop
         vertex 2.191992e+001 5.807616e-001 3.810000e+001
         vertex 2.506729e+001 1.359798e+000 1.387779e-014
         vertex 2.506729e+001 1.359798e+000 3.810000e+001
      endloop
   endfacet
   facet normal 3.219308e-001 -9.467632e-001 0.000000e+000
      outer loop
         vertex 2.506729e+001 1.359798e+000 3.810000e+001
         vertex 2.506729e+001 1.359798e+000 1.387779e-014
         vertex 2.811879e+001 2.455767e+000 1.387779e-014
      endloop
   endfacet
   facet normal 3.540048e-001 -9.352436e-001 0.000000e+000
      outer loop
         vertex 2.506729e+001 1.359798e+000 3.810000e+001
         vertex 2.811879e+001 2.455767e+000 1.387779e-014
         vertex 2.811879e+001 2.455767e+000 3.810000e+001
      endloop
   endfacet
   facet normal 4.168106e-001 -9.089934e-001 0.000000e+000
      outer loop
         vertex 2.811879e+001 2.455767e+000 3.810000e+001
         vertex 2.811879e+001 2.455767e+000 1.387779e-014
         vertex 3.104261e+001 3.857236e+000 1.387779e-014
      endloop
   endfacet
   facet normal 4.475425e-001 -8.942627e-001 0.000000e+000
      outer loop
         vertex 2.811879e+001 2.455767e+000 3.810000e+001
         vertex 3.104261e+001 3.857236e+000 1.387779e-014
         vertex 3.104261e+001 3.857236e+000 3.810000e+001
      endloop
   endfacet
   facet normal 5.073436e-001 -8.617439e-001 0.000000e+000
      outer loop
         vertex 3.104261e+001 3.857236e+000 3.810000e+001
         vertex 3.104261e+001 3.857236e+000 1.387779e-014
         vertex 3.380824e+001 5.549593e+000 1.387779e-014
      endloop
   endfacet
   facet normal 5.364128e-001 -8.439557e-001 0.000000e+000
      outer loop
         vertex 3.104261e+001 3.857236e+000 3.810000e+001
         vertex 3.380824e+001 5.549593e+000 1.387779e-014
         vertex 3.380824e+001 5.549593e+000 3.810000e+001
      endloop
   endfacet
   facet normal 5.925856e-001 -8.055075e-001 0.000000e+000
      outer loop
         vertex 3.380824e+001 5.549593e+000 3.810000e+001
         vertex 3.380824e+001 5.549593e+000 1.387779e-014
         vertex 3.638686e+001 7.515186e+000 1.387779e-014
      endloop
   endfacet
   facet normal 6.196892e-001 -7.848474e-001 0.000000e+000
      outer loop
         vertex 3.380824e+001 5.549593e+000 3.810000e+001
         vertex 3.638686e+001 7.515186e+000 1.387779e-014
         vertex 3.638686e+001 7.515186e+000 3.810000e+001
      endloop
   endfacet
   facet normal 6.716477e-001 -7.408707e-001 0.000000e+000
      outer loop
         vertex 3.638686e+001 7.515186e+000 3.810000e+001
         vertex 3.638686e+001 7.515186e+000 1.387779e-014
         vertex 3.875156e+001 9.733519e+000 1.387779e-014
      endloop
   endfacet
   facet normal 6.965029e-001 -7.175540e-001 0.000000e+000
      outer loop
         vertex 3.638686e+001 7.515186e+000 3.810000e+001
         vertex 3.875156e+001 9.733519e+000 1.387779e-014
         vertex 3.875156e+001 9.733519e+000 3.810000e+001
      endloop
   endfacet
   facet normal 7.437054e-001 -6.685075e-001 0.000000e+000
      outer loop
         vertex 3.875156e+001 9.733519e+000 3.810000e+001
         vertex 3.875156e+001 9.733519e+000 1.387779e-014
         vertex 4.087769e+001 1.218146e+001 1.387779e-014
      endloop
   endfacet
   facet normal 7.660529e-001 -6.427775e-001 0.000000e+000
      outer loop
         vertex 3.875156e+001 9.733519e+000 3.810000e+001
         vertex 4.087769e+001 1.218146e+001 1.387779e-014
         vertex 4.087769e+001 1.218146e+001 3.810000e+001
      endloop
   endfacet
   facet normal 8.080072e-001 -5.891726e-001 0.000000e+000
      outer loop
         vertex 4.087769e+001 1.218146e+001 3.810000e+001
         vertex 4.087769e+001 1.218146e+001 1.387779e-014
         vertex 4.274307e+001 1.483347e+001 1.387779e-014
      endloop
   endfacet
   facet normal 8.276140e-001 -5.612977e-001 0.000000e+000
      outer loop
         vertex 4.087769e+001 1.218146e+001 3.810000e+001
         vertex 4.274307e+001 1.483347e+001 1.387779e-014
         vertex 4.274307e+001 1.483347e+001 3.810000e+001
      endloop
   endfacet
   facet normal 8.638825e-001 -5.036935e-001 0.000000e+000
      outer loop
         vertex 4.274307e+001 1.483347e+001 3.810000e+001
         vertex 4.274307e+001 1.483347e+001 1.387779e-014
         vertex 4.432826e+001 1.766190e+001 1.387779e-014
      endloop
   endfacet
   facet normal 8.805441e-001 -4.739642e-001 0.000000e+000
      outer loop
         vertex 4.274307e+001 1.483347e+001 3.810000e+001
         vertex 4.432826e+001 1.766190e+001 1.387779e-014
         vertex 4.432826e+001 1.766190e+001 3.810000e+001
      endloop
   endfacet
   facet normal 9.107485e-001 -4.129614e-001 0.000000e+000
      outer loop
         vertex 4.432826e+001 1.766190e+001 3.810000e+001
         vertex 4.432826e+001 1.766190e+001 1.387779e-014
         vertex 4.561671e+001 2.063725e+001 1.387779e-014
      endloop
   endfacet
   facet normal 9.242913e-001 -3.816878e-001 0.000000e+000
      outer loop
         vertex 4.432826e+001 1.766190e+001 3.810000e+001
         vertex 4.561671e+001 2.063725e+001 1.387779e-014
         vertex 4.561671e+001 2.063725e+001 3.810000e+001
      endloop
   endfacet
   facet normal 9.481167e-001 -3.179226e-001 0.000000e+000
      outer loop
         vertex 4.561671e+001 2.063725e+001 3.810000e+001
         vertex 4.561671e+001 2.063725e+001 1.387779e-014
         vertex 4.659499e+001 2.372849e+001 1.387779e-014
      endloop
   endfacet
   facet normal 9.583993e-001 -2.854310e-001 0.000000e+000
      outer loop
         vertex 4.561671e+001 2.063725e+001 3.810000e+001
         vertex 4.659499e+001 2.372849e+001 1.387779e-014
         vertex 4.659499e+001 2.372849e+001 3.810000e+001
      endloop
   endfacet
   facet normal 9.755971e-001 -2.195684e-001 0.000000e+000
      outer loop
         vertex 4.659499e+001 2.372849e+001 3.810000e+001
         vertex 4.659499e+001 2.372849e+001 1.387779e-014
         vertex 4.725290e+001 2.690339e+001 1.387779e-014
      endloop
   endfacet
   facet normal 9.825124e-001 -1.861974e-001 0.000000e+000
      outer loop
         vertex 4.659499e+001 2.372849e+001 3.810000e+001
         vertex 4.725290e+001 2.690339e+001 1.387779e-014
         vertex 4.725290e+001 2.690339e+001 3.810000e+001
      endloop
   endfacet
   facet normal 9.929033e-001 -1.189243e-001 0.000000e+000
      outer loop
         vertex 4.725290e+001 2.690339e+001 3.810000e+001
         vertex 4.725290e+001 2.690339e+001 1.387779e-014
         vertex 4.758358e+001 3.012883e+001 1.387779e-014
      endloop
   endfacet
   facet normal 9.963791e-001 -8.502207e-002 0.000000e+000
      outer loop
         vertex 4.725290e+001 2.690339e+001 3.810000e+001
         vertex 4.758358e+001 3.012883e+001 1.387779e-014
         vertex 4.758358e+001 3.012883e+001 3.810000e+001
      endloop
   endfacet
   facet normal 9.998548e-001 -1.703995e-002 0.000000e+000
      outer loop
         vertex 4.758358e+001 3.012883e+001 3.810000e+001
         vertex 4.758358e+001 3.012883e+001 1.387779e-014
         vertex 4.758358e+001 3.337118e+001 1.387779e-014
      endloop
   endfacet
   facet normal 9.998548e-001 1.703995e-002 0.000000e+000
      outer loop
         vertex 4.758358e+001 3.012883e+001 3.810000e+001
         vertex 4.758358e+001 3.337118e+001 1.387779e-014
         vertex 4.758358e+001 3.337118e+001 3.810000e+001
      endloop
   endfacet
   facet normal 9.963791e-001 8.502207e-002 0.000000e+000
      outer loop
         vertex 4.758358e+001 3.337118e+001 3.810000e+001
         vertex 4.758358e+001 3.337118e+001 1.387779e-014
         vertex 4.725290e+001 3.659661e+001 1.387779e-014
      endloop
   endfacet
   facet normal 9.929033e-001 1.189243e-001 0.000000e+000
      outer loop
         vertex 4.758358e+001 3.337118e+001 3.810000e+001
         vertex 4.725290e+001 3.659661e+001 1.387779e-014
         vertex 4.725290e+001 3.659661e+001 3.810000e+001
      endloop
   endfacet
   facet normal 9.825124e-001 1.861974e-001 0.000000e+000
      outer loop
         vertex 4.725290e+001 3.659661e+001 3.810000e+001
         vertex 4.725290e+001 3.659661e+001 1.387779e-014
         vertex 4.659499e+001 3.977151e+001 1.387779e-014
      endloop
   endfacet
   facet normal 9.755971e-001 2.195684e-001 0.000000e+000
      outer loop
         vertex 4.725290e+001 3.659661e+001 3.810000e+001
         vertex 4.659499e+001 3.977151e+001 1.387779e-014
         vertex 4.659499e+001 3.977151e+001 3.810000e+001
      endloop
   endfacet
   facet normal 9.583993e-001 2.854310e-001 0.000000e+000
      outer loop
         vertex 4.659499e+001 3.977151e+001 3.810000e+001
         vertex 4.659499e+001 3.977151e+001 1.387779e-014
         vertex 4.561671e+001 4.286275e+001 1.387779e-014
      endloop
   endfacet
   facet normal 9.481167e-001 3.179226e-001 0.000000e+000
      outer loop
         vertex 4.659499e+001 3.977151e+001 3.810000e+001
         vertex 4.561671e+001 4.286275e+001 1.387779e-014
         vertex 4.561671e+001 4.286275e+001 3.810000e+001
      endloop
   endfacet
   facet normal 9.242913e-001 3.816878e-001 0.000000e+000
      outer loop
         vertex 4.561671e+001 4.286275e+001 3.810000e+001
         vertex 4.561671e+001 4.286275e+001 1.387779e-014
         vertex 4.432826e+001 4.583811e+001 1.387779e-014
      endloop
   endfacet
   facet normal 9.107485e-001 4.129614e-001 0.000000e+000
      outer loop
         vertex 4.561671e+001 4.286275e+001 3.810000e+001
         vertex 4.432826e+001 4.583811e+001 1.387779e-014
         vertex 4.432826e+001 4.583811e+001 3.810000e+001
      endloop
   endfacet
   facet normal 8.805441e-001 4.739642e-001 0.000000e+000
      outer loop
         vertex 4.432826e+001 4.583811e+001 3.810000e+001
         vertex 4.432826e+001 4.583811e+001 1.387779e-014
         vertex 4.274307e+001 4.866654e+001 1.387779e-014
      endloop
   endfacet
   facet normal 8.638825e-001 5.036935e-001 0.000000e+000
      outer loop
         vertex 4.432826e+001 4.583811e+001 3.810000e+001
         vertex 4.274307e+001 4.866654e+001 1.387779e-014
         vertex 4.274307e+001 4.866654e+001 3.810000e+001
      endloop
   endfacet
   facet normal 8.276140e-001 5.612977e-001 0.000000e+000
      outer loop
         vertex 4.274307e+001 4.866654e+001 3.810000e+001
         vertex 4.274307e+001 4.866654e+001 1.387779e-014
         vertex 4.087769e+001 5.131855e+001 1.387779e-014
      endloop
   endfacet
   facet normal 8.080072e-001 5.891726e-001 0.000000e+000
      outer loop
         vertex 4.274307e+001 4.866654e+001 3.810000e+001
         vertex 4.087769e+001 5.131855e+001 1.387779e-014
         vertex 4.087769e+001 5.131855e+001 3.810000e+001
      endloop
   endfacet
   facet normal 7.660529e-001 6.427775e-001 0.000000e+000
      outer loop
         vertex 4.087769e+001 5.131855e+001 3.810000e+001
         vertex 4.087769e+001 5.131855e+001 1.387779e-014
         vertex 3.875156e+001 5.376648e+001 1.387779e-014
      endloop
   endfacet
   facet normal 7.437054e-001 6.685075e-001 0.000000e+000
      outer loop
         vertex 4.087769e+001 5.131855e+001 3.810000e+001
         vertex 3.875156e+001 5.376648e+001 1.387779e-014
         vertex 3.875156e+001 5.376648e+001 3.810000e+001
      endloop
   endfacet
   facet normal 6.965029e-001 7.175540e-001 0.000000e+000
      outer loop
         vertex 3.875156e+001 5.376648e+001 3.810000e+001
         vertex 3.875156e+001 5.376648e+001 1.387779e-014
         vertex 3.638686e+001 5.598482e+001 1.387779e-014
      endloop
   endfacet
   facet normal 6.716477e-001 7.408707e-001 0.000000e+000
      outer loop
         vertex 3.875156e+001 5.376648e+001 3.810000e+001
         vertex 3.638686e+001 5.598482e+001 1.387779e-014
         vertex 3.638686e+001 5.598482e+001 3.810000e+001
      endloop
   endfacet
   facet normal 6.196892e-001 7.848474e-001 0.000000e+000
      outer loop
         vertex 3.638686e+001 5.598482e+001 3.810000e+001
         vertex 3.638686e+001 5.598482e+001 1.387779e-014
         vertex 3.380824e+001 5.795041e+001 1.387779e-014
      endloop
   endfacet
   facet normal 5.925856e-001 8.055075e-001 0.000000e+000
      outer loop
         vertex 3.638686e+001 5.598482e+001 3.810000e+001
         vertex 3.380824e+001 5.795041e+001 1.387779e-014
         vertex 3.380824e+001 5.795041e+001 3.810000e+001
      endloop
   endfacet
   facet normal 5.364128e-001 8.439557e-001 0.000000e+000
      outer loop
         vertex 3.380824e+001 5.795041e+001 3.810000e+001
         vertex 3.380824e+001 5.795041e+001 1.387779e-014
         vertex 3.104261e+001 5.964277e+001 1.387779e-014
      endloop
   endfacet
   facet normal 5.073436e-001 8.617439e-001 0.000000e+000
      outer loop
         vertex 3.380824e+001 5.795041e+001 3.810000e+001
         vertex 3.104261e+001 5.964277e+001 1.387779e-014
         vertex 3.104261e+001 5.964277e+001 3.810000e+001
      endloop
   endfacet
   facet normal 4.475425e-001 8.942627e-001 0.000000e+000
      outer loop
         vertex 3.104261e+001 5.964277e+001 3.810000e+001
         vertex 3.104261e+001 5.964277e+001 1.387779e-014
         vertex 2.811879e+001 6.104424e+001 1.387779e-014
      endloop
   endfacet
   facet normal 4.168106e-001 9.089934e-001 0.000000e+000
      outer loop
         vertex 3.104261e+001 5.964277e+001 3.810000e+001
         vertex 2.811879e+001 6.104424e+001 1.387779e-014
         vertex 2.811879e+001 6.104424e+001 3.810000e+001
      endloop
   endfacet
   facet normal 3.540048e-001 9.352436e-001 0.000000e+000
      outer loop
         vertex 2.811879e+001 6.104424e+001 3.810000e+001
         vertex 2.811879e+001 6.104424e+001 1.387779e-014
         vertex 2.506729e+001 6.214021e+001 1.387779e-014
      endloop
   endfacet
   facet normal 3.219308e-001 9.467632e-001 0.000000e+000
      outer loop
         vertex 2.811879e+001 6.104424e+001 3.810000e+001
         vertex 2.506729e+001 6.214021e+001 1.387779e-014
         vertex 2.506729e+001 6.214021e+001 3.810000e+001
      endloop
   endfacet
   facet normal 2.567753e-001 9.664711e-001 0.000000e+000
      outer loop
         vertex 2.506729e+001 6.214021e+001 3.810000e+001
         vertex 2.506729e+001 6.214021e+001 1.387779e-014
         vertex 2.191992e+001 6.291924e+001 1.387779e-014
      endloop
   endfacet
   facet normal 2.236937e-001 9.746595e-001 0.000000e+000
      outer loop
         vertex 2.506729e+001 6.214021e+001 3.810000e+001
         vertex 2.191992e+001 6.291924e+001 1.387779e-014
         vertex 2.191992e+001 6.291924e+001 3.810000e+001
      endloop
   endfacet
   facet normal 1.568679e-001 9.876196e-001 0.000000e+000
      outer loop
         vertex 2.191992e+001 6.291924e+001 3.810000e+001
         vertex 2.191992e+001 6.291924e+001 1.387779e-014
         vertex 1.870951e+001 6.337322e+001 1.387779e-014
      endloop
   endfacet
   facet normal 1.231237e-001 9.923913e-001 0.000000e+000
      outer loop
         vertex 2.191992e+001 6.291924e+001 3.810000e+001
         vertex 1.870951e+001 6.337322e+001 1.387779e-014
         vertex 1.870951e+001 6.337322e+001 3.810000e+001
      endloop
   endfacet
   facet normal 5.532463e-002 9.984684e-001 0.000000e+000
      outer loop
         vertex 1.870951e+001 6.337322e+001 3.810000e+001
         vertex 1.870951e+001 6.337322e+001 1.387779e-014
         vertex 1.546954e+001 6.349741e+001 1.387779e-014
      endloop
   endfacet
   facet normal 2.126972e-002 9.997737e-001 0.000000e+000
      outer loop
         vertex 1.870951e+001 6.337322e+001 3.810000e+001
         vertex 1.546954e+001 6.349741e+001 1.387779e-014
         vertex 1.546954e+001 6.349741e+001 3.810000e+001
      endloop
   endfacet
   facet normal -4.679563e-002 9.989045e-001 0.000000e+000
      outer loop
         vertex 1.546954e+001 6.349741e+001 3.810000e+001
         vertex 1.546954e+001 6.349741e+001 1.387779e-014
         vertex 1.223380e+001 6.329052e+001 1.387779e-014
      endloop
   endfacet
   facet normal -8.080609e-002 9.967299e-001 0.000000e+000
      outer loop
         vertex 1.546954e+001 6.349741e+001 3.810000e+001
         vertex 1.223380e+001 6.329052e+001 1.387779e-014
         vertex 1.223380e+001 6.329052e+001 3.810000e+001
      endloop
   endfacet
   facet normal -1.484279e-001 9.889233e-001 0.000000e+000
      outer loop
         vertex 1.223380e+001 6.329052e+001 3.810000e+001
         vertex 1.223380e+001 6.329052e+001 1.387779e-014
         vertex 9.036035e+000 6.275469e+001 1.387779e-014
      endloop
   endfacet
   facet normal -1.820392e-001 9.832913e-001 0.000000e+000
      outer loop
         vertex 1.223380e+001 6.329052e+001 3.810000e+001
         vertex 9.036035e+000 6.275469e+001 1.387779e-014
         vertex 9.036035e+000 6.275469e+001 3.810000e+001
      endloop
   endfacet
   facet normal -2.485122e-001 9.686288e-001 0.000000e+000
      outer loop
         vertex 9.036035e+000 6.275469e+001 3.810000e+001
         vertex 9.036035e+000 6.275469e+001 1.387779e-014
         vertex 5.909590e+000 6.189553e+001 1.387779e-014
      endloop
   endfacet
   facet normal -2.813739e-001 9.595982e-001 0.000000e+000
      outer loop
         vertex 9.036035e+000 6.275469e+001 3.810000e+001
         vertex 5.909590e+000 6.189553e+001 1.387779e-014
         vertex 5.909590e+000 6.189553e+001 3.810000e+001
      endloop
   endfacet
   facet normal -3.460048e-001 9.382327e-001 0.000000e+000
      outer loop
         vertex 5.909590e+000 6.189553e+001 3.810000e+001
         vertex 5.909590e+000 6.189553e+001 1.387779e-014
         vertex 2.887071e+000 6.072199e+001 1.387779e-014
      endloop
   endfacet
   facet normal -3.777741e-001 9.258978e-001 0.000000e+000
      outer loop
         vertex 5.909590e+000 6.189553e+001 3.810000e+001
         vertex 2.887071e+000 6.072199e+001 1.387779e-014
         vertex 2.887071e+000 6.072199e+001 3.810000e+001
      endloop
   endfacet
   facet normal -4.398891e-001 8.980521e-001 0.000000e+000
      outer loop
         vertex 2.887071e+000 6.072199e+001 3.810000e+001
         vertex 2.887071e+000 6.072199e+001 1.387779e-014
         vertex 0.000000e+000 5.924631e+001 1.387779e-014
      endloop
   endfacet
   facet normal -4.702348e-001 8.825414e-001 0.000000e+000
      outer loop
         vertex 2.887071e+000 6.072199e+001 3.810000e+001
         vertex 0.000000e+000 5.924631e+001 1.387779e-014
         vertex 0.000000e+000 5.924631e+001 3.810000e+001
      endloop
   endfacet
   facet normal 0.000000e+000 0.000000e+000 1.000000e+000
      outer loop
         vertex 8.471057e+000 5.212970e+001 3.810000e+001
         vertex 1.016000e+001 4.992254e+001 3.810000e+001
         vertex 1.255170e+001 5.050788e+001 3.810000e+001
      endloop
   endfacet
   facet normal 0.000000e+000 0.000000e+000 1.000000e+000
      outer loop
         vertex 2.452577e+001 4.872253e+001 3.810000e+001
         vertex 2.811879e+001 6.104424e+001 3.810000e+001
         vertex 2.226433e+001 4.969656e+001 3.810000e+001
      endloop
   endfacet
   facet normal 0.000000e+000 0.000000e+000 1.000000e+000
      outer loop
         vertex 2.226433e+001 4.969656e+001 3.810000e+001
         vertex 2.811879e+001 6.104424e+001 3.810000e+001
         vertex 2.506729e+001 6.214021e+001 3.810000e+001
      endloop
   endfacet
   facet normal 0.000000e+000 0.000000e+000 1.000000e+000
      outer loop
         vertex 2.226433e+001 4.969656e+001 3.810000e+001
         vertex 2.506729e+001 6.214021e+001 3.810000e+001
         vertex 1.989615e+001 5.037077e+001 3.810000e+001
      endloop
   endfacet
   facet normal 0.000000e+000 0.000000e+000 1.000000e+000
      outer loop
         vertex 1.989615e+001 5.037077e+001 3.810000e+001
         vertex 2.506729e+001 6.214021e+001 3.810000e+001
         vertex 2.191992e+001 6.291924e+001 3.810000e+001
      endloop
   endfacet
   facet normal 0.000000e+000 0.000000e+000 1.000000e+000
      outer loop
         vertex 1.989615e+001 5.037077e+001 3.810000e+001
         vertex 2.191992e+001 6.291924e+001 3.810000e+001
         vertex 1.746078e+001 5.073388e+001 3.810000e+001
      endloop
   endfacet
   facet normal 0.000000e+000 0.000000e+000 1.000000e+000
      outer loop
         vertex 1.746078e+001 5.073388e+001 3.810000e+001
         vertex 2.191992e+001 6.291924e+001 3.810000e+001
         vertex 1.870951e+001 6.337322e+001 3.810000e+001
      endloop
   endfacet
   facet normal 0.000000e+000 0.000000e+000 1.000000e+000
      outer loop
         vertex 1.746078e+001 5.073388e+001 3.810000e+001
         vertex 1.870951e+001 6.337322e+001 3.810000e+001
         vertex 1.499892e+001 5.077985e+001 3.810000e+001
      endloop
   endfacet
   facet normal 0.000000e+000 0.000000e+000 1.000000e+000
      outer loop
         vertex 3.030449e+001 4.418754e+001 3.810000e+001
         vertex 3.875156e+001 5.376648e+001 3.810000e+001
         vertex 2.857972e+001 4.594481e+001 3.810000e+001
      endloop
   endfacet
   facet normal 0.000000e+000 0.000000e+000 1.000000e+000
      outer loop
         vertex 2.857972e+001 4.594481e+001 3.810000e+001
         vertex 3.875156e+001 5.376648e+001 3.810000e+001
         vertex 3.638686e+001 5.598482e+001 3.810000e+001
      endloop
   endfacet
   facet normal 0.000000e+000 0.000000e+000 1.000000e+000
      outer loop
         vertex 2.857972e+001 4.594481e+001 3.810000e+001
         vertex 3.638686e+001 5.598482e+001 3.810000e+001
         vertex 2.664269e+001 4.746494e+001 3.810000e+001
      endloop
   endfacet
   facet normal 0.000000e+000 0.000000e+000 1.000000e+000
      outer loop
         vertex 2.664269e+001 4.746494e+001 3.810000e+001
         vertex 3.638686e+001 5.598482e+001 3.810000e+001
         vertex 3.380824e+001 5.795041e+001 3.810000e+001
      endloop
   endfacet
   facet normal 0.000000e+000 0.000000e+000 1.000000e+000
      outer loop
         vertex 2.664269e+001 4.746494e+001 3.810000e+001
         vertex 3.380824e+001 5.795041e+001 3.810000e+001
         vertex 2.452577e+001 4.872253e+001 3.810000e+001
      endloop
   endfacet
   facet normal 0.000000e+000 0.000000e+000 1.000000e+000
      outer loop
         vertex 2.452577e+001 4.872253e+001 3.810000e+001
         vertex 3.380824e+001 5.795041e+001 3.810000e+001
         vertex 3.104261e+001 5.964277e+001 3.810000e+001
      endloop
   endfacet
   facet normal 0.000000e+000 0.000000e+000 1.000000e+000
      outer loop
         vertex 2.452577e+001 4.872253e+001 3.810000e+001
         vertex 3.104261e+001 5.964277e+001 3.810000e+001
         vertex 2.811879e+001 6.104424e+001 3.810000e+001
      endloop
   endfacet
   facet normal 0.000000e+000 0.000000e+000 1.000000e+000
      outer loop
         vertex 1.016000e+001 1.357746e+001 3.810000e+001
         vertex 8.471057e+000 1.137031e+001 3.810000e+001
         vertex 9.036035e+000 7.453077e-001 3.810000e+001
      endloop
   endfacet
   facet normal 0.000000e+000 0.000000e+000 1.000000e+000
      outer loop
         vertex 6.595567e+000 5.418070e+001 3.810000e+001
         vertex 8.471057e+000 5.212970e+001 3.810000e+001
         vertex 9.036035e+000 6.275469e+001 3.810000e+001
      endloop
   endfacet
   facet normal 0.000000e+000 0.000000e+000 1.000000e+000
      outer loop
         vertex 9.036035e+000 6.275469e+001 3.810000e+001
         vertex 8.471057e+000 5.212970e+001 3.810000e+001
         vertex 1.255170e+001 5.050788e+001 3.810000e+001
      endloop
   endfacet
   facet normal 0.000000e+000 0.000000e+000 1.000000e+000
      outer loop
         vertex 9.036035e+000 6.275469e+001 3.810000e+001
         vertex 1.255170e+001 5.050788e+001 3.810000e+001
         vertex 1.223380e+001 6.329052e+001 3.810000e+001
      endloop
   endfacet
   facet normal 0.000000e+000 0.000000e+000 1.000000e+000
      outer loop
         vertex 1.223380e+001 6.329052e+001 3.810000e+001
         vertex 1.255170e+001 5.050788e+001 3.810000e+001
         vertex 1.499892e+001 5.077985e+001 3.810000e+001
      endloop
   endfacet
   facet normal 0.000000e+000 0.000000e+000 1.000000e+000
      outer loop
         vertex 1.223380e+001 6.329052e+001 3.810000e+001
         vertex 1.499892e+001 5.077985e+001 3.810000e+001
         vertex 1.546954e+001 6.349741e+001 3.810000e+001
      endloop
   endfacet
   facet normal 0.000000e+000 0.000000e+000 1.000000e+000
      outer loop
         vertex 1.546954e+001 6.349741e+001 3.810000e+001
         vertex 1.499892e+001 5.077985e+001 3.810000e+001
         vertex 1.870951e+001 6.337322e+001 3.810000e+001
      endloop
   endfacet
   facet normal 0.000000e+000 0.000000e+000 1.000000e+000
      outer loop
         vertex 3.456758e+001 3.542287e+001 3.810000e+001
         vertex 4.659499e+001 3.977151e+001 3.810000e+001
         vertex 3.393770e+001 3.780322e+001 3.810000e+001
      endloop
   endfacet
   facet normal 0.000000e+000 0.000000e+000 1.000000e+000
      outer loop
         vertex 3.393770e+001 3.780322e+001 3.810000e+001
         vertex 4.659499e+001 3.977151e+001 3.810000e+001
         vertex 4.561671e+001 4.286275e+001 3.810000e+001
      endloop
   endfacet
   facet normal 0.000000e+000 0.000000e+000 1.000000e+000
      outer loop
         vertex 3.393770e+001 3.780322e+001 3.810000e+001
         vertex 4.561671e+001 4.286275e+001 3.810000e+001
         vertex 3.300605e+001 4.008245e+001 3.810000e+001
      endloop
   endfacet
   facet normal 0.000000e+000 0.000000e+000 1.000000e+000
      outer loop
         vertex 3.300605e+001 4.008245e+001 3.810000e+001
         vertex 4.561671e+001 4.286275e+001 3.810000e+001
         vertex 4.432826e+001 4.583811e+001 3.810000e+001
      endloop
   endfacet
   facet normal 0.000000e+000 0.000000e+000 1.000000e+000
      outer loop
         vertex 3.300605e+001 4.008245e+001 3.810000e+001
         vertex 4.432826e+001 4.583811e+001 3.810000e+001
         vertex 3.178820e+001 4.222247e+001 3.810000e+001
      endloop
   endfacet
   facet normal 0.000000e+000 0.000000e+000 1.000000e+000
      outer loop
         vertex 3.178820e+001 4.222247e+001 3.810000e+001
         vertex 4.432826e+001 4.583811e+001 3.810000e+001
         vertex 4.274307e+001 4.866654e+001 3.810000e+001
      endloop
   endfacet
   facet normal 0.000000e+000 0.000000e+000 1.000000e+000
      outer loop
         vertex 3.178820e+001 4.222247e+001 3.810000e+001
         vertex 4.274307e+001 4.866654e+001 3.810000e+001
         vertex 3.030449e+001 4.418754e+001 3.810000e+001
      endloop
   endfacet
   facet normal 0.000000e+000 0.000000e+000 1.000000e+000
      outer loop
         vertex 3.030449e+001 4.418754e+001 3.810000e+001
         vertex 4.274307e+001 4.866654e+001 3.810000e+001
         vertex 4.087769e+001 5.131855e+001 3.810000e+001
      endloop
   endfacet
   facet normal 0.000000e+000 0.000000e+000 1.000000e+000
      outer loop
         vertex 3.030449e+001 4.418754e+001 3.810000e+001
         vertex 4.087769e+001 5.131855e+001 3.810000e+001
         vertex 3.875156e+001 5.376648e+001 3.810000e+001
      endloop
   endfacet
   facet normal 0.000000e+000 0.000000e+000 1.000000e+000
      outer loop
         vertex 1.016000e+001 1.357746e+001 3.810000e+001
         vertex 9.036035e+000 7.453077e-001 3.810000e+001
         vertex 1.255170e+001 1.299212e+001 3.810000e+001
      endloop
   endfacet
   facet normal 0.000000e+000 0.000000e+000 1.000000e+000
      outer loop
         vertex 1.255170e+001 1.299212e+001 3.810000e+001
         vertex 9.036035e+000 7.453077e-001 3.810000e+001
         vertex 1.223380e+001 2.094842e-001 3.810000e+001
      endloop
   endfacet
   facet normal 0.000000e+000 0.000000e+000 1.000000e+000
      outer loop
         vertex 1.255170e+001 1.299212e+001 3.810000e+001
         vertex 1.223380e+001 2.094842e-001 3.810000e+001
         vertex 1.499892e+001 1.272016e+001 3.810000e+001
      endloop
   endfacet
   facet normal 0.000000e+000 0.000000e+000 1.000000e+000
      outer loop
         vertex 1.499892e+001 1.272016e+001 3.810000e+001
         vertex 1.223380e+001 2.094842e-001 3.810000e+001
         vertex 1.546954e+001 2.589077e-003 3.810000e+001
      endloop
   endfacet
   facet normal 0.000000e+000 0.000000e+000 1.000000e+000
      outer loop
         vertex 1.499892e+001 1.272016e+001 3.810000e+001
         vertex 1.546954e+001 2.589077e-003 3.810000e+001
         vertex 1.746078e+001 1.276612e+001 3.810000e+001
      endloop
   endfacet
   facet normal 0.000000e+000 0.000000e+000 1.000000e+000
      outer loop
         vertex 1.746078e+001 1.276612e+001 3.810000e+001
         vertex 1.546954e+001 2.589077e-003 3.810000e+001
         vertex 1.870951e+001 1.267791e-001 3.810000e+001
      endloop
   endfacet
   facet normal 0.000000e+000 0.000000e+000 1.000000e+000
      outer loop
         vertex 1.746078e+001 1.276612e+001 3.810000e+001
         vertex 1.870951e+001 1.267791e-001 3.810000e+001
         vertex 1.989615e+001 1.312924e+001 3.810000e+001
      endloop
   endfacet
   facet normal 0.000000e+000 0.000000e+000 1.000000e+000
      outer loop
         vertex 1.989615e+001 1.312924e+001 3.810000e+001
         vertex 1.870951e+001 1.267791e-001 3.810000e+001
         vertex 2.191992e+001 5.807616e-001 3.810000e+001
      endloop
   endfacet
   facet normal 0.000000e+000 0.000000e+000 1.000000e+000
      outer loop
         vertex 1.989615e+001 1.312924e+001 3.810000e+001
         vertex 2.191992e+001 5.807616e-001 3.810000e+001
         vertex 2.226433e+001 1.380344e+001 3.810000e+001
      endloop
   endfacet
   facet normal 0.000000e+000 0.000000e+000 1.000000e+000
      outer loop
         vertex 2.887071e+000 6.072199e+001 3.810000e+001
         vertex 0.000000e+000 5.924631e+001 3.810000e+001
         vertex 5.909590e+000 6.189553e+001 3.810000e+001
      endloop
   endfacet
   facet normal 0.000000e+000 0.000000e+000 1.000000e+000
      outer loop
         vertex 5.909590e+000 6.189553e+001 3.810000e+001
         vertex 0.000000e+000 5.924631e+001 3.810000e+001
         vertex 2.343750e+000 5.775269e+001 3.810000e+001
      endloop
   endfacet
   facet normal 0.000000e+000 0.000000e+000 1.000000e+000
      outer loop
         vertex 5.909590e+000 6.189553e+001 3.810000e+001
         vertex 2.343750e+000 5.775269e+001 3.810000e+001
         vertex 9.036035e+000 6.275469e+001 3.810000e+001
      endloop
   endfacet
   facet normal 0.000000e+000 0.000000e+000 1.000000e+000
      outer loop
         vertex 9.036035e+000 6.275469e+001 3.810000e+001
         vertex 2.343750e+000 5.775269e+001 3.810000e+001
         vertex 4.547902e+000 5.605983e+001 3.810000e+001
      endloop
   endfacet
   facet normal 0.000000e+000 0.000000e+000 1.000000e+000
      outer loop
         vertex 9.036035e+000 6.275469e+001 3.810000e+001
         vertex 4.547902e+000 5.605983e+001 3.810000e+001
         vertex 6.595567e+000 5.418070e+001 3.810000e+001
      endloop
   endfacet
   facet normal 0.000000e+000 0.000000e+000 1.000000e+000
      outer loop
         vertex 3.393770e+001 2.569678e+001 3.810000e+001
         vertex 4.659499e+001 2.372849e+001 3.810000e+001
         vertex 3.456758e+001 2.807714e+001 3.810000e+001
      endloop
   endfacet
   facet normal 0.000000e+000 0.000000e+000 1.000000e+000
      outer loop
         vertex 3.456758e+001 2.807714e+001 3.810000e+001
         vertex 4.659499e+001 2.372849e+001 3.810000e+001
         vertex 4.725290e+001 2.690339e+001 3.810000e+001
      endloop
   endfacet
   facet normal 0.000000e+000 0.000000e+000 1.000000e+000
      outer loop
         vertex 3.456758e+001 2.807714e+001 3.810000e+001
         vertex 4.725290e+001 2.690339e+001 3.810000e+001
         vertex 3.488517e+001 3.051886e+001 3.810000e+001
      endloop
   endfacet
   facet normal 0.000000e+000 0.000000e+000 1.000000e+000
      outer loop
         vertex 3.488517e+001 3.051886e+001 3.810000e+001
         vertex 4.725290e+001 2.690339e+001 3.810000e+001
         vertex 4.758358e+001 3.012883e+001 3.810000e+001
      endloop
   endfacet
   facet normal 0.000000e+000 0.000000e+000 1.000000e+000
      outer loop
         vertex 3.488517e+001 3.051886e+001 3.810000e+001
         vertex 4.758358e+001 3.012883e+001 3.810000e+001
         vertex 3.488517e+001 3.298115e+001 3.810000e+001
      endloop
   endfacet
   facet normal 0.000000e+000 0.000000e+000 1.000000e+000
      outer loop
         vertex 3.488517e+001 3.298115e+001 3.810000e+001
         vertex 4.758358e+001 3.012883e+001 3.810000e+001
         vertex 4.758358e+001 3.337118e+001 3.810000e+001
      endloop
   endfacet
   facet normal 0.000000e+000 0.000000e+000 1.000000e+000
      outer loop
         vertex 3.488517e+001 3.298115e+001 3.810000e+001
         vertex 4.758358e+001 3.337118e+001 3.810000e+001
         vertex 3.456758e+001 3.542287e+001 3.810000e+001
      endloop
   endfacet
   facet normal 0.000000e+000 0.000000e+000 1.000000e+000
      outer loop
         vertex 3.456758e+001 3.542287e+001 3.810000e+001
         vertex 4.758358e+001 3.337118e+001 3.810000e+001
         vertex 4.725290e+001 3.659661e+001 3.810000e+001
      endloop
   endfacet
   facet normal 0.000000e+000 0.000000e+000 1.000000e+000
      outer loop
         vertex 3.456758e+001 3.542287e+001 3.810000e+001
         vertex 4.725290e+001 3.659661e+001 3.810000e+001
         vertex 4.659499e+001 3.977151e+001 3.810000e+001
      endloop
   endfacet
   facet normal 0.000000e+000 0.000000e+000 1.000000e+000
      outer loop
         vertex 2.857972e+001 1.755519e+001 3.810000e+001
         vertex 3.875156e+001 9.733519e+000 3.810000e+001
         vertex 3.030449e+001 1.931246e+001 3.810000e+001
      endloop
   endfacet
   facet normal 0.000000e+000 0.000000e+000 1.000000e+000
      outer loop
         vertex 3.030449e+001 1.931246e+001 3.810000e+001
         vertex 3.875156e+001 9.733519e+000 3.810000e+001
         vertex 4.087769e+001 1.218146e+001 3.810000e+001
      endloop
   endfacet
   facet normal 0.000000e+000 0.000000e+000 1.000000e+000
      outer loop
         vertex 3.030449e+001 1.931246e+001 3.810000e+001
         vertex 4.087769e+001 1.218146e+001 3.810000e+001
         vertex 3.178820e+001 2.127753e+001 3.810000e+001
      endloop
   endfacet
   facet normal 0.000000e+000 0.000000e+000 1.000000e+000
      outer loop
         vertex 3.178820e+001 2.127753e+001 3.810000e+001
         vertex 4.087769e+001 1.218146e+001 3.810000e+001
         vertex 4.274307e+001 1.483347e+001 3.810000e+001
      endloop
   endfacet
   facet normal 0.000000e+000 0.000000e+000 1.000000e+000
      outer loop
         vertex 3.178820e+001 2.127753e+001 3.810000e+001
         vertex 4.274307e+001 1.483347e+001 3.810000e+001
         vertex 3.300605e+001 2.341755e+001 3.810000e+001
      endloop
   endfacet
   facet normal 0.000000e+000 0.000000e+000 1.000000e+000
      outer loop
         vertex 3.300605e+001 2.341755e+001 3.810000e+001
         vertex 4.274307e+001 1.483347e+001 3.810000e+001
         vertex 4.432826e+001 1.766190e+001 3.810000e+001
      endloop
   endfacet
   facet normal 0.000000e+000 0.000000e+000 1.000000e+000
      outer loop
         vertex 3.300605e+001 2.341755e+001 3.810000e+001
         vertex 4.432826e+001 1.766190e+001 3.810000e+001
         vertex 3.393770e+001 2.569678e+001 3.810000e+001
      endloop
   endfacet
   facet normal 0.000000e+000 0.000000e+000 1.000000e+000
      outer loop
         vertex 3.393770e+001 2.569678e+001 3.810000e+001
         vertex 4.432826e+001 1.766190e+001 3.810000e+001
         vertex 4.561671e+001 2.063725e+001 3.810000e+001
      endloop
   endfacet
   facet normal 0.000000e+000 0.000000e+000 1.000000e+000
      outer loop
         vertex 3.393770e+001 2.569678e+001 3.810000e+001
         vertex 4.561671e+001 2.063725e+001 3.810000e+001
         vertex 4.659499e+001 2.372849e+001 3.810000e+001
      endloop
   endfacet
   facet normal 0.000000e+000 0.000000e+000 1.000000e+000
      outer loop
         vertex 0.000000e+000 4.253695e+000 3.810000e+001
         vertex 2.887071e+000 2.778010e+000 3.810000e+001
         vertex 2.343750e+000 5.747314e+000 3.810000e+001
      endloop
   endfacet
   facet normal 0.000000e+000 0.000000e+000 1.000000e+000
      outer loop
         vertex 2.343750e+000 5.747314e+000 3.810000e+001
         vertex 2.887071e+000 2.778010e+000 3.810000e+001
         vertex 5.909590e+000 1.604470e+000 3.810000e+001
      endloop
   endfacet
   facet normal 0.000000e+000 0.000000e+000 1.000000e+000
      outer loop
         vertex 2.343750e+000 5.747314e+000 3.810000e+001
         vertex 5.909590e+000 1.604470e+000 3.810000e+001
         vertex 4.547902e+000 7.440176e+000 3.810000e+001
      endloop
   endfacet
   facet normal 0.000000e+000 0.000000e+000 1.000000e+000
      outer loop
         vertex 4.547902e+000 7.440176e+000 3.810000e+001
         vertex 5.909590e+000 1.604470e+000 3.810000e+001
         vertex 9.036035e+000 7.453077e-001 3.810000e+001
      endloop
   endfacet
   facet normal 0.000000e+000 0.000000e+000 1.000000e+000
      outer loop
         vertex 4.547902e+000 7.440176e+000 3.810000e+001
         vertex 9.036035e+000 7.453077e-001 3.810000e+001
         vertex 6.595567e+000 9.319305e+000 3.810000e+001
      endloop
   endfacet
   facet normal 0.000000e+000 0.000000e+000 1.000000e+000
      outer loop
         vertex 6.595567e+000 9.319305e+000 3.810000e+001
         vertex 9.036035e+000 7.453077e-001 3.810000e+001
         vertex 8.471057e+000 1.137031e+001 3.810000e+001
      endloop
   endfacet
   facet normal 0.000000e+000 0.000000e+000 1.000000e+000
      outer loop
         vertex 2.191992e+001 5.807616e-001 3.810000e+001
         vertex 2.506729e+001 1.359798e+000 3.810000e+001
         vertex 2.226433e+001 1.380344e+001 3.810000e+001
      endloop
   endfacet
   facet normal 0.000000e+000 0.000000e+000 1.000000e+000
      outer loop
         vertex 2.226433e+001 1.380344e+001 3.810000e+001
         vertex 2.506729e+001 1.359798e+000 3.810000e+001
         vertex 2.811879e+001 2.455767e+000 3.810000e+001
      endloop
   endfacet
   facet normal 0.000000e+000 0.000000e+000 1.000000e+000
      outer loop
         vertex 2.226433e+001 1.380344e+001 3.810000e+001
         vertex 2.811879e+001 2.455767e+000 3.810000e+001
         vertex 2.452577e+001 1.477748e+001 3.810000e+001
      endloop
   endfacet
   facet normal 0.000000e+000 0.000000e+000 1.000000e+000
      outer loop
         vertex 2.452577e+001 1.477748e+001 3.810000e+001
         vertex 2.811879e+001 2.455767e+000 3.810000e+001
         vertex 3.104261e+001 3.857236e+000 3.810000e+001
      endloop
   endfacet
   facet normal 0.000000e+000 0.000000e+000 1.000000e+000
      outer loop
         vertex 2.452577e+001 1.477748e+001 3.810000e+001
         vertex 3.104261e+001 3.857236e+000 3.810000e+001
         vertex 2.664269e+001 1.603506e+001 3.810000e+001
      endloop
   endfacet
   facet normal 0.000000e+000 0.000000e+000 1.000000e+000
      outer loop
         vertex 2.664269e+001 1.603506e+001 3.810000e+001
         vertex 3.104261e+001 3.857236e+000 3.810000e+001
         vertex 3.380824e+001 5.549593e+000 3.810000e+001
      endloop
   endfacet
   facet normal 0.000000e+000 0.000000e+000 1.000000e+000
      outer loop
         vertex 2.664269e+001 1.603506e+001 3.810000e+001
         vertex 3.380824e+001 5.549593e+000 3.810000e+001
         vertex 2.857972e+001 1.755519e+001 3.810000e+001
      endloop
   endfacet
   facet normal 0.000000e+000 0.000000e+000 1.000000e+000
      outer loop
         vertex 2.857972e+001 1.755519e+001 3.810000e+001
         vertex 3.380824e+001 5.549593e+000 3.810000e+001
         vertex 3.638686e+001 7.515186e+000 3.810000e+001
      endloop
   endfacet
   facet normal 0.000000e+000 0.000000e+000 1.000000e+000
      outer loop
         vertex 2.857972e+001 1.755519e+001 3.810000e+001
         vertex 3.638686e+001 7.515186e+000 3.810000e+001
         vertex 3.875156e+001 9.733519e+000 3.810000e+001
      endloop
   endfacet
   facet normal 0.000000e+000 0.000000e+000 -1.000000e+000
      outer loop
         vertex 8.471057e+000 1.137031e+001 0.000000e+000
         vertex 1.016000e+001 1.357746e+001 0.000000e+000
         vertex 1.255170e+001 1.299212e+001 0.000000e+000
      endloop
   endfacet
   facet normal 0.000000e+000 0.000000e+000 -1.000000e+000
      outer loop
         vertex 2.452577e+001 1.477748e+001 0.000000e+000
         vertex 2.811879e+001 2.455767e+000 0.000000e+000
         vertex 2.226433e+001 1.380344e+001 0.000000e+000
      endloop
   endfacet
   facet normal 0.000000e+000 0.000000e+000 -1.000000e+000
      outer loop
         vertex 2.226433e+001 1.380344e+001 0.000000e+000
         vertex 2.811879e+001 2.455767e+000 0.000000e+000
         vertex 2.506729e+001 1.359798e+000 0.000000e+000
      endloop
   endfacet
   facet normal 0.000000e+000 0.000000e+000 -1.000000e+000
      outer loop
         vertex 2.226433e+001 1.380344e+001 0.000000e+000
         vertex 2.506729e+001 1.359798e+000 0.000000e+000
         vertex 1.989615e+001 1.312924e+001 0.000000e+000
      endloop
   endfacet
   facet normal 0.000000e+000 0.000000e+000 -1.000000e+000
      outer loop
         vertex 1.989615e+001 1.312924e+001 0.000000e+000
         vertex 2.506729e+001 1.359798e+000 0.000000e+000
         vertex 2.191992e+001 5.807616e-001 0.000000e+000
      endloop
   endfacet
   facet normal 0.000000e+000 0.000000e+000 -1.000000e+000
      outer loop
         vertex 1.989615e+001 1.312924e+001 0.000000e+000
         vertex 2.191992e+001 5.807616e-001 0.000000e+000
         vertex 1.746078e+001 1.276612e+001 0.000000e+000
      endloop
   endfacet
   facet normal 0.000000e+000 0.000000e+000 -1.000000e+000
      outer loop
         vertex 1.746078e+001 1.276612e+001 0.000000e+000
         vertex 2.191992e+001 5.807616e-001 0.000000e+000
         vertex 1.870951e+001 1.267791e-001 0.000000e+000
      endloop
   endfacet
   facet normal 0.000000e+000 0.000000e+000 -1.000000e+000
      outer loop
         vertex 1.746078e+001 1.276612e+001 0.000000e+000
         vertex 1.870951e+001 1.267791e-001 0.000000e+000
         vertex 1.499892e+001 1.272016e+001 0.000000e+000
      endloop
   endfacet
   facet normal 0.000000e+000 0.000000e+000 -1.000000e+000
      outer loop
         vertex 2.857972e+001 4.594481e+001 0.000000e+000
         vertex 2.664269e+001 4.746494e+001 0.000000e+000
         vertex 3.380824e+001 5.795041e+001 0.000000e+000
      endloop
   endfacet
   facet normal 0.000000e+000 0.000000e+000 -1.000000e+000
      outer loop
         vertex 2.887071e+000 2.778010e+000 0.000000e+000
         vertex 0.000000e+000 4.253695e+000 0.000000e+000
         vertex 5.909590e+000 1.604470e+000 0.000000e+000
      endloop
   endfacet
   facet normal 0.000000e+000 0.000000e+000 -1.000000e+000
      outer loop
         vertex 5.909590e+000 1.604470e+000 0.000000e+000
         vertex 0.000000e+000 4.253695e+000 0.000000e+000
         vertex 2.343750e+000 5.747314e+000 0.000000e+000
      endloop
   endfacet
   facet normal 0.000000e+000 0.000000e+000 -1.000000e+000
      outer loop
         vertex 5.909590e+000 1.604470e+000 0.000000e+000
         vertex 2.343750e+000 5.747314e+000 0.000000e+000
         vertex 9.036035e+000 7.453077e-001 0.000000e+000
      endloop
   endfacet
   facet normal 0.000000e+000 0.000000e+000 -1.000000e+000
      outer loop
         vertex 9.036035e+000 7.453077e-001 0.000000e+000
         vertex 2.343750e+000 5.747314e+000 0.000000e+000
         vertex 4.547902e+000 7.440176e+000 0.000000e+000
      endloop
   endfacet
   facet normal 0.000000e+000 0.000000e+000 -1.000000e+000
      outer loop
         vertex 9.036035e+000 7.453077e-001 0.000000e+000
         vertex 4.547902e+000 7.440176e+000 0.000000e+000
         vertex 6.595567e+000 9.319305e+000 0.000000e+000
      endloop
   endfacet
   facet normal 0.000000e+000 0.000000e+000 -1.000000e+000
      outer loop
         vertex 3.030449e+001 1.931246e+001 0.000000e+000
         vertex 3.875156e+001 9.733519e+000 0.000000e+000
         vertex 2.857972e+001 1.755519e+001 0.000000e+000
      endloop
   endfacet
   facet normal 0.000000e+000 0.000000e+000 -1.000000e+000
      outer loop
         vertex 2.857972e+001 1.755519e+001 0.000000e+000
         vertex 3.875156e+001 9.733519e+000 0.000000e+000
         vertex 3.638686e+001 7.515186e+000 0.000000e+000
      endloop
   endfacet
   facet normal 0.000000e+000 0.000000e+000 -1.000000e+000
      outer loop
         vertex 2.857972e+001 1.755519e+001 0.000000e+000
         vertex 3.638686e+001 7.515186e+000 0.000000e+000
         vertex 2.664269e+001 1.603506e+001 0.000000e+000
      endloop
   endfacet
   facet normal 0.000000e+000 0.000000e+000 -1.000000e+000
      outer loop
         vertex 2.664269e+001 1.603506e+001 0.000000e+000
         vertex 3.638686e+001 7.515186e+000 0.000000e+000
         vertex 3.380824e+001 5.549593e+000 0.000000e+000
      endloop
   endfacet
   facet normal 0.000000e+000 0.000000e+000 -1.000000e+000
      outer loop
         vertex 2.664269e+001 1.603506e+001 0.000000e+000
         vertex 3.380824e+001 5.549593e+000 0.000000e+000
         vertex 2.452577e+001 1.477748e+001 0.000000e+000
      endloop
   endfacet
   facet normal 0.000000e+000 0.000000e+000 -1.000000e+000
      outer loop
         vertex 2.452577e+001 1.477748e+001 0.000000e+000
         vertex 3.380824e+001 5.549593e+000 0.000000e+000
         vertex 3.104261e+001 3.857236e+000 0.000000e+000
      endloop
   endfacet
   facet normal 0.000000e+000 0.000000e+000 -1.000000e+000
      outer loop
         vertex 2.452577e+001 1.477748e+001 0.000000e+000
         vertex 3.104261e+001 3.857236e+000 0.000000e+000
         vertex 2.811879e+001 2.455767e+000 0.000000e+000
      endloop
   endfacet
   facet normal 0.000000e+000 0.000000e+000 -1.000000e+000
      outer loop
         vertex 3.380824e+001 5.795041e+001 0.000000e+000
         vertex 2.664269e+001 4.746494e+001 0.000000e+000
         vertex 3.104261e+001 5.964277e+001 0.000000e+000
      endloop
   endfacet
   facet normal 0.000000e+000 0.000000e+000 -1.000000e+000
      outer loop
         vertex 3.104261e+001 5.964277e+001 0.000000e+000
         vertex 2.664269e+001 4.746494e+001 0.000000e+000
         vertex 2.452577e+001 4.872253e+001 0.000000e+000
      endloop
   endfacet
   facet normal 0.000000e+000 0.000000e+000 -1.000000e+000
      outer loop
         vertex 3.104261e+001 5.964277e+001 0.000000e+000
         vertex 2.452577e+001 4.872253e+001 0.000000e+000
         vertex 2.811879e+001 6.104424e+001 0.000000e+000
      endloop
   endfacet
   facet normal 0.000000e+000 0.000000e+000 -1.000000e+000
      outer loop
         vertex 2.811879e+001 6.104424e+001 0.000000e+000
         vertex 2.452577e+001 4.872253e+001 0.000000e+000
         vertex 2.226433e+001 4.969656e+001 0.000000e+000
      endloop
   endfacet
   facet normal 0.000000e+000 0.000000e+000 -1.000000e+000
      outer loop
         vertex 2.811879e+001 6.104424e+001 0.000000e+000
         vertex 2.226433e+001 4.969656e+001 0.000000e+000
         vertex 2.506729e+001 6.214021e+001 0.000000e+000
      endloop
   endfacet
   facet normal 0.000000e+000 0.000000e+000 -1.000000e+000
      outer loop
         vertex 2.506729e+001 6.214021e+001 0.000000e+000
         vertex 2.226433e+001 4.969656e+001 0.000000e+000
         vertex 2.191992e+001 6.291924e+001 0.000000e+000
      endloop
   endfacet
   facet normal 0.000000e+000 0.000000e+000 -1.000000e+000
      outer loop
         vertex 2.191992e+001 6.291924e+001 0.000000e+000
         vertex 2.226433e+001 4.969656e+001 0.000000e+000
         vertex 1.989615e+001 5.037077e+001 0.000000e+000
      endloop
   endfacet
   facet normal 0.000000e+000 0.000000e+000 -1.000000e+000
      outer loop
         vertex 2.191992e+001 6.291924e+001 0.000000e+000
         vertex 1.989615e+001 5.037077e+001 0.000000e+000
         vertex 1.870951e+001 6.337322e+001 0.000000e+000
      endloop
   endfacet
   facet normal 0.000000e+000 0.000000e+000 -1.000000e+000
      outer loop
         vertex 1.870951e+001 6.337322e+001 0.000000e+000
         vertex 1.989615e+001 5.037077e+001 0.000000e+000
         vertex 1.746078e+001 5.073388e+001 0.000000e+000
      endloop
   endfacet
   facet normal 0.000000e+000 0.000000e+000 -1.000000e+000
      outer loop
         vertex 1.870951e+001 6.337322e+001 0.000000e+000
         vertex 1.746078e+001 5.073388e+001 0.000000e+000
         vertex 1.546954e+001 6.349741e+001 0.000000e+000
      endloop
   endfacet
   facet normal 0.000000e+000 0.000000e+000 -1.000000e+000
      outer loop
         vertex 1.546954e+001 6.349741e+001 0.000000e+000
         vertex 1.746078e+001 5.073388e+001 0.000000e+000
         vertex 1.499892e+001 5.077985e+001 0.000000e+000
      endloop
   endfacet
   facet normal 0.000000e+000 0.000000e+000 -1.000000e+000
      outer loop
         vertex 1.546954e+001 6.349741e+001 0.000000e+000
         vertex 1.499892e+001 5.077985e+001 0.000000e+000
         vertex 1.223380e+001 6.329052e+001 0.000000e+000
      endloop
   endfacet
   facet normal 0.000000e+000 0.000000e+000 -1.000000e+000
      outer loop
         vertex 1.223380e+001 6.329052e+001 0.000000e+000
         vertex 1.499892e+001 5.077985e+001 0.000000e+000
         vertex 1.255170e+001 5.050788e+001 0.000000e+000
      endloop
   endfacet
   facet normal 0.000000e+000 0.000000e+000 -1.000000e+000
      outer loop
         vertex 1.223380e+001 6.329052e+001 0.000000e+000
         vertex 1.255170e+001 5.050788e+001 0.000000e+000
         vertex 9.036035e+000 6.275469e+001 0.000000e+000
      endloop
   endfacet
   facet normal 0.000000e+000 0.000000e+000 -1.000000e+000
      outer loop
         vertex 9.036035e+000 6.275469e+001 0.000000e+000
         vertex 1.255170e+001 5.050788e+001 0.000000e+000
         vertex 1.016000e+001 4.992254e+001 0.000000e+000
      endloop
   endfacet
   facet normal 0.000000e+000 0.000000e+000 -1.000000e+000
      outer loop
         vertex 9.036035e+000 6.275469e+001 0.000000e+000
         vertex 1.016000e+001 4.992254e+001 0.000000e+000
         vertex 8.471057e+000 5.212970e+001 0.000000e+000
      endloop
   endfacet
   facet normal 0.000000e+000 0.000000e+000 -1.000000e+000
      outer loop
         vertex 0.000000e+000 5.924631e+001 0.000000e+000
         vertex 2.887071e+000 6.072199e+001 0.000000e+000
         vertex 2.343750e+000 5.775269e+001 0.000000e+000
      endloop
   endfacet
   facet normal 0.000000e+000 0.000000e+000 -1.000000e+000
      outer loop
         vertex 2.343750e+000 5.775269e+001 0.000000e+000
         vertex 2.887071e+000 6.072199e+001 0.000000e+000
         vertex 5.909590e+000 6.189553e+001 0.000000e+000
      endloop
   endfacet
   facet normal 0.000000e+000 0.000000e+000 -1.000000e+000
      outer loop
         vertex 2.343750e+000 5.775269e+001 0.000000e+000
         vertex 5.909590e+000 6.189553e+001 0.000000e+000
         vertex 4.547902e+000 5.605983e+001 0.000000e+000
      endloop
   endfacet
   facet normal 0.000000e+000 0.000000e+000 -1.000000e+000
      outer loop
         vertex 4.547902e+000 5.605983e+001 0.000000e+000
         vertex 5.909590e+000 6.189553e+001 0.000000e+000
         vertex 9.036035e+000 6.275469e+001 0.000000e+000
      endloop
   endfacet
   facet normal 0.000000e+000 0.000000e+000 -1.000000e+000
      outer loop
         vertex 4.547902e+000 5.605983e+001 0.000000e+000
         vertex 9.036035e+000 6.275469e+001 0.000000e+000
         vertex 6.595567e+000 5.418070e+001 0.000000e+000
      endloop
   endfacet
   facet normal 0.000000e+000 0.000000e+000 -1.000000e+000
      outer loop
         vertex 6.595567e+000 5.418070e+001 0.000000e+000
         vertex 9.036035e+000 6.275469e+001 0.000000e+000
         vertex 8.471057e+000 5.212970e+001 0.000000e+000
      endloop
   endfacet
   facet normal 0.000000e+000 0.000000e+000 -1.000000e+000
      outer loop
         vertex 6.595567e+000 9.319305e+000 0.000000e+000
         vertex 8.471057e+000 1.137031e+001 0.000000e+000
         vertex 9.036035e+000 7.453077e-001 0.000000e+000
      endloop
   endfacet
   facet normal 0.000000e+000 0.000000e+000 -1.000000e+000
      outer loop
         vertex 9.036035e+000 7.453077e-001 0.000000e+000
         vertex 8.471057e+000 1.137031e+001 0.000000e+000
         vertex 1.255170e+001 1.299212e+001 0.000000e+000
      endloop
   endfacet
   facet normal 0.000000e+000 0.000000e+000 -1.000000e+000
      outer loop
         vertex 9.036035e+000 7.453077e-001 0.000000e+000
         vertex 1.255170e+001 1.299212e+001 0.000000e+000
         vertex 1.223380e+001 2.094842e-001 0.000000e+000
      endloop
   endfacet
   facet normal 0.000000e+000 0.000000e+000 -1.000000e+000
      outer loop
         vertex 1.223380e+001 2.094842e-001 0.000000e+000
         vertex 1.255170e+001 1.299212e+001 0.000000e+000
         vertex 1.499892e+001 1.272016e+001 0.000000e+000
      endloop
   endfacet
   facet normal 0.000000e+000 0.000000e+000 -1.000000e+000
      outer loop
         vertex 1.223380e+001 2.094842e-001 0.000000e+000
         vertex 1.499892e+001 1.272016e+001 0.000000e+000
         vertex 1.546954e+001 2.589077e-003 0.000000e+000
      endloop
   endfacet
   facet normal 0.000000e+000 0.000000e+000 -1.000000e+000
      outer loop
         vertex 1.546954e+001 2.589077e-003 0.000000e+000
         vertex 1.499892e+001 1.272016e+001 0.000000e+000
         vertex 1.870951e+001 1.267791e-001 0.000000e+000
      endloop
   endfacet
   facet normal 0.000000e+000 0.000000e+000 -1.000000e+000
      outer loop
         vertex 3.456758e+001 2.807714e+001 0.000000e+000
         vertex 4.659499e+001 2.372849e+001 0.000000e+000
         vertex 3.393770e+001 2.569678e+001 0.000000e+000
      endloop
   endfacet
   facet normal 0.000000e+000 0.000000e+000 -1.000000e+000
      outer loop
         vertex 3.393770e+001 2.569678e+001 0.000000e+000
         vertex 4.659499e+001 2.372849e+001 0.000000e+000
         vertex 4.561671e+001 2.063725e+001 0.000000e+000
      endloop
   endfacet
   facet normal 0.000000e+000 0.000000e+000 -1.000000e+000
      outer loop
         vertex 3.393770e+001 2.569678e+001 0.000000e+000
         vertex 4.561671e+001 2.063725e+001 0.000000e+000
         vertex 3.300605e+001 2.341755e+001 0.000000e+000
      endloop
   endfacet
   facet normal 0.000000e+000 0.000000e+000 -1.000000e+000
      outer loop
         vertex 3.300605e+001 2.341755e+001 0.000000e+000
         vertex 4.561671e+001 2.063725e+001 0.000000e+000
         vertex 4.432826e+001 1.766190e+001 0.000000e+000
      endloop
   endfacet
   facet normal 0.000000e+000 0.000000e+000 -1.000000e+000
      outer loop
         vertex 3.300605e+001 2.341755e+001 0.000000e+000
         vertex 4.432826e+001 1.766190e+001 0.000000e+000
         vertex 3.178820e+001 2.127753e+001 0.000000e+000
      endloop
   endfacet
   facet normal 0.000000e+000 0.000000e+000 -1.000000e+000
      outer loop
         vertex 3.178820e+001 2.127753e+001 0.000000e+000
         vertex 4.432826e+001 1.766190e+001 0.000000e+000
         vertex 4.274307e+001 1.483347e+001 0.000000e+000
      endloop
   endfacet
   facet normal 0.000000e+000 0.000000e+000 -1.000000e+000
      outer loop
         vertex 3.178820e+001 2.127753e+001 0.000000e+000
         vertex 4.274307e+001 1.483347e+001 0.000000e+000
         vertex 3.030449e+001 1.931246e+001 0.000000e+000
      endloop
   endfacet
   facet normal 0.000000e+000 0.000000e+000 -1.000000e+000
      outer loop
         vertex 3.030449e+001 1.931246e+001 0.000000e+000
         vertex 4.274307e+001 1.483347e+001 0.000000e+000
         vertex 4.087769e+001 1.218146e+001 0.000000e+000
      endloop
   endfacet
   facet normal 0.000000e+000 0.000000e+000 -1.000000e+000
      outer loop
         vertex 3.030449e+001 1.931246e+001 0.000000e+000
         vertex 4.087769e+001 1.218146e+001 0.000000e+000
         vertex 3.875156e+001 9.733519e+000 0.000000e+000
      endloop
   endfacet
   facet normal 0.000000e+000 0.000000e+000 -1.000000e+000
      outer loop
         vertex 3.393770e+001 3.780322e+001 0.000000e+000
         vertex 4.659499e+001 3.977151e+001 0.000000e+000
         vertex 3.456758e+001 3.542287e+001 0.000000e+000
      endloop
   endfacet
   facet normal 0.000000e+000 0.000000e+000 -1.000000e+000
      outer loop
         vertex 3.456758e+001 3.542287e+001 0.000000e+000
         vertex 4.659499e+001 3.977151e+001 0.000000e+000
         vertex 4.725290e+001 3.659661e+001 0.000000e+000
      endloop
   endfacet
   facet normal 0.000000e+000 0.000000e+000 -1.000000e+000
      outer loop
         vertex 3.456758e+001 3.542287e+001 0.000000e+000
         vertex 4.725290e+001 3.659661e+001 0.000000e+000
         vertex 3.488517e+001 3.298115e+001 0.000000e+000
      endloop
   endfacet
   facet normal 0.000000e+000 0.000000e+000 -1.000000e+000
      outer loop
         vertex 3.488517e+001 3.298115e+001 0.000000e+000
         vertex 4.725290e+001 3.659661e+001 0.000000e+000
         vertex 4.758358e+001 3.337118e+001 0.000000e+000
      endloop
   endfacet
   facet normal 0.000000e+000 0.000000e+000 -1.000000e+000
      outer loop
         vertex 3.488517e+001 3.298115e+001 0.000000e+000
         vertex 4.758358e+001 3.337118e+001 0.000000e+000
         vertex 3.488517e+001 3.051886e+001 0.000000e+000
      endloop
   endfacet
   facet normal 0.000000e+000 0.000000e+000 -1.000000e+000
      outer loop
         vertex 3.488517e+001 3.051886e+001 0.000000e+000
         vertex 4.758358e+001 3.337118e+001 0.000000e+000
         vertex 4.758358e+001 3.012883e+001 0.000000e+000
      endloop
   endfacet
   facet normal 0.000000e+000 0.000000e+000 -1.000000e+000
      outer loop
         vertex 3.488517e+001 3.051886e+001 0.000000e+000
         vertex 4.758358e+001 3.012883e+001 0.000000e+000
         vertex 3.456758e+001 2.807714e+001 0.000000e+000
      endloop
   endfacet
   facet normal 0.000000e+000 0.000000e+000 -1.000000e+000
      outer loop
         vertex 3.456758e+001 2.807714e+001 0.000000e+000
         vertex 4.758358e+001 3.012883e+001 0.000000e+000
         vertex 4.725290e+001 2.690339e+001 0.000000e+000
      endloop
   endfacet
   facet normal 0.000000e+000 0.000000e+000 -1.000000e+000
      outer loop
         vertex 3.456758e+001 2.807714e+001 0.000000e+000
         vertex 4.725290e+001 2.690339e+001 0.000000e+000
         vertex 4.659499e+001 2.372849e+001 0.000000e+000
      endloop
   endfacet
   facet normal 0.000000e+000 0.000000e+000 -1.000000e+000
      outer loop
         vertex 3.380824e+001 5.795041e+001 0.000000e+000
         vertex 3.638686e+001 5.598482e+001 0.000000e+000
         vertex 2.857972e+001 4.594481e+001 0.000000e+000
      endloop
   endfacet
   facet normal 0.000000e+000 0.000000e+000 -1.000000e+000
      outer loop
         vertex 2.857972e+001 4.594481e+001 0.000000e+000
         vertex 3.638686e+001 5.598482e+001 0.000000e+000
         vertex 3.875156e+001 5.376648e+001 0.000000e+000
      endloop
   endfacet
   facet normal 0.000000e+000 0.000000e+000 -1.000000e+000
      outer loop
         vertex 2.857972e+001 4.594481e+001 0.000000e+000
         vertex 3.875156e+001 5.376648e+001 0.000000e+000
         vertex 3.030449e+001 4.418754e+001 0.000000e+000
      endloop
   endfacet
   facet normal 0.000000e+000 0.000000e+000 -1.000000e+000
      outer loop
         vertex 3.030449e+001 4.418754e+001 0.000000e+000
         vertex 3.875156e+001 5.376648e+001 0.000000e+000
         vertex 4.087769e+001 5.131855e+001 0.000000e+000
      endloop
   endfacet
   facet normal 0.000000e+000 0.000000e+000 -1.000000e+000
      outer loop
         vertex 3.030449e+001 4.418754e+001 0.000000e+000
         vertex 4.087769e+001 5.131855e+001 0.000000e+000
         vertex 3.178820e+001 4.222247e+001 0.000000e+000
      endloop
   endfacet
   facet normal 0.000000e+000 0.000000e+000 -1.000000e+000
      outer loop
         vertex 3.178820e+001 4.222247e+001 0.000000e+000
         vertex 4.087769e+001 5.131855e+001 0.000000e+000
         vertex 4.274307e+001 4.866654e+001 0.000000e+000
      endloop
   endfacet
   facet normal 0.000000e+000 0.000000e+000 -1.000000e+000
      outer loop
         vertex 3.178820e+001 4.222247e+001 0.000000e+000
         vertex 4.274307e+001 4.866654e+001 0.000000e+000
         vertex 3.300605e+001 4.008245e+001 0.000000e+000
      endloop
   endfacet
   facet normal 0.000000e+000 0.000000e+000 -1.000000e+000
      outer loop
         vertex 3.300605e+001 4.008245e+001 0.000000e+000
         vertex 4.274307e+001 4.866654e+001 0.000000e+000
         vertex 4.432826e+001 4.583811e+001 0.000000e+000
      endloop
   endfacet
   facet normal 0.000000e+000 0.000000e+000 -1.000000e+000
      outer loop
         vertex 3.300605e+001 4.008245e+001 0.000000e+000
         vertex 4.432826e+001 4.583811e+001 0.000000e+000
         vertex 3.393770e+001 3.780322e+001 0.000000e+000
      endloop
   endfacet
   facet normal 0.000000e+000 0.000000e+000 -1.000000e+000
      outer loop
         vertex 3.393770e+001 3.780322e+001 0.000000e+000
         vertex 4.432826e+001 4.583811e+001 0.000000e+000
         vertex 4.561671e+001 4.286275e+001 0.000000e+000
      endloop
   endfacet
   facet normal 0.000000e+000 0.000000e+000 -1.000000e+000
      outer loop
         vertex 3.393770e+001 3.780322e+001 0.000000e+000
         vertex 4.561671e+001 4.286275e+001 0.000000e+000
         vertex 4.659499e+001 3.977151e+001 0.000000e+000
      endloop
   endfacet
endsolid