solid huacha3
   facet normal -5.250535e-001 -8.510692e-001 0.000000e+000
      outer loop
         vertex 0.000000e+000 4.665063e+000 2.000000e+000
         vertex 0.000000e+000 4.665063e+000 0.000000e+000
         vertex 1.845472e-001 4.547456e+000 0.000000e+000
      endloop
   endfacet
   facet normal -5.496808e-001 -8.353748e-001 0.000000e+000
      outer loop
         vertex 0.000000e+000 4.665063e+000 2.000000e+000
         vertex 1.845472e-001 4.547456e+000 0.000000e+000
         vertex 1.845472e-001 4.547456e+000 2.000000e+000
      endloop
   endfacet
   facet normal -5.974684e-001 -8.018924e-001 0.000000e+000
      outer loop
         vertex 1.845472e-001 4.547456e+000 2.000000e+000
         vertex 1.845472e-001 4.547456e+000 0.000000e+000
         vertex 3.581025e-001 4.414160e+000 0.000000e+000
      endloop
   endfacet
   facet normal -6.206289e-001 -7.841045e-001 0.000000e+000
      outer loop
         vertex 1.845472e-001 4.547456e+000 2.000000e+000
         vertex 3.581025e-001 4.414160e+000 0.000000e+000
         vertex 3.581025e-001 4.414160e+000 2.000000e+000
      endloop
   endfacet
   facet normal -6.653054e-001 -7.465713e-001 0.000000e+000
      outer loop
         vertex 3.581025e-001 4.414160e+000 2.000000e+000
         vertex 3.581025e-001 4.414160e+000 0.000000e+000
         vertex 5.193360e-001 4.266196e+000 0.000000e+000
      endloop
   endfacet
   facet normal -6.868216e-001 -7.268261e-001 0.000000e+000
      outer loop
         vertex 3.581025e-001 4.414160e+000 2.000000e+000
         vertex 5.193360e-001 4.266196e+000 0.000000e+000
         vertex 5.193360e-001 4.266196e+000 2.000000e+000
      endloop
   endfacet
   facet normal -7.280447e-001 -6.855297e-001 0.000000e+000
      outer loop
         vertex 5.193360e-001 4.266196e+000 2.000000e+000
         vertex 5.193360e-001 4.266196e+000 0.000000e+000
         vertex 6.670123e-001 4.104701e+000 0.000000e+000
      endloop
   endfacet
   facet normal -7.477517e-001 -6.639785e-001 0.000000e+000
      outer loop
         vertex 5.193360e-001 4.266196e+000 2.000000e+000
         vertex 6.670123e-001 4.104701e+000 0.000000e+000
         vertex 6.670123e-001 4.104701e+000 2.000000e+000
      endloop
   endfacet
   facet normal -7.852054e-001 -6.192354e-001 0.000000e+000
      outer loop
         vertex 6.670123e-001 4.104701e+000 2.000000e+000
         vertex 6.670123e-001 4.104701e+000 0.000000e+000
         vertex 8.000000e-001 3.930909e+000 0.000000e+000
      endloop
   endfacet
   facet normal -8.029522e-001 -5.960434e-001 0.000000e+000
      outer loop
         vertex 6.670123e-001 4.104701e+000 2.000000e+000
         vertex 8.000000e-001 3.930909e+000 0.000000e+000
         vertex 8.000000e-001 3.930909e+000 2.000000e+000
      endloop
   endfacet
   facet normal 2.586310e-001 -9.659762e-001 0.000000e+000
      outer loop
         vertex 8.000000e-001 3.930909e+000 2.000000e+000
         vertex 8.000000e-001 3.930909e+000 0.000000e+000
         vertex 9.883230e-001 3.976999e+000 0.000000e+000
      endloop
   endfacet
   facet normal 2.167036e-001 -9.762375e-001 0.000000e+000
      outer loop
         vertex 8.000000e-001 3.930909e+000 2.000000e+000
         vertex 9.883230e-001 3.976999e+000 0.000000e+000
         vertex 9.883230e-001 3.976999e+000 2.000000e+000
      endloop
   endfacet
   facet normal 1.318754e-001 -9.912663e-001 0.000000e+000
      outer loop
         vertex 9.883230e-001 3.976999e+000 2.000000e+000
         vertex 9.883230e-001 3.976999e+000 0.000000e+000
         vertex 1.181018e+000 3.998413e+000 0.000000e+000
      endloop
   endfacet
   facet normal 8.897464e-002 -9.960339e-001 0.000000e+000
      outer loop
         vertex 9.883230e-001 3.976999e+000 2.000000e+000
         vertex 1.181018e+000 3.998413e+000 0.000000e+000
         vertex 1.181018e+000 3.998413e+000 2.000000e+000
      endloop
   endfacet
   facet normal 2.916577e-003 -9.999958e-001 0.000000e+000
      outer loop
         vertex 1.181018e+000 3.998413e+000 2.000000e+000
         vertex 1.181018e+000 3.998413e+000 0.000000e+000
         vertex 1.374865e+000 3.994794e+000 0.000000e+000
      endloop
   endfacet
   facet normal -4.024074e-002 -9.991900e-001 0.000000e+000
      outer loop
         vertex 1.181018e+000 3.998413e+000 2.000000e+000
         vertex 1.374865e+000 3.994794e+000 0.000000e+000
         vertex 1.374865e+000 3.994794e+000 2.000000e+000
      endloop
   endfacet
   facet normal -1.260910e-001 -9.920187e-001 0.000000e+000
      outer loop
         vertex 1.374865e+000 3.994794e+000 2.000000e+000
         vertex 1.374865e+000 3.994794e+000 0.000000e+000
         vertex 1.566626e+000 3.966202e+000 0.000000e+000
      endloop
   endfacet
   facet normal -1.687838e-001 -9.856531e-001 0.000000e+000
      outer loop
         vertex 1.374865e+000 3.994794e+000 2.000000e+000
         vertex 1.566626e+000 3.966202e+000 0.000000e+000
         vertex 1.566626e+000 3.966202e+000 2.000000e+000
      endloop
   endfacet
   facet normal -2.529919e-001 -9.674684e-001 0.000000e+000
      outer loop
         vertex 1.566626e+000 3.966202e+000 2.000000e+000
         vertex 1.566626e+000 3.966202e+000 0.000000e+000
         vertex 1.753097e+000 3.913115e+000 0.000000e+000
      endloop
   endfacet
   facet normal -2.945071e-001 -9.556493e-001 0.000000e+000
      outer loop
         vertex 1.566626e+000 3.966202e+000 2.000000e+000
         vertex 1.753097e+000 3.913115e+000 0.000000e+000
         vertex 1.753097e+000 3.913115e+000 2.000000e+000
      endloop
   endfacet
   facet normal -3.756663e-001 -9.267550e-001 0.000000e+000
      outer loop
         vertex 1.753097e+000 3.913115e+000 2.000000e+000
         vertex 1.753097e+000 3.913115e+000 0.000000e+000
         vertex 1.931163e+000 3.836419e+000 0.000000e+000
      endloop
   endfacet
   facet normal -4.153102e-001 -9.096798e-001 0.000000e+000
      outer loop
         vertex 1.753097e+000 3.913115e+000 2.000000e+000
         vertex 1.931163e+000 3.836419e+000 0.000000e+000
         vertex 1.931163e+000 3.836419e+000 2.000000e+000
      endloop
   endfacet
   facet normal -4.920645e-001 -8.705587e-001 0.000000e+000
      outer loop
         vertex 1.931163e+000 3.836419e+000 2.000000e+000
         vertex 1.931163e+000 3.836419e+000 0.000000e+000
         vertex 2.097850e+000 3.737397e+000 0.000000e+000
      endloop
   endfacet
   facet normal -5.291749e-001 -8.485128e-001 0.000000e+000
      outer loop
         vertex 1.931163e+000 3.836419e+000 2.000000e+000
         vertex 2.097850e+000 3.737397e+000 0.000000e+000
         vertex 2.097850e+000 3.737397e+000 2.000000e+000
      endloop
   endfacet
   facet normal -6.002421e-001 -7.998184e-001 0.000000e+000
      outer loop
         vertex 2.097850e+000 3.737397e+000 2.000000e+000
         vertex 2.097850e+000 3.737397e+000 0.000000e+000
         vertex 2.250371e+000 3.617702e+000 0.000000e+000
      endloop
   endfacet
   facet normal -6.341989e-001 -7.731699e-001 0.000000e+000
      outer loop
         vertex 2.097850e+000 3.737397e+000 2.000000e+000
         vertex 2.250371e+000 3.617702e+000 0.000000e+000
         vertex 2.250371e+000 3.617702e+000 2.000000e+000
      endloop
   endfacet
   facet normal -6.983917e-001 -7.157158e-001 0.000000e+000
      outer loop
         vertex 2.250371e+000 3.617702e+000 2.000000e+000
         vertex 2.250371e+000 3.617702e+000 0.000000e+000
         vertex 2.386180e+000 3.479334e+000 0.000000e+000
      endloop
   endfacet
   facet normal -7.286276e-001 -6.849101e-001 0.000000e+000
      outer loop
         vertex 2.250371e+000 3.617702e+000 2.000000e+000
         vertex 2.386180e+000 3.479334e+000 0.000000e+000
         vertex 2.386180e+000 3.479334e+000 2.000000e+000
      endloop
   endfacet
   facet normal -7.848734e-001 -6.196561e-001 0.000000e+000
      outer loop
         vertex 2.386180e+000 3.479334e+000 2.000000e+000
         vertex 2.386180e+000 3.479334e+000 0.000000e+000
         vertex 2.503008e+000 3.324604e+000 0.000000e+000
      endloop
   endfacet
   facet normal -8.108833e-001 -5.852078e-001 0.000000e+000
      outer loop
         vertex 2.386180e+000 3.479334e+000 2.000000e+000
         vertex 2.503008e+000 3.324604e+000 0.000000e+000
         vertex 2.503008e+000 3.324604e+000 2.000000e+000
      endloop
   endfacet
   facet normal -8.582428e-001 -5.132440e-001 0.000000e+000
      outer loop
         vertex 2.503008e+000 3.324604e+000 2.000000e+000
         vertex 2.503008e+000 3.324604e+000 0.000000e+000
         vertex 2.598902e+000 3.156098e+000 0.000000e+000
      endloop
   endfacet
   facet normal -8.795921e-001 -4.757286e-001 0.000000e+000
      outer loop
         vertex 2.503008e+000 3.324604e+000 2.000000e+000
         vertex 2.598902e+000 3.156098e+000 0.000000e+000
         vertex 2.598902e+000 3.156098e+000 2.000000e+000
      endloop
   endfacet
   facet normal -9.172737e-001 -3.982574e-001 0.000000e+000
      outer loop
         vertex 2.598902e+000 3.156098e+000 2.000000e+000
         vertex 2.598902e+000 3.156098e+000 0.000000e+000
         vertex 2.672260e+000 2.976632e+000 0.000000e+000
      endloop
   endfacet
   facet normal -9.336058e-001 -3.583016e-001 0.000000e+000
      outer loop
         vertex 2.598902e+000 3.156098e+000 2.000000e+000
         vertex 2.672260e+000 2.976632e+000 0.000000e+000
         vertex 2.672260e+000 2.976632e+000 2.000000e+000
      endloop
   endfacet
   facet normal -9.609802e-001 -2.766173e-001 0.000000e+000
      outer loop
         vertex 2.672260e+000 2.976632e+000 2.000000e+000
         vertex 2.672260e+000 2.976632e+000 0.000000e+000
         vertex 2.721857e+000 2.789202e+000 0.000000e+000
      endloop
   endfacet
   facet normal -9.720223e-001 -2.348887e-001 0.000000e+000
      outer loop
         vertex 2.672260e+000 2.976632e+000 2.000000e+000
         vertex 2.721857e+000 2.789202e+000 0.000000e+000
         vertex 2.721857e+000 2.789202e+000 2.000000e+000
      endloop
   endfacet
   facet normal -9.886320e-001 -1.503558e-001 0.000000e+000
      outer loop
         vertex 2.721857e+000 2.789202e+000 2.000000e+000
         vertex 2.721857e+000 2.789202e+000 0.000000e+000
         vertex 2.746864e+000 2.596941e+000 0.000000e+000
      endloop
   endfacet
   facet normal -9.941995e-001 -1.075515e-001 0.000000e+000
      outer loop
         vertex 2.721857e+000 2.789202e+000 2.000000e+000
         vertex 2.746864e+000 2.596941e+000 0.000000e+000
         vertex 2.746864e+000 2.596941e+000 2.000000e+000
      endloop
   endfacet
   facet normal -9.997671e-001 -2.158242e-002 0.000000e+000
      outer loop
         vertex 2.746864e+000 2.596941e+000 2.000000e+000
         vertex 2.746864e+000 2.596941e+000 0.000000e+000
         vertex 2.746864e+000 2.403059e+000 0.000000e+000
      endloop
   endfacet
   facet normal -9.997671e-001 2.158242e-002 0.000000e+000
      outer loop
         vertex 2.746864e+000 2.596941e+000 2.000000e+000
         vertex 2.746864e+000 2.403059e+000 0.000000e+000
         vertex 2.746864e+000 2.403059e+000 2.000000e+000
      endloop
   endfacet
   facet normal -9.941995e-001 1.075515e-001 0.000000e+000
      outer loop
         vertex 2.746864e+000 2.403059e+000 2.000000e+000
         vertex 2.746864e+000 2.403059e+000 0.000000e+000
         vertex 2.721857e+000 2.210798e+000 0.000000e+000
      endloop
   endfacet
   facet normal -9.886320e-001 1.503558e-001 0.000000e+000
      outer loop
         vertex 2.746864e+000 2.403059e+000 2.000000e+000
         vertex 2.721857e+000 2.210798e+000 0.000000e+000
         vertex 2.721857e+000 2.210798e+000 2.000000e+000
      endloop
   endfacet
   facet normal -9.720223e-001 2.348887e-001 0.000000e+000
      outer loop
         vertex 2.721857e+000 2.210798e+000 2.000000e+000
         vertex 2.721857e+000 2.210798e+000 0.000000e+000
         vertex 2.672260e+000 2.023369e+000 0.000000e+000
      endloop
   endfacet
   facet normal -9.609802e-001 2.766173e-001 0.000000e+000
      outer loop
         vertex 2.721857e+000 2.210798e+000 2.000000e+000
         vertex 2.672260e+000 2.023369e+000 0.000000e+000
         vertex 2.672260e+000 2.023369e+000 2.000000e+000
      endloop
   endfacet
   facet normal -9.336058e-001 3.583016e-001 0.000000e+000
      outer loop
         vertex 2.672260e+000 2.023369e+000 2.000000e+000
         vertex 2.672260e+000 2.023369e+000 0.000000e+000
         vertex 2.598902e+000 1.843902e+000 0.000000e+000
      endloop
   endfacet
   facet normal -9.172737e-001 3.982574e-001 0.000000e+000
      outer loop
         vertex 2.672260e+000 2.023369e+000 2.000000e+000
         vertex 2.598902e+000 1.843902e+000 0.000000e+000
         vertex 2.598902e+000 1.843902e+000 2.000000e+000
      endloop
   endfacet
   facet normal -8.795921e-001 4.757286e-001 0.000000e+000
      outer loop
         vertex 2.598902e+000 1.843902e+000 2.000000e+000
         vertex 2.598902e+000 1.843902e+000 0.000000e+000
         vertex 2.503008e+000 1.675396e+000 0.000000e+000
      endloop
   endfacet
   facet normal -8.582428e-001 5.132440e-001 0.000000e+000
      outer loop
         vertex 2.598902e+000 1.843902e+000 2.000000e+000
         vertex 2.503008e+000 1.675396e+000 0.000000e+000
         vertex 2.503008e+000 1.675396e+000 2.000000e+000
      endloop
   endfacet
   facet normal -8.108833e-001 5.852078e-001 0.000000e+000
      outer loop
         vertex 2.503008e+000 1.675396e+000 2.000000e+000
         vertex 2.503008e+000 1.675396e+000 0.000000e+000
         vertex 2.386180e+000 1.520666e+000 0.000000e+000
      endloop
   endfacet
   facet normal -7.848734e-001 6.196561e-001 0.000000e+000
      outer loop
         vertex 2.503008e+000 1.675396e+000 2.000000e+000
         vertex 2.386180e+000 1.520666e+000 0.000000e+000
         vertex 2.386180e+000 1.520666e+000 2.000000e+000
      endloop
   endfacet
   facet normal -7.286276e-001 6.849101e-001 0.000000e+000
      outer loop
         vertex 2.386180e+000 1.520666e+000 2.000000e+000
         vertex 2.386180e+000 1.520666e+000 0.000000e+000
         vertex 2.250371e+000 1.382298e+000 0.000000e+000
      endloop
   endfacet
   facet normal -6.983917e-001 7.157158e-001 0.000000e+000
      outer loop
         vertex 2.386180e+000 1.520666e+000 2.000000e+000
         vertex 2.250371e+000 1.382298e+000 0.000000e+000
         vertex 2.250371e+000 1.382298e+000 2.000000e+000
      endloop
   endfacet
   facet normal -6.341989e-001 7.731699e-001 0.000000e+000
      outer loop
         vertex 2.250371e+000 1.382298e+000 2.000000e+000
         vertex 2.250371e+000 1.382298e+000 0.000000e+000
         vertex 2.097850e+000 1.262603e+000 0.000000e+000
      endloop
   endfacet
   facet normal -6.002421e-001 7.998184e-001 0.000000e+000
      outer loop
         vertex 2.250371e+000 1.382298e+000 2.000000e+000
         vertex 2.097850e+000 1.262603e+000 0.000000e+000
         vertex 2.097850e+000 1.262603e+000 2.000000e+000
      endloop
   endfacet
   facet normal -5.291749e-001 8.485128e-001 0.000000e+000
      outer loop
         vertex 2.097850e+000 1.262603e+000 2.000000e+000
         vertex 2.097850e+000 1.262603e+000 0.000000e+000
         vertex 1.931163e+000 1.163581e+000 0.000000e+000
      endloop
   endfacet
   facet normal -4.920645e-001 8.705587e-001 0.000000e+000
      outer loop
         vertex 2.097850e+000 1.262603e+000 2.000000e+000
         vertex 1.931163e+000 1.163581e+000 0.000000e+000
         vertex 1.931163e+000 1.163581e+000 2.000000e+000
      endloop
   endfacet
   facet normal -4.153102e-001 9.096798e-001 0.000000e+000
      outer loop
         vertex 1.931163e+000 1.163581e+000 2.000000e+000
         vertex 1.931163e+000 1.163581e+000 0.000000e+000
         vertex 1.753097e+000 1.086885e+000 0.000000e+000
      endloop
   endfacet
   facet normal -3.756663e-001 9.267550e-001 0.000000e+000
      outer loop
         vertex 1.931163e+000 1.163581e+000 2.000000e+000
         vertex 1.753097e+000 1.086885e+000 0.000000e+000
         vertex 1.753097e+000 1.086885e+000 2.000000e+000
      endloop
   endfacet
   facet normal -2.945071e-001 9.556493e-001 0.000000e+000
      outer loop
         vertex 1.753097e+000 1.086885e+000 2.000000e+000
         vertex 1.753097e+000 1.086885e+000 0.000000e+000
         vertex 1.566626e+000 1.033798e+000 0.000000e+000
      endloop
   endfacet
   facet normal -2.529919e-001 9.674684e-001 0.000000e+000
      outer loop
         vertex 1.753097e+000 1.086885e+000 2.000000e+000
         vertex 1.566626e+000 1.033798e+000 0.000000e+000
         vertex 1.566626e+000 1.033798e+000 2.000000e+000
      endloop
   endfacet
   facet normal -1.687838e-001 9.856531e-001 0.000000e+000
      outer loop
         vertex 1.566626e+000 1.033798e+000 2.000000e+000
         vertex 1.566626e+000 1.033798e+000 0.000000e+000
         vertex 1.374865e+000 1.005206e+000 0.000000e+000
      endloop
   endfacet
   facet normal -1.260910e-001 9.920187e-001 0.000000e+000
      outer loop
         vertex 1.566626e+000 1.033798e+000 2.000000e+000
         vertex 1.374865e+000 1.005206e+000 0.000000e+000
         vertex 1.374865e+000 1.005206e+000 2.000000e+000
      endloop
   endfacet
   facet normal -4.024074e-002 9.991900e-001 0.000000e+000
      outer loop
         vertex 1.374865e+000 1.005206e+000 2.000000e+000
         vertex 1.374865e+000 1.005206e+000 0.000000e+000
         vertex 1.181018e+000 1.001587e+000 0.000000e+000
      endloop
   endfacet
   facet normal 2.916577e-003 9.999958e-001 0.000000e+000
      outer loop
         vertex 1.374865e+000 1.005206e+000 2.000000e+000
         vertex 1.181018e+000 1.001587e+000 0.000000e+000
         vertex 1.181018e+000 1.001587e+000 2.000000e+000
      endloop
   endfacet
   facet normal 8.897464e-002 9.960339e-001 0.000000e+000
      outer loop
         vertex 1.181018e+000 1.001587e+000 2.000000e+000
         vertex 1.181018e+000 1.001587e+000 0.000000e+000
         vertex 9.883230e-001 1.023001e+000 0.000000e+000
      endloop
   endfacet
   facet normal 1.318754e-001 9.912663e-001 0.000000e+000
      outer loop
         vertex 1.181018e+000 1.001587e+000 2.000000e+000
         vertex 9.883230e-001 1.023001e+000 0.000000e+000
         vertex 9.883230e-001 1.023001e+000 2.000000e+000
      endloop
   endfacet
   facet normal 2.167036e-001 9.762375e-001 0.000000e+000
      outer loop
         vertex 9.883230e-001 1.023001e+000 2.000000e+000
         vertex 9.883230e-001 1.023001e+000 0.000000e+000
         vertex 8.000000e-001 1.069091e+000 0.000000e+000
      endloop
   endfacet
   facet normal 2.586310e-001 9.659762e-001 0.000000e+000
      outer loop
         vertex 9.883230e-001 1.023001e+000 2.000000e+000
         vertex 8.000000e-001 1.069091e+000 0.000000e+000
         vertex 8.000000e-001 1.069091e+000 2.000000e+000
      endloop
   endfacet
   facet normal -8.029522e-001 5.960434e-001 0.000000e+000
      outer loop
         vertex 8.000000e-001 1.069091e+000 2.000000e+000
         vertex 8.000000e-001 1.069091e+000 0.000000e+000
         vertex 6.670123e-001 8.952996e-001 0.000000e+000
      endloop
   endfacet
   facet normal -7.852054e-001 6.192354e-001 0.000000e+000
      outer loop
         vertex 8.000000e-001 1.069091e+000 2.000000e+000
         vertex 6.670123e-001 8.952996e-001 0.000000e+000
         vertex 6.670123e-001 8.952996e-001 2.000000e+000
      endloop
   endfacet
   facet normal -7.477517e-001 6.639785e-001 0.000000e+000
      outer loop
         vertex 6.670123e-001 8.952996e-001 2.000000e+000
         vertex 6.670123e-001 8.952996e-001 0.000000e+000
         vertex 5.193360e-001 7.338034e-001 0.000000e+000
      endloop
   endfacet
   facet normal -7.280447e-001 6.855297e-001 0.000000e+000
      outer loop
         vertex 6.670123e-001 8.952996e-001 2.000000e+000
         vertex 5.193360e-001 7.338034e-001 0.000000e+000
         vertex 5.193360e-001 7.338034e-001 2.000000e+000
      endloop
   endfacet
   facet normal -6.868216e-001 7.268261e-001 0.000000e+000
      outer loop
         vertex 5.193360e-001 7.338034e-001 2.000000e+000
         vertex 5.193360e-001 7.338034e-001 0.000000e+000
         vertex 3.581025e-001 5.858405e-001 0.000000e+000
      endloop
   endfacet
   facet normal -6.653054e-001 7.465713e-001 0.000000e+000
      outer loop
         vertex 5.193360e-001 7.338034e-001 2.000000e+000
         vertex 3.581025e-001 5.858405e-001 0.000000e+000
         vertex 3.581025e-001 5.858405e-001 2.000000e+000
      endloop
   endfacet
   facet normal -6.206289e-001 7.841045e-001 0.000000e+000
      outer loop
         vertex 3.581025e-001 5.858405e-001 2.000000e+000
         vertex 3.581025e-001 5.858405e-001 0.000000e+000
         vertex 1.845472e-001 4.525444e-001 0.000000e+000
      endloop
   endfacet
   facet normal -5.974684e-001 8.018924e-001 0.000000e+000
      outer loop
         vertex 3.581025e-001 5.858405e-001 2.000000e+000
         vertex 1.845472e-001 4.525444e-001 0.000000e+000
         vertex 1.845472e-001 4.525444e-001 2.000000e+000
      endloop
   endfacet
   facet normal -5.496808e-001 8.353748e-001 0.000000e+000
      outer loop
         vertex 1.845472e-001 4.525444e-001 2.000000e+000
         vertex 1.845472e-001 4.525444e-001 0.000000e+000
         vertex 0.000000e+000 3.349366e-001 0.000000e+000
      endloop
   endfacet
   facet normal -5.250535e-001 8.510692e-001 0.000000e+000
      outer loop
         vertex 1.845472e-001 4.525444e-001 2.000000e+000
         vertex 0.000000e+000 3.349366e-001 0.000000e+000
         vertex 0.000000e+000 3.349366e-001 2.000000e+000
      endloop
   endfacet
   facet normal -4.709494e-001 -8.821602e-001 0.000000e+000
      outer loop
         vertex 0.000000e+000 3.349366e-001 2.000000e+000
         vertex 0.000000e+000 3.349366e-001 0.000000e+000
         vertex 2.217823e-001 2.212355e-001 0.000000e+000
      endloop
   endfacet
   facet normal -4.413457e-001 -8.973371e-001 0.000000e+000
      outer loop
         vertex 0.000000e+000 3.349366e-001 2.000000e+000
         vertex 2.217823e-001 2.212355e-001 0.000000e+000
         vertex 2.217823e-001 2.212355e-001 2.000000e+000
      endloop
   endfacet
   facet normal -3.807743e-001 -9.246680e-001 0.000000e+000
      outer loop
         vertex 2.217823e-001 2.212355e-001 2.000000e+000
         vertex 2.217823e-001 2.212355e-001 0.000000e+000
         vertex 4.537834e-001 1.301818e-001 0.000000e+000
      endloop
   endfacet
   facet normal -3.498066e-001 -9.368219e-001 0.000000e+000
      outer loop
         vertex 2.217823e-001 2.212355e-001 2.000000e+000
         vertex 4.537834e-001 1.301818e-001 0.000000e+000
         vertex 4.537834e-001 1.301818e-001 2.000000e+000
      endloop
   endfacet
   facet normal -2.868150e-001 -9.579860e-001 0.000000e+000
      outer loop
         vertex 4.537834e-001 1.301818e-001 2.000000e+000
         vertex 4.537834e-001 1.301818e-001 0.000000e+000
         vertex 6.936977e-001 6.268024e-002 0.000000e+000
      endloop
   endfacet
   facet normal -2.547910e-001 -9.669961e-001 0.000000e+000
      outer loop
         vertex 4.537834e-001 1.301818e-001 2.000000e+000
         vertex 6.936977e-001 6.268024e-002 0.000000e+000
         vertex 6.936977e-001 6.268024e-002 2.000000e+000
      endloop
   endfacet
   facet normal -1.900051e-001 -9.817831e-001 0.000000e+000
      outer loop
         vertex 6.936977e-001 6.268024e-002 2.000000e+000
         vertex 6.936977e-001 6.268024e-002 0.000000e+000
         vertex 9.391407e-001 1.940206e-002 0.000000e+000
      endloop
   endfacet
   facet normal -1.572432e-001 -9.875599e-001 0.000000e+000
      outer loop
         vertex 6.936977e-001 6.268024e-002 2.000000e+000
         vertex 9.391407e-001 1.940206e-002 0.000000e+000
         vertex 9.391407e-001 1.940206e-002 2.000000e+000
      endloop
   endfacet
   facet normal -9.130692e-002 -9.958228e-001 0.000000e+000
      outer loop
         vertex 9.391407e-001 1.940206e-002 2.000000e+000
         vertex 9.391407e-001 1.940206e-002 0.000000e+000
         vertex 1.187673e+000 7.770956e-004 0.000000e+000
      endloop
   endfacet
   facet normal -5.813260e-002 -9.983089e-001 0.000000e+000
      outer loop
         vertex 9.391407e-001 1.940206e-002 2.000000e+000
         vertex 1.187673e+000 7.770956e-004 0.000000e+000
         vertex 1.187673e+000 7.770956e-004 2.000000e+000
      endloop
   endfacet
   facet normal 8.298739e-003 -9.999655e-001 0.000000e+000
      outer loop
         vertex 1.187673e+000 7.770956e-004 2.000000e+000
         vertex 1.187673e+000 7.770956e-004 0.000000e+000
         vertex 1.436825e+000 6.990507e-003 0.000000e+000
      endloop
   endfacet
   facet normal 4.155574e-002 -9.991362e-001 0.000000e+000
      outer loop
         vertex 1.187673e+000 7.770956e-004 2.000000e+000
         vertex 1.436825e+000 6.990507e-003 0.000000e+000
         vertex 1.436825e+000 6.990507e-003 2.000000e+000
      endloop
   endfacet
   facet normal 1.078219e-001 -9.941702e-001 0.000000e+000
      outer loop
         vertex 1.436825e+000 6.990507e-003 2.000000e+000
         vertex 1.436825e+000 6.990507e-003 0.000000e+000
         vertex 1.684121e+000 3.798064e-002 0.000000e+000
      endloop
   endfacet
   facet normal 1.408311e-001 -9.900336e-001 0.000000e+000
      outer loop
         vertex 1.436825e+000 6.990507e-003 2.000000e+000
         vertex 1.684121e+000 3.798064e-002 0.000000e+000
         vertex 1.684121e+000 3.798064e-002 2.000000e+000
      endloop
   endfacet
   facet normal 2.062735e-001 -9.784944e-001 0.000000e+000
      outer loop
         vertex 1.684121e+000 3.798064e-002 2.000000e+000
         vertex 1.684121e+000 3.798064e-002 0.000000e+000
         vertex 1.927101e+000 9.343941e-002 0.000000e+000
      endloop
   endfacet
   facet normal 2.387068e-001 -9.710917e-001 0.000000e+000
      outer loop
         vertex 1.684121e+000 3.798064e-002 2.000000e+000
         vertex 1.927101e+000 9.343941e-002 0.000000e+000
         vertex 1.927101e+000 9.343941e-002 2.000000e+000
      endloop
   endfacet
   facet normal 3.026751e-001 -9.530938e-001 0.000000e+000
      outer loop
         vertex 1.927101e+000 9.343941e-002 2.000000e+000
         vertex 1.927101e+000 9.343941e-002 0.000000e+000
         vertex 2.163352e+000 1.728157e-001 0.000000e+000
      endloop
   endfacet
   facet normal 3.342101e-001 -9.424986e-001 0.000000e+000
      outer loop
         vertex 1.927101e+000 9.343941e-002 2.000000e+000
         vertex 2.163352e+000 1.728157e-001 0.000000e+000
         vertex 2.163352e+000 1.728157e-001 2.000000e+000
      endloop
   endfacet
   facet normal 3.960685e-001 -9.182209e-001 0.000000e+000
      outer loop
         vertex 2.163352e+000 1.728157e-001 2.000000e+000
         vertex 2.163352e+000 1.728157e-001 0.000000e+000
         vertex 2.390527e+000 2.753206e-001 0.000000e+000
      endloop
   endfacet
   facet normal 4.263919e-001 -9.045386e-001 0.000000e+000
      outer loop
         vertex 2.163352e+000 1.728157e-001 2.000000e+000
         vertex 2.390527e+000 2.753206e-001 0.000000e+000
         vertex 2.390527e+000 2.753206e-001 2.000000e+000
      endloop
   endfacet
   facet normal 4.855256e-001 -8.742225e-001 0.000000e+000
      outer loop
         vertex 2.390527e+000 2.753206e-001 2.000000e+000
         vertex 2.390527e+000 2.753206e-001 0.000000e+000
         vertex 2.606366e+000 3.999352e-001 0.000000e+000
      endloop
   endfacet
   facet normal 5.143360e-001 -8.575888e-001 0.000000e+000
      outer loop
         vertex 2.390527e+000 2.753206e-001 2.000000e+000
         vertex 2.606366e+000 3.999352e-001 0.000000e+000
         vertex 2.606366e+000 3.999352e-001 2.000000e+000
      endloop
   endfacet
   facet normal 5.701574e-001 -8.215355e-001 0.000000e+000
      outer loop
         vertex 2.606366e+000 3.999352e-001 2.000000e+000
         vertex 2.606366e+000 3.999352e-001 0.000000e+000
         vertex 2.808725e+000 5.454212e-001 0.000000e+000
      endloop
   endfacet
   facet normal 5.971684e-001 -8.021159e-001 0.000000e+000
      outer loop
         vertex 2.606366e+000 3.999352e-001 2.000000e+000
         vertex 2.808725e+000 5.454212e-001 0.000000e+000
         vertex 2.808725e+000 5.454212e-001 2.000000e+000
      endloop
   endfacet
   facet normal 6.491227e-001 -7.606838e-001 0.000000e+000
      outer loop
         vertex 2.808725e+000 5.454212e-001 2.000000e+000
         vertex 2.808725e+000 5.454212e-001 0.000000e+000
         vertex 2.995592e+000 7.103329e-001 0.000000e+000
      endloop
   endfacet
   facet normal 6.740659e-001 -7.386712e-001 0.000000e+000
      outer loop
         vertex 2.808725e+000 5.454212e-001 2.000000e+000
         vertex 2.995592e+000 7.103329e-001 0.000000e+000
         vertex 2.995592e+000 7.103329e-001 2.000000e+000
      endloop
   endfacet
   facet normal 7.216367e-001 -6.922720e-001 0.000000e+000
      outer loop
         vertex 2.995592e+000 7.103329e-001 2.000000e+000
         vertex 2.995592e+000 7.103329e-001 0.000000e+000
         vertex 3.165111e+000 8.930311e-001 0.000000e+000
      endloop
   endfacet
   facet normal 7.442642e-001 -6.678853e-001 0.000000e+000
      outer loop
         vertex 2.995592e+000 7.103329e-001 2.000000e+000
         vertex 3.165111e+000 8.930311e-001 0.000000e+000
         vertex 3.165111e+000 8.930311e-001 2.000000e+000
      endloop
   endfacet
   facet normal 7.869787e-001 -6.169801e-001 0.000000e+000
      outer loop
         vertex 3.165111e+000 8.930311e-001 2.000000e+000
         vertex 3.165111e+000 8.930311e-001 0.000000e+000
         vertex 3.315597e+000 1.091700e+000 0.000000e+000
      endloop
   endfacet
   facet normal 8.070657e-001 -5.904617e-001 0.000000e+000
      outer loop
         vertex 3.165111e+000 8.930311e-001 2.000000e+000
         vertex 3.315597e+000 1.091700e+000 0.000000e+000
         vertex 3.315597e+000 1.091700e+000 2.000000e+000
      endloop
   endfacet
   facet normal 8.444995e-001 -5.355564e-001 0.000000e+000
      outer loop
         vertex 3.315597e+000 1.091700e+000 2.000000e+000
         vertex 3.315597e+000 1.091700e+000 0.000000e+000
         vertex 3.445554e+000 1.304365e+000 0.000000e+000
      endloop
   endfacet
   facet normal 8.618462e-001 -5.071697e-001 0.000000e+000
      outer loop
         vertex 3.315597e+000 1.091700e+000 2.000000e+000
         vertex 3.445554e+000 1.304365e+000 0.000000e+000
         vertex 3.445554e+000 1.304365e+000 2.000000e+000
      endloop
   endfacet
   facet normal 8.936271e-001 -4.488101e-001 0.000000e+000
      outer loop
         vertex 3.445554e+000 1.304365e+000 2.000000e+000
         vertex 3.445554e+000 1.304365e+000 0.000000e+000
         vertex 3.553690e+000 1.528913e+000 0.000000e+000
      endloop
   endfacet
   facet normal 9.080613e-001 -4.188373e-001 0.000000e+000
      outer loop
         vertex 3.445554e+000 1.304365e+000 2.000000e+000
         vertex 3.553690e+000 1.528913e+000 0.000000e+000
         vertex 3.553690e+000 1.528913e+000 2.000000e+000
      endloop
   endfacet
   facet normal 9.338735e-001 -3.576034e-001 0.000000e+000
      outer loop
         vertex 3.553690e+000 1.528913e+000 2.000000e+000
         vertex 3.553690e+000 1.528913e+000 0.000000e+000
         vertex 3.638932e+000 1.763112e+000 0.000000e+000
      endloop
   endfacet
   facet normal 9.452516e-001 -3.263423e-001 0.000000e+000
      outer loop
         vertex 3.553690e+000 1.528913e+000 2.000000e+000
         vertex 3.638932e+000 1.763112e+000 0.000000e+000
         vertex 3.638932e+000 1.763112e+000 2.000000e+000
      endloop
   endfacet
   facet normal 9.648387e-001 -2.628426e-001 0.000000e+000
      outer loop
         vertex 3.638932e+000 1.763112e+000 2.000000e+000
         vertex 3.638932e+000 1.763112e+000 0.000000e+000
         vertex 3.700431e+000 2.004635e+000 0.000000e+000
      endloop
   endfacet
   facet normal 9.730477e-001 -2.306039e-001 0.000000e+000
      outer loop
         vertex 3.638932e+000 1.763112e+000 2.000000e+000
         vertex 3.700431e+000 2.004635e+000 0.000000e+000
         vertex 3.700431e+000 2.004635e+000 2.000000e+000
      endloop
   endfacet
   facet normal 9.862149e-001 -1.654695e-001 0.000000e+000
      outer loop
         vertex 3.700431e+000 2.004635e+000 2.000000e+000
         vertex 3.700431e+000 2.004635e+000 0.000000e+000
         vertex 3.737577e+000 2.251081e+000 0.000000e+000
      endloop
   endfacet
   facet normal 9.911731e-001 -1.325738e-001 0.000000e+000
      outer loop
         vertex 3.700431e+000 2.004635e+000 2.000000e+000
         vertex 3.737577e+000 2.251081e+000 0.000000e+000
         vertex 3.737577e+000 2.251081e+000 2.000000e+000
      endloop
   endfacet
   facet normal 9.977896e-001 -6.645199e-002 0.000000e+000
      outer loop
         vertex 3.737577e+000 2.251081e+000 2.000000e+000
         vertex 3.737577e+000 2.251081e+000 0.000000e+000
         vertex 3.750000e+000 2.500000e+000 0.000000e+000
      endloop
   endfacet
   facet normal 9.994479e-001 -3.322599e-002 0.000000e+000
      outer loop
         vertex 3.737577e+000 2.251081e+000 2.000000e+000
         vertex 3.750000e+000 2.500000e+000 0.000000e+000
         vertex 3.750000e+000 2.500000e+000 2.000000e+000
      endloop
   endfacet
   facet normal 9.994479e-001 3.322599e-002 0.000000e+000
      outer loop
         vertex 3.750000e+000 2.500000e+000 2.000000e+000
         vertex 3.750000e+000 2.500000e+000 0.000000e+000
         vertex 3.737577e+000 2.748920e+000 0.000000e+000
      endloop
   endfacet
   facet normal 9.977896e-001 6.645199e-002 0.000000e+000
      outer loop
         vertex 3.750000e+000 2.500000e+000 2.000000e+000
         vertex 3.737577e+000 2.748920e+000 0.000000e+000
         vertex 3.737577e+000 2.748920e+000 2.000000e+000
      endloop
   endfacet
   facet normal 9.911731e-001 1.325738e-001 0.000000e+000
      outer loop
         vertex 3.737577e+000 2.748920e+000 2.000000e+000
         vertex 3.737577e+000 2.748920e+000 0.000000e+000
         vertex 3.700431e+000 2.995365e+000 0.000000e+000
      endloop
   endfacet
   facet normal 9.862149e-001 1.654695e-001 0.000000e+000
      outer loop
         vertex 3.737577e+000 2.748920e+000 2.000000e+000
         vertex 3.700431e+000 2.995365e+000 0.000000e+000
         vertex 3.700431e+000 2.995365e+000 2.000000e+000
      endloop
   endfacet
   facet normal 9.730477e-001 2.306039e-001 0.000000e+000
      outer loop
         vertex 3.700431e+000 2.995365e+000 2.000000e+000
         vertex 3.700431e+000 2.995365e+000 0.000000e+000
         vertex 3.638932e+000 3.236888e+000 0.000000e+000
      endloop
   endfacet
   facet normal 9.648387e-001 2.628426e-001 0.000000e+000
      outer loop
         vertex 3.700431e+000 2.995365e+000 2.000000e+000
         vertex 3.638932e+000 3.236888e+000 0.000000e+000
         vertex 3.638932e+000 3.236888e+000 2.000000e+000
      endloop
   endfacet
   facet normal 9.452516e-001 3.263423e-001 0.000000e+000
      outer loop
         vertex 3.638932e+000 3.236888e+000 2.000000e+000
         vertex 3.638932e+000 3.236888e+000 0.000000e+000
         vertex 3.553690e+000 3.471087e+000 0.000000e+000
      endloop
   endfacet
   facet normal 9.338735e-001 3.576034e-001 0.000000e+000
      outer loop
         vertex 3.638932e+000 3.236888e+000 2.000000e+000
         vertex 3.553690e+000 3.471087e+000 0.000000e+000
         vertex 3.553690e+000 3.471087e+000 2.000000e+000
      endloop
   endfacet
   facet normal 9.080613e-001 4.188373e-001 0.000000e+000
      outer loop
         vertex 3.553690e+000 3.471087e+000 2.000000e+000
         vertex 3.553690e+000 3.471087e+000 0.000000e+000
         vertex 3.445554e+000 3.695635e+000 0.000000e+000
      endloop
   endfacet
   facet normal 8.936271e-001 4.488101e-001 0.000000e+000
      outer loop
         vertex 3.553690e+000 3.471087e+000 2.000000e+000
         vertex 3.445554e+000 3.695635e+000 0.000000e+000
         vertex 3.445554e+000 3.695635e+000 2.000000e+000
      endloop
   endfacet
   facet normal 8.618462e-001 5.071697e-001 0.000000e+000
      outer loop
         vertex 3.445554e+000 3.695635e+000 2.000000e+000
         vertex 3.445554e+000 3.695635e+000 0.000000e+000
         vertex 3.315597e+000 3.908300e+000 0.000000e+000
      endloop
   endfacet
   facet normal 8.444995e-001 5.355564e-001 0.000000e+000
      outer loop
         vertex 3.445554e+000 3.695635e+000 2.000000e+000
         vertex 3.315597e+000 3.908300e+000 0.000000e+000
         vertex 3.315597e+000 3.908300e+000 2.000000e+000
      endloop
   endfacet
   facet normal 8.070657e-001 5.904617e-001 0.000000e+000
      outer loop
         vertex 3.315597e+000 3.908300e+000 2.000000e+000
         vertex 3.315597e+000 3.908300e+000 0.000000e+000
         vertex 3.165111e+000 4.106969e+000 0.000000e+000
      endloop
   endfacet
   facet normal 7.869787e-001 6.169801e-001 0.000000e+000
      outer loop
         vertex 3.315597e+000 3.908300e+000 2.000000e+000
         vertex 3.165111e+000 4.106969e+000 0.000000e+000
         vertex 3.165111e+000 4.106969e+000 2.000000e+000
      endloop
   endfacet
   facet normal 7.442642e-001 6.678853e-001 0.000000e+000
      outer loop
         vertex 3.165111e+000 4.106969e+000 2.000000e+000
         vertex 3.165111e+000 4.106969e+000 0.000000e+000
         vertex 2.995592e+000 4.289667e+000 0.000000e+000
      endloop
   endfacet
   facet normal 7.216367e-001 6.922720e-001 0.000000e+000
      outer loop
         vertex 3.165111e+000 4.106969e+000 2.000000e+000
         vertex 2.995592e+000 4.289667e+000 0.000000e+000
         vertex 2.995592e+000 4.289667e+000 2.000000e+000
      endloop
   endfacet
   facet normal 6.740659e-001 7.386712e-001 0.000000e+000
      outer loop
         vertex 2.995592e+000 4.289667e+000 2.000000e+000
         vertex 2.995592e+000 4.289667e+000 0.000000e+000
         vertex 2.808725e+000 4.454579e+000 0.000000e+000
      endloop
   endfacet
   facet normal 6.491227e-001 7.606838e-001 0.000000e+000
      outer loop
         vertex 2.995592e+000 4.289667e+000 2.000000e+000
         vertex 2.808725e+000 4.454579e+000 0.000000e+000
         vertex 2.808725e+000 4.454579e+000 2.000000e+000
      endloop
   endfacet
   facet normal 5.971684e-001 8.021159e-001 0.000000e+000
      outer loop
         vertex 2.808725e+000 4.454579e+000 2.000000e+000
         vertex 2.808725e+000 4.454579e+000 0.000000e+000
         vertex 2.606366e+000 4.600065e+000 0.000000e+000
      endloop
   endfacet
   facet normal 5.701574e-001 8.215355e-001 0.000000e+000
      outer loop
         vertex 2.808725e+000 4.454579e+000 2.000000e+000
         vertex 2.606366e+000 4.600065e+000 0.000000e+000
         vertex 2.606366e+000 4.600065e+000 2.000000e+000
      endloop
   endfacet
   facet normal 5.143360e-001 8.575888e-001 0.000000e+000
      outer loop
         vertex 2.606366e+000 4.600065e+000 2.000000e+000
         vertex 2.606366e+000 4.600065e+000 0.000000e+000
         vertex 2.390527e+000 4.724679e+000 0.000000e+000
      endloop
   endfacet
   facet normal 4.855256e-001 8.742225e-001 0.000000e+000
      outer loop
         vertex 2.606366e+000 4.600065e+000 2.000000e+000
         vertex 2.390527e+000 4.724679e+000 0.000000e+000
         vertex 2.390527e+000 4.724679e+000 2.000000e+000
      endloop
   endfacet
   facet normal 4.263919e-001 9.045386e-001 0.000000e+000
      outer loop
         vertex 2.390527e+000 4.724679e+000 2.000000e+000
         vertex 2.390527e+000 4.724679e+000 0.000000e+000
         vertex 2.163352e+000 4.827184e+000 0.000000e+000
      endloop
   endfacet
   facet normal 3.960685e-001 9.182209e-001 0.000000e+000
      outer loop
         vertex 2.390527e+000 4.724679e+000 2.000000e+000
         vertex 2.163352e+000 4.827184e+000 0.000000e+000
         vertex 2.163352e+000 4.827184e+000 2.000000e+000
      endloop
   endfacet
   facet normal 3.342101e-001 9.424986e-001 0.000000e+000
      outer loop
         vertex 2.163352e+000 4.827184e+000 2.000000e+000
         vertex 2.163352e+000 4.827184e+000 0.000000e+000
         vertex 1.927101e+000 4.906560e+000 0.000000e+000
      endloop
   endfacet
   facet normal 3.026751e-001 9.530938e-001 0.000000e+000
      outer loop
         vertex 2.163352e+000 4.827184e+000 2.000000e+000
         vertex 1.927101e+000 4.906560e+000 0.000000e+000
         vertex 1.927101e+000 4.906560e+000 2.000000e+000
      endloop
   endfacet
   facet normal 2.387068e-001 9.710917e-001 0.000000e+000
      outer loop
         vertex 1.927101e+000 4.906560e+000 2.000000e+000
         vertex 1.927101e+000 4.906560e+000 0.000000e+000
         vertex 1.684121e+000 4.962019e+000 0.000000e+000
      endloop
   endfacet
   facet normal 2.062735e-001 9.784944e-001 0.000000e+000
      outer loop
         vertex 1.927101e+000 4.906560e+000 2.000000e+000
         vertex 1.684121e+000 4.962019e+000 0.000000e+000
         vertex 1.684121e+000 4.962019e+000 2.000000e+000
      endloop
   endfacet
   facet normal 1.408311e-001 9.900336e-001 0.000000e+000
      outer loop
         vertex 1.684121e+000 4.962019e+000 2.000000e+000
         vertex 1.684121e+000 4.962019e+000 0.000000e+000
         vertex 1.436825e+000 4.993010e+000 0.000000e+000
      endloop
   endfacet
   facet normal 1.078219e-001 9.941702e-001 0.000000e+000
      outer loop
         vertex 1.684121e+000 4.962019e+000 2.000000e+000
         vertex 1.436825e+000 4.993010e+000 0.000000e+000
         vertex 1.436825e+000 4.993010e+000 2.000000e+000
      endloop
   endfacet
   facet normal 4.155574e-002 9.991362e-001 0.000000e+000
      outer loop
         vertex 1.436825e+000 4.993010e+000 2.000000e+000
         vertex 1.436825e+000 4.993010e+000 0.000000e+000
         vertex 1.187673e+000 4.999223e+000 0.000000e+000
      endloop
   endfacet
   facet normal 8.298739e-003 9.999655e-001 0.000000e+000
      outer loop
         vertex 1.436825e+000 4.993010e+000 2.000000e+000
         vertex 1.187673e+000 4.999223e+000 0.000000e+000
         vertex 1.187673e+000 4.999223e+000 2.000000e+000
      endloop
   endfacet
   facet normal -5.813260e-002 9.983089e-001 0.000000e+000
      outer loop
         vertex 1.187673e+000 4.999223e+000 2.000000e+000
         vertex 1.187673e+000 4.999223e+000 0.000000e+000
         vertex 9.391407e-001 4.980598e+000 0.000000e+000
      endloop
   endfacet
   facet normal -9.130692e-002 9.958228e-001 0.000000e+000
      outer loop
         vertex 1.187673e+000 4.999223e+000 2.000000e+000
         vertex 9.391407e-001 4.980598e+000 0.000000e+000
         vertex 9.391407e-001 4.980598e+000 2.000000e+000
      endloop
   endfacet
   facet normal -1.572432e-001 9.875599e-001 0.000000e+000
      outer loop
         vertex 9.391407e-001 4.980598e+000 2.000000e+000
         vertex 9.391407e-001 4.980598e+000 0.000000e+000
         vertex 6.936977e-001 4.937320e+000 0.000000e+000
      endloop
   endfacet
   facet normal -1.900051e-001 9.817831e-001 0.000000e+000
      outer loop
         vertex 9.391407e-001 4.980598e+000 2.000000e+000
         vertex 6.936977e-001 4.937320e+000 0.000000e+000
         vertex 6.936977e-001 4.937320e+000 2.000000e+000
      endloop
   endfacet
   facet normal -2.547910e-001 9.669961e-001 0.000000e+000
      outer loop
         vertex 6.936977e-001 4.937320e+000 2.000000e+000
         vertex 6.936977e-001 4.937320e+000 0.000000e+000
         vertex 4.537834e-001 4.869818e+000 0.000000e+000
      endloop
   endfacet
   facet normal -2.868150e-001 9.579860e-001 0.000000e+000
      outer loop
         vertex 6.936977e-001 4.937320e+000 2.000000e+000
         vertex 4.537834e-001 4.869818e+000 0.000000e+000
         vertex 4.537834e-001 4.869818e+000 2.000000e+000
      endloop
   endfacet
   facet normal -3.498066e-001 9.368219e-001 0.000000e+000
      outer loop
         vertex 4.537834e-001 4.869818e+000 2.000000e+000
         vertex 4.537834e-001 4.869818e+000 0.000000e+000
         vertex 2.217823e-001 4.778764e+000 0.000000e+000
      endloop
   endfacet
   facet normal -3.807743e-001 9.246680e-001 0.000000e+000
      outer loop
         vertex 4.537834e-001 4.869818e+000 2.000000e+000
         vertex 2.217823e-001 4.778764e+000 0.000000e+000
         vertex 2.217823e-001 4.778764e+000 2.000000e+000
      endloop
   endfacet
   facet normal -4.413457e-001 8.973371e-001 0.000000e+000
      outer loop
         vertex 2.217823e-001 4.778764e+000 2.000000e+000
         vertex 2.217823e-001 4.778764e+000 0.000000e+000
         vertex 0.000000e+000 4.665063e+000 0.000000e+000
      endloop
   endfacet
   facet normal -4.709494e-001 8.821602e-001 0.000000e+000
      outer loop
         vertex 2.217823e-001 4.778764e+000 2.000000e+000
         vertex 0.000000e+000 4.665063e+000 0.000000e+000
         vertex 0.000000e+000 4.665063e+000 2.000000e+000
      endloop
   endfacet
   facet normal 0.000000e+000 0.000000e+000 1.000000e+000
      outer loop
         vertex 2.598902e+000 1.843902e+000 2.000000e+000
         vertex 2.503008e+000 1.675396e+000 2.000000e+000
         vertex 3.315597e+000 1.091700e+000 2.000000e+000
      endloop
   endfacet
   facet normal 0.000000e+000 0.000000e+000 1.000000e+000
      outer loop
         vertex 0.000000e+000 3.349366e-001 2.000000e+000
         vertex 2.217823e-001 2.212355e-001 2.000000e+000
         vertex 1.845472e-001 4.525444e-001 2.000000e+000
      endloop
   endfacet
   facet normal 0.000000e+000 0.000000e+000 1.000000e+000
      outer loop
         vertex 1.845472e-001 4.525444e-001 2.000000e+000
         vertex 2.217823e-001 2.212355e-001 2.000000e+000
         vertex 4.537834e-001 1.301818e-001 2.000000e+000
      endloop
   endfacet
   facet normal 0.000000e+000 0.000000e+000 1.000000e+000
      outer loop
         vertex 1.845472e-001 4.525444e-001 2.000000e+000
         vertex 4.537834e-001 1.301818e-001 2.000000e+000
         vertex 3.581025e-001 5.858405e-001 2.000000e+000
      endloop
   endfacet
   facet normal 0.000000e+000 0.000000e+000 1.000000e+000
      outer loop
         vertex 3.581025e-001 5.858405e-001 2.000000e+000
         vertex 4.537834e-001 1.301818e-001 2.000000e+000
         vertex 6.936977e-001 6.268024e-002 2.000000e+000
      endloop
   endfacet
   facet normal 0.000000e+000 0.000000e+000 1.000000e+000
      outer loop
         vertex 3.581025e-001 5.858405e-001 2.000000e+000
         vertex 6.936977e-001 6.268024e-002 2.000000e+000
         vertex 5.193360e-001 7.338034e-001 2.000000e+000
      endloop
   endfacet
   facet normal 0.000000e+000 0.000000e+000 1.000000e+000
      outer loop
         vertex 5.193360e-001 7.338034e-001 2.000000e+000
         vertex 6.936977e-001 6.268024e-002 2.000000e+000
         vertex 6.670123e-001 8.952996e-001 2.000000e+000
      endloop
   endfacet
   facet normal 0.000000e+000 0.000000e+000 1.000000e+000
      outer loop
         vertex 6.670123e-001 4.104701e+000 2.000000e+000
         vertex 8.000000e-001 3.930909e+000 2.000000e+000
         vertex 9.883230e-001 3.976999e+000 2.000000e+000
      endloop
   endfacet
   facet normal 0.000000e+000 0.000000e+000 1.000000e+000
      outer loop
         vertex 3.315597e+000 1.091700e+000 2.000000e+000
         vertex 2.503008e+000 1.675396e+000 2.000000e+000
         vertex 3.165111e+000 8.930311e-001 2.000000e+000
      endloop
   endfacet
   facet normal 0.000000e+000 0.000000e+000 1.000000e+000
      outer loop
         vertex 3.165111e+000 8.930311e-001 2.000000e+000
         vertex 2.503008e+000 1.675396e+000 2.000000e+000
         vertex 2.386180e+000 1.520666e+000 2.000000e+000
      endloop
   endfacet
   facet normal 0.000000e+000 0.000000e+000 1.000000e+000
      outer loop
         vertex 3.165111e+000 8.930311e-001 2.000000e+000
         vertex 2.386180e+000 1.520666e+000 2.000000e+000
         vertex 2.995592e+000 7.103329e-001 2.000000e+000
      endloop
   endfacet
   facet normal 0.000000e+000 0.000000e+000 1.000000e+000
      outer loop
         vertex 2.995592e+000 7.103329e-001 2.000000e+000
         vertex 2.386180e+000 1.520666e+000 2.000000e+000
         vertex 2.250371e+000 1.382298e+000 2.000000e+000
      endloop
   endfacet
   facet normal 0.000000e+000 0.000000e+000 1.000000e+000
      outer loop
         vertex 2.995592e+000 7.103329e-001 2.000000e+000
         vertex 2.250371e+000 1.382298e+000 2.000000e+000
         vertex 2.808725e+000 5.454212e-001 2.000000e+000
      endloop
   endfacet
   facet normal 0.000000e+000 0.000000e+000 1.000000e+000
      outer loop
         vertex 2.808725e+000 5.454212e-001 2.000000e+000
         vertex 2.250371e+000 1.382298e+000 2.000000e+000
         vertex 2.097850e+000 1.262603e+000 2.000000e+000
      endloop
   endfacet
   facet normal 0.000000e+000 0.000000e+000 1.000000e+000
      outer loop
         vertex 2.808725e+000 5.454212e-001 2.000000e+000
         vertex 2.097850e+000 1.262603e+000 2.000000e+000
         vertex 2.606366e+000 3.999352e-001 2.000000e+000
      endloop
   endfacet
   facet normal 0.000000e+000 0.000000e+000 1.000000e+000
      outer loop
         vertex 1.753097e+000 3.913115e+000 2.000000e+000
         vertex 1.927101e+000 4.906560e+000 2.000000e+000
         vertex 1.566626e+000 3.966202e+000 2.000000e+000
      endloop
   endfacet
   facet normal 0.000000e+000 0.000000e+000 1.000000e+000
      outer loop
         vertex 1.566626e+000 3.966202e+000 2.000000e+000
         vertex 1.927101e+000 4.906560e+000 2.000000e+000
         vertex 1.684121e+000 4.962019e+000 2.000000e+000
      endloop
   endfacet
   facet normal 0.000000e+000 0.000000e+000 1.000000e+000
      outer loop
         vertex 1.566626e+000 3.966202e+000 2.000000e+000
         vertex 1.684121e+000 4.962019e+000 2.000000e+000
         vertex 1.374865e+000 3.994794e+000 2.000000e+000
      endloop
   endfacet
   facet normal 0.000000e+000 0.000000e+000 1.000000e+000
      outer loop
         vertex 1.374865e+000 3.994794e+000 2.000000e+000
         vertex 1.684121e+000 4.962019e+000 2.000000e+000
         vertex 1.436825e+000 4.993010e+000 2.000000e+000
      endloop
   endfacet
   facet normal 0.000000e+000 0.000000e+000 1.000000e+000
      outer loop
         vertex 1.374865e+000 3.994794e+000 2.000000e+000
         vertex 1.436825e+000 4.993010e+000 2.000000e+000
         vertex 1.181018e+000 3.998413e+000 2.000000e+000
      endloop
   endfacet
   facet normal 0.000000e+000 0.000000e+000 1.000000e+000
      outer loop
         vertex 2.672260e+000 2.976632e+000 2.000000e+000
         vertex 3.553690e+000 3.471087e+000 2.000000e+000
         vertex 2.598902e+000 3.156098e+000 2.000000e+000
      endloop
   endfacet
   facet normal 0.000000e+000 0.000000e+000 1.000000e+000
      outer loop
         vertex 2.598902e+000 3.156098e+000 2.000000e+000
         vertex 3.553690e+000 3.471087e+000 2.000000e+000
         vertex 3.445554e+000 3.695635e+000 2.000000e+000
      endloop
   endfacet
   facet normal 0.000000e+000 0.000000e+000 1.000000e+000
      outer loop
         vertex 2.598902e+000 3.156098e+000 2.000000e+000
         vertex 3.445554e+000 3.695635e+000 2.000000e+000
         vertex 2.503008e+000 3.324604e+000 2.000000e+000
      endloop
   endfacet
   facet normal 0.000000e+000 0.000000e+000 1.000000e+000
      outer loop
         vertex 2.503008e+000 3.324604e+000 2.000000e+000
         vertex 3.445554e+000 3.695635e+000 2.000000e+000
         vertex 3.315597e+000 3.908300e+000 2.000000e+000
      endloop
   endfacet
   facet normal 0.000000e+000 0.000000e+000 1.000000e+000
      outer loop
         vertex 2.503008e+000 3.324604e+000 2.000000e+000
         vertex 3.315597e+000 3.908300e+000 2.000000e+000
         vertex 2.386180e+000 3.479334e+000 2.000000e+000
      endloop
   endfacet
   facet normal 0.000000e+000 0.000000e+000 1.000000e+000
      outer loop
         vertex 2.386180e+000 3.479334e+000 2.000000e+000
         vertex 3.315597e+000 3.908300e+000 2.000000e+000
         vertex 3.165111e+000 4.106969e+000 2.000000e+000
      endloop
   endfacet
   facet normal 0.000000e+000 0.000000e+000 1.000000e+000
      outer loop
         vertex 2.386180e+000 3.479334e+000 2.000000e+000
         vertex 3.165111e+000 4.106969e+000 2.000000e+000
         vertex 2.250371e+000 3.617702e+000 2.000000e+000
      endloop
   endfacet
   facet normal 0.000000e+000 0.000000e+000 1.000000e+000
      outer loop
         vertex 2.746864e+000 2.403059e+000 2.000000e+000
         vertex 3.750000e+000 2.500000e+000 2.000000e+000
         vertex 2.746864e+000 2.596941e+000 2.000000e+000
      endloop
   endfacet
   facet normal 0.000000e+000 0.000000e+000 1.000000e+000
      outer loop
         vertex 2.746864e+000 2.596941e+000 2.000000e+000
         vertex 3.750000e+000 2.500000e+000 2.000000e+000
         vertex 3.737577e+000 2.748920e+000 2.000000e+000
      endloop
   endfacet
   facet normal 0.000000e+000 0.000000e+000 1.000000e+000
      outer loop
         vertex 2.746864e+000 2.596941e+000 2.000000e+000
         vertex 3.737577e+000 2.748920e+000 2.000000e+000
         vertex 2.721857e+000 2.789202e+000 2.000000e+000
      endloop
   endfacet
   facet normal 0.000000e+000 0.000000e+000 1.000000e+000
      outer loop
         vertex 2.721857e+000 2.789202e+000 2.000000e+000
         vertex 3.737577e+000 2.748920e+000 2.000000e+000
         vertex 3.700431e+000 2.995365e+000 2.000000e+000
      endloop
   endfacet
   facet normal 0.000000e+000 0.000000e+000 1.000000e+000
      outer loop
         vertex 2.721857e+000 2.789202e+000 2.000000e+000
         vertex 3.700431e+000 2.995365e+000 2.000000e+000
         vertex 2.672260e+000 2.976632e+000 2.000000e+000
      endloop
   endfacet
   facet normal 0.000000e+000 0.000000e+000 1.000000e+000
      outer loop
         vertex 2.672260e+000 2.976632e+000 2.000000e+000
         vertex 3.700431e+000 2.995365e+000 2.000000e+000
         vertex 3.638932e+000 3.236888e+000 2.000000e+000
      endloop
   endfacet
   facet normal 0.000000e+000 0.000000e+000 1.000000e+000
      outer loop
         vertex 2.672260e+000 2.976632e+000 2.000000e+000
         vertex 3.638932e+000 3.236888e+000 2.000000e+000
         vertex 3.553690e+000 3.471087e+000 2.000000e+000
      endloop
   endfacet
   facet normal 0.000000e+000 0.000000e+000 1.000000e+000
      outer loop
         vertex 3.315597e+000 1.091700e+000 2.000000e+000
         vertex 3.445554e+000 1.304365e+000 2.000000e+000
         vertex 2.598902e+000 1.843902e+000 2.000000e+000
      endloop
   endfacet
   facet normal 0.000000e+000 0.000000e+000 1.000000e+000
      outer loop
         vertex 2.598902e+000 1.843902e+000 2.000000e+000
         vertex 3.445554e+000 1.304365e+000 2.000000e+000
         vertex 3.553690e+000 1.528913e+000 2.000000e+000
      endloop
   endfacet
   facet normal 0.000000e+000 0.000000e+000 1.000000e+000
      outer loop
         vertex 2.598902e+000 1.843902e+000 2.000000e+000
         vertex 3.553690e+000 1.528913e+000 2.000000e+000
         vertex 2.672260e+000 2.023369e+000 2.000000e+000
      endloop
   endfacet
   facet normal 0.000000e+000 0.000000e+000 1.000000e+000
      outer loop
         vertex 2.672260e+000 2.023369e+000 2.000000e+000
         vertex 3.553690e+000 1.528913e+000 2.000000e+000
         vertex 3.638932e+000 1.763112e+000 2.000000e+000
      endloop
   endfacet
   facet normal 0.000000e+000 0.000000e+000 1.000000e+000
      outer loop
         vertex 2.672260e+000 2.023369e+000 2.000000e+000
         vertex 3.638932e+000 1.763112e+000 2.000000e+000
         vertex 2.721857e+000 2.210798e+000 2.000000e+000
      endloop
   endfacet
   facet normal 0.000000e+000 0.000000e+000 1.000000e+000
      outer loop
         vertex 2.721857e+000 2.210798e+000 2.000000e+000
         vertex 3.638932e+000 1.763112e+000 2.000000e+000
         vertex 3.700431e+000 2.004635e+000 2.000000e+000
      endloop
   endfacet
   facet normal 0.000000e+000 0.000000e+000 1.000000e+000
      outer loop
         vertex 2.721857e+000 2.210798e+000 2.000000e+000
         vertex 3.700431e+000 2.004635e+000 2.000000e+000
         vertex 2.746864e+000 2.403059e+000 2.000000e+000
      endloop
   endfacet
   facet normal 0.000000e+000 0.000000e+000 1.000000e+000
      outer loop
         vertex 2.746864e+000 2.403059e+000 2.000000e+000
         vertex 3.700431e+000 2.004635e+000 2.000000e+000
         vertex 3.737577e+000 2.251081e+000 2.000000e+000
      endloop
   endfacet
   facet normal 0.000000e+000 0.000000e+000 1.000000e+000
      outer loop
         vertex 2.746864e+000 2.403059e+000 2.000000e+000
         vertex 3.737577e+000 2.251081e+000 2.000000e+000
         vertex 3.750000e+000 2.500000e+000 2.000000e+000
      endloop
   endfacet
   facet normal 0.000000e+000 0.000000e+000 1.000000e+000
      outer loop
         vertex 2.606366e+000 3.999352e-001 2.000000e+000
         vertex 2.097850e+000 1.262603e+000 2.000000e+000
         vertex 2.390527e+000 2.753206e-001 2.000000e+000
      endloop
   endfacet
   facet normal 0.000000e+000 0.000000e+000 1.000000e+000
      outer loop
         vertex 2.390527e+000 2.753206e-001 2.000000e+000
         vertex 2.097850e+000 1.262603e+000 2.000000e+000
         vertex 1.931163e+000 1.163581e+000 2.000000e+000
      endloop
   endfacet
   facet normal 0.000000e+000 0.000000e+000 1.000000e+000
      outer loop
         vertex 2.390527e+000 2.753206e-001 2.000000e+000
         vertex 1.931163e+000 1.163581e+000 2.000000e+000
         vertex 2.163352e+000 1.728157e-001 2.000000e+000
      endloop
   endfacet
   facet normal 0.000000e+000 0.000000e+000 1.000000e+000
      outer loop
         vertex 2.163352e+000 1.728157e-001 2.000000e+000
         vertex 1.931163e+000 1.163581e+000 2.000000e+000
         vertex 1.753097e+000 1.086885e+000 2.000000e+000
      endloop
   endfacet
   facet normal 0.000000e+000 0.000000e+000 1.000000e+000
      outer loop
         vertex 2.163352e+000 1.728157e-001 2.000000e+000
         vertex 1.753097e+000 1.086885e+000 2.000000e+000
         vertex 1.927101e+000 9.343941e-002 2.000000e+000
      endloop
   endfacet
   facet normal 0.000000e+000 0.000000e+000 1.000000e+000
      outer loop
         vertex 1.927101e+000 9.343941e-002 2.000000e+000
         vertex 1.753097e+000 1.086885e+000 2.000000e+000
         vertex 1.566626e+000 1.033798e+000 2.000000e+000
      endloop
   endfacet
   facet normal 0.000000e+000 0.000000e+000 1.000000e+000
      outer loop
         vertex 1.927101e+000 9.343941e-002 2.000000e+000
         vertex 1.566626e+000 1.033798e+000 2.000000e+000
         vertex 1.684121e+000 3.798064e-002 2.000000e+000
      endloop
   endfacet
   facet normal 0.000000e+000 0.000000e+000 1.000000e+000
      outer loop
         vertex 5.193360e-001 4.266196e+000 2.000000e+000
         vertex 6.670123e-001 4.104701e+000 2.000000e+000
         vertex 6.936977e-001 4.937320e+000 2.000000e+000
      endloop
   endfacet
   facet normal 0.000000e+000 0.000000e+000 1.000000e+000
      outer loop
         vertex 6.936977e-001 4.937320e+000 2.000000e+000
         vertex 6.670123e-001 4.104701e+000 2.000000e+000
         vertex 9.883230e-001 3.976999e+000 2.000000e+000
      endloop
   endfacet
   facet normal 0.000000e+000 0.000000e+000 1.000000e+000
      outer loop
         vertex 6.936977e-001 4.937320e+000 2.000000e+000
         vertex 9.883230e-001 3.976999e+000 2.000000e+000
         vertex 9.391407e-001 4.980598e+000 2.000000e+000
      endloop
   endfacet
   facet normal 0.000000e+000 0.000000e+000 1.000000e+000
      outer loop
         vertex 9.391407e-001 4.980598e+000 2.000000e+000
         vertex 9.883230e-001 3.976999e+000 2.000000e+000
         vertex 1.181018e+000 3.998413e+000 2.000000e+000
      endloop
   endfacet
   facet normal 0.000000e+000 0.000000e+000 1.000000e+000
      outer loop
         vertex 9.391407e-001 4.980598e+000 2.000000e+000
         vertex 1.181018e+000 3.998413e+000 2.000000e+000
         vertex 1.187673e+000 4.999223e+000 2.000000e+000
      endloop
   endfacet
   facet normal 0.000000e+000 0.000000e+000 1.000000e+000
      outer loop
         vertex 1.187673e+000 4.999223e+000 2.000000e+000
         vertex 1.181018e+000 3.998413e+000 2.000000e+000
         vertex 1.436825e+000 4.993010e+000 2.000000e+000
      endloop
   endfacet
   facet normal 0.000000e+000 0.000000e+000 1.000000e+000
      outer loop
         vertex 3.165111e+000 4.106969e+000 2.000000e+000
         vertex 2.995592e+000 4.289667e+000 2.000000e+000
         vertex 2.250371e+000 3.617702e+000 2.000000e+000
      endloop
   endfacet
   facet normal 0.000000e+000 0.000000e+000 1.000000e+000
      outer loop
         vertex 2.250371e+000 3.617702e+000 2.000000e+000
         vertex 2.995592e+000 4.289667e+000 2.000000e+000
         vertex 2.808725e+000 4.454579e+000 2.000000e+000
      endloop
   endfacet
   facet normal 0.000000e+000 0.000000e+000 1.000000e+000
      outer loop
         vertex 2.250371e+000 3.617702e+000 2.000000e+000
         vertex 2.808725e+000 4.454579e+000 2.000000e+000
         vertex 2.097850e+000 3.737397e+000 2.000000e+000
      endloop
   endfacet
   facet normal 0.000000e+000 0.000000e+000 1.000000e+000
      outer loop
         vertex 2.097850e+000 3.737397e+000 2.000000e+000
         vertex 2.808725e+000 4.454579e+000 2.000000e+000
         vertex 2.606366e+000 4.600065e+000 2.000000e+000
      endloop
   endfacet
   facet normal 0.000000e+000 0.000000e+000 1.000000e+000
      outer loop
         vertex 2.097850e+000 3.737397e+000 2.000000e+000
         vertex 2.606366e+000 4.600065e+000 2.000000e+000
         vertex 1.931163e+000 3.836419e+000 2.000000e+000
      endloop
   endfacet
   facet normal 0.000000e+000 0.000000e+000 1.000000e+000
      outer loop
         vertex 1.931163e+000 3.836419e+000 2.000000e+000
         vertex 2.606366e+000 4.600065e+000 2.000000e+000
         vertex 2.390527e+000 4.724679e+000 2.000000e+000
      endloop
   endfacet
   facet normal 0.000000e+000 0.000000e+000 1.000000e+000
      outer loop
         vertex 1.931163e+000 3.836419e+000 2.000000e+000
         vertex 2.390527e+000 4.724679e+000 2.000000e+000
         vertex 1.753097e+000 3.913115e+000 2.000000e+000
      endloop
   endfacet
   facet normal 0.000000e+000 0.000000e+000 1.000000e+000
      outer loop
         vertex 1.753097e+000 3.913115e+000 2.000000e+000
         vertex 2.390527e+000 4.724679e+000 2.000000e+000
         vertex 2.163352e+000 4.827184e+000 2.000000e+000
      endloop
   endfacet
   facet normal 0.000000e+000 0.000000e+000 1.000000e+000
      outer loop
         vertex 1.753097e+000 3.913115e+000 2.000000e+000
         vertex 2.163352e+000 4.827184e+000 2.000000e+000
         vertex 1.927101e+000 4.906560e+000 2.000000e+000
      endloop
   endfacet
   facet normal 0.000000e+000 0.000000e+000 1.000000e+000
      outer loop
         vertex 2.217823e-001 4.778764e+000 2.000000e+000
         vertex 0.000000e+000 4.665063e+000 2.000000e+000
         vertex 4.537834e-001 4.869818e+000 2.000000e+000
      endloop
   endfacet
   facet normal 0.000000e+000 0.000000e+000 1.000000e+000
      outer loop
         vertex 4.537834e-001 4.869818e+000 2.000000e+000
         vertex 0.000000e+000 4.665063e+000 2.000000e+000
         vertex 1.845472e-001 4.547456e+000 2.000000e+000
      endloop
   endfacet
   facet normal 0.000000e+000 0.000000e+000 1.000000e+000
      outer loop
         vertex 4.537834e-001 4.869818e+000 2.000000e+000
         vertex 1.845472e-001 4.547456e+000 2.000000e+000
         vertex 6.936977e-001 4.937320e+000 2.000000e+000
      endloop
   endfacet
   facet normal 0.000000e+000 0.000000e+000 1.000000e+000
      outer loop
         vertex 6.936977e-001 4.937320e+000 2.000000e+000
         vertex 1.845472e-001 4.547456e+000 2.000000e+000
         vertex 3.581025e-001 4.414160e+000 2.000000e+000
      endloop
   endfacet
   facet normal 0.000000e+000 0.000000e+000 1.000000e+000
      outer loop
         vertex 6.936977e-001 4.937320e+000 2.000000e+000
         vertex 3.581025e-001 4.414160e+000 2.000000e+000
         vertex 5.193360e-001 4.266196e+000 2.000000e+000
      endloop
   endfacet
   facet normal 0.000000e+000 0.000000e+000 1.000000e+000
      outer loop
         vertex 1.684121e+000 3.798064e-002 2.000000e+000
         vertex 1.566626e+000 1.033798e+000 2.000000e+000
         vertex 1.436825e+000 6.990507e-003 2.000000e+000
      endloop
   endfacet
   facet normal 0.000000e+000 0.000000e+000 1.000000e+000
      outer loop
         vertex 1.436825e+000 6.990507e-003 2.000000e+000
         vertex 1.566626e+000 1.033798e+000 2.000000e+000
         vertex 1.374865e+000 1.005206e+000 2.000000e+000
      endloop
   endfacet
   facet normal 0.000000e+000 0.000000e+000 1.000000e+000
      outer loop
         vertex 1.436825e+000 6.990507e-003 2.000000e+000
         vertex 1.374865e+000 1.005206e+000 2.000000e+000
         vertex 1.187673e+000 7.770956e-004 2.000000e+000
      endloop
   endfacet
   facet normal 0.000000e+000 0.000000e+000 1.000000e+000
      outer loop
         vertex 1.187673e+000 7.770956e-004 2.000000e+000
         vertex 1.374865e+000 1.005206e+000 2.000000e+000
         vertex 1.181018e+000 1.001587e+000 2.000000e+000
      endloop
   endfacet
   facet normal 0.000000e+000 0.000000e+000 1.000000e+000
      outer loop
         vertex 1.187673e+000 7.770956e-004 2.000000e+000
         vertex 1.181018e+000 1.001587e+000 2.000000e+000
         vertex 9.391407e-001 1.940206e-002 2.000000e+000
      endloop
   endfacet
   facet normal 0.000000e+000 0.000000e+000 1.000000e+000
      outer loop
         vertex 9.391407e-001 1.940206e-002 2.000000e+000
         vertex 1.181018e+000 1.001587e+000 2.000000e+000
         vertex 9.883230e-001 1.023001e+000 2.000000e+000
      endloop
   endfacet
   facet normal 0.000000e+000 0.000000e+000 1.000000e+000
      outer loop
         vertex 9.391407e-001 1.940206e-002 2.000000e+000
         vertex 9.883230e-001 1.023001e+000 2.000000e+000
         vertex 6.936977e-001 6.268024e-002 2.000000e+000
      endloop
   endfacet
   facet normal 0.000000e+000 0.000000e+000 1.000000e+000
      outer loop
         vertex 6.936977e-001 6.268024e-002 2.000000e+000
         vertex 9.883230e-001 1.023001e+000 2.000000e+000
         vertex 8.000000e-001 1.069091e+000 2.000000e+000
      endloop
   endfacet
   facet normal 0.000000e+000 0.000000e+000 1.000000e+000
      outer loop
         vertex 6.936977e-001 6.268024e-002 2.000000e+000
         vertex 8.000000e-001 1.069091e+000 2.000000e+000
         vertex 6.670123e-001 8.952996e-001 2.000000e+000
      endloop
   endfacet
   facet normal 0.000000e+000 0.000000e+000 -1.000000e+000
      outer loop
         vertex 6.670123e-001 8.952996e-001 0.000000e+000
         vertex 8.000000e-001 1.069091e+000 0.000000e+000
         vertex 9.883230e-001 1.023001e+000 0.000000e+000
      endloop
   endfacet
   facet normal 0.000000e+000 0.000000e+000 -1.000000e+000
      outer loop
         vertex 2.250371e+000 1.382298e+000 0.000000e+000
         vertex 2.386180e+000 1.520666e+000 0.000000e+000
         vertex 3.165111e+000 8.930311e-001 0.000000e+000
      endloop
   endfacet
   facet normal 0.000000e+000 0.000000e+000 -1.000000e+000
      outer loop
         vertex 1.753097e+000 1.086885e+000 0.000000e+000
         vertex 1.927101e+000 9.343941e-002 0.000000e+000
         vertex 1.566626e+000 1.033798e+000 0.000000e+000
      endloop
   endfacet
   facet normal 0.000000e+000 0.000000e+000 -1.000000e+000
      outer loop
         vertex 1.566626e+000 1.033798e+000 0.000000e+000
         vertex 1.927101e+000 9.343941e-002 0.000000e+000
         vertex 1.684121e+000 3.798064e-002 0.000000e+000
      endloop
   endfacet
   facet normal 0.000000e+000 0.000000e+000 -1.000000e+000
      outer loop
         vertex 1.566626e+000 1.033798e+000 0.000000e+000
         vertex 1.684121e+000 3.798064e-002 0.000000e+000
         vertex 1.374865e+000 1.005206e+000 0.000000e+000
      endloop
   endfacet
   facet normal 0.000000e+000 0.000000e+000 -1.000000e+000
      outer loop
         vertex 1.374865e+000 1.005206e+000 0.000000e+000
         vertex 1.684121e+000 3.798064e-002 0.000000e+000
         vertex 1.436825e+000 6.990507e-003 0.000000e+000
      endloop
   endfacet
   facet normal 0.000000e+000 0.000000e+000 -1.000000e+000
      outer loop
         vertex 1.374865e+000 1.005206e+000 0.000000e+000
         vertex 1.436825e+000 6.990507e-003 0.000000e+000
         vertex 1.181018e+000 1.001587e+000 0.000000e+000
      endloop
   endfacet
   facet normal 0.000000e+000 0.000000e+000 -1.000000e+000
      outer loop
         vertex 3.165111e+000 8.930311e-001 0.000000e+000
         vertex 2.386180e+000 1.520666e+000 0.000000e+000
         vertex 3.315597e+000 1.091700e+000 0.000000e+000
      endloop
   endfacet
   facet normal 0.000000e+000 0.000000e+000 -1.000000e+000
      outer loop
         vertex 3.315597e+000 1.091700e+000 0.000000e+000
         vertex 2.386180e+000 1.520666e+000 0.000000e+000
         vertex 2.503008e+000 1.675396e+000 0.000000e+000
      endloop
   endfacet
   facet normal 0.000000e+000 0.000000e+000 -1.000000e+000
      outer loop
         vertex 3.315597e+000 1.091700e+000 0.000000e+000
         vertex 2.503008e+000 1.675396e+000 0.000000e+000
         vertex 3.445554e+000 1.304365e+000 0.000000e+000
      endloop
   endfacet
   facet normal 0.000000e+000 0.000000e+000 -1.000000e+000
      outer loop
         vertex 3.445554e+000 1.304365e+000 0.000000e+000
         vertex 2.503008e+000 1.675396e+000 0.000000e+000
         vertex 2.598902e+000 1.843902e+000 0.000000e+000
      endloop
   endfacet
   facet normal 0.000000e+000 0.000000e+000 -1.000000e+000
      outer loop
         vertex 3.445554e+000 1.304365e+000 0.000000e+000
         vertex 2.598902e+000 1.843902e+000 0.000000e+000
         vertex 3.553690e+000 1.528913e+000 0.000000e+000
      endloop
   endfacet
   facet normal 0.000000e+000 0.000000e+000 -1.000000e+000
      outer loop
         vertex 3.553690e+000 1.528913e+000 0.000000e+000
         vertex 2.598902e+000 1.843902e+000 0.000000e+000
         vertex 2.672260e+000 2.023369e+000 0.000000e+000
      endloop
   endfacet
   facet normal 0.000000e+000 0.000000e+000 -1.000000e+000
      outer loop
         vertex 3.553690e+000 1.528913e+000 0.000000e+000
         vertex 2.672260e+000 2.023369e+000 0.000000e+000
         vertex 3.638932e+000 1.763112e+000 0.000000e+000
      endloop
   endfacet
   facet normal 0.000000e+000 0.000000e+000 -1.000000e+000
      outer loop
         vertex 3.638932e+000 1.763112e+000 0.000000e+000
         vertex 2.672260e+000 2.023369e+000 0.000000e+000
         vertex 3.700431e+000 2.004635e+000 0.000000e+000
      endloop
   endfacet
   facet normal 0.000000e+000 0.000000e+000 -1.000000e+000
      outer loop
         vertex 3.700431e+000 2.004635e+000 0.000000e+000
         vertex 2.672260e+000 2.023369e+000 0.000000e+000
         vertex 2.721857e+000 2.210798e+000 0.000000e+000
      endloop
   endfacet
   facet normal 0.000000e+000 0.000000e+000 -1.000000e+000
      outer loop
         vertex 3.700431e+000 2.004635e+000 0.000000e+000
         vertex 2.721857e+000 2.210798e+000 0.000000e+000
         vertex 3.737577e+000 2.251081e+000 0.000000e+000
      endloop
   endfacet
   facet normal 0.000000e+000 0.000000e+000 -1.000000e+000
      outer loop
         vertex 3.737577e+000 2.251081e+000 0.000000e+000
         vertex 2.721857e+000 2.210798e+000 0.000000e+000
         vertex 2.746864e+000 2.403059e+000 0.000000e+000
      endloop
   endfacet
   facet normal 0.000000e+000 0.000000e+000 -1.000000e+000
      outer loop
         vertex 3.737577e+000 2.251081e+000 0.000000e+000
         vertex 2.746864e+000 2.403059e+000 0.000000e+000
         vertex 3.750000e+000 2.500000e+000 0.000000e+000
      endloop
   endfacet
   facet normal 0.000000e+000 0.000000e+000 -1.000000e+000
      outer loop
         vertex 3.750000e+000 2.500000e+000 0.000000e+000
         vertex 2.746864e+000 2.403059e+000 0.000000e+000
         vertex 2.746864e+000 2.596941e+000 0.000000e+000
      endloop
   endfacet
   facet normal 0.000000e+000 0.000000e+000 -1.000000e+000
      outer loop
         vertex 3.750000e+000 2.500000e+000 0.000000e+000
         vertex 2.746864e+000 2.596941e+000 0.000000e+000
         vertex 3.737577e+000 2.748920e+000 0.000000e+000
      endloop
   endfacet
   facet normal 0.000000e+000 0.000000e+000 -1.000000e+000
      outer loop
         vertex 3.737577e+000 2.748920e+000 0.000000e+000
         vertex 2.746864e+000 2.596941e+000 0.000000e+000
         vertex 3.700431e+000 2.995365e+000 0.000000e+000
      endloop
   endfacet
   facet normal 0.000000e+000 0.000000e+000 -1.000000e+000
      outer loop
         vertex 3.700431e+000 2.995365e+000 0.000000e+000
         vertex 2.746864e+000 2.596941e+000 0.000000e+000
         vertex 2.721857e+000 2.789202e+000 0.000000e+000
      endloop
   endfacet
   facet normal 0.000000e+000 0.000000e+000 -1.000000e+000
      outer loop
         vertex 3.700431e+000 2.995365e+000 0.000000e+000
         vertex 2.721857e+000 2.789202e+000 0.000000e+000
         vertex 3.638932e+000 3.236888e+000 0.000000e+000
      endloop
   endfacet
   facet normal 0.000000e+000 0.000000e+000 -1.000000e+000
      outer loop
         vertex 3.638932e+000 3.236888e+000 0.000000e+000
         vertex 2.721857e+000 2.789202e+000 0.000000e+000
         vertex 2.672260e+000 2.976632e+000 0.000000e+000
      endloop
   endfacet
   facet normal 0.000000e+000 0.000000e+000 -1.000000e+000
      outer loop
         vertex 3.638932e+000 3.236888e+000 0.000000e+000
         vertex 2.672260e+000 2.976632e+000 0.000000e+000
         vertex 3.553690e+000 3.471087e+000 0.000000e+000
      endloop
   endfacet
   facet normal 0.000000e+000 0.000000e+000 -1.000000e+000
      outer loop
         vertex 3.553690e+000 3.471087e+000 0.000000e+000
         vertex 2.672260e+000 2.976632e+000 0.000000e+000
         vertex 2.598902e+000 3.156098e+000 0.000000e+000
      endloop
   endfacet
   facet normal 0.000000e+000 0.000000e+000 -1.000000e+000
      outer loop
         vertex 3.553690e+000 3.471087e+000 0.000000e+000
         vertex 2.598902e+000 3.156098e+000 0.000000e+000
         vertex 3.445554e+000 3.695635e+000 0.000000e+000
      endloop
   endfacet
   facet normal 0.000000e+000 0.000000e+000 -1.000000e+000
      outer loop
         vertex 2.217823e-001 2.212355e-001 0.000000e+000
         vertex 0.000000e+000 3.349366e-001 0.000000e+000
         vertex 4.537834e-001 1.301818e-001 0.000000e+000
      endloop
   endfacet
   facet normal 0.000000e+000 0.000000e+000 -1.000000e+000
      outer loop
         vertex 4.537834e-001 1.301818e-001 0.000000e+000
         vertex 0.000000e+000 3.349366e-001 0.000000e+000
         vertex 1.845472e-001 4.525444e-001 0.000000e+000
      endloop
   endfacet
   facet normal 0.000000e+000 0.000000e+000 -1.000000e+000
      outer loop
         vertex 4.537834e-001 1.301818e-001 0.000000e+000
         vertex 1.845472e-001 4.525444e-001 0.000000e+000
         vertex 6.936977e-001 6.268024e-002 0.000000e+000
      endloop
   endfacet
   facet normal 0.000000e+000 0.000000e+000 -1.000000e+000
      outer loop
         vertex 6.936977e-001 6.268024e-002 0.000000e+000
         vertex 1.845472e-001 4.525444e-001 0.000000e+000
         vertex 3.581025e-001 5.858405e-001 0.000000e+000
      endloop
   endfacet
   facet normal 0.000000e+000 0.000000e+000 -1.000000e+000
      outer loop
         vertex 6.936977e-001 6.268024e-002 0.000000e+000
         vertex 3.581025e-001 5.858405e-001 0.000000e+000
         vertex 5.193360e-001 7.338034e-001 0.000000e+000
      endloop
   endfacet
   facet normal 0.000000e+000 0.000000e+000 -1.000000e+000
      outer loop
         vertex 3.445554e+000 3.695635e+000 0.000000e+000
         vertex 2.598902e+000 3.156098e+000 0.000000e+000
         vertex 3.315597e+000 3.908300e+000 0.000000e+000
      endloop
   endfacet
   facet normal 0.000000e+000 0.000000e+000 -1.000000e+000
      outer loop
         vertex 3.315597e+000 3.908300e+000 0.000000e+000
         vertex 2.598902e+000 3.156098e+000 0.000000e+000
         vertex 2.503008e+000 3.324604e+000 0.000000e+000
      endloop
   endfacet
   facet normal 0.000000e+000 0.000000e+000 -1.000000e+000
      outer loop
         vertex 3.315597e+000 3.908300e+000 0.000000e+000
         vertex 2.503008e+000 3.324604e+000 0.000000e+000
         vertex 3.165111e+000 4.106969e+000 0.000000e+000
      endloop
   endfacet
   facet normal 0.000000e+000 0.000000e+000 -1.000000e+000
      outer loop
         vertex 3.165111e+000 4.106969e+000 0.000000e+000
         vertex 2.503008e+000 3.324604e+000 0.000000e+000
         vertex 2.386180e+000 3.479334e+000 0.000000e+000
      endloop
   endfacet
   facet normal 0.000000e+000 0.000000e+000 -1.000000e+000
      outer loop
         vertex 3.165111e+000 4.106969e+000 0.000000e+000
         vertex 2.386180e+000 3.479334e+000 0.000000e+000
         vertex 2.995592e+000 4.289667e+000 0.000000e+000
      endloop
   endfacet
   facet normal 0.000000e+000 0.000000e+000 -1.000000e+000
      outer loop
         vertex 2.995592e+000 4.289667e+000 0.000000e+000
         vertex 2.386180e+000 3.479334e+000 0.000000e+000
         vertex 2.250371e+000 3.617702e+000 0.000000e+000
      endloop
   endfacet
   facet normal 0.000000e+000 0.000000e+000 -1.000000e+000
      outer loop
         vertex 2.995592e+000 4.289667e+000 0.000000e+000
         vertex 2.250371e+000 3.617702e+000 0.000000e+000
         vertex 2.808725e+000 4.454579e+000 0.000000e+000
      endloop
   endfacet
   facet normal 0.000000e+000 0.000000e+000 -1.000000e+000
      outer loop
         vertex 2.808725e+000 4.454579e+000 0.000000e+000
         vertex 2.250371e+000 3.617702e+000 0.000000e+000
         vertex 2.097850e+000 3.737397e+000 0.000000e+000
      endloop
   endfacet
   facet normal 0.000000e+000 0.000000e+000 -1.000000e+000
      outer loop
         vertex 2.808725e+000 4.454579e+000 0.000000e+000
         vertex 2.097850e+000 3.737397e+000 0.000000e+000
         vertex 2.606366e+000 4.600065e+000 0.000000e+000
      endloop
   endfacet
   facet normal 0.000000e+000 0.000000e+000 -1.000000e+000
      outer loop
         vertex 5.193360e-001 7.338034e-001 0.000000e+000
         vertex 6.670123e-001 8.952996e-001 0.000000e+000
         vertex 6.936977e-001 6.268024e-002 0.000000e+000
      endloop
   endfacet
   facet normal 0.000000e+000 0.000000e+000 -1.000000e+000
      outer loop
         vertex 6.936977e-001 6.268024e-002 0.000000e+000
         vertex 6.670123e-001 8.952996e-001 0.000000e+000
         vertex 9.883230e-001 1.023001e+000 0.000000e+000
      endloop
   endfacet
   facet normal 0.000000e+000 0.000000e+000 -1.000000e+000
      outer loop
         vertex 6.936977e-001 6.268024e-002 0.000000e+000
         vertex 9.883230e-001 1.023001e+000 0.000000e+000
         vertex 9.391407e-001 1.940206e-002 0.000000e+000
      endloop
   endfacet
   facet normal 0.000000e+000 0.000000e+000 -1.000000e+000
      outer loop
         vertex 9.391407e-001 1.940206e-002 0.000000e+000
         vertex 9.883230e-001 1.023001e+000 0.000000e+000
         vertex 1.181018e+000 1.001587e+000 0.000000e+000
      endloop
   endfacet
   facet normal 0.000000e+000 0.000000e+000 -1.000000e+000
      outer loop
         vertex 9.391407e-001 1.940206e-002 0.000000e+000
         vertex 1.181018e+000 1.001587e+000 0.000000e+000
         vertex 1.187673e+000 7.770956e-004 0.000000e+000
      endloop
   endfacet
   facet normal 0.000000e+000 0.000000e+000 -1.000000e+000
      outer loop
         vertex 1.187673e+000 7.770956e-004 0.000000e+000
         vertex 1.181018e+000 1.001587e+000 0.000000e+000
         vertex 1.436825e+000 6.990507e-003 0.000000e+000
      endloop
   endfacet
   facet normal 0.000000e+000 0.000000e+000 -1.000000e+000
      outer loop
         vertex 3.165111e+000 8.930311e-001 0.000000e+000
         vertex 2.995592e+000 7.103329e-001 0.000000e+000
         vertex 2.250371e+000 1.382298e+000 0.000000e+000
      endloop
   endfacet
   facet normal 0.000000e+000 0.000000e+000 -1.000000e+000
      outer loop
         vertex 2.250371e+000 1.382298e+000 0.000000e+000
         vertex 2.995592e+000 7.103329e-001 0.000000e+000
         vertex 2.808725e+000 5.454212e-001 0.000000e+000
      endloop
   endfacet
   facet normal 0.000000e+000 0.000000e+000 -1.000000e+000
      outer loop
         vertex 2.250371e+000 1.382298e+000 0.000000e+000
         vertex 2.808725e+000 5.454212e-001 0.000000e+000
         vertex 2.097850e+000 1.262603e+000 0.000000e+000
      endloop
   endfacet
   facet normal 0.000000e+000 0.000000e+000 -1.000000e+000
      outer loop
         vertex 2.097850e+000 1.262603e+000 0.000000e+000
         vertex 2.808725e+000 5.454212e-001 0.000000e+000
         vertex 2.606366e+000 3.999352e-001 0.000000e+000
      endloop
   endfacet
   facet normal 0.000000e+000 0.000000e+000 -1.000000e+000
      outer loop
         vertex 2.097850e+000 1.262603e+000 0.000000e+000
         vertex 2.606366e+000 3.999352e-001 0.000000e+000
         vertex 1.931163e+000 1.163581e+000 0.000000e+000
      endloop
   endfacet
   facet normal 0.000000e+000 0.000000e+000 -1.000000e+000
      outer loop
         vertex 1.931163e+000 1.163581e+000 0.000000e+000
         vertex 2.606366e+000 3.999352e-001 0.000000e+000
         vertex 2.390527e+000 2.753206e-001 0.000000e+000
      endloop
   endfacet
   facet normal 0.000000e+000 0.000000e+000 -1.000000e+000
      outer loop
         vertex 1.931163e+000 1.163581e+000 0.000000e+000
         vertex 2.390527e+000 2.753206e-001 0.000000e+000
         vertex 1.753097e+000 1.086885e+000 0.000000e+000
      endloop
   endfacet
   facet normal 0.000000e+000 0.000000e+000 -1.000000e+000
      outer loop
         vertex 1.753097e+000 1.086885e+000 0.000000e+000
         vertex 2.390527e+000 2.753206e-001 0.000000e+000
         vertex 2.163352e+000 1.728157e-001 0.000000e+000
      endloop
   endfacet
   facet normal 0.000000e+000 0.000000e+000 -1.000000e+000
      outer loop
         vertex 1.753097e+000 1.086885e+000 0.000000e+000
         vertex 2.163352e+000 1.728157e-001 0.000000e+000
         vertex 1.927101e+000 9.343941e-002 0.000000e+000
      endloop
   endfacet
   facet normal 0.000000e+000 0.000000e+000 -1.000000e+000
      outer loop
         vertex 2.606366e+000 4.600065e+000 0.000000e+000
         vertex 2.097850e+000 3.737397e+000 0.000000e+000
         vertex 2.390527e+000 4.724679e+000 0.000000e+000
      endloop
   endfacet
   facet normal 0.000000e+000 0.000000e+000 -1.000000e+000
      outer loop
         vertex 2.390527e+000 4.724679e+000 0.000000e+000
         vertex 2.097850e+000 3.737397e+000 0.000000e+000
         vertex 1.931163e+000 3.836419e+000 0.000000e+000
      endloop
   endfacet
   facet normal 0.000000e+000 0.000000e+000 -1.000000e+000
      outer loop
         vertex 2.390527e+000 4.724679e+000 0.000000e+000
         vertex 1.931163e+000 3.836419e+000 0.000000e+000
         vertex 2.163352e+000 4.827184e+000 0.000000e+000
      endloop
   endfacet
   facet normal 0.000000e+000 0.000000e+000 -1.000000e+000
      outer loop
         vertex 2.163352e+000 4.827184e+000 0.000000e+000
         vertex 1.931163e+000 3.836419e+000 0.000000e+000
         vertex 1.753097e+000 3.913115e+000 0.000000e+000
      endloop
   endfacet
   facet normal 0.000000e+000 0.000000e+000 -1.000000e+000
      outer loop
         vertex 2.163352e+000 4.827184e+000 0.000000e+000
         vertex 1.753097e+000 3.913115e+000 0.000000e+000
         vertex 1.927101e+000 4.906560e+000 0.000000e+000
      endloop
   endfacet
   facet normal 0.000000e+000 0.000000e+000 -1.000000e+000
      outer loop
         vertex 1.927101e+000 4.906560e+000 0.000000e+000
         vertex 1.753097e+000 3.913115e+000 0.000000e+000
         vertex 1.566626e+000 3.966202e+000 0.000000e+000
      endloop
   endfacet
   facet normal 0.000000e+000 0.000000e+000 -1.000000e+000
      outer loop
         vertex 1.927101e+000 4.906560e+000 0.000000e+000
         vertex 1.566626e+000 3.966202e+000 0.000000e+000
         vertex 1.684121e+000 4.962019e+000 0.000000e+000
      endloop
   endfacet
   facet normal 0.000000e+000 0.000000e+000 -1.000000e+000
      outer loop
         vertex 1.684121e+000 4.962019e+000 0.000000e+000
         vertex 1.566626e+000 3.966202e+000 0.000000e+000
         vertex 1.436825e+000 4.993010e+000 0.000000e+000
      endloop
   endfacet
   facet normal 0.000000e+000 0.000000e+000 -1.000000e+000
      outer loop
         vertex 1.436825e+000 4.993010e+000 0.000000e+000
         vertex 1.566626e+000 3.966202e+000 0.000000e+000
         vertex 1.374865e+000 3.994794e+000 0.000000e+000
      endloop
   endfacet
   facet normal 0.000000e+000 0.000000e+000 -1.000000e+000
      outer loop
         vertex 1.436825e+000 4.993010e+000 0.000000e+000
         vertex 1.374865e+000 3.994794e+000 0.000000e+000
         vertex 1.187673e+000 4.999223e+000 0.000000e+000
      endloop
   endfacet
   facet normal 0.000000e+000 0.000000e+000 -1.000000e+000
      outer loop
         vertex 1.187673e+000 4.999223e+000 0.000000e+000
         vertex 1.374865e+000 3.994794e+000 0.000000e+000
         vertex 1.181018e+000 3.998413e+000 0.000000e+000
      endloop
   endfacet
   facet normal 0.000000e+000 0.000000e+000 -1.000000e+000
      outer loop
         vertex 1.187673e+000 4.999223e+000 0.000000e+000
         vertex 1.181018e+000 3.998413e+000 0.000000e+000
         vertex 9.391407e-001 4.980598e+000 0.000000e+000
      endloop
   endfacet
   facet normal 0.000000e+000 0.000000e+000 -1.000000e+000
      outer loop
         vertex 9.391407e-001 4.980598e+000 0.000000e+000
         vertex 1.181018e+000 3.998413e+000 0.000000e+000
         vertex 9.883230e-001 3.976999e+000 0.000000e+000
      endloop
   endfacet
   facet normal 0.000000e+000 0.000000e+000 -1.000000e+000
      outer loop
         vertex 9.391407e-001 4.980598e+000 0.000000e+000
         vertex 9.883230e-001 3.976999e+000 0.000000e+000
         vertex 6.936977e-001 4.937320e+000 0.000000e+000
      endloop
   endfacet
   facet normal 0.000000e+000 0.000000e+000 -1.000000e+000
      outer loop
         vertex 6.936977e-001 4.937320e+000 0.000000e+000
         vertex 9.883230e-001 3.976999e+000 0.000000e+000
         vertex 8.000000e-001 3.930909e+000 0.000000e+000
      endloop
   endfacet
   facet normal 0.000000e+000 0.000000e+000 -1.000000e+000
      outer loop
         vertex 6.936977e-001 4.937320e+000 0.000000e+000
         vertex 8.000000e-001 3.930909e+000 0.000000e+000
         vertex 6.670123e-001 4.104701e+000 0.000000e+000
      endloop
   endfacet
   facet normal 0.000000e+000 0.000000e+000 -1.000000e+000
      outer loop
         vertex 0.000000e+000 4.665063e+000 0.000000e+000
         vertex 2.217823e-001 4.778764e+000 0.000000e+000
         vertex 1.845472e-001 4.547456e+000 0.000000e+000
      endloop
   endfacet
   facet normal 0.000000e+000 0.000000e+000 -1.000000e+000
      outer loop
         vertex 1.845472e-001 4.547456e+000 0.000000e+000
         vertex 2.217823e-001 4.778764e+000 0.000000e+000
         vertex 4.537834e-001 4.869818e+000 0.000000e+000
      endloop
   endfacet
   facet normal 0.000000e+000 0.000000e+000 -1.000000e+000
      outer loop
         vertex 1.845472e-001 4.547456e+000 0.000000e+000
         vertex 4.537834e-001 4.869818e+000 0.000000e+000
         vertex 3.581025e-001 4.414160e+000 0.000000e+000
      endloop
   endfacet
   facet normal 0.000000e+000 0.000000e+000 -1.000000e+000
      outer loop
         vertex 3.581025e-001 4.414160e+000 0.000000e+000
         vertex 4.537834e-001 4.869818e+000 0.000000e+000
         vertex 6.936977e-001 4.937320e+000 0.000000e+000
      endloop
   endfacet
   facet normal 0.000000e+000 0.000000e+000 -1.000000e+000
      outer loop
         vertex 3.581025e-001 4.414160e+000 0.000000e+000
         vertex 6.936977e-001 4.937320e+000 0.000000e+000
         vertex 5.193360e-001 4.266196e+000 0.000000e+000
      endloop
   endfacet
   facet normal 0.000000e+000 0.000000e+000 -1.000000e+000
      outer loop
         vertex 5.193360e-001 4.266196e+000 0.000000e+000
         vertex 6.936977e-001 4.937320e+000 0.000000e+000
         vertex 6.670123e-001 4.104701e+000 0.000000e+000
      endloop
   endfacet
endsolid