solid fSupport
   facet normal -1.000000e+000 0.000000e+000 0.000000e+000
      outer loop
         vertex -4.000000e+000 -1.800000e+001 6.000000e+000
         vertex -4.000000e+000 1.800000e+001 6.000000e+000
         vertex -4.000000e+000 -1.800000e+001 0.000000e+000
      endloop
   endfacet
   facet normal -1.000000e+000 0.000000e+000 0.000000e+000
      outer loop
         vertex -4.000000e+000 -1.800000e+001 0.000000e+000
         vertex -4.000000e+000 1.800000e+001 6.000000e+000
         vertex -4.000000e+000 1.800000e+001 0.000000e+000
      endloop
   endfacet
   facet normal 0.000000e+000 -1.000000e+000 0.000000e+000
      outer loop
         vertex 4.000000e+000 -1.800000e+001 6.000000e+000
         vertex -4.000000e+000 -1.800000e+001 6.000000e+000
         vertex 4.000000e+000 -1.800000e+001 0.000000e+000
      endloop
   endfacet
   facet normal 0.000000e+000 -1.000000e+000 0.000000e+000
      outer loop
         vertex 4.000000e+000 -1.800000e+001 0.000000e+000
         vertex -4.000000e+000 -1.800000e+001 6.000000e+000
         vertex -4.000000e+000 -1.800000e+001 0.000000e+000
      endloop
   endfacet
   facet normal 1.000000e+000 0.000000e+000 0.000000e+000
      outer loop
         vertex 4.000000e+000 1.800000e+001 6.000000e+000
         vertex 4.000000e+000 -1.800000e+001 6.000000e+000
         vertex 4.000000e+000 1.800000e+001 0.000000e+000
      endloop
   endfacet
   facet normal 1.000000e+000 0.000000e+000 0.000000e+000
      outer loop
         vertex 4.000000e+000 1.800000e+001 0.000000e+000
         vertex 4.000000e+000 -1.800000e+001 6.000000e+000
         vertex 4.000000e+000 -1.800000e+001 0.000000e+000
      endloop
   endfacet
   facet normal 0.000000e+000 1.000000e+000 0.000000e+000
      outer loop
         vertex -4.000000e+000 1.800000e+001 6.000000e+000
         vertex 4.000000e+000 1.800000e+001 6.000000e+000
         vertex -4.000000e+000 1.800000e+001 0.000000e+000
      endloop
   endfacet
   facet normal 0.000000e+000 1.000000e+000 0.000000e+000
      outer loop
         vertex -4.000000e+000 1.800000e+001 0.000000e+000
         vertex 4.000000e+000 1.800000e+001 6.000000e+000
         vertex 4.000000e+000 1.800000e+001 0.000000e+000
      endloop
   endfacet
   facet normal 0.000000e+000 0.000000e+000 1.000000e+000
      outer loop
         vertex 4.000000e+000 -1.800000e+001 6.000000e+000
         vertex 4.000000e+000 1.800000e+001 6.000000e+000
         vertex -4.000000e+000 -1.800000e+001 6.000000e+000
      endloop
   endfacet
   facet normal 0.000000e+000 0.000000e+000 1.000000e+000
      outer loop
         vertex -4.000000e+000 -1.800000e+001 6.000000e+000
         vertex 4.000000e+000 1.800000e+001 6.000000e+000
         vertex -4.000000e+000 1.800000e+001 6.000000e+000
      endloop
   endfacet
   facet normal 0.000000e+000 0.000000e+000 -1.000000e+000
      outer loop
         vertex 4.000000e+000 1.800000e+001 0.000000e+000
         vertex 4.000000e+000 -1.800000e+001 0.000000e+000
         vertex -4.000000e+000 1.800000e+001 0.000000e+000
      endloop
   endfacet
   facet normal 0.000000e+000 0.000000e+000 -1.000000e+000
      outer loop
         vertex -4.000000e+000 1.800000e+001 0.000000e+000
         vertex 4.000000e+000 -1.800000e+001 0.000000e+000
         vertex -4.000000e+000 -1.800000e+001 0.000000e+000
      endloop
   endfacet
endsolid