solid tcExtension
   facet normal 0.000000e+000 0.000000e+000 -1.000000e+000
      outer loop
         vertex 1.600000e+001 -6.000000e+000 -6.938894e-016
         vertex -1.600000e+001 -6.000000e+000 -6.938894e-016
         vertex 1.600000e+001 6.000000e+000 -6.938894e-016
      endloop
   endfacet
   facet normal 0.000000e+000 0.000000e+000 -1.000000e+000
      outer loop
         vertex 1.600000e+001 6.000000e+000 -6.938894e-016
         vertex -1.600000e+001 -6.000000e+000 -6.938894e-016
         vertex -1.600000e+001 6.000000e+000 -6.938894e-016
      endloop
   endfacet
   facet normal 0.000000e+000 -1.000000e+000 2.312964e-016
      outer loop
         vertex 1.600000e+001 -6.000000e+000 6.000000e+000
         vertex -1.600000e+001 -6.000000e+000 6.000000e+000
         vertex 1.600000e+001 -6.000000e+000 -6.938894e-016
      endloop
   endfacet
   facet normal 0.000000e+000 -1.000000e+000 2.312964e-016
      outer loop
         vertex 1.600000e+001 -6.000000e+000 -6.938894e-016
         vertex -1.600000e+001 -6.000000e+000 6.000000e+000
         vertex -1.600000e+001 -6.000000e+000 -6.938894e-016
      endloop
   endfacet
   facet normal 0.000000e+000 0.000000e+000 1.000000e+000
      outer loop
         vertex 1.600000e+001 6.000000e+000 6.000000e+000
         vertex -1.600000e+001 6.000000e+000 6.000000e+000
         vertex 1.600000e+001 -6.000000e+000 6.000000e+000
      endloop
   endfacet
   facet normal 0.000000e+000 0.000000e+000 1.000000e+000
      outer loop
         vertex 1.600000e+001 -6.000000e+000 6.000000e+000
         vertex -1.600000e+001 6.000000e+000 6.000000e+000
         vertex -1.600000e+001 -6.000000e+000 6.000000e+000
      endloop
   endfacet
   facet normal 0.000000e+000 1.000000e+000 2.312964e-016
      outer loop
         vertex 1.600000e+001 6.000000e+000 -6.938894e-016
         vertex -1.600000e+001 6.000000e+000 -6.938894e-016
         vertex 1.600000e+001 6.000000e+000 6.000000e+000
      endloop
   endfacet
   facet normal 0.000000e+000 1.000000e+000 2.312964e-016
      outer loop
         vertex 1.600000e+001 6.000000e+000 6.000000e+000
         vertex -1.600000e+001 6.000000e+000 -6.938894e-016
         vertex -1.600000e+001 6.000000e+000 6.000000e+000
      endloop
   endfacet
   facet normal -1.000000e+000 0.000000e+000 0.000000e+000
      outer loop
         vertex -1.600000e+001 -6.000000e+000 6.000000e+000
         vertex -1.600000e+001 6.000000e+000 6.000000e+000
         vertex -1.600000e+001 -6.000000e+000 -6.938894e-016
      endloop
   endfacet
   facet normal -1.000000e+000 0.000000e+000 0.000000e+000
      outer loop
         vertex -1.600000e+001 -6.000000e+000 -6.938894e-016
         vertex -1.600000e+001 6.000000e+000 6.000000e+000
         vertex -1.600000e+001 6.000000e+000 -6.938894e-016
      endloop
   endfacet
   facet normal 1.000000e+000 0.000000e+000 0.000000e+000
      outer loop
         vertex 1.600000e+001 6.000000e+000 6.000000e+000
         vertex 1.600000e+001 -6.000000e+000 6.000000e+000
         vertex 1.600000e+001 6.000000e+000 -6.938894e-016
      endloop
   endfacet
   facet normal 1.000000e+000 0.000000e+000 0.000000e+000
      outer loop
         vertex 1.600000e+001 6.000000e+000 -6.938894e-016
         vertex 1.600000e+001 -6.000000e+000 6.000000e+000
         vertex 1.600000e+001 -6.000000e+000 -6.938894e-016
      endloop
   endfacet
endsolid