solid tcAdjacent
   facet normal 0.000000e+000 1.000000e+000 0.000000e+000
      outer loop
         vertex 1.500000e+000 6.000000e+000 0.000000e+000
         vertex -1.500000e+000 6.000000e+000 0.000000e+000
         vertex 1.500000e+000 6.000000e+000 6.000000e+000
      endloop
   endfacet
   facet normal 0.000000e+000 1.000000e+000 0.000000e+000
      outer loop
         vertex 1.500000e+000 6.000000e+000 6.000000e+000
         vertex -1.500000e+000 6.000000e+000 0.000000e+000
         vertex -1.500000e+000 6.000000e+000 6.000000e+000
      endloop
   endfacet
   facet normal 0.000000e+000 -8.000000e-001 -6.000000e-001
      outer loop
         vertex 1.500000e+000 3.000000e+000 4.000000e+000
         vertex -1.500000e+000 3.000000e+000 4.000000e+000
         vertex 1.500000e+000 6.000000e+000 -2.817188e-017
      endloop
   endfacet
   facet normal 0.000000e+000 -8.000000e-001 -6.000000e-001
      outer loop
         vertex 1.500000e+000 6.000000e+000 -2.817188e-017
         vertex -1.500000e+000 3.000000e+000 4.000000e+000
         vertex -1.500000e+000 6.000000e+000 -2.817188e-017
      endloop
   endfacet
   facet normal 0.000000e+000 -4.625929e-016 -1.000000e+000
      outer loop
         vertex 1.500000e+000 -3.000000e+000 4.000000e+000
         vertex -1.500000e+000 -3.000000e+000 4.000000e+000
         vertex 1.500000e+000 3.000000e+000 4.000000e+000
      endloop
   endfacet
   facet normal 0.000000e+000 -4.625929e-016 -1.000000e+000
      outer loop
         vertex 1.500000e+000 3.000000e+000 4.000000e+000
         vertex -1.500000e+000 -3.000000e+000 4.000000e+000
         vertex -1.500000e+000 3.000000e+000 4.000000e+000
      endloop
   endfacet
   facet normal 0.000000e+000 8.000000e-001 -6.000000e-001
      outer loop
         vertex 1.500000e+000 -6.000000e+000 5.522943e-015
         vertex -1.500000e+000 -6.000000e+000 5.522943e-015
         vertex 1.500000e+000 -3.000000e+000 4.000000e+000
      endloop
   endfacet
   facet normal 0.000000e+000 8.000000e-001 -6.000000e-001
      outer loop
         vertex 1.500000e+000 -3.000000e+000 4.000000e+000
         vertex -1.500000e+000 -6.000000e+000 5.522943e-015
         vertex -1.500000e+000 -3.000000e+000 4.000000e+000
      endloop
   endfacet
   facet normal 0.000000e+000 -1.000000e+000 0.000000e+000
      outer loop
         vertex 1.500000e+000 -6.000000e+000 6.000000e+000
         vertex -1.500000e+000 -6.000000e+000 6.000000e+000
         vertex 1.500000e+000 -6.000000e+000 5.551115e-015
      endloop
   endfacet
   facet normal 0.000000e+000 -1.000000e+000 0.000000e+000
      outer loop
         vertex 1.500000e+000 -6.000000e+000 5.551115e-015
         vertex -1.500000e+000 -6.000000e+000 6.000000e+000
         vertex -1.500000e+000 -6.000000e+000 5.551115e-015
      endloop
   endfacet
   facet normal 0.000000e+000 2.312965e-016 1.000000e+000
      outer loop
         vertex 1.500000e+000 6.000000e+000 6.000000e+000
         vertex -1.500000e+000 6.000000e+000 6.000000e+000
         vertex 1.500000e+000 -6.000000e+000 6.000000e+000
      endloop
   endfacet
   facet normal 0.000000e+000 2.312965e-016 1.000000e+000
      outer loop
         vertex 1.500000e+000 -6.000000e+000 6.000000e+000
         vertex -1.500000e+000 6.000000e+000 6.000000e+000
         vertex -1.500000e+000 -6.000000e+000 6.000000e+000
      endloop
   endfacet
   facet normal -1.000000e+000 0.000000e+000 0.000000e+000
      outer loop
         vertex -1.500000e+000 -3.000000e+000 4.000000e+000
         vertex -1.500000e+000 -6.000000e+000 5.551115e-015
         vertex -1.500000e+000 -6.000000e+000 6.000000e+000
      endloop
   endfacet
   facet normal -1.000000e+000 0.000000e+000 0.000000e+000
      outer loop
         vertex -1.500000e+000 -3.000000e+000 4.000000e+000
         vertex -1.500000e+000 -6.000000e+000 6.000000e+000
         vertex -1.500000e+000 3.000000e+000 4.000000e+000
      endloop
   endfacet
   facet normal -1.000000e+000 0.000000e+000 0.000000e+000
      outer loop
         vertex -1.500000e+000 3.000000e+000 4.000000e+000
         vertex -1.500000e+000 -6.000000e+000 6.000000e+000
         vertex -1.500000e+000 6.000000e+000 6.000000e+000
      endloop
   endfacet
   facet normal -1.000000e+000 0.000000e+000 0.000000e+000
      outer loop
         vertex -1.500000e+000 3.000000e+000 4.000000e+000
         vertex -1.500000e+000 6.000000e+000 6.000000e+000
         vertex -1.500000e+000 6.000000e+000 0.000000e+000
      endloop
   endfacet
   facet normal 1.000000e+000 0.000000e+000 0.000000e+000
      outer loop
         vertex 1.500000e+000 -6.000000e+000 6.000000e+000
         vertex 1.500000e+000 -6.000000e+000 5.551115e-015
         vertex 1.500000e+000 -3.000000e+000 4.000000e+000
      endloop
   endfacet
   facet normal 1.000000e+000 0.000000e+000 0.000000e+000
      outer loop
         vertex 1.500000e+000 -6.000000e+000 6.000000e+000
         vertex 1.500000e+000 -3.000000e+000 4.000000e+000
         vertex 1.500000e+000 6.000000e+000 6.000000e+000
      endloop
   endfacet
   facet normal 1.000000e+000 0.000000e+000 0.000000e+000
      outer loop
         vertex 1.500000e+000 6.000000e+000 6.000000e+000
         vertex 1.500000e+000 -3.000000e+000 4.000000e+000
         vertex 1.500000e+000 3.000000e+000 4.000000e+000
      endloop
   endfacet
   facet normal 1.000000e+000 0.000000e+000 0.000000e+000
      outer loop
         vertex 1.500000e+000 6.000000e+000 6.000000e+000
         vertex 1.500000e+000 3.000000e+000 4.000000e+000
         vertex 1.500000e+000 6.000000e+000 0.000000e+000
      endloop
   endfacet
endsolid