solid tcRight
   facet normal 0.000000e+000 8.000000e-001 -6.000000e-001
      outer loop
         vertex 4.000000e+000 -3.000000e+000 4.000000e+000
         vertex 7.000000e+000 -6.000000e+000 1.082051e-015
         vertex 4.000000e+000 -6.000000e+000 5.540973e-015
      endloop
   endfacet
   facet normal 0.000000e+000 -1.000000e+000 0.000000e+000
      outer loop
         vertex 7.000000e+000 -6.000000e+000 -1.387779e-015
         vertex 7.000000e+000 -6.000000e+000 6.000000e+000
         vertex 4.000000e+000 -6.000000e+000 5.551115e-015
      endloop
   endfacet
   facet normal 0.000000e+000 -1.000000e+000 0.000000e+000
      outer loop
         vertex 4.000000e+000 -6.000000e+000 5.551115e-015
         vertex 7.000000e+000 -6.000000e+000 6.000000e+000
         vertex 4.000000e+000 -6.000000e+000 6.000000e+000
      endloop
   endfacet
   facet normal 0.000000e+000 2.312965e-016 1.000000e+000
      outer loop
         vertex 7.000000e+000 -6.000000e+000 6.000000e+000
         vertex 7.000000e+000 6.000000e+000 6.000000e+000
         vertex 4.000000e+000 -6.000000e+000 6.000000e+000
      endloop
   endfacet
   facet normal 0.000000e+000 2.312965e-016 1.000000e+000
      outer loop
         vertex 4.000000e+000 -6.000000e+000 6.000000e+000
         vertex 7.000000e+000 6.000000e+000 6.000000e+000
         vertex 4.000000e+000 6.000000e+000 6.000000e+000
      endloop
   endfacet
   facet normal 0.000000e+000 1.000000e+000 0.000000e+000
      outer loop
         vertex 7.000000e+000 6.000000e+000 6.000000e+000
         vertex 7.000000e+000 6.000000e+000 0.000000e+000
         vertex 4.000000e+000 6.000000e+000 6.000000e+000
      endloop
   endfacet
   facet normal 0.000000e+000 1.000000e+000 0.000000e+000
      outer loop
         vertex 4.000000e+000 6.000000e+000 6.000000e+000
         vertex 7.000000e+000 6.000000e+000 0.000000e+000
         vertex 4.000000e+000 6.000000e+000 0.000000e+000
      endloop
   endfacet
   facet normal 0.000000e+000 -8.000000e-001 -6.000000e-001
      outer loop
         vertex 4.000000e+000 6.000000e+000 -2.817188e-017
         vertex 7.000000e+000 6.000000e+000 -2.817188e-017
         vertex 4.000000e+000 3.000000e+000 4.000000e+000
      endloop
   endfacet
   facet normal 1.000000e+000 0.000000e+000 0.000000e+000
      outer loop
         vertex 7.000000e+000 6.000000e+000 0.000000e+000
         vertex 7.000000e+000 6.000000e+000 6.000000e+000
         vertex 7.000000e+000 -6.000000e+000 -1.387779e-015
      endloop
   endfacet
   facet normal 1.000000e+000 0.000000e+000 0.000000e+000
      outer loop
         vertex 7.000000e+000 -6.000000e+000 -1.387779e-015
         vertex 7.000000e+000 6.000000e+000 6.000000e+000
         vertex 7.000000e+000 -6.000000e+000 6.000000e+000
      endloop
   endfacet
   facet normal -8.000000e-001 0.000000e+000 -6.000000e-001
      outer loop
         vertex 4.000000e+000 -3.000000e+000 4.000000e+000
         vertex 4.000000e+000 3.000000e+000 4.000000e+000
         vertex 7.000000e+000 -6.000000e+000 -1.415951e-015
      endloop
   endfacet
   facet normal -8.000000e-001 0.000000e+000 -6.000000e-001
      outer loop
         vertex 7.000000e+000 -6.000000e+000 -1.415951e-015
         vertex 4.000000e+000 3.000000e+000 4.000000e+000
         vertex 7.000000e+000 6.000000e+000 -5.277723e-016
      endloop
   endfacet
   facet normal -1.000000e+000 0.000000e+000 -6.938893e-016
      outer loop
         vertex 4.000000e+000 6.000000e+000 6.000000e+000
         vertex 4.000000e+000 6.000000e+000 0.000000e+000
         vertex 4.000000e+000 3.000000e+000 4.000000e+000
      endloop
   endfacet
   facet normal -1.000000e+000 0.000000e+000 -6.938893e-016
      outer loop
         vertex 4.000000e+000 6.000000e+000 6.000000e+000
         vertex 4.000000e+000 3.000000e+000 4.000000e+000
         vertex 4.000000e+000 -6.000000e+000 6.000000e+000
      endloop
   endfacet
   facet normal -1.000000e+000 0.000000e+000 -6.938893e-016
      outer loop
         vertex 4.000000e+000 -6.000000e+000 6.000000e+000
         vertex 4.000000e+000 3.000000e+000 4.000000e+000
         vertex 4.000000e+000 -3.000000e+000 4.000000e+000
      endloop
   endfacet
   facet normal -1.000000e+000 0.000000e+000 -6.938893e-016
      outer loop
         vertex 4.000000e+000 -6.000000e+000 6.000000e+000
         vertex 4.000000e+000 -3.000000e+000 4.000000e+000
         vertex 4.000000e+000 -6.000000e+000 5.551115e-015
      endloop
   endfacet
endsolid